<svg width="326" height="482" viewBox="0 0 326 482" fill="none" xmlns="http://www.w3.org/2000/svg">
<mask id="mask0_382_23786" style="mask-type:alpha" maskUnits="userSpaceOnUse" x="0" y="0" width="326" height="482">
<path fill-rule="evenodd" clip-rule="evenodd" d="M0 44L44 0H326V481.5H0V44ZM163 72C174.046 72 183 63.0457 183 52C183 40.9543 174.046 32 163 32C151.954 32 143 40.9543 143 52C143 63.0457 151.954 72 163 72Z" fill="#B5B58B"/>
</mask>
<g mask="url(#mask0_382_23786)">
<path fill-rule="evenodd" clip-rule="evenodd" d="M0 44L44 0H326V481.5H0V44ZM163 72C174.046 72 183 63.0457 183 52C183 40.9543 174.046 32 163 32C151.954 32 143 40.9543 143 52C143 63.0457 151.954 72 163 72Z" fill="#CAD5AA"/>
<path d="M45 200H46V444.5H45V200Z" fill="#333333"/>
<path d="M74.5 293H77V300.5H79.5V298H82V303H77V313H74.5V293ZM84.5 293H87V295.5H84.5V293ZM82 295.5H84.5V298H82V295.5ZM84.5 308H82V303H84.5V308ZM84.5 308H87V313H84.5V308ZM98.0098 293H100.51V310.5H98.0098V293ZM100.51 310.5H108.01V313H100.51V310.5ZM108.01 293H110.51V310.5H108.01V293ZM126.52 310.5V295.5H121.52V293H134.02V295.5H129.02V310.5H134.02V313H121.52V310.5H126.52ZM145.029 293H155.029V295.5H147.529V303H155.029V305.5H147.529V313H145.029V293ZM155.029 295.5H157.529V303H155.029V295.5ZM168.539 293H181.039V295.5H171.039V300.5H178.539V303H171.039V310.5H181.039V313H168.539V293ZM192.049 293H202.049V295.5H194.549V303H202.049V308H199.549V305.5H194.549V313H192.049V293ZM202.049 295.5H204.549V303H202.049V295.5ZM202.049 308H204.549V313H202.049V308ZM74.5 337H77V342H84.5V337H87V352H84.5V344.5H77V352H74.5V337ZM79.5 332H82V334.5H79.5V332ZM77 334.5H79.5V337H77V334.5ZM82 334.5H84.5V337H82V334.5ZM98.0098 332H100.51V349.5H110.51V352H98.0098V332ZM121.52 332H131.52V334.5H124.02V342H131.52V344.5H124.02V352H121.52V332ZM131.52 334.5H134.02V342H131.52V334.5ZM145.029 332H147.529V339.5H155.029V332H157.529V352H155.029V342H147.529V352H145.029V332ZM168.539 337H171.039V342H178.539V337H181.039V352H178.539V344.5H171.039V352H168.539V337ZM173.539 332H176.039V334.5H173.539V332ZM171.039 334.5H173.539V337H171.039V334.5ZM176.039 334.5H178.539V337H176.039V334.5Z" fill="#333333"/>
<rect y="444.5" width="326" height="1" fill="#333333"/>
<rect y="442.5" width="326" height="1" fill="#333333"/>
<path d="M-0.515625 445.5H13.4844V481.5H-0.515625V445.5ZM17.4922 459.5H19.4922V457.5H17.4922V459.5ZM21.4922 463.5H23.4922V461.5H21.4922V463.5ZM17.4922 453.5H15.4922V455.5H17.4922V453.5ZM21.4922 451.5H19.4922V453.5H21.4922V451.5ZM23.4922 455.5H25.4922V453.5H23.4922V455.5ZM15.4922 463.5H13.4922V445.5H15.4922V447.5H17.4922V445.5H21.4922V447.5H23.4922V445.5H27.4922V449.5H25.4922V451.5H27.4922V459.5H25.4922V461.5H27.4922V471.5H25.4922V473.5H27.4922V481.5H13.4922V479.5H15.4922V477.5H13.4922V465.5H15.4922V463.5ZM19.4922 471.5H21.4922V469.5H19.4922V471.5ZM25.4922 465.5H23.4922V467.5H25.4922V465.5ZM15.4922 469.5H17.4922V467.5H15.4922V469.5ZM17.4922 473.5H15.4922V475.5H17.4922V473.5ZM25.4922 475.5H23.4922V477.5H25.4922V475.5ZM21.4922 477.5H19.4922V479.5H21.4922V477.5ZM27.5 449.5H29.5V451.5H31.5V453.5H29.5V455.5H27.5V449.5ZM27.5 445.5H31.5V447.5H33.5V445.5H35.5V447.5H37.5V449.5H39.5V451.5H37.5V453.5H35.5V455.5H33.5V457.5H35.5V455.5H37.5V453.5H39.5V455.5H41.5V459.5H39.5V457.5H37.5V459.5H35.5V461.5H37.5V463.5H35.5V465.5H33.5V463.5H31.5V461.5H33.5V459.5H31.5V457.5H29.5V455.5H31.5V453.5H33.5V451.5H35.5V449.5H33.5V451.5H31.5V449.5H29.5V447.5H27.5V445.5ZM37.5 445.5H39.5V447.5H37.5V445.5ZM39.5 447.5H41.5V449.5H39.5V447.5ZM39.5 451.5H41.5V453.5H39.5V451.5ZM27.5 457.5H29.5V459.5H31.5V461.5H29.5V463.5H31.5V465.5H33.5V467.5H35.5V465.5H37.5V467.5H39.5V469.5H41.5V473.5H39.5V471.5H37.5V469.5H35.5V471.5H37.5V473.5H39.5V475.5H37.5V477.5H35.5V479.5H37.5V481.5H31.5V479.5H33.5V477.5H31.5V475.5H29.5V477.5H27.5V471.5H29.5V473.5H31.5V471.5H33.5V469.5H31.5V467.5H29.5V465.5H27.5V457.5ZM37.5 459.5H39.5V461.5H37.5V459.5ZM39.5 461.5H41.5V463.5H39.5V461.5ZM37.5 463.5H39.5V465.5H37.5V463.5ZM39.5 465.5H41.5V467.5H39.5V465.5ZM35.5 473.5H33.5V475.5H35.5V473.5ZM31.5 471.5H29.5V469.5H31.5V471.5ZM27.5 467.5H29.5V469.5H27.5V467.5ZM29.5 477.5H31.5V479.5H29.5V477.5ZM27.5 479.5H29.5V481.5H27.5V479.5ZM37.5 477.5H39.5V475.5H41.5V481.5H39.5V479.5H37.5V477.5ZM41.5078 447.5H43.5078V449.5H41.5078V447.5ZM43.5078 445.5H45.5078V447.5H43.5078V445.5ZM45.5078 447.5H47.5078V449.5H45.5078V447.5ZM43.5078 449.5H45.5078V451.5H43.5078V449.5ZM41.5078 451.5H43.5078V453.5H41.5078V451.5ZM45.5078 451.5H47.5078V453.5H45.5078V451.5ZM47.5078 449.5H49.5078V451.5H47.5078V449.5ZM51.5078 449.5H53.5078V451.5H51.5078V449.5ZM49.5078 451.5H51.5078V453.5H49.5078V451.5ZM49.5078 445.5H51.5078V447.5H49.5078V445.5ZM53.5078 445.5H55.5078V447.5H53.5078V445.5ZM47.5078 453.5H49.5078V455.5H47.5078V453.5ZM53.5078 453.5H55.5078V455.5H53.5078V453.5ZM49.5078 455.5H51.5078V457.5H49.5078V455.5ZM43.5078 455.5H45.5078V457.5H43.5078V455.5ZM47.5078 461.5H45.5078V459.5H47.5078V461.5ZM47.5078 461.5H49.5078V463.5H47.5078V461.5ZM53.5078 457.5H55.5078V459.5H53.5078V457.5ZM49.5078 459.5H47.5078V457.5H49.5078V459.5ZM49.5078 459.5H51.5078V461.5H49.5078V459.5ZM41.5078 459.5H43.5078V461.5H41.5078V459.5ZM45.5078 463.5H47.5078V465.5H45.5078V463.5ZM51.5078 461.5H53.5078V463.5H51.5078V461.5ZM41.5078 463.5H43.5078V465.5H41.5078V463.5ZM43.5078 467.5H45.5078V469.5H43.5078V467.5ZM47.5078 467.5H49.5078V469.5H47.5078V467.5ZM49.5078 465.5H51.5078V467.5H49.5078V465.5ZM53.5078 465.5H55.5078V467.5H53.5078V465.5ZM51.5078 469.5H53.5078V471.5H51.5078V469.5ZM41.5078 469.5H43.5078V471.5H41.5078V469.5ZM45.5078 469.5H47.5078V471.5H45.5078V469.5ZM43.5078 471.5H45.5078V473.5H43.5078V471.5ZM47.5078 471.5H49.5078V473.5H47.5078V471.5ZM45.5078 473.5H47.5078V475.5H45.5078V473.5ZM49.5078 473.5H51.5078V475.5H49.5078V473.5ZM47.5078 475.5H49.5078V477.5H47.5078V475.5ZM41.5078 475.5H43.5078V477.5H41.5078V475.5ZM53.5078 475.5H55.5078V477.5H53.5078V475.5ZM51.5078 477.5H53.5078V479.5H51.5078V477.5ZM45.5078 477.5H47.5078V479.5H45.5078V477.5ZM47.5078 479.5H49.5078V481.5H47.5078V479.5ZM41.5078 479.5H43.5078V481.5H41.5078V479.5ZM53.5078 471.5H55.5078V473.5H53.5078V471.5Z" fill="#333333"/>
<path d="M78.4492 464.5H79.4492V467.5H78.4492V464.5ZM74.4492 464.5H75.4492V467.5H74.4492V464.5ZM76.4492 462.5H75.4492V461.5H76.4492V462.5ZM76.4492 462.5H77.4492V463.5H76.4492V462.5ZM77.4492 461.5H78.4492V462.5H77.4492V461.5ZM75.4492 461.5H74.4492V459.5H75.4492V461.5ZM75.4492 463.5H76.4492V464.5H75.4492V463.5ZM78.4492 459.5H79.4492V461.5H78.4492V459.5ZM77.4492 463.5H78.4492V464.5H77.4492V463.5ZM96.4531 464.5H97.4531V467.5H96.4531V464.5ZM92.4531 464.5H93.4531V467.5H92.4531V464.5ZM94.4531 462.5H93.4531V461.5H94.4531V462.5ZM94.4531 462.5H95.4531V463.5H94.4531V462.5ZM95.4531 461.5H96.4531V462.5H95.4531V461.5ZM93.4531 461.5H92.4531V459.5H93.4531V461.5ZM93.4531 463.5H94.4531V464.5H93.4531V463.5ZM96.4531 459.5H97.4531V461.5H96.4531V459.5ZM95.4531 463.5H96.4531V464.5H95.4531V463.5ZM115.457 463.5V464.5H110.457V463.5H115.457ZM128.461 465.5H129.461V466.5H133.461V467.5H128.461V465.5ZM132.461 460.5H129.461V459.5H132.461V460.5ZM132.461 460.5H133.461V462.5H132.461V460.5ZM129.461 464.5H130.461V465.5H129.461V464.5ZM128.461 460.5H129.461V461.5H128.461V460.5ZM131.461 462.5H132.461V463.5H131.461V462.5ZM130.461 463.5H131.461V464.5H130.461V463.5ZM149.465 460.5H150.465V459.5H151.465V467.5H150.465V465.5H146.465V463.5H147.465V464.5H150.465V461.5H149.465V460.5ZM148.465 461.5H149.465V462.5H148.465V461.5ZM147.465 462.5H148.465V463.5H147.465V462.5ZM164.469 460.5H165.469V462.5H164.469V460.5ZM168.469 460.5H165.469V459.5H168.469V460.5ZM168.469 460.5H169.469V462.5H168.469V460.5ZM165.469 462.5H168.469V463.5H165.469V462.5ZM168.469 463.5H169.469V466.5H168.469V463.5ZM164.469 463.5H165.469V466.5H164.469V463.5ZM168.469 466.5V467.5H165.469V466.5H168.469ZM182.473 460.5H183.473V462.5H182.473V460.5ZM186.473 460.5H183.473V459.5H186.473V460.5ZM186.473 460.5H187.473V462.5H186.473V460.5ZM183.473 462.5H186.473V463.5H183.473V462.5ZM186.473 463.5H187.473V466.5H186.473V463.5ZM182.473 463.5H183.473V466.5H182.473V463.5ZM186.473 466.5V467.5H183.473V466.5H186.473ZM200.477 460.5H201.477V461.5H200.477V460.5ZM201.477 459.5H204.477V460.5H201.477V459.5ZM204.477 460.5H205.477V462.5H204.477V460.5ZM202.477 462.5H204.477V463.5H202.477V462.5ZM204.477 463.5H205.477V466.5H204.477V463.5ZM204.477 466.5V467.5H201.477V466.5H204.477ZM201.477 466.5H200.477V465.5H201.477V466.5ZM220.48 461.5H218.48V460.5H220.48V459.5H221.48V466.5H223.48V467.5H218.48V466.5H220.48V461.5ZM240.484 466.5V467.5H237.484V466.5H240.484ZM237.484 466.5H236.484V465.5H237.484V466.5ZM240.484 463.5V460.5H241.484V466.5H240.484V464.5H237.484V463.5H240.484ZM237.484 463.5H236.484V460.5H237.484V463.5ZM237.484 459.5H240.484V460.5H237.484V459.5ZM254.488 460.5H255.488V462.5H254.488V460.5ZM258.488 460.5H255.488V459.5H258.488V460.5ZM258.488 460.5H259.488V462.5H258.488V460.5ZM255.488 462.5H258.488V463.5H255.488V462.5ZM258.488 463.5H259.488V466.5H258.488V463.5ZM254.488 463.5H255.488V466.5H254.488V463.5ZM258.488 466.5V467.5H255.488V466.5H258.488ZM275.492 460.5H276.492V459.5H277.492V467.5H276.492V465.5H272.492V463.5H273.492V464.5H276.492V461.5H275.492V460.5ZM274.492 461.5H275.492V462.5H274.492V461.5ZM273.492 462.5H274.492V463.5H273.492V462.5ZM290.496 460.5H291.496V463.5H292.496V464.5H291.496V466.5H290.496V460.5ZM291.496 466.5H294.496V467.5H291.496V466.5ZM291.496 459.5H294.496V460.5H291.496V459.5ZM294.496 460.5H295.496V466.5H294.496V462.5H293.496V461.5H294.496V460.5ZM292.496 462.5H293.496V463.5H292.496V462.5Z" fill="#333333"/>
<path d="M19 374.521L19 370.521L20 370.521L20 373.521L26 373.521L26 370.521L27 370.521L27 374.521L19 374.521ZM20 370.521L20 369.521L26 369.521L26 370.521L20 370.521ZM19 364.518L19 359.518L20 359.518L20 363.518L22 363.518L22 360.518L23 360.518L23 363.518L26 363.518L26 359.518L27 359.518L27 364.518L19 364.518ZM20 354.514L20 353.514L22 353.514L22 354.514L20 354.514ZM22 353.514L22 350.514L23 350.514L23 353.514L22 353.514ZM26 350.514L27 350.514L27 353.514L26 353.514L26 350.514ZM26 353.514L26 354.514L25 354.514L25 353.514L26 353.514ZM23 350.514L23 349.514L26 349.514L26 350.514L23 350.514ZM19 353.514L19 350.514L20 350.514L20 353.514L19 353.514ZM20 350.514L20 349.514L21 349.514L21 350.514L20 350.514ZM19 344.51L19 339.51L20 339.51L20 341.51L27 341.51L27 342.51L20 342.51L20 344.51L19 344.51ZM26 332.506L20 332.506L20 334.506L19 334.506L19 329.506L20 329.506L20 331.506L26 331.506L26 329.506L27 329.506L27 334.506L26 334.506L26 332.506ZM19 324.502L19 323.502L21 323.502L21 322.502L22 322.502L22 323.502L27 323.502L27 324.502L19 324.502ZM24 320.502L24 321.502L23 321.502L23 320.502L19 320.502L19 319.502L27 319.502L27 320.502L24 320.502ZM23 321.502L23 322.502L22 322.502L22 321.502L23 321.502ZM21 314.498L21 313.498L23 313.498L23 310.498L21 310.498L21 309.498L27 309.498L27 310.498L24 310.498L24 313.498L27 313.498L27 314.498L21 314.498ZM19 312.498L19 311.498L20 311.498L20 312.498L19 312.498ZM20 313.498L20 312.498L21 312.498L21 313.498L20 313.498ZM20 311.498L20 310.498L21 310.498L21 311.498L20 311.498ZM19 304.494L19 299.494L20 299.494L20 301.494L27 301.494L27 302.494L20 302.494L20 304.494L19 304.494ZM26 292.49L20 292.49L20 294.49L19 294.49L19 289.49L20 289.49L20 291.49L26 291.49L26 289.49L27 289.49L27 294.49L26 294.49L26 292.49ZM20 284.486L20 283.486L26 283.486L26 284.486L20 284.486ZM26 283.486L26 280.486L27 280.486L27 283.486L26 283.486ZM20 280.486L20 279.486L26 279.486L26 280.486L20 280.486ZM19 283.486L19 280.486L20 280.486L20 283.486L19 283.486ZM19 274.482L19 273.482L21 273.482L21 272.482L22 272.482L22 273.482L27 273.482L27 274.482L19 274.482ZM24 270.482L24 271.482L23 271.482L23 270.482L19 270.482L19 269.482L27 269.482L27 270.482L24 270.482ZM23 271.482L23 272.482L22 272.482L22 271.482L23 271.482Z" fill="#333333"/>
<rect x="121" y="105" width="1" height="93" fill="#333333"/>
<rect x="123" y="105" width="1" height="93" fill="#333333"/>
<rect x="16" y="197" width="294" height="1" fill="#333333"/>
<rect x="16" y="199" width="294" height="1" fill="#333333"/>
<rect x="16" y="104" width="294" height="1" fill="#333333"/>
<path d="M23 130H24V135H23V130ZM24 135H25V138H24V135ZM27 130H28V135H27V130ZM26 135H27V138H26V135ZM25 133H26V135H25V133ZM33.0039 130H38.0039V131H34.0039V133H37.0039V134H34.0039V137H38.0039V138H33.0039V130ZM45.0078 137V131H43.0078V130H48.0078V131H46.0078V137H48.0078V138H43.0078V137H45.0078ZM53.0117 131H54.0117V137H53.0117V131ZM54.0117 137H57.0117V138H54.0117V137ZM57.0117 135H56.0117V134H58.0117V137H57.0117V135ZM54.0117 130H57.0117V131H54.0117V130ZM57.0117 131H58.0117V132H57.0117V131ZM63.0156 130H64.0156V133H67.0156V130H68.0156V138H67.0156V134H64.0156V138H63.0156V130ZM73.0195 130H78.0195V131H76.0195V138H75.0195V131H73.0195V130Z" fill="#333333"/>
<path d="M58 163H59V170H63V171H58V163ZM68.0039 163H72.0039V164H69.0039V166H72.0039V167H69.0039V170H72.0039V171H68.0039V163ZM72.0039 167H73.0039V170H72.0039V167ZM72.0039 164H73.0039V166H72.0039V164ZM78.0078 164H79.0078V166H78.0078V164ZM79.0078 166H82.0078V167H79.0078V166ZM82.0078 170V171H79.0078V170H82.0078ZM79.0078 170H78.0078V169H79.0078V170ZM82.0078 167H83.0078V170H82.0078V167ZM79.0078 163H82.0078V164H79.0078V163ZM82.0078 164H83.0078V165H82.0078V164Z" fill="#333333"/>
<path d="M187 131H188V137H187V131ZM188 137H191V138H188V137ZM191 131H192V137H191V131ZM188 130H191V131H188V130ZM197.004 130H201.004V131H198.004V134H201.004V136H200.004V135H198.004V138H197.004V130ZM201.004 131H202.004V134H201.004V131ZM201.004 136H202.004V138H201.004V136ZM209.008 137V131H207.008V130H212.008V131H210.008V137H212.008V138H207.008V137H209.008ZM217.012 131H218.012V137H217.012V131ZM218.012 137H221.012V138H218.012V137ZM221.012 135H220.012V134H222.012V137H221.012V135ZM218.012 130H221.012V131H218.012V130ZM221.012 131H222.012V132H221.012V131ZM229.016 136H230.016V138H229.016V136ZM247.023 130H252.023V131H248.023V133H251.023V134H248.023V138H247.023V130ZM257.027 130H258.027V137H262.027V138H257.027V130ZM269.031 137V131H267.031V130H272.031V131H270.031V137H272.031V138H267.031V137H269.031ZM277.035 131H278.035V137H277.035V131ZM278.035 137H281.035V138H278.035V137ZM281.035 135H280.035V134H282.035V137H281.035V135ZM278.035 130H281.035V131H278.035V130ZM281.035 131H282.035V132H281.035V131ZM287.039 130H288.039V133H291.039V130H292.039V138H291.039V134H288.039V138H287.039V130ZM297.043 130H302.043V131H300.043V138H299.043V131H297.043V130Z" fill="#333333"/>
<path d="M30 157H32V155H34V171H32V167H24V163H26V165H32V159H30V157ZM28 159H30V161H28V159ZM26 161H28V163H26V161ZM38.0078 155H48.0078V157H40.0078V161H46.0078V163H38.0078V155ZM46.0078 163H48.0078V169H46.0078V163ZM46.0078 169V171H40.0078V169H46.0078ZM40.0078 169H38.0078V167H40.0078V169Z" fill="#333333"/>
<path d="M229.953 165H231.953V171H229.953V165ZM221.953 165H223.953V171H221.953V165ZM225.953 161H223.953V159H225.953V161ZM225.953 161H227.953V163H225.953V161ZM227.953 159H229.953V161H227.953V159ZM223.953 159H221.953V155H223.953V159ZM223.953 163H225.953V165H223.953V163ZM229.953 155H231.953V159H229.953V155ZM227.953 163H229.953V165H227.953V163ZM243.961 165H245.961V171H243.961V165ZM235.961 165H237.961V171H235.961V165ZM239.961 161H237.961V159H239.961V161ZM239.961 161H241.961V163H239.961V161ZM241.961 159H243.961V161H241.961V159ZM237.961 159H235.961V155H237.961V159ZM237.961 163H239.961V165H237.961V163ZM243.961 155H245.961V159H243.961V155ZM241.961 163H243.961V165H241.961V163ZM251.969 165H253.969V171H251.969V165ZM253.969 163H255.969V165H253.969V163ZM255.969 161H257.969V163H255.969V161ZM257.969 157H249.969V155H259.969V161H257.969V157ZM263.977 157H265.977V161H263.977V157ZM271.977 157H265.977V155H271.977V157ZM271.977 157H273.977V161H271.977V157ZM265.977 161H271.977V163H265.977V161ZM271.977 163H273.977V169H271.977V163ZM263.977 163H265.977V169H263.977V163ZM271.977 169V171H265.977V169H271.977ZM285.984 169V171H279.984V169H285.984ZM279.984 169H277.984V167H279.984V169ZM285.984 163V157H287.984V169H285.984V165H279.984V163H285.984ZM279.984 163H277.984V157H279.984V163ZM279.984 155H285.984V157H279.984V155ZM299.992 163V161H301.992V163H303.992V165H301.992V167H299.992V165H291.992V163H299.992ZM299.992 161H297.992V159H299.992V161ZM297.992 167H299.992V169H297.992V167Z" fill="#333333"/>
<path opacity="0.2" fill-rule="evenodd" clip-rule="evenodd" d="M163 82C179.569 82 193 68.5685 193 52C193 35.4315 179.569 22 163 22C146.431 22 133 35.4315 133 52C133 68.5685 146.431 82 163 82ZM163 72C174.046 72 183 63.0457 183 52C183 40.9543 174.046 32 163 32C151.954 32 143 40.9543 143 52C143 63.0457 151.954 72 163 72Z" fill="#333333"/>
</g>
</svg>
