<svg width="1352" height="465" viewBox="0 0 1352 465" fill="none" xmlns="http://www.w3.org/2000/svg">
<path fill-rule="evenodd" clip-rule="evenodd" d="M80 0L0 0L0 465H80V461.5H83V465L994 465V461.5H997V465L1352 465V0L997 0V10.5H994V0L83 0V10.5L80 10.5V0ZM994 21.5H997V32.5L994 32.5V21.5ZM997 43.5L994 43.5V54.5L997 54.5V43.5ZM994 65.5H997V76.5H994V65.5ZM997 87.5H994V98.5H997V87.5ZM994 109.5H997V120.5H994V109.5ZM997 131.5H994V142.5H997V131.5ZM994 153.5H997V164.5H994V153.5ZM997 175.5H994V186.5H997V175.5ZM994 197.5H997V208.5H994V197.5ZM997 219.5H994V230.5H997V219.5ZM994 241.5H997V252.5H994V241.5ZM997 263.5H994V274.5H997V263.5ZM994 285.5H997V296.5H994V285.5ZM997 307.5H994V318.5H997V307.5ZM994 329.5H997V340.5H994V329.5ZM997 351.5H994L994 362.5H997L997 351.5ZM994 373.5H997V384.5H994V373.5ZM997 395.5H994V406.5H997V395.5ZM994 417.5H997V428.5H994V417.5ZM997 439.5H994V450.5H997V439.5ZM80 21.5H83V32.5H80V21.5ZM83 43.5H80L80 54.5H83L83 43.5ZM80 65.5H83V76.5H80V65.5ZM83 87.5H80V98.5H83V87.5ZM80 109.5H83V120.5H80V109.5ZM83 131.5H80L80 142.5H83L83 131.5ZM80 153.5H83V164.5H80V153.5ZM83 175.5H80V186.5H83V175.5ZM80 197.5H83V208.5H80V197.5ZM83 219.5H80L80 230.5H83L83 219.5ZM80 241.5H83V252.5H80V241.5ZM83 263.5H80V274.5H83V263.5ZM80 285.5H83V296.5H80V285.5ZM83 307.5H80L80 318.5H83L83 307.5ZM80 329.5H83V340.5H80V329.5ZM83 351.5H80V362.5H83V351.5ZM80 373.5H83V384.5H80V373.5ZM83 395.5H80L80 406.5H83L83 395.5ZM80 417.5H83V428.5H80V417.5ZM83 439.5H80V450.5H83V439.5Z" fill="#3E3E3E"/>
<path d="M634.412 38.5H655.412V92.5H634.412V38.5ZM655.424 41.5L658.424 41.5V44.5L655.424 44.5V41.5ZM658.424 38.5L661.424 38.5V41.5H658.424V38.5ZM661.424 41.5H664.424V44.5H661.424V41.5ZM658.424 44.5H661.424V47.5H658.424V44.5ZM655.424 47.5L658.424 47.5V50.5H655.424V47.5ZM661.424 47.5H664.424V50.5H661.424V47.5ZM664.424 44.5H667.424V47.5H664.424V44.5ZM670.424 44.5H673.424V47.5H670.424V44.5ZM667.424 47.5H670.424V50.5H667.424V47.5ZM667.424 38.5H670.424V41.5H667.424V38.5ZM673.424 38.5H676.424V41.5H673.424V38.5ZM664.424 50.5H667.424V53.5H664.424V50.5ZM673.424 50.5H676.424V53.5H673.424V50.5ZM667.424 53.5H670.424V56.5H667.424V53.5ZM658.424 53.5H661.424V56.5H658.424V53.5ZM664.424 62.5H661.424V59.5L664.424 59.5V62.5ZM664.424 62.5L667.424 62.5V65.5H664.424V62.5ZM673.424 56.5H676.424V59.5H673.424V56.5ZM667.424 59.5H664.424V56.5H667.424V59.5ZM667.424 59.5H670.424V62.5H667.424V59.5ZM655.424 59.5H658.424V62.5H655.424V59.5ZM661.424 65.5H664.424V68.5H661.424V65.5ZM670.424 62.5H673.424V65.5H670.424V62.5ZM655.424 65.5H658.424V68.5H655.424V65.5ZM658.424 71.5H661.424V74.5H658.424V71.5ZM664.424 71.5H667.424V74.5H664.424V71.5ZM667.424 68.5H670.424V71.5H667.424V68.5ZM673.424 68.5H676.424V71.5H673.424V68.5ZM670.424 74.5H673.424V77.5H670.424V74.5ZM655.424 74.5H658.424V77.5H655.424V74.5ZM661.424 74.5H664.424V77.5H661.424V74.5ZM658.424 77.5H661.424V80.5H658.424V77.5ZM664.424 77.5H667.424V80.5H664.424V77.5ZM661.424 80.5H664.424V83.5H661.424V80.5ZM667.424 80.5H670.424V83.5H667.424V80.5ZM664.424 83.5H667.424V86.5H664.424V83.5ZM655.424 83.5H658.424V86.5H655.424V83.5ZM673.424 83.5H676.424V86.5H673.424V83.5ZM670.424 86.5H673.424V89.5H670.424V86.5ZM661.424 86.5H664.424V89.5H661.424V86.5ZM664.424 89.5H667.424V92.5H664.424V89.5ZM655.424 89.5H658.424V92.5H655.424V89.5ZM673.424 77.5H676.424V80.5H673.424V77.5ZM676.436 44.5H679.436V47.5H682.436V50.5H679.436V53.5H676.436V44.5ZM676.436 38.5H682.436V41.5H685.436V38.5H688.436V41.5H691.436V44.5H694.436V47.5H691.436V50.5H688.436V53.5H685.436V56.5H688.436V53.5H691.436V50.5H694.436V53.5L697.436 53.5V59.5L694.436 59.5V56.5H691.436V59.5H688.436V62.5L691.436 62.5V65.5L688.436 65.5V68.5H685.436V65.5H682.436V62.5H685.436V59.5H682.436V56.5H679.436V53.5H682.436V50.5H685.436V47.5H688.436V44.5H685.436V47.5H682.436V44.5H679.436V41.5H676.436V38.5ZM691.436 38.5H694.436V41.5H691.436V38.5ZM694.436 41.5H697.436V44.5H694.436V41.5ZM694.436 47.5H697.436V50.5H694.436V47.5ZM676.436 56.5H679.436V59.5H682.436V62.5H679.436V65.5H682.436V68.5H685.436V71.5H688.436V68.5L691.436 68.5V71.5H694.436V74.5H697.436V80.5H694.436V77.5H691.436V74.5L688.436 74.5V77.5H691.436V80.5H694.436V83.5H691.436V86.5H688.436V89.5H691.436V92.5H682.436V89.5H685.436V86.5H682.436V83.5H679.436V86.5H676.436V77.5H679.436V80.5H682.436V77.5H685.436V74.5H682.436V71.5H679.436V68.5H676.436V56.5ZM691.436 59.5H694.436V62.5H691.436V59.5ZM694.436 62.5H697.436V65.5H694.436V62.5ZM691.436 65.5H694.436V68.5H691.436V65.5ZM694.436 68.5H697.436V71.5H694.436V68.5ZM688.436 80.5H685.436V83.5H688.436V80.5ZM682.436 77.5H679.436V74.5H682.436V77.5ZM676.436 71.5H679.436V74.5H676.436V71.5ZM679.436 86.5H682.436V89.5H679.436V86.5ZM676.436 89.5H679.436V92.5H676.436V89.5ZM691.436 86.5H694.436V83.5H697.436V92.5H694.436V89.5H691.436V86.5ZM697.447 44.5L700.447 44.5V47.5H703.447V50.5H700.447V53.5H697.447V44.5ZM697.447 38.5L703.447 38.5V41.5H706.447V38.5H709.447V41.5H712.447V44.5H715.447V47.5H712.447V50.5H709.447V53.5H706.447V56.5H709.447V53.5H712.447V50.5H715.447V53.5H718.447V59.5H715.447V56.5H712.447V59.5H709.447V62.5H712.447V65.5H709.447V68.5H706.447V65.5H703.447V62.5H706.447V59.5H703.447V56.5H700.447V53.5H703.447V50.5H706.447V47.5H709.447V44.5H706.447V47.5H703.447V44.5H700.447V41.5L697.447 41.5V38.5ZM712.447 38.5H715.447V41.5H712.447V38.5ZM715.447 41.5H718.447V44.5H715.447V41.5ZM715.447 47.5H718.447V50.5H715.447V47.5ZM697.447 56.5H700.447V59.5H703.447V62.5H700.447V65.5H703.447V68.5H706.447V71.5H709.447V68.5H712.447V71.5H715.447V74.5H718.447V80.5H715.447V77.5H712.447V74.5H709.447V77.5H712.447V80.5H715.447V83.5H712.447V86.5H709.447V89.5H712.447V92.5H703.447V89.5H706.447V86.5H703.447V83.5H700.447V86.5L697.447 86.5V77.5L700.447 77.5V80.5H703.447V77.5H706.447V74.5H703.447V71.5H700.447V68.5H697.447V56.5ZM712.447 59.5H715.447V62.5H712.447V59.5ZM715.447 62.5H718.447V65.5H715.447V62.5ZM712.447 65.5H715.447V68.5H712.447V65.5ZM715.447 68.5H718.447V71.5H715.447V68.5ZM709.447 80.5H706.447V83.5H709.447V80.5ZM703.447 77.5H700.447V74.5H703.447V77.5ZM697.447 71.5H700.447V74.5H697.447V71.5ZM700.447 86.5H703.447V89.5H700.447V86.5ZM697.447 89.5L700.447 89.5V92.5L697.447 92.5V89.5ZM712.447 86.5H715.447V83.5H718.447V92.5H715.447V89.5H712.447V86.5ZM718.459 44.5H721.459V47.5H724.459V50.5H721.459V53.5H718.459V44.5ZM718.459 38.5H724.459V41.5H727.459V38.5H730.459V41.5H733.459V44.5H736.459V47.5H733.459V50.5H730.459V53.5H727.459V56.5H730.459V53.5H733.459V50.5H736.459V53.5H739.459V59.5H736.459V56.5H733.459V59.5H730.459V62.5H733.459V65.5H730.459V68.5H727.459V65.5H724.459V62.5H727.459V59.5H724.459V56.5H721.459V53.5H724.459V50.5H727.459V47.5H730.459V44.5H727.459V47.5H724.459V44.5H721.459V41.5H718.459V38.5ZM733.459 38.5H736.459V41.5H733.459V38.5ZM736.459 41.5H739.459V44.5H736.459V41.5ZM736.459 47.5H739.459V50.5H736.459V47.5ZM718.459 56.5H721.459V59.5H724.459V62.5H721.459V65.5H724.459V68.5H727.459V71.5H730.459V68.5H733.459V71.5H736.459V74.5H739.459V80.5H736.459V77.5H733.459V74.5H730.459V77.5H733.459V80.5H736.459V83.5H733.459V86.5H730.459V89.5H733.459V92.5H724.459V89.5H727.459V86.5H724.459V83.5H721.459V86.5H718.459V77.5H721.459V80.5H724.459V77.5H727.459V74.5H724.459V71.5H721.459V68.5H718.459V56.5ZM733.459 59.5H736.459V62.5H733.459V59.5ZM736.459 62.5H739.459V65.5H736.459V62.5ZM733.459 65.5H736.459V68.5H733.459V65.5ZM736.459 68.5H739.459V71.5H736.459V68.5ZM730.459 80.5H727.459V83.5H730.459V80.5ZM724.459 77.5H721.459V74.5H724.459V77.5ZM718.459 71.5H721.459V74.5H718.459V71.5ZM721.459 86.5H724.459V89.5H721.459V86.5ZM718.459 89.5H721.459V92.5H718.459V89.5ZM733.459 86.5H736.459V83.5H739.459V92.5H736.459V89.5H733.459V86.5ZM739.471 44.5H742.471V47.5H745.471V50.5H742.471V53.5H739.471V44.5ZM739.471 38.5H745.471V41.5L748.471 41.5V38.5H751.471V41.5H754.471V44.5H757.471V47.5H754.471V50.5H751.471V53.5L748.471 53.5V56.5L751.471 56.5V53.5H754.471V50.5H757.471V53.5H760.471V59.5H757.471V56.5H754.471V59.5H751.471V62.5H754.471V65.5H751.471V68.5H748.471V65.5H745.471V62.5H748.471V59.5H745.471V56.5H742.471V53.5H745.471V50.5L748.471 50.5V47.5H751.471V44.5H748.471V47.5L745.471 47.5V44.5L742.471 44.5V41.5H739.471V38.5ZM754.471 38.5H757.471V41.5H754.471V38.5ZM757.471 41.5H760.471V44.5H757.471V41.5ZM757.471 47.5H760.471V50.5H757.471V47.5ZM739.471 56.5H742.471V59.5H745.471V62.5H742.471V65.5H745.471V68.5H748.471V71.5H751.471V68.5H754.471V71.5L757.471 71.5V74.5H760.471V80.5H757.471V77.5H754.471V74.5H751.471V77.5H754.471V80.5H757.471V83.5H754.471V86.5H751.471V89.5H754.471V92.5H745.471V89.5H748.471V86.5H745.471V83.5L742.471 83.5V86.5H739.471V77.5H742.471V80.5L745.471 80.5V77.5H748.471V74.5H745.471V71.5H742.471V68.5H739.471V56.5ZM754.471 59.5H757.471V62.5L754.471 62.5V59.5ZM757.471 62.5H760.471V65.5H757.471V62.5ZM754.471 65.5L757.471 65.5V68.5L754.471 68.5V65.5ZM757.471 68.5H760.471V71.5H757.471V68.5ZM751.471 80.5H748.471V83.5H751.471V80.5ZM745.471 77.5L742.471 77.5V74.5H745.471V77.5ZM739.471 71.5H742.471V74.5H739.471V71.5ZM742.471 86.5L745.471 86.5V89.5L742.471 89.5V86.5ZM739.471 89.5H742.471V92.5H739.471V89.5ZM754.471 86.5H757.471V83.5H760.471V92.5H757.471V89.5H754.471V86.5ZM760.482 44.5H763.482V47.5H766.482V50.5H763.482V53.5H760.482V44.5ZM760.482 38.5H766.482V41.5H769.482V38.5H772.482V41.5H775.482V44.5H778.482V47.5H775.482V50.5H772.482V53.5H769.482V56.5H772.482V53.5H775.482V50.5H778.482V53.5H781.482V59.5H778.482V56.5H775.482V59.5H772.482V62.5H775.482V65.5H772.482V68.5H769.482V65.5H766.482V62.5H769.482V59.5H766.482V56.5H763.482V53.5H766.482V50.5H769.482V47.5H772.482V44.5H769.482V47.5H766.482V44.5H763.482V41.5H760.482V38.5ZM775.482 38.5H778.482V41.5H775.482V38.5ZM778.482 41.5H781.482V44.5H778.482V41.5ZM778.482 47.5H781.482V50.5H778.482V47.5ZM760.482 56.5H763.482V59.5H766.482V62.5H763.482V65.5H766.482V68.5H769.482V71.5H772.482V68.5H775.482V71.5H778.482V74.5H781.482V80.5H778.482V77.5H775.482V74.5H772.482V77.5H775.482V80.5H778.482V83.5H775.482V86.5H772.482V89.5H775.482V92.5H766.482V89.5H769.482V86.5H766.482V83.5H763.482V86.5H760.482V77.5H763.482V80.5H766.482V77.5H769.482V74.5H766.482V71.5H763.482V68.5H760.482V56.5ZM775.482 59.5H778.482V62.5L775.482 62.5V59.5ZM778.482 62.5H781.482V65.5H778.482V62.5ZM775.482 65.5H778.482V68.5H775.482V65.5ZM778.482 68.5H781.482V71.5H778.482V68.5ZM772.482 80.5H769.482V83.5H772.482V80.5ZM766.482 77.5H763.482V74.5H766.482V77.5ZM760.482 71.5H763.482V74.5H760.482V71.5ZM763.482 86.5H766.482V89.5H763.482V86.5ZM760.482 89.5H763.482V92.5H760.482V89.5ZM775.482 86.5H778.482V83.5H781.482V92.5H778.482V89.5H775.482V86.5ZM781.494 44.5H784.494V47.5L787.494 47.5V50.5L784.494 50.5V53.5L781.494 53.5V44.5ZM781.494 38.5L787.494 38.5V41.5H790.494V38.5H793.494V41.5H796.494V44.5H799.494V47.5H796.494V50.5H793.494V53.5H790.494V56.5H793.494V53.5H796.494V50.5H799.494V53.5H802.494V59.5H799.494V56.5H796.494V59.5H793.494V62.5H796.494V65.5H793.494V68.5H790.494V65.5H787.494V62.5H790.494V59.5H787.494V56.5H784.494V53.5H787.494V50.5H790.494V47.5H793.494V44.5H790.494V47.5H787.494V44.5H784.494V41.5H781.494V38.5ZM796.494 38.5H799.494V41.5H796.494V38.5ZM799.494 41.5H802.494V44.5H799.494V41.5ZM799.494 47.5H802.494V50.5H799.494V47.5ZM781.494 56.5L784.494 56.5V59.5H787.494V62.5H784.494V65.5H787.494V68.5H790.494V71.5H793.494V68.5H796.494V71.5H799.494V74.5H802.494V80.5H799.494V77.5H796.494V74.5H793.494V77.5H796.494V80.5H799.494V83.5H796.494V86.5H793.494V89.5H796.494V92.5H787.494V89.5H790.494V86.5H787.494V83.5H784.494V86.5H781.494V77.5H784.494V80.5H787.494V77.5H790.494V74.5H787.494V71.5H784.494V68.5H781.494V56.5ZM796.494 59.5H799.494V62.5H796.494V59.5ZM799.494 62.5H802.494V65.5H799.494V62.5ZM796.494 65.5H799.494V68.5H796.494V65.5ZM799.494 68.5H802.494V71.5H799.494V68.5ZM793.494 80.5H790.494V83.5H793.494V80.5ZM787.494 77.5H784.494V74.5H787.494V77.5ZM781.494 71.5H784.494V74.5H781.494V71.5ZM784.494 86.5H787.494V89.5H784.494V86.5ZM781.494 89.5H784.494V92.5H781.494V89.5ZM796.494 86.5H799.494V83.5H802.494V92.5H799.494V89.5H796.494V86.5ZM802.506 44.5H805.506V47.5H808.506V50.5H805.506V53.5H802.506V44.5ZM802.506 38.5H808.506V41.5H811.506V38.5H814.506V41.5H817.506V44.5H820.506V47.5H817.506V50.5H814.506V53.5H811.506V56.5H814.506V53.5H817.506V50.5H820.506V53.5H823.506V59.5H820.506V56.5H817.506V59.5H814.506V62.5H817.506V65.5H814.506V68.5H811.506V65.5H808.506V62.5H811.506V59.5H808.506V56.5H805.506V53.5H808.506V50.5H811.506V47.5H814.506V44.5H811.506V47.5H808.506V44.5H805.506V41.5H802.506V38.5ZM817.506 38.5H820.506V41.5H817.506V38.5ZM820.506 41.5H823.506V44.5H820.506V41.5ZM820.506 47.5H823.506V50.5H820.506V47.5ZM802.506 56.5H805.506V59.5H808.506V62.5H805.506V65.5H808.506V68.5H811.506V71.5H814.506V68.5H817.506V71.5H820.506V74.5H823.506V80.5H820.506V77.5H817.506V74.5H814.506V77.5H817.506V80.5H820.506V83.5H817.506V86.5H814.506V89.5H817.506V92.5H808.506V89.5H811.506V86.5H808.506V83.5H805.506V86.5H802.506V77.5H805.506V80.5H808.506V77.5H811.506V74.5H808.506V71.5H805.506V68.5H802.506V56.5ZM817.506 59.5H820.506V62.5H817.506V59.5ZM820.506 62.5H823.506V65.5H820.506V62.5ZM817.506 65.5H820.506V68.5H817.506V65.5ZM820.506 68.5H823.506V71.5H820.506V68.5ZM814.506 80.5H811.506V83.5H814.506V80.5ZM808.506 77.5H805.506V74.5H808.506V77.5ZM802.506 71.5H805.506V74.5H802.506V71.5ZM805.506 86.5H808.506V89.5H805.506V86.5ZM802.506 89.5H805.506V92.5H802.506V89.5ZM817.506 86.5H820.506V83.5H823.506V92.5H820.506V89.5H817.506V86.5ZM823.518 44.5H826.518V47.5H829.518V50.5H826.518V53.5H823.518V44.5ZM823.518 38.5H829.518V41.5H832.518V38.5H835.518V41.5H838.518V44.5H841.518V47.5H838.518V50.5L835.518 50.5V53.5H832.518V56.5H835.518V53.5L838.518 53.5V50.5H841.518V53.5H844.518V59.5H841.518V56.5H838.518V59.5L835.518 59.5V62.5H838.518V65.5H835.518V68.5H832.518V65.5H829.518V62.5H832.518V59.5H829.518V56.5H826.518V53.5H829.518V50.5H832.518V47.5L835.518 47.5V44.5L832.518 44.5V47.5H829.518V44.5H826.518V41.5H823.518V38.5ZM838.518 38.5H841.518V41.5H838.518V38.5ZM841.518 41.5H844.518V44.5H841.518V41.5ZM841.518 47.5H844.518V50.5H841.518V47.5ZM823.518 56.5H826.518V59.5H829.518V62.5H826.518V65.5H829.518V68.5H832.518V71.5H835.518V68.5H838.518V71.5H841.518V74.5H844.518V80.5H841.518V77.5H838.518V74.5H835.518V77.5H838.518V80.5H841.518V83.5H838.518V86.5H835.518V89.5H838.518V92.5H829.518V89.5H832.518V86.5H829.518V83.5H826.518V86.5H823.518V77.5H826.518V80.5H829.518V77.5H832.518V74.5H829.518V71.5H826.518V68.5H823.518V56.5ZM838.518 59.5H841.518V62.5H838.518V59.5ZM841.518 62.5L844.518 62.5V65.5H841.518V62.5ZM838.518 65.5H841.518V68.5H838.518V65.5ZM841.518 68.5H844.518V71.5H841.518V68.5ZM835.518 80.5H832.518V83.5H835.518V80.5ZM829.518 77.5H826.518V74.5H829.518V77.5ZM823.518 71.5H826.518V74.5H823.518V71.5ZM826.518 86.5H829.518V89.5H826.518V86.5ZM823.518 89.5H826.518V92.5H823.518V89.5ZM838.518 86.5H841.518V83.5H844.518V92.5H841.518V89.5H838.518V86.5ZM844.529 44.5H847.529V47.5H850.529V50.5H847.529V53.5H844.529V44.5ZM844.529 38.5H850.529V41.5H853.529V38.5H856.529V41.5H859.529V44.5H862.529V47.5H859.529V50.5H856.529V53.5H853.529V56.5H856.529V53.5H859.529V50.5H862.529V53.5H865.529V59.5H862.529V56.5H859.529V59.5H856.529V62.5H859.529V65.5H856.529V68.5H853.529V65.5H850.529V62.5H853.529V59.5H850.529V56.5H847.529V53.5H850.529V50.5H853.529V47.5H856.529V44.5H853.529V47.5H850.529V44.5H847.529V41.5H844.529V38.5ZM859.529 38.5H862.529V41.5H859.529V38.5ZM862.529 41.5H865.529V44.5H862.529V41.5ZM862.529 47.5H865.529V50.5H862.529V47.5ZM844.529 56.5H847.529V59.5H850.529V62.5H847.529V65.5H850.529V68.5H853.529V71.5H856.529V68.5H859.529V71.5H862.529V74.5H865.529V80.5H862.529V77.5H859.529V74.5H856.529V77.5H859.529V80.5H862.529V83.5H859.529V86.5H856.529V89.5H859.529V92.5H850.529V89.5H853.529V86.5H850.529V83.5H847.529V86.5H844.529V77.5H847.529V80.5H850.529V77.5H853.529V74.5H850.529V71.5H847.529V68.5H844.529V56.5ZM859.529 59.5H862.529V62.5H859.529V59.5ZM862.529 62.5H865.529V65.5H862.529V62.5ZM859.529 65.5H862.529V68.5H859.529V65.5ZM862.529 68.5H865.529V71.5H862.529V68.5ZM856.529 80.5H853.529V83.5H856.529V80.5ZM850.529 77.5H847.529V74.5H850.529V77.5ZM844.529 71.5H847.529V74.5H844.529V71.5ZM847.529 86.5H850.529V89.5H847.529V86.5ZM844.529 89.5H847.529V92.5H844.529V89.5ZM859.529 86.5H862.529V83.5H865.529V92.5H862.529V89.5H859.529V86.5ZM865.541 44.5H868.541V47.5H871.541V50.5H868.541V53.5H865.541V44.5ZM865.541 38.5H871.541V41.5H874.541V38.5H877.541V41.5H880.541V44.5H883.541V47.5H880.541V50.5H877.541V53.5H874.541V56.5H877.541V53.5H880.541V50.5H883.541V53.5H886.541V59.5H883.541V56.5H880.541V59.5H877.541V62.5H880.541V65.5H877.541V68.5H874.541V65.5H871.541V62.5H874.541V59.5H871.541V56.5L868.541 56.5V53.5L871.541 53.5V50.5L874.541 50.5V47.5L877.541 47.5V44.5L874.541 44.5V47.5H871.541V44.5H868.541V41.5H865.541V38.5ZM880.541 38.5H883.541V41.5H880.541V38.5ZM883.541 41.5H886.541V44.5H883.541V41.5ZM883.541 47.5H886.541V50.5H883.541V47.5ZM865.541 56.5H868.541V59.5L871.541 59.5V62.5H868.541V65.5H871.541V68.5H874.541V71.5H877.541V68.5H880.541V71.5H883.541V74.5H886.541V80.5H883.541V77.5H880.541V74.5H877.541V77.5H880.541V80.5H883.541V83.5H880.541V86.5H877.541V89.5H880.541V92.5L871.541 92.5V89.5H874.541V86.5H871.541V83.5H868.541V86.5H865.541V77.5H868.541V80.5H871.541V77.5H874.541V74.5H871.541V71.5H868.541V68.5L865.541 68.5V56.5ZM880.541 59.5H883.541V62.5H880.541V59.5ZM883.541 62.5H886.541V65.5H883.541V62.5ZM880.541 65.5H883.541V68.5H880.541V65.5ZM883.541 68.5H886.541V71.5H883.541V68.5ZM877.541 80.5L874.541 80.5V83.5L877.541 83.5V80.5ZM871.541 77.5H868.541V74.5H871.541V77.5ZM865.541 71.5L868.541 71.5V74.5L865.541 74.5V71.5ZM868.541 86.5H871.541V89.5H868.541V86.5ZM865.541 89.5H868.541V92.5H865.541V89.5ZM880.541 86.5H883.541V83.5H886.541V92.5H883.541V89.5H880.541V86.5ZM886.553 44.5H889.553V47.5H892.553V50.5H889.553V53.5H886.553V44.5ZM886.553 38.5H892.553V41.5H895.553V38.5H898.553V41.5H901.553V44.5H904.553V47.5H901.553V50.5H898.553V53.5H895.553V56.5H898.553V53.5H901.553V50.5H904.553V53.5H907.553V59.5H904.553V56.5H901.553V59.5H898.553V62.5H901.553V65.5H898.553V68.5H895.553V65.5H892.553V62.5H895.553V59.5H892.553V56.5H889.553V53.5H892.553V50.5H895.553V47.5H898.553V44.5H895.553V47.5H892.553V44.5H889.553V41.5H886.553V38.5ZM901.553 38.5H904.553V41.5H901.553V38.5ZM904.553 41.5H907.553V44.5H904.553V41.5ZM904.553 47.5H907.553V50.5H904.553V47.5ZM886.553 56.5H889.553V59.5H892.553V62.5H889.553V65.5H892.553V68.5H895.553V71.5H898.553V68.5H901.553V71.5H904.553V74.5H907.553V80.5H904.553V77.5H901.553V74.5H898.553V77.5H901.553V80.5H904.553V83.5H901.553V86.5H898.553V89.5H901.553V92.5H892.553V89.5H895.553V86.5H892.553V83.5H889.553V86.5H886.553V77.5H889.553V80.5H892.553V77.5H895.553V74.5H892.553V71.5H889.553V68.5H886.553V56.5ZM901.553 59.5H904.553V62.5H901.553V59.5ZM904.553 62.5H907.553V65.5H904.553V62.5ZM901.553 65.5H904.553V68.5H901.553V65.5ZM904.553 68.5H907.553V71.5H904.553V68.5ZM898.553 80.5H895.553V83.5H898.553V80.5ZM892.553 77.5H889.553V74.5H892.553V77.5ZM886.553 71.5H889.553V74.5H886.553V71.5ZM889.553 86.5H892.553V89.5H889.553V86.5ZM886.553 89.5H889.553V92.5H886.553V89.5ZM901.553 86.5H904.553V83.5H907.553V92.5H904.553V89.5H901.553V86.5ZM907.564 38.5L928.564 38.5V92.5L907.564 92.5V38.5ZM928.576 41.5H931.576V44.5H928.576V41.5ZM931.576 38.5H934.576V41.5H931.576V38.5ZM934.576 41.5H937.576V44.5H934.576V41.5ZM931.576 44.5H934.576V47.5H931.576V44.5ZM928.576 47.5H931.576V50.5H928.576V47.5ZM934.576 47.5H937.576V50.5H934.576V47.5ZM937.576 44.5H940.576V47.5H937.576V44.5ZM943.576 44.5H946.576V47.5H943.576V44.5ZM940.576 47.5H943.576V50.5H940.576V47.5ZM940.576 38.5H943.576V41.5H940.576V38.5ZM946.576 38.5H949.576V41.5H946.576V38.5ZM937.576 50.5H940.576V53.5H937.576V50.5ZM946.576 50.5H949.576V53.5H946.576V50.5ZM940.576 53.5H943.576V56.5H940.576V53.5ZM931.576 53.5H934.576V56.5H931.576V53.5ZM937.576 62.5H934.576V59.5H937.576V62.5ZM937.576 62.5H940.576V65.5H937.576V62.5ZM946.576 56.5H949.576V59.5H946.576V56.5ZM940.576 59.5H937.576V56.5H940.576V59.5ZM940.576 59.5H943.576V62.5H940.576V59.5ZM928.576 59.5H931.576V62.5H928.576V59.5ZM934.576 65.5H937.576V68.5H934.576V65.5ZM943.576 62.5H946.576V65.5H943.576V62.5ZM928.576 65.5H931.576V68.5H928.576V65.5ZM931.576 71.5L934.576 71.5V74.5L931.576 74.5V71.5ZM937.576 71.5H940.576V74.5H937.576V71.5ZM940.576 68.5H943.576V71.5H940.576V68.5ZM946.576 68.5H949.576V71.5H946.576V68.5ZM943.576 74.5H946.576V77.5H943.576V74.5ZM928.576 74.5H931.576V77.5H928.576V74.5ZM934.576 74.5H937.576V77.5H934.576V74.5ZM931.576 77.5H934.576V80.5H931.576V77.5ZM937.576 77.5H940.576V80.5H937.576V77.5ZM934.576 80.5H937.576V83.5H934.576V80.5ZM940.576 80.5H943.576V83.5H940.576V80.5ZM937.576 83.5H940.576V86.5H937.576V83.5ZM928.576 83.5H931.576V86.5H928.576V83.5ZM946.576 83.5H949.576V86.5H946.576V83.5ZM943.576 86.5H946.576V89.5H943.576V86.5ZM934.576 86.5H937.576V89.5H934.576V86.5ZM937.576 89.5H940.576V92.5H937.576V89.5ZM928.576 89.5H931.576V92.5H928.576V89.5ZM946.576 77.5H949.576V80.5H946.576V77.5Z" fill="#F2F2F2"/>
<path d="M127 35.5H141V71.5H127V35.5ZM157.016 45.5H159.016V51.5H161.016V49.5H163.016V53.5H159.016V61.5H157.016V45.5ZM165.016 45.5H167.016V47.5H165.016V45.5ZM163.016 47.5H165.016V49.5H163.016V47.5ZM165.016 57.5H163.016V53.5H165.016V57.5ZM165.016 57.5H167.016V61.5H165.016V57.5ZM171.023 49.5H173.023V53.5H179.023V49.5H181.023V61.5H179.023V55.5H173.023V61.5H171.023V49.5ZM175.023 45.5H177.023V47.5H175.023V45.5ZM173.023 47.5H175.023V49.5H173.023V47.5ZM177.023 47.5H179.023V49.5H177.023V47.5ZM177.023 39.5H179.023V41.5H177.023V39.5ZM175.023 41.5H177.023V43.5H175.023V41.5ZM185.031 45.5L193.031 45.5V47.5L187.031 47.5V53.5L193.031 53.5V57.5H191.031V55.5L187.031 55.5V61.5H185.031V45.5ZM193.031 47.5H195.031V53.5H193.031V47.5ZM193.031 57.5H195.031V61.5H193.031V57.5ZM199.039 45.5H201.039V49.5H203.039V51.5H201.039V61.5H199.039V45.5ZM207.039 51.5H205.039V49.5H207.039V45.5H209.039V61.5H207.039V51.5ZM203.039 51.5H205.039V55.5H203.039V51.5ZM213.047 49.5H215.047V53.5H221.047V49.5H223.047V61.5H221.047V55.5H215.047V61.5H213.047V49.5ZM217.047 45.5H219.047V47.5H217.047V45.5ZM215.047 47.5H217.047V49.5H215.047V47.5ZM219.047 47.5H221.047V49.5H219.047V47.5ZM219.047 39.5H221.047V41.5H219.047V39.5ZM217.047 41.5H219.047V43.5H217.047V41.5ZM227.055 45.5H229.055V49.5H231.055V51.5H229.055V61.5H227.055V45.5ZM235.055 55.5H233.055V53.5H235.055V45.5H237.055V61.5H235.055V55.5ZM233.055 53.5H231.055V51.5H233.055V53.5ZM255.07 47.5H257.07V51.5H255.07V47.5ZM257.07 51.5H263.07V53.5H257.07V51.5ZM263.07 59.5V61.5H257.07V59.5H263.07ZM257.07 59.5H255.07V57.5H257.07V59.5ZM263.07 53.5H265.07V59.5H263.07V53.5ZM257.07 45.5H263.07V47.5H257.07V45.5ZM263.07 47.5H265.07V49.5H263.07V47.5ZM269.078 45.5H277.078V47.5L271.078 47.5V53.5L277.078 53.5V55.5L271.078 55.5V61.5L269.078 61.5V45.5ZM277.078 47.5H279.078V53.5H277.078V47.5ZM283.086 49.5H285.086V53.5H291.086V49.5H293.086V61.5H291.086V55.5H285.086V61.5H283.086V49.5ZM287.086 45.5H289.086V47.5H287.086V45.5ZM285.086 47.5H287.086V49.5H285.086V47.5ZM289.086 47.5H291.086V49.5H289.086V47.5ZM297.094 47.5H299.094V59.5H297.094V47.5ZM299.094 59.5H305.094V61.5H299.094V59.5ZM305.094 57.5H307.094V59.5H305.094V57.5ZM299.094 45.5H305.094V47.5H299.094V45.5ZM305.094 47.5H307.094V49.5H305.094V47.5ZM311.102 45.5H321.102V47.5H313.102V51.5H319.102V53.5H313.102V59.5H321.102V61.5H311.102V45.5ZM325.109 45.5H327.109V59.5H335.109V61.5H325.109V45.5ZM343.117 59.5V47.5H339.117V45.5H349.117V47.5H345.117V59.5H349.117V61.5H339.117V59.5H343.117ZM353.125 45.5H355.125V49.5H357.125V51.5H355.125V61.5H353.125V45.5ZM361.125 55.5H359.125V53.5H361.125V45.5H363.125V61.5H361.125V55.5ZM359.125 53.5H357.125V51.5H359.125V53.5ZM367.133 45.5L377.133 45.5V47.5H369.133V51.5H375.133V53.5H369.133V59.5H377.133V61.5H367.133V45.5ZM381.141 47.5H383.141V51.5H381.141V47.5ZM383.141 51.5H389.141V53.5H383.141V51.5ZM389.141 59.5V61.5H383.141V59.5H389.141ZM383.141 59.5H381.141V57.5H383.141V59.5ZM389.141 53.5H391.141V59.5H389.141V53.5ZM383.141 45.5H389.141V47.5H383.141V45.5ZM389.141 47.5H391.141V49.5H389.141V47.5ZM127 67.5H141V103.5H127L127 67.5ZM157.016 77.5H165.016V79.5H159.016V83.5H165.016V85.5H159.016V91.5H165.016V93.5H157.016V77.5ZM165.016 85.5H167.016V91.5H165.016V85.5ZM165.016 79.5H167.016V83.5H165.016V79.5ZM171.023 79.5H173.023V91.5H171.023V79.5ZM173.023 91.5H179.023V93.5H173.023V91.5ZM179.023 79.5H181.023V91.5H179.023V79.5ZM173.023 77.5H179.023V79.5H173.023V77.5ZM185.031 81.5H187.031V85.5H193.031V81.5L195.031 81.5V93.5L193.031 93.5V87.5H187.031V93.5H185.031V81.5ZM189.031 77.5H191.031V79.5H189.031V77.5ZM187.031 79.5H189.031V81.5H187.031V79.5ZM191.031 79.5H193.031V81.5H191.031V79.5ZM199.039 77.5H207.039V79.5H201.039V85.5H207.039V89.5H205.039V87.5H201.039V93.5H199.039V77.5ZM207.039 79.5H209.039V85.5H207.039V79.5ZM207.039 89.5H209.039V93.5H207.039V89.5ZM213.047 77.5H221.047V79.5H215.047V91.5H221.047V93.5H213.047V77.5ZM221.047 79.5H223.047V91.5H221.047V79.5ZM231.055 91.5V79.5H227.055V77.5H237.055V79.5H233.055V91.5H237.055V93.5H227.055V91.5H231.055ZM241.063 77.5H243.063V81.5H245.063V83.5H243.063V93.5H241.063V77.5ZM249.063 87.5H247.063V85.5H249.063V77.5H251.063V93.5H249.063V87.5ZM247.063 85.5H245.063V83.5H247.063V85.5ZM255.07 79.5H257.07V91.5H255.07V79.5ZM257.07 91.5H263.07V93.5H257.07V91.5ZM263.07 87.5H261.07V85.5H265.07V91.5H263.07V87.5ZM257.07 77.5H263.07V79.5H257.07V77.5ZM263.07 79.5H265.07V81.5H263.07V79.5ZM283.086 77.5H291.086V79.5H285.086V85.5H291.086V87.5H285.086V93.5H283.086V77.5ZM291.086 79.5H293.086V85.5H291.086V79.5ZM297.094 81.5H299.094V85.5H305.094V81.5H307.094V93.5H305.094V87.5H299.094V93.5H297.094V81.5ZM301.094 77.5H303.094V79.5H301.094V77.5ZM299.094 79.5H301.094V81.5H299.094V79.5ZM303.094 79.5H305.094V81.5H303.094V79.5ZM311.102 79.5H313.102V83.5H311.102V79.5ZM313.102 83.5H319.102V85.5H313.102V83.5ZM319.102 91.5V93.5H313.102V91.5H319.102ZM313.102 91.5H311.102V89.5H313.102V91.5ZM319.102 85.5H321.102V91.5H319.102V85.5ZM313.102 77.5H319.102V79.5H313.102V77.5ZM319.102 79.5H321.102V81.5H319.102V79.5ZM325.109 79.5H327.109V83.5H325.109V79.5ZM327.109 83.5H333.109V85.5H327.109V83.5ZM333.109 91.5V93.5H327.109V91.5H333.109ZM327.109 91.5H325.109V89.5H327.109V91.5ZM333.109 85.5H335.109V91.5H333.109V85.5ZM327.109 77.5H333.109V79.5H327.109V77.5ZM333.109 79.5H335.109V81.5H333.109V79.5Z" fill="#F2F2F2"/>
<path d="M36 410.5L36 406.5L37 406.5L37 409.5L43 409.5L43 406.5L44 406.5L44 410.5L36 410.5ZM37 406.5L37 405.5L43 405.5L43 406.5L37 406.5ZM37 403.496L37 402.496L43 402.496L43 403.496L37 403.496ZM43 402.496L43 399.496L44 399.496L44 402.496L43 402.496ZM37 399.496L37 398.496L43 398.496L43 399.496L37 399.496ZM36 402.496L36 399.496L37 399.496L37 402.496L36 402.496ZM36 389.488L36 388.488L38 388.488L38 387.488L39 387.488L39 388.488L44 388.488L44 389.488L36 389.488ZM41 385.488L41 386.488L40 386.488L40 385.488L36 385.488L36 384.488L44 384.488L44 385.488L41 385.488ZM40 386.488L40 387.488L39 387.488L39 386.488L40 386.488ZM37 382.484L37 381.484L43 381.484L43 382.484L37 382.484ZM43 381.484L43 378.484L44 378.484L44 381.484L43 381.484ZM37 378.484L37 377.484L43 377.484L43 378.484L37 378.484ZM36 381.484L36 378.484L37 378.484L37 381.484L36 381.484ZM36 375.48L36 370.48L37 370.48L37 372.48L44 372.48L44 373.48L37 373.48L37 375.48L36 375.48ZM36 361.473L36 356.473L37 356.473L37 360.473L39 360.473L39 357.473L40 357.473L40 360.473L43 360.473L43 356.473L44 356.473L44 361.473L36 361.473ZM41 350.469L41 349.469L44 349.469L44 350.469L41 350.469ZM41 354.469L41 353.469L44 353.469L44 354.469L41 354.469ZM39 352.469L39 353.469L38 353.469L38 352.469L39 352.469ZM39 352.469L39 351.469L40 351.469L40 352.469L39 352.469ZM38 351.469L38 350.469L39 350.469L39 351.469L38 351.469ZM38 353.469L38 354.469L36 354.469L36 353.469L38 353.469ZM40 353.469L40 352.469L41 352.469L41 353.469L40 353.469ZM36 350.469L36 349.469L38 349.469L38 350.469L36 350.469ZM40 351.469L40 350.469L41 350.469L41 351.469L40 351.469ZM36 347.465L36 343.465L37 343.465L37 346.465L40 346.465L40 343.465L41 343.465L41 346.465L44 346.465L44 347.465L36 347.465ZM37 343.465L37 342.465L40 342.465L40 343.465L37 343.465ZM37 340.461L37 339.461L43 339.461L43 340.461L37 340.461ZM43 339.461L43 336.461L44 336.461L44 339.461L43 339.461ZM37 336.461L37 335.461L43 335.461L43 336.461L37 336.461ZM36 339.461L36 336.461L37 336.461L37 339.461L36 339.461ZM37 333.457L37 332.457L39 332.457L39 333.457L37 333.457ZM39 332.457L39 329.457L40 329.457L40 332.457L39 332.457ZM43 329.457L44 329.457L44 332.457L43 332.457L43 329.457ZM43 332.457L43 333.457L42 333.457L42 332.457L43 332.457ZM40 329.457L40 328.457L43 328.457L43 329.457L40 329.457ZM36 332.457L36 329.457L37 329.457L37 332.457L36 332.457ZM37 329.457L37 328.457L38 328.457L38 329.457L37 329.457ZM36 326.453L36 321.453L37 321.453L37 325.453L39 325.453L39 322.453L40 322.453L40 325.453L43 325.453L43 321.453L44 321.453L44 326.453L36 326.453ZM36 312.445L36 307.445L37 307.445L37 309.445L44 309.445L44 310.445L37 310.445L37 312.445L36 312.445ZM37 305.441L37 304.441L43 304.441L43 305.441L37 305.441ZM43 304.441L43 301.441L44 301.441L44 304.441L43 304.441ZM37 301.441L37 300.441L43 300.441L43 301.441L37 301.441ZM36 304.441L36 301.441L37 301.441L37 304.441L36 304.441ZM36 291.434L36 286.434L37 286.434L37 290.434L39 290.434L39 287.434L40 287.434L40 290.434L43 290.434L43 286.434L44 286.434L44 291.434L36 291.434ZM41 280.43L41 279.43L44 279.43L44 280.43L41 280.43ZM41 284.43L41 283.43L44 283.43L44 284.43L41 284.43ZM39 282.43L39 283.43L38 283.43L38 282.43L39 282.43ZM39 282.43L39 281.43L40 281.43L40 282.43L39 282.43ZM38 281.43L38 280.43L39 280.43L39 281.43L38 281.43ZM38 283.43L38 284.43L36 284.43L36 283.43L38 283.43ZM40 283.43L40 282.43L41 282.43L41 283.43L40 283.43ZM36 280.43L36 279.43L38 279.43L38 280.43L36 280.43ZM40 281.43L40 280.43L41 280.43L41 281.43L40 281.43ZM37 277.426L37 276.426L43 276.426L43 277.426L37 277.426ZM43 276.426L43 273.426L44 273.426L44 276.426L43 276.426ZM42 273.426L42 272.426L43 272.426L43 273.426L42 273.426ZM36 276.426L36 273.426L37 273.426L37 276.426L36 276.426ZM37 273.426L37 272.426L38 272.426L38 273.426L37 273.426ZM36 270.422L36 265.422L37 265.422L37 269.422L39 269.422L39 266.422L40 266.422L40 269.422L43 269.422L43 265.422L44 265.422L44 270.422L36 270.422ZM37 263.418L37 262.418L39 262.418L39 263.418L37 263.418ZM39 262.418L39 259.418L40 259.418L40 262.418L39 262.418ZM43 259.418L44 259.418L44 262.418L43 262.418L43 259.418ZM43 262.418L43 263.418L42 263.418L42 262.418L43 262.418ZM40 259.418L40 258.418L43 258.418L43 259.418L40 259.418ZM36 262.418L36 259.418L37 259.418L37 262.418L36 262.418ZM37 259.418L37 258.418L38 258.418L38 259.418L37 259.418ZM37 256.414L37 255.414L39 255.414L39 256.414L37 256.414ZM39 255.414L39 252.414L40 252.414L40 255.414L39 255.414ZM43 252.414L44 252.414L44 255.414L43 255.414L43 252.414ZM43 255.414L43 256.414L42 256.414L42 255.414L43 255.414ZM40 252.414L40 251.414L43 251.414L43 252.414L40 252.414ZM36 255.414L36 252.414L37 252.414L37 255.414L36 255.414ZM37 252.414L37 251.414L38 251.414L38 252.414L37 252.414ZM43 247.41L37 247.41L37 249.41L36 249.41L36 244.41L37 244.41L37 246.41L43 246.41L43 244.41L44 244.41L44 249.41L43 249.41L43 247.41ZM43 240.406L43 241.406L41 241.406L41 240.406L43 240.406ZM43 240.406L43 239.406L44 239.406L44 240.406L43 240.406ZM36 242.406L36 241.406L41 241.406L41 242.406L36 242.406ZM36 238.406L36 237.406L41 237.406L41 238.406L36 238.406ZM41 239.406L41 238.406L43 238.406L43 239.406L41 239.406ZM36 235.402L36 230.402L37 230.402L37 234.402L39 234.402L39 231.402L40 231.402L40 234.402L43 234.402L43 230.402L44 230.402L44 235.402L36 235.402ZM36 221.395L36 220.395L39 220.395L39 217.395L36 217.395L36 216.395L44 216.395L44 217.395L40 217.395L40 220.395L44 220.395L44 221.395L36 221.395ZM36 214.391L36 209.391L37 209.391L37 213.391L39 213.391L39 210.391L40 210.391L40 213.391L43 213.391L43 209.391L44 209.391L44 214.391L36 214.391ZM38 207.387L38 206.387L40 206.387L40 203.387L38 203.387L38 202.387L44 202.387L44 203.387L41 203.387L41 206.387L44 206.387L44 207.387L38 207.387ZM36 205.387L36 204.387L37 204.387L37 205.387L36 205.387ZM37 206.387L37 205.387L38 205.387L38 206.387L37 206.387ZM37 204.387L37 203.387L38 203.387L38 204.387L37 204.387ZM36 200.383L36 195.383L37 195.383L37 197.383L44 197.383L44 198.383L37 198.383L37 200.383L36 200.383ZM37 186.375L37 185.375L43 185.375L43 186.375L37 186.375ZM43 185.375L43 182.375L44 182.375L44 185.375L43 185.375ZM37 182.375L37 181.375L43 181.375L43 182.375L37 182.375ZM36 185.375L36 182.375L37 182.375L37 185.375L36 185.375ZM36 179.371L36 175.371L37 175.371L37 178.371L40 178.371L40 175.371L42 175.371L42 176.371L41 176.371L41 178.371L44 178.371L44 179.371L36 179.371ZM37 175.371L37 174.371L40 174.371L40 175.371L37 175.371ZM42 175.371L42 174.371L44 174.371L44 175.371L42 175.371ZM36 165.363L36 161.363L37 161.363L37 164.363L43 164.363L43 161.363L44 161.363L44 165.363L36 165.363ZM37 161.363L37 160.363L43 160.363L43 161.363L37 161.363ZM43 156.359L37 156.359L37 158.359L36 158.359L36 153.359L37 153.359L37 155.359L43 155.359L43 153.359L44 153.359L44 158.359L43 158.359L43 156.359ZM36 151.355L36 147.355L37 147.355L37 150.355L40 150.355L40 147.355L42 147.355L42 148.355L41 148.355L41 150.355L44 150.355L44 151.355L36 151.355ZM37 147.355L37 146.355L40 146.355L40 147.355L37 147.355ZM42 147.355L42 146.355L44 146.355L44 147.355L42 147.355ZM36 144.352L36 139.352L37 139.352L37 143.352L39 143.352L39 140.352L40 140.352L40 143.352L43 143.352L43 139.352L44 139.352L44 144.352L36 144.352ZM37 137.348L37 136.348L43 136.348L43 137.348L37 137.348ZM43 136.348L43 133.348L44 133.348L44 136.348L43 136.348ZM42 133.348L42 132.348L43 132.348L43 133.348L42 133.348ZM36 136.348L36 133.348L37 133.348L37 136.348L36 136.348ZM37 133.348L37 132.348L38 132.348L38 133.348L37 133.348ZM36 130.344L36 125.344L37 125.344L37 127.344L44 127.344L44 128.344L37 128.344L37 130.344L36 130.344ZM37 116.336L37 115.336L39 115.336L39 116.336L37 116.336ZM39 115.336L39 112.336L40 112.336L40 115.336L39 115.336ZM43 112.336L44 112.336L44 115.336L43 115.336L43 112.336ZM43 115.336L43 116.336L42 116.336L42 115.336L43 115.336ZM40 112.336L40 111.336L43 111.336L43 112.336L40 112.336ZM36 115.336L36 112.336L37 112.336L37 115.336L36 115.336ZM37 112.336L37 111.336L38 111.336L38 112.336L37 112.336ZM36 109.332L36 108.332L43 108.332L43 109.332L36 109.332ZM43 108.332L43 105.332L44 105.332L44 108.332L43 108.332ZM36 105.332L36 104.332L43 104.332L43 105.332L36 105.332ZM36 102.328L36 101.328L38 101.328L38 100.328L39 100.328L39 101.328L44 101.328L44 102.328L36 102.328ZM41 98.3281L41 99.3281L40 99.3281L40 98.3281L36 98.3281L36 97.3281L44 97.3281L44 98.3281L41 98.3281ZM40 99.3281L40 100.328L39 100.328L39 99.3281L40 99.3281ZM36 95.3242L36 94.3242L43 94.3242L43 90.3242L44 90.3242L44 95.3242L36 95.3242ZM43 86.3203L37 86.3203L37 88.3203L36 88.3203L36 83.3203L37 83.3203L37 85.3203L43 85.3203L43 83.3203L44 83.3203L44 88.3203L43 88.3203L43 86.3203ZM37 81.3164L37 80.3164L43 80.3164L43 81.3164L37 81.3164ZM43 80.3164L43 77.3164L44 77.3164L44 80.3164L43 80.3164ZM41 77.3164L41 78.3164L40 78.3164L40 76.3164L43 76.3164L43 77.3164L41 77.3164ZM36 80.3164L36 77.3164L37 77.3164L37 80.3164L36 80.3164ZM37 77.3164L37 76.3164L38 76.3164L38 77.3164L37 77.3164ZM36 74.3125L36 73.3125L39 73.3125L39 70.3125L36 70.3125L36 69.3125L44 69.3125L44 70.3125L40 70.3125L40 73.3125L44 73.3125L44 74.3125L36 74.3125ZM36 67.3086L36 62.3086L37 62.3086L37 64.3086L44 64.3086L44 65.3086L37 65.3086L37 67.3086L36 67.3086Z" fill="#F2F2F2"/>
<path d="M282 383.5H274V379.5H282V375.5H286V403.5H294V407.5H274V403.5H282V383.5ZM310.016 383.5H302.016V379.5H310.016V375.5H314.016V403.5H322.016V407.5H302.016V403.5H310.016V383.5ZM338.031 399.5H342.031V407.5H338.031V399.5ZM338.031 383.5H342.031V391.5H338.031V383.5ZM358.047 379.5H362.047V391.5H366.047V395.5H362.047V403.5H358.047V379.5ZM362.047 403.5H374.047V407.5H362.047V403.5ZM362.047 375.5H374.047V379.5H362.047V375.5ZM374.047 379.5H378.047V403.5H374.047V387.5H370.047V383.5H374.047V379.5ZM366.047 387.5H370.047V391.5H366.047V387.5ZM394.063 383.5H386.063V379.5H394.063V375.5H398.063V403.5H406.063V407.5H386.063V403.5H394.063V383.5Z" fill="#F2F2F2"/>
<path d="M129 220.5H131V226.5H133V224.5H135V228.5H131V236.5H129V220.5ZM137 220.5H139V222.5H137V220.5ZM135 222.5H137V224.5H135V222.5ZM137 232.5H135V228.5H137V232.5ZM137 232.5H139V236.5H137V232.5ZM143.008 220.5H153.008V222.5H145.008V226.5H151.008V228.5H145.008V234.5H153.008V236.5H143.008V220.5ZM157.016 220.5H165.016V222.5H159.016V228.5H165.016V232.5H163.016V230.5H159.016V236.5H157.016V220.5ZM165.016 222.5H167.016V228.5H165.016V222.5ZM165.016 232.5H167.016V236.5H165.016V232.5ZM171.023 220.5H173.023V224.5H175.023V226.5H173.023V236.5H171.023V220.5ZM179.023 230.5H177.023V228.5H179.023V220.5H181.023V236.5H179.023V230.5ZM177.023 228.5H175.023V226.5H177.023V228.5ZM189.031 234.5V222.5H185.031V220.5H195.031V222.5H191.031V234.5H195.031V236.5H185.031V234.5H189.031ZM199.039 220.5H201.039V224.5H203.039V226.5H201.039V236.5H199.039V220.5ZM207.039 230.5H205.039V228.5H207.039V220.5H209.039V236.5H207.039V230.5ZM205.039 228.5H203.039V226.5H205.039V228.5ZM213.047 222.5H215.047V234.5H213.047V222.5ZM215.047 234.5H221.047V236.5H215.047V234.5ZM221.047 230.5L219.047 230.5V228.5L223.047 228.5V234.5H221.047V230.5ZM215.047 220.5L221.047 220.5V222.5L215.047 222.5V220.5ZM221.047 222.5H223.047V224.5H221.047V222.5ZM231.055 232.5H233.055V236.5H231.055V232.5ZM229.055 236.5H231.055V238.5H229.055V236.5ZM255.07 220.5H265.07V222.5H257.07V226.5H263.07V228.5H257.07V234.5H265.07V236.5H255.07V220.5ZM273.078 232.5H275.078V236.5H273.078V232.5Z" fill="#F2F2F2"/>
<path d="M137 307.5H139V313.5H137V307.5ZM129 307.5H131V313.5H129V307.5ZM133 303.5H131V301.5H133V303.5ZM133 303.5H135V305.5H133V303.5ZM135 301.5H137V303.5H135V301.5ZM131 301.5H129V297.5H131V301.5ZM131 305.5H133V307.5H131V305.5ZM137 297.5H139V301.5H137V297.5ZM135 305.5H137V307.5H135V305.5ZM151.008 307.5H153.008V313.5H151.008V307.5ZM143.008 307.5H145.008V313.5H143.008V307.5ZM147.008 303.5H145.008V301.5H147.008V303.5ZM147.008 303.5H149.008V305.5H147.008V303.5ZM149.008 301.5H151.008V303.5H149.008V301.5ZM145.008 301.5H143.008V297.5H145.008V301.5ZM145.008 305.5H147.008V307.5H145.008V305.5ZM151.008 297.5H153.008V301.5H151.008V297.5ZM149.008 305.5H151.008V307.5H149.008V305.5ZM159.016 307.5H161.016V313.5H159.016V307.5ZM161.016 305.5H163.016V307.5H161.016V305.5ZM163.016 303.5H165.016V305.5H163.016V303.5ZM165.016 299.5H157.016V297.5H167.016V303.5H165.016V299.5ZM171.023 299.5H173.023V303.5H171.023V299.5ZM179.023 299.5H173.023V297.5H179.023V299.5ZM179.023 299.5H181.023V303.5H179.023V299.5ZM173.023 303.5H179.023V305.5H173.023V303.5ZM179.023 305.5H181.023V311.5H179.023V305.5ZM171.023 305.5H173.023V311.5H171.023V305.5ZM179.023 311.5V313.5H173.023V311.5H179.023ZM193.031 311.5V313.5H187.031V311.5H193.031ZM187.031 311.5H185.031V309.5H187.031V311.5ZM193.031 305.5V299.5H195.031V311.5H193.031V307.5H187.031V305.5H193.031ZM187.031 305.5H185.031V299.5H187.031V305.5ZM187.031 297.5H193.031V299.5H187.031V297.5Z" fill="#F2F2F2"/>
<path d="M272 309.5H274V311.5H282V313.5H272V309.5ZM280 299.5H274V297.5H280V299.5ZM280 299.5H282V303.5H280V299.5ZM274 307.5H276V309.5H274V307.5ZM272 299.5H274V301.5H272V299.5ZM278 303.5H280V305.5H278V303.5ZM276 305.5H278V307.5H276V305.5ZM286.008 299.5H288.008V305.5H290.008V307.5H288.008V311.5H286.008V299.5ZM288.008 311.5H294.008V313.5H288.008V311.5ZM288.008 297.5H294.008V299.5H288.008V297.5ZM294.008 299.5H296.008V311.5H294.008V303.5H292.008V301.5H294.008V299.5ZM290.008 303.5H292.008V305.5H290.008V303.5ZM306.016 299.5H308.016V297.5H310.016V313.5H308.016V309.5H300.016V305.5H302.016V307.5H308.016V301.5H306.016V299.5ZM304.016 301.5H306.016V303.5H304.016V301.5ZM302.016 303.5H304.016V305.5H302.016V303.5ZM322.023 311.5V313.5H316.023V311.5H322.023ZM316.023 311.5H314.023V309.5H316.023V311.5ZM322.023 305.5V299.5H324.023V311.5H322.023V307.5H316.023V305.5H322.023ZM316.023 305.5H314.023V299.5H316.023V305.5ZM316.023 297.5H322.023V299.5H316.023V297.5ZM346.039 301.5H342.039V299.5H346.039V297.5H348.039V311.5H352.039V313.5H342.039V311.5H346.039V301.5ZM356.047 297.5H366.047V299.5H358.047V303.5H364.047V305.5H356.047V297.5ZM364.047 305.5H366.047V311.5H364.047V305.5ZM364.047 311.5V313.5H358.047V311.5H364.047ZM358.047 311.5H356.047V309.5H358.047V311.5ZM384.063 301.5H386.063V305.5H392.063V301.5H394.063V313.5H392.063V307.5H386.063V313.5H384.063V301.5ZM388.063 297.5H390.063V299.5H388.063V297.5ZM386.063 299.5H388.063V301.5H386.063V299.5ZM390.063 299.5H392.063V301.5H390.063V299.5ZM398.07 297.5H406.07V299.5H400.07V305.5H406.07V307.5H400.07V313.5H398.07V297.5ZM406.07 299.5H408.07V305.5H406.07V299.5ZM412.078 297.5H420.078V299.5H414.078V305.5H420.078V309.5H418.078V307.5H414.078V313.5H412.078V297.5ZM420.078 299.5H422.078V305.5H420.078V299.5ZM420.078 309.5H422.078V313.5H420.078V309.5ZM444.094 301.5H440.094V299.5H444.094V297.5H446.094V311.5H450.094V313.5H440.094V311.5H444.094V301.5ZM458.102 301.5H454.102V299.5H458.102V297.5H460.102V311.5H464.102V313.5L454.102 313.5V311.5L458.102 311.5V301.5ZM472.109 309.5H474.109V313.5H472.109V309.5ZM472.109 301.5H474.109V305.5H472.109V301.5ZM482.117 299.5H484.117V301.5H482.117V299.5ZM484.117 297.5H490.117V299.5H484.117V297.5ZM490.117 299.5H492.117V303.5H490.117V299.5ZM486.117 303.5H490.117V305.5H486.117V303.5ZM490.117 305.5H492.117V311.5H490.117V305.5ZM490.117 311.5V313.5H484.117V311.5H490.117ZM484.117 311.5H482.117V309.5H484.117V311.5ZM500.125 301.5H496.125V299.5H500.125V297.5H502.125V311.5H506.125V313.5H496.125V311.5H500.125V301.5Z" fill="#F2F2F2"/>
<path d="M616.5 359.5H618V362.5H619.5V364H618V367H616.5V364H615V362.5H616.5V359.5ZM615 362.5H613.5V361H615V362.5ZM613.5 364H615V365.5H613.5V364ZM619.5 361H621V362.5H619.5V361ZM619.5 364H621V365.5H619.5V364ZM627.006 359.5H628.506V362.5H630.006V364H628.506V367H627.006V364H625.506V362.5H627.006V359.5ZM625.506 362.5H624.006V361H625.506V362.5ZM624.006 364H625.506V365.5H624.006V364ZM630.006 361H631.506V362.5H630.006V361ZM630.006 364H631.506V365.5H630.006V364ZM637.512 359.5H639.012V362.5H640.512V364H639.012V367H637.512V364H636.012V362.5H637.512V359.5ZM636.012 362.5H634.512V361H636.012V362.5ZM634.512 364H636.012V365.5H634.512V364ZM640.512 361H642.012V362.5H640.512V361ZM640.512 364H642.012V365.5H640.512V364ZM648.018 359.5H649.518V362.5H651.018V364H649.518V367H648.018V364H646.518V362.5H648.018V359.5ZM646.518 362.5H645.018V361H646.518V362.5ZM645.018 364H646.518V365.5H645.018V364ZM651.018 361H652.518V362.5H651.018V361ZM651.018 364H652.518V365.5H651.018V364ZM658.523 359.5H660.023V362.5H661.523V364H660.023V367H658.523V364H657.023V362.5H658.523V359.5ZM657.023 362.5H655.523V361H657.023V362.5ZM655.523 364H657.023V365.5H655.523V364ZM661.523 361H663.023V362.5H661.523V361ZM661.523 364H663.023V365.5H661.523V364ZM669.029 359.5H670.529V362.5H672.029V364H670.529V367H669.029V364H667.529V362.5H669.029V359.5ZM667.529 362.5H666.029V361H667.529V362.5ZM666.029 364H667.529V365.5H666.029V364ZM672.029 361H673.529V362.5H672.029V361ZM672.029 364H673.529V365.5H672.029V364ZM679.535 359.5H681.035V362.5H682.535V364H681.035V367H679.535V364H678.035V362.5H679.535V359.5ZM678.035 362.5H676.535V361H678.035V362.5ZM676.535 364H678.035V365.5H676.535V364ZM682.535 361H684.035V362.5H682.535V361ZM682.535 364H684.035V365.5H682.535V364ZM690.041 359.5H691.541V362.5H693.041V364H691.541V367H690.041V364H688.541V362.5H690.041V359.5ZM688.541 362.5H687.041V361H688.541V362.5ZM687.041 364H688.541V365.5H687.041V364ZM693.041 361H694.541V362.5H693.041V361ZM693.041 364H694.541V365.5H693.041V364ZM700.547 359.5H702.047V362.5H703.547V364H702.047V367H700.547V364H699.047V362.5H700.547V359.5ZM699.047 362.5H697.547V361H699.047V362.5ZM697.547 364H699.047V365.5H697.547V364ZM703.547 361H705.047V362.5H703.547V361ZM703.547 364H705.047V365.5H703.547V364ZM711.053 359.5H712.553V362.5H714.053V364H712.553V367H711.053V364H709.553V362.5H711.053V359.5ZM709.553 362.5H708.053V361H709.553V362.5ZM708.053 364H709.553V365.5H708.053V364ZM714.053 361H715.553V362.5H714.053V361ZM714.053 364H715.553V365.5H714.053V364ZM721.559 359.5H723.059V362.5H724.559V364H723.059V367H721.559V364H720.059V362.5H721.559V359.5ZM720.059 362.5H718.559V361H720.059V362.5ZM718.559 364H720.059V365.5H718.559V364ZM724.559 361H726.059V362.5H724.559V361ZM724.559 364H726.059V365.5H724.559V364ZM732.064 359.5H733.564V362.5H735.064V364H733.564V367H732.064V364H730.564V362.5H732.064V359.5ZM730.564 362.5H729.064V361H730.564V362.5ZM729.064 364H730.564V365.5H729.064V364ZM735.064 361H736.564V362.5H735.064V361ZM735.064 364H736.564V365.5H735.064V364ZM742.57 359.5H744.07V362.5H745.57V364H744.07V367H742.57V364H741.07V362.5H742.57V359.5ZM741.07 362.5H739.57V361H741.07V362.5ZM739.57 364H741.07V365.5H739.57V364ZM745.57 361H747.07V362.5H745.57V361ZM745.57 364H747.07V365.5H745.57V364ZM753.076 359.5H754.576V362.5H756.076V364H754.576V367H753.076V364H751.576V362.5H753.076V359.5ZM751.576 362.5H750.076V361H751.576V362.5ZM750.076 364H751.576V365.5H750.076V364ZM756.076 361H757.576V362.5H756.076V361ZM756.076 364H757.576V365.5H756.076V364ZM763.582 359.5H765.082V362.5H766.582V364H765.082V367H763.582V364H762.082V362.5H763.582V359.5ZM762.082 362.5H760.582V361H762.082V362.5ZM760.582 364H762.082V365.5H760.582V364ZM766.582 361H768.082V362.5H766.582V361ZM766.582 364H768.082V365.5H766.582V364ZM774.088 359.5H775.588V362.5H777.088V364H775.588V367H774.088V364H772.588V362.5H774.088V359.5ZM772.588 362.5H771.088V361H772.588V362.5ZM771.088 364H772.588V365.5H771.088V364ZM777.088 361H778.588V362.5H777.088V361ZM777.088 364H778.588V365.5H777.088V364ZM784.594 359.5H786.094V362.5H787.594V364H786.094V367H784.594V364H783.094V362.5H784.594V359.5ZM783.094 362.5H781.594V361H783.094V362.5ZM781.594 364H783.094V365.5H781.594V364ZM787.594 361H789.094V362.5H787.594V361ZM787.594 364H789.094V365.5H787.594V364ZM795.1 359.5H796.6V362.5H798.1V364H796.6V367H795.1V364H793.6V362.5H795.1V359.5ZM793.6 362.5H792.1V361H793.6V362.5ZM792.1 364H793.6V365.5H792.1V364ZM798.1 361H799.6V362.5H798.1V361ZM798.1 364H799.6V365.5H798.1V364ZM805.605 359.5H807.105V362.5H808.605V364H807.105V367H805.605V364H804.105V362.5H805.605V359.5ZM804.105 362.5H802.605V361H804.105V362.5ZM802.605 364H804.105V365.5H802.605V364ZM808.605 361H810.105V362.5H808.605V361ZM808.605 364H810.105V365.5H808.605V364ZM816.111 359.5H817.611V362.5H819.111V364H817.611V367H816.111V364H814.611V362.5H816.111V359.5ZM814.611 362.5H813.111V361H814.611V362.5ZM813.111 364H814.611V365.5H813.111V364ZM819.111 361H820.611V362.5H819.111V361ZM819.111 364H820.611V365.5H819.111V364ZM826.617 359.5H828.117V362.5H829.617V364H828.117V367H826.617V364H825.117V362.5H826.617V359.5ZM825.117 362.5H823.617V361H825.117V362.5ZM823.617 364H825.117V365.5H823.617V364ZM829.617 361H831.117V362.5H829.617V361ZM829.617 364H831.117V365.5H829.617V364ZM837.123 359.5H838.623V362.5H840.123V364H838.623V367H837.123V364H835.623V362.5H837.123V359.5ZM835.623 362.5H834.123V361H835.623V362.5ZM834.123 364H835.623V365.5H834.123V364ZM840.123 361H841.623V362.5H840.123V361ZM840.123 364H841.623V365.5H840.123V364ZM847.629 359.5H849.129V362.5H850.629V364H849.129V367H847.629V364H846.129V362.5H847.629V359.5ZM846.129 362.5H844.629V361H846.129V362.5ZM844.629 364H846.129V365.5H844.629V364ZM850.629 361H852.129V362.5H850.629V361ZM850.629 364H852.129V365.5H850.629V364ZM858.135 359.5H859.635V362.5H861.135V364H859.635V367H858.135V364H856.635V362.5H858.135V359.5ZM856.635 362.5H855.135V361H856.635V362.5ZM855.135 364H856.635V365.5H855.135V364ZM861.135 361H862.635V362.5H861.135V361ZM861.135 364H862.635V365.5H861.135V364ZM868.641 359.5H870.141V362.5H871.641V364H870.141V367H868.641V364H867.141V362.5H868.641V359.5ZM867.141 362.5H865.641V361H867.141V362.5ZM865.641 364H867.141V365.5H865.641V364ZM871.641 361H873.141V362.5H871.641V361ZM871.641 364H873.141V365.5H871.641V364ZM616.5 384.5H618V387.5H619.5V389H618V392H616.5V389H615V387.5H616.5V384.5ZM615 387.5H613.5V386H615V387.5ZM613.5 389H615V390.5H613.5V389ZM619.5 386H621V387.5H619.5V386ZM619.5 389H621V390.5H619.5V389ZM627.006 384.5H628.506V387.5H630.006V389H628.506V392H627.006V389H625.506V387.5H627.006V384.5ZM625.506 387.5H624.006V386H625.506V387.5ZM624.006 389H625.506V390.5H624.006V389ZM630.006 386H631.506V387.5H630.006V386ZM630.006 389H631.506V390.5H630.006V389ZM637.512 384.5H639.012V387.5H640.512V389H639.012V392H637.512V389H636.012V387.5H637.512V384.5ZM636.012 387.5H634.512V386H636.012V387.5ZM634.512 389H636.012V390.5H634.512V389ZM640.512 386H642.012V387.5H640.512V386ZM640.512 389H642.012V390.5H640.512V389ZM648.018 384.5H649.518V387.5H651.018V389H649.518V392H648.018V389H646.518V387.5H648.018V384.5ZM646.518 387.5H645.018V386H646.518V387.5ZM645.018 389H646.518V390.5H645.018V389ZM651.018 386H652.518V387.5H651.018V386ZM651.018 389H652.518V390.5H651.018V389ZM658.523 384.5H660.023V387.5H661.523V389H660.023V392H658.523V389H657.023V387.5H658.523V384.5ZM657.023 387.5H655.523V386H657.023V387.5ZM655.523 389H657.023V390.5H655.523V389ZM661.523 386H663.023V387.5H661.523V386ZM661.523 389H663.023V390.5H661.523V389ZM669.029 384.5H670.529V387.5H672.029V389H670.529V392H669.029V389H667.529V387.5H669.029V384.5ZM667.529 387.5H666.029V386H667.529V387.5ZM666.029 389H667.529V390.5H666.029V389ZM672.029 386H673.529V387.5H672.029V386ZM672.029 389H673.529V390.5H672.029V389ZM687.041 386H694.541V387.5H688.541V390.5H693.041V392H688.541V398H687.041V386ZM700.547 396.5V387.5H697.547V386H705.047V387.5H702.047V396.5H705.047V398H697.547V396.5H700.547ZM708.053 386H714.053V387.5H709.553V392H714.053V395H712.553V393.5H709.553V398H708.053V386ZM714.053 387.5H715.553V392H714.053V387.5ZM714.053 395H715.553V398H714.053V395ZM718.559 387.5H720.059V390.5H718.559V387.5ZM720.059 390.5H724.559V392H720.059V390.5ZM724.559 396.5V398H720.059V396.5H724.559ZM720.059 396.5H718.559V395H720.059V396.5ZM724.559 392H726.059V396.5H724.559V392ZM720.059 386H724.559V387.5H720.059V386ZM724.559 387.5H726.059V389H724.559V387.5ZM729.064 386H736.564V387.5H733.564V398H732.064V387.5H729.064V386ZM750.076 387.5H751.576V396.5H750.076V387.5ZM751.576 396.5H756.076V398H751.576V396.5ZM756.076 395H757.576V396.5H756.076V395ZM751.576 386H756.076V387.5H751.576V386ZM756.076 387.5H757.576V389H756.076V387.5ZM760.582 386H762.082V396.5H768.082V398H760.582V386ZM771.088 389H772.588V392H777.088V389H778.588V398H777.088V393.5H772.588V398H771.088V389ZM774.088 386H775.588V387.5H774.088V386ZM772.588 387.5H774.088V389H772.588V387.5ZM775.588 387.5H777.088V389H775.588V387.5ZM781.594 387.5H783.094V390.5H781.594V387.5ZM783.094 390.5H787.594V392H783.094V390.5ZM787.594 396.5V398H783.094V396.5H787.594ZM783.094 396.5H781.594V395H783.094V396.5ZM787.594 392H789.094V396.5H787.594V392ZM783.094 386H787.594V387.5H783.094V386ZM787.594 387.5H789.094V389H787.594V387.5ZM792.1 387.5H793.6V390.5H792.1V387.5ZM793.6 390.5H798.1V392H793.6V390.5ZM798.1 396.5V398H793.6V396.5H798.1ZM793.6 396.5H792.1V395H793.6V396.5ZM798.1 392H799.6V396.5H798.1V392ZM793.6 386H798.1V387.5H793.6V386ZM798.1 387.5H799.6V389H798.1V387.5ZM816.111 384.5H817.611V387.5H819.111V389H817.611V392H816.111V389H814.611V387.5H816.111V384.5ZM814.611 387.5H813.111V386H814.611V387.5ZM813.111 389H814.611V390.5H813.111V389ZM819.111 386H820.611V387.5H819.111V386ZM819.111 389H820.611V390.5H819.111V389ZM826.617 384.5H828.117V387.5H829.617V389H828.117V392H826.617V389H825.117V387.5H826.617V384.5ZM825.117 387.5H823.617V386H825.117V387.5ZM823.617 389H825.117V390.5H823.617V389ZM829.617 386H831.117V387.5H829.617V386ZM829.617 389H831.117V390.5H829.617V389ZM837.123 384.5H838.623V387.5H840.123V389H838.623V392H837.123V389H835.623V387.5H837.123V384.5ZM835.623 387.5H834.123V386H835.623V387.5ZM834.123 389H835.623V390.5H834.123V389ZM840.123 386H841.623V387.5H840.123V386ZM840.123 389H841.623V390.5H840.123V389ZM847.629 384.5H849.129V387.5H850.629V389H849.129V392H847.629V389H846.129V387.5H847.629V384.5ZM846.129 387.5H844.629V386H846.129V387.5ZM844.629 389H846.129V390.5H844.629V389ZM850.629 386H852.129V387.5H850.629V386ZM850.629 389H852.129V390.5H850.629V389ZM858.135 384.5H859.635V387.5H861.135V389H859.635V392H858.135V389H856.635V387.5H858.135V384.5ZM856.635 387.5H855.135V386H856.635V387.5ZM855.135 389H856.635V390.5H855.135V389ZM861.135 386H862.635V387.5H861.135V386ZM861.135 389H862.635V390.5H861.135V389ZM868.641 384.5H870.141V387.5H871.641V389H870.141V392H868.641V389H867.141V387.5H868.641V384.5ZM867.141 387.5H865.641V386H867.141V387.5ZM865.641 389H867.141V390.5H865.641V389ZM871.641 386H873.141V387.5H871.641V386ZM871.641 389H873.141V390.5H871.641V389ZM616.5 409.5H618V412.5H619.5V414H618V417H616.5V414H615V412.5H616.5V409.5ZM615 412.5H613.5V411H615V412.5ZM613.5 414H615V415.5H613.5V414ZM619.5 411H621V412.5H619.5V411ZM619.5 414H621V415.5H619.5V414ZM627.006 409.5H628.506V412.5H630.006V414H628.506V417H627.006V414H625.506V412.5H627.006V409.5ZM625.506 412.5H624.006V411H625.506V412.5ZM624.006 414H625.506V415.5H624.006V414ZM630.006 411H631.506V412.5H630.006V411ZM630.006 414H631.506V415.5H630.006V414ZM637.512 409.5H639.012V412.5H640.512V414H639.012V417H637.512V414H636.012V412.5H637.512V409.5ZM636.012 412.5H634.512V411H636.012V412.5ZM634.512 414H636.012V415.5H634.512V414ZM640.512 411H642.012V412.5H640.512V411ZM640.512 414H642.012V415.5H640.512V414ZM648.018 409.5H649.518V412.5H651.018V414H649.518V417H648.018V414H646.518V412.5H648.018V409.5ZM646.518 412.5H645.018V411H646.518V412.5ZM645.018 414H646.518V415.5H645.018V414ZM651.018 411H652.518V412.5H651.018V411ZM651.018 414H652.518V415.5H651.018V414ZM658.523 409.5H660.023V412.5H661.523V414H660.023V417H658.523V414H657.023V412.5H658.523V409.5ZM657.023 412.5H655.523V411H657.023V412.5ZM655.523 414H657.023V415.5H655.523V414ZM661.523 411H663.023V412.5H661.523V411ZM661.523 414H663.023V415.5H661.523V414ZM669.029 409.5H670.529V412.5H672.029V414H670.529V417H669.029V414H667.529V412.5H669.029V409.5ZM667.529 412.5H666.029V411H667.529V412.5ZM666.029 414H667.529V415.5H666.029V414ZM672.029 411H673.529V412.5H672.029V411ZM672.029 414H673.529V415.5H672.029V414ZM679.535 409.5H681.035V412.5H682.535V414H681.035V417H679.535V414H678.035V412.5H679.535V409.5ZM678.035 412.5H676.535V411H678.035V412.5ZM676.535 414H678.035V415.5H676.535V414ZM682.535 411H684.035V412.5H682.535V411ZM682.535 414H684.035V415.5H682.535V414ZM690.041 409.5H691.541V412.5H693.041V414H691.541V417H690.041V414H688.541V412.5H690.041V409.5ZM688.541 412.5H687.041V411H688.541V412.5ZM687.041 414H688.541V415.5H687.041V414ZM693.041 411H694.541V412.5H693.041V411ZM693.041 414H694.541V415.5H693.041V414ZM700.547 409.5H702.047V412.5H703.547V414H702.047V417H700.547V414H699.047V412.5H700.547V409.5ZM699.047 412.5H697.547V411H699.047V412.5ZM697.547 414H699.047V415.5H697.547V414ZM703.547 411H705.047V412.5H703.547V411ZM703.547 414H705.047V415.5H703.547V414ZM711.053 409.5H712.553V412.5H714.053V414H712.553V417H711.053V414H709.553V412.5H711.053V409.5ZM709.553 412.5H708.053V411H709.553V412.5ZM708.053 414H709.553V415.5H708.053V414ZM714.053 411H715.553V412.5H714.053V411ZM714.053 414H715.553V415.5H714.053V414ZM721.559 409.5H723.059V412.5H724.559V414H723.059V417H721.559V414H720.059V412.5H721.559V409.5ZM720.059 412.5H718.559V411H720.059V412.5ZM718.559 414H720.059V415.5H718.559V414ZM724.559 411H726.059V412.5H724.559V411ZM724.559 414H726.059V415.5H724.559V414ZM732.064 409.5H733.564V412.5H735.064V414H733.564V417H732.064V414H730.564V412.5H732.064V409.5ZM730.564 412.5H729.064V411H730.564V412.5ZM729.064 414H730.564V415.5H729.064V414ZM735.064 411H736.564V412.5H735.064V411ZM735.064 414H736.564V415.5H735.064V414ZM742.57 409.5H744.07V412.5H745.57V414H744.07V417H742.57V414H741.07V412.5H742.57V409.5ZM741.07 412.5H739.57V411H741.07V412.5ZM739.57 414H741.07V415.5H739.57V414ZM745.57 411H747.07V412.5H745.57V411ZM745.57 414H747.07V415.5H745.57V414ZM753.076 409.5H754.576V412.5H756.076V414H754.576V417H753.076V414H751.576V412.5H753.076V409.5ZM751.576 412.5H750.076V411H751.576V412.5ZM750.076 414H751.576V415.5H750.076V414ZM756.076 411H757.576V412.5H756.076V411ZM756.076 414H757.576V415.5H756.076V414ZM763.582 409.5H765.082V412.5H766.582V414H765.082V417H763.582V414H762.082V412.5H763.582V409.5ZM762.082 412.5H760.582V411H762.082V412.5ZM760.582 414H762.082V415.5H760.582V414ZM766.582 411H768.082V412.5H766.582V411ZM766.582 414H768.082V415.5H766.582V414ZM774.088 409.5H775.588V412.5H777.088V414H775.588V417H774.088V414H772.588V412.5H774.088V409.5ZM772.588 412.5H771.088V411H772.588V412.5ZM771.088 414H772.588V415.5H771.088V414ZM777.088 411H778.588V412.5H777.088V411ZM777.088 414H778.588V415.5H777.088V414ZM784.594 409.5H786.094V412.5H787.594V414H786.094V417H784.594V414H783.094V412.5H784.594V409.5ZM783.094 412.5H781.594V411H783.094V412.5ZM781.594 414H783.094V415.5H781.594V414ZM787.594 411H789.094V412.5H787.594V411ZM787.594 414H789.094V415.5H787.594V414ZM795.1 409.5H796.6V412.5H798.1V414H796.6V417H795.1V414H793.6V412.5H795.1V409.5ZM793.6 412.5H792.1V411H793.6V412.5ZM792.1 414H793.6V415.5H792.1V414ZM798.1 411H799.6V412.5H798.1V411ZM798.1 414H799.6V415.5H798.1V414ZM805.605 409.5H807.105V412.5H808.605V414H807.105V417H805.605V414H804.105V412.5H805.605V409.5ZM804.105 412.5H802.605V411H804.105V412.5ZM802.605 414H804.105V415.5H802.605V414ZM808.605 411H810.105V412.5H808.605V411ZM808.605 414H810.105V415.5H808.605V414ZM816.111 409.5H817.611V412.5H819.111V414H817.611V417H816.111V414H814.611V412.5H816.111V409.5ZM814.611 412.5H813.111V411H814.611V412.5ZM813.111 414H814.611V415.5H813.111V414ZM819.111 411H820.611V412.5H819.111V411ZM819.111 414H820.611V415.5H819.111V414ZM826.617 409.5H828.117V412.5H829.617V414H828.117V417H826.617V414H825.117V412.5H826.617V409.5ZM825.117 412.5H823.617V411H825.117V412.5ZM823.617 414H825.117V415.5H823.617V414ZM829.617 411H831.117V412.5H829.617V411ZM829.617 414H831.117V415.5H829.617V414ZM837.123 409.5H838.623V412.5H840.123V414H838.623V417H837.123V414H835.623V412.5H837.123V409.5ZM835.623 412.5H834.123V411H835.623V412.5ZM834.123 414H835.623V415.5H834.123V414ZM840.123 411H841.623V412.5H840.123V411ZM840.123 414H841.623V415.5H840.123V414ZM847.629 409.5H849.129V412.5H850.629V414H849.129V417H847.629V414H846.129V412.5H847.629V409.5ZM846.129 412.5H844.629V411H846.129V412.5ZM844.629 414H846.129V415.5H844.629V414ZM850.629 411H852.129V412.5H850.629V411ZM850.629 414H852.129V415.5H850.629V414ZM858.135 409.5H859.635V412.5H861.135V414H859.635V417H858.135V414H856.635V412.5H858.135V409.5ZM856.635 412.5H855.135V411H856.635V412.5ZM855.135 414H856.635V415.5H855.135V414ZM861.135 411H862.635V412.5H861.135V411ZM861.135 414H862.635V415.5H861.135V414ZM868.641 409.5H870.141V412.5H871.641V414H870.141V417H868.641V414H867.141V412.5H868.641V409.5ZM867.141 412.5H865.641V411H867.141V412.5ZM865.641 414H867.141V415.5H865.641V414ZM871.641 411H873.141V412.5H871.641V411ZM871.641 414H873.141V415.5H871.641V414Z" fill="#F2F2F2"/>
<path d="M131 383.5H135V391.5H147V383.5H151V407.5H147V395.5H135V407.5H131V383.5ZM139 375.5H143V379.5H139V375.5ZM135 379.5H139V383.5H135V379.5ZM143 379.5H147V383.5H143V379.5ZM159.016 399.5H163.016V403.5H179.016V407.5H159.016V399.5ZM175.016 379.5H163.016V375.5H175.016V379.5ZM175.016 379.5H179.016V387.5H175.016V379.5ZM163.016 395.5H167.016V399.5H163.016V395.5ZM159.016 379.5H163.016V383.5H159.016V379.5ZM171.016 387.5H175.016V391.5H171.016V387.5ZM167.016 391.5H171.016V395.5H167.016V391.5ZM191.031 395.5H195.031V407.5H191.031V395.5ZM195.031 391.5H199.031V395.5H195.031V391.5ZM199.031 387.5H203.031V391.5H199.031V387.5ZM203.031 379.5H187.031V375.5H207.031V387.5H203.031V379.5Z" fill="#F2F2F2"/>
<path d="M485 379.5H489V375.5H493V407.5H489V399.5H473V391.5H477V395.5H489V383.5H485V379.5ZM481 383.5H485V387.5H481V383.5ZM477 387.5H481V391.5H477V387.5ZM501.016 379.5H505.016V403.5H501.016V379.5ZM505.016 403.5H517.016V407.5H505.016V403.5ZM517.016 399.5H521.016V403.5H517.016V399.5ZM505.016 375.5H517.016V379.5H505.016V375.5ZM517.016 379.5H521.016V383.5H517.016V379.5Z" fill="#F2F2F2"/>
<path d="M425 171.5H429V199.5H445V203.5H425V171.5ZM453.016 179.5H457.016V187.5H469.016V179.5H473.016V203.5H469.016V191.5H457.016V203.5H453.016V179.5ZM461.016 171.5H465.016V175.5H461.016V171.5ZM457.016 175.5H461.016V179.5H457.016V175.5ZM465.016 175.5H469.016V179.5H465.016V175.5ZM497.031 191.5H501.031V203.5H497.031V191.5ZM481.031 191.5H485.031V203.5H481.031V191.5ZM489.031 183.5H485.031V179.5H489.031V183.5ZM489.031 183.5H493.031V187.5H489.031V183.5ZM493.031 179.5H497.031V183.5H493.031V179.5ZM485.031 179.5H481.031V171.5H485.031V179.5ZM485.031 187.5H489.031V191.5H485.031V187.5ZM497.031 171.5H501.031V179.5H497.031V171.5ZM493.031 187.5H497.031V191.5H493.031V187.5Z" fill="#F2F2F2"/>
<path d="M621 171.5H625V183.5H629V179.5H633V187.5H625V203.5H621V171.5ZM637 171.5H641V175.5H637V171.5ZM633 175.5H637V179.5H633V175.5ZM637 195.5H633V187.5H637V195.5ZM637 195.5H641V203.5H637V195.5ZM649.016 171.5H665.016V175.5H653.016V183.5H665.016V187.5H653.016V199.5H665.016V203.5H649.016V171.5ZM665.016 187.5H669.016V199.5H665.016V187.5ZM665.016 175.5H669.016V183.5H665.016V175.5ZM677.031 179.5H681.031V187.5H693.031V179.5H697.031V203.5H693.031V191.5H681.031V203.5H677.031V179.5ZM685.031 171.5H689.031V175.5H685.031V171.5ZM681.031 175.5H685.031V179.5H681.031V175.5ZM689.031 175.5H693.031V179.5H689.031V175.5Z" fill="#F2F2F2"/>
<path d="M372 220.5H374V234.5H382V236.5H372V220.5ZM386.008 222.5H388.008V234.5H386.008V222.5ZM388.008 234.5H394.008V236.5H388.008V234.5ZM394.008 222.5H396.008V234.5H394.008V222.5ZM388.008 220.5H394.008V222.5H388.008V220.5ZM400.016 222.5H402.016V226.5H400.016V222.5ZM402.016 226.5H408.016V228.5H402.016V226.5ZM408.016 234.5V236.5H402.016V234.5H408.016ZM402.016 234.5H400.016V232.5H402.016V234.5ZM408.016 228.5H410.016V234.5H408.016V228.5ZM402.016 220.5H408.016V222.5H402.016V220.5ZM408.016 222.5H410.016V224.5H408.016V222.5ZM428.031 224.5H430.031V228.5H436.031V224.5H438.031V236.5H436.031V230.5H430.031V236.5H428.031V224.5ZM432.031 220.5H434.031V222.5H432.031V220.5ZM430.031 222.5H432.031V224.5H430.031V222.5ZM434.031 222.5H436.031V224.5H434.031V222.5ZM442.039 220.5H444.039V224.5H446.039V226.5H444.039V236.5H442.039V220.5ZM450.039 230.5H448.039V228.5H450.039V220.5H452.039V236.5H450.039V230.5ZM448.039 228.5H446.039V226.5H448.039V228.5ZM456.047 222.5H458.047V234.5H456.047V222.5ZM458.047 234.5H464.047V236.5H458.047V234.5ZM464.047 230.5L462.047 230.5V228.5L466.047 228.5V234.5H464.047V230.5ZM458.047 220.5L464.047 220.5V222.5L458.047 222.5V220.5ZM464.047 222.5H466.047V224.5H464.047V222.5ZM470.055 220.5H480.055V222.5H472.055V226.5H478.055V228.5H472.055V234.5H480.055V236.5H470.055V220.5ZM484.063 220.5H486.063V234.5H494.063V236.5H484.063V220.5ZM498.07 220.5H508.07V222.5H500.07V226.5H506.07V228.5H500.07V234.5H508.07V236.5H498.07V220.5ZM512.078 222.5H514.078V226.5H512.078V222.5ZM514.078 226.5H520.078V228.5H514.078V226.5ZM520.078 234.5V236.5H514.078V234.5H520.078ZM514.078 234.5H512.078V232.5H514.078V234.5ZM520.078 228.5H522.078V234.5H520.078V228.5ZM514.078 220.5H520.078V222.5H514.078V220.5ZM520.078 222.5H522.078V224.5H520.078V222.5ZM548.094 228.5H550.094V230.5H548.094V232.5H544.094V234.5H540.094V236.5H538.094V222.5H540.094V224.5H544.094V226.5H548.094V228.5ZM562.102 228.5H564.102V230.5H562.102V232.5H558.102V234.5H554.102V236.5H552.102V222.5H554.102V224.5H558.102V226.5H562.102V228.5Z" fill="#F2F2F2"/>
<path d="M582 220.5H584V226.5H586V224.5H588V228.5H584V236.5H582V220.5ZM590 220.5H592V222.5H590V220.5ZM588 222.5H590V224.5H588V222.5ZM590 232.5H588V228.5H590V232.5ZM590 232.5H592V236.5H590V232.5ZM596.008 220.5H598.008V234.5H596.008V220.5ZM598.008 234.5H604.008V236.5H598.008V234.5ZM604.008 220.5H606.008V234.5H604.008V220.5ZM614.016 234.5V222.5H610.016V220.5H620.016V222.5H616.016V234.5H620.016V236.5H610.016V234.5H614.016ZM624.023 220.5H632.023V222.5H626.023V228.5H632.023V230.5H626.023V236.5H624.023V220.5ZM632.023 222.5H634.023V228.5H632.023V222.5ZM638.031 220.5H648.031V222.5H640.031V226.5H646.031V228.5H640.031V234.5H648.031V236.5H638.031V220.5ZM652.039 220.5H660.039V222.5H654.039V228.5H660.039V232.5H658.039V230.5H654.039V236.5H652.039V220.5ZM660.039 222.5H662.039V228.5H660.039V222.5ZM660.039 232.5H662.039V236.5H660.039V232.5ZM680.055 224.5H682.055V228.5H688.055V224.5H690.055V236.5H688.055V230.5H682.055V236.5H680.055V224.5ZM684.055 220.5H686.055V222.5H684.055V220.5ZM682.055 222.5H684.055V224.5H682.055V222.5ZM686.055 222.5H688.055V224.5H686.055V222.5ZM694.063 220.5H696.063V234.5H704.063V236.5H694.063V220.5ZM708.07 220.5H716.07V222.5H710.07V228.5H716.07V230.5H710.07V236.5H708.07V220.5ZM716.07 222.5H718.07V228.5H716.07V222.5ZM722.078 220.5H724.078V226.5H730.078V220.5H732.078V236.5H730.078V228.5H724.078V236.5H722.078V220.5ZM736.086 224.5H738.086V228.5H744.086V224.5H746.086V236.5H744.086V230.5H738.086V236.5H736.086V224.5ZM740.086 220.5H742.086V222.5H740.086V220.5ZM738.086 222.5H740.086V224.5H738.086V222.5ZM742.086 222.5H744.086V224.5H742.086V222.5Z" fill="#F2F2F2"/>
<path d="M777 119.5H779V125.5H777V119.5ZM769 119.5H771V125.5H769V119.5ZM773 115.5H771V113.5H773V115.5ZM773 115.5H775V117.5H773V115.5ZM775 113.5H777V115.5H775V113.5ZM771 113.5H769V109.5H771V113.5ZM771 117.5H773V119.5H771V117.5ZM777 109.5H779V113.5H777V109.5ZM775 117.5H777V119.5H775V117.5ZM791.008 119.5H793.008V125.5H791.008V119.5ZM783.008 119.5H785.008V125.5H783.008V119.5ZM787.008 115.5H785.008V113.5H787.008V115.5ZM787.008 115.5H789.008V117.5H787.008V115.5ZM789.008 113.5H791.008V115.5H789.008V113.5ZM785.008 113.5H783.008V109.5H785.008V113.5ZM785.008 117.5H787.008V119.5H785.008V117.5ZM791.008 109.5H793.008V113.5H791.008V109.5ZM789.008 117.5H791.008V119.5H789.008V117.5ZM807.016 117.5V119.5H797.016V117.5H807.016ZM811.023 121.5H813.023V123.5H821.023V125.5H811.023V121.5ZM819.023 111.5L813.023 111.5V109.5L819.023 109.5V111.5ZM819.023 111.5H821.023V115.5H819.023V111.5ZM813.023 119.5H815.023V121.5H813.023V119.5ZM811.023 111.5H813.023V113.5H811.023V111.5ZM817.023 115.5H819.023V117.5H817.023V115.5ZM815.023 117.5L817.023 117.5V119.5L815.023 119.5V117.5ZM831.031 111.5H833.031V109.5H835.031V125.5H833.031V121.5H825.031V117.5H827.031V119.5H833.031V113.5H831.031V111.5ZM829.031 113.5H831.031V115.5H829.031V113.5ZM827.031 115.5H829.031V117.5H827.031V115.5ZM839.039 111.5H841.039V115.5H839.039V111.5ZM847.039 111.5H841.039V109.5H847.039V111.5ZM847.039 111.5H849.039V115.5H847.039V111.5ZM841.039 115.5H847.039V117.5H841.039V115.5ZM847.039 117.5H849.039V123.5H847.039V117.5ZM839.039 117.5H841.039V123.5H839.039V117.5ZM847.039 123.5V125.5H841.039V123.5H847.039ZM853.047 111.5H855.047V115.5H853.047V111.5ZM861.047 111.5H855.047V109.5H861.047V111.5ZM861.047 111.5H863.047V115.5H861.047V111.5ZM855.047 115.5H861.047V117.5H855.047V115.5ZM861.047 117.5H863.047V123.5H861.047V117.5ZM853.047 117.5H855.047V123.5H853.047V117.5ZM861.047 123.5V125.5H855.047V123.5H861.047ZM867.055 111.5H869.055V113.5H867.055V111.5ZM869.055 109.5H875.055V111.5H869.055V109.5ZM875.055 111.5H877.055V115.5H875.055V111.5ZM871.055 115.5H875.055V117.5H871.055V115.5ZM875.055 117.5H877.055V123.5H875.055V117.5ZM875.055 123.5V125.5H869.055V123.5H875.055ZM869.055 123.5H867.055V121.5H869.055V123.5ZM885.063 113.5H881.063V111.5H885.063V109.5H887.063V123.5L891.063 123.5V125.5L881.063 125.5V123.5H885.063V113.5ZM903.07 123.5V125.5H897.07V123.5H903.07ZM897.07 123.5H895.07V121.5H897.07V123.5ZM903.07 117.5V111.5H905.07V123.5H903.07V119.5H897.07V117.5H903.07ZM897.07 117.5H895.07V111.5H897.07V117.5ZM897.07 109.5H903.07V111.5H897.07V109.5ZM909.078 111.5H911.078V115.5H909.078V111.5ZM917.078 111.5H911.078V109.5H917.078V111.5ZM917.078 111.5H919.078V115.5H917.078V111.5ZM911.078 115.5H917.078V117.5H911.078V115.5ZM917.078 117.5H919.078V123.5H917.078V117.5ZM909.078 117.5H911.078V123.5H909.078V117.5ZM917.078 123.5V125.5H911.078V123.5H917.078ZM929.086 111.5H931.086V109.5H933.086V125.5H931.086V121.5H923.086V117.5H925.086V119.5H931.086V113.5H929.086V111.5ZM927.086 113.5H929.086V115.5H927.086V113.5ZM925.086 115.5H927.086V117.5H925.086V115.5ZM937.094 111.5H939.094V117.5H941.094V119.5H939.094V123.5H937.094V111.5ZM939.094 123.5H945.094V125.5H939.094V123.5ZM939.094 109.5H945.094V111.5H939.094V109.5ZM945.094 111.5H947.094V123.5H945.094V115.5H943.094V113.5H945.094V111.5ZM941.094 115.5H943.094V117.5H941.094V115.5Z" fill="#F2F2F2"/>
<path d="M371 195.5H376V196.5H372V198.5H375V199.5H372V203.5H371V195.5ZM378.004 195.5H382.004V196.5H379.004V199.5H382.004V201.5H381.004V200.5H379.004V203.5H378.004V195.5ZM382.004 196.5H383.004V199.5H382.004V196.5ZM382.004 201.5H383.004V203.5H382.004V201.5ZM385.008 196.5H386.008V202.5H385.008V196.5ZM386.008 202.5H389.008V203.5H386.008V202.5ZM389.008 196.5H390.008V202.5H389.008V196.5ZM386.008 195.5H389.008V196.5H386.008V195.5ZM392.012 195.5H393.012V197.5H394.012V198.5H393.012V203.5H392.012V195.5ZM396.012 198.5H395.012V197.5H396.012V195.5H397.012V203.5H396.012V198.5ZM394.012 198.5H395.012V200.5H394.012V198.5Z" fill="#F2F2F2"/>
<path d="M128 339.5H129V345.5H128V339.5ZM129 345.5H132V346.5H129V345.5ZM132 343.5H131V342.5H133V345.5H132V343.5ZM129 338.5H132V339.5H129V338.5ZM132 339.5H133V340.5H132V339.5ZM135.004 340.5H136.004V342.5H139.004V340.5H140.004V346.5H139.004V343.5H136.004V346.5H135.004V340.5ZM137.004 338.5H138.004V339.5H137.004V338.5ZM136.004 339.5H137.004V340.5H136.004V339.5ZM138.004 339.5H139.004V340.5H138.004V339.5ZM142.008 338.5H147.008V339.5H145.008V346.5H144.008V339.5H142.008V338.5ZM149.012 338.5H154.012V339.5H150.012V341.5H153.012V342.5H150.012V345.5H154.012V346.5H149.012V338.5Z" fill="#F2F2F2"/>
<path d="M470 350.5H471V352.5H470V350.5ZM471 352.5H474V353.5H471V352.5ZM474 356.5V357.5H471V356.5H474ZM471 356.5H470V355.5H471V356.5ZM474 353.5H475V356.5H474V353.5ZM471 349.5H474V350.5H471V349.5ZM474 350.5H475V351.5H474V350.5ZM477.004 349.5H482.004V350.5H478.004V352.5H481.004V353.5H478.004V356.5H482.004V357.5H477.004V349.5ZM484.008 351.5H485.008V353.5H488.008V351.5H489.008V357.5H488.008V354.5H485.008V357.5H484.008V351.5ZM486.008 349.5H487.008V350.5H486.008V349.5ZM485.008 350.5H486.008V351.5H485.008V350.5ZM487.008 350.5H488.008V351.5H487.008V350.5ZM491.012 349.5H496.012V350.5H494.012V357.5H493.012V350.5H491.012V349.5Z" fill="#F2F2F2"/>
<path d="M271 349.5H275V350.5H272V352.5H275V353.5H272V356.5H275V357.5H271V349.5ZM275 353.5H276V356.5H275V353.5ZM275 350.5H276V352.5H275V350.5ZM278.004 350.5H279.004V356.5H278.004V350.5ZM279.004 356.5H282.004V357.5H279.004V356.5ZM282.004 350.5H283.004V356.5H282.004V350.5ZM279.004 349.5H282.004V350.5H279.004V349.5ZM285.008 351.5H286.008V353.5H289.008V351.5H290.008V357.5H289.008V354.5H286.008V357.5H285.008V351.5ZM287.008 349.5H288.008V350.5H287.008V349.5ZM286.008 350.5H287.008V351.5H286.008V350.5ZM288.008 350.5H289.008V351.5H288.008V350.5ZM292.012 349.5H296.012V350.5H293.012V353.5H296.012V355.5H295.012V354.5H293.012V357.5H292.012V349.5ZM296.012 350.5H297.012V353.5H296.012V350.5ZM296.012 355.5H297.012V357.5H296.012V355.5ZM299.016 349.5H303.016V350.5H300.016V356.5H303.016V357.5H299.016V349.5ZM303.016 350.5H304.016V356.5H303.016V350.5ZM308.02 356.5V350.5H306.02V349.5H311.02V350.5H309.02V356.5H311.02V357.5H306.02V356.5H308.02ZM313.023 349.5H314.023V351.5H315.023V352.5H314.023V357.5H313.023V349.5ZM317.023 354.5H316.023V353.5H317.023V349.5H318.023V357.5H317.023V354.5ZM316.023 353.5H315.023V352.5H316.023V353.5ZM320.027 350.5H321.027V356.5H320.027V350.5ZM321.027 356.5H324.027V357.5H321.027V356.5ZM324.027 354.5H323.027V353.5H325.027V356.5H324.027V354.5ZM321.027 349.5H324.027V350.5H321.027V349.5ZM324.027 350.5H325.027V351.5H324.027V350.5Z" fill="#F2F2F2"/>
<path d="M128 195.5H132V196.5H129V199.5H132V200.5H129V203.5H128V195.5ZM132 196.5H133V199.5H132V196.5ZM135.004 197.5H136.004V199.5H139.004V197.5H140.004V203.5H139.004V200.5H136.004V203.5H135.004V197.5ZM137.004 195.5H138.004V196.5H137.004V195.5ZM136.004 196.5H137.004V197.5H136.004V196.5ZM138.004 196.5H139.004V197.5H138.004V196.5ZM142.008 196.5H143.008V198.5H142.008V196.5ZM143.008 198.5H146.008V199.5H143.008V198.5ZM146.008 202.5V203.5H143.008V202.5H146.008ZM143.008 202.5H142.008V201.5H143.008V202.5ZM146.008 199.5H147.008V202.5H146.008V199.5ZM143.008 195.5H146.008V196.5H143.008V195.5ZM146.008 196.5H147.008V197.5H146.008V196.5ZM149.012 196.5H150.012V198.5H149.012V196.5ZM150.012 198.5H153.012V199.5H150.012V198.5ZM153.012 202.5V203.5H150.012V202.5H153.012ZM150.012 202.5H149.012V201.5H150.012V202.5ZM153.012 199.5H154.012V202.5H153.012V199.5ZM150.012 195.5H153.012V196.5H150.012V195.5ZM153.012 196.5H154.012V197.5H153.012V196.5ZM156.016 195.5H161.016V196.5H157.016V198.5H160.016V199.5H157.016V202.5H161.016V203.5H156.016V195.5ZM163.02 195.5H164.02V197.5H165.02V198.5H164.02V203.5H163.02V195.5ZM167.02 200.5H166.02V199.5H167.02V195.5H168.02V203.5H167.02V200.5ZM166.02 199.5H165.02V198.5H166.02V199.5ZM170.023 196.5H171.023V202.5H170.023V196.5ZM171.023 202.5H174.023V203.5H171.023V202.5ZM174.023 200.5H173.023V199.5H175.023V202.5H174.023V200.5ZM171.023 195.5H174.023V196.5H171.023V195.5ZM174.023 196.5H175.023V197.5H174.023V196.5ZM177.027 195.5H182.027V196.5H178.027V198.5H181.027V199.5H178.027V202.5H182.027V203.5H177.027V195.5ZM184.031 195.5H188.031V196.5H185.031V199.5H188.031V201.5H187.031V200.5H185.031V203.5H184.031V195.5ZM188.031 196.5H189.031V199.5H188.031V196.5ZM188.031 201.5H189.031V203.5H188.031V201.5Z" fill="#F2F2F2"/>
<path d="M128 261.5H133V262.5H129V264.5H132V265.5H129V269.5H128V261.5ZM135.004 261.5H136.004V268.5H140.004V269.5H135.004V261.5ZM144.008 268.5V262.5H142.008V261.5H147.008V262.5H145.008V268.5H147.008V269.5H142.008V268.5H144.008ZM149.012 262.5H150.012V268.5H149.012V262.5ZM150.012 268.5H153.012V269.5H150.012V268.5ZM153.012 266.5H152.012V265.5H154.012V268.5H153.012V266.5ZM150.012 261.5H153.012V262.5H150.012V261.5ZM153.012 262.5H154.012V263.5H153.012V262.5ZM156.016 261.5H157.016V264.5H160.016V261.5H161.016V269.5H160.016V265.5H157.016V269.5H156.016V261.5ZM163.02 261.5H168.02V262.5H166.02V269.5H165.02V262.5H163.02V261.5Z" fill="#F2F2F2"/>
<path d="M271 272.5H275V273.5H272V279.5H275V280.5H271V272.5ZM275 273.5H276V279.5H275V273.5ZM278.004 272.5H283.004V273.5H279.004V275.5H282.004V276.5H279.004V279.5H283.004V280.5H278.004V272.5ZM285.008 272.5H289.008V273.5H286.008V276.5H289.008V277.5H286.008V280.5H285.008V272.5ZM289.008 273.5H290.008V276.5H289.008V273.5ZM292.012 274.5H293.012V276.5H296.012V274.5H297.012V280.5H296.012V277.5H293.012V280.5H292.012V274.5ZM294.012 272.5H295.012V273.5H294.012V272.5ZM293.012 273.5H294.012V274.5H293.012V273.5ZM295.012 273.5H296.012V274.5H295.012V273.5ZM299.016 272.5H303.016V273.5H300.016V276.5H303.016V278.5H302.016V277.5H300.016V280.5H299.016V272.5ZM303.016 273.5H304.016V276.5H303.016V273.5ZM303.016 278.5H304.016V280.5H303.016V278.5ZM306.02 272.5H311.02V273.5H309.02V280.5H308.02V273.5H306.02V272.5ZM313.023 272.5H314.023V279.5H313.023V272.5ZM314.023 279.5H317.023V280.5H314.023V279.5ZM317.023 272.5H318.023V279.5H317.023V272.5ZM320.027 272.5H324.027V273.5H321.027V276.5H324.027V278.5H323.027V277.5H321.027V280.5H320.027V272.5ZM324.027 273.5H325.027V276.5H324.027V273.5ZM324.027 278.5H325.027V280.5H324.027V278.5ZM327.031 272.5H332.031V273.5H328.031V275.5H331.031V276.5H328.031V279.5H332.031V280.5H327.031V272.5Z" fill="#F2F2F2"/>
<path d="M1043 45.5H1045V59.5H1053V61.5H1043V45.5ZM1057.01 45.5H1059.01V59.5H1057.01V45.5ZM1059.01 59.5H1065.01V61.5H1059.01V59.5ZM1065.01 45.5L1067.01 45.5V59.5H1065.01V45.5ZM1071.02 45.5H1073.02V49.5H1075.02V51.5H1073.02V61.5H1071.02V45.5ZM1079.02 55.5H1077.02V53.5H1079.02V45.5H1081.02V61.5H1079.02V55.5ZM1077.02 53.5H1075.02V51.5H1077.02V53.5ZM1085.02 49.5H1087.02V53.5H1093.02V49.5H1095.02V61.5H1093.02V55.5H1087.02V61.5H1085.02V49.5ZM1089.02 45.5H1091.02V47.5H1089.02V45.5ZM1087.02 47.5H1089.02V49.5H1087.02V47.5ZM1091.02 47.5H1093.02V49.5H1091.02V47.5ZM1099.03 45.5L1107.03 45.5V47.5L1101.03 47.5V53.5L1107.03 53.5V57.5H1105.03V55.5L1101.03 55.5V61.5H1099.03V45.5ZM1107.03 47.5H1109.03V53.5H1107.03V47.5ZM1107.03 57.5H1109.03V61.5H1107.03V57.5ZM1127.05 49.5H1129.05V53.5H1135.05V49.5H1137.05V61.5H1135.05V55.5H1129.05V61.5H1127.05V49.5ZM1131.05 45.5H1133.05V47.5H1131.05V45.5ZM1129.05 47.5H1131.05V49.5H1129.05V47.5ZM1133.05 47.5H1135.05V49.5H1133.05V47.5ZM1145.05 59.5V47.5H1141.05V45.5H1151.05V47.5H1147.05V59.5H1151.05V61.5H1141.05V59.5H1145.05ZM1155.06 45.5H1163.06V47.5H1157.06V53.5H1163.06V57.5L1161.06 57.5V55.5H1157.06V61.5H1155.06V45.5ZM1163.06 47.5H1165.06V53.5H1163.06V47.5ZM1163.06 57.5H1165.06V61.5H1163.06V57.5ZM1169.07 45.5H1171.07V59.5H1179.07V61.5H1169.07V45.5ZM1187.08 59.5V47.5H1183.08V45.5L1193.08 45.5V47.5L1189.08 47.5V59.5H1193.08V61.5L1183.08 61.5V59.5L1187.08 59.5ZM1197.09 45.5H1199.09V49.5H1201.09V51.5H1199.09V61.5H1197.09V45.5ZM1205.09 55.5H1203.09V53.5H1205.09V45.5H1207.09V61.5H1205.09V55.5ZM1203.09 53.5H1201.09V51.5H1203.09V53.5ZM1211.09 45.5H1221.09V47.5H1213.09V51.5H1219.09V53.5H1213.09V59.5H1221.09V61.5H1211.09V45.5ZM1225.1 47.5H1227.1V51.5H1225.1V47.5ZM1227.1 51.5H1233.1V53.5H1227.1V51.5ZM1233.1 59.5V61.5H1227.1V59.5H1233.1ZM1227.1 59.5H1225.1V57.5H1227.1V59.5ZM1233.1 53.5H1235.1V59.5H1233.1V53.5ZM1227.1 45.5H1233.1V47.5H1227.1V45.5ZM1233.1 47.5H1235.1V49.5H1233.1V47.5ZM1043 77.5H1051V79.5H1045V83.5H1051V85.5H1045V91.5H1051V93.5H1043V77.5ZM1051 85.5H1053V91.5H1051V85.5ZM1051 79.5H1053V83.5H1051V79.5ZM1057.01 79.5H1059.01V91.5H1057.01V79.5ZM1059.01 91.5H1065.01V93.5H1059.01V91.5ZM1065.01 79.5H1067.01V91.5H1065.01V79.5ZM1059.01 77.5H1065.01V79.5H1059.01V77.5ZM1071.02 81.5H1073.02V85.5H1079.02V81.5H1081.02V93.5H1079.02V87.5H1073.02V93.5H1071.02V81.5ZM1075.02 77.5H1077.02V79.5H1075.02V77.5ZM1073.02 79.5H1075.02V81.5H1073.02V79.5ZM1077.02 79.5H1079.02V81.5H1077.02V79.5ZM1085.02 77.5H1093.02V79.5H1087.02V85.5H1093.02V89.5H1091.02V87.5H1087.02V93.5H1085.02V77.5ZM1093.02 79.5H1095.02V85.5H1093.02V79.5ZM1093.02 89.5H1095.02V93.5H1093.02V89.5ZM1099.03 77.5H1107.03V79.5H1101.03V91.5H1107.03V93.5H1099.03V77.5ZM1107.03 79.5L1109.03 79.5V91.5L1107.03 91.5V79.5ZM1117.04 91.5V79.5H1113.04V77.5H1123.04V79.5H1119.04V91.5H1123.04V93.5H1113.04V91.5H1117.04ZM1127.05 77.5H1129.05V81.5H1131.05V83.5H1129.05V93.5H1127.05V77.5ZM1135.05 87.5H1133.05V85.5H1135.05V77.5H1137.05V93.5H1135.05V87.5ZM1133.05 85.5H1131.05V83.5H1133.05V85.5ZM1141.05 79.5H1143.05V91.5H1141.05V79.5ZM1143.05 91.5H1149.05V93.5H1143.05V91.5ZM1149.05 87.5H1147.05V85.5H1151.05V91.5H1149.05V87.5ZM1143.05 77.5H1149.05V79.5H1143.05V77.5ZM1149.05 79.5H1151.05V81.5H1149.05V79.5ZM1169.07 77.5H1177.07V79.5H1171.07V85.5H1177.07V87.5H1171.07V93.5H1169.07V77.5ZM1177.07 79.5H1179.07V85.5H1177.07V79.5ZM1183.08 81.5H1185.08V85.5H1191.08V81.5H1193.08V93.5H1191.08V87.5H1185.08V93.5H1183.08V81.5ZM1187.08 77.5H1189.08V79.5H1187.08V77.5ZM1185.08 79.5H1187.08V81.5H1185.08V79.5ZM1189.08 79.5H1191.08V81.5H1189.08V79.5ZM1197.09 79.5H1199.09V83.5H1197.09V79.5ZM1199.09 83.5H1205.09V85.5H1199.09V83.5ZM1205.09 91.5V93.5H1199.09V91.5H1205.09ZM1199.09 91.5H1197.09V89.5H1199.09V91.5ZM1205.09 85.5H1207.09V91.5H1205.09V85.5ZM1199.09 77.5H1205.09V79.5H1199.09V77.5ZM1205.09 79.5H1207.09V81.5H1205.09V79.5ZM1211.09 79.5H1213.09V83.5H1211.09V79.5ZM1213.09 83.5H1219.09V85.5H1213.09V83.5ZM1219.09 91.5V93.5H1213.09V91.5H1219.09ZM1213.09 91.5H1211.09V89.5H1213.09V91.5ZM1219.09 85.5H1221.09V91.5H1219.09V85.5ZM1213.09 77.5H1219.09V79.5H1213.09V77.5ZM1219.09 79.5H1221.09V81.5H1219.09V79.5Z" fill="#F2F2F2"/>
<path d="M1043 410.5H1045V414.5H1051V410.5H1053V422.5H1051V416.5H1045V422.5H1043V410.5ZM1047 406.5H1049V408.5H1047V406.5ZM1045 408.5H1047V410.5H1045V408.5ZM1049 408.5H1051V410.5H1049V408.5ZM1057.01 418.5H1059.01V420.5H1067.01V422.5H1057.01V418.5ZM1065.01 408.5H1059.01V406.5H1065.01V408.5ZM1065.01 408.5H1067.01V412.5H1065.01V408.5ZM1059.01 416.5H1061.01V418.5H1059.01V416.5ZM1057.01 408.5H1059.01V410.5H1057.01V408.5ZM1063.01 412.5H1065.01V414.5H1063.01V412.5ZM1061.01 414.5H1063.01V416.5H1061.01V414.5ZM1073.02 416.5H1075.02V422.5H1073.02V416.5ZM1075.02 414.5H1077.02V416.5H1075.02V414.5ZM1077.02 412.5H1079.02V414.5H1077.02V412.5ZM1079.02 408.5H1071.02V406.5H1081.02V412.5H1079.02V408.5Z" fill="#F2F2F2"/>
<path d="M1134 410.5H1130V408.5H1134V406.5H1136V420.5H1140V422.5H1130V420.5H1134V410.5ZM1148.01 410.5H1144.01V408.5H1148.01V406.5H1150.01V420.5H1154.01V422.5H1144.01V420.5H1148.01V410.5ZM1162.02 418.5H1164.02V422.5H1162.02V418.5ZM1162.02 410.5H1164.02V414.5H1162.02V410.5ZM1172.02 408.5H1174.02V414.5H1176.02V416.5H1174.02V420.5H1172.02V408.5ZM1174.02 420.5H1180.02V422.5H1174.02V420.5ZM1174.02 406.5H1180.02V408.5H1174.02V406.5ZM1180.02 408.5H1182.02V420.5H1180.02V412.5H1178.02V410.5H1180.02V408.5ZM1176.02 412.5H1178.02V414.5H1176.02V412.5ZM1190.03 410.5H1186.03V408.5H1190.03V406.5H1192.03V420.5H1196.03V422.5H1186.03V420.5H1190.03V410.5Z" fill="#F2F2F2"/>
<path d="M1251 408.5H1253V406.5H1255V422.5H1253V418.5H1245V414.5H1247V416.5H1253V410.5H1251V408.5ZM1249 410.5H1251V412.5H1249V410.5ZM1247 412.5H1249V414.5H1247V412.5ZM1259.01 408.5H1261.01V420.5H1259.01V408.5ZM1261.01 420.5H1267.01V422.5H1261.01V420.5ZM1267.01 418.5H1269.01V420.5H1267.01V418.5ZM1261.01 406.5H1267.01V408.5H1261.01V406.5ZM1267.01 408.5H1269.01V410.5H1267.01V408.5Z" fill="#F2F2F2"/>
<path d="M1043 160.5H1045V166.5H1047V164.5H1049V168.5H1045V176.5H1043V160.5ZM1051 160.5H1053V162.5H1051V160.5ZM1049 162.5H1051V164.5H1049V162.5ZM1051 172.5H1049V168.5H1051V172.5ZM1051 172.5H1053V176.5H1051V172.5ZM1057.01 160.5H1067.01V162.5H1059.01V166.5H1065.01V168.5H1059.01V174.5H1067.01V176.5H1057.01V160.5ZM1071.02 160.5H1079.02V162.5H1073.02V168.5H1079.02V172.5H1077.02V170.5H1073.02V176.5H1071.02V160.5ZM1079.02 162.5H1081.02V168.5H1079.02V162.5ZM1079.02 172.5H1081.02V176.5H1079.02V172.5ZM1085.02 160.5H1087.02V164.5H1089.02V166.5H1087.02V176.5H1085.02V160.5ZM1093.02 170.5H1091.02V168.5H1093.02V160.5H1095.02V176.5H1093.02V170.5ZM1091.02 168.5H1089.02V166.5H1091.02V168.5ZM1103.03 174.5V162.5H1099.03V160.5H1109.03V162.5H1105.03V174.5H1109.03V176.5H1099.03V174.5H1103.03ZM1113.04 160.5H1115.04V164.5H1117.04V166.5H1115.04V176.5H1113.04V160.5ZM1121.04 170.5H1119.04V168.5H1121.04V160.5H1123.04V176.5H1121.04V170.5ZM1119.04 168.5H1117.04V166.5H1119.04V168.5ZM1127.05 162.5H1129.05V174.5H1127.05V162.5ZM1129.05 174.5H1135.05V176.5H1129.05V174.5ZM1135.05 170.5L1133.05 170.5V168.5L1137.05 168.5V174.5H1135.05V170.5ZM1129.05 160.5L1135.05 160.5V162.5L1129.05 162.5V160.5ZM1135.05 162.5H1137.05V164.5H1135.05V162.5ZM1145.05 172.5H1147.05V176.5H1145.05V172.5ZM1143.05 176.5H1145.05V178.5H1143.05V176.5ZM1169.07 160.5H1179.07V162.5H1171.07V166.5H1177.07V168.5H1171.07V174.5H1179.07V176.5H1169.07V160.5ZM1187.08 172.5H1189.08V176.5H1187.08V172.5Z" fill="#F2F2F2"/>
<path d="M1043 242.5H1045V256.5H1053V258.5H1043V242.5ZM1057.01 244.5H1059.01V256.5H1057.01V244.5ZM1059.01 256.5H1065.01V258.5H1059.01V256.5ZM1065.01 244.5H1067.01V256.5H1065.01V244.5ZM1059.01 242.5H1065.01V244.5H1059.01V242.5ZM1071.02 244.5H1073.02V248.5H1071.02V244.5ZM1073.02 248.5H1079.02V250.5H1073.02V248.5ZM1079.02 256.5V258.5H1073.02V256.5H1079.02ZM1073.02 256.5H1071.02V254.5H1073.02V256.5ZM1079.02 250.5H1081.02V256.5H1079.02V250.5ZM1073.02 242.5H1079.02V244.5H1073.02V242.5ZM1079.02 244.5H1081.02V246.5H1079.02V244.5ZM1099.03 246.5H1101.03V250.5H1107.03V246.5H1109.03V258.5H1107.03V252.5H1101.03V258.5H1099.03V246.5ZM1103.03 242.5H1105.03V244.5H1103.03V242.5ZM1101.03 244.5H1103.03V246.5H1101.03V244.5ZM1105.03 244.5H1107.03V246.5H1105.03V244.5ZM1113.04 242.5H1115.04V246.5H1117.04V248.5H1115.04V258.5H1113.04V242.5ZM1121.04 252.5H1119.04V250.5H1121.04V242.5H1123.04V258.5H1121.04V252.5ZM1119.04 250.5H1117.04V248.5H1119.04V250.5ZM1127.05 244.5H1129.05V256.5H1127.05V244.5ZM1129.05 256.5H1135.05V258.5H1129.05V256.5ZM1135.05 252.5L1133.05 252.5V250.5L1137.05 250.5V256.5H1135.05V252.5ZM1129.05 242.5L1135.05 242.5V244.5L1129.05 244.5V242.5ZM1135.05 244.5H1137.05V246.5H1135.05V244.5ZM1141.05 242.5H1151.05V244.5H1143.05V248.5H1149.05V250.5H1143.05V256.5H1151.05V258.5H1141.05V242.5ZM1155.06 242.5H1157.06V256.5H1165.06V258.5H1155.06V242.5ZM1169.07 242.5H1179.07V244.5H1171.07V248.5H1177.07V250.5H1171.07V256.5H1179.07V258.5H1169.07V242.5ZM1183.08 244.5H1185.08V248.5H1183.08V244.5ZM1185.08 248.5H1191.08V250.5H1185.08V248.5ZM1191.08 256.5V258.5H1185.08V256.5H1191.08ZM1185.08 256.5H1183.08V254.5H1185.08V256.5ZM1191.08 250.5H1193.08V256.5H1191.08V250.5ZM1185.08 242.5H1191.08V244.5H1185.08V242.5ZM1191.08 244.5H1193.08V246.5H1191.08V244.5ZM1213.09 244.5H1215.09V256.5H1213.09V244.5ZM1217.09 258.5H1215.09V256.5H1217.09V258.5ZM1217.09 258.5H1219.09V260.5H1217.09V258.5ZM1217.09 240.5H1219.09V242.5H1217.09V240.5ZM1215.09 242.5H1217.09V244.5H1215.09V242.5ZM1225.1 242.5H1227.1V256.5L1235.1 256.5V258.5L1225.1 258.5V242.5ZM1239.11 246.5H1241.11V250.5H1247.11V246.5H1249.11V258.5H1247.11V252.5H1241.11V258.5H1239.11V246.5ZM1243.11 242.5H1245.11V244.5H1243.11V242.5ZM1241.11 244.5H1243.11V246.5H1241.11V244.5ZM1245.11 244.5H1247.11V246.5H1245.11V244.5ZM1261.12 252.5H1263.12V258.5H1261.12V252.5ZM1253.12 252.5H1255.12V258.5H1253.12V252.5ZM1257.12 248.5H1255.12V246.5H1257.12V248.5ZM1257.12 248.5H1259.12V250.5H1257.12V248.5ZM1259.12 246.5H1261.12V248.5H1259.12V246.5ZM1255.12 246.5H1253.12V242.5H1255.12V246.5ZM1255.12 250.5H1257.12V252.5H1255.12V250.5ZM1261.12 242.5H1263.12V246.5H1261.12V242.5ZM1259.12 250.5H1261.12V252.5H1259.12V250.5ZM1273.13 244.5H1275.13V256.5H1273.13V244.5ZM1271.13 256.5H1273.13V258.5H1271.13V256.5ZM1269.13 258.5H1271.13V260.5H1269.13V258.5ZM1269.13 240.5H1271.13V242.5H1269.13V240.5ZM1273.13 244.5H1271.13V242.5H1273.13V244.5Z" fill="#F2F2F2"/>
<path d="M1043 324.5H1045V330.5H1047V328.5H1049V332.5H1045V340.5H1043V324.5ZM1051 324.5H1053V326.5H1051V324.5ZM1049 326.5H1051V328.5H1049V326.5ZM1051 336.5H1049V332.5H1051V336.5ZM1051 336.5H1053V340.5H1051V336.5ZM1057.01 324.5H1059.01V338.5H1057.01V324.5ZM1059.01 338.5H1065.01V340.5H1059.01V338.5ZM1065.01 324.5H1067.01V338.5H1065.01V324.5ZM1075.02 338.5V326.5H1071.02V324.5H1081.02V326.5H1077.02V338.5H1081.02V340.5H1071.02V338.5H1075.02ZM1085.02 324.5H1093.02V326.5H1087.02V332.5H1093.02V334.5H1087.02V340.5H1085.02V324.5ZM1093.02 326.5H1095.02V332.5H1093.02V326.5ZM1099.03 324.5H1109.03V326.5H1101.03V330.5H1107.03V332.5H1101.03V338.5H1109.03V340.5H1099.03V324.5ZM1113.04 324.5H1121.04V326.5H1115.04V332.5H1121.04V336.5H1119.04V334.5H1115.04V340.5H1113.04V324.5ZM1121.04 326.5H1123.04V332.5H1121.04V326.5ZM1121.04 336.5H1123.04V340.5H1121.04V336.5ZM1141.05 328.5H1143.05V332.5H1149.05V328.5H1151.05V340.5H1149.05V334.5H1143.05V340.5H1141.05V328.5ZM1145.05 324.5H1147.05V326.5H1145.05V324.5ZM1143.05 326.5H1145.05V328.5H1143.05V326.5ZM1147.05 326.5H1149.05V328.5H1147.05V326.5ZM1155.06 324.5H1157.06V338.5H1165.06V340.5H1155.06V324.5ZM1169.07 324.5H1177.07V326.5H1171.07V332.5H1177.07V334.5H1171.07V340.5H1169.07V324.5ZM1177.07 326.5H1179.07V332.5H1177.07V326.5ZM1183.08 324.5H1185.08V330.5H1191.08V324.5H1193.08V340.5H1191.08V332.5H1185.08V340.5H1183.08V324.5ZM1197.09 328.5H1199.09V332.5H1205.09V328.5H1207.09V340.5H1205.09V334.5H1199.09V340.5H1197.09V328.5ZM1201.09 324.5H1203.09V326.5H1201.09V324.5ZM1199.09 326.5H1201.09V328.5H1199.09V326.5ZM1203.09 326.5H1205.09V328.5H1203.09V326.5ZM1227.1 326.5H1229.1V338.5L1227.1 338.5V326.5ZM1231.1 340.5H1229.1V338.5H1231.1V340.5ZM1231.1 340.5H1233.1V342.5H1231.1V340.5ZM1231.1 322.5H1233.1V324.5H1231.1V322.5ZM1229.1 324.5H1231.1V326.5H1229.1V324.5ZM1239.11 324.5H1241.11V330.5H1243.11V328.5H1245.11V332.5H1241.11V340.5H1239.11V324.5ZM1247.11 324.5H1249.11V326.5H1247.11V324.5ZM1245.11 326.5H1247.11V328.5H1245.11V326.5ZM1247.11 336.5H1245.11V332.5H1247.11V336.5ZM1247.11 336.5H1249.11V340.5H1247.11V336.5ZM1253.12 324.5H1261.12V326.5H1255.12V330.5H1261.12V332.5H1255.12V338.5H1261.12V340.5H1253.12V324.5ZM1261.12 332.5H1263.12V338.5H1261.12V332.5ZM1261.12 326.5H1263.12V330.5H1261.12V326.5ZM1267.13 328.5H1269.13V332.5H1275.13V328.5H1277.13V340.5H1275.13V334.5H1269.13V340.5H1267.13V328.5ZM1271.13 324.5H1273.13V326.5H1271.13V324.5ZM1269.13 326.5H1271.13V328.5H1269.13V326.5ZM1273.13 326.5H1275.13V328.5H1273.13V326.5ZM1287.13 326.5H1289.13V338.5H1287.13V326.5ZM1285.13 338.5H1287.13V340.5H1285.13V338.5ZM1283.13 340.5H1285.13V342.5H1283.13V340.5ZM1283.13 322.5H1285.13V324.5H1283.13V322.5ZM1287.13 326.5H1285.13V324.5H1287.13V326.5Z" fill="#F2F2F2"/>
<path d="M1042 217.5H1047V218.5H1043V220.5H1046V221.5H1043V225.5H1042V217.5ZM1049 217.5H1053V218.5H1050V221.5H1053V223.5H1052V222.5H1050V225.5H1049V217.5ZM1053 218.5H1054V221.5H1053V218.5ZM1053 223.5H1054V225.5H1053V223.5ZM1056.01 218.5H1057.01V224.5H1056.01V218.5ZM1057.01 224.5H1060.01V225.5H1057.01V224.5ZM1060.01 218.5H1061.01V224.5H1060.01V218.5ZM1057.01 217.5H1060.01V218.5H1057.01V217.5ZM1063.01 217.5H1064.01V219.5H1065.01V220.5H1064.01V225.5H1063.01V217.5ZM1067.01 220.5H1066.01V219.5H1067.01V217.5H1068.01V225.5H1067.01V220.5ZM1065.01 220.5H1066.01V222.5H1065.01V220.5Z" fill="#F2F2F2"/>
<path d="M1042 382.5H1043V388.5H1042V382.5ZM1043 388.5H1046V389.5H1043V388.5ZM1046 386.5H1045V385.5H1047V388.5H1046V386.5ZM1043 381.5H1046V382.5H1043V381.5ZM1046 382.5H1047V383.5H1046V382.5ZM1049 383.5H1050V385.5H1053V383.5H1054V389.5H1053V386.5H1050V389.5H1049V383.5ZM1051 381.5H1052V382.5H1051V381.5ZM1050 382.5H1051V383.5H1050V382.5ZM1052 382.5H1053V383.5H1052V382.5ZM1056.01 381.5H1061.01V382.5H1059.01V389.5H1058.01V382.5H1056.01V381.5ZM1063.01 381.5H1068.01V382.5H1064.01V384.5H1067.01V385.5H1064.01V388.5H1068.01V389.5H1063.01V381.5Z" fill="#F2F2F2"/>
<path d="M1129 381.5H1133V382.5H1130V384.5H1133V385.5H1130V388.5H1133V389.5H1129V381.5ZM1133 385.5H1134V388.5H1133V385.5ZM1133 382.5H1134V384.5H1133V382.5ZM1136 382.5H1137V388.5H1136V382.5ZM1137 388.5H1140V389.5H1137V388.5ZM1140 382.5H1141V388.5H1140V382.5ZM1137 381.5H1140V382.5H1137V381.5ZM1143.01 383.5H1144.01V385.5H1147.01V383.5H1148.01V389.5H1147.01V386.5H1144.01V389.5H1143.01V383.5ZM1145.01 381.5H1146.01V382.5H1145.01V381.5ZM1144.01 382.5H1145.01V383.5H1144.01V382.5ZM1146.01 382.5H1147.01V383.5H1146.01V382.5ZM1150.01 381.5H1154.01V382.5H1151.01V385.5H1154.01V387.5H1153.01V386.5H1151.01V389.5H1150.01V381.5ZM1154.01 382.5H1155.01V385.5H1154.01V382.5ZM1154.01 387.5H1155.01V389.5H1154.01V387.5ZM1157.02 381.5H1161.02V382.5H1158.02V388.5H1161.02V389.5H1157.02V381.5ZM1161.02 382.5H1162.02V388.5H1161.02V382.5ZM1166.02 388.5V382.5H1164.02V381.5H1169.02V382.5H1167.02V388.5H1169.02V389.5H1164.02V388.5H1166.02ZM1171.02 381.5H1172.02V383.5H1173.02V384.5H1172.02V389.5H1171.02V381.5ZM1175.02 386.5H1174.02V385.5H1175.02V381.5H1176.02V389.5H1175.02V386.5ZM1174.02 385.5H1173.02V384.5H1174.02V385.5ZM1178.03 382.5H1179.03V388.5H1178.03V382.5ZM1179.03 388.5H1182.03V389.5H1179.03V388.5ZM1182.03 386.5H1181.03V385.5H1183.03V388.5H1182.03V386.5ZM1179.03 381.5H1182.03V382.5H1179.03V381.5ZM1182.03 382.5H1183.03V383.5H1182.03V382.5Z" fill="#F2F2F2"/>
<path d="M1244 382.5H1245V384.5H1244V382.5ZM1245 384.5H1248V385.5H1245V384.5ZM1248 388.5V389.5H1245V388.5H1248ZM1245 388.5H1244V387.5H1245V388.5ZM1248 385.5H1249V388.5H1248V385.5ZM1245 381.5H1248V382.5H1245V381.5ZM1248 382.5H1249V383.5H1248V382.5ZM1251 381.5H1256V382.5H1252V384.5H1255V385.5H1252V388.5H1256V389.5H1251V381.5ZM1258.01 383.5H1259.01V385.5H1262.01V383.5H1263.01V389.5H1262.01V386.5H1259.01V389.5H1258.01V383.5ZM1260.01 381.5H1261.01V382.5H1260.01V381.5ZM1259.01 382.5H1260.01V383.5H1259.01V382.5ZM1261.01 382.5H1262.01V383.5H1261.01V382.5ZM1265.01 381.5H1270.01V382.5H1268.01V389.5H1267.01V382.5H1265.01V381.5Z" fill="#F2F2F2"/>
<path d="M1042 135.5H1046V136.5H1043V139.5H1046V140.5H1043V143.5H1042V135.5ZM1046 136.5H1047V139.5H1046V136.5ZM1049 137.5H1050V139.5H1053V137.5H1054V143.5H1053V140.5H1050V143.5H1049V137.5ZM1051 135.5H1052V136.5H1051V135.5ZM1050 136.5H1051V137.5H1050V136.5ZM1052 136.5H1053V137.5H1052V136.5ZM1056.01 136.5H1057.01V138.5H1056.01V136.5ZM1057.01 138.5H1060.01V139.5H1057.01V138.5ZM1060.01 142.5V143.5H1057.01V142.5H1060.01ZM1057.01 142.5H1056.01V141.5H1057.01V142.5ZM1060.01 139.5H1061.01V142.5H1060.01V139.5ZM1057.01 135.5H1060.01V136.5H1057.01V135.5ZM1060.01 136.5H1061.01V137.5H1060.01V136.5ZM1063.01 136.5H1064.01V138.5H1063.01V136.5ZM1064.01 138.5H1067.01V139.5H1064.01V138.5ZM1067.01 142.5V143.5H1064.01V142.5H1067.01ZM1064.01 142.5H1063.01V141.5H1064.01V142.5ZM1067.01 139.5H1068.01V142.5H1067.01V139.5ZM1064.01 135.5H1067.01V136.5H1064.01V135.5ZM1067.01 136.5H1068.01V137.5H1067.01V136.5ZM1070.02 135.5H1075.02V136.5H1071.02V138.5H1074.02V139.5H1071.02V142.5H1075.02V143.5H1070.02V135.5ZM1077.02 135.5H1078.02V137.5H1079.02V138.5H1078.02V143.5H1077.02V135.5ZM1081.02 140.5H1080.02V139.5H1081.02V135.5H1082.02V143.5H1081.02V140.5ZM1080.02 139.5H1079.02V138.5H1080.02V139.5ZM1084.02 136.5H1085.02V142.5H1084.02V136.5ZM1085.02 142.5H1088.02V143.5H1085.02V142.5ZM1088.02 140.5H1087.02V139.5H1089.02V142.5H1088.02V140.5ZM1085.02 135.5H1088.02V136.5H1085.02V135.5ZM1088.02 136.5H1089.02V137.5H1088.02V136.5ZM1091.03 135.5H1096.03V136.5H1092.03V138.5H1095.03V139.5H1092.03V142.5H1096.03V143.5H1091.03V135.5ZM1098.03 135.5H1102.03V136.5H1099.03V139.5H1102.03V141.5H1101.03V140.5H1099.03V143.5H1098.03V135.5ZM1102.03 136.5H1103.03V139.5H1102.03V136.5ZM1102.03 141.5H1103.03V143.5H1102.03V141.5Z" fill="#F2F2F2"/>
<path d="M1042 299.5H1047V300.5H1045V307.5H1044V300.5H1042V299.5ZM1049 300.5H1050V306.5H1049V300.5ZM1050 306.5H1053V307.5H1050V306.5ZM1053 300.5H1054V306.5H1053V300.5ZM1050 299.5H1053V300.5H1050V299.5Z" fill="#F2F2F2"/>
<path d="M581 195.5H586V196.5H584V203.5H583V196.5H581V195.5ZM588.004 196.5H589.004V202.5H588.004V196.5ZM589.004 202.5H592.004V203.5H589.004V202.5ZM592.004 196.5H593.004V202.5H592.004V196.5ZM589.004 195.5H592.004V196.5H589.004V195.5Z" fill="#F2F2F2"/>
</svg>
