<svg width="1352" height="466" viewBox="0 0 1352 466" fill="none" xmlns="http://www.w3.org/2000/svg">
<path fill-rule="evenodd" clip-rule="evenodd" d="M80 0.25L0 0.25L0 465.25H80V461.75H83V465.25L994 465.25V461.75H997V465.25L1352 465.25V0.25L997 0.25V10.75H994V0.25L83 0.25V10.75L80 10.75V0.25ZM994 21.75H997V32.75L994 32.75V21.75ZM997 43.75L994 43.75V54.75L997 54.75V43.75ZM994 65.75H997V76.75H994V65.75ZM997 87.75H994V98.75H997V87.75ZM994 109.75H997V120.75H994V109.75ZM997 131.75H994V142.75H997V131.75ZM994 153.75H997V164.75H994V153.75ZM997 175.75H994V186.75H997V175.75ZM994 197.75H997V208.75H994V197.75ZM997 219.75H994V230.75H997V219.75ZM994 241.75H997V252.75H994V241.75ZM997 263.75H994V274.75H997V263.75ZM994 285.75H997V296.75H994V285.75ZM997 307.75H994V318.75H997V307.75ZM994 329.75H997V340.75H994V329.75ZM997 351.75H994L994 362.75H997L997 351.75ZM994 373.75H997V384.75H994V373.75ZM997 395.75H994V406.75H997V395.75ZM994 417.75H997V428.75H994V417.75ZM997 439.75H994V450.75H997V439.75ZM80 21.75H83V32.75H80V21.75ZM83 43.75H80L80 54.75H83L83 43.75ZM80 65.75H83V76.75H80V65.75ZM83 87.75H80V98.75H83V87.75ZM80 109.75H83V120.75H80V109.75ZM83 131.75H80L80 142.75H83L83 131.75ZM80 153.75H83V164.75H80V153.75ZM83 175.75H80V186.75H83V175.75ZM80 197.75H83V208.75H80V197.75ZM83 219.75H80L80 230.75H83L83 219.75ZM80 241.75H83V252.75H80V241.75ZM83 263.75H80V274.75H83V263.75ZM80 285.75H83V296.75H80V285.75ZM83 307.75H80L80 318.75H83L83 307.75ZM80 329.75H83V340.75H80V329.75ZM83 351.75H80V362.75H83V351.75ZM80 373.75H83V384.75H80V373.75ZM83 395.75H80L80 406.75H83L83 395.75ZM80 417.75H83V428.75H80V417.75ZM83 439.75H80V450.75H83V439.75Z" fill="#444444"/>
<path d="M1251 407.75H1255V423.75H1253V419.75H1245V413.75H1247V417.75H1253V409.75H1251V407.75ZM1249 409.75H1251V411.75H1249V409.75ZM1247 411.75H1249V413.75H1247V411.75ZM1259.01 409.75H1261.01V421.75H1259.01V409.75ZM1261.01 421.75H1267.01V423.75H1261.01V421.75ZM1267.01 419.75H1269.01V421.75H1267.01V419.75ZM1261.01 407.75H1267.01V409.75H1261.01V407.75ZM1267.01 409.75H1269.01V411.75H1267.01V409.75Z" fill="#EEEEEE"/>
<path d="M1244 383.75H1245V385.75H1244V383.75ZM1245 385.75H1248V386.75H1245V385.75ZM1248 389.75V390.75H1245V389.75H1248ZM1245 389.75H1244V388.75H1245V389.75ZM1248 386.75H1249V389.75H1248V386.75ZM1245 382.75H1248V383.75H1245V382.75ZM1248 383.75H1249V384.75H1248V383.75ZM1251 382.75H1256V383.75H1252V385.75H1255V386.75H1252V389.75H1256V390.75H1251V382.75ZM1258.01 384.75H1259.01V386.75H1262.01V384.75H1263.01V390.75H1262.01V387.75H1259.01V390.75H1258.01V384.75ZM1260.01 382.75H1261.01V383.75H1260.01V382.75ZM1259.01 383.75H1260.01V384.75H1259.01V383.75ZM1261.01 383.75H1262.01V384.75H1261.01V383.75ZM1265.01 382.75H1270.01V383.75H1268.01V390.75H1267.01V383.75H1265.01V382.75Z" fill="#EEEEEE"/>
<path d="M1134 411.75H1130V409.75H1134V407.75H1136V421.75H1140V423.75H1130V421.75H1134V411.75ZM1148.01 411.75H1144.01V409.75H1148.01V407.75H1150.01V421.75H1154.01V423.75H1144.01V421.75H1148.01V411.75ZM1162.02 419.75H1164.02V423.75H1162.02V419.75ZM1162.02 411.75H1164.02V415.75H1162.02V411.75ZM1172.02 409.75H1174.02V415.75H1176.02V417.75H1174.02V421.75H1172.02V409.75ZM1174.02 421.75H1180.02V423.75H1174.02V421.75ZM1174.02 407.75H1180.02V409.75H1174.02V407.75ZM1180.02 409.75H1182.02V421.75H1180.02V413.75H1178.02V411.75H1180.02V409.75ZM1176.02 413.75H1178.02V415.75H1176.02V413.75ZM1190.03 411.75H1186.03V409.75H1190.03V407.75H1192.03V421.75H1196.03V423.75H1186.03V421.75H1190.03V411.75Z" fill="#EEEEEE"/>
<path d="M1129 382.75H1133V383.75H1130V385.75H1133V386.75H1130V389.75H1133V390.75H1129V382.75ZM1133 386.75H1134V389.75H1133V386.75ZM1133 383.75H1134V385.75H1133V383.75ZM1136 383.75H1137V389.75H1136V383.75ZM1137 389.75H1140V390.75H1137V389.75ZM1140 383.75H1141V389.75H1140V383.75ZM1137 382.75H1140V383.75H1137V382.75ZM1143.01 384.75H1144.01V386.75H1147.01V384.75H1148.01V390.75H1147.01V387.75H1144.01V390.75H1143.01V384.75ZM1145.01 382.75H1146.01V383.75H1145.01V382.75ZM1144.01 383.75H1145.01V384.75H1144.01V383.75ZM1146.01 383.75H1147.01V384.75H1146.01V383.75ZM1150.01 382.75H1154.01V383.75H1151.01V386.75H1154.01V388.75H1153.01V387.75H1151.01V390.75H1150.01V382.75ZM1154.01 383.75H1155.01V386.75H1154.01V383.75ZM1154.01 388.75H1155.01V390.75H1154.01V388.75ZM1157.02 382.75H1161.02V383.75H1158.02V389.75H1161.02V390.75H1157.02V382.75ZM1161.02 383.75H1162.02V389.75H1161.02V383.75ZM1166.02 389.75V383.75H1164.02V382.75H1169.02V383.75H1167.02V389.75H1169.02V390.75H1164.02V389.75H1166.02ZM1171.02 382.75H1172.02V384.75H1173.02V385.75H1172.02V390.75H1171.02V382.75ZM1175.02 387.75H1174.02V386.75H1175.02V382.75H1176.02V390.75H1175.02V387.75ZM1174.02 386.75H1173.02V385.75H1174.02V386.75ZM1178.03 383.75H1179.03V389.75H1178.03V383.75ZM1179.03 389.75H1182.03V390.75H1179.03V389.75ZM1182.03 387.75H1181.03V386.75H1183.03V389.75H1182.03V387.75ZM1179.03 382.75H1182.03V383.75H1179.03V382.75ZM1182.03 383.75H1183.03V384.75H1182.03V383.75Z" fill="#EEEEEE"/>
<path d="M1051 421.75V423.75H1045V421.75H1051ZM1045 421.75H1043V419.75H1045V421.75ZM1051 415.75V409.75H1053V421.75H1051V417.75H1045V415.75H1051ZM1045 415.75H1043V409.75H1045V415.75ZM1045 407.75H1051V409.75H1045V407.75ZM1059.01 417.75H1061.01V423.75H1059.01V417.75ZM1061.01 415.75H1063.01V417.75H1061.01V415.75ZM1063.01 413.75H1065.01V415.75H1063.01V413.75ZM1065.01 409.75H1057.01V407.75H1067.01V413.75H1065.01V409.75ZM1071.02 411.75H1073.02V415.75H1079.02V411.75H1081.02V423.75H1079.02V417.75H1073.02V423.75H1071.02V411.75ZM1075.02 407.75H1077.02V409.75H1075.02V407.75ZM1073.02 409.75H1075.02V411.75H1073.02V409.75ZM1077.02 409.75H1079.02V411.75H1077.02V409.75Z" fill="#EEEEEE"/>
<path d="M1042 383.75H1043V389.75H1042V383.75ZM1043 389.75H1046V390.75H1043V389.75ZM1046 387.75H1045V386.75H1047V389.75H1046V387.75ZM1043 382.75H1046V383.75H1043V382.75ZM1046 383.75H1047V384.75H1046V383.75ZM1049 384.75H1050V386.75H1053V384.75H1054V390.75H1053V387.75H1050V390.75H1049V384.75ZM1051 382.75H1052V383.75H1051V382.75ZM1050 383.75H1051V384.75H1050V383.75ZM1052 383.75H1053V384.75H1052V383.75ZM1056.01 382.75H1061.01V383.75H1059.01V390.75H1058.01V383.75H1056.01V382.75ZM1063.01 382.75H1068.01V383.75H1064.01V385.75H1067.01V386.75H1064.01V389.75H1068.01V390.75H1063.01V382.75Z" fill="#EEEEEE"/>
<path d="M1043 325.75H1045V331.75H1047V329.75H1049V333.75H1045V341.75H1043V325.75ZM1051 325.75H1053V327.75H1051V325.75ZM1049 327.75H1051V329.75H1049V327.75ZM1051 337.75H1049V333.75H1051V337.75ZM1051 337.75H1053V341.75H1051V337.75ZM1057.01 325.75H1059.01V339.75H1057.01V325.75ZM1059.01 339.75H1065.01V341.75H1059.01V339.75ZM1065.01 325.75H1067.01V339.75H1065.01V325.75ZM1075.02 339.75V327.75H1071.02V325.75H1081.02V327.75H1077.02V339.75H1081.02V341.75H1071.02V339.75H1075.02ZM1085.02 325.75H1093.02V327.75H1087.02V333.75H1093.02V335.75H1087.02V341.75H1085.02V325.75ZM1093.02 327.75H1095.02V333.75H1093.02V327.75ZM1099.03 325.75H1109.03V327.75H1101.03V331.75H1107.03V333.75H1101.03V339.75H1109.03V341.75H1099.03V325.75ZM1113.04 325.75H1121.04V327.75H1115.04V333.75H1121.04V337.75H1119.04V335.75H1115.04V341.75H1113.04V325.75ZM1121.04 327.75H1123.04V333.75H1121.04V327.75ZM1121.04 337.75H1123.04V341.75H1121.04V337.75ZM1141.05 329.75H1143.05V333.75H1149.05V329.75H1151.05V341.75H1149.05V335.75H1143.05V341.75H1141.05V329.75ZM1145.05 325.75H1147.05V327.75H1145.05V325.75ZM1143.05 327.75H1145.05V329.75H1143.05V327.75ZM1147.05 327.75H1149.05V329.75H1147.05V327.75ZM1155.06 325.75H1157.06V339.75H1165.06V341.75H1155.06V325.75ZM1169.07 325.75H1177.07V327.75H1171.07V333.75H1177.07V335.75H1171.07V341.75H1169.07V325.75ZM1177.07 327.75H1179.07V333.75H1177.07V327.75ZM1183.08 325.75H1185.08V331.75H1191.08V325.75H1193.08V341.75H1191.08V333.75H1185.08V341.75H1183.08V325.75ZM1197.09 329.75H1199.09V333.75H1205.09V329.75H1207.09V341.75H1205.09V335.75H1199.09V341.75H1197.09V329.75ZM1201.09 325.75H1203.09V327.75H1201.09V325.75ZM1199.09 327.75H1201.09V329.75H1199.09V327.75ZM1203.09 327.75H1205.09V329.75H1203.09V327.75ZM1227.1 327.75H1229.1V339.75L1227.1 339.75V327.75ZM1231.1 341.75H1229.1V339.75H1231.1V341.75ZM1231.1 341.75H1233.1V343.75H1231.1V341.75ZM1231.1 323.75H1233.1V325.75H1231.1V323.75ZM1229.1 325.75H1231.1V327.75H1229.1V325.75ZM1239.11 325.75H1241.11V331.75H1243.11V329.75H1245.11V333.75H1241.11V341.75H1239.11V325.75ZM1247.11 325.75H1249.11V327.75H1247.11V325.75ZM1245.11 327.75H1247.11V329.75H1245.11V327.75ZM1247.11 337.75H1245.11V333.75H1247.11V337.75ZM1247.11 337.75H1249.11V341.75H1247.11V337.75ZM1253.12 325.75H1261.12V327.75H1255.12V331.75H1261.12V333.75H1255.12V339.75H1261.12V341.75H1253.12V325.75ZM1261.12 333.75H1263.12V339.75H1261.12V333.75ZM1261.12 327.75H1263.12V331.75H1261.12V327.75ZM1267.13 329.75H1269.13V333.75H1275.13V329.75H1277.13V341.75H1275.13V335.75H1269.13V341.75H1267.13V329.75ZM1271.13 325.75H1273.13V327.75H1271.13V325.75ZM1269.13 327.75H1271.13V329.75H1269.13V327.75ZM1273.13 327.75H1275.13V329.75H1273.13V327.75ZM1287.13 327.75H1289.13V339.75H1287.13V327.75ZM1285.13 339.75H1287.13V341.75H1285.13V339.75ZM1283.13 341.75H1285.13V343.75H1283.13V341.75ZM1283.13 323.75H1285.13V325.75H1283.13V323.75ZM1287.13 327.75H1285.13V325.75H1287.13V327.75Z" fill="#EEEEEE"/>
<path d="M1042 300.75H1046V301.75H1043V307.75H1046V308.75H1042V300.75ZM1046 301.75H1047V307.75H1046V301.75ZM1049 300.75H1054V301.75H1050V303.75H1053V304.75H1050V307.75H1054V308.75H1049V300.75ZM1056.01 301.75H1057.01V303.75H1056.01V301.75ZM1057.01 303.75H1060.01V304.75H1057.01V303.75ZM1060.01 307.75V308.75H1057.01V307.75H1060.01ZM1057.01 307.75H1056.01V306.75H1057.01V307.75ZM1060.01 304.75H1061.01V307.75H1060.01V304.75ZM1057.01 300.75H1060.01V301.75H1057.01V300.75ZM1060.01 301.75H1061.01V302.75H1060.01V301.75ZM1063.01 300.75H1068.01V301.75H1066.01V308.75H1065.01V301.75H1063.01V300.75ZM1072.02 307.75V301.75H1070.02V300.75H1075.02V301.75H1073.02V307.75H1075.02V308.75H1070.02V307.75H1072.02ZM1077.02 300.75H1078.02V302.75H1079.02V303.75H1078.02V308.75H1077.02V300.75ZM1081.02 305.75H1080.02V304.75H1081.02V300.75H1082.02V308.75H1081.02V305.75ZM1080.02 304.75H1079.02V303.75H1080.02V304.75ZM1084.02 302.75H1085.02V304.75H1088.02V302.75H1089.02V308.75H1088.02V305.75H1085.02V308.75H1084.02V302.75ZM1086.02 300.75H1087.02V301.75H1086.02V300.75ZM1085.02 301.75H1086.02V302.75H1085.02V301.75ZM1087.02 301.75H1088.02V302.75H1087.02V301.75ZM1091.03 300.75H1096.03V301.75H1094.03V308.75H1093.03V301.75H1091.03V300.75ZM1100.03 307.75V301.75H1098.03V300.75H1103.03V301.75H1101.03V307.75H1103.03V308.75H1098.03V307.75H1100.03ZM1105.04 301.75H1106.04V307.75H1105.04V301.75ZM1106.04 307.75H1109.04V308.75H1106.04V307.75ZM1109.04 301.75H1110.04V307.75H1109.04V301.75ZM1106.04 300.75H1109.04V301.75H1106.04V300.75ZM1112.04 300.75H1113.04V302.75H1114.04V303.75H1113.04V308.75H1112.04V300.75ZM1116.04 305.75H1115.04V304.75H1116.04V300.75H1117.04V308.75H1116.04V305.75ZM1115.04 304.75H1114.04V303.75H1115.04V304.75Z" fill="#EEEEEE"/>
<path d="M1043 243.75H1045V257.75H1053V259.75H1043V243.75ZM1057.01 245.75H1059.01V257.75H1057.01V245.75ZM1059.01 257.75H1065.01V259.75H1059.01V257.75ZM1065.01 245.75H1067.01V257.75H1065.01V245.75ZM1059.01 243.75H1065.01V245.75H1059.01V243.75ZM1071.02 245.75H1073.02V249.75H1071.02V245.75ZM1073.02 249.75H1079.02V251.75H1073.02V249.75ZM1079.02 257.75V259.75H1073.02V257.75H1079.02ZM1073.02 257.75H1071.02V255.75H1073.02V257.75ZM1079.02 251.75H1081.02V257.75H1079.02V251.75ZM1073.02 243.75H1079.02V245.75H1073.02V243.75ZM1079.02 245.75H1081.02V247.75H1079.02V245.75ZM1099.03 247.75H1101.03V251.75H1107.03V247.75H1109.03V259.75H1107.03V253.75H1101.03V259.75H1099.03V247.75ZM1103.03 243.75H1105.03V245.75H1103.03V243.75ZM1101.03 245.75H1103.03V247.75H1101.03V245.75ZM1105.03 245.75H1107.03V247.75H1105.03V245.75ZM1113.04 243.75H1115.04V247.75H1117.04V249.75H1115.04V259.75H1113.04V243.75ZM1121.04 253.75H1119.04V251.75H1121.04V243.75H1123.04V259.75H1121.04V253.75ZM1119.04 251.75H1117.04V249.75H1119.04V251.75ZM1127.05 245.75H1129.05V257.75H1127.05V245.75ZM1129.05 257.75H1135.05V259.75H1129.05V257.75ZM1135.05 253.75L1133.05 253.75V251.75L1137.05 251.75V257.75H1135.05V253.75ZM1129.05 243.75L1135.05 243.75V245.75L1129.05 245.75V243.75ZM1135.05 245.75H1137.05V247.75H1135.05V245.75ZM1141.05 243.75H1151.05V245.75H1143.05V249.75H1149.05V251.75H1143.05V257.75H1151.05V259.75H1141.05V243.75ZM1155.06 243.75H1157.06V257.75H1165.06V259.75H1155.06V243.75ZM1169.07 243.75H1179.07V245.75H1171.07V249.75H1177.07V251.75H1171.07V257.75H1179.07V259.75H1169.07V243.75ZM1183.08 245.75H1185.08V249.75H1183.08V245.75ZM1185.08 249.75H1191.08V251.75H1185.08V249.75ZM1191.08 257.75V259.75H1185.08V257.75H1191.08ZM1185.08 257.75H1183.08V255.75H1185.08V257.75ZM1191.08 251.75H1193.08V257.75H1191.08V251.75ZM1185.08 243.75H1191.08V245.75H1185.08V243.75ZM1191.08 245.75H1193.08V247.75H1191.08V245.75ZM1213.09 245.75H1215.09V257.75H1213.09V245.75ZM1217.09 259.75H1215.09V257.75H1217.09V259.75ZM1217.09 259.75H1219.09V261.75H1217.09V259.75ZM1217.09 241.75H1219.09V243.75H1217.09V241.75ZM1215.09 243.75H1217.09V245.75H1215.09V243.75ZM1225.1 243.75H1227.1V257.75L1235.1 257.75V259.75L1225.1 259.75V243.75ZM1239.11 247.75H1241.11V251.75H1247.11V247.75H1249.11V259.75H1247.11V253.75H1241.11V259.75H1239.11V247.75ZM1243.11 243.75H1245.11V245.75H1243.11V243.75ZM1241.11 245.75H1243.11V247.75H1241.11V245.75ZM1245.11 245.75H1247.11V247.75H1245.11V245.75ZM1261.12 253.75H1263.12V259.75H1261.12V253.75ZM1253.12 253.75H1255.12V259.75H1253.12V253.75ZM1257.12 249.75H1255.12V247.75H1257.12V249.75ZM1257.12 249.75H1259.12V251.75H1257.12V249.75ZM1259.12 247.75H1261.12V249.75H1259.12V247.75ZM1255.12 247.75H1253.12V243.75H1255.12V247.75ZM1255.12 251.75H1257.12V253.75H1255.12V251.75ZM1261.12 243.75H1263.12V247.75H1261.12V243.75ZM1259.12 251.75H1261.12V253.75H1259.12V251.75ZM1273.13 245.75H1275.13V257.75H1273.13V245.75ZM1271.13 257.75H1273.13V259.75H1271.13V257.75ZM1269.13 259.75H1271.13V261.75H1269.13V259.75ZM1269.13 241.75H1271.13V243.75H1269.13V241.75ZM1273.13 245.75H1271.13V243.75H1273.13V245.75Z" fill="#EEEEEE"/>
<path d="M1042 219.75H1043V225.75H1042V219.75ZM1043 225.75H1046V226.75H1043V225.75ZM1046 219.75H1047V225.75H1046V219.75ZM1043 218.75H1046V219.75H1043V218.75ZM1049 218.75H1053V219.75H1050V222.75H1053V224.75H1052V223.75H1050V226.75H1049V218.75ZM1053 219.75H1054V222.75H1053V219.75ZM1053 224.75H1054V226.75H1053V224.75ZM1058.01 225.75V219.75H1056.01V218.75H1061.01V219.75H1059.01V225.75H1061.01V226.75H1056.01V225.75H1058.01ZM1063.01 219.75H1064.01V225.75H1063.01V219.75ZM1064.01 225.75H1067.01V226.75H1064.01V225.75ZM1067.01 223.75H1066.01V222.75H1068.01V225.75H1067.01V223.75ZM1064.01 218.75H1067.01V219.75H1064.01V218.75ZM1067.01 219.75H1068.01V220.75H1067.01V219.75ZM1072.02 225.75V219.75H1070.02V218.75H1075.02V219.75H1073.02V225.75H1075.02V226.75H1070.02V225.75H1072.02ZM1077.02 218.75H1078.02V220.75H1079.02V221.75H1078.02V226.75H1077.02V218.75ZM1081.02 223.75H1080.02V222.75H1081.02V218.75H1082.02V226.75H1081.02V223.75ZM1080.02 222.75H1079.02V221.75H1080.02V222.75Z" fill="#EEEEEE"/>
<path d="M1043 161.75H1045V167.75H1047V165.75H1049V169.75H1045V177.75H1043V161.75ZM1051 161.75H1053V163.75H1051V161.75ZM1049 163.75H1051V165.75H1049V163.75ZM1051 173.75H1049V169.75H1051V173.75ZM1051 173.75H1053V177.75H1051V173.75ZM1057.01 161.75H1067.01V163.75H1059.01V167.75H1065.01V169.75H1059.01V175.75H1067.01V177.75H1057.01V161.75ZM1071.02 161.75H1079.02V163.75H1073.02V169.75H1079.02V173.75H1077.02V171.75H1073.02V177.75H1071.02V161.75ZM1079.02 163.75H1081.02V169.75H1079.02V163.75ZM1079.02 173.75H1081.02V177.75H1079.02V173.75ZM1085.02 161.75H1087.02V165.75H1089.02V167.75H1087.02V177.75H1085.02V161.75ZM1093.02 171.75H1091.02V169.75H1093.02V161.75H1095.02V177.75H1093.02V171.75ZM1091.02 169.75H1089.02V167.75H1091.02V169.75ZM1103.03 175.75V163.75H1099.03V161.75H1109.03V163.75H1105.03V175.75H1109.03V177.75H1099.03V175.75H1103.03ZM1113.04 161.75H1115.04V165.75H1117.04V167.75H1115.04V177.75H1113.04V161.75ZM1121.04 171.75H1119.04V169.75H1121.04V161.75H1123.04V177.75H1121.04V171.75ZM1119.04 169.75H1117.04V167.75H1119.04V169.75ZM1127.05 163.75H1129.05V175.75H1127.05V163.75ZM1129.05 175.75H1135.05V177.75H1129.05V175.75ZM1135.05 171.75L1133.05 171.75V169.75L1137.05 169.75V175.75H1135.05V171.75ZM1129.05 161.75L1135.05 161.75V163.75L1129.05 163.75V161.75ZM1135.05 163.75H1137.05V165.75H1135.05V163.75ZM1145.05 173.75H1147.05V177.75H1145.05V173.75ZM1143.05 177.75H1145.05V179.75H1143.05V177.75ZM1169.07 161.75H1179.07V163.75H1171.07V167.75H1177.07V169.75H1171.07V175.75H1179.07V177.75H1169.07V161.75ZM1187.08 173.75H1189.08V177.75H1187.08V173.75Z" fill="#EEEEEE"/>
<path d="M1042 136.75H1046V137.75H1043V140.75H1046V141.75H1043V144.75H1042V136.75ZM1046 137.75H1047V140.75H1046V137.75ZM1049 138.75H1050V140.75H1053V138.75H1054V144.75H1053V141.75H1050V144.75H1049V138.75ZM1051 136.75H1052V137.75H1051V136.75ZM1050 137.75H1051V138.75H1050V137.75ZM1052 137.75H1053V138.75H1052V137.75ZM1056.01 137.75H1057.01V139.75H1056.01V137.75ZM1057.01 139.75H1060.01V140.75H1057.01V139.75ZM1060.01 143.75V144.75H1057.01V143.75H1060.01ZM1057.01 143.75H1056.01V142.75H1057.01V143.75ZM1060.01 140.75H1061.01V143.75H1060.01V140.75ZM1057.01 136.75H1060.01V137.75H1057.01V136.75ZM1060.01 137.75H1061.01V138.75H1060.01V137.75ZM1063.01 137.75H1064.01V139.75H1063.01V137.75ZM1064.01 139.75H1067.01V140.75H1064.01V139.75ZM1067.01 143.75V144.75H1064.01V143.75H1067.01ZM1064.01 143.75H1063.01V142.75H1064.01V143.75ZM1067.01 140.75H1068.01V143.75H1067.01V140.75ZM1064.01 136.75H1067.01V137.75H1064.01V136.75ZM1067.01 137.75H1068.01V138.75H1067.01V137.75ZM1070.02 136.75H1075.02V137.75H1071.02V139.75H1074.02V140.75H1071.02V143.75H1075.02V144.75H1070.02V136.75ZM1077.02 136.75H1078.02V138.75H1079.02V139.75H1078.02V144.75H1077.02V136.75ZM1081.02 141.75H1080.02V140.75H1081.02V136.75H1082.02V144.75H1081.02V141.75ZM1080.02 140.75H1079.02V139.75H1080.02V140.75ZM1084.02 137.75H1085.02V143.75H1084.02V137.75ZM1085.02 143.75H1088.02V144.75H1085.02V143.75ZM1088.02 141.75H1087.02V140.75H1089.02V143.75H1088.02V141.75ZM1085.02 136.75H1088.02V137.75H1085.02V136.75ZM1088.02 137.75H1089.02V138.75H1088.02V137.75ZM1091.03 136.75H1096.03V137.75H1092.03V139.75H1095.03V140.75H1092.03V143.75H1096.03V144.75H1091.03V136.75ZM1098.03 136.75H1102.03V137.75H1099.03V140.75H1102.03V142.75H1101.03V141.75H1099.03V144.75H1098.03V136.75ZM1102.03 137.75H1103.03V140.75H1102.03V137.75ZM1102.03 142.75H1103.03V144.75H1102.03V142.75Z" fill="#EEEEEE"/>
<path d="M1043 45.75H1045V51.75H1047V49.75H1049V53.75H1045V61.75H1043V45.75ZM1051 45.75H1053V47.75H1051V45.75ZM1049 47.75H1051V49.75H1049V47.75ZM1051 57.75H1049V53.75H1051V57.75ZM1051 57.75H1053V61.75H1051V57.75ZM1057.01 49.75H1059.01V53.75H1065.01V49.75H1067.01V61.75H1065.01V55.75H1059.01V61.75H1057.01V49.75ZM1061.01 45.75H1063.01V47.75H1061.01V45.75ZM1059.01 47.75H1061.01V49.75H1059.01V47.75ZM1063.01 47.75H1065.01V49.75H1063.01V47.75ZM1063.01 39.75L1065.01 39.75V41.75L1063.01 41.75V39.75ZM1061.01 41.75H1063.01V43.75H1061.01V41.75ZM1071.02 45.75H1079.02V47.75H1073.02V53.75H1079.02V57.75H1077.02V55.75H1073.02V61.75H1071.02V45.75ZM1079.02 47.75H1081.02V53.75H1079.02V47.75ZM1079.02 57.75H1081.02V61.75H1079.02V57.75ZM1085.02 45.75H1087.02V49.75H1089.02V51.75H1087.02V61.75H1085.02V45.75ZM1093.02 51.75H1091.02V49.75H1093.02V45.75H1095.02V61.75H1093.02V51.75ZM1089.02 51.75H1091.02V55.75H1089.02V51.75ZM1099.03 49.75H1101.03V53.75L1107.03 53.75V49.75H1109.03V61.75H1107.03V55.75L1101.03 55.75V61.75H1099.03V49.75ZM1103.03 45.75L1105.03 45.75V47.75H1103.03V45.75ZM1101.03 47.75L1103.03 47.75V49.75L1101.03 49.75V47.75ZM1105.03 47.75H1107.03V49.75H1105.03V47.75ZM1105.03 39.75H1107.03V41.75L1105.03 41.75V39.75ZM1103.03 41.75H1105.03V43.75L1103.03 43.75V41.75ZM1113.04 45.75H1115.04V49.75H1117.04V51.75H1115.04V61.75H1113.04V45.75ZM1121.04 55.75H1119.04V53.75H1121.04V45.75H1123.04V61.75H1121.04V55.75ZM1119.04 53.75H1117.04V51.75H1119.04V53.75ZM1141.05 47.75H1143.05V51.75H1141.05V47.75ZM1143.05 51.75H1149.05V53.75H1143.05V51.75ZM1149.05 59.75V61.75H1143.05V59.75H1149.05ZM1143.05 59.75H1141.05V57.75H1143.05V59.75ZM1149.05 53.75H1151.05V59.75H1149.05V53.75ZM1143.05 45.75H1149.05V47.75H1143.05V45.75ZM1149.05 47.75H1151.05V49.75H1149.05V47.75ZM1155.06 45.75H1163.06V47.75H1157.06V53.75H1163.06V55.75H1157.06V61.75H1155.06V45.75ZM1163.06 47.75H1165.06V53.75H1163.06V47.75ZM1169.07 49.75H1171.07V53.75H1177.07V49.75H1179.07V61.75H1177.07V55.75H1171.07V61.75H1169.07V49.75ZM1173.07 45.75H1175.07V47.75H1173.07V45.75ZM1171.07 47.75H1173.07V49.75H1171.07V47.75ZM1175.07 47.75H1177.07V49.75H1175.07V47.75ZM1183.08 47.75H1185.08V59.75L1183.08 59.75V47.75ZM1185.08 59.75H1191.08V61.75H1185.08V59.75ZM1191.08 57.75H1193.08V59.75H1191.08V57.75ZM1185.08 45.75H1191.08V47.75L1185.08 47.75V45.75ZM1191.08 47.75H1193.08V49.75H1191.08V47.75ZM1197.09 45.75H1207.09V47.75H1199.09V51.75H1205.09V53.75H1199.09V59.75H1207.09V61.75H1197.09V45.75ZM1211.09 45.75H1213.09V59.75H1221.09V61.75H1211.09V45.75ZM1229.1 59.75V47.75H1225.1V45.75H1235.1V47.75H1231.1V59.75H1235.1V61.75H1225.1V59.75H1229.1ZM1239.11 45.75H1241.11V49.75H1243.11V51.75H1241.11V61.75H1239.11V45.75ZM1247.11 55.75L1245.11 55.75V53.75L1247.11 53.75V45.75H1249.11V61.75H1247.11V55.75ZM1245.11 53.75H1243.11V51.75H1245.11V53.75ZM1253.12 45.75H1263.12V47.75H1255.12V51.75H1261.12V53.75H1255.12V59.75H1263.12V61.75H1253.12V45.75ZM1267.13 47.75H1269.13V51.75H1267.13V47.75ZM1269.13 51.75H1275.13V53.75H1269.13V51.75ZM1275.13 59.75V61.75L1269.13 61.75V59.75L1275.13 59.75ZM1269.13 59.75H1267.13V57.75H1269.13V59.75ZM1275.13 53.75H1277.13V59.75H1275.13V53.75ZM1269.13 45.75H1275.13V47.75H1269.13V45.75ZM1275.13 47.75H1277.13V49.75H1275.13V47.75ZM1043 73.75H1051V75.75H1045V79.75H1051V81.75H1045V87.75H1051V89.75H1043V73.75ZM1051 81.75H1053V87.75H1051V81.75ZM1051 75.75H1053V79.75H1051V75.75ZM1057.01 75.75H1059.01V87.75H1057.01V75.75ZM1059.01 87.75H1065.01V89.75H1059.01V87.75ZM1065.01 75.75H1067.01V87.75H1065.01V75.75ZM1059.01 73.75H1065.01V75.75H1059.01V73.75ZM1071.02 77.75H1073.02V81.75H1079.02V77.75H1081.02V89.75H1079.02V83.75H1073.02V89.75H1071.02V77.75ZM1075.02 73.75H1077.02V75.75H1075.02V73.75ZM1073.02 75.75H1075.02V77.75H1073.02V75.75ZM1077.02 75.75H1079.02V77.75H1077.02V75.75ZM1085.02 73.75H1093.02V75.75H1087.02V81.75H1093.02V85.75H1091.02V83.75H1087.02V89.75H1085.02V73.75ZM1093.02 75.75H1095.02V81.75H1093.02V75.75ZM1093.02 85.75H1095.02V89.75H1093.02V85.75ZM1099.03 73.75H1107.03V75.75H1101.03V87.75H1107.03V89.75H1099.03V73.75ZM1107.03 75.75L1109.03 75.75V87.75L1107.03 87.75V75.75ZM1117.04 87.75V75.75H1113.04V73.75H1123.04V75.75H1119.04V87.75H1123.04V89.75H1113.04V87.75H1117.04ZM1127.05 73.75H1129.05V77.75H1131.05V79.75H1129.05V89.75H1127.05V73.75ZM1135.05 83.75H1133.05V81.75H1135.05V73.75H1137.05V89.75H1135.05V83.75ZM1133.05 81.75H1131.05V79.75H1133.05V81.75ZM1141.05 75.75H1143.05V87.75H1141.05V75.75ZM1143.05 87.75H1149.05V89.75H1143.05V87.75ZM1149.05 83.75H1147.05V81.75H1151.05V87.75H1149.05V83.75ZM1143.05 73.75H1149.05V75.75H1143.05V73.75ZM1149.05 75.75H1151.05V77.75H1149.05V75.75ZM1169.07 73.75H1177.07V75.75H1171.07V81.75H1177.07V83.75H1171.07V89.75H1169.07V73.75ZM1177.07 75.75H1179.07V81.75H1177.07V75.75ZM1183.08 77.75H1185.08V81.75H1191.08V77.75H1193.08V89.75H1191.08V83.75H1185.08V89.75H1183.08V77.75ZM1187.08 73.75H1189.08V75.75H1187.08V73.75ZM1185.08 75.75H1187.08V77.75H1185.08V75.75ZM1189.08 75.75H1191.08V77.75H1189.08V75.75ZM1197.09 75.75H1199.09V79.75H1197.09V75.75ZM1199.09 79.75H1205.09V81.75H1199.09V79.75ZM1205.09 87.75V89.75H1199.09V87.75H1205.09ZM1199.09 87.75H1197.09V85.75H1199.09V87.75ZM1205.09 81.75H1207.09V87.75H1205.09V81.75ZM1199.09 73.75H1205.09V75.75H1199.09V73.75ZM1205.09 75.75H1207.09V77.75H1205.09V75.75ZM1211.09 75.75H1213.09V79.75H1211.09V75.75ZM1213.09 79.75H1219.09V81.75H1213.09V79.75ZM1219.09 87.75V89.75H1213.09V87.75H1219.09ZM1213.09 87.75H1211.09V85.75H1213.09V87.75ZM1219.09 81.75H1221.09V87.75H1219.09V81.75ZM1213.09 73.75H1219.09V75.75H1213.09V73.75ZM1219.09 75.75H1221.09V77.75H1219.09V75.75Z" fill="#EEEEEE"/>
<path d="M616.5 359.75H618V362.75H619.5V364.25H618V367.25H616.5V364.25H615V362.75H616.5V359.75ZM615 362.75H613.5V361.25H615V362.75ZM613.5 364.25H615V365.75H613.5V364.25ZM619.5 361.25H621V362.75H619.5V361.25ZM619.5 364.25H621V365.75H619.5V364.25ZM627.006 359.75H628.506V362.75H630.006V364.25H628.506V367.25H627.006V364.25H625.506V362.75H627.006V359.75ZM625.506 362.75H624.006V361.25H625.506V362.75ZM624.006 364.25H625.506V365.75H624.006V364.25ZM630.006 361.25H631.506V362.75H630.006V361.25ZM630.006 364.25H631.506V365.75H630.006V364.25ZM637.512 359.75H639.012V362.75H640.512V364.25H639.012V367.25H637.512V364.25H636.012V362.75H637.512V359.75ZM636.012 362.75H634.512V361.25H636.012V362.75ZM634.512 364.25H636.012V365.75H634.512V364.25ZM640.512 361.25H642.012V362.75H640.512V361.25ZM640.512 364.25H642.012V365.75H640.512V364.25ZM648.018 359.75H649.518V362.75H651.018V364.25H649.518V367.25H648.018V364.25H646.518V362.75H648.018V359.75ZM646.518 362.75H645.018V361.25H646.518V362.75ZM645.018 364.25H646.518V365.75H645.018V364.25ZM651.018 361.25H652.518V362.75H651.018V361.25ZM651.018 364.25H652.518V365.75H651.018V364.25ZM658.523 359.75H660.023V362.75H661.523V364.25H660.023V367.25H658.523V364.25H657.023V362.75H658.523V359.75ZM657.023 362.75H655.523V361.25H657.023V362.75ZM655.523 364.25H657.023V365.75H655.523V364.25ZM661.523 361.25H663.023V362.75H661.523V361.25ZM661.523 364.25H663.023V365.75H661.523V364.25ZM669.029 359.75H670.529V362.75H672.029V364.25H670.529V367.25H669.029V364.25H667.529V362.75H669.029V359.75ZM667.529 362.75H666.029V361.25H667.529V362.75ZM666.029 364.25H667.529V365.75H666.029V364.25ZM672.029 361.25H673.529V362.75H672.029V361.25ZM672.029 364.25H673.529V365.75H672.029V364.25ZM679.535 359.75H681.035V362.75H682.535V364.25H681.035V367.25H679.535V364.25H678.035V362.75H679.535V359.75ZM678.035 362.75H676.535V361.25H678.035V362.75ZM676.535 364.25H678.035V365.75H676.535V364.25ZM682.535 361.25H684.035V362.75H682.535V361.25ZM682.535 364.25H684.035V365.75H682.535V364.25ZM690.041 359.75H691.541V362.75H693.041V364.25H691.541V367.25H690.041V364.25H688.541V362.75H690.041V359.75ZM688.541 362.75H687.041V361.25H688.541V362.75ZM687.041 364.25H688.541V365.75H687.041V364.25ZM693.041 361.25H694.541V362.75H693.041V361.25ZM693.041 364.25H694.541V365.75H693.041V364.25ZM700.547 359.75H702.047V362.75H703.547V364.25H702.047V367.25H700.547V364.25H699.047V362.75H700.547V359.75ZM699.047 362.75H697.547V361.25H699.047V362.75ZM697.547 364.25H699.047V365.75H697.547V364.25ZM703.547 361.25H705.047V362.75H703.547V361.25ZM703.547 364.25H705.047V365.75H703.547V364.25ZM711.053 359.75H712.553V362.75H714.053V364.25H712.553V367.25H711.053V364.25H709.553V362.75H711.053V359.75ZM709.553 362.75H708.053V361.25H709.553V362.75ZM708.053 364.25H709.553V365.75H708.053V364.25ZM714.053 361.25H715.553V362.75H714.053V361.25ZM714.053 364.25H715.553V365.75H714.053V364.25ZM721.559 359.75H723.059V362.75H724.559V364.25H723.059V367.25H721.559V364.25H720.059V362.75H721.559V359.75ZM720.059 362.75H718.559V361.25H720.059V362.75ZM718.559 364.25H720.059V365.75H718.559V364.25ZM724.559 361.25H726.059V362.75H724.559V361.25ZM724.559 364.25H726.059V365.75H724.559V364.25ZM732.064 359.75H733.564V362.75H735.064V364.25H733.564V367.25H732.064V364.25H730.564V362.75H732.064V359.75ZM730.564 362.75H729.064V361.25H730.564V362.75ZM729.064 364.25H730.564V365.75H729.064V364.25ZM735.064 361.25H736.564V362.75H735.064V361.25ZM735.064 364.25H736.564V365.75H735.064V364.25ZM742.57 359.75H744.07V362.75H745.57V364.25H744.07V367.25H742.57V364.25H741.07V362.75H742.57V359.75ZM741.07 362.75H739.57V361.25H741.07V362.75ZM739.57 364.25H741.07V365.75H739.57V364.25ZM745.57 361.25H747.07V362.75H745.57V361.25ZM745.57 364.25H747.07V365.75H745.57V364.25ZM753.076 359.75H754.576V362.75H756.076V364.25H754.576V367.25H753.076V364.25H751.576V362.75H753.076V359.75ZM751.576 362.75H750.076V361.25H751.576V362.75ZM750.076 364.25H751.576V365.75H750.076V364.25ZM756.076 361.25H757.576V362.75H756.076V361.25ZM756.076 364.25H757.576V365.75H756.076V364.25ZM763.582 359.75H765.082V362.75H766.582V364.25H765.082V367.25H763.582V364.25H762.082V362.75H763.582V359.75ZM762.082 362.75H760.582V361.25H762.082V362.75ZM760.582 364.25H762.082V365.75H760.582V364.25ZM766.582 361.25H768.082V362.75H766.582V361.25ZM766.582 364.25H768.082V365.75H766.582V364.25ZM774.088 359.75H775.588V362.75H777.088V364.25H775.588V367.25H774.088V364.25H772.588V362.75H774.088V359.75ZM772.588 362.75H771.088V361.25H772.588V362.75ZM771.088 364.25H772.588V365.75H771.088V364.25ZM777.088 361.25H778.588V362.75H777.088V361.25ZM777.088 364.25H778.588V365.75H777.088V364.25ZM784.594 359.75H786.094V362.75H787.594V364.25H786.094V367.25H784.594V364.25H783.094V362.75H784.594V359.75ZM783.094 362.75H781.594V361.25H783.094V362.75ZM781.594 364.25H783.094V365.75H781.594V364.25ZM787.594 361.25H789.094V362.75H787.594V361.25ZM787.594 364.25H789.094V365.75H787.594V364.25ZM795.1 359.75H796.6V362.75H798.1V364.25H796.6V367.25H795.1V364.25H793.6V362.75H795.1V359.75ZM793.6 362.75H792.1V361.25H793.6V362.75ZM792.1 364.25H793.6V365.75H792.1V364.25ZM798.1 361.25H799.6V362.75H798.1V361.25ZM798.1 364.25H799.6V365.75H798.1V364.25ZM805.605 359.75H807.105V362.75H808.605V364.25H807.105V367.25H805.605V364.25H804.105V362.75H805.605V359.75ZM804.105 362.75H802.605V361.25H804.105V362.75ZM802.605 364.25H804.105V365.75H802.605V364.25ZM808.605 361.25H810.105V362.75H808.605V361.25ZM808.605 364.25H810.105V365.75H808.605V364.25ZM816.111 359.75H817.611V362.75H819.111V364.25H817.611V367.25H816.111V364.25H814.611V362.75H816.111V359.75ZM814.611 362.75H813.111V361.25H814.611V362.75ZM813.111 364.25H814.611V365.75H813.111V364.25ZM819.111 361.25H820.611V362.75H819.111V361.25ZM819.111 364.25H820.611V365.75H819.111V364.25ZM826.617 359.75H828.117V362.75H829.617V364.25H828.117V367.25H826.617V364.25H825.117V362.75H826.617V359.75ZM825.117 362.75H823.617V361.25H825.117V362.75ZM823.617 364.25H825.117V365.75H823.617V364.25ZM829.617 361.25H831.117V362.75H829.617V361.25ZM829.617 364.25H831.117V365.75H829.617V364.25ZM837.123 359.75H838.623V362.75H840.123V364.25H838.623V367.25H837.123V364.25H835.623V362.75H837.123V359.75ZM835.623 362.75H834.123V361.25H835.623V362.75ZM834.123 364.25H835.623V365.75H834.123V364.25ZM840.123 361.25H841.623V362.75H840.123V361.25ZM840.123 364.25H841.623V365.75H840.123V364.25ZM847.629 359.75H849.129V362.75H850.629V364.25H849.129V367.25H847.629V364.25H846.129V362.75H847.629V359.75ZM846.129 362.75H844.629V361.25H846.129V362.75ZM844.629 364.25H846.129V365.75H844.629V364.25ZM850.629 361.25H852.129V362.75H850.629V361.25ZM850.629 364.25H852.129V365.75H850.629V364.25ZM858.135 359.75H859.635V362.75H861.135V364.25H859.635V367.25H858.135V364.25H856.635V362.75H858.135V359.75ZM856.635 362.75H855.135V361.25H856.635V362.75ZM855.135 364.25H856.635V365.75H855.135V364.25ZM861.135 361.25H862.635V362.75H861.135V361.25ZM861.135 364.25H862.635V365.75H861.135V364.25ZM868.641 359.75H870.141V362.75H871.641V364.25H870.141V367.25H868.641V364.25H867.141V362.75H868.641V359.75ZM867.141 362.75H865.641V361.25H867.141V362.75ZM865.641 364.25H867.141V365.75H865.641V364.25ZM871.641 361.25H873.141V362.75H871.641V361.25ZM871.641 364.25H873.141V365.75H871.641V364.25ZM616.5 384.75H618V387.75H619.5V389.25H618V392.25H616.5V389.25H615V387.75H616.5V384.75ZM615 387.75H613.5V386.25H615V387.75ZM613.5 389.25H615V390.75H613.5V389.25ZM619.5 386.25H621V387.75H619.5V386.25ZM619.5 389.25H621V390.75H619.5V389.25ZM627.006 384.75H628.506V387.75H630.006V389.25H628.506V392.25H627.006V389.25H625.506V387.75H627.006V384.75ZM625.506 387.75H624.006V386.25H625.506V387.75ZM624.006 389.25H625.506V390.75H624.006V389.25ZM630.006 386.25H631.506V387.75H630.006V386.25ZM630.006 389.25H631.506V390.75H630.006V389.25ZM637.512 384.75H639.012V387.75H640.512V389.25H639.012V392.25H637.512V389.25H636.012V387.75H637.512V384.75ZM636.012 387.75H634.512V386.25H636.012V387.75ZM634.512 389.25H636.012V390.75H634.512V389.25ZM640.512 386.25H642.012V387.75H640.512V386.25ZM640.512 389.25H642.012V390.75H640.512V389.25ZM648.018 384.75H649.518V387.75H651.018V389.25H649.518V392.25H648.018V389.25H646.518V387.75H648.018V384.75ZM646.518 387.75H645.018V386.25H646.518V387.75ZM645.018 389.25H646.518V390.75H645.018V389.25ZM651.018 386.25H652.518V387.75H651.018V386.25ZM651.018 389.25H652.518V390.75H651.018V389.25ZM658.523 384.75H660.023V387.75H661.523V389.25H660.023V392.25H658.523V389.25H657.023V387.75H658.523V384.75ZM657.023 387.75H655.523V386.25H657.023V387.75ZM655.523 389.25H657.023V390.75H655.523V389.25ZM661.523 386.25H663.023V387.75H661.523V386.25ZM661.523 389.25H663.023V390.75H661.523V389.25ZM669.029 384.75H670.529V387.75H672.029V389.25H670.529V392.25H669.029V389.25H667.529V387.75H669.029V384.75ZM667.529 387.75H666.029V386.25H667.529V387.75ZM666.029 389.25H667.529V390.75H666.029V389.25ZM672.029 386.25H673.529V387.75H672.029V386.25ZM672.029 389.25H673.529V390.75H672.029V389.25ZM687.041 386.25H694.541V387.75H688.541V390.75H693.041V392.25H688.541V398.25H687.041V386.25ZM700.547 396.75V387.75H697.547V386.25H705.047V387.75H702.047V396.75H705.047V398.25H697.547V396.75H700.547ZM708.053 386.25H714.053V387.75H709.553V392.25H714.053V395.25H712.553V393.75H709.553V398.25H708.053V386.25ZM714.053 387.75H715.553V392.25H714.053V387.75ZM714.053 395.25H715.553V398.25H714.053V395.25ZM718.559 387.75H720.059V390.75H718.559V387.75ZM720.059 390.75H724.559V392.25H720.059V390.75ZM724.559 396.75V398.25H720.059V396.75H724.559ZM720.059 396.75H718.559V395.25H720.059V396.75ZM724.559 392.25H726.059V396.75H724.559V392.25ZM720.059 386.25H724.559V387.75H720.059V386.25ZM724.559 387.75H726.059V389.25H724.559V387.75ZM729.064 386.25H736.564V387.75H733.564V398.25H732.064V387.75H729.064V386.25ZM750.076 387.75H751.576V396.75H750.076V387.75ZM751.576 396.75H756.076V398.25H751.576V396.75ZM756.076 395.25H757.576V396.75H756.076V395.25ZM751.576 386.25H756.076V387.75H751.576V386.25ZM756.076 387.75H757.576V389.25H756.076V387.75ZM760.582 386.25H762.082V396.75H768.082V398.25H760.582V386.25ZM771.088 389.25H772.588V392.25H777.088V389.25H778.588V398.25H777.088V393.75H772.588V398.25H771.088V389.25ZM774.088 386.25H775.588V387.75H774.088V386.25ZM772.588 387.75H774.088V389.25H772.588V387.75ZM775.588 387.75H777.088V389.25H775.588V387.75ZM781.594 387.75H783.094V390.75H781.594V387.75ZM783.094 390.75H787.594V392.25H783.094V390.75ZM787.594 396.75V398.25H783.094V396.75H787.594ZM783.094 396.75H781.594V395.25H783.094V396.75ZM787.594 392.25H789.094V396.75H787.594V392.25ZM783.094 386.25H787.594V387.75H783.094V386.25ZM787.594 387.75H789.094V389.25H787.594V387.75ZM792.1 387.75H793.6V390.75H792.1V387.75ZM793.6 390.75H798.1V392.25H793.6V390.75ZM798.1 396.75V398.25H793.6V396.75H798.1ZM793.6 396.75H792.1V395.25H793.6V396.75ZM798.1 392.25H799.6V396.75H798.1V392.25ZM793.6 386.25H798.1V387.75H793.6V386.25ZM798.1 387.75H799.6V389.25H798.1V387.75ZM816.111 384.75H817.611V387.75H819.111V389.25H817.611V392.25H816.111V389.25H814.611V387.75H816.111V384.75ZM814.611 387.75H813.111V386.25H814.611V387.75ZM813.111 389.25H814.611V390.75H813.111V389.25ZM819.111 386.25H820.611V387.75H819.111V386.25ZM819.111 389.25H820.611V390.75H819.111V389.25ZM826.617 384.75H828.117V387.75H829.617V389.25H828.117V392.25H826.617V389.25H825.117V387.75H826.617V384.75ZM825.117 387.75H823.617V386.25H825.117V387.75ZM823.617 389.25H825.117V390.75H823.617V389.25ZM829.617 386.25H831.117V387.75H829.617V386.25ZM829.617 389.25H831.117V390.75H829.617V389.25ZM837.123 384.75H838.623V387.75H840.123V389.25H838.623V392.25H837.123V389.25H835.623V387.75H837.123V384.75ZM835.623 387.75H834.123V386.25H835.623V387.75ZM834.123 389.25H835.623V390.75H834.123V389.25ZM840.123 386.25H841.623V387.75H840.123V386.25ZM840.123 389.25H841.623V390.75H840.123V389.25ZM847.629 384.75H849.129V387.75H850.629V389.25H849.129V392.25H847.629V389.25H846.129V387.75H847.629V384.75ZM846.129 387.75H844.629V386.25H846.129V387.75ZM844.629 389.25H846.129V390.75H844.629V389.25ZM850.629 386.25H852.129V387.75H850.629V386.25ZM850.629 389.25H852.129V390.75H850.629V389.25ZM858.135 384.75H859.635V387.75H861.135V389.25H859.635V392.25H858.135V389.25H856.635V387.75H858.135V384.75ZM856.635 387.75H855.135V386.25H856.635V387.75ZM855.135 389.25H856.635V390.75H855.135V389.25ZM861.135 386.25H862.635V387.75H861.135V386.25ZM861.135 389.25H862.635V390.75H861.135V389.25ZM868.641 384.75H870.141V387.75H871.641V389.25H870.141V392.25H868.641V389.25H867.141V387.75H868.641V384.75ZM867.141 387.75H865.641V386.25H867.141V387.75ZM865.641 389.25H867.141V390.75H865.641V389.25ZM871.641 386.25H873.141V387.75H871.641V386.25ZM871.641 389.25H873.141V390.75H871.641V389.25ZM616.5 409.75H618V412.75H619.5V414.25H618V417.25H616.5V414.25H615V412.75H616.5V409.75ZM615 412.75H613.5V411.25H615V412.75ZM613.5 414.25H615V415.75H613.5V414.25ZM619.5 411.25H621V412.75H619.5V411.25ZM619.5 414.25H621V415.75H619.5V414.25ZM627.006 409.75H628.506V412.75H630.006V414.25H628.506V417.25H627.006V414.25H625.506V412.75H627.006V409.75ZM625.506 412.75H624.006V411.25H625.506V412.75ZM624.006 414.25H625.506V415.75H624.006V414.25ZM630.006 411.25H631.506V412.75H630.006V411.25ZM630.006 414.25H631.506V415.75H630.006V414.25ZM637.512 409.75H639.012V412.75H640.512V414.25H639.012V417.25H637.512V414.25H636.012V412.75H637.512V409.75ZM636.012 412.75H634.512V411.25H636.012V412.75ZM634.512 414.25H636.012V415.75H634.512V414.25ZM640.512 411.25H642.012V412.75H640.512V411.25ZM640.512 414.25H642.012V415.75H640.512V414.25ZM648.018 409.75H649.518V412.75H651.018V414.25H649.518V417.25H648.018V414.25H646.518V412.75H648.018V409.75ZM646.518 412.75H645.018V411.25H646.518V412.75ZM645.018 414.25H646.518V415.75H645.018V414.25ZM651.018 411.25H652.518V412.75H651.018V411.25ZM651.018 414.25H652.518V415.75H651.018V414.25ZM658.523 409.75H660.023V412.75H661.523V414.25H660.023V417.25H658.523V414.25H657.023V412.75H658.523V409.75ZM657.023 412.75H655.523V411.25H657.023V412.75ZM655.523 414.25H657.023V415.75H655.523V414.25ZM661.523 411.25H663.023V412.75H661.523V411.25ZM661.523 414.25H663.023V415.75H661.523V414.25ZM669.029 409.75H670.529V412.75H672.029V414.25H670.529V417.25H669.029V414.25H667.529V412.75H669.029V409.75ZM667.529 412.75H666.029V411.25H667.529V412.75ZM666.029 414.25H667.529V415.75H666.029V414.25ZM672.029 411.25H673.529V412.75H672.029V411.25ZM672.029 414.25H673.529V415.75H672.029V414.25ZM679.535 409.75H681.035V412.75H682.535V414.25H681.035V417.25H679.535V414.25H678.035V412.75H679.535V409.75ZM678.035 412.75H676.535V411.25H678.035V412.75ZM676.535 414.25H678.035V415.75H676.535V414.25ZM682.535 411.25H684.035V412.75H682.535V411.25ZM682.535 414.25H684.035V415.75H682.535V414.25ZM690.041 409.75H691.541V412.75H693.041V414.25H691.541V417.25H690.041V414.25H688.541V412.75H690.041V409.75ZM688.541 412.75H687.041V411.25H688.541V412.75ZM687.041 414.25H688.541V415.75H687.041V414.25ZM693.041 411.25H694.541V412.75H693.041V411.25ZM693.041 414.25H694.541V415.75H693.041V414.25ZM700.547 409.75H702.047V412.75H703.547V414.25H702.047V417.25H700.547V414.25H699.047V412.75H700.547V409.75ZM699.047 412.75H697.547V411.25H699.047V412.75ZM697.547 414.25H699.047V415.75H697.547V414.25ZM703.547 411.25H705.047V412.75H703.547V411.25ZM703.547 414.25H705.047V415.75H703.547V414.25ZM711.053 409.75H712.553V412.75H714.053V414.25H712.553V417.25H711.053V414.25H709.553V412.75H711.053V409.75ZM709.553 412.75H708.053V411.25H709.553V412.75ZM708.053 414.25H709.553V415.75H708.053V414.25ZM714.053 411.25H715.553V412.75H714.053V411.25ZM714.053 414.25H715.553V415.75H714.053V414.25ZM721.559 409.75H723.059V412.75H724.559V414.25H723.059V417.25H721.559V414.25H720.059V412.75H721.559V409.75ZM720.059 412.75H718.559V411.25H720.059V412.75ZM718.559 414.25H720.059V415.75H718.559V414.25ZM724.559 411.25H726.059V412.75H724.559V411.25ZM724.559 414.25H726.059V415.75H724.559V414.25ZM732.064 409.75H733.564V412.75H735.064V414.25H733.564V417.25H732.064V414.25H730.564V412.75H732.064V409.75ZM730.564 412.75H729.064V411.25H730.564V412.75ZM729.064 414.25H730.564V415.75H729.064V414.25ZM735.064 411.25H736.564V412.75H735.064V411.25ZM735.064 414.25H736.564V415.75H735.064V414.25ZM742.57 409.75H744.07V412.75H745.57V414.25H744.07V417.25H742.57V414.25H741.07V412.75H742.57V409.75ZM741.07 412.75H739.57V411.25H741.07V412.75ZM739.57 414.25H741.07V415.75H739.57V414.25ZM745.57 411.25H747.07V412.75H745.57V411.25ZM745.57 414.25H747.07V415.75H745.57V414.25ZM753.076 409.75H754.576V412.75H756.076V414.25H754.576V417.25H753.076V414.25H751.576V412.75H753.076V409.75ZM751.576 412.75H750.076V411.25H751.576V412.75ZM750.076 414.25H751.576V415.75H750.076V414.25ZM756.076 411.25H757.576V412.75H756.076V411.25ZM756.076 414.25H757.576V415.75H756.076V414.25ZM763.582 409.75H765.082V412.75H766.582V414.25H765.082V417.25H763.582V414.25H762.082V412.75H763.582V409.75ZM762.082 412.75H760.582V411.25H762.082V412.75ZM760.582 414.25H762.082V415.75H760.582V414.25ZM766.582 411.25H768.082V412.75H766.582V411.25ZM766.582 414.25H768.082V415.75H766.582V414.25ZM774.088 409.75H775.588V412.75H777.088V414.25H775.588V417.25H774.088V414.25H772.588V412.75H774.088V409.75ZM772.588 412.75H771.088V411.25H772.588V412.75ZM771.088 414.25H772.588V415.75H771.088V414.25ZM777.088 411.25H778.588V412.75H777.088V411.25ZM777.088 414.25H778.588V415.75H777.088V414.25ZM784.594 409.75H786.094V412.75H787.594V414.25H786.094V417.25H784.594V414.25H783.094V412.75H784.594V409.75ZM783.094 412.75H781.594V411.25H783.094V412.75ZM781.594 414.25H783.094V415.75H781.594V414.25ZM787.594 411.25H789.094V412.75H787.594V411.25ZM787.594 414.25H789.094V415.75H787.594V414.25ZM795.1 409.75H796.6V412.75H798.1V414.25H796.6V417.25H795.1V414.25H793.6V412.75H795.1V409.75ZM793.6 412.75H792.1V411.25H793.6V412.75ZM792.1 414.25H793.6V415.75H792.1V414.25ZM798.1 411.25H799.6V412.75H798.1V411.25ZM798.1 414.25H799.6V415.75H798.1V414.25ZM805.605 409.75H807.105V412.75H808.605V414.25H807.105V417.25H805.605V414.25H804.105V412.75H805.605V409.75ZM804.105 412.75H802.605V411.25H804.105V412.75ZM802.605 414.25H804.105V415.75H802.605V414.25ZM808.605 411.25H810.105V412.75H808.605V411.25ZM808.605 414.25H810.105V415.75H808.605V414.25ZM816.111 409.75H817.611V412.75H819.111V414.25H817.611V417.25H816.111V414.25H814.611V412.75H816.111V409.75ZM814.611 412.75H813.111V411.25H814.611V412.75ZM813.111 414.25H814.611V415.75H813.111V414.25ZM819.111 411.25H820.611V412.75H819.111V411.25ZM819.111 414.25H820.611V415.75H819.111V414.25ZM826.617 409.75H828.117V412.75H829.617V414.25H828.117V417.25H826.617V414.25H825.117V412.75H826.617V409.75ZM825.117 412.75H823.617V411.25H825.117V412.75ZM823.617 414.25H825.117V415.75H823.617V414.25ZM829.617 411.25H831.117V412.75H829.617V411.25ZM829.617 414.25H831.117V415.75H829.617V414.25ZM837.123 409.75H838.623V412.75H840.123V414.25H838.623V417.25H837.123V414.25H835.623V412.75H837.123V409.75ZM835.623 412.75H834.123V411.25H835.623V412.75ZM834.123 414.25H835.623V415.75H834.123V414.25ZM840.123 411.25H841.623V412.75H840.123V411.25ZM840.123 414.25H841.623V415.75H840.123V414.25ZM847.629 409.75H849.129V412.75H850.629V414.25H849.129V417.25H847.629V414.25H846.129V412.75H847.629V409.75ZM846.129 412.75H844.629V411.25H846.129V412.75ZM844.629 414.25H846.129V415.75H844.629V414.25ZM850.629 411.25H852.129V412.75H850.629V411.25ZM850.629 414.25H852.129V415.75H850.629V414.25ZM858.135 409.75H859.635V412.75H861.135V414.25H859.635V417.25H858.135V414.25H856.635V412.75H858.135V409.75ZM856.635 412.75H855.135V411.25H856.635V412.75ZM855.135 414.25H856.635V415.75H855.135V414.25ZM861.135 411.25H862.635V412.75H861.135V411.25ZM861.135 414.25H862.635V415.75H861.135V414.25ZM868.641 409.75H870.141V412.75H871.641V414.25H870.141V417.25H868.641V414.25H867.141V412.75H868.641V409.75ZM867.141 412.75H865.641V411.25H867.141V412.75ZM865.641 414.25H867.141V415.75H865.641V414.25ZM871.641 411.25H873.141V412.75H871.641V411.25ZM871.641 414.25H873.141V415.75H871.641V414.25Z" fill="#EEEEEE"/>
<path d="M485 375.75H493V407.75H489V399.75H473V387.75H477V395.75H489V379.75H485V375.75ZM481 379.75H485V383.75H481V379.75ZM477 383.75H481V387.75H477V383.75ZM501.016 379.75H505.016V403.75H501.016V379.75ZM505.016 403.75H517.016V407.75H505.016V403.75ZM517.016 399.75H521.016V403.75H517.016V399.75ZM505.016 375.75H517.016V379.75H505.016V375.75ZM517.016 379.75H521.016V383.75H517.016V379.75Z" fill="#EEEEEE"/>
<path d="M470 350.75H471V352.75H470V350.75ZM471 352.75H474V353.75H471V352.75ZM474 356.75V357.75H471V356.75H474ZM471 356.75H470V355.75H471V356.75ZM474 353.75H475V356.75H474V353.75ZM471 349.75H474V350.75H471V349.75ZM474 350.75H475V351.75H474V350.75ZM477.004 349.75H482.004V350.75H478.004V352.75H481.004V353.75H478.004V356.75H482.004V357.75H477.004V349.75ZM484.008 351.75H485.008V353.75H488.008V351.75H489.008V357.75H488.008V354.75H485.008V357.75H484.008V351.75ZM486.008 349.75H487.008V350.75H486.008V349.75ZM485.008 350.75H486.008V351.75H485.008V350.75ZM487.008 350.75H488.008V351.75H487.008V350.75ZM491.012 349.75H496.012V350.75H494.012V357.75H493.012V350.75H491.012V349.75Z" fill="#EEEEEE"/>
<path d="M282 383.75H274V379.75H282V375.75H286V403.75H294V407.75H274V403.75H282V383.75ZM310.016 383.75H302.016V379.75H310.016V375.75H314.016V403.75H322.016V407.75H302.016V403.75H310.016V383.75ZM338.031 399.75H342.031V407.75H338.031V399.75ZM338.031 383.75H342.031V391.75H338.031V383.75ZM358.047 379.75H362.047V391.75H366.047V395.75H362.047V403.75H358.047V379.75ZM362.047 403.75H374.047V407.75H362.047V403.75ZM362.047 375.75H374.047V379.75H362.047V375.75ZM374.047 379.75H378.047V403.75H374.047V387.75H370.047V383.75H374.047V379.75ZM366.047 387.75H370.047V391.75H366.047V387.75ZM394.063 383.75H386.063V379.75H394.063V375.75H398.063V403.75H406.063V407.75H386.063V403.75H394.063V383.75Z" fill="#EEEEEE"/>
<path d="M271 350.25H275V351.25H272V353.25H275V354.25H272V357.25H275V358.25H271V350.25ZM275 354.25H276V357.25H275V354.25ZM275 351.25H276V353.25H275V351.25ZM278.004 351.25H279.004V357.25H278.004V351.25ZM279.004 357.25H282.004V358.25H279.004V357.25ZM282.004 351.25H283.004V357.25H282.004V351.25ZM279.004 350.25H282.004V351.25H279.004V350.25ZM285.008 352.25H286.008V354.25H289.008V352.25H290.008V358.25H289.008V355.25H286.008V358.25H285.008V352.25ZM287.008 350.25H288.008V351.25H287.008V350.25ZM286.008 351.25H287.008V352.25H286.008V351.25ZM288.008 351.25H289.008V352.25H288.008V351.25ZM292.012 350.25H296.012V351.25H293.012V354.25H296.012V356.25H295.012V355.25H293.012V358.25H292.012V350.25ZM296.012 351.25H297.012V354.25H296.012V351.25ZM296.012 356.25H297.012V358.25H296.012V356.25ZM299.016 350.25H303.016V351.25H300.016V357.25H303.016V358.25H299.016V350.25ZM303.016 351.25H304.016V357.25H303.016V351.25ZM308.02 357.25V351.25H306.02V350.25H311.02V351.25H309.02V357.25H311.02V358.25H306.02V357.25H308.02ZM313.023 350.25H314.023V352.25H315.023V353.25H314.023V358.25H313.023V350.25ZM317.023 355.25H316.023V354.25H317.023V350.25H318.023V358.25H317.023V355.25ZM316.023 354.25H315.023V353.25H316.023V354.25ZM320.027 351.25H321.027V357.25H320.027V351.25ZM321.027 357.25H324.027V358.25H321.027V357.25ZM324.027 355.25H323.027V354.25H325.027V357.25H324.027V355.25ZM321.027 350.25H324.027V351.25H321.027V350.25ZM324.027 351.25H325.027V352.25H324.027V351.25Z" fill="#EEEEEE"/>
<path d="M147 403.75V407.75H135V403.75H147ZM135 403.75H131V399.75H135V403.75ZM147 391.75V379.75H151V403.75H147V395.75H135V391.75H147ZM135 391.75H131V379.75H135V391.75ZM135 375.75H147V379.75H135V375.75ZM163.016 395.75H167.016V407.75H163.016V395.75ZM167.016 391.75H171.016V395.75H167.016V391.75ZM171.016 387.75H175.016V391.75H171.016V387.75ZM175.016 379.75H159.016V375.75H179.016V387.75H175.016V379.75ZM187.031 383.75H191.031V391.75H203.031V383.75H207.031V407.75H203.031V395.75H191.031V407.75H187.031V383.75ZM195.031 375.75H199.031V379.75H195.031V375.75ZM191.031 379.75H195.031V383.75H191.031V379.75ZM199.031 379.75H203.031V383.75H199.031V379.75Z" fill="#EEEEEE"/>
<path d="M128 351.25H129V357.25H128V351.25ZM129 357.25H132V358.25H129V357.25ZM132 355.25H131V354.25H133V357.25H132V355.25ZM129 350.25H132V351.25H129V350.25ZM132 351.25H133V352.25H132V351.25ZM135.004 352.25H136.004V354.25H139.004V352.25H140.004V358.25H139.004V355.25H136.004V358.25H135.004V352.25ZM137.004 350.25H138.004V351.25H137.004V350.25ZM136.004 351.25H137.004V352.25H136.004V351.25ZM138.004 351.25H139.004V352.25H138.004V351.25ZM142.008 350.25H147.008V351.25H145.008V358.25H144.008V351.25H142.008V350.25ZM149.012 350.25H154.012V351.25H150.012V353.25H153.012V354.25H150.012V357.25H154.012V358.25H149.012V350.25Z" fill="#EEEEEE"/>
<path d="M272 309.75H274V311.75H282V313.75H272V309.75ZM280 299.75H274V297.75H280V299.75ZM280 299.75H282V303.75H280V299.75ZM274 307.75H276V309.75H274V307.75ZM272 299.75H274V301.75H272V299.75ZM278 303.75H280V305.75H278V303.75ZM276 305.75H278V307.75H276V305.75ZM286.008 299.75H288.008V305.75H290.008V307.75H288.008V311.75H286.008V299.75ZM288.008 311.75H294.008V313.75H288.008V311.75ZM288.008 297.75H294.008V299.75H288.008V297.75ZM294.008 299.75H296.008V311.75H294.008V303.75H292.008V301.75H294.008V299.75ZM290.008 303.75H292.008V305.75H290.008V303.75ZM306.016 297.75H310.016V313.75H308.016V309.75H300.016V303.75H302.016V307.75H308.016V299.75H306.016V297.75ZM304.016 299.75H306.016V301.75H304.016V299.75ZM302.016 301.75H304.016V303.75H302.016V301.75ZM322.023 311.75V313.75H316.023V311.75H322.023ZM316.023 311.75H314.023V309.75H316.023V311.75ZM322.023 305.75V299.75H324.023V311.75H322.023V307.75H316.023V305.75H322.023ZM316.023 305.75H314.023V299.75H316.023V305.75ZM316.023 297.75H322.023V299.75H316.023V297.75ZM346.039 301.75H342.039V299.75H346.039V297.75H348.039V311.75H352.039V313.75H342.039V311.75H346.039V301.75ZM356.047 297.75H366.047V299.75H358.047V303.75H364.047V305.75H356.047V297.75ZM364.047 305.75H366.047V311.75H364.047V305.75ZM364.047 311.75V313.75H358.047V311.75H364.047ZM358.047 311.75H356.047V309.75H358.047V311.75ZM384.063 301.75H386.063V305.75H392.063V301.75H394.063V313.75H392.063V307.75H386.063V313.75H384.063V301.75ZM388.063 297.75H390.063V299.75H388.063V297.75ZM386.063 299.75H388.063V301.75H386.063V299.75ZM390.063 299.75H392.063V301.75H390.063V299.75ZM398.07 297.75H406.07V299.75H400.07V305.75H406.07V307.75H400.07V313.75H398.07V297.75ZM406.07 299.75H408.07V305.75H406.07V299.75ZM412.078 297.75H420.078V299.75H414.078V305.75H420.078V309.75H418.078V307.75H414.078V313.75H412.078V297.75ZM420.078 299.75H422.078V305.75H420.078V299.75ZM420.078 309.75H422.078V313.75H420.078V309.75ZM444.094 301.75H440.094V299.75H444.094V297.75H446.094V311.75H450.094V313.75H440.094V311.75H444.094V301.75ZM458.102 301.75H454.102V299.75H458.102V297.75H460.102V311.75H464.102V313.75L454.102 313.75V311.75L458.102 311.75V301.75ZM472.109 309.75H474.109V313.75H472.109V309.75ZM472.109 301.75H474.109V305.75H472.109V301.75ZM482.117 299.75H484.117V301.75H482.117V299.75ZM484.117 297.75H490.117V299.75H484.117V297.75ZM490.117 299.75H492.117V303.75H490.117V299.75ZM486.117 303.75H490.117V305.75H486.117V303.75ZM490.117 305.75H492.117V311.75H490.117V305.75ZM490.117 311.75V313.75H484.117V311.75H490.117ZM484.117 311.75H482.117V309.75H484.117V311.75ZM500.125 301.75H496.125V299.75H500.125V297.75H502.125V311.75H506.125V313.75H496.125V311.75H500.125V301.75Z" fill="#EEEEEE"/>
<path d="M271 273.25H275V274.25H272V280.25H275V281.25H271V273.25ZM275 274.25H276V280.25H275V274.25ZM278.004 273.25H283.004V274.25H279.004V276.25H282.004V277.25H279.004V280.25H283.004V281.25H278.004V273.25ZM285.008 273.25H289.008V274.25H286.008V277.25H289.008V278.25H286.008V281.25H285.008V273.25ZM289.008 274.25H290.008V277.25H289.008V274.25ZM292.012 275.25H293.012V277.25H296.012V275.25H297.012V281.25H296.012V278.25H293.012V281.25H292.012V275.25ZM294.012 273.25H295.012V274.25H294.012V273.25ZM293.012 274.25H294.012V275.25H293.012V274.25ZM295.012 274.25H296.012V275.25H295.012V274.25ZM299.016 273.25H303.016V274.25H300.016V277.25H303.016V279.25H302.016V278.25H300.016V281.25H299.016V273.25ZM303.016 274.25H304.016V277.25H303.016V274.25ZM303.016 279.25H304.016V281.25H303.016V279.25ZM306.02 273.25H311.02V274.25H309.02V281.25H308.02V274.25H306.02V273.25ZM313.023 273.25H314.023V280.25H313.023V273.25ZM314.023 280.25H317.023V281.25H314.023V280.25ZM317.023 273.25H318.023V280.25H317.023V273.25ZM320.027 273.25H324.027V274.25H321.027V277.25H324.027V279.25H323.027V278.25H321.027V281.25H320.027V273.25ZM324.027 274.25H325.027V277.25H324.027V274.25ZM324.027 279.25H325.027V281.25H324.027V279.25ZM327.031 273.25H332.031V274.25H328.031V276.25H331.031V277.25H328.031V280.25H332.031V281.25H327.031V273.25Z" fill="#EEEEEE"/>
<path d="M137 307.75H139V313.75H137V307.75ZM129 307.75H131V313.75H129V307.75ZM133 303.75H131V301.75H133V303.75ZM133 303.75H135V305.75H133V303.75ZM135 301.75H137V303.75H135V301.75ZM131 301.75H129V297.75H131V301.75ZM131 305.75H133V307.75H131V305.75ZM137 297.75H139V301.75H137V297.75ZM135 305.75H137V307.75H135V305.75ZM151.008 307.75H153.008V313.75H151.008V307.75ZM143.008 307.75H145.008V313.75H143.008V307.75ZM147.008 303.75H145.008V301.75H147.008V303.75ZM147.008 303.75H149.008V305.75H147.008V303.75ZM149.008 301.75H151.008V303.75H149.008V301.75ZM145.008 301.75H143.008V297.75H145.008V301.75ZM145.008 305.75H147.008V307.75H145.008V305.75ZM151.008 297.75H153.008V301.75H151.008V297.75ZM149.008 305.75H151.008V307.75H149.008V305.75ZM159.016 307.75H161.016V313.75H159.016V307.75ZM161.016 305.75H163.016V307.75H161.016V305.75ZM163.016 303.75H165.016V305.75H163.016V303.75ZM165.016 299.75H157.016V297.75H167.016V303.75H165.016V299.75ZM171.023 299.75H173.023V303.75H171.023V299.75ZM179.023 299.75H173.023V297.75H179.023V299.75ZM179.023 299.75H181.023V303.75H179.023V299.75ZM173.023 303.75H179.023V305.75H173.023V303.75ZM179.023 305.75H181.023V311.75H179.023V305.75ZM171.023 305.75H173.023V311.75H171.023V305.75ZM179.023 311.75V313.75H173.023V311.75H179.023ZM193.031 311.75V313.75H187.031V311.75H193.031ZM187.031 311.75H185.031V309.75H187.031V311.75ZM193.031 305.75V299.75H195.031V311.75H193.031V307.75H187.031V305.75H193.031ZM187.031 305.75H185.031V299.75H187.031V305.75ZM187.031 297.75H193.031V299.75H187.031V297.75Z" fill="#EEEEEE"/>
<path d="M128 273.25H133V274.25H129V276.25H132V277.25H129V281.25H128V273.25ZM135.004 273.25H136.004V280.25H140.004V281.25H135.004V273.25ZM144.008 280.25V274.25H142.008V273.25H147.008V274.25H145.008V280.25H147.008V281.25H142.008V280.25H144.008ZM149.012 274.25H150.012V280.25H149.012V274.25ZM150.012 280.25H153.012V281.25H150.012V280.25ZM153.012 278.25H152.012V277.25H154.012V280.25H153.012V278.25ZM150.012 273.25H153.012V274.25H150.012V273.25ZM153.012 274.25H154.012V275.25H153.012V274.25ZM156.016 273.25H157.016V276.25H160.016V273.25H161.016V281.25H160.016V277.25H157.016V281.25H156.016V273.25ZM163.02 273.25H168.02V274.25H166.02V281.25H165.02V274.25H163.02V273.25Z" fill="#EEEEEE"/>
<path d="M594 220.75H596V226.75H598V224.75H600V228.75H596V236.75H594V220.75ZM602 220.75H604V222.75H602V220.75ZM600 222.75H602V224.75H600V222.75ZM602 232.75H600V228.75H602V232.75ZM602 232.75H604V236.75H602V232.75ZM608.008 220.75H610.008V234.75H608.008V220.75ZM610.008 234.75H616.008V236.75H610.008V234.75ZM616.008 220.75H618.008V234.75H616.008V220.75ZM626.016 234.75V222.75H622.016V220.75H632.016V222.75H628.016V234.75H632.016V236.75H622.016V234.75H626.016ZM636.023 220.75H644.023V222.75H638.023V228.75H644.023V230.75H638.023V236.75H636.023V220.75ZM644.023 222.75H646.023V228.75H644.023V222.75ZM650.031 220.75H660.031V222.75H652.031V226.75H658.031V228.75H652.031V234.75H660.031V236.75H650.031V220.75ZM664.039 220.75H672.039V222.75H666.039V228.75H672.039V232.75H670.039V230.75H666.039V236.75H664.039V220.75ZM672.039 222.75H674.039V228.75H672.039V222.75ZM672.039 232.75H674.039V236.75H672.039V232.75ZM692.055 224.75H694.055V228.75H700.055V224.75H702.055V236.75H700.055V230.75H694.055V236.75H692.055V224.75ZM696.055 220.75H698.055V222.75H696.055V220.75ZM694.055 222.75H696.055V224.75H694.055V222.75ZM698.055 222.75H700.055V224.75H698.055V222.75ZM706.063 220.75H708.063V234.75H716.063V236.75H706.063V220.75ZM720.07 220.75H728.07V222.75H722.07V228.75H728.07V230.75H722.07V236.75H720.07V220.75ZM728.07 222.75H730.07V228.75H728.07V222.75ZM734.078 220.75H736.078V226.75H742.078V220.75H744.078V236.75H742.078V228.75H736.078V236.75H734.078V220.75ZM748.086 224.75H750.086V228.75H756.086V224.75H758.086V236.75H756.086V230.75H750.086V236.75H748.086V224.75ZM752.086 220.75H754.086V222.75H752.086V220.75ZM750.086 222.75H752.086V224.75H750.086V222.75ZM754.086 222.75H756.086V224.75H754.086V222.75Z" fill="#EEEEEE"/>
<path d="M696 171.75H700V183.75H704V179.75H708V187.75H700V203.75H696V171.75ZM712 171.75H716V175.75H712V171.75ZM708 175.75H712V179.75H708V175.75ZM712 195.75H708V187.75H712V195.75ZM712 195.75H716V203.75H712V195.75ZM724.016 171.75H740.016V175.75H728.016V183.75H740.016V187.75H728.016V199.75H740.016V203.75H724.016V171.75ZM740.016 187.75H744.016V199.75H740.016V187.75ZM740.016 175.75H744.016V183.75H740.016V175.75ZM752.031 179.75H756.031V187.75H768.031V179.75H772.031V203.75H768.031V191.75H756.031V203.75H752.031V179.75ZM760.031 171.75H764.031V175.75H760.031V171.75ZM756.031 175.75H760.031V179.75H756.031V175.75ZM764.031 175.75H768.031V179.75H764.031V175.75Z" fill="#EEEEEE"/>
<path d="M593 195.75H597V196.75H594V202.75H597V203.75H593V195.75ZM597 196.75H598V202.75H597V196.75ZM600.004 195.75H605.004V196.75H601.004V198.75H604.004V199.75H601.004V202.75H605.004V203.75H600.004V195.75ZM607.008 196.75H608.008V198.75H607.008V196.75ZM608.008 198.75H611.008V199.75H608.008V198.75ZM611.008 202.75V203.75H608.008V202.75H611.008ZM608.008 202.75H607.008V201.75H608.008V202.75ZM611.008 199.75H612.008V202.75H611.008V199.75ZM608.008 195.75H611.008V196.75H608.008V195.75ZM611.008 196.75H612.008V197.75H611.008V196.75ZM614.012 195.75H619.012V196.75H617.012V203.75H616.012V196.75H614.012V195.75ZM623.016 202.75V196.75H621.016V195.75H626.016V196.75H624.016V202.75H626.016V203.75H621.016V202.75H623.016ZM628.02 195.75H629.02V197.75H630.02V198.75H629.02V203.75H628.02V195.75ZM632.02 200.75H631.02V199.75H632.02V195.75H633.02V203.75H632.02V200.75ZM631.02 199.75H630.02V198.75H631.02V199.75ZM635.023 197.75H636.023V199.75H639.023V197.75H640.023V203.75H639.023V200.75H636.023V203.75H635.023V197.75ZM637.023 195.75H638.023V196.75H637.023V195.75ZM636.023 196.75H637.023V197.75H636.023V196.75ZM638.023 196.75H639.023V197.75H638.023V196.75ZM642.027 195.75H647.027V196.75H645.027V203.75H644.027V196.75H642.027V195.75ZM651.031 202.75V196.75H649.031V195.75H654.031V196.75H652.031V202.75H654.031V203.75H649.031V202.75H651.031ZM656.035 196.75H657.035V202.75H656.035V196.75ZM657.035 202.75H660.035V203.75H657.035V202.75ZM660.035 196.75H661.035V202.75H660.035V196.75ZM657.035 195.75H660.035V196.75H657.035V195.75ZM663.039 195.75H664.039V197.75H665.039V198.75H664.039V203.75H663.039V195.75ZM667.039 200.75H666.039V199.75H667.039V195.75H668.039V203.75H667.039V200.75ZM666.039 199.75H665.039V198.75H666.039V199.75Z" fill="#EEEEEE"/>
<path d="M384 220.75H386V234.75H394V236.75H384V220.75ZM398.008 222.75H400.008V234.75H398.008V222.75ZM400.008 234.75H406.008V236.75H400.008V234.75ZM406.008 222.75H408.008V234.75H406.008V222.75ZM400.008 220.75H406.008V222.75H400.008V220.75ZM412.016 222.75H414.016V226.75H412.016V222.75ZM414.016 226.75H420.016V228.75H414.016V226.75ZM420.016 234.75V236.75H414.016V234.75H420.016ZM414.016 234.75H412.016V232.75H414.016V234.75ZM420.016 228.75H422.016V234.75H420.016V228.75ZM414.016 220.75H420.016V222.75H414.016V220.75ZM420.016 222.75H422.016V224.75H420.016V222.75ZM440.031 224.75H442.031V228.75H448.031V224.75H450.031V236.75H448.031V230.75H442.031V236.75H440.031V224.75ZM444.031 220.75H446.031V222.75H444.031V220.75ZM442.031 222.75H444.031V224.75H442.031V222.75ZM446.031 222.75H448.031V224.75H446.031V222.75ZM454.039 220.75H456.039V224.75H458.039V226.75H456.039V236.75H454.039V220.75ZM462.039 230.75H460.039V228.75H462.039V220.75H464.039V236.75H462.039V230.75ZM460.039 228.75H458.039V226.75H460.039V228.75ZM468.047 222.75H470.047V234.75H468.047V222.75ZM470.047 234.75H476.047V236.75H470.047V234.75ZM476.047 230.75L474.047 230.75V228.75L478.047 228.75V234.75H476.047V230.75ZM470.047 220.75L476.047 220.75V222.75L470.047 222.75V220.75ZM476.047 222.75H478.047V224.75H476.047V222.75ZM482.055 220.75H492.055V222.75H484.055V226.75H490.055V228.75H484.055V234.75H492.055V236.75H482.055V220.75ZM496.063 220.75H498.063V234.75H506.063V236.75H496.063V220.75ZM510.07 220.75H520.07V222.75H512.07V226.75H518.07V228.75H512.07V234.75H520.07V236.75H510.07V220.75ZM524.078 222.75H526.078V226.75H524.078V222.75ZM526.078 226.75H532.078V228.75H526.078V226.75ZM532.078 234.75V236.75H526.078V234.75H532.078ZM526.078 234.75H524.078V232.75H526.078V234.75ZM532.078 228.75H534.078V234.75H532.078V228.75ZM526.078 220.75H532.078V222.75H526.078V220.75ZM532.078 222.75H534.078V224.75H532.078V222.75ZM560.094 228.75H562.094V230.75H560.094V232.75H556.094V234.75H552.094V236.75H550.094V222.75H552.094V224.75H556.094V226.75H560.094V228.75ZM574.102 228.75H576.102V230.75H574.102V232.75H570.102V234.75H566.102V236.75H564.102V222.75H566.102V224.75H570.102V226.75H574.102V228.75Z" fill="#EEEEEE"/>
<path d="M451 171.75H455V199.75H471V203.75H451V171.75ZM479.016 179.75H483.016V187.75H495.016V179.75H499.016V203.75H495.016V191.75H483.016V203.75H479.016V179.75ZM487.016 171.75H491.016V175.75H487.016V171.75ZM483.016 175.75H487.016V179.75H483.016V175.75ZM491.016 175.75H495.016V179.75H491.016V175.75ZM523.031 191.75H527.031V203.75H523.031V191.75ZM507.031 191.75H511.031V203.75H507.031V191.75ZM515.031 183.75H511.031V179.75H515.031V183.75ZM515.031 183.75H519.031V187.75H515.031V183.75ZM519.031 179.75H523.031V183.75H519.031V179.75ZM511.031 179.75H507.031V171.75H511.031V179.75ZM511.031 187.75H515.031V191.75H511.031V187.75ZM523.031 171.75H527.031V179.75H523.031V171.75ZM519.031 187.75H523.031V191.75H519.031V187.75Z" fill="#EEEEEE"/>
<path d="M383 196.75H384V202.75H383V196.75ZM384 202.75H387V203.75H384V202.75ZM387 196.75H388V202.75H387V196.75ZM384 195.75H387V196.75H384V195.75ZM390.004 195.75H394.004V196.75H391.004V199.75H394.004V201.75H393.004V200.75H391.004V203.75H390.004V195.75ZM394.004 196.75H395.004V199.75H394.004V196.75ZM394.004 201.75H395.004V203.75H394.004V201.75ZM399.008 202.75V196.75H397.008V195.75H402.008V196.75H400.008V202.75H402.008V203.75H397.008V202.75H399.008ZM404.012 196.75H405.012V202.75H404.012V196.75ZM405.012 202.75H408.012V203.75H405.012V202.75ZM408.012 200.75H407.012V199.75H409.012V202.75H408.012V200.75ZM405.012 195.75H408.012V196.75H405.012V195.75ZM408.012 196.75H409.012V197.75H408.012V196.75ZM413.016 202.75V196.75H411.016V195.75H416.016V196.75H414.016V202.75H416.016V203.75H411.016V202.75H413.016ZM418.02 195.75H419.02V197.75H420.02V198.75H419.02V203.75H418.02V195.75ZM422.02 200.75H421.02V199.75H422.02V195.75H423.02V203.75H422.02V200.75ZM421.02 199.75H420.02V198.75H421.02V199.75Z" fill="#EEEEEE"/>
<path d="M129 220.75H131V226.75H133V224.75H135V228.75H131V236.75H129V220.75ZM137 220.75H139V222.75H137V220.75ZM135 222.75H137V224.75H135V222.75ZM137 232.75H135V228.75H137V232.75ZM137 232.75H139V236.75H137V232.75ZM143.008 220.75H153.008V222.75H145.008V226.75H151.008V228.75H145.008V234.75H153.008V236.75H143.008V220.75ZM157.016 220.75H165.016V222.75H159.016V228.75H165.016V232.75H163.016V230.75H159.016V236.75H157.016V220.75ZM165.016 222.75H167.016V228.75H165.016V222.75ZM165.016 232.75H167.016V236.75H165.016V232.75ZM171.023 220.75H173.023V224.75H175.023V226.75H173.023V236.75H171.023V220.75ZM179.023 230.75H177.023V228.75H179.023V220.75H181.023V236.75H179.023V230.75ZM177.023 228.75H175.023V226.75H177.023V228.75ZM189.031 234.75V222.75H185.031V220.75H195.031V222.75H191.031V234.75H195.031V236.75H185.031V234.75H189.031ZM199.039 220.75H201.039V224.75H203.039V226.75H201.039V236.75H199.039V220.75ZM207.039 230.75H205.039V228.75H207.039V220.75H209.039V236.75H207.039V230.75ZM205.039 228.75H203.039V226.75H205.039V228.75ZM213.047 222.75H215.047V234.75H213.047V222.75ZM215.047 234.75H221.047V236.75H215.047V234.75ZM221.047 230.75L219.047 230.75V228.75L223.047 228.75V234.75H221.047V230.75ZM215.047 220.75L221.047 220.75V222.75L215.047 222.75V220.75ZM221.047 222.75H223.047V224.75H221.047V222.75ZM231.055 232.75H233.055V236.75H231.055V232.75ZM229.055 236.75H231.055V238.75H229.055V236.75ZM255.07 220.75H265.07V222.75H257.07V226.75H263.07V228.75H257.07V234.75H265.07V236.75H255.07V220.75ZM273.078 232.75H275.078V236.75H273.078V232.75Z" fill="#EEEEEE"/>
<path d="M128 195.75H132V196.75H129V199.75H132V200.75H129V203.75H128V195.75ZM132 196.75H133V199.75H132V196.75ZM135.004 197.75H136.004V199.75H139.004V197.75H140.004V203.75H139.004V200.75H136.004V203.75H135.004V197.75ZM137.004 195.75H138.004V196.75H137.004V195.75ZM136.004 196.75H137.004V197.75H136.004V196.75ZM138.004 196.75H139.004V197.75H138.004V196.75ZM142.008 196.75H143.008V198.75H142.008V196.75ZM143.008 198.75H146.008V199.75H143.008V198.75ZM146.008 202.75V203.75H143.008V202.75H146.008ZM143.008 202.75H142.008V201.75H143.008V202.75ZM146.008 199.75H147.008V202.75H146.008V199.75ZM143.008 195.75H146.008V196.75H143.008V195.75ZM146.008 196.75H147.008V197.75H146.008V196.75ZM149.012 196.75H150.012V198.75H149.012V196.75ZM150.012 198.75H153.012V199.75H150.012V198.75ZM153.012 202.75V203.75H150.012V202.75H153.012ZM150.012 202.75H149.012V201.75H150.012V202.75ZM153.012 199.75H154.012V202.75H153.012V199.75ZM150.012 195.75H153.012V196.75H150.012V195.75ZM153.012 196.75H154.012V197.75H153.012V196.75ZM156.016 195.75H161.016V196.75H157.016V198.75H160.016V199.75H157.016V202.75H161.016V203.75H156.016V195.75ZM163.02 195.75H164.02V197.75H165.02V198.75H164.02V203.75H163.02V195.75ZM167.02 200.75H166.02V199.75H167.02V195.75H168.02V203.75H167.02V200.75ZM166.02 199.75H165.02V198.75H166.02V199.75ZM170.023 196.75H171.023V202.75H170.023V196.75ZM171.023 202.75H174.023V203.75H171.023V202.75ZM174.023 200.75H173.023V199.75H175.023V202.75H174.023V200.75ZM171.023 195.75H174.023V196.75H171.023V195.75ZM174.023 196.75H175.023V197.75H174.023V196.75ZM177.027 195.75H182.027V196.75H178.027V198.75H181.027V199.75H178.027V202.75H182.027V203.75H177.027V195.75ZM184.031 195.75H188.031V196.75H185.031V199.75H188.031V201.75H187.031V200.75H185.031V203.75H184.031V195.75ZM188.031 196.75H189.031V199.75H188.031V196.75ZM188.031 201.75H189.031V203.75H188.031V201.75Z" fill="#EEEEEE"/>
<path d="M777 109.25H779V115.25H777V109.25ZM769 109.25H771V115.25H769V109.25ZM773 105.25H771V103.25H773V105.25ZM773 105.25H775V107.25H773V105.25ZM775 103.25H777V105.25H775V103.25ZM771 103.25H769V99.25H771V103.25ZM771 107.25H773V109.25H771V107.25ZM777 99.25H779V103.25H777V99.25ZM775 107.25H777V109.25H775V107.25ZM791.008 109.25H793.008V115.25H791.008V109.25ZM783.008 109.25H785.008V115.25H783.008V109.25ZM787.008 105.25H785.008V103.25H787.008V105.25ZM787.008 105.25H789.008V107.25H787.008V105.25ZM789.008 103.25H791.008V105.25H789.008V103.25ZM785.008 103.25H783.008V99.25H785.008V103.25ZM785.008 107.25H787.008V109.25H785.008V107.25ZM791.008 99.25H793.008V103.25H791.008V99.25ZM789.008 107.25H791.008V109.25H789.008V107.25ZM805.016 107.25V109.25H799.016V107.25H805.016ZM811.023 111.25H813.023V113.25H821.023V115.25H811.023V111.25ZM819.023 101.25L813.023 101.25V99.25L819.023 99.25V101.25ZM819.023 101.25H821.023V105.25H819.023V101.25ZM813.023 109.25H815.023V111.25H813.023V109.25ZM811.023 101.25H813.023V103.25H811.023V101.25ZM817.023 105.25H819.023V107.25H817.023V105.25ZM815.023 107.25L817.023 107.25V109.25L815.023 109.25V107.25ZM831.031 99.25H835.031V115.25H833.031V111.25H825.031V105.25H827.031V109.25H833.031V101.25H831.031V99.25ZM829.031 101.25H831.031V103.25H829.031V101.25ZM827.031 103.25H829.031V105.25H827.031V103.25ZM839.039 101.25H841.039V105.25H839.039V101.25ZM847.039 101.25H841.039V99.25H847.039V101.25ZM847.039 101.25H849.039V105.25H847.039V101.25ZM841.039 105.25H847.039V107.25H841.039V105.25ZM847.039 107.25H849.039V113.25H847.039V107.25ZM839.039 107.25H841.039V113.25H839.039V107.25ZM847.039 113.25V115.25H841.039V113.25H847.039ZM853.047 101.25H855.047V105.25H853.047V101.25ZM861.047 101.25H855.047V99.25H861.047V101.25ZM861.047 101.25H863.047V105.25H861.047V101.25ZM855.047 105.25H861.047V107.25H855.047V105.25ZM861.047 107.25H863.047V113.25H861.047V107.25ZM853.047 107.25H855.047V113.25H853.047V107.25ZM861.047 113.25V115.25H855.047V113.25H861.047ZM867.055 101.25H869.055V103.25H867.055V101.25ZM869.055 99.25H875.055V101.25H869.055V99.25ZM875.055 101.25H877.055V105.25H875.055V101.25ZM871.055 105.25H875.055V107.25H871.055V105.25ZM875.055 107.25H877.055V113.25H875.055V107.25ZM875.055 113.25V115.25H869.055V113.25H875.055ZM869.055 113.25H867.055V111.25H869.055V113.25ZM885.063 103.25H881.063V101.25H885.063V99.25H887.063V113.25L891.063 113.25V115.25L881.063 115.25V113.25H885.063V103.25ZM903.07 113.25V115.25H897.07V113.25H903.07ZM897.07 113.25H895.07V111.25H897.07V113.25ZM903.07 107.25V101.25H905.07V113.25H903.07V109.25H897.07V107.25H903.07ZM897.07 107.25H895.07V101.25H897.07V107.25ZM897.07 99.25H903.07V101.25H897.07V99.25ZM909.078 101.25H911.078V105.25H909.078V101.25ZM917.078 101.25H911.078V99.25H917.078V101.25ZM917.078 101.25H919.078V105.25H917.078V101.25ZM911.078 105.25H917.078V107.25H911.078V105.25ZM917.078 107.25H919.078V113.25H917.078V107.25ZM909.078 107.25H911.078V113.25H909.078V107.25ZM917.078 113.25V115.25H911.078V113.25H917.078ZM929.086 99.25H933.086V115.25H931.086V111.25H923.086V105.25H925.086V109.25H931.086V101.25H929.086V99.25ZM927.086 101.25H929.086V103.25H927.086V101.25ZM925.086 103.25H927.086V105.25H925.086V103.25ZM937.094 101.25H939.094V107.25H941.094V109.25H939.094V113.25H937.094V101.25ZM939.094 113.25H945.094V115.25H939.094V113.25ZM939.094 99.25H945.094V101.25H939.094V99.25ZM945.094 101.25H947.094V113.25H945.094V105.25H943.094V103.25H945.094V101.25ZM941.094 105.25H943.094V107.25H941.094V105.25Z" fill="#EEEEEE"/>
<path d="M634.412 46.25H655.412V88.25H634.412V46.25ZM658.424 46.25H661.424V49.25H658.424V46.25ZM655.424 49.25L658.424 49.25V52.25H655.424V49.25ZM661.424 49.25H664.424V52.25H661.424V49.25ZM670.424 46.25H673.424V49.25H670.424V46.25ZM667.424 49.25H670.424V52.25H667.424V49.25ZM664.424 52.25H667.424V55.25H664.424V52.25ZM673.424 52.25H676.424V55.25H673.424V52.25ZM667.424 55.25H670.424V58.25H667.424V55.25ZM658.424 55.25H661.424V58.25H658.424V55.25ZM664.424 64.25H661.424V61.25L664.424 61.25V64.25ZM664.424 64.25H667.424V67.25H664.424V64.25ZM673.424 58.25H676.424V61.25H673.424V58.25ZM667.424 61.25H664.424V58.25H667.424V61.25ZM667.424 61.25H670.424V64.25H667.424V61.25ZM655.424 61.25H658.424V64.25H655.424V61.25ZM661.424 67.25H664.424V70.25H661.424V67.25ZM670.424 64.25H673.424V67.25H670.424V64.25ZM655.424 67.25H658.424V70.25H655.424V67.25ZM658.424 73.25H661.424V76.25H658.424V73.25ZM664.424 73.25H667.424V76.25H664.424V73.25ZM667.424 70.25H670.424V73.25H667.424V70.25ZM673.424 70.25H676.424V73.25H673.424V70.25ZM670.424 76.25H673.424V79.25H670.424V76.25ZM655.424 76.25H658.424V79.25H655.424V76.25ZM658.424 79.25H661.424V82.25H658.424V79.25ZM664.424 79.25H667.424V82.25H664.424V79.25ZM661.424 82.25H664.424V85.25H661.424V82.25ZM667.424 82.25H670.424V85.25H667.424V82.25ZM664.424 85.25H667.424V88.25H664.424V85.25ZM655.424 82.25H658.424V85.25H655.424V82.25ZM673.424 85.25H676.424V88.25H673.424V85.25ZM673.424 79.25H676.424V82.25H673.424V79.25ZM676.436 46.25H679.436V49.25H682.436V52.25H679.436V55.25H676.436V46.25ZM682.436 46.25H685.436V49.25H682.436V46.25ZM694.436 46.25V49.25H697.436V52.25H694.436V55.25L697.436 55.25V61.25L694.436 61.25V58.25H691.436V61.25H688.436V64.25L691.436 64.25V61.25H694.436V64.25H697.436V73.25H694.436V70.25H691.436V67.25L688.436 67.25V70.25H685.436V67.25H682.436V64.25H685.436V61.25H682.436V58.25H679.436V55.25H682.436V52.25H685.436V49.25H688.436V46.25H694.436ZM691.436 52.25H688.436V55.25H685.436V58.25H688.436V55.25H691.436V52.25ZM676.436 58.25H679.436V61.25H682.436V64.25H679.436V67.25H676.436V58.25ZM676.436 70.25H679.436V67.25H682.436V70.25H685.436V73.25H688.436V70.25L691.436 70.25V73.25H694.436V76.25H691.436V79.25H688.436V82.25H691.436V79.25H694.436V82.25H697.436V88.25H694.436V85.25H691.436V88.25H688.436V85.25H685.436V82.25H682.436V79.25H685.436V76.25H682.436V73.25H679.436V76.25H682.436V79.25H679.436V82.25H676.436V70.25ZM694.436 76.25H697.436V79.25H694.436V76.25ZM679.436 82.25H682.436V85.25H685.436V88.25H676.436V85.25H679.436V82.25ZM697.447 46.25L700.447 46.25V49.25H703.447V52.25H700.447V55.25H697.447V46.25ZM703.447 46.25H706.447V49.25H703.447V46.25ZM715.447 46.25V49.25H718.447V52.25H715.447V55.25H718.447V61.25H715.447V58.25H712.447V61.25H709.447V64.25H712.447V61.25H715.447V64.25H718.447V73.25H715.447V70.25H712.447V67.25H709.447V70.25H706.447V67.25H703.447V64.25H706.447V61.25H703.447V58.25H700.447V55.25H703.447V52.25H706.447V49.25H709.447V46.25H715.447ZM712.447 52.25H709.447V55.25H706.447V58.25H709.447V55.25H712.447V52.25ZM697.447 58.25H700.447V61.25H703.447V64.25H700.447V67.25H697.447V58.25ZM697.447 70.25H700.447V67.25H703.447V70.25H706.447V73.25H709.447V70.25H712.447V73.25H715.447V76.25H712.447V79.25H709.447V82.25H712.447V79.25H715.447V82.25H718.447V88.25H715.447V85.25H712.447V88.25H709.447V85.25H706.447V82.25H703.447V79.25H706.447V76.25H703.447V73.25H700.447V76.25H703.447V79.25H700.447V82.25L697.447 82.25V70.25ZM715.447 76.25H718.447V79.25H715.447V76.25ZM700.447 82.25H703.447V85.25H706.447V88.25L697.447 88.25V85.25L700.447 85.25V82.25ZM718.459 46.25H721.459V49.25H724.459V52.25H721.459V55.25H718.459V46.25ZM724.459 46.25H727.459V49.25H724.459V46.25ZM736.459 46.25V49.25H739.459V52.25H736.459V55.25H739.459V61.25H736.459V58.25H733.459V61.25H730.459V64.25H733.459V61.25H736.459V64.25H739.459V73.25H736.459V70.25H733.459V67.25H730.459V70.25H727.459V67.25H724.459V64.25H727.459V61.25H724.459V58.25H721.459V55.25H724.459V52.25H727.459V49.25H730.459V46.25H736.459ZM733.459 52.25H730.459V55.25H727.459V58.25H730.459V55.25H733.459V52.25ZM718.459 58.25H721.459V61.25H724.459V64.25H721.459V67.25H718.459V58.25ZM718.459 70.25H721.459V67.25H724.459V70.25H727.459V73.25H730.459V70.25H733.459V73.25H736.459V76.25H733.459V79.25H730.459V82.25H733.459V79.25H736.459V82.25H739.459V88.25H736.459V85.25H733.459V88.25H730.459V85.25H727.459V82.25H724.459V79.25H727.459V76.25H724.459V73.25H721.459V76.25H724.459V79.25H721.459V82.25H718.459V70.25ZM736.459 76.25H739.459V79.25H736.459V76.25ZM721.459 82.25H724.459V85.25H727.459V88.25H718.459V85.25H721.459V82.25ZM739.471 46.25H742.471V49.25H745.471V52.25H742.471V55.25H739.471V46.25ZM745.471 46.25H748.471V49.25L745.471 49.25V46.25ZM757.471 46.25V49.25H760.471V52.25H757.471V55.25H760.471V61.25H757.471V58.25H754.471V61.25H751.471V64.25H754.471V61.25H757.471V64.25H760.471V73.25H757.471V70.25L754.471 70.25V67.25H751.471V70.25H748.471V67.25H745.471V64.25H748.471V61.25H745.471V58.25H742.471V55.25H745.471V52.25L748.471 52.25V49.25H751.471V46.25H757.471ZM754.471 52.25H751.471V55.25L748.471 55.25V58.25L751.471 58.25V55.25H754.471V52.25ZM739.471 58.25H742.471V61.25H745.471V64.25H742.471V67.25H739.471V58.25ZM739.471 70.25H742.471V67.25H745.471V70.25H748.471V73.25H751.471V70.25H754.471V73.25L757.471 73.25V76.25L754.471 76.25V79.25H751.471V82.25H754.471V79.25H757.471V82.25H760.471V88.25H757.471V85.25H754.471V88.25H751.471V85.25H748.471V82.25H745.471V79.25H748.471V76.25H745.471V73.25H742.471V76.25H745.471V79.25L742.471 79.25V82.25H739.471V70.25ZM757.471 76.25H760.471V79.25H757.471V76.25ZM742.471 82.25L745.471 82.25V85.25H748.471V88.25L739.471 88.25V85.25H742.471V82.25ZM760.482 46.25H763.482V49.25H766.482V52.25H763.482V55.25H760.482V46.25ZM766.482 46.25H769.482V49.25H766.482V46.25ZM778.482 46.25V49.25H781.482V52.25H778.482V55.25H781.482V61.25H778.482V58.25H775.482V61.25H772.482V64.25H775.482V61.25H778.482V64.25H781.482V73.25H778.482V70.25H775.482V67.25H772.482V70.25H769.482V67.25H766.482V64.25H769.482V61.25H766.482V58.25H763.482V55.25H766.482V52.25H769.482V49.25H772.482V46.25H778.482ZM775.482 52.25H772.482V55.25H769.482V58.25H772.482V55.25H775.482V52.25ZM760.482 58.25H763.482V61.25H766.482V64.25H763.482V67.25H760.482V58.25ZM760.482 70.25H763.482V67.25H766.482V70.25H769.482V73.25H772.482V70.25H775.482V73.25H778.482V76.25H775.482V79.25H772.482V82.25H775.482V79.25H778.482V82.25H781.482V88.25H778.482V85.25H775.482V88.25H772.482V85.25H769.482V82.25H766.482V79.25H769.482V76.25H766.482V73.25H763.482V76.25H766.482V79.25H763.482V82.25H760.482V70.25ZM778.482 76.25H781.482V79.25H778.482V76.25ZM763.482 82.25H766.482V85.25H769.482V88.25H760.482V85.25H763.482V82.25ZM781.494 46.25H784.494V49.25L787.494 49.25V52.25L784.494 52.25V55.25L781.494 55.25V46.25ZM787.494 46.25L790.494 46.25V49.25H787.494V46.25ZM799.494 46.25V49.25H802.494V52.25H799.494V55.25H802.494V61.25H799.494V58.25H796.494V61.25H793.494V64.25H796.494V61.25H799.494V64.25H802.494V73.25H799.494V70.25H796.494V67.25H793.494V70.25H790.494V67.25H787.494V64.25H790.494V61.25H787.494V58.25H784.494V55.25H787.494V52.25H790.494V49.25H793.494V46.25H799.494ZM796.494 52.25H793.494V55.25H790.494V58.25H793.494V55.25H796.494V52.25ZM781.494 58.25L784.494 58.25V61.25H787.494V64.25H784.494V67.25H781.494V58.25ZM781.494 70.25H784.494V67.25H787.494V70.25H790.494V73.25H793.494V70.25H796.494V73.25H799.494V76.25H796.494V79.25H793.494V82.25H796.494V79.25H799.494V82.25H802.494V88.25H799.494V85.25H796.494V88.25H793.494V85.25H790.494V82.25H787.494V79.25H790.494V76.25H787.494V73.25H784.494V76.25H787.494V79.25H784.494V82.25H781.494V70.25ZM799.494 76.25H802.494V79.25H799.494V76.25ZM784.494 82.25H787.494V85.25H790.494V88.25H781.494V85.25H784.494V82.25ZM802.506 46.25H805.506V49.25H808.506V52.25H805.506V55.25H802.506V46.25ZM808.506 46.25H811.506V49.25H808.506V46.25ZM820.506 46.25V49.25H823.506V52.25H820.506V55.25H823.506V61.25H820.506V58.25H817.506V61.25H814.506V64.25H817.506V61.25H820.506V64.25H823.506V73.25H820.506V70.25H817.506V67.25H814.506V70.25H811.506V67.25H808.506V64.25H811.506V61.25H808.506V58.25H805.506V55.25H808.506V52.25H811.506V49.25H814.506V46.25H820.506ZM817.506 52.25H814.506V55.25H811.506V58.25H814.506V55.25H817.506V52.25ZM802.506 58.25H805.506V61.25H808.506V64.25H805.506V67.25H802.506V58.25ZM802.506 70.25H805.506V67.25H808.506V70.25H811.506V73.25H814.506V70.25H817.506V73.25H820.506V76.25H817.506V79.25H814.506V82.25H817.506V79.25H820.506V82.25H823.506V88.25H820.506V85.25H817.506V88.25H814.506V85.25H811.506V82.25H808.506V79.25H811.506V76.25H808.506V73.25H805.506V76.25H808.506V79.25H805.506V82.25H802.506V70.25ZM820.506 76.25H823.506V79.25H820.506V76.25ZM805.506 82.25H808.506V85.25H811.506V88.25H802.506V85.25H805.506V82.25ZM823.518 46.25H826.518V49.25H829.518V52.25H826.518V55.25H823.518V46.25ZM829.518 46.25H832.518V49.25H829.518V46.25ZM841.518 46.25V49.25H844.518V52.25H841.518V55.25H844.518V61.25H841.518V58.25H838.518V61.25L835.518 61.25V64.25H838.518V61.25H841.518V64.25H844.518V73.25H841.518V70.25H838.518V67.25H835.518V70.25H832.518V67.25H829.518V64.25H832.518V61.25H829.518V58.25H826.518V55.25H829.518V52.25H832.518V49.25L835.518 49.25V46.25H841.518ZM838.518 52.25L835.518 52.25V55.25H832.518V58.25H835.518V55.25L838.518 55.25V52.25ZM823.518 58.25H826.518V61.25H829.518V64.25H826.518V67.25H823.518V58.25ZM823.518 70.25H826.518V67.25H829.518V70.25H832.518V73.25H835.518V70.25H838.518V73.25H841.518V76.25H838.518V79.25H835.518V82.25H838.518V79.25H841.518V82.25H844.518V88.25H841.518V85.25H838.518V88.25H835.518V85.25H832.518V82.25H829.518V79.25H832.518V76.25H829.518V73.25H826.518V76.25H829.518V79.25H826.518V82.25H823.518V70.25ZM841.518 76.25H844.518V79.25H841.518V76.25ZM826.518 82.25H829.518V85.25H832.518V88.25H823.518V85.25H826.518V82.25ZM844.529 46.25H847.529V49.25H850.529V52.25H847.529V55.25H844.529V46.25ZM850.529 46.25H853.529V49.25H850.529V46.25ZM862.529 46.25V49.25H865.529V52.25H862.529V55.25H865.529V61.25H862.529V58.25H859.529V61.25H856.529V64.25H859.529V61.25H862.529V64.25H865.529V73.25H862.529V70.25H859.529V67.25H856.529V70.25H853.529V67.25H850.529V64.25H853.529V61.25H850.529V58.25H847.529V55.25H850.529V52.25H853.529V49.25H856.529V46.25H862.529ZM859.529 52.25H856.529V55.25H853.529V58.25H856.529V55.25H859.529V52.25ZM844.529 58.25H847.529V61.25H850.529V64.25H847.529V67.25H844.529V58.25ZM844.529 70.25H847.529V67.25H850.529V70.25H853.529V73.25H856.529V70.25H859.529V73.25H862.529V76.25H859.529V79.25H856.529V82.25H859.529V79.25H862.529V82.25H865.529V88.25H862.529V85.25H859.529V88.25H856.529V85.25H853.529V82.25H850.529V79.25H853.529V76.25H850.529V73.25H847.529V76.25H850.529V79.25H847.529V82.25H844.529V70.25ZM862.529 76.25H865.529V79.25H862.529V76.25ZM847.529 82.25H850.529V85.25H853.529V88.25H844.529V85.25H847.529V82.25ZM865.541 46.25H868.541V49.25H871.541V52.25H868.541V55.25H865.541V46.25ZM871.541 46.25H874.541V49.25H871.541V46.25ZM883.541 46.25V49.25H886.541V52.25H883.541V55.25H886.541V61.25H883.541V58.25H880.541V61.25H877.541V64.25H880.541V61.25H883.541V64.25H886.541V73.25H883.541V70.25H880.541V67.25H877.541V70.25H874.541V67.25H871.541V64.25H874.541V61.25H871.541V58.25L868.541 58.25V55.25L871.541 55.25V52.25L874.541 52.25V49.25L877.541 49.25V46.25H883.541ZM880.541 52.25H877.541V55.25H874.541V58.25H877.541V55.25H880.541V52.25ZM865.541 58.25H868.541V61.25L871.541 61.25V64.25H868.541V67.25L865.541 67.25V58.25ZM865.541 70.25L868.541 70.25V67.25H871.541V70.25H874.541V73.25H877.541V70.25H880.541V73.25H883.541V76.25H880.541V79.25H877.541V82.25H880.541V79.25H883.541V82.25H886.541V88.25H883.541V85.25H880.541V88.25H877.541V85.25L874.541 85.25V82.25H871.541V79.25H874.541V76.25H871.541V73.25H868.541V76.25H871.541V79.25H868.541V82.25H865.541V70.25ZM883.541 76.25H886.541V79.25H883.541V76.25ZM868.541 82.25H871.541V85.25H874.541V88.25H865.541V85.25H868.541V82.25ZM886.553 46.25H889.553V49.25H892.553V52.25H889.553V55.25H886.553V46.25ZM892.553 46.25H895.553V49.25H892.553V46.25ZM904.553 46.25V49.25H907.553V52.25H904.553V55.25H907.553V61.25H904.553V58.25H901.553V61.25H898.553V64.25H901.553V61.25H904.553V64.25H907.553V73.25H904.553V70.25H901.553V67.25H898.553V70.25H895.553V67.25H892.553V64.25H895.553V61.25H892.553V58.25H889.553V55.25H892.553V52.25H895.553V49.25H898.553V46.25H904.553ZM901.553 52.25H898.553V55.25H895.553V58.25H898.553V55.25H901.553V52.25ZM886.553 58.25H889.553V61.25H892.553V64.25H889.553V67.25H886.553V58.25ZM886.553 70.25H889.553V67.25H892.553V70.25H895.553V73.25H898.553V70.25H901.553V73.25H904.553V76.25H901.553V79.25H898.553V82.25H901.553V79.25H904.553V82.25H907.553V88.25H904.553V85.25H901.553V88.25H898.553V85.25H895.553V82.25H892.553V79.25H895.553V76.25H892.553V73.25H889.553V76.25H892.553V79.25H889.553V82.25H886.553V70.25ZM904.553 76.25H907.553V79.25H904.553V76.25ZM889.553 82.25H892.553V85.25H895.553V88.25H886.553V85.25H889.553V82.25ZM907.564 46.25L928.564 46.25V88.25L907.564 88.25V46.25ZM931.576 46.25H934.576V49.25H931.576V46.25ZM928.576 49.25H931.576V52.25H928.576V49.25ZM934.576 49.25H937.576V52.25H934.576V49.25ZM943.576 46.25H946.576V49.25H943.576V46.25ZM940.576 49.25H943.576V52.25H940.576V49.25ZM937.576 52.25H940.576V55.25H937.576V52.25ZM946.576 52.25H949.576V55.25H946.576V52.25ZM940.576 55.25H943.576V58.25H940.576V55.25ZM931.576 55.25H934.576V58.25H931.576V55.25ZM937.576 64.25H934.576V61.25H937.576V64.25ZM937.576 64.25H940.576V67.25H937.576V64.25ZM946.576 58.25H949.576V61.25H946.576V58.25ZM940.576 61.25H937.576V58.25H940.576V61.25ZM940.576 61.25H943.576V64.25H940.576V61.25ZM928.576 61.25H931.576V64.25H928.576V61.25ZM934.576 67.25H937.576V70.25H934.576V67.25ZM943.576 64.25H946.576V67.25H943.576V64.25ZM928.576 67.25H931.576V70.25H928.576V67.25ZM931.576 73.25L934.576 73.25V76.25L931.576 76.25V73.25ZM937.576 73.25H940.576V76.25H937.576V73.25ZM940.576 70.25H943.576V73.25H940.576V70.25ZM946.576 70.25H949.576V73.25H946.576V70.25ZM943.576 76.25H946.576V79.25H943.576V76.25ZM928.576 76.25H931.576V79.25H928.576V76.25ZM931.576 79.25H934.576V82.25H931.576V79.25ZM937.576 79.25H940.576V82.25H937.576V79.25ZM934.576 82.25H937.576V85.25H934.576V82.25ZM940.576 82.25H943.576V85.25H940.576V82.25ZM937.576 85.25H940.576V88.25H937.576V85.25ZM928.576 82.25H931.576V85.25H928.576V82.25ZM946.576 85.25H949.576V88.25H946.576V85.25ZM946.576 79.25H949.576V82.25H946.576V79.25Z" fill="#EEEEEE"/>
<path d="M127 39.75H141V67.75H127V39.75ZM157.016 45.75H159.016V51.75H161.016V49.75H163.016V53.75H159.016V61.75H157.016V45.75ZM165.016 45.75H167.016V47.75H165.016V45.75ZM163.016 47.75H165.016V49.75H163.016V47.75ZM165.016 57.75H163.016V53.75H165.016V57.75ZM165.016 57.75H167.016V61.75H165.016V57.75ZM171.023 49.75H173.023V53.75H179.023V49.75H181.023V61.75H179.023V55.75H173.023V61.75H171.023V49.75ZM175.023 45.75H177.023V47.75H175.023V45.75ZM173.023 47.75H175.023V49.75H173.023V47.75ZM177.023 47.75H179.023V49.75H177.023V47.75ZM177.023 39.75H179.023V41.75H177.023V39.75ZM175.023 41.75H177.023V43.75H175.023V41.75ZM185.031 45.75L193.031 45.75V47.75L187.031 47.75V53.75L193.031 53.75V57.75H191.031V55.75L187.031 55.75V61.75H185.031V45.75ZM193.031 47.75H195.031V53.75H193.031V47.75ZM193.031 57.75H195.031V61.75H193.031V57.75ZM199.039 45.75H201.039V49.75H203.039V51.75H201.039V61.75H199.039V45.75ZM207.039 51.75H205.039V49.75H207.039V45.75H209.039V61.75H207.039V51.75ZM203.039 51.75H205.039V55.75H203.039V51.75ZM213.047 49.75H215.047V53.75H221.047V49.75H223.047V61.75H221.047V55.75H215.047V61.75H213.047V49.75ZM217.047 45.75H219.047V47.75H217.047V45.75ZM215.047 47.75H217.047V49.75H215.047V47.75ZM219.047 47.75H221.047V49.75H219.047V47.75ZM219.047 39.75H221.047V41.75H219.047V39.75ZM217.047 41.75H219.047V43.75H217.047V41.75ZM227.055 45.75H229.055V49.75H231.055V51.75H229.055V61.75H227.055V45.75ZM235.055 55.75H233.055V53.75H235.055V45.75H237.055V61.75H235.055V55.75ZM233.055 53.75H231.055V51.75H233.055V53.75ZM255.07 47.75H257.07V51.75H255.07V47.75ZM257.07 51.75H263.07V53.75H257.07V51.75ZM263.07 59.75V61.75H257.07V59.75H263.07ZM257.07 59.75H255.07V57.75H257.07V59.75ZM263.07 53.75H265.07V59.75H263.07V53.75ZM257.07 45.75H263.07V47.75H257.07V45.75ZM263.07 47.75H265.07V49.75H263.07V47.75ZM269.078 45.75H277.078V47.75L271.078 47.75V53.75L277.078 53.75V55.75L271.078 55.75V61.75L269.078 61.75V45.75ZM277.078 47.75H279.078V53.75H277.078V47.75ZM283.086 49.75H285.086V53.75H291.086V49.75H293.086V61.75H291.086V55.75H285.086V61.75H283.086V49.75ZM287.086 45.75H289.086V47.75H287.086V45.75ZM285.086 47.75H287.086V49.75H285.086V47.75ZM289.086 47.75H291.086V49.75H289.086V47.75ZM297.094 47.75H299.094V59.75H297.094V47.75ZM299.094 59.75H305.094V61.75H299.094V59.75ZM305.094 57.75H307.094V59.75H305.094V57.75ZM299.094 45.75H305.094V47.75H299.094V45.75ZM305.094 47.75H307.094V49.75H305.094V47.75ZM311.102 45.75H321.102V47.75H313.102V51.75H319.102V53.75H313.102V59.75H321.102V61.75H311.102V45.75ZM325.109 45.75H327.109V59.75H335.109V61.75H325.109V45.75ZM343.117 59.75V47.75H339.117V45.75H349.117V47.75H345.117V59.75H349.117V61.75H339.117V59.75H343.117ZM353.125 45.75H355.125V49.75H357.125V51.75H355.125V61.75H353.125V45.75ZM361.125 55.75H359.125V53.75H361.125V45.75H363.125V61.75H361.125V55.75ZM359.125 53.75H357.125V51.75H359.125V53.75ZM367.133 45.75L377.133 45.75V47.75H369.133V51.75H375.133V53.75H369.133V59.75H377.133V61.75H367.133V45.75ZM381.141 47.75H383.141V51.75H381.141V47.75ZM383.141 51.75H389.141V53.75H383.141V51.75ZM389.141 59.75V61.75H383.141V59.75H389.141ZM383.141 59.75H381.141V57.75H383.141V59.75ZM389.141 53.75H391.141V59.75H389.141V53.75ZM383.141 45.75H389.141V47.75H383.141V45.75ZM389.141 47.75H391.141V49.75H389.141V47.75ZM127 67.75H141V95.75H127L127 67.75ZM157.016 73.75H165.016V75.75H159.016V79.75H165.016V81.75H159.016V87.75H165.016V89.75H157.016V73.75ZM165.016 81.75H167.016V87.75H165.016V81.75ZM165.016 75.75H167.016V79.75H165.016V75.75ZM171.023 75.75H173.023V87.75H171.023V75.75ZM173.023 87.75H179.023V89.75H173.023V87.75ZM179.023 75.75H181.023V87.75H179.023V75.75ZM173.023 73.75H179.023V75.75H173.023V73.75ZM185.031 77.75H187.031V81.75H193.031V77.75L195.031 77.75V89.75L193.031 89.75V83.75H187.031V89.75H185.031V77.75ZM189.031 73.75H191.031V75.75H189.031V73.75ZM187.031 75.75H189.031V77.75H187.031V75.75ZM191.031 75.75H193.031V77.75H191.031V75.75ZM199.039 73.75H207.039V75.75H201.039V81.75H207.039V85.75H205.039V83.75H201.039V89.75H199.039V73.75ZM207.039 75.75H209.039V81.75H207.039V75.75ZM207.039 85.75H209.039V89.75H207.039V85.75ZM213.047 73.75H221.047V75.75H215.047V87.75H221.047V89.75H213.047V73.75ZM221.047 75.75H223.047V87.75H221.047V75.75ZM231.055 87.75V75.75H227.055V73.75H237.055V75.75H233.055V87.75H237.055V89.75H227.055V87.75H231.055ZM241.063 73.75H243.063V77.75H245.063V79.75H243.063V89.75H241.063V73.75ZM249.063 83.75H247.063V81.75H249.063V73.75H251.063V89.75H249.063V83.75ZM247.063 81.75H245.063V79.75H247.063V81.75ZM255.07 75.75H257.07V87.75H255.07V75.75ZM257.07 87.75H263.07V89.75H257.07V87.75ZM263.07 83.75H261.07V81.75H265.07V87.75H263.07V83.75ZM257.07 73.75H263.07V75.75H257.07V73.75ZM263.07 75.75H265.07V77.75H263.07V75.75ZM283.086 73.75H291.086V75.75H285.086V81.75H291.086V83.75H285.086V89.75H283.086V73.75ZM291.086 75.75H293.086V81.75H291.086V75.75ZM297.094 77.75H299.094V81.75H305.094V77.75H307.094V89.75H305.094V83.75H299.094V89.75H297.094V77.75ZM301.094 73.75H303.094V75.75H301.094V73.75ZM299.094 75.75H301.094V77.75H299.094V75.75ZM303.094 75.75H305.094V77.75H303.094V75.75ZM311.102 75.75H313.102V79.75H311.102V75.75ZM313.102 79.75H319.102V81.75H313.102V79.75ZM319.102 87.75V89.75H313.102V87.75H319.102ZM313.102 87.75H311.102V85.75H313.102V87.75ZM319.102 81.75H321.102V87.75H319.102V81.75ZM313.102 73.75H319.102V75.75H313.102V73.75ZM319.102 75.75H321.102V77.75H319.102V75.75ZM325.109 75.75H327.109V79.75H325.109V75.75ZM327.109 79.75H333.109V81.75H327.109V79.75ZM333.109 87.75V89.75H327.109V87.75H333.109ZM327.109 87.75H325.109V85.75H327.109V87.75ZM333.109 81.75H335.109V87.75H333.109V81.75ZM327.109 73.75H333.109V75.75H327.109V73.75ZM333.109 75.75H335.109V77.75H333.109V75.75Z" fill="#EEEEEE"/>
<path d="M36 407.25L36 403.25L37 403.25L37 406.25L43 406.25L43 403.25L44 403.25L44 407.25L36 407.25ZM37 403.25L37 402.25L43 402.25L43 403.25L37 403.25ZM37 400.246L37 399.246L43 399.246L43 400.246L37 400.246ZM43 399.246L43 396.246L44 396.246L44 399.246L43 399.246ZM37 396.246L37 395.246L43 395.246L43 396.246L37 396.246ZM36 399.246L36 396.246L37 396.246L37 399.246L36 399.246ZM36 386.238L36 385.238L38 385.238L38 384.238L39 384.238L39 385.238L44 385.238L44 386.238L36 386.238ZM41 382.238L41 383.238L40 383.238L40 382.238L36 382.238L36 381.238L44 381.238L44 382.238L41 382.238ZM40 383.238L40 384.238L39 384.238L39 383.238L40 383.238ZM37 379.234L37 378.234L43 378.234L43 379.234L37 379.234ZM43 378.234L43 375.234L44 375.234L44 378.234L43 378.234ZM37 375.234L37 374.234L43 374.234L43 375.234L37 375.234ZM36 378.234L36 375.234L37 375.234L37 378.234L36 378.234ZM36 372.23L36 367.23L37 367.23L37 369.23L44 369.23L44 370.23L37 370.23L37 372.23L36 372.23ZM36 358.223L36 353.223L37 353.223L37 357.223L39 357.223L39 354.223L40 354.223L40 357.223L43 357.223L43 353.223L44 353.223L44 358.223L36 358.223ZM41 347.219L41 346.219L44 346.219L44 347.219L41 347.219ZM41 351.219L41 350.219L44 350.219L44 351.219L41 351.219ZM39 349.219L39 350.219L38 350.219L38 349.219L39 349.219ZM39 349.219L39 348.219L40 348.219L40 349.219L39 349.219ZM38 348.219L38 347.219L39 347.219L39 348.219L38 348.219ZM38 350.219L38 351.219L36 351.219L36 350.219L38 350.219ZM40 350.219L40 349.219L41 349.219L41 350.219L40 350.219ZM36 347.219L36 346.219L38 346.219L38 347.219L36 347.219ZM40 348.219L40 347.219L41 347.219L41 348.219L40 348.219ZM36 344.215L36 340.215L37 340.215L37 343.215L40 343.215L40 340.215L41 340.215L41 343.215L44 343.215L44 344.215L36 344.215ZM37 340.215L37 339.215L40 339.215L40 340.215L37 340.215ZM37 337.211L37 336.211L43 336.211L43 337.211L37 337.211ZM43 336.211L43 333.211L44 333.211L44 336.211L43 336.211ZM37 333.211L37 332.211L43 332.211L43 333.211L37 333.211ZM36 336.211L36 333.211L37 333.211L37 336.211L36 336.211ZM37 330.207L37 329.207L39 329.207L39 330.207L37 330.207ZM39 329.207L39 326.207L40 326.207L40 329.207L39 329.207ZM43 326.207L44 326.207L44 329.207L43 329.207L43 326.207ZM43 329.207L43 330.207L42 330.207L42 329.207L43 329.207ZM40 326.207L40 325.207L43 325.207L43 326.207L40 326.207ZM36 329.207L36 326.207L37 326.207L37 329.207L36 329.207ZM37 326.207L37 325.207L38 325.207L38 326.207L37 326.207ZM36 323.203L36 318.203L37 318.203L37 322.203L39 322.203L39 319.203L40 319.203L40 322.203L43 322.203L43 318.203L44 318.203L44 323.203L36 323.203ZM36 309.195L36 304.195L37 304.195L37 306.195L44 306.195L44 307.195L37 307.195L37 309.195L36 309.195ZM37 302.191L37 301.191L43 301.191L43 302.191L37 302.191ZM43 301.191L43 298.191L44 298.191L44 301.191L43 301.191ZM37 298.191L37 297.191L43 297.191L43 298.191L37 298.191ZM36 301.191L36 298.191L37 298.191L37 301.191L36 301.191ZM36 288.184L36 283.184L37 283.184L37 287.184L39 287.184L39 284.184L40 284.184L40 287.184L43 287.184L43 283.184L44 283.184L44 288.184L36 288.184ZM41 277.18L41 276.18L44 276.18L44 277.18L41 277.18ZM41 281.18L41 280.18L44 280.18L44 281.18L41 281.18ZM39 279.18L39 280.18L38 280.18L38 279.18L39 279.18ZM39 279.18L39 278.18L40 278.18L40 279.18L39 279.18ZM38 278.18L38 277.18L39 277.18L39 278.18L38 278.18ZM38 280.18L38 281.18L36 281.18L36 280.18L38 280.18ZM40 280.18L40 279.18L41 279.18L41 280.18L40 280.18ZM36 277.18L36 276.18L38 276.18L38 277.18L36 277.18ZM40 278.18L40 277.18L41 277.18L41 278.18L40 278.18ZM37 274.176L37 273.176L43 273.176L43 274.176L37 274.176ZM43 273.176L43 270.176L44 270.176L44 273.176L43 273.176ZM42 270.176L42 269.176L43 269.176L43 270.176L42 270.176ZM36 273.176L36 270.176L37 270.176L37 273.176L36 273.176ZM37 270.176L37 269.176L38 269.176L38 270.176L37 270.176ZM36 267.172L36 262.172L37 262.172L37 266.172L39 266.172L39 263.172L40 263.172L40 266.172L43 266.172L43 262.172L44 262.172L44 267.172L36 267.172ZM37 260.168L37 259.168L39 259.168L39 260.168L37 260.168ZM39 259.168L39 256.168L40 256.168L40 259.168L39 259.168ZM43 256.168L44 256.168L44 259.168L43 259.168L43 256.168ZM43 259.168L43 260.168L42 260.168L42 259.168L43 259.168ZM40 256.168L40 255.168L43 255.168L43 256.168L40 256.168ZM36 259.168L36 256.168L37 256.168L37 259.168L36 259.168ZM37 256.168L37 255.168L38 255.168L38 256.168L37 256.168ZM37 253.164L37 252.164L39 252.164L39 253.164L37 253.164ZM39 252.164L39 249.164L40 249.164L40 252.164L39 252.164ZM43 249.164L44 249.164L44 252.164L43 252.164L43 249.164ZM43 252.164L43 253.164L42 253.164L42 252.164L43 252.164ZM40 249.164L40 248.164L43 248.164L43 249.164L40 249.164ZM36 252.164L36 249.164L37 249.164L37 252.164L36 252.164ZM37 249.164L37 248.164L38 248.164L38 249.164L37 249.164ZM43 244.16L37 244.16L37 246.16L36 246.16L36 241.16L37 241.16L37 243.16L43 243.16L43 241.16L44 241.16L44 246.16L43 246.16L43 244.16ZM43 237.156L43 238.156L41 238.156L41 237.156L43 237.156ZM43 237.156L43 236.156L44 236.156L44 237.156L43 237.156ZM36 239.156L36 238.156L41 238.156L41 239.156L36 239.156ZM36 235.156L36 234.156L41 234.156L41 235.156L36 235.156ZM41 236.156L41 235.156L43 235.156L43 236.156L41 236.156ZM36 232.152L36 227.152L37 227.152L37 231.152L39 231.152L39 228.152L40 228.152L40 231.152L43 231.152L43 227.152L44 227.152L44 232.152L36 232.152ZM36 218.145L36 217.145L39 217.145L39 214.145L36 214.145L36 213.145L44 213.145L44 214.145L40 214.145L40 217.145L44 217.145L44 218.145L36 218.145ZM36 211.141L36 206.141L37 206.141L37 210.141L39 210.141L39 207.141L40 207.141L40 210.141L43 210.141L43 206.141L44 206.141L44 211.141L36 211.141ZM38 204.137L38 203.137L40 203.137L40 200.137L38 200.137L38 199.137L44 199.137L44 200.137L41 200.137L41 203.137L44 203.137L44 204.137L38 204.137ZM36 202.137L36 201.137L37 201.137L37 202.137L36 202.137ZM37 203.137L37 202.137L38 202.137L38 203.137L37 203.137ZM37 201.137L37 200.137L38 200.137L38 201.137L37 201.137ZM36 197.133L36 192.133L37 192.133L37 194.133L44 194.133L44 195.133L37 195.133L37 197.133L36 197.133ZM37 183.125L37 182.125L43 182.125L43 183.125L37 183.125ZM43 182.125L43 179.125L44 179.125L44 182.125L43 182.125ZM37 179.125L37 178.125L43 178.125L43 179.125L37 179.125ZM36 182.125L36 179.125L37 179.125L37 182.125L36 182.125ZM36 176.121L36 172.121L37 172.121L37 175.121L40 175.121L40 172.121L42 172.121L42 173.121L41 173.121L41 175.121L44 175.121L44 176.121L36 176.121ZM37 172.121L37 171.121L40 171.121L40 172.121L37 172.121ZM42 172.121L42 171.121L44 171.121L44 172.121L42 172.121ZM36 162.113L36 158.113L37 158.113L37 161.113L43 161.113L43 158.113L44 158.113L44 162.113L36 162.113ZM37 158.113L37 157.113L43 157.113L43 158.113L37 158.113ZM43 153.109L37 153.109L37 155.109L36 155.109L36 150.109L37 150.109L37 152.109L43 152.109L43 150.109L44 150.109L44 155.109L43 155.109L43 153.109ZM36 148.105L36 144.105L37 144.105L37 147.105L40 147.105L40 144.105L42 144.105L42 145.105L41 145.105L41 147.105L44 147.105L44 148.105L36 148.105ZM37 144.105L37 143.105L40 143.105L40 144.105L37 144.105ZM42 144.105L42 143.105L44 143.105L44 144.105L42 144.105ZM36 141.102L36 136.102L37 136.102L37 140.102L39 140.102L39 137.102L40 137.102L40 140.102L43 140.102L43 136.102L44 136.102L44 141.102L36 141.102ZM37 134.098L37 133.098L43 133.098L43 134.098L37 134.098ZM43 133.098L43 130.098L44 130.098L44 133.098L43 133.098ZM42 130.098L42 129.098L43 129.098L43 130.098L42 130.098ZM36 133.098L36 130.098L37 130.098L37 133.098L36 133.098ZM37 130.098L37 129.098L38 129.098L38 130.098L37 130.098ZM36 127.094L36 122.094L37 122.094L37 124.094L44 124.094L44 125.094L37 125.094L37 127.094L36 127.094ZM37 113.086L37 112.086L39 112.086L39 113.086L37 113.086ZM39 112.086L39 109.086L40 109.086L40 112.086L39 112.086ZM43 109.086L44 109.086L44 112.086L43 112.086L43 109.086ZM43 112.086L43 113.086L42 113.086L42 112.086L43 112.086ZM40 109.086L40 108.086L43 108.086L43 109.086L40 109.086ZM36 112.086L36 109.086L37 109.086L37 112.086L36 112.086ZM37 109.086L37 108.086L38 108.086L38 109.086L37 109.086ZM36 106.082L36 105.082L43 105.082L43 106.082L36 106.082ZM43 105.082L43 102.082L44 102.082L44 105.082L43 105.082ZM36 102.082L36 101.082L43 101.082L43 102.082L36 102.082ZM36 99.0781L36 98.0781L38 98.0781L38 97.0781L39 97.0781L39 98.0781L44 98.0781L44 99.0781L36 99.0781ZM41 95.0781L41 96.0781L40 96.0781L40 95.0781L36 95.0781L36 94.0781L44 94.0781L44 95.0781L41 95.0781ZM40 96.0781L40 97.0781L39 97.0781L39 96.0781L40 96.0781ZM36 92.0742L36 91.0742L43 91.0742L43 87.0742L44 87.0742L44 92.0742L36 92.0742ZM43 83.0703L37 83.0703L37 85.0703L36 85.0703L36 80.0703L37 80.0703L37 82.0703L43 82.0703L43 80.0703L44 80.0703L44 85.0703L43 85.0703L43 83.0703ZM37 78.0664L37 77.0664L43 77.0664L43 78.0664L37 78.0664ZM43 77.0664L43 74.0664L44 74.0664L44 77.0664L43 77.0664ZM41 74.0664L41 75.0664L40 75.0664L40 73.0664L43 73.0664L43 74.0664L41 74.0664ZM36 77.0664L36 74.0664L37 74.0664L37 77.0664L36 77.0664ZM37 74.0664L37 73.0664L38 73.0664L38 74.0664L37 74.0664ZM36 71.0625L36 70.0625L39 70.0625L39 67.0625L36 67.0625L36 66.0625L44 66.0625L44 67.0625L40 67.0625L40 70.0625L44 70.0625L44 71.0625L36 71.0625ZM36 64.0586L36 59.0586L37 59.0586L37 61.0586L44 61.0586L44 62.0586L37 62.0586L37 64.0586L36 64.0586Z" fill="#EEEEEE"/>
</svg>
