<svg width="1218" height="580" viewBox="0 0 1218 580" fill="none" xmlns="http://www.w3.org/2000/svg">
<g clip-path="url(#clip0_427_25117)">
<path d="M1070.25 5.75H1076.5V7H1071.5V9.5H1075.25V10.75H1071.5V14.5H1076.5V15.75H1070.25V5.75ZM1079 8.25H1080.25V10.75H1084V8.25H1085.25V15.75H1084V12H1080.25V15.75H1079V8.25ZM1081.5 5.75H1082.75V7H1081.5V5.75ZM1080.25 7H1081.5V8.25H1080.25V7ZM1082.75 7H1084V8.25H1082.75V7ZM1087.76 5.75H1092.76V7H1089.01V10.75H1092.76V13.25H1091.51V12H1089.01V15.75H1087.76V5.75ZM1092.76 7H1094.01V10.75H1092.76V7ZM1092.76 13.25H1094.01V15.75H1092.76V13.25ZM1096.51 5.75H1102.76V7H1100.26V15.75H1099.01V7H1096.51V5.75ZM1105.27 5.75H1106.52V9.5H1110.27V5.75H1111.52V15.75H1110.27V10.75H1106.52V15.75H1105.27V5.75ZM1122.78 5.75H1129.03V7H1126.53V15.75H1125.28V7H1122.78V5.75ZM1134.03 14.5V7H1131.53V5.75H1137.78V7H1135.28V14.5H1137.78V15.75H1131.53V14.5H1134.03ZM1140.29 5.75H1141.54V8.25H1142.79V9.5H1141.54V15.75H1140.29V5.75ZM1145.29 9.5H1144.04V8.25H1145.29V5.75H1146.54V15.75H1145.29V9.5ZM1142.79 9.5H1144.04V12H1142.79V9.5ZM1149.04 5.75H1155.29V7H1150.29V9.5H1154.04V10.75H1150.29V14.5H1155.29V15.75H1149.04V5.75ZM1160.3 13.25H1161.55V15.75H1160.3V13.25ZM1160.3 8.25H1161.55V10.75H1160.3V8.25ZM1070.25 21H1071.5V24.75H1072.75V26H1071.5V28.5H1070.25V21ZM1071.5 28.5H1075.25V29.75H1071.5V28.5ZM1071.5 19.75H1075.25V21H1071.5V19.75ZM1075.25 21H1076.5V28.5H1075.25V23.5H1074V22.25H1075.25V21ZM1072.75 23.5H1074V24.75H1072.75V23.5ZM1079 21H1080.25V24.75H1081.5V26H1080.25V28.5H1079V21ZM1080.25 28.5H1084V29.75H1080.25V28.5ZM1080.25 19.75H1084V21H1080.25V19.75ZM1084 21H1085.25V28.5H1084V23.5H1082.75V22.25H1084V21ZM1081.5 23.5H1082.75V24.75H1081.5V23.5ZM1090.26 27.25H1091.51V29.75H1090.26V27.25ZM1090.26 22.25H1091.51V24.75H1090.26V22.25ZM1096.51 21H1097.76V24.75H1099.01V26H1097.76V28.5H1096.51V21ZM1097.76 28.5H1101.51V29.75H1097.76V28.5ZM1097.76 19.75H1101.51V21H1097.76V19.75ZM1101.51 21H1102.76V28.5H1101.51V23.5H1100.26V22.25H1101.51V21ZM1099.01 23.5H1100.26V24.75H1099.01V23.5ZM1105.27 21H1106.52V24.75H1107.77V26H1106.52V28.5H1105.27V21ZM1106.52 28.5H1110.27V29.75H1106.52V28.5ZM1106.52 19.75H1110.27V21H1106.52V19.75ZM1110.27 21H1111.52V28.5H1110.27V23.5H1109.02V22.25H1110.27V21ZM1107.77 23.5H1109.02V24.75H1107.77V23.5ZM1116.52 27.25H1117.77V29.75H1116.52V27.25ZM1116.52 22.25H1117.77V24.75H1116.52V22.25ZM1122.78 21H1124.03V24.75H1125.28V26H1124.03V28.5H1122.78V21ZM1124.03 28.5H1127.78V29.75H1124.03V28.5ZM1124.03 19.75H1127.78V21H1124.03V19.75ZM1127.78 21H1129.03V28.5H1127.78V23.5H1126.53V22.25H1127.78V21ZM1125.28 23.5H1126.53V24.75H1125.28V23.5ZM1131.53 21H1132.78V24.75H1134.03V26H1132.78V28.5H1131.53V21ZM1132.78 28.5H1136.53V29.75H1132.78V28.5ZM1132.78 19.75H1136.53V21H1132.78V19.75ZM1136.53 21H1137.78V28.5H1136.53V23.5H1135.28V22.25H1136.53V21ZM1134.03 23.5H1135.28V24.75H1134.03V23.5ZM1142.79 27.25H1144.04V29.75H1142.79V27.25ZM1142.79 22.25H1144.04V24.75H1142.79V22.25ZM1149.04 21H1150.29V24.75H1151.54V26H1150.29V28.5H1149.04V21ZM1150.29 28.5H1154.04V29.75H1150.29V28.5ZM1150.29 19.75H1154.04V21H1150.29V19.75ZM1154.04 21H1155.29V28.5H1154.04V23.5H1152.79V22.25H1154.04V21ZM1151.54 23.5H1152.79V24.75H1151.54V23.5ZM1157.8 21H1159.05V24.75H1160.3V26H1159.05V28.5H1157.8V21ZM1159.05 28.5H1162.8V29.75H1159.05V28.5ZM1159.05 19.75H1162.8V21H1159.05V19.75ZM1162.8 21H1164.05V28.5H1162.8V23.5H1161.55V22.25H1162.8V21ZM1160.3 23.5H1161.55V24.75H1160.3V23.5Z" fill="#666666"/>
<path d="M9.25 5.75H15.5V7H10.5V9.5H14.25V10.75H10.5V14.5H15.5V15.75H9.25V5.75ZM18.0049 8.25H19.2549V10.75H23.0049V8.25H24.2549V15.75H23.0049V12H19.2549V15.75H18.0049V8.25ZM20.5049 5.75H21.7549V7H20.5049V5.75ZM19.2549 7H20.5049V8.25H19.2549V7ZM21.7549 7H23.0049V8.25H21.7549V7ZM26.7598 5.75H31.7598V7H28.0098V10.75H31.7598V13.25H30.5098V12H28.0098V15.75H26.7598V5.75ZM31.7598 7H33.0098V10.75H31.7598V7ZM31.7598 13.25H33.0098V15.75H31.7598V13.25ZM35.5146 5.75H41.7646V7H39.2646V15.75H38.0146V7H35.5146V5.75ZM44.2695 5.75H45.5195V9.5H49.2695V5.75H50.5195V15.75H49.2695V10.75H45.5195V15.75H44.2695V5.75ZM61.7793 5.75H68.0293V7H65.5293V15.75H64.2793V7H61.7793V5.75ZM73.0342 14.5V7H70.5342V5.75H76.7842V7H74.2842V14.5H76.7842V15.75H70.5342V14.5H73.0342ZM79.2891 5.75H80.5391V8.25H81.7891V9.5H80.5391V15.75H79.2891V5.75ZM84.2891 9.5H83.0391V8.25H84.2891V5.75H85.5391V15.75H84.2891V9.5ZM81.7891 9.5H83.0391V12H81.7891V9.5ZM88.0439 5.75H94.2939V7H89.2939V9.5H93.0439V10.75H89.2939V14.5H94.2939V15.75H88.0439V5.75ZM99.2988 13.25H100.549V15.75H99.2988V13.25ZM99.2988 8.25H100.549V10.75H99.2988V8.25ZM9.25 21H10.5V24.75H11.75V26H10.5V28.5H9.25V21ZM10.5 28.5H14.25V29.75H10.5V28.5ZM10.5 19.75H14.25V21H10.5V19.75ZM14.25 21H15.5V28.5H14.25V23.5H13V22.25H14.25V21ZM11.75 23.5H13V24.75H11.75V23.5ZM18.0049 21H19.2549V24.75H20.5049V26H19.2549V28.5H18.0049V21ZM19.2549 28.5H23.0049V29.75H19.2549V28.5ZM19.2549 19.75H23.0049V21H19.2549V19.75ZM23.0049 21H24.2549V28.5H23.0049V23.5H21.7549V22.25H23.0049V21ZM20.5049 23.5H21.7549V24.75H20.5049V23.5ZM29.2598 27.25H30.5098V29.75H29.2598V27.25ZM29.2598 22.25H30.5098V24.75H29.2598V22.25ZM35.5146 21H36.7646V24.75H38.0146V26H36.7646V28.5H35.5146V21ZM36.7646 28.5H40.5146V29.75H36.7646V28.5ZM36.7646 19.75H40.5146V21H36.7646V19.75ZM40.5146 21H41.7646V28.5H40.5146V23.5H39.2646V22.25H40.5146V21ZM38.0146 23.5H39.2646V24.75H38.0146V23.5ZM44.2695 21H45.5195V24.75H46.7695V26H45.5195V28.5H44.2695V21ZM45.5195 28.5H49.2695V29.75H45.5195V28.5ZM45.5195 19.75H49.2695V21H45.5195V19.75ZM49.2695 21H50.5195V28.5H49.2695V23.5H48.0195V22.25H49.2695V21ZM46.7695 23.5H48.0195V24.75H46.7695V23.5ZM55.5244 27.25H56.7744V29.75H55.5244V27.25ZM55.5244 22.25H56.7744V24.75H55.5244V22.25ZM61.7793 21H63.0293V24.75H64.2793V26H63.0293V28.5H61.7793V21ZM63.0293 28.5H66.7793V29.75H63.0293V28.5ZM63.0293 19.75H66.7793V21H63.0293V19.75ZM66.7793 21H68.0293V28.5H66.7793V23.5H65.5293V22.25H66.7793V21ZM64.2793 23.5H65.5293V24.75H64.2793V23.5ZM70.5342 21H71.7842V24.75H73.0342V26H71.7842V28.5H70.5342V21ZM71.7842 28.5H75.5342V29.75H71.7842V28.5ZM71.7842 19.75H75.5342V21H71.7842V19.75ZM75.5342 21H76.7842V28.5H75.5342V23.5H74.2842V22.25H75.5342V21ZM73.0342 23.5H74.2842V24.75H73.0342V23.5ZM81.7891 27.25H83.0391V29.75H81.7891V27.25ZM81.7891 22.25H83.0391V24.75H81.7891V22.25ZM88.0439 21H89.2939V24.75H90.5439V26H89.2939V28.5H88.0439V21ZM89.2939 28.5H93.0439V29.75H89.2939V28.5ZM89.2939 19.75H93.0439V21H89.2939V19.75ZM93.0439 21H94.2939V28.5H93.0439V23.5H91.7939V22.25H93.0439V21ZM90.5439 23.5H91.7939V24.75H90.5439V23.5ZM96.7988 21H98.0488V24.75H99.2988V26H98.0488V28.5H96.7988V21ZM98.0488 28.5H101.799V29.75H98.0488V28.5ZM98.0488 19.75H101.799V21H98.0488V19.75ZM101.799 21H103.049V28.5H101.799V23.5H100.549V22.25H101.799V21ZM99.2988 23.5H100.549V24.75H99.2988V23.5Z" fill="#666666"/>
<path d="M1072.75 85.5V78H1070.25V76.75H1076.5V78H1074V85.5H1076.5V86.75H1070.25V85.5H1072.75ZM1079 76.75H1080.25V79.25H1081.5V80.5H1080.25V86.75H1079V76.75ZM1084 83H1082.75V81.75H1084V76.75H1085.25V86.75H1084V83ZM1082.75 81.75H1081.5V80.5H1082.75V81.75ZM1087.76 76.75H1094.01V78H1091.51V86.75H1090.26V78H1087.76V76.75ZM1124.03 76.75H1127.78V78H1124.03V76.75ZM1122.78 78H1124.03V80.5H1127.78V81.75H1124.03V85.5H1122.78V78ZM1127.78 81.75H1129.03V85.5H1127.78V81.75ZM1124.03 85.5H1127.78V86.75H1124.03V85.5ZM1127.78 78H1129.03V79.25H1127.78V78ZM1131.53 78H1132.78V80.5H1131.53V78ZM1136.53 78H1132.78V76.75H1136.53V78ZM1136.53 78H1137.78V80.5H1136.53V78ZM1132.78 80.5H1136.53V81.75H1132.78V80.5ZM1136.53 81.75H1137.78V85.5H1136.53V81.75ZM1131.53 81.75H1132.78V85.5H1131.53V81.75ZM1136.53 85.5V86.75H1132.78V85.5H1136.53ZM1142.79 75.5H1144.04V76.75H1142.79V75.5ZM1141.54 76.75H1142.79V78H1141.54V76.75ZM1142.79 78H1144.04V79.25H1142.79V78ZM1144.04 76.75H1145.29V78H1144.04V76.75ZM1149.04 76.75H1155.29V78H1150.29V80.5H1154.04V81.75H1150.29V86.75H1149.04V76.75ZM1184.06 84.25H1185.31V85.5H1190.31V86.75H1184.06V84.25ZM1189.06 78H1185.31V76.75H1189.06V78ZM1189.06 78H1190.31V80.5H1189.06V78ZM1185.31 83H1186.56V84.25H1185.31V83ZM1184.06 78H1185.31V79.25H1184.06V78ZM1187.81 80.5H1189.06V81.75H1187.81V80.5ZM1186.56 81.75H1187.81V83H1186.56V81.75ZM1192.82 78H1194.07V81.75H1195.32V83H1194.07V85.5H1192.82V78ZM1194.07 85.5H1197.82V86.75H1194.07V85.5ZM1194.07 76.75H1197.82V78H1194.07V76.75ZM1197.82 78H1199.07V85.5H1197.82V80.5H1196.57V79.25H1197.82V78ZM1195.32 80.5H1196.57V81.75H1195.32V80.5ZM1204.07 75.5H1205.32V76.75H1204.07V75.5ZM1202.82 76.75H1204.07V78H1202.82V76.75ZM1204.07 78H1205.32V79.25H1204.07V78ZM1205.32 76.75H1206.57V78H1205.32V76.75ZM1210.33 78H1211.58V85.5H1210.33V78ZM1211.58 85.5H1215.33V86.75H1211.58V85.5ZM1215.33 84.25H1216.58V85.5H1215.33V84.25ZM1211.58 76.75H1215.33V78H1211.58V76.75ZM1215.33 78H1216.58V79.25H1215.33V78ZM1070.25 90.75H1076.5V92H1071.5V94.5H1075.25V95.75H1071.5V99.5H1076.5V100.75H1070.25V90.75ZM1084 97H1085.25V100.75H1084V97ZM1079 97H1080.25V100.75H1079V97ZM1081.5 94.5H1080.25V93.25H1081.5V94.5ZM1081.5 94.5H1082.75V95.75H1081.5V94.5ZM1082.75 93.25H1084V94.5H1082.75V93.25ZM1080.25 93.25H1079V90.75H1080.25V93.25ZM1080.25 95.75H1081.5V97H1080.25V95.75ZM1084 90.75H1085.25V93.25H1084V90.75ZM1082.75 95.75H1084V97H1082.75V95.75ZM1087.76 90.75H1094.01V92H1091.51V100.75H1090.26V92H1087.76V90.75ZM1111.52 95.75V97H1105.27V95.75H1111.52ZM1117.77 92H1119.02V90.75H1120.27V100.75H1119.02V98.25H1114.02V95.75H1115.27V97H1119.02V93.25H1117.77V92ZM1116.52 93.25H1117.77V94.5H1116.52V93.25ZM1115.27 94.5H1116.52V95.75H1115.27V94.5ZM1122.78 90.75H1129.03V92H1124.03V94.5H1127.78V95.75H1122.78V90.75ZM1127.78 95.75H1129.03V99.5H1127.78V95.75ZM1127.78 99.5V100.75H1124.03V99.5H1127.78ZM1124.03 99.5H1122.78V98.25H1124.03V99.5ZM1135.28 92H1136.53V90.75H1137.78V100.75H1136.53V98.25H1131.53V95.75H1132.78V97H1136.53V93.25H1135.28V92ZM1134.03 93.25H1135.28V94.5H1134.03V93.25ZM1132.78 94.5H1134.03V95.75H1132.78V94.5ZM1142.79 89.5H1144.04V90.75H1142.79V89.5ZM1141.54 90.75H1142.79V92H1141.54V90.75ZM1142.79 92H1144.04V93.25H1142.79V92ZM1144.04 90.75H1145.29V92H1144.04V90.75ZM1149.04 90.75H1155.29V92H1150.29V94.5H1154.04V95.75H1150.29V100.75H1149.04V90.75ZM1172.8 95.75V97H1166.55V95.75H1172.8ZM1175.31 98.25H1176.56V99.5H1181.56V100.75H1175.31V98.25ZM1180.31 92H1176.56V90.75H1180.31V92ZM1180.31 92H1181.56V94.5H1180.31V92ZM1176.56 97H1177.81V98.25H1176.56V97ZM1175.31 92H1176.56V93.25H1175.31V92ZM1179.06 94.5H1180.31V95.75H1179.06V94.5ZM1177.81 95.75H1179.06V97H1177.81V95.75ZM1185.31 97H1186.56V100.75H1185.31V97ZM1186.56 95.75H1187.81V97H1186.56V95.75ZM1187.81 94.5H1189.06V95.75H1187.81V94.5ZM1189.06 92H1184.06V90.75H1190.31V94.5H1189.06V92ZM1192.82 92H1194.07V95.75H1195.32V97H1194.07V99.5H1192.82V92ZM1194.07 99.5H1197.82V100.75H1194.07V99.5ZM1194.07 90.75H1197.82V92H1194.07V90.75ZM1197.82 92H1199.07V99.5H1197.82V94.5H1196.57V93.25H1197.82V92ZM1195.32 94.5H1196.57V95.75H1195.32V94.5ZM1204.07 89.5H1205.32V90.75H1204.07V89.5ZM1202.82 90.75H1204.07V92H1202.82V90.75ZM1204.07 92H1205.32V93.25H1204.07V92ZM1205.32 90.75H1206.57V92H1205.32V90.75ZM1210.33 92H1211.58V99.5H1210.33V92ZM1211.58 99.5H1215.33V100.75H1211.58V99.5ZM1215.33 98.25H1216.58V99.5H1215.33V98.25ZM1211.58 90.75H1215.33V92H1211.58V90.75ZM1215.33 92H1216.58V93.25H1215.33V92Z" fill="#666666"/>
<path d="M989.5 302.75L998.5 308.75V296.75L989.5 302.75Z" fill="#666666"/>
<circle cx="601" cy="302.75" r="220" stroke="#666666" stroke-width="2"/>
<rect x="579" y="301.75" width="44" height="2" fill="#666666"/>
<rect x="600" y="280.75" width="2" height="44" fill="#666666"/>
<mask id="mask0_427_25117" style="mask-type:alpha" maskUnits="userSpaceOnUse" x="381" y="82" width="440" height="441">
<circle cx="601" cy="302.75" r="220" fill="#666666"/>
</mask>
<g mask="url(#mask0_427_25117)">
<ellipse cx="601" cy="302.75" rx="160" ry="360" stroke="#666666"/>
<ellipse cx="601" cy="302.75" rx="360" ry="160" stroke="#666666"/>
<path d="M381 302.75H568" stroke="#666666"/>
<path d="M634 302.75H821" stroke="#666666"/>
<path d="M601 82.75L601 269.75" stroke="#666666"/>
<path d="M601 335.75L601 522.75" stroke="#666666"/>
</g>
<path d="M601 82.75L601 60.75" stroke="#666666"/>
<path d="M601 544.75L601 522.75" stroke="#666666"/>
<path d="M821 302.75L843 302.75" stroke="#666666"/>
<path d="M359 302.75L381 302.75" stroke="#666666"/>
<path d="M791.523 192.75L810.576 181.75" stroke="#666666"/>
<path d="M391.422 423.75L410.474 412.75" stroke="#666666"/>
<path d="M791.523 412.75L810.576 423.75" stroke="#666666"/>
<path d="M391.422 181.75L410.474 192.75" stroke="#666666"/>
<rect x="553" y="418.75" width="96" height="16" fill="#666666"/>
<path d="M556.738 423.75H558.238V426.75H562.738V423.75H564.238V432.75H562.738V428.25H558.238V432.75H556.738V423.75ZM559.738 420.75H561.238V422.25H559.738V420.75ZM558.238 422.25H559.738V423.75H558.238V422.25ZM561.238 422.25H562.738V423.75H561.238V422.25ZM583.744 420.75H585.244V431.25H583.744V420.75ZM585.244 431.25H589.744V432.75H585.244V431.25ZM589.744 420.75H591.244V431.25H589.744V420.75ZM610.75 420.75H618.25V422.25H615.25V432.75H613.75V422.25H610.75V420.75ZM637.756 422.25H639.256V431.25H637.756V422.25ZM639.256 431.25H643.756V432.75H639.256V431.25ZM643.756 422.25H645.256V431.25H643.756V422.25ZM639.256 420.75H643.756V422.25H639.256V420.75Z" fill="#EEEEEE"/>
<rect x="665" y="362.75" width="6" height="6" fill="#666666"/>
<rect x="526.5" y="187.75" width="11" height="11" fill="#666666"/>
<rect x="504" y="243.75" width="6" height="6" fill="#666666"/>
<rect x="193" y="282.75" width="11" height="2" fill="#666666"/>
<rect x="193" y="282.75" width="2" height="11" fill="#666666"/>
<rect width="11" height="2" transform="matrix(-1 0 0 1 271 282.75)" fill="#666666"/>
<rect width="2" height="11" transform="matrix(-1 0 0 1 271 282.75)" fill="#666666"/>
<rect width="11" height="2" transform="matrix(1 0 0 -1 193 326.75)" fill="#666666"/>
<rect width="2" height="11" transform="matrix(1 0 0 -1 193 326.75)" fill="#666666"/>
<rect x="271" y="326.75" width="11" height="2" transform="rotate(180 271 326.75)" fill="#666666"/>
<rect x="271" y="326.75" width="2" height="11" transform="rotate(180 271 326.75)" fill="#666666"/>
<path d="M865 439.75L887 417.75L886.5 301.75L887 185.75L865 163.75" stroke="#666666" stroke-width="2"/>
<path d="M886.5 301.75H865" stroke="#666666"/>
<path d="M337 439.75L315 417.75L315.5 301.75L315 185.75L337 163.75" stroke="#666666" stroke-width="2"/>
<path d="M315.5 301.75H337" stroke="#666666"/>
<path d="M627.5 170.75H633.5V172.25H629V184.25H627.5V170.75ZM644.006 170.75V172.25H633.506V170.75H644.006ZM654.512 170.75V172.25H644.012V170.75H654.512ZM665.018 170.75V172.25H654.518V170.75H665.018ZM675.523 170.75V172.25H665.023V170.75H675.523ZM686.029 170.75V172.25H675.529V170.75H686.029ZM696.535 170.75V172.25H686.035V170.75H696.535ZM707.041 170.75V172.25H696.541V170.75H707.041ZM713.047 170.75V184.25H711.547V172.25H707.047V170.75H713.047ZM627.5 174.25H629V201.25H627.5V174.25ZM711.547 174.25H713.047V201.25H711.547V174.25ZM627.5 191.25H629V218.25H627.5V191.25ZM645.512 198.75H651.512V200.25H647.012V204.75H651.512V207.75H650.012V206.25H647.012V210.75H645.512V198.75ZM651.512 200.25H653.012V204.75H651.512V200.25ZM651.512 207.75H653.012V210.75H651.512V207.75ZM666.523 200.25H668.023V204.75H669.523V206.25H668.023V209.25H666.523V200.25ZM668.023 209.25H672.523V210.75H668.023V209.25ZM668.023 198.75H672.523V200.25H668.023V198.75ZM672.523 200.25H674.023V209.25H672.523V203.25H671.023V201.75H672.523V200.25ZM669.523 203.25H671.023V204.75H669.523V203.25ZM677.029 200.25H678.529V204.75H680.029V206.25H678.529V209.25H677.029V200.25ZM678.529 209.25H683.029V210.75H678.529V209.25ZM678.529 198.75H683.029V200.25H678.529V198.75ZM683.029 200.25H684.529V209.25H683.029V203.25H681.529V201.75H683.029V200.25ZM680.029 203.25H681.529V204.75H680.029V203.25ZM687.535 207.75H689.035V209.25H695.035V210.75H687.535V207.75ZM693.535 200.25H689.035V198.75H693.535V200.25ZM693.535 200.25H695.035V203.25H693.535V200.25ZM689.035 206.25H690.535V207.75H689.035V206.25ZM687.535 200.25H689.035V201.75H687.535V200.25ZM692.035 203.25H693.535V204.75H692.035V203.25ZM690.535 204.75H692.035V206.25H690.535V204.75ZM711.547 191.25H713.047V218.25H711.547V191.25ZM627.5 208.25H629V235.25H627.5V208.25ZM645.512 215.75H651.512V217.25H647.012V221.75H651.512V223.25H647.012V227.75H645.512V215.75ZM651.512 217.25H653.012V221.75H651.512V217.25ZM666.523 217.25H668.023V221.75H669.523V223.25H668.023V226.25H666.523V217.25ZM668.023 226.25H672.523V227.75H668.023V226.25ZM668.023 215.75H672.523V217.25H668.023V215.75ZM672.523 217.25H674.023V226.25H672.523V220.25H671.023V218.75H672.523V217.25ZM669.523 220.25H671.023V221.75H669.523V220.25ZM680.029 218.75H677.029V217.25H680.029V215.75H681.529V226.25H684.529V227.75H677.029V226.25H680.029V218.75ZM692.035 217.25H693.535V215.75H695.035V227.75H693.535V224.75H687.535V221.75H689.035V223.25H693.535V218.75H692.035V217.25ZM690.535 218.75H692.035V220.25H690.535V218.75ZM689.035 220.25H690.535V221.75H689.035V220.25ZM711.547 208.25H713.047V235.25H711.547V208.25ZM627.5 225.25H629V252.25H627.5V225.25ZM645.512 232.75H647.012V237.25H645.512V232.75ZM651.512 232.75H653.012V237.25H651.512V232.75ZM648.512 238.75H650.012V244.75H648.512V238.75ZM647.012 237.25H648.512V238.75H647.012V237.25ZM650.012 237.25H651.512V238.75H650.012V237.25ZM669.523 235.75H666.523V234.25H669.523V232.75H671.023V243.25H674.023V244.75H666.523V243.25H669.523V235.75ZM677.029 234.25H678.529V235.75H677.029V234.25ZM678.529 232.75H683.029V234.25H678.529V232.75ZM683.029 234.25H684.529V237.25H683.029V234.25ZM680.029 237.25H683.029V238.75H680.029V237.25ZM683.029 238.75H684.529V243.25H683.029V238.75ZM683.029 243.25V244.75H678.529V243.25H683.029ZM678.529 243.25H677.029V241.75H678.529V243.25ZM690.535 235.75H687.535V234.25H690.535V232.75H692.035V243.25H695.035V244.75H687.535V243.25H690.535V235.75ZM711.547 225.25H713.047V252.25H711.547V225.25ZM627.5 242.25H629V269.25H627.5V242.25ZM711.547 242.25H713.047V269.25H711.547V242.25ZM627.5 259.25H629V272.75H633.5V274.25H627.5V259.25ZM644.006 272.75V274.25H633.506V272.75H644.006ZM654.512 272.75V274.25H644.012V272.75H654.512ZM665.018 272.75V274.25H654.518V272.75H665.018ZM675.523 272.75V274.25H665.023V272.75H675.523ZM686.029 272.75V274.25H675.529V272.75H686.029ZM696.535 272.75V274.25H686.035V272.75H696.535ZM707.041 272.75V274.25H696.541V272.75H707.041ZM711.547 272.75V259.25H713.047V274.25H707.047V272.75H711.547Z" fill="#666666"/>
<path d="M949.363 80.25H950.613V82.75H954.363V80.25H955.613V87.75H954.363V84H950.613V87.75H949.363V80.25ZM951.863 77.75H953.113V79H951.863V77.75ZM950.613 79H951.863V80.25H950.613V79ZM953.113 79H954.363V80.25H953.113V79ZM958.118 79H959.368V86.5H958.118V79ZM959.368 86.5H963.118V87.75H959.368V86.5ZM963.118 85.25H964.368V86.5H963.118V85.25ZM959.368 77.75H963.118V79H959.368V77.75ZM963.118 79H964.368V80.25H963.118V79ZM966.873 79H968.123V86.5H966.873V79ZM968.123 86.5H971.873V87.75H968.123V86.5ZM971.873 85.25H973.123V86.5H971.873V85.25ZM968.123 77.75H971.873V79H968.123V77.75ZM971.873 79H973.123V80.25H971.873V79ZM975.627 77.75H981.877V79H976.877V81.5H980.627V82.75H976.877V86.5H981.877V87.75H975.627V77.75ZM984.382 77.75H985.632V86.5H990.632V87.75H984.382V77.75ZM953.74 91.75H959.99V93H954.99V95.5H958.74V96.75H954.99V101.75H953.74V91.75ZM962.495 91.75H967.495V93H963.745V96.75H967.495V98H963.745V101.75H962.495V91.75ZM967.495 93H968.745V96.75H967.495V93ZM971.25 93H972.5V95.5H971.25V93ZM972.5 95.5H976.25V96.75H972.5V95.5ZM976.25 100.5V101.75H972.5V100.5H976.25ZM972.5 100.5H971.25V99.25H972.5V100.5ZM976.25 96.75H977.5V100.5H976.25V96.75ZM972.5 91.75H976.25V93H972.5V91.75ZM976.25 93H977.5V94.25H976.25V93ZM980.005 96.75H981.255V95.5H982.505V96.75H986.255V98H980.005V96.75ZM982.505 94.25H983.755V95.5H982.505V94.25ZM983.755 93H985.005V94.25H983.755V93ZM985.005 91.75H981.255V90.5H985.005V91.75ZM985.005 91.75H986.255V93H985.005V91.75ZM980.005 91.75H981.255V93H980.005V91.75Z" fill="#666666"/>
<path d="M207.485 79H208.735V86.5H207.485V79ZM208.735 86.5H212.485V87.75H208.735V86.5ZM212.485 84H211.235V82.75H213.735V86.5H212.485V84ZM208.735 77.75H212.485V79H208.735V77.75ZM212.485 79H213.735V80.25H212.485V79ZM216.24 77.75H217.49V86.5H222.49V87.75H216.24V77.75ZM224.995 77.75H226.245V81.5H224.995V77.75ZM229.995 77.75H231.245V81.5H229.995V77.75ZM227.495 82.75H228.745V87.75H227.495V82.75ZM226.245 81.5H227.495V82.75H226.245V81.5ZM228.745 81.5H229.995V82.75H228.745V81.5ZM233.75 77.75H238.75V79H235V82.75H238.75V84H235V87.75H233.75V77.75ZM238.75 79H240V82.75H238.75V79ZM242.505 77.75H243.755V81.5H247.505V77.75H248.755V87.75H247.505V82.75H243.755V87.75H242.505V77.75ZM251.26 79H252.51V81.5H251.26V79ZM252.51 81.5H256.26V82.75H252.51V81.5ZM256.26 86.5V87.75H252.51V86.5H256.26ZM252.51 86.5H251.26V85.25H252.51V86.5ZM256.26 82.75H257.51V86.5H256.26V82.75ZM252.51 77.75H256.26V79H252.51V77.75ZM256.26 79H257.51V80.25H256.26V79Z" fill="#666666"/>
<path d="M224.977 2.25H226.477V17.25H224.977V2.25ZM246.482 2.25H247.982V17.25H246.482V2.25ZM267.988 2.25H269.488V17.25H267.988V2.25ZM289.494 2.25H290.994V17.25H289.494V2.25ZM311 2.25H312.5V17.25H311V2.25ZM332.506 2.25H334.006V17.25H332.506V2.25ZM354.012 2.25H355.512V17.25H354.012V2.25ZM375.518 2.25H377.018V17.25H375.518V2.25Z" fill="#666666"/>
<path d="M426.962 3.75H432.962V5.25H428.462V14.25H432.962V15.75H426.962V3.75ZM432.962 5.25H434.462V14.25H432.962V5.25ZM453.968 3.75H461.468V5.25H455.468V8.25H459.968V9.75H455.468V14.25H461.468V15.75H453.968V3.75ZM480.974 3.75H486.974V5.25H482.474V9.75H486.974V11.25H482.474V15.75H480.974V3.75ZM486.974 5.25H488.474V9.75H486.974V5.25ZM507.979 6.75H509.479V9.75H513.979V6.75H515.479V15.75H513.979V11.25H509.479V15.75H507.979V6.75ZM510.979 3.75H512.479V5.25H510.979V3.75ZM509.479 5.25H510.979V6.75H509.479V5.25ZM512.479 5.25H513.979V6.75H512.479V5.25ZM534.985 3.75H540.985V5.25H536.485V9.75H540.985V12.75H539.485V11.25H536.485V15.75H534.985V3.75ZM540.985 5.25H542.485V9.75H540.985V5.25ZM540.985 12.75H542.485V15.75H540.985V12.75ZM561.991 3.75H569.491V5.25H566.491V15.75H564.991V5.25H561.991V3.75ZM588.997 3.75H590.497V14.25H588.997V3.75ZM590.497 14.25H594.997V15.75H590.497V14.25ZM594.997 3.75H596.497V14.25H594.997V3.75ZM616.003 3.75H622.003V5.25H617.503V9.75H622.003V12.75H620.503V11.25H617.503V15.75H616.003V3.75ZM622.003 5.25H623.503V9.75H622.003V5.25ZM622.003 12.75H623.503V15.75H622.003V12.75ZM643.009 3.75H650.509V5.25H644.509V8.25H649.009V9.75H644.509V14.25H650.509V15.75H643.009V3.75ZM697.021 3.75H698.521V6.75H700.021V8.25H698.521V15.75H697.021V3.75ZM703.021 8.25H701.521V6.75H703.021V3.75H704.521V15.75H703.021V8.25ZM700.021 8.25H701.521V11.25H700.021V8.25ZM724.026 5.25H725.526V14.25H724.026V5.25ZM725.526 14.25H730.026V15.75H725.526V14.25ZM730.026 5.25H731.526V14.25H730.026V5.25ZM725.526 3.75H730.026V5.25H725.526V3.75ZM751.032 3.75H752.532V6.75H754.032V8.25H752.532V15.75H751.032V3.75ZM757.032 11.25H755.532V9.75H757.032V3.75H758.532V15.75H757.032V11.25ZM755.532 9.75H754.032V8.25H755.532V9.75ZM778.038 5.25H779.538V14.25H778.038V5.25ZM779.538 14.25H784.038V15.75H779.538V14.25ZM784.038 5.25H785.538V14.25H784.038V5.25ZM779.538 3.75H784.038V5.25H779.538V3.75Z" fill="#666666"/>
<path d="M824.977 2.25H826.477V17.25H824.977V2.25ZM846.482 2.25H847.982V17.25H846.482V2.25ZM867.988 2.25H869.488V17.25H867.988V2.25ZM889.494 2.25H890.994V17.25H889.494V2.25ZM911 2.25H912.5V17.25H911V2.25ZM932.506 2.25H934.006V17.25H932.506V2.25ZM954.012 2.25H955.512V17.25H954.012V2.25ZM975.518 2.25H977.018V17.25H975.518V2.25Z" fill="#666666"/>
<path d="M8.75 506.75H13.75V508H10V518H8.75V506.75ZM22.5049 506.75V508H13.7549V506.75H22.5049ZM35.0146 510.5H33.7646V508H35.0146V510.5ZM35.0146 510.5H36.2646V511.75H35.0146V510.5ZM32.5146 501.75H33.7646V508H32.5146V501.75ZM37.5146 501.75H38.7646V508H37.5146V501.75ZM36.2646 508H37.5146V510.5H36.2646V508ZM43.7695 510.5V503H41.2695V501.75H47.5195V503H45.0195V510.5H47.5195V511.75H41.2695V510.5H43.7695ZM50.0244 501.75H55.0244V503H51.2744V510.5H55.0244V511.75H50.0244V501.75ZM55.0244 503H56.2744V510.5H55.0244V503ZM70.0342 510.5V503H67.5342V501.75H73.7842V503H71.2842V510.5H73.7842V511.75H67.5342V510.5H70.0342ZM76.2891 501.75H77.5391V504.25H78.7891V505.5H77.5391V511.75H76.2891V501.75ZM81.2891 508H80.0391V506.75H81.2891V501.75H82.5391V511.75H81.2891V508ZM80.0391 506.75H78.7891V505.5H80.0391V506.75ZM85.0439 501.75H90.0439V503H86.2939V506.75H90.0439V508H86.2939V511.75H85.0439V501.75ZM90.0439 503H91.2939V506.75H90.0439V503ZM93.7988 501.75H95.0488V510.5H93.7988V501.75ZM95.0488 510.5H98.7988V511.75H95.0488V510.5ZM98.7988 501.75H100.049V510.5H98.7988V501.75ZM102.554 501.75H108.804V503H106.304V511.75H105.054V503H102.554V501.75ZM127.563 506.75V508H118.813V506.75H127.563ZM132.568 506.75V518H131.318V508H127.568V506.75H132.568Z" fill="#666666"/>
<rect x="41" y="532.75" width="33" height="33" transform="rotate(90 41 532.75)" fill="#666666"/>
<rect x="80" y="532.75" width="33" height="33" transform="rotate(90 80 532.75)" fill="#666666"/>
<rect x="119" y="532.75" width="33" height="33" transform="rotate(90 119 532.75)" fill="#666666"/>
<path d="M20.5 546.75H22V549.75H26.5V546.75H28V555.75H26.5V551.25H22V555.75H20.5V546.75ZM23.5 543.75H25V545.25H23.5V543.75ZM22 545.25H23.5V546.75H22V545.25ZM25 545.25H26.5V546.75H25V545.25Z" fill="#EEEEEE"/>
<path d="M59.5 543.75H65.5V545.25H61V548.25H65.5V549.75H61V554.25H65.5V555.75H59.5V543.75ZM65.5 549.75H67V554.25H65.5V549.75ZM65.5 545.25H67V548.25H65.5V545.25Z" fill="#EEEEEE"/>
<path d="M98.5 545.25H100V554.25H98.5V545.25ZM100 554.25H104.5V555.75H100V554.25ZM104.5 552.75H106V554.25H104.5V552.75ZM100 543.75H104.5V545.25H100V543.75ZM104.5 545.25H106V546.75H104.5V545.25Z" fill="#EEEEEE"/>
<path d="M8.75 82.75H13.75V84H10V94H8.75V82.75ZM22.5049 82.75V84H13.7549V82.75H22.5049ZM31.2598 82.75V84H22.5098V82.75H31.2598ZM40.0146 82.75V84H31.2646V82.75H40.0146ZM48.7695 82.75V84H40.0195V82.75H48.7695ZM58.7793 79H60.0293V86.5H58.7793V79ZM60.0293 86.5H63.7793V87.75H60.0293V86.5ZM63.7793 79H65.0293V86.5H63.7793V79ZM60.0293 77.75H63.7793V79H60.0293V77.75ZM67.5342 77.75H68.7842V80.25H70.0342V81.5H68.7842V87.75H67.5342V77.75ZM72.5342 81.5H71.2842V80.25H72.5342V77.75H73.7842V87.75H72.5342V81.5ZM70.0342 81.5H71.2842V84H70.0342V81.5ZM76.2891 79H77.5391V81.5H76.2891V79ZM77.5391 81.5H81.2891V82.75H77.5391V81.5ZM81.2891 86.5V87.75H77.5391V86.5H81.2891ZM77.5391 86.5H76.2891V85.25H77.5391V86.5ZM81.2891 82.75H82.5391V86.5H81.2891V82.75ZM77.5391 77.75H81.2891V79H77.5391V77.75ZM81.2891 79H82.5391V80.25H81.2891V79ZM101.299 82.75V84H92.5488V82.75H101.299ZM110.054 82.75V84H101.304V82.75H110.054ZM118.809 82.75V84H110.059V82.75H118.809ZM127.563 82.75V84H118.813V82.75H127.563ZM132.568 82.75V94H131.318V84H127.568V82.75H132.568Z" fill="#666666"/>
<path d="M9.25 113.75H10.5V117.5H14.25V113.75H15.5V123.75H14.25V118.75H10.5V123.75H9.25V113.75ZM18.0049 113.75H24.2549V115H19.2549V117.5H23.0049V118.75H19.2549V122.5H24.2549V123.75H18.0049V113.75ZM35.5146 113.75H41.7646V115H39.2646V123.75H38.0146V115H35.5146V113.75ZM44.2695 116.25H45.5195V118.75H49.2695V116.25H50.5195V123.75H49.2695V120H45.5195V123.75H44.2695V116.25ZM46.7695 113.75H48.0195V115H46.7695V113.75ZM45.5195 115H46.7695V116.25H45.5195V115ZM48.0195 115H49.2695V116.25H48.0195V115ZM53.0244 113.75H54.2744V116.25H55.5244V117.5H54.2744V123.75H53.0244V113.75ZM58.0244 120H56.7744V118.75H58.0244V113.75H59.2744V123.75H58.0244V120ZM56.7744 118.75H55.5244V117.5H56.7744V118.75ZM61.7793 113.75H63.0293V117.5H64.2793V116.25H65.5293V118.75H63.0293V123.75H61.7793V113.75ZM66.7793 113.75H68.0293V115H66.7793V113.75ZM65.5293 115H66.7793V116.25H65.5293V115ZM66.7793 121.25H65.5293V118.75H66.7793V121.25ZM66.7793 121.25H68.0293V123.75H66.7793V121.25ZM79.2891 113.75H84.2891V115H80.5391V118.75H84.2891V120H80.5391V123.75H79.2891V113.75ZM84.2891 115H85.5391V118.75H84.2891V115Z" fill="#666666"/>
<path d="M103 141.75H104V142.75H103V141.75ZM104 140.75H107V141.75H104V140.75ZM107 141.75H108V143.75H107V141.75ZM105 143.75H107V144.75H105V143.75ZM107 144.75H108V147.75H107V144.75ZM107 147.75V148.75H104V147.75H107ZM104 147.75H103V146.75H104V147.75ZM113.004 141.75H114.004V140.75H115.004V148.75H114.004V146.75H110.004V144.75H111.004V145.75H114.004V142.75H113.004V141.75ZM112.004 142.75H113.004V143.75H112.004V142.75ZM111.004 143.75H112.004V144.75H111.004V143.75ZM117.008 141.75H118.008V143.75H117.008V141.75ZM121.008 141.75H118.008V140.75H121.008V141.75ZM121.008 141.75H122.008V143.75H121.008V141.75ZM118.008 143.75H121.008V144.75H118.008V143.75ZM121.008 144.75H122.008V147.75H121.008V144.75ZM117.008 144.75H118.008V147.75H117.008V144.75ZM121.008 147.75V148.75H118.008V147.75H121.008ZM124.012 141.75H125.012V144.75H126.012V145.75H125.012V147.75H124.012V141.75ZM125.012 147.75H128.012V148.75H125.012V147.75ZM125.012 140.75H128.012V141.75H125.012V140.75ZM128.012 141.75H129.012V147.75H128.012V143.75H127.012V142.75H128.012V141.75ZM126.012 143.75H127.012V144.75H126.012V143.75Z" fill="#666666"/>
<path d="M103 165.75H104V166.75H103V165.75ZM104 164.75H107V165.75H104V164.75ZM107 165.75H108V167.75H107V165.75ZM105 167.75H107V168.75H105V167.75ZM107 168.75H108V171.75H107V168.75ZM107 171.75V172.75H104V171.75H107ZM104 171.75H103V170.75H104V171.75ZM113.004 165.75H114.004V164.75H115.004V172.75H114.004V170.75H110.004V168.75H111.004V169.75H114.004V166.75H113.004V165.75ZM112.004 166.75H113.004V167.75H112.004V166.75ZM111.004 167.75H112.004V168.75H111.004V167.75ZM117.008 165.75H118.008V167.75H117.008V165.75ZM121.008 165.75H118.008V164.75H121.008V165.75ZM121.008 165.75H122.008V167.75H121.008V165.75ZM118.008 167.75H121.008V168.75H118.008V167.75ZM121.008 168.75H122.008V171.75H121.008V168.75ZM117.008 168.75H118.008V171.75H117.008V168.75ZM121.008 171.75V172.75H118.008V171.75H121.008ZM124.012 165.75H125.012V168.75H126.012V169.75H125.012V171.75H124.012V165.75ZM125.012 171.75H128.012V172.75H125.012V171.75ZM125.012 164.75H128.012V165.75H125.012V164.75ZM128.012 165.75H129.012V171.75H128.012V167.75H127.012V166.75H128.012V165.75ZM126.012 167.75H127.012V168.75H126.012V167.75Z" fill="#666666"/>
<path d="M103 189.75H104V190.75H103V189.75ZM104 188.75H107V189.75H104V188.75ZM107 189.75H108V191.75H107V189.75ZM105 191.75H107V192.75H105V191.75ZM107 192.75H108V195.75H107V192.75ZM107 195.75V196.75H104V195.75H107ZM104 195.75H103V194.75H104V195.75ZM113.004 189.75H114.004V188.75H115.004V196.75H114.004V194.75H110.004V192.75H111.004V193.75H114.004V190.75H113.004V189.75ZM112.004 190.75H113.004V191.75H112.004V190.75ZM111.004 191.75H112.004V192.75H111.004V191.75ZM117.008 189.75H118.008V191.75H117.008V189.75ZM121.008 189.75H118.008V188.75H121.008V189.75ZM121.008 189.75H122.008V191.75H121.008V189.75ZM118.008 191.75H121.008V192.75H118.008V191.75ZM121.008 192.75H122.008V195.75H121.008V192.75ZM117.008 192.75H118.008V195.75H117.008V192.75ZM121.008 195.75V196.75H118.008V195.75H121.008ZM124.012 189.75H125.012V192.75H126.012V193.75H125.012V195.75H124.012V189.75ZM125.012 195.75H128.012V196.75H125.012V195.75ZM125.012 188.75H128.012V189.75H125.012V188.75ZM128.012 189.75H129.012V195.75H128.012V191.75H127.012V190.75H128.012V189.75ZM126.012 191.75H127.012V192.75H126.012V191.75Z" fill="#666666"/>
<rect x="95.5" y="137.25" width="15" height="87" transform="rotate(90 95.5 137.25)" stroke="#666666"/>
<rect x="70" y="136.75" width="16" height="62" transform="rotate(90 70 136.75)" fill="#666666"/>
<rect x="95.5" y="161.25" width="15" height="87" transform="rotate(90 95.5 161.25)" stroke="#666666"/>
<rect x="70" y="160.75" width="16" height="62" transform="rotate(90 70 160.75)" fill="#666666"/>
<rect x="95.5" y="185.25" width="15" height="87" transform="rotate(90 95.5 185.25)" stroke="#666666"/>
<rect x="70" y="184.75" width="16" height="62" transform="rotate(90 70 184.75)" fill="#666666"/>
<path d="M9.25 224.75H10.5V227.25H11.75V228.5H10.5V234.75H9.25V224.75ZM14.25 231H13V229.75H14.25V224.75H15.5V234.75H14.25V231ZM13 229.75H11.75V228.5H13V229.75ZM18.0049 236H19.2549V234.75H20.5049V236H24.2549V237.25H18.0049V236ZM20.5049 233.5H21.7549V234.75H20.5049V233.5ZM21.7549 232.25H23.0049V233.5H21.7549V232.25ZM23.0049 231H19.2549V229.75H23.0049V231ZM23.0049 231H24.2549V232.25H23.0049V231ZM18.0049 231H19.2549V232.25H18.0049V231ZM35.5146 224.75H41.7646V226H39.2646V234.75H38.0146V226H35.5146V224.75ZM44.2695 227.25H45.5195V229.75H49.2695V227.25H50.5195V234.75H49.2695V231H45.5195V234.75H44.2695V227.25ZM46.7695 224.75H48.0195V226H46.7695V224.75ZM45.5195 226H46.7695V227.25H45.5195V226ZM48.0195 226H49.2695V227.25H48.0195V226ZM53.0244 224.75H54.2744V227.25H55.5244V228.5H54.2744V234.75H53.0244V224.75ZM58.0244 231H56.7744V229.75H58.0244V224.75H59.2744V234.75H58.0244V231ZM56.7744 229.75H55.5244V228.5H56.7744V229.75ZM61.7793 224.75H63.0293V228.5H64.2793V227.25H65.5293V229.75H63.0293V234.75H61.7793V224.75ZM66.7793 224.75H68.0293V226H66.7793V224.75ZM65.5293 226H66.7793V227.25H65.5293V226ZM66.7793 232.25H65.5293V229.75H66.7793V232.25ZM66.7793 232.25H68.0293V234.75H66.7793V232.25ZM79.2891 224.75H84.2891V226H80.5391V229.75H84.2891V231H80.5391V234.75H79.2891V224.75ZM84.2891 226H85.5391V229.75H84.2891V226Z" fill="#666666"/>
<path d="M103 252.75H104V253.75H103V252.75ZM104 251.75H107V252.75H104V251.75ZM107 252.75H108V254.75H107V252.75ZM105 254.75H107V255.75H105V254.75ZM107 255.75H108V258.75H107V255.75ZM107 258.75V259.75H104V258.75H107ZM104 258.75H103V257.75H104V258.75ZM110.004 251.75H115.004V252.75H111.004V254.75H114.004V255.75H110.004V251.75ZM114.004 255.75H115.004V258.75H114.004V255.75ZM114.004 258.75V259.75H111.004V258.75H114.004ZM111.004 258.75H110.004V257.75H111.004V258.75ZM120.008 252.75H121.008V251.75H122.008V259.75H121.008V257.75H117.008V255.75H118.008V256.75H121.008V253.75H120.008V252.75ZM119.008 253.75H120.008V254.75H119.008V253.75ZM118.008 254.75H119.008V255.75H118.008V254.75ZM124.012 252.75H125.012V255.75H126.012V256.75H125.012V258.75H124.012V252.75ZM125.012 258.75H128.012V259.75H125.012V258.75ZM125.012 251.75H128.012V252.75H125.012V251.75ZM128.012 252.75H129.012V258.75H128.012V254.75H127.012V253.75H128.012V252.75ZM126.012 254.75H127.012V255.75H126.012V254.75Z" fill="#666666"/>
<path d="M103 276.75H104V277.75H103V276.75ZM104 275.75H107V276.75H104V275.75ZM107 276.75H108V278.75H107V276.75ZM105 278.75H107V279.75H105V278.75ZM107 279.75H108V282.75H107V279.75ZM107 282.75V283.75H104V282.75H107ZM104 282.75H103V281.75H104V282.75ZM110.004 275.75H115.004V276.75H111.004V278.75H114.004V279.75H110.004V275.75ZM114.004 279.75H115.004V282.75H114.004V279.75ZM114.004 282.75V283.75H111.004V282.75H114.004ZM111.004 282.75H110.004V281.75H111.004V282.75ZM117.008 281.75H118.008V282.75H122.008V283.75H117.008V281.75ZM121.008 276.75H118.008V275.75H121.008V276.75ZM121.008 276.75H122.008V278.75H121.008V276.75ZM118.008 280.75H119.008V281.75H118.008V280.75ZM117.008 276.75H118.008V277.75H117.008V276.75ZM120.008 278.75H121.008V279.75H120.008V278.75ZM119.008 279.75H120.008V280.75H119.008V279.75ZM124.012 276.75H125.012V279.75H126.012V280.75H125.012V282.75H124.012V276.75ZM125.012 282.75H128.012V283.75H125.012V282.75ZM125.012 275.75H128.012V276.75H125.012V275.75ZM128.012 276.75H129.012V282.75H128.012V278.75H127.012V277.75H128.012V276.75ZM126.012 278.75H127.012V279.75H126.012V278.75Z" fill="#666666"/>
<rect x="95.5" y="248.25" width="15" height="87" transform="rotate(90 95.5 248.25)" stroke="#666666"/>
<rect x="96" y="247.75" width="16" height="88" transform="rotate(90 96 247.75)" fill="#666666"/>
<rect x="95.5" y="272.25" width="15" height="87" transform="rotate(90 95.5 272.25)" stroke="#666666"/>
<rect x="96" y="271.75" width="16" height="88" transform="rotate(90 96 271.75)" fill="#666666"/>
<path d="M1069.75 153.75H1074.75V155H1071V165H1069.75V153.75ZM1083.5 153.75V155H1074.75V153.75H1083.5ZM1092.26 153.75V155H1083.51V153.75H1092.26ZM1101.01 153.75V155H1092.26V153.75H1101.01ZM1109.77 153.75V155H1101.02V153.75H1109.77ZM1119.78 151.25H1121.03V153.75H1124.78V151.25H1126.03V158.75H1124.78V155H1121.03V158.75H1119.78V151.25ZM1122.28 148.75H1123.53V150H1122.28V148.75ZM1121.03 150H1122.28V151.25H1121.03V150ZM1123.53 150H1124.78V151.25H1123.53V150ZM1128.53 148.75H1133.53V150H1129.78V153.75H1133.53V155H1129.78V158.75H1128.53V148.75ZM1133.53 150H1134.78V153.75H1133.53V150ZM1137.29 148.75H1138.54V157.5H1137.29V148.75ZM1138.54 157.5H1142.29V158.75H1138.54V157.5ZM1142.29 148.75H1143.54V157.5H1142.29V148.75ZM1162.3 153.75V155H1153.55V153.75H1162.3ZM1171.05 153.75V155H1162.3V153.75H1171.05ZM1179.81 153.75V155H1171.06V153.75H1179.81ZM1188.56 153.75V155H1179.81V153.75H1188.56ZM1193.57 153.75V165H1192.32V155H1188.57V153.75H1193.57Z" fill="#666666"/>
<path d="M1068.75 433.75H1073.75V435H1070V445H1068.75V433.75ZM1082.5 433.75V435H1073.75V433.75H1082.5ZM1092.51 428.75H1093.76V432.5H1097.51V428.75H1098.76V438.75H1097.51V433.75H1093.76V438.75H1092.51V428.75ZM1101.27 428.75H1102.52V432.5H1101.27V428.75ZM1106.27 428.75H1107.52V432.5H1106.27V428.75ZM1103.77 433.75H1105.02V438.75H1103.77V433.75ZM1102.52 432.5H1103.77V433.75H1102.52V432.5ZM1105.02 432.5H1106.27V433.75H1105.02V432.5ZM1110.02 428.75H1115.02V430H1111.27V437.5H1115.02V438.75H1110.02V428.75ZM1115.02 430H1116.27V437.5H1115.02V430ZM1118.78 428.75H1123.78V430H1120.03V433.75H1123.78V436.25H1122.53V435H1120.03V438.75H1118.78V428.75ZM1123.78 430H1125.03V433.75H1123.78V430ZM1123.78 436.25H1125.03V438.75H1123.78V436.25ZM1127.53 431.25H1128.78V433.75H1132.53V431.25H1133.78V438.75H1132.53V435H1128.78V438.75H1127.53V431.25ZM1130.03 428.75H1131.28V430H1130.03V428.75ZM1128.78 430H1130.03V431.25H1128.78V430ZM1131.28 430H1132.53V431.25H1131.28V430ZM1136.29 428.75H1137.54V437.5H1136.29V428.75ZM1137.54 437.5H1141.29V438.75H1137.54V437.5ZM1141.29 428.75H1142.54V437.5H1141.29V428.75ZM1145.04 428.75H1146.29V437.5H1151.29V438.75H1145.04V428.75ZM1156.3 437.5V430H1153.8V428.75H1160.05V430H1157.55V437.5H1160.05V438.75H1153.8V437.5H1156.3ZM1162.55 430H1163.8V437.5H1162.55V430ZM1163.8 437.5H1167.55V438.75H1163.8V437.5ZM1167.55 436.25H1168.8V437.5H1167.55V436.25ZM1163.8 428.75H1167.55V430H1163.8V428.75ZM1167.55 430H1168.8V431.25H1167.55V430ZM1187.56 433.75V435H1178.81V433.75H1187.56ZM1192.57 433.75V445H1191.32V435H1187.57V433.75H1192.57Z" fill="#666666"/>
<path d="M1070.25 184.75H1076.5V186H1071.5V188.5H1075.25V189.75H1071.5V194.75H1070.25V184.75ZM1079 184.75H1080.25V193.5H1079V184.75ZM1080.25 193.5H1084V194.75H1080.25V193.5ZM1084 184.75H1085.25V193.5H1084V184.75ZM1087.76 184.75H1094.01V186H1089.01V188.5H1092.76V189.75H1089.01V193.5H1094.01V194.75H1087.76V184.75ZM1096.51 184.75H1097.76V193.5H1102.76V194.75H1096.51V184.75ZM1114.02 186H1115.27V187.25H1114.02V186ZM1116.52 186H1115.27V184.75H1116.52V186ZM1116.52 186H1117.77V187.25H1116.52V186ZM1119.02 193.5H1117.77V192.25H1119.02V193.5ZM1119.02 193.5H1120.27V194.75H1119.02V193.5ZM1119.02 191H1120.27V192.25H1119.02V191ZM1120.27 192.25H1121.52V193.5H1120.27V192.25ZM1119.02 187.25H1120.27V188.5H1119.02V187.25ZM1116.52 189.75H1117.77V191H1116.52V189.75ZM1115.27 191H1116.52V192.25H1115.27V191ZM1120.27 184.75H1121.52V187.25H1120.27V184.75ZM1117.77 188.5H1119.02V189.75H1117.77V188.5ZM1114.02 192.25H1115.27V194.75H1114.02V192.25ZM1115.27 187.25H1116.52V188.5H1115.27V187.25Z" fill="#666666"/>
<path d="M1164 212.75H1165V215.75H1166V216.75H1165V218.75H1164V212.75ZM1165 218.75H1168V219.75H1165V218.75ZM1165 211.75H1168V212.75H1165V211.75ZM1168 212.75H1169V218.75H1168V214.75H1167V213.75H1168V212.75ZM1166 214.75H1167V215.75H1166V214.75ZM1175 218.75V219.75H1172V218.75H1175ZM1172 218.75H1171V217.75H1172V218.75ZM1175 215.75V212.75H1176V218.75H1175V216.75H1172V215.75H1175ZM1172 215.75H1171V212.75H1172V215.75ZM1172 211.75H1175V212.75H1172V211.75ZM1178.01 212.75H1179.01V215.75H1180.01V216.75H1179.01V218.75H1178.01V212.75ZM1179.01 218.75H1182.01V219.75H1179.01V218.75ZM1179.01 211.75H1182.01V212.75H1179.01V211.75ZM1182.01 212.75H1183.01V218.75H1182.01V214.75H1181.01V213.75H1182.01V212.75ZM1180.01 214.75H1181.01V215.75H1180.01V214.75Z" fill="#666666"/>
<path d="M1164 236.75H1165V239.75H1166V240.75H1165V242.75H1164V236.75ZM1165 242.75H1168V243.75H1165V242.75ZM1165 235.75H1168V236.75H1165V235.75ZM1168 236.75H1169V242.75H1168V238.75H1167V237.75H1168V236.75ZM1166 238.75H1167V239.75H1166V238.75ZM1175 242.75V243.75H1172V242.75H1175ZM1172 242.75H1171V241.75H1172V242.75ZM1175 239.75V236.75H1176V242.75H1175V240.75H1172V239.75H1175ZM1172 239.75H1171V236.75H1172V239.75ZM1172 235.75H1175V236.75H1172V235.75ZM1178.01 236.75H1179.01V239.75H1180.01V240.75H1179.01V242.75H1178.01V236.75ZM1179.01 242.75H1182.01V243.75H1179.01V242.75ZM1179.01 235.75H1182.01V236.75H1179.01V235.75ZM1182.01 236.75H1183.01V242.75H1182.01V238.75H1181.01V237.75H1182.01V236.75ZM1180.01 238.75H1181.01V239.75H1180.01V238.75Z" fill="#666666"/>
<path d="M1164 260.75H1165V263.75H1166V264.75H1165V266.75H1164V260.75ZM1165 266.75H1168V267.75H1165V266.75ZM1165 259.75H1168V260.75H1165V259.75ZM1168 260.75H1169V266.75H1168V262.75H1167V261.75H1168V260.75ZM1166 262.75H1167V263.75H1166V262.75ZM1175 266.75V267.75H1172V266.75H1175ZM1172 266.75H1171V265.75H1172V266.75ZM1175 263.75V260.75H1176V266.75H1175V264.75H1172V263.75H1175ZM1172 263.75H1171V260.75H1172V263.75ZM1172 259.75H1175V260.75H1172V259.75ZM1178.01 260.75H1179.01V263.75H1180.01V264.75H1179.01V266.75H1178.01V260.75ZM1179.01 266.75H1182.01V267.75H1179.01V266.75ZM1179.01 259.75H1182.01V260.75H1179.01V259.75ZM1182.01 260.75H1183.01V266.75H1182.01V262.75H1181.01V261.75H1182.01V260.75ZM1180.01 262.75H1181.01V263.75H1180.01V262.75Z" fill="#666666"/>
<rect x="1156.5" y="208.25" width="15" height="87" transform="rotate(90 1156.5 208.25)" stroke="#666666"/>
<rect x="1148" y="207.75" width="16" height="79" transform="rotate(90 1148 207.75)" fill="#666666"/>
<rect x="1156.5" y="232.25" width="15" height="87" transform="rotate(90 1156.5 232.25)" stroke="#666666"/>
<rect x="1148" y="231.75" width="16" height="79" transform="rotate(90 1148 231.75)" fill="#666666"/>
<rect x="1156.5" y="256.25" width="15" height="87" transform="rotate(90 1156.5 256.25)" stroke="#666666"/>
<rect x="1148" y="255.75" width="16" height="79" transform="rotate(90 1148 255.75)" fill="#666666"/>
<path d="M1070.25 295.75H1071.5V299.5H1075.25V295.75H1076.5V305.75H1075.25V300.75H1071.5V305.75H1070.25V295.75ZM1079 307H1080.25V305.75H1081.5V307H1085.25V308.25H1079V307ZM1081.5 304.5H1082.75V305.75H1081.5V304.5ZM1082.75 303.25H1084V304.5H1082.75V303.25ZM1084 302H1080.25V300.75H1084V302ZM1084 302H1085.25V303.25H1084V302ZM1079 302H1080.25V303.25H1079V302ZM1087.76 297H1089.01V304.5H1087.76V297ZM1089.01 304.5H1092.76V305.75H1089.01V304.5ZM1092.76 297H1094.01V304.5H1092.76V297ZM1089.01 295.75H1092.76V297H1089.01V295.75ZM1105.27 297H1106.52V298.25H1105.27V297ZM1107.77 297H1106.52V295.75H1107.77V297ZM1107.77 297H1109.02V298.25H1107.77V297ZM1110.27 304.5H1109.02V303.25H1110.27V304.5ZM1110.27 304.5H1111.52V305.75H1110.27V304.5ZM1110.27 302H1111.52V303.25H1110.27V302ZM1111.52 303.25H1112.77V304.5H1111.52V303.25ZM1110.27 298.25H1111.52V299.5H1110.27V298.25ZM1107.77 300.75H1109.02V302H1107.77V300.75ZM1106.52 302H1107.77V303.25H1106.52V302ZM1111.52 295.75H1112.77V298.25H1111.52V295.75ZM1109.02 299.5H1110.27V300.75H1109.02V299.5ZM1105.27 303.25H1106.52V305.75H1105.27V303.25ZM1106.52 298.25H1107.77V299.5H1106.52V298.25Z" fill="#666666"/>
<path d="M1164 323.75H1165V326.75H1166V327.75H1165V329.75H1164V323.75ZM1165 329.75H1168V330.75H1165V329.75ZM1165 322.75H1168V323.75H1165V322.75ZM1168 323.75H1169V329.75H1168V325.75H1167V324.75H1168V323.75ZM1166 325.75H1167V326.75H1166V325.75ZM1175 329.75V330.75H1172V329.75H1175ZM1172 329.75H1171V328.75H1172V329.75ZM1175 326.75V323.75H1176V329.75H1175V327.75H1172V326.75H1175ZM1172 326.75H1171V323.75H1172V326.75ZM1172 322.75H1175V323.75H1172V322.75ZM1178.01 322.75H1183.01V323.75H1179.01V325.75H1182.01V326.75H1178.01V322.75ZM1182.01 326.75H1183.01V329.75H1182.01V326.75ZM1182.01 329.75V330.75H1179.01V329.75H1182.01ZM1179.01 329.75H1178.01V328.75H1179.01V329.75Z" fill="#666666"/>
<path d="M1164 347.75H1165V350.75H1166V351.75H1165V353.75H1164V347.75ZM1165 353.75H1168V354.75H1165V353.75ZM1165 346.75H1168V347.75H1165V346.75ZM1168 347.75H1169V353.75H1168V349.75H1167V348.75H1168V347.75ZM1166 349.75H1167V350.75H1166V349.75ZM1175 353.75V354.75H1172V353.75H1175ZM1172 353.75H1171V352.75H1172V353.75ZM1175 350.75V347.75H1176V353.75H1175V351.75H1172V350.75H1175ZM1172 350.75H1171V347.75H1172V350.75ZM1172 346.75H1175V347.75H1172V346.75ZM1178.01 346.75H1183.01V347.75H1179.01V349.75H1182.01V350.75H1178.01V346.75ZM1182.01 350.75H1183.01V353.75H1182.01V350.75ZM1182.01 353.75V354.75H1179.01V353.75H1182.01ZM1179.01 353.75H1178.01V352.75H1179.01V353.75Z" fill="#666666"/>
<path d="M1164 371.75H1165V374.75H1166V375.75H1165V377.75H1164V371.75ZM1165 377.75H1168V378.75H1165V377.75ZM1165 370.75H1168V371.75H1165V370.75ZM1168 371.75H1169V377.75H1168V373.75H1167V372.75H1168V371.75ZM1166 373.75H1167V374.75H1166V373.75ZM1175 377.75V378.75H1172V377.75H1175ZM1172 377.75H1171V376.75H1172V377.75ZM1175 374.75V371.75H1176V377.75H1175V375.75H1172V374.75H1175ZM1172 374.75H1171V371.75H1172V374.75ZM1172 370.75H1175V371.75H1172V370.75ZM1178.01 370.75H1183.01V371.75H1179.01V373.75H1182.01V374.75H1178.01V370.75ZM1182.01 374.75H1183.01V377.75H1182.01V374.75ZM1182.01 377.75V378.75H1179.01V377.75H1182.01ZM1179.01 377.75H1178.01V376.75H1179.01V377.75Z" fill="#666666"/>
<rect x="1156.5" y="319.25" width="15" height="87" transform="rotate(90 1156.5 319.25)" stroke="#666666"/>
<rect x="1153" y="318.75" width="16" height="84" transform="rotate(90 1153 318.75)" fill="#666666"/>
<rect x="1156.5" y="343.25" width="15" height="87" transform="rotate(90 1156.5 343.25)" stroke="#666666"/>
<rect x="1153" y="342.75" width="16" height="84" transform="rotate(90 1153 342.75)" fill="#666666"/>
<rect x="1156.5" y="367.25" width="15" height="87" transform="rotate(90 1156.5 367.25)" stroke="#666666"/>
<rect x="1153" y="366.75" width="16" height="84" transform="rotate(90 1153 366.75)" fill="#666666"/>
<path d="M1069.25 466H1070.5V473.5H1069.25V466ZM1070.5 473.5H1074.25V474.75H1075.5V476H1073V474.75H1070.5V473.5ZM1074.25 466H1075.5V473.5H1074.25V466ZM1074.25 466H1070.5V464.75H1074.25V466ZM1078 464.75H1084.25V466H1081.75V474.75H1080.5V466H1078V464.75ZM1086.76 464.75H1088.01V468.5H1086.76V464.75ZM1091.76 464.75H1093.01V468.5H1091.76V464.75ZM1089.26 469.75H1090.51V474.75H1089.26V469.75ZM1088.01 468.5H1089.26V469.75H1088.01V468.5ZM1090.51 468.5H1091.76V469.75H1090.51V468.5ZM1104.27 466H1105.52V467.25H1104.27V466ZM1106.77 466H1105.52V464.75H1106.77V466ZM1106.77 466H1108.02V467.25H1106.77V466ZM1109.27 473.5H1108.02V472.25H1109.27V473.5ZM1109.27 473.5H1110.52V474.75H1109.27V473.5ZM1109.27 471H1110.52V472.25H1109.27V471ZM1110.52 472.25H1111.77V473.5H1110.52V472.25ZM1109.27 467.25H1110.52V468.5H1109.27V467.25ZM1106.77 469.75H1108.02V471H1106.77V469.75ZM1105.52 471H1106.77V472.25H1105.52V471ZM1110.52 464.75H1111.77V467.25H1110.52V464.75ZM1108.02 468.5H1109.27V469.75H1108.02V468.5ZM1104.27 472.25H1105.52V474.75H1104.27V472.25ZM1105.52 467.25H1106.77V468.5H1105.52V467.25Z" fill="#666666"/>
<path d="M1163 492.75H1164V495.75H1165V496.75H1164V498.75H1163V492.75ZM1164 498.75H1167V499.75H1164V498.75ZM1164 491.75H1167V492.75H1164V491.75ZM1167 492.75H1168V498.75H1167V494.75H1166V493.75H1167V492.75ZM1165 494.75H1166V495.75H1165V494.75ZM1171 496.75H1172V499.75H1171V496.75ZM1172 495.75H1173V496.75H1172V495.75ZM1173 494.75H1174V495.75H1173V494.75ZM1174 492.75H1170V491.75H1175V494.75H1174V492.75ZM1179.01 493.75H1177.01V492.75H1179.01V491.75H1180.01V498.75H1182.01V499.75H1177.01V498.75H1179.01V493.75Z" fill="#666666"/>
<path d="M1163 516.75H1164V519.75H1165V520.75H1164V522.75H1163V516.75ZM1164 522.75H1167V523.75H1164V522.75ZM1164 515.75H1167V516.75H1164V515.75ZM1167 516.75H1168V522.75H1167V518.75H1166V517.75H1167V516.75ZM1165 518.75H1166V519.75H1165V518.75ZM1171 520.75H1172V523.75H1171V520.75ZM1172 519.75H1173V520.75H1172V519.75ZM1173 518.75H1174V519.75H1173V518.75ZM1174 516.75H1170V515.75H1175V518.75H1174V516.75ZM1179.01 517.75H1177.01V516.75H1179.01V515.75H1180.01V522.75H1182.01V523.75H1177.01V522.75H1179.01V517.75Z" fill="#666666"/>
<path d="M1163 540.75H1164V543.75H1165V544.75H1164V546.75H1163V540.75ZM1164 546.75H1167V547.75H1164V546.75ZM1164 539.75H1167V540.75H1164V539.75ZM1167 540.75H1168V546.75H1167V542.75H1166V541.75H1167V540.75ZM1165 542.75H1166V543.75H1165V542.75ZM1171 544.75H1172V547.75H1171V544.75ZM1172 543.75H1173V544.75H1172V543.75ZM1173 542.75H1174V543.75H1173V542.75ZM1174 540.75H1170V539.75H1175V542.75H1174V540.75ZM1179.01 541.75H1177.01V540.75H1179.01V539.75H1180.01V546.75H1182.01V547.75H1177.01V546.75H1179.01V541.75Z" fill="#666666"/>
<rect x="1155.5" y="488.25" width="15" height="87" transform="rotate(90 1155.5 488.25)" stroke="#666666"/>
<rect x="1131" y="487.75" width="16" height="63" transform="rotate(90 1131 487.75)" fill="#666666"/>
<rect x="1155.5" y="512.25" width="15" height="87" transform="rotate(90 1155.5 512.25)" stroke="#666666"/>
<rect x="1131" y="511.75" width="16" height="63" transform="rotate(90 1131 511.75)" fill="#666666"/>
<rect x="1155.5" y="536.25" width="15" height="87" transform="rotate(90 1155.5 536.25)" stroke="#666666"/>
<rect x="1131" y="535.75" width="16" height="63" transform="rotate(90 1131 535.75)" fill="#666666"/>
<path d="M8.75 338.75H13.75V340H10V350H8.75V338.75ZM22.5049 338.75V340H13.7549V338.75H22.5049ZM32.5146 335H33.7646V342.5H32.5146V335ZM33.7646 342.5H37.5146V343.75H33.7646V342.5ZM37.5146 335H38.7646V342.5H37.5146V335ZM33.7646 333.75H37.5146V335H33.7646V333.75ZM41.2695 335H42.5195V337.5H41.2695V335ZM42.5195 337.5H46.2695V338.75H42.5195V337.5ZM46.2695 342.5V343.75H42.5195V342.5H46.2695ZM42.5195 342.5H41.2695V341.25H42.5195V342.5ZM46.2695 338.75H47.5195V342.5H46.2695V338.75ZM42.5195 333.75H46.2695V335H42.5195V333.75ZM46.2695 335H47.5195V336.25H46.2695V335ZM58.7793 336.25H60.0293V338.75H63.7793V336.25H65.0293V343.75H63.7793V340H60.0293V343.75H58.7793V336.25ZM61.2793 333.75H62.5293V335H61.2793V333.75ZM60.0293 335H61.2793V336.25H60.0293V335ZM62.5293 335H63.7793V336.25H62.5293V335ZM67.5342 333.75H68.7842V342.5H67.5342V333.75ZM68.7842 342.5H72.5342V343.75H68.7842V342.5ZM72.5342 333.75H73.7842V342.5H72.5342V333.75ZM76.2891 333.75H81.2891V335H77.5391V342.5H81.2891V343.75H76.2891V333.75ZM81.2891 335H82.5391V342.5H81.2891V335ZM87.5439 342.5V335H85.0439V333.75H91.2939V335H88.7939V342.5H91.2939V343.75H85.0439V342.5H87.5439ZM93.7988 335H95.0488V342.5H93.7988V335ZM95.0488 342.5H98.7988V343.75H95.0488V342.5ZM98.7988 335H100.049V342.5H98.7988V335ZM95.0488 333.75H98.7988V335H95.0488V333.75ZM118.809 338.75V340H110.059V338.75H118.809ZM127.563 338.75V340H118.813V338.75H127.563ZM132.568 338.75V350H131.318V340H127.568V338.75H132.568Z" fill="#666666"/>
<path d="M9 369.75H10V371.75H11V372.75H10V377.75H9V369.75ZM13 372.75H12V371.75H13V369.75H14V377.75H13V372.75ZM11 372.75H12V374.75H11V372.75ZM16.0039 371.75H17.0039V373.75H20.0039V371.75H21.0039V377.75H20.0039V374.75H17.0039V377.75H16.0039V371.75ZM18.0039 369.75H19.0039V370.75H18.0039V369.75ZM17.0039 370.75H18.0039V371.75H17.0039V370.75ZM19.0039 370.75H20.0039V371.75H19.0039V370.75ZM23.0078 370.75H24.0078V372.75H23.0078V370.75ZM24.0078 372.75H27.0078V373.75H24.0078V372.75ZM27.0078 376.75V377.75H24.0078V376.75H27.0078ZM24.0078 376.75H23.0078V375.75H24.0078V376.75ZM27.0078 373.75H28.0078V376.75H27.0078V373.75ZM24.0078 369.75H27.0078V370.75H24.0078V369.75ZM27.0078 370.75H28.0078V371.75H27.0078V370.75ZM30.0117 369.75H35.0117V370.75H33.0117V377.75H32.0117V370.75H30.0117V369.75ZM37.0156 369.75H42.0156V370.75H38.0156V372.75H41.0156V373.75H38.0156V376.75H42.0156V377.75H37.0156V369.75ZM44.0195 369.75H48.0195V370.75H45.0195V373.75H48.0195V375.75H47.0195V374.75H45.0195V377.75H44.0195V369.75ZM48.0195 370.75H49.0195V373.75H48.0195V370.75ZM48.0195 375.75H49.0195V377.75H48.0195V375.75ZM60.0273 376.75H59.0273V374.75H60.0273V376.75ZM60.0273 376.75H61.0273V377.75H60.0273V376.75ZM58.0273 369.75H59.0273V374.75H58.0273V369.75ZM62.0273 369.75H63.0273V374.75H62.0273V369.75ZM61.0273 374.75H62.0273V376.75H61.0273V374.75ZM65.0313 370.75H66.0313V376.75H65.0313V370.75ZM66.0313 376.75H69.0313V377.75H66.0313V376.75ZM69.0313 370.75H70.0313V376.75H69.0313V370.75ZM66.0313 369.75H69.0313V370.75H66.0313V369.75ZM72.0352 369.75H73.0352V376.75H77.0352V377.75H72.0352V369.75ZM79.0391 369.75H80.0391V376.75H79.0391V369.75ZM80.0391 376.75H83.0391V377.75H80.0391V376.75ZM83.0391 369.75H84.0391V376.75H83.0391V369.75ZM86.043 369.75H87.043V371.75H88.043V372.75H87.043V377.75H86.043V369.75ZM90.043 372.75H89.043V371.75H90.043V369.75H91.043V377.75H90.043V372.75ZM88.043 372.75H89.043V374.75H88.043V372.75ZM93.0469 369.75H98.0469V370.75H94.0469V372.75H97.0469V373.75H94.0469V376.75H98.0469V377.75H93.0469V369.75Z" fill="#666666"/>
<path d="M112.672 420.081L66.0028 466.75" stroke="#666666"/>
<path d="M132 466.75C132 430.299 102.451 400.75 66 400.75C29.5492 400.75 0 430.299 0 466.75" stroke="#666666" stroke-width="2"/>
<path d="M423 559.75H424V565.75H423V559.75ZM424 565.75H427V566.75H424V565.75ZM427 564.75H428V565.75H427V564.75ZM424 558.75H427V559.75H424V558.75ZM427 559.75H428V560.75H427V559.75ZM430.004 558.75H434.004V559.75H431.004V562.75H434.004V564.75H433.004V563.75H431.004V566.75H430.004V558.75ZM434.004 559.75H435.004V562.75H434.004V559.75ZM434.004 564.75H435.004V566.75H434.004V564.75ZM437.008 558.75H442.008V559.75H438.008V561.75H441.008V562.75H438.008V565.75H442.008V566.75H437.008V558.75ZM444.012 560.75H445.012V562.75H448.012V560.75H449.012V566.75H448.012V563.75H445.012V566.75H444.012V560.75ZM446.012 558.75H447.012V559.75H446.012V558.75ZM445.012 559.75H446.012V560.75H445.012V559.75ZM447.012 559.75H448.012V560.75H447.012V559.75ZM451.016 558.75H456.016V559.75H454.016V566.75H453.016V559.75H451.016V558.75ZM458.02 558.75H463.02V559.75H459.02V561.75H462.02V562.75H459.02V565.75H463.02V566.75H458.02V558.75ZM465.023 558.75H469.023V559.75H466.023V565.75H469.023V566.75H465.023V558.75ZM469.023 559.75H470.023V565.75H469.023V559.75ZM474.027 564.75H475.027V566.75H474.027V564.75ZM474.027 560.75H475.027V562.75H474.027V560.75ZM423 575.75H424V576.75H428V577.75H423V575.75ZM427 570.75H424V569.75H427V570.75ZM427 570.75H428V572.75H427V570.75ZM424 574.75H425V575.75H424V574.75ZM423 570.75H424V571.75H423V570.75ZM426 572.75H427V573.75H426V572.75ZM425 573.75H426V574.75H425V573.75ZM430.004 570.75H431.004V573.75H432.004V574.75H431.004V576.75H430.004V570.75ZM431.004 576.75H434.004V577.75H431.004V576.75ZM431.004 569.75H434.004V570.75H431.004V569.75ZM434.004 570.75H435.004V576.75H434.004V572.75H433.004V571.75H434.004V570.75ZM432.004 572.75H433.004V573.75H432.004V572.75ZM437.008 575.75H438.008V576.75H442.008V577.75H437.008V575.75ZM441.008 570.75H438.008V569.75H441.008V570.75ZM441.008 570.75H442.008V572.75H441.008V570.75ZM438.008 574.75H439.008V575.75H438.008V574.75ZM437.008 570.75H438.008V571.75H437.008V570.75ZM440.008 572.75H441.008V573.75H440.008V572.75ZM439.008 573.75H440.008V574.75H439.008V573.75ZM444.012 575.75H445.012V576.75H449.012V577.75H444.012V575.75ZM448.012 570.75H445.012V569.75H448.012V570.75ZM448.012 570.75H449.012V572.75H448.012V570.75ZM445.012 574.75H446.012V575.75H445.012V574.75ZM444.012 570.75H445.012V571.75H444.012V570.75ZM447.012 572.75H448.012V573.75H447.012V572.75ZM446.012 573.75H447.012V574.75H446.012V573.75Z" fill="#666666"/>
<path d="M524 558.75H528V559.75H525V562.75H528V564.75H527V563.75H525V566.75H524V558.75ZM528 559.75H529V562.75H528V559.75ZM528 564.75H529V566.75H528V564.75ZM531.004 558.75H536.004V559.75H532.004V561.75H535.004V562.75H532.004V565.75H536.004V566.75H531.004V558.75ZM538.008 558.75H539.008V565.75H543.008V566.75H538.008V558.75ZM545.012 558.75H550.012V559.75H546.012V561.75H549.012V562.75H546.012V565.75H550.012V566.75H545.012V558.75ZM552.016 560.75H553.016V562.75H556.016V560.75H557.016V566.75H556.016V563.75H553.016V566.75H552.016V560.75ZM554.016 558.75H555.016V559.75H554.016V558.75ZM553.016 559.75H554.016V560.75H553.016V559.75ZM555.016 559.75H556.016V560.75H555.016V559.75ZM559.02 559.75H560.02V561.75H559.02V559.75ZM560.02 561.75H563.02V562.75H560.02V561.75ZM563.02 565.75V566.75H560.02V565.75H563.02ZM560.02 565.75H559.02V564.75H560.02V565.75ZM563.02 562.75H564.02V565.75H563.02V562.75ZM560.02 558.75H563.02V559.75H560.02V558.75ZM563.02 559.75H564.02V560.75H563.02V559.75ZM566.023 558.75H571.023V559.75H567.023V561.75H570.023V562.75H567.023V565.75H571.023V566.75H566.023V558.75ZM573.027 558.75H577.027V559.75H574.027V565.75H577.027V566.75H573.027V558.75ZM577.027 559.75H578.027V565.75H577.027V559.75ZM582.031 564.75H583.031V566.75H582.031V564.75ZM582.031 560.75H583.031V562.75H582.031V560.75ZM524 575.75H525V576.75H529V577.75H524V575.75ZM528 570.75H525V569.75H528V570.75ZM528 570.75H529V572.75H528V570.75ZM525 574.75H526V575.75H525V574.75ZM524 570.75H525V571.75H524V570.75ZM527 572.75H528V573.75H527V572.75ZM526 573.75H527V574.75H526V573.75ZM531.004 570.75H532.004V573.75H533.004V574.75H532.004V576.75H531.004V570.75ZM532.004 576.75H535.004V577.75H532.004V576.75ZM532.004 569.75H535.004V570.75H532.004V569.75ZM535.004 570.75H536.004V576.75H535.004V572.75H534.004V571.75H535.004V570.75ZM533.004 572.75H534.004V573.75H533.004V572.75ZM538.008 575.75H539.008V576.75H543.008V577.75H538.008V575.75ZM542.008 570.75H539.008V569.75H542.008V570.75ZM542.008 570.75H543.008V572.75H542.008V570.75ZM539.008 574.75H540.008V575.75H539.008V574.75ZM538.008 570.75H539.008V571.75H538.008V570.75ZM541.008 572.75H542.008V573.75H541.008V572.75ZM540.008 573.75H541.008V574.75H540.008V573.75ZM548.012 570.75H549.012V569.75H550.012V577.75H549.012V575.75H545.012V573.75H546.012V574.75H549.012V571.75H548.012V570.75ZM547.012 571.75H548.012V572.75H547.012V571.75ZM546.012 572.75H547.012V573.75H546.012V572.75Z" fill="#666666"/>
<path d="M632 558.75H633V564.75H632V558.75ZM633 564.75H636V565.75H633V564.75ZM636 563.75H637V564.75H636V563.75ZM633 557.75H636V558.75H633V557.75ZM636 558.75H637V559.75H636V558.75ZM639.004 557.75H640.004V564.75H644.004V565.75H639.004V557.75ZM646.008 559.75H647.008V561.75H650.008V559.75H651.008V565.75H650.008V562.75H647.008V565.75H646.008V559.75ZM648.008 557.75H649.008V558.75H648.008V557.75ZM647.008 558.75H648.008V559.75H647.008V558.75ZM649.008 558.75H650.008V559.75H649.008V558.75ZM653.012 558.75H654.012V560.75H653.012V558.75ZM654.012 560.75H657.012V561.75H654.012V560.75ZM657.012 564.75V565.75H654.012V564.75H657.012ZM654.012 564.75H653.012V563.75H654.012V564.75ZM657.012 561.75H658.012V564.75H657.012V561.75ZM654.012 557.75H657.012V558.75H654.012V557.75ZM657.012 558.75H658.012V559.75H657.012V558.75ZM660.016 558.75H661.016V560.75H660.016V558.75ZM661.016 560.75H664.016V561.75H661.016V560.75ZM664.016 564.75V565.75H661.016V564.75H664.016ZM661.016 564.75H660.016V563.75H661.016V564.75ZM664.016 561.75H665.016V564.75H664.016V561.75ZM661.016 557.75H664.016V558.75H661.016V557.75ZM664.016 558.75H665.016V559.75H664.016V558.75ZM669.02 564.75V558.75H667.02V557.75H672.02V558.75H670.02V564.75H672.02V565.75H667.02V564.75H669.02ZM674.023 557.75H679.023V558.75H675.023V560.75H678.023V561.75H675.023V565.75H674.023V557.75ZM683.027 564.75V558.75H681.027V557.75H686.027V558.75H684.027V564.75H686.027V565.75H681.027V564.75H683.027ZM688.031 558.75H689.031V564.75H688.031V558.75ZM689.031 564.75H692.031V565.75H689.031V564.75ZM692.031 563.75H693.031V564.75H692.031V563.75ZM689.031 557.75H692.031V558.75H689.031V557.75ZM692.031 558.75H693.031V559.75H692.031V558.75ZM695.035 559.75H696.035V561.75H699.035V559.75H700.035V565.75H699.035V562.75H696.035V565.75H695.035V559.75ZM697.035 557.75H698.035V558.75H697.035V557.75ZM696.035 558.75H697.035V559.75H696.035V558.75ZM698.035 558.75H699.035V559.75H698.035V558.75ZM702.039 557.75H707.039V558.75H705.039V565.75H704.039V558.75H702.039V557.75ZM711.043 564.75V558.75H709.043V557.75H714.043V558.75H712.043V564.75H714.043V565.75H709.043V564.75H711.043ZM716.047 558.75H717.047V564.75H716.047V558.75ZM717.047 564.75H720.047V565.75H717.047V564.75ZM720.047 558.75H721.047V564.75H720.047V558.75ZM717.047 557.75H720.047V558.75H717.047V557.75ZM723.051 557.75H724.051V559.75H725.051V560.75H724.051V565.75H723.051V557.75ZM727.051 562.75H726.051V561.75H727.051V557.75H728.051V565.75H727.051V562.75ZM726.051 561.75H725.051V560.75H726.051V561.75ZM732.055 563.75H733.055V565.75H732.055V563.75ZM732.055 559.75H733.055V561.75H732.055V559.75ZM632 568.75H636V569.75H633V572.75H636V573.75H633V576.75H632V568.75ZM636 569.75H637V572.75H636V569.75ZM641.004 575.75V569.75H639.004V568.75H644.004V569.75H642.004V575.75H644.004V576.75H639.004V575.75H641.004ZM650.008 573.75H651.008V576.75H650.008V573.75ZM646.008 573.75H647.008V576.75H646.008V573.75ZM648.008 571.75H647.008V570.75H648.008V571.75ZM648.008 571.75H649.008V572.75H648.008V571.75ZM649.008 570.75H650.008V571.75H649.008V570.75ZM647.008 570.75H646.008V568.75H647.008V570.75ZM647.008 572.75H648.008V573.75H647.008V572.75ZM650.008 568.75H651.008V570.75H650.008V568.75ZM649.008 572.75H650.008V573.75H649.008V572.75ZM653.012 568.75H658.012V569.75H654.012V571.75H657.012V572.75H654.012V575.75H658.012V576.75H653.012V568.75ZM660.016 568.75H661.016V575.75H665.016V576.75H660.016V568.75ZM674.023 568.75H675.023V570.75H676.023V571.75H675.023V576.75H674.023V568.75ZM678.023 571.75H677.023V570.75H678.023V568.75H679.023V576.75H678.023V571.75ZM676.023 571.75H677.023V573.75H676.023V571.75ZM681.027 569.75H682.027V575.75H681.027V569.75ZM682.027 575.75H685.027V576.75H682.027V575.75ZM685.027 569.75H686.027V575.75H685.027V569.75ZM682.027 568.75H685.027V569.75H682.027V568.75ZM688.031 568.75H689.031V570.75H690.031V571.75H689.031V576.75H688.031V568.75ZM692.031 573.75H691.031V572.75H692.031V568.75H693.031V576.75H692.031V573.75ZM691.031 572.75H690.031V571.75H691.031V572.75ZM695.035 569.75H696.035V575.75H695.035V569.75ZM696.035 575.75H699.035V576.75H696.035V575.75ZM699.035 569.75H700.035V575.75H699.035V569.75ZM696.035 568.75H699.035V569.75H696.035V568.75ZM702.039 569.75H703.039V571.75H702.039V569.75ZM703.039 571.75H706.039V572.75H703.039V571.75ZM706.039 575.75V576.75H703.039V575.75H706.039ZM703.039 575.75H702.039V574.75H703.039V575.75ZM706.039 572.75H707.039V575.75H706.039V572.75ZM703.039 568.75H706.039V569.75H703.039V568.75ZM706.039 569.75H707.039V570.75H706.039V569.75ZM709.043 568.75H713.043V569.75H710.043V572.75H713.043V573.75H710.043V576.75H709.043V568.75ZM713.043 569.75H714.043V572.75H713.043V569.75ZM716.047 570.75H717.047V572.75H720.047V570.75H721.047V576.75H720.047V573.75H717.047V576.75H716.047V570.75ZM718.047 568.75H719.047V569.75H718.047V568.75ZM717.047 569.75H718.047V570.75H717.047V569.75ZM719.047 569.75H720.047V570.75H719.047V569.75ZM723.051 569.75H724.051V575.75H723.051V569.75ZM724.051 575.75H727.051V576.75H724.051V575.75ZM727.051 574.75H728.051V575.75H727.051V574.75ZM724.051 568.75H727.051V569.75H724.051V568.75ZM727.051 569.75H728.051V570.75H727.051V569.75ZM730.055 568.75H735.055V569.75H731.055V571.75H734.055V572.75H731.055V575.75H735.055V576.75H730.055V568.75ZM737.059 568.75H741.059V569.75H738.059V575.75H741.059V576.75H737.059V568.75ZM741.059 569.75H742.059V575.75H741.059V569.75Z" fill="#666666"/>
<path d="M789 557.75H790V564.75H794V565.75H789V557.75ZM798.004 564.75V558.75H796.004V557.75H801.004V558.75H799.004V564.75H801.004V565.75H796.004V564.75H798.004ZM803.008 558.75H804.008V564.75H803.008V558.75ZM804.008 564.75H807.008V565.75H804.008V564.75ZM807.008 563.75H808.008V564.75H807.008V563.75ZM804.008 557.75H807.008V558.75H804.008V557.75ZM807.008 558.75H808.008V559.75H807.008V558.75ZM810.012 557.75H815.012V558.75H811.012V560.75H814.012V561.75H811.012V564.75H815.012V565.75H810.012V557.75ZM817.016 557.75H818.016V559.75H819.016V560.75H818.016V565.75H817.016V557.75ZM821.016 562.75H820.016V561.75H821.016V557.75H822.016V565.75H821.016V562.75ZM820.016 561.75H819.016V560.75H820.016V561.75ZM824.02 558.75H825.02V560.75H824.02V558.75ZM825.02 560.75H828.02V561.75H825.02V560.75ZM828.02 564.75V565.75H825.02V564.75H828.02ZM825.02 564.75H824.02V563.75H825.02V564.75ZM828.02 561.75H829.02V564.75H828.02V561.75ZM825.02 557.75H828.02V558.75H825.02V557.75ZM828.02 558.75H829.02V559.75H828.02V558.75ZM831.023 557.75H836.023V558.75H832.023V560.75H835.023V561.75H832.023V564.75H836.023V565.75H831.023V557.75ZM840.027 563.75H841.027V565.75H840.027V563.75ZM840.027 559.75H841.027V561.75H840.027V559.75ZM789 569.75H790V571.75H789V569.75ZM790 571.75H793V572.75H790V571.75ZM793 575.75V576.75H790V575.75H793ZM790 575.75H789V574.75H790V575.75ZM793 572.75H794V575.75H793V572.75ZM790 568.75H793V569.75H790V568.75ZM793 569.75H794V570.75H793V569.75ZM798.004 575.75V569.75H796.004V568.75H801.004V569.75H799.004V575.75H801.004V576.75H796.004V575.75H798.004ZM803.008 568.75H804.008V575.75H808.008V576.75H803.008V568.75ZM817.016 569.75H818.016V575.75H817.016V569.75ZM818.016 575.75H821.016V576.75H818.016V575.75ZM821.016 569.75H822.016V575.75H821.016V569.75ZM818.016 568.75H821.016V569.75H818.016V568.75ZM824.02 568.75H829.02V569.75H825.02V571.75H828.02V572.75H825.02V576.75H824.02V568.75ZM831.023 568.75H832.023V575.75H836.023V576.75H831.023V568.75Z" fill="#666666"/>
<rect x="311" y="556.75" width="69" height="12" fill="#666666"/>
<rect x="311" y="567.75" width="34" height="12" fill="#666666"/>
<path d="M315 558.75H319V559.75H316V565.75H319V566.75H315V558.75ZM319 559.75H320V565.75H319V559.75ZM322.004 558.75H327.004V559.75H323.004V561.75H326.004V562.75H323.004V565.75H327.004V566.75H322.004V558.75ZM329.008 558.75H333.008V559.75H330.008V562.75H333.008V563.75H330.008V566.75H329.008V558.75ZM333.008 559.75H334.008V562.75H333.008V559.75ZM336.012 560.75H337.012V562.75H340.012V560.75H341.012V566.75H340.012V563.75H337.012V566.75H336.012V560.75ZM338.012 558.75H339.012V559.75H338.012V558.75ZM337.012 559.75H338.012V560.75H337.012V559.75ZM339.012 559.75H340.012V560.75H339.012V559.75ZM343.016 558.75H347.016V559.75H344.016V562.75H347.016V564.75H346.016V563.75H344.016V566.75H343.016V558.75ZM347.016 559.75H348.016V562.75H347.016V559.75ZM347.016 564.75H348.016V566.75H347.016V564.75ZM350.02 558.75H355.02V559.75H353.02V566.75H352.02V559.75H350.02V558.75ZM357.023 558.75H358.023V565.75H357.023V558.75ZM358.023 565.75H361.023V566.75H358.023V565.75ZM361.023 558.75H362.023V565.75H361.023V558.75ZM364.027 558.75H368.027V559.75H365.027V562.75H368.027V564.75H367.027V563.75H365.027V566.75H364.027V558.75ZM368.027 559.75H369.027V562.75H368.027V559.75ZM368.027 564.75H369.027V566.75H368.027V564.75ZM371.031 558.75H376.031V559.75H372.031V561.75H375.031V562.75H372.031V565.75H376.031V566.75H371.031V558.75ZM315 569.75H316V571.75H317V572.75H316V577.75H315V569.75ZM319 572.75H318V571.75H319V569.75H320V577.75H319V572.75ZM317 572.75H318V574.75H317V572.75ZM322.004 570.75H323.004V576.75H322.004V570.75ZM323.004 576.75H326.004V577.75H323.004V576.75ZM326.004 570.75H327.004V576.75H326.004V570.75ZM323.004 569.75H326.004V570.75H323.004V569.75ZM329.008 569.75H330.008V571.75H331.008V572.75H330.008V577.75H329.008V569.75ZM333.008 574.75H332.008V573.75H333.008V569.75H334.008V577.75H333.008V574.75ZM332.008 573.75H331.008V572.75H332.008V573.75ZM336.012 570.75H337.012V576.75H336.012V570.75ZM337.012 576.75H340.012V577.75H337.012V576.75ZM340.012 570.75H341.012V576.75H340.012V570.75ZM337.012 569.75H340.012V570.75H337.012V569.75Z" fill="#EEEEEE"/>
<path d="M957.484 -11.25H959.484V-9.25H957.484V-11.25ZM959.484 -13.25H965.484V-11.25H959.484V-13.25ZM965.484 -11.25H967.484V-7.25H965.484V-11.25ZM961.484 -7.25H965.484V-5.25H961.484V-7.25ZM965.484 -5.25H967.484V0.75H965.484V-5.25ZM965.484 0.75V2.75H959.484V0.75H965.484ZM959.484 0.75H957.484V-1.25H959.484V0.75ZM971.492 -13.25H981.492V-11.25H973.492V-7.25H979.492V-5.25H971.492V-13.25ZM979.492 -5.25H981.492V0.75H979.492V-5.25ZM979.492 0.75V2.75H973.492V0.75H979.492ZM973.492 0.75H971.492V-1.25H973.492V0.75Z" fill="#666666"/>
<path d="M957.484 32.75H959.484V34.75H957.484V32.75ZM959.484 30.75H965.484V32.75H959.484V30.75ZM965.484 32.75H967.484V36.75H965.484V32.75ZM961.484 36.75H965.484V38.75H961.484V36.75ZM965.484 38.75H967.484V44.75H965.484V38.75ZM965.484 44.75V46.75H959.484V44.75H965.484ZM959.484 44.75H957.484V42.75H959.484V44.75ZM971.492 32.75H973.492V38.75H975.492V40.75H973.492V44.75H971.492V32.75ZM973.492 44.75H979.492V46.75H973.492V44.75ZM973.492 30.75H979.492V32.75H973.492V30.75ZM979.492 32.75H981.492V44.75H979.492V36.75H977.492V34.75H979.492V32.75ZM975.492 36.75H977.492V38.75H975.492V36.75Z" fill="#666666"/>
<path d="M957.484 86.75H959.484V88.75H967.484V90.75H957.484V86.75ZM965.484 76.75H959.484V74.75H965.484V76.75ZM965.484 76.75H967.484V80.75H965.484V76.75ZM959.484 84.75H961.484V86.75H959.484V84.75ZM957.484 76.75H959.484V78.75H957.484V76.75ZM963.484 80.75H965.484V82.75H963.484V80.75ZM961.484 82.75H963.484V84.75H961.484V82.75ZM971.492 74.75H981.492V76.75H973.492V80.75H979.492V82.75H971.492V74.75ZM979.492 82.75H981.492V88.75H979.492V82.75ZM979.492 88.75V90.75H973.492V88.75H979.492ZM973.492 88.75H971.492V86.75H973.492V88.75Z" fill="#666666"/>
<path d="M957.484 130.75H959.484V132.75H967.484V134.75H957.484V130.75ZM965.484 120.75H959.484V118.75H965.484V120.75ZM965.484 120.75H967.484V124.75H965.484V120.75ZM959.484 128.75H961.484V130.75H959.484V128.75ZM957.484 120.75H959.484V122.75H957.484V120.75ZM963.484 124.75H965.484V126.75H963.484V124.75ZM961.484 126.75H963.484V128.75H961.484V126.75ZM971.492 120.75H973.492V126.75H975.492V128.75H973.492V132.75H971.492V120.75ZM973.492 132.75H979.492V134.75H973.492V132.75ZM973.492 118.75H979.492V120.75H973.492V118.75ZM979.492 120.75H981.492V132.75H979.492V124.75H977.492V122.75H979.492V120.75ZM975.492 124.75H977.492V126.75H975.492V124.75Z" fill="#666666"/>
<path d="M961.484 166.75H957.484V164.75H961.484V162.75H963.484V176.75H967.484V178.75H957.484V176.75H961.484V166.75ZM971.492 162.75H981.492V164.75H973.492V168.75H979.492V170.75H971.492V162.75ZM979.492 170.75H981.492V176.75H979.492V170.75ZM979.492 176.75V178.75H973.492V176.75H979.492ZM973.492 176.75H971.492V174.75H973.492V176.75Z" fill="#666666"/>
<path d="M961.484 210.75H957.484V208.75H961.484V206.75H963.484V220.75H967.484V222.75H957.484V220.75H961.484V210.75ZM971.492 208.75H973.492V214.75H975.492V216.75H973.492V220.75H971.492V208.75ZM973.492 220.75H979.492V222.75H973.492V220.75ZM973.492 206.75H979.492V208.75H973.492V206.75ZM979.492 208.75H981.492V220.75H979.492V212.75H977.492V210.75H979.492V208.75ZM975.492 212.75H977.492V214.75H975.492V212.75Z" fill="#666666"/>
<path d="M957.484 252.75H959.484V258.75H961.484V260.75H959.484V264.75H957.484V252.75ZM959.484 264.75H965.484V266.75H959.484V264.75ZM959.484 250.75H965.484V252.75H959.484V250.75ZM965.484 252.75H967.484V264.75H965.484V256.75H963.484V254.75H965.484V252.75ZM961.484 256.75H963.484V258.75H961.484V256.75ZM971.492 250.75H981.492V252.75H973.492V256.75H979.492V258.75H971.492V250.75ZM979.492 258.75H981.492V264.75H979.492V258.75ZM979.492 264.75V266.75H973.492V264.75H979.492ZM973.492 264.75H971.492V262.75H973.492V264.75Z" fill="#666666"/>
<path d="M957.484 296.75H959.484V302.75H961.484V304.75H959.484V308.75H957.484V296.75ZM959.484 308.75H965.484V310.75H959.484V308.75ZM959.484 294.75H965.484V296.75H959.484V294.75ZM965.484 296.75H967.484V308.75H965.484V300.75H963.484V298.75H965.484V296.75ZM961.484 300.75H963.484V302.75H961.484V300.75ZM971.492 296.75H973.492V302.75H975.492V304.75H973.492V308.75H971.492V296.75ZM973.492 308.75H979.492V310.75H973.492V308.75ZM973.492 294.75H979.492V296.75H973.492V294.75ZM979.492 296.75H981.492V308.75H979.492V300.75H977.492V298.75H979.492V296.75ZM975.492 300.75H977.492V302.75H975.492V300.75Z" fill="#666666"/>
<path d="M953.477 346.75V348.75H943.477V346.75H953.477ZM957.484 340.75H959.484V346.75H961.484V348.75H959.484V352.75H957.484V340.75ZM959.484 352.75H965.484V354.75H959.484V352.75ZM959.484 338.75H965.484V340.75H959.484V338.75ZM965.484 340.75H967.484V352.75H965.484V344.75H963.484V342.75H965.484V340.75ZM961.484 344.75H963.484V346.75H961.484V344.75ZM975.492 342.75H971.492V340.75H975.492V338.75H977.492V352.75H981.492V354.75H971.492V352.75H975.492V342.75Z" fill="#666666"/>
<path d="M953.477 390.75V392.75H943.477V390.75H953.477ZM957.484 384.75H959.484V390.75H961.484V392.75H959.484V396.75H957.484V384.75ZM959.484 396.75H965.484V398.75H959.484V396.75ZM959.484 382.75H965.484V384.75H959.484V382.75ZM965.484 384.75H967.484V396.75H965.484V388.75H963.484V386.75H965.484V384.75ZM961.484 388.75H963.484V390.75H961.484V388.75ZM971.492 394.75H973.492V396.75H981.492V398.75H971.492V394.75ZM979.492 384.75H973.492V382.75H979.492V384.75ZM979.492 384.75H981.492V388.75H979.492V384.75ZM973.492 392.75H975.492V394.75H973.492V392.75ZM971.492 384.75H973.492V386.75H971.492V384.75ZM977.492 388.75H979.492V390.75H977.492V388.75ZM975.492 390.75H977.492V392.75H975.492V390.75Z" fill="#666666"/>
<path d="M953.477 434.75V436.75H943.477V434.75H953.477ZM957.484 428.75H959.484V434.75H961.484V436.75H959.484V440.75H957.484V428.75ZM959.484 440.75H965.484V442.75H959.484V440.75ZM959.484 426.75H965.484V428.75H959.484V426.75ZM965.484 428.75H967.484V440.75H965.484V432.75H963.484V430.75H965.484V428.75ZM961.484 432.75H963.484V434.75H961.484V432.75ZM971.492 428.75H973.492V430.75H971.492V428.75ZM973.492 426.75H979.492V428.75H973.492V426.75ZM979.492 428.75H981.492V432.75H979.492V428.75ZM975.492 432.75H979.492V434.75H975.492V432.75ZM979.492 434.75H981.492V440.75H979.492V434.75ZM979.492 440.75V442.75H973.492V440.75H979.492ZM973.492 440.75H971.492V438.75H973.492V440.75Z" fill="#666666"/>
<path d="M953.477 478.75V480.75H943.477V478.75H953.477ZM957.484 472.75H959.484V478.75H961.484V480.75H959.484V484.75H957.484V472.75ZM959.484 484.75H965.484V486.75H959.484V484.75ZM959.484 470.75H965.484V472.75H959.484V470.75ZM965.484 472.75H967.484V484.75H965.484V476.75H963.484V474.75H965.484V472.75ZM961.484 476.75H963.484V478.75H961.484V476.75ZM977.492 472.75H979.492V470.75H981.492V486.75H979.492V482.75H971.492V478.75H973.492V480.75H979.492V474.75H977.492V472.75ZM975.492 474.75H977.492V476.75H975.492V474.75ZM973.492 476.75H975.492V478.75H973.492V476.75Z" fill="#666666"/>
<path d="M953.477 522.75V524.75H943.477V522.75H953.477ZM957.484 516.75H959.484V522.75H961.484V524.75H959.484V528.75H957.484V516.75ZM959.484 528.75H965.484V530.75H959.484V528.75ZM959.484 514.75H965.484V516.75H959.484V514.75ZM965.484 516.75H967.484V528.75H965.484V520.75H963.484V518.75H965.484V516.75ZM961.484 520.75H963.484V522.75H961.484V520.75ZM971.492 514.75H981.492V516.75H973.492V520.75H979.492V522.75H971.492V514.75ZM979.492 522.75H981.492V528.75H979.492V522.75ZM979.492 528.75V530.75H973.492V528.75H979.492ZM973.492 528.75H971.492V526.75H973.492V528.75Z" fill="#666666"/>
<path d="M953.477 566.75V568.75H943.477V566.75H953.477ZM957.484 560.75H959.484V566.75H961.484V568.75H959.484V572.75H957.484V560.75ZM959.484 572.75H965.484V574.75H959.484V572.75ZM959.484 558.75H965.484V560.75H959.484V558.75ZM965.484 560.75H967.484V572.75H965.484V564.75H963.484V562.75H965.484V560.75ZM961.484 564.75H963.484V566.75H961.484V564.75ZM973.492 558.75H979.492V560.75H973.492V558.75ZM971.492 560.75H973.492V564.75H979.492V566.75H973.492V572.75H971.492V560.75ZM979.492 566.75H981.492V572.75H979.492V566.75ZM973.492 572.75H979.492V574.75H973.492V572.75ZM979.492 560.75H981.492V562.75H979.492V560.75Z" fill="#666666"/>
<path d="M214.488 -10.25H220.488V-8.25H214.488V-10.25ZM212.488 -8.25H214.488V-4.25H220.488V-2.25H214.488V3.75H212.488V-8.25ZM220.488 -2.25H222.488V3.75H220.488V-2.25ZM214.488 3.75H220.488V5.75H214.488V3.75ZM220.488 -8.25H222.488V-6.25H220.488V-8.25ZM226.496 1.75H228.496V3.75H236.496V5.75H226.496V1.75ZM234.496 -8.25H228.496V-10.25H234.496V-8.25ZM234.496 -8.25H236.496V-4.25H234.496V-8.25ZM228.496 -0.25H230.496V1.75H228.496V-0.25ZM226.496 -8.25H228.496V-6.25H226.496V-8.25ZM232.496 -4.25H234.496V-2.25H232.496V-4.25ZM230.496 -2.25H232.496V-0.25H230.496V-2.25ZM242.504 -10.25H248.504V-8.25H242.504V-10.25ZM240.504 -8.25H242.504V-4.25H248.504V-2.25H242.504V3.75H240.504V-8.25ZM248.504 -2.25H250.504V3.75H248.504V-2.25ZM242.504 3.75H248.504V5.75H242.504V3.75ZM248.504 -8.25H250.504V-6.25H248.504V-8.25Z" fill="#666666"/>
<path d="M214.488 33.75H220.488V35.75H214.488V33.75ZM212.488 35.75H214.488V39.75H220.488V41.75H214.488V47.75H212.488V35.75ZM220.488 41.75H222.488V47.75H220.488V41.75ZM214.488 47.75H220.488V49.75H214.488V47.75ZM220.488 35.75H222.488V37.75H220.488V35.75ZM226.496 45.75H228.496V47.75H236.496V49.75H226.496V45.75ZM234.496 35.75H228.496V33.75H234.496V35.75ZM234.496 35.75H236.496V39.75H234.496V35.75ZM228.496 43.75H230.496V45.75H228.496V43.75ZM226.496 35.75H228.496V37.75H226.496V35.75ZM232.496 39.75H234.496V41.75H232.496V39.75ZM230.496 41.75H232.496V43.75H230.496V41.75ZM242.504 43.75H244.504V49.75H242.504V43.75ZM244.504 41.75H246.504V43.75H244.504V41.75ZM246.504 39.75H248.504V41.75H246.504V39.75ZM248.504 35.75H240.504V33.75H250.504V39.75H248.504V35.75Z" fill="#666666"/>
<path d="M214.488 77.75H220.488V79.75H214.488V77.75ZM212.488 79.75H214.488V83.75H220.488V85.75H214.488V91.75H212.488V79.75ZM220.488 85.75H222.488V91.75H220.488V85.75ZM214.488 91.75H220.488V93.75H214.488V91.75ZM220.488 79.75H222.488V81.75H220.488V79.75ZM226.496 89.75H228.496V91.75H236.496V93.75H226.496V89.75ZM234.496 79.75H228.496V77.75H234.496V79.75ZM234.496 79.75H236.496V83.75H234.496V79.75ZM228.496 87.75H230.496V89.75H228.496V87.75ZM226.496 79.75H228.496V81.75H226.496V79.75ZM232.496 83.75H234.496V85.75H232.496V83.75ZM230.496 85.75H232.496V87.75H230.496V85.75ZM240.504 79.75H242.504V83.75H240.504V79.75ZM248.504 79.75H242.504V77.75H248.504V79.75ZM248.504 79.75H250.504V83.75H248.504V79.75ZM242.504 83.75H248.504V85.75H242.504V83.75ZM248.504 85.75H250.504V91.75H248.504V85.75ZM240.504 85.75H242.504V91.75H240.504V85.75ZM248.504 91.75V93.75H242.504V91.75H248.504Z" fill="#666666"/>
<path d="M214.488 121.75H220.488V123.75H214.488V121.75ZM212.488 123.75H214.488V127.75H220.488V129.75H214.488V135.75H212.488V123.75ZM220.488 129.75H222.488V135.75H220.488V129.75ZM214.488 135.75H220.488V137.75H214.488V135.75ZM220.488 123.75H222.488V125.75H220.488V123.75ZM226.496 133.75H228.496V135.75H236.496V137.75H226.496V133.75ZM234.496 123.75H228.496V121.75H234.496V123.75ZM234.496 123.75H236.496V127.75H234.496V123.75ZM228.496 131.75H230.496V133.75H228.496V131.75ZM226.496 123.75H228.496V125.75H226.496V123.75ZM232.496 127.75H234.496V129.75H232.496V127.75ZM230.496 129.75H232.496V131.75H230.496V129.75ZM248.504 135.75V137.75H242.504V135.75H248.504ZM242.504 135.75H240.504V133.75H242.504V135.75ZM248.504 129.75V123.75H250.504V135.75H248.504V131.75H242.504V129.75H248.504ZM242.504 129.75H240.504V123.75H242.504V129.75ZM242.504 121.75H248.504V123.75H242.504V121.75Z" fill="#666666"/>
<path d="M214.488 165.75H220.488V167.75H214.488V165.75ZM212.488 167.75H214.488V171.75H220.488V173.75H214.488V179.75H212.488V167.75ZM220.488 173.75H222.488V179.75H220.488V173.75ZM214.488 179.75H220.488V181.75H214.488V179.75ZM220.488 167.75H222.488V169.75H220.488V167.75ZM226.496 167.75H228.496V169.75H226.496V167.75ZM228.496 165.75H234.496V167.75H228.496V165.75ZM234.496 167.75H236.496V171.75H234.496V167.75ZM230.496 171.75H234.496V173.75H230.496V171.75ZM234.496 173.75H236.496V179.75H234.496V173.75ZM234.496 179.75V181.75H228.496V179.75H234.496ZM228.496 179.75H226.496V177.75H228.496V179.75ZM240.504 167.75H242.504V173.75H244.504V175.75H242.504V179.75H240.504V167.75ZM242.504 179.75H248.504V181.75H242.504V179.75ZM242.504 165.75H248.504V167.75H242.504V165.75ZM248.504 167.75H250.504V179.75H248.504V171.75H246.504V169.75H248.504V167.75ZM244.504 171.75H246.504V173.75H244.504V171.75Z" fill="#666666"/>
<path d="M214.488 209.75H220.488V211.75H214.488V209.75ZM212.488 211.75H214.488V215.75H220.488V217.75H214.488V223.75H212.488V211.75ZM220.488 217.75H222.488V223.75H220.488V217.75ZM214.488 223.75H220.488V225.75H214.488V223.75ZM220.488 211.75H222.488V213.75H220.488V211.75ZM226.496 211.75H228.496V213.75H226.496V211.75ZM228.496 209.75H234.496V211.75H228.496V209.75ZM234.496 211.75H236.496V215.75H234.496V211.75ZM230.496 215.75H234.496V217.75H230.496V215.75ZM234.496 217.75H236.496V223.75H234.496V217.75ZM234.496 223.75V225.75H228.496V223.75H234.496ZM228.496 223.75H226.496V221.75H228.496V223.75ZM244.504 213.75H240.504V211.75H244.504V209.75H246.504V223.75H250.504V225.75H240.504V223.75H244.504V213.75Z" fill="#666666"/>
<path d="M214.488 253.75H220.488V255.75H214.488V253.75ZM212.488 255.75H214.488V259.75H220.488V261.75H214.488V267.75H212.488V255.75ZM220.488 261.75H222.488V267.75H220.488V261.75ZM214.488 267.75H220.488V269.75H214.488V267.75ZM220.488 255.75H222.488V257.75H220.488V255.75ZM226.496 255.75H228.496V257.75H226.496V255.75ZM228.496 253.75H234.496V255.75H228.496V253.75ZM234.496 255.75H236.496V259.75H234.496V255.75ZM230.496 259.75H234.496V261.75H230.496V259.75ZM234.496 261.75H236.496V267.75H234.496V261.75ZM234.496 267.75V269.75H228.496V267.75H234.496ZM228.496 267.75H226.496V265.75H228.496V267.75ZM240.504 265.75H242.504V267.75H250.504V269.75H240.504V265.75ZM248.504 255.75H242.504V253.75H248.504V255.75ZM248.504 255.75H250.504V259.75H248.504V255.75ZM242.504 263.75H244.504V265.75H242.504V263.75ZM240.504 255.75H242.504V257.75H240.504V255.75ZM246.504 259.75H248.504V261.75H246.504V259.75ZM244.504 261.75H246.504V263.75H244.504V261.75Z" fill="#666666"/>
<path d="M214.488 297.75H220.488V299.75H214.488V297.75ZM212.488 299.75H214.488V303.75H220.488V305.75H214.488V311.75H212.488V299.75ZM220.488 305.75H222.488V311.75H220.488V305.75ZM214.488 311.75H220.488V313.75H214.488V311.75ZM220.488 299.75H222.488V301.75H220.488V299.75ZM226.496 299.75H228.496V301.75H226.496V299.75ZM228.496 297.75H234.496V299.75H228.496V297.75ZM234.496 299.75H236.496V303.75H234.496V299.75ZM230.496 303.75H234.496V305.75H230.496V303.75ZM234.496 305.75H236.496V311.75H234.496V305.75ZM234.496 311.75V313.75H228.496V311.75H234.496ZM228.496 311.75H226.496V309.75H228.496V311.75ZM240.504 299.75H242.504V301.75H240.504V299.75ZM242.504 297.75H248.504V299.75H242.504V297.75ZM248.504 299.75H250.504V303.75H248.504V299.75ZM244.504 303.75H248.504V305.75H244.504V303.75ZM248.504 305.75H250.504V311.75H248.504V305.75ZM248.504 311.75V313.75H242.504V311.75H248.504ZM242.504 311.75H240.504V309.75H242.504V311.75Z" fill="#666666"/>
<path d="M214.488 341.75H220.488V343.75H214.488V341.75ZM212.488 343.75H214.488V347.75H220.488V349.75H214.488V355.75H212.488V343.75ZM220.488 349.75H222.488V355.75H220.488V349.75ZM214.488 355.75H220.488V357.75H214.488V355.75ZM220.488 343.75H222.488V345.75H220.488V343.75ZM226.496 343.75H228.496V345.75H226.496V343.75ZM228.496 341.75H234.496V343.75H228.496V341.75ZM234.496 343.75H236.496V347.75H234.496V343.75ZM230.496 347.75H234.496V349.75H230.496V347.75ZM234.496 349.75H236.496V355.75H234.496V349.75ZM234.496 355.75V357.75H228.496V355.75H234.496ZM228.496 355.75H226.496V353.75H228.496V355.75ZM246.504 343.75H248.504V341.75H250.504V357.75H248.504V353.75H240.504V349.75H242.504V351.75H248.504V345.75H246.504V343.75ZM244.504 345.75H246.504V347.75H244.504V345.75ZM242.504 347.75H244.504V349.75H242.504V347.75Z" fill="#666666"/>
<path d="M214.488 385.75H220.488V387.75H214.488V385.75ZM212.488 387.75H214.488V391.75H220.488V393.75H214.488V399.75H212.488V387.75ZM220.488 393.75H222.488V399.75H220.488V393.75ZM214.488 399.75H220.488V401.75H214.488V399.75ZM220.488 387.75H222.488V389.75H220.488V387.75ZM226.496 387.75H228.496V389.75H226.496V387.75ZM228.496 385.75H234.496V387.75H228.496V385.75ZM234.496 387.75H236.496V391.75H234.496V387.75ZM230.496 391.75H234.496V393.75H230.496V391.75ZM234.496 393.75H236.496V399.75H234.496V393.75ZM234.496 399.75V401.75H228.496V399.75H234.496ZM228.496 399.75H226.496V397.75H228.496V399.75ZM240.504 385.75H250.504V387.75H242.504V391.75H248.504V393.75H240.504V385.75ZM248.504 393.75H250.504V399.75H248.504V393.75ZM248.504 399.75V401.75H242.504V399.75H248.504ZM242.504 399.75H240.504V397.75H242.504V399.75Z" fill="#666666"/>
<path d="M214.488 429.75H220.488V431.75H214.488V429.75ZM212.488 431.75H214.488V435.75H220.488V437.75H214.488V443.75H212.488V431.75ZM220.488 437.75H222.488V443.75H220.488V437.75ZM214.488 443.75H220.488V445.75H214.488V443.75ZM220.488 431.75H222.488V433.75H220.488V431.75ZM226.496 431.75H228.496V433.75H226.496V431.75ZM228.496 429.75H234.496V431.75H228.496V429.75ZM234.496 431.75H236.496V435.75H234.496V431.75ZM230.496 435.75H234.496V437.75H230.496V435.75ZM234.496 437.75H236.496V443.75H234.496V437.75ZM234.496 443.75V445.75H228.496V443.75H234.496ZM228.496 443.75H226.496V441.75H228.496V443.75ZM242.504 429.75H248.504V431.75H242.504V429.75ZM240.504 431.75H242.504V435.75H248.504V437.75H242.504V443.75H240.504V431.75ZM248.504 437.75H250.504V443.75H248.504V437.75ZM242.504 443.75H248.504V445.75H242.504V443.75ZM248.504 431.75H250.504V433.75H248.504V431.75Z" fill="#666666"/>
<path d="M214.488 473.75H220.488V475.75H214.488V473.75ZM212.488 475.75H214.488V479.75H220.488V481.75H214.488V487.75H212.488V475.75ZM220.488 481.75H222.488V487.75H220.488V481.75ZM214.488 487.75H220.488V489.75H214.488V487.75ZM220.488 475.75H222.488V477.75H220.488V475.75ZM226.496 475.75H228.496V477.75H226.496V475.75ZM228.496 473.75H234.496V475.75H228.496V473.75ZM234.496 475.75H236.496V479.75H234.496V475.75ZM230.496 479.75H234.496V481.75H230.496V479.75ZM234.496 481.75H236.496V487.75H234.496V481.75ZM234.496 487.75V489.75H228.496V487.75H234.496ZM228.496 487.75H226.496V485.75H228.496V487.75ZM242.504 483.75H244.504V489.75H242.504V483.75ZM244.504 481.75H246.504V483.75H244.504V481.75ZM246.504 479.75H248.504V481.75H246.504V479.75ZM248.504 475.75H240.504V473.75H250.504V479.75H248.504V475.75Z" fill="#666666"/>
<path d="M214.488 517.75H220.488V519.75H214.488V517.75ZM212.488 519.75H214.488V523.75H220.488V525.75H214.488V531.75H212.488V519.75ZM220.488 525.75H222.488V531.75H220.488V525.75ZM214.488 531.75H220.488V533.75H214.488V531.75ZM220.488 519.75H222.488V521.75H220.488V519.75ZM226.496 519.75H228.496V521.75H226.496V519.75ZM228.496 517.75H234.496V519.75H228.496V517.75ZM234.496 519.75H236.496V523.75H234.496V519.75ZM230.496 523.75H234.496V525.75H230.496V523.75ZM234.496 525.75H236.496V531.75H234.496V525.75ZM234.496 531.75V533.75H228.496V531.75H234.496ZM228.496 531.75H226.496V529.75H228.496V531.75ZM240.504 519.75H242.504V523.75H240.504V519.75ZM248.504 519.75H242.504V517.75H248.504V519.75ZM248.504 519.75H250.504V523.75H248.504V519.75ZM242.504 523.75H248.504V525.75H242.504V523.75ZM248.504 525.75H250.504V531.75H248.504V525.75ZM240.504 525.75H242.504V531.75H240.504V525.75ZM248.504 531.75V533.75H242.504V531.75H248.504Z" fill="#666666"/>
<path d="M214.488 561.75H220.488V563.75H214.488V561.75ZM212.488 563.75H214.488V567.75H220.488V569.75H214.488V575.75H212.488V563.75ZM220.488 569.75H222.488V575.75H220.488V569.75ZM214.488 575.75H220.488V577.75H214.488V575.75ZM220.488 563.75H222.488V565.75H220.488V563.75ZM226.496 563.75H228.496V565.75H226.496V563.75ZM228.496 561.75H234.496V563.75H228.496V561.75ZM234.496 563.75H236.496V567.75H234.496V563.75ZM230.496 567.75H234.496V569.75H230.496V567.75ZM234.496 569.75H236.496V575.75H234.496V569.75ZM234.496 575.75V577.75H228.496V575.75H234.496ZM228.496 575.75H226.496V573.75H228.496V575.75ZM248.504 575.75V577.75H242.504V575.75H248.504ZM242.504 575.75H240.504V573.75H242.504V575.75ZM248.504 569.75V563.75H250.504V575.75H248.504V571.75H242.504V569.75H248.504ZM242.504 569.75H240.504V563.75H242.504V569.75ZM242.504 561.75H248.504V563.75H242.504V561.75Z" fill="#666666"/>
</g>
<defs>
<clipPath id="clip0_427_25117">
<rect width="1218" height="579" fill="white" transform="translate(0 0.75)"/>
</clipPath>
</defs>
</svg>
