<svg width="409" height="424" viewBox="0 0 409 424" fill="none" xmlns="http://www.w3.org/2000/svg">
<mask id="mask0_750_42704" style="mask-type:alpha" maskUnits="userSpaceOnUse" x="0" y="0" width="409" height="424">
<path fill-rule="evenodd" clip-rule="evenodd" d="M409 0H0V423.58L114.5 417L173.5 423.5L252.5 411.5H275.5L297.5 420L321 411.5L409 404.97V0Z" fill="#D9C9B6"/>
</mask>
<g mask="url(#mask0_750_42704)">
<path fill-rule="evenodd" clip-rule="evenodd" d="M409 0H0V423.58L114.5 417L173.5 423.5L252.5 411.5H275.5L297.5 420L321 411.5L409 404.97V0Z" fill="#D9C9B6"/>
<path d="M23 304H24V306H27V304H28V310H27V307H24V310H23V304ZM25 302H26V303H25V302ZM24 303H25V304H24V303ZM26 303H27V304H26V303ZM38.0078 302H39.0078V304H41.0078V305H39.0078V309H38.0078V305H37.0078V304H38.0078V302ZM39.0078 309H41.0078V310H39.0078V309ZM41.0078 308H42.0078V309H41.0078V308ZM45.0117 304H48.0117V305H45.0117V304ZM44.0117 305H45.0117V306H48.0117V305H49.0117V307H45.0117V309H44.0117V305ZM45.0117 309H48.0117V310H45.0117V309ZM48.0117 308H49.0117V309H48.0117V308ZM51.0156 307H52.0156V309H51.0156V307ZM52.0156 309H54.0156V310H52.0156V309ZM54.0156 308H55.0156V307H52.0156V306H55.0156V305H56.0156V310H55.0156V309H54.0156V308ZM52.0156 304H55.0156V305H52.0156V304ZM58.0195 304H60.0195V305H59.0195V310H58.0195V304ZM60.0195 305H61.0195V310H60.0195V305ZM62.0195 305H61.0195V304H62.0195V305ZM62.0195 305H63.0195V310H62.0195V305ZM73.0273 304H76.0273V305H73.0273V304ZM72.0273 305H73.0273V309H72.0273V305ZM73.0273 309H76.0273V310H73.0273V309ZM76.0273 305H77.0273V306H76.0273V305ZM76.0273 308H77.0273V309H76.0273V308ZM80.0313 304H83.0313V305H80.0313V304ZM83.0313 305H84.0313V309H83.0313V305ZM79.0313 305H80.0313V309H79.0313V305ZM80.0313 309H83.0313V310H80.0313V309ZM91.0352 306V307H86.0352V306H91.0352ZM95.0391 303H93.0391V302H96.0391V309H98.0391V310H93.0391V309H95.0391V303ZM101.043 304H104.043V305H101.043V304ZM100.043 305H101.043V306H104.043V305H105.043V307H101.043V309H100.043V305ZM101.043 309H104.043V310H101.043V309ZM104.043 308H105.043V309H104.043V308ZM111.047 302H112.047V310H111.047V309H110.047V308H111.047V306H110.047V305H111.047V302ZM110.047 309V310H108.047V309H110.047ZM108.047 309H107.047V305H108.047V309ZM110.047 305H108.047V304H110.047V305ZM121.055 302H122.055V305H123.055V306H122.055V308H123.055V309H122.055V310H121.055V302ZM123.055 309H125.055V310H123.055V309ZM125.055 305H126.055V309H125.055V305ZM123.055 304H125.055V305H123.055V304ZM128.059 304H129.059V307H128.059V304ZM132.059 304H133.059V307H132.059V304ZM130.059 309H131.059V311H130.059V309ZM130.059 311V312H128.059V311H130.059ZM131.059 307H132.059V309H131.059V307ZM129.059 307H130.059V309H129.059V307ZM142.066 302H147.066V303H143.066V305H146.066V306H143.066V310H142.066V302ZM149.07 307H150.07V309H149.07V307ZM150.07 309H152.07V310H150.07V309ZM152.07 308H153.07V307H150.07V306H153.07V305H154.07V310H153.07V309H152.07V308ZM150.07 304H153.07V305H150.07V304ZM156.074 304H157.074V305H158.074V306H157.074V310H156.074V304ZM160.074 304V305H158.074V304H160.074ZM160.074 305H161.074V306H160.074V305ZM163.078 304H164.078V305H165.078V306H164.078V310H163.078V304ZM165.078 304H167.078V305H165.078V304ZM167.078 305H168.078V310H167.078V305ZM174.082 309V310H171.082V309H174.082ZM171.082 309H170.082V308H171.082V309ZM174.082 304V305H171.082V304H174.082ZM170.082 305H171.082V306H170.082V305ZM171.082 306H174.082V307H171.082V306ZM174.082 307H175.082V309H174.082V307ZM177.086 304H178.086V309H177.086V304ZM181.086 304H182.086V310H180.086V309H181.086V304ZM180.086 309H179.086V304H180.086V309ZM178.086 309H179.086V310H178.086V309ZM185.09 304H188.09V305H185.09V304ZM188.09 305H189.09V309H188.09V305ZM184.09 305H185.09V309H184.09V305ZM185.09 309H188.09V310H185.09V309ZM191.094 304H192.094V305H193.094V306H192.094V310H191.094V304ZM195.094 304V305H193.094V304H195.094ZM195.094 305H196.094V306H195.094V305ZM199.098 302H200.098V304H202.098V305H200.098V309H199.098V305H198.098V304H199.098V302ZM200.098 309H202.098V310H200.098V309ZM202.098 308H203.098V309H202.098V308ZM205.102 302H206.102V305H207.102V306H206.102V310H205.102V302ZM209.102 305H210.102V310H209.102V305ZM207.102 304H209.102V305H207.102V304ZM219.109 302H223.109V303H220.109V306H223.109V308H222.109V307H220.109V310H219.109V302ZM223.109 303H224.109V306H223.109V303ZM223.109 308H224.109V310H223.109V308ZM227.113 304H230.113V305H227.113V304ZM226.113 305H227.113V306H230.113V305H231.113V307H227.113V309H226.113V305ZM227.113 309H230.113V310H227.113V309ZM230.113 308H231.113V309H230.113V308ZM237.117 309V310H234.117V309H237.117ZM234.117 309H233.117V308H234.117V309ZM237.117 304V305H234.117V304H237.117ZM233.117 305H234.117V306H233.117V305ZM234.117 306H237.117V307H234.117V306ZM237.117 307H238.117V309H237.117V307ZM241.121 304H244.121V305H241.121V304ZM240.121 305H241.121V306H244.121V305H245.121V307H241.121V309H240.121V305ZM241.121 309H244.121V310H241.121V309ZM244.121 308H245.121V309H244.121V308ZM247.125 307H248.125V309H247.125V307ZM248.125 309H250.125V310H248.125V309ZM250.125 308H251.125V307H248.125V306H251.125V305H252.125V310H251.125V309H250.125V308ZM248.125 304H251.125V305H248.125V304ZM254.129 304H255.129V305H256.129V306H255.129V310H254.129V304ZM258.129 304V305H256.129V304H258.129ZM258.129 305H259.129V306H258.129V305ZM262.133 304H265.133V305H262.133V304ZM261.133 305H262.133V309H261.133V305ZM262.133 309H265.133V310H262.133V309ZM265.133 305H266.133V306H265.133V305ZM265.133 308H266.133V309H265.133V308ZM268.137 302H269.137V305H270.137V306H269.137V310H268.137V302ZM272.137 305H273.137V310H272.137V305ZM270.137 304H272.137V305H270.137V304ZM284.145 309V303H282.145V302H287.145V303H285.145V309H287.145V310H282.145V309H284.145ZM289.148 304H290.148V305H291.148V306H290.148V310H289.148V304ZM291.148 304H293.148V305H291.148V304ZM293.148 305H294.148V310H293.148V305ZM300.152 309V310H297.152V309H300.152ZM297.152 309H296.152V308H297.152V309ZM300.152 304V305H297.152V304H300.152ZM296.152 305H297.152V306H296.152V305ZM297.152 306H300.152V307H297.152V306ZM300.152 307H301.152V309H300.152V307ZM304.156 302H305.156V304H307.156V305H305.156V309H304.156V305H303.156V304H304.156V302ZM305.156 309H307.156V310H305.156V309ZM307.156 308H308.156V309H307.156V308ZM312.16 302H313.16V303H312.16V302ZM312.16 305H310.16V304H313.16V309H315.16V310H310.16V309H312.16V305ZM318.164 302H319.164V304H321.164V305H319.164V309H318.164V305H317.164V304H318.164V302ZM319.164 309H321.164V310H319.164V309ZM321.164 308H322.164V309H321.164V308ZM324.168 304H325.168V309H324.168V304ZM325.168 309H327.168V310H325.168V309ZM328.168 304H329.168V310H328.168V309H327.168V308H328.168V304ZM332.172 302H333.172V304H335.172V305H333.172V309H332.172V305H331.172V304H332.172V302ZM333.172 309H335.172V310H333.172V309ZM335.172 308H336.172V309H335.172V308ZM339.176 304H342.176V305H339.176V304ZM338.176 305H339.176V306H342.176V305H343.176V307H339.176V309H338.176V305ZM339.176 309H342.176V310H339.176V309ZM342.176 308H343.176V309H342.176V308ZM353.184 305H352.184V304H353.184V303H354.184V304H356.184V305H354.184V310H353.184V305ZM354.184 302H357.184V303H354.184V302ZM360.188 304H363.188V305H360.188V304ZM363.188 305H364.188V309H363.188V305ZM359.188 305H360.188V309H359.188V305ZM360.188 309H363.188V310H360.188V309ZM366.191 304H367.191V309H366.191V304ZM367.191 309H369.191V310H367.191V309ZM370.191 304H371.191V310H370.191V309H369.191V308H370.191V304ZM373.195 304H374.195V305H375.195V306H374.195V310H373.195V304ZM375.195 304H377.195V305H375.195V304ZM377.195 305H378.195V310H377.195V305ZM384.199 302H385.199V310H384.199V309H383.199V308H384.199V306H383.199V305H384.199V302ZM383.199 309V310H381.199V309H383.199ZM381.199 309H380.199V305H381.199V309ZM383.199 305H381.199V304H383.199V305ZM24 321H27V322H24V321ZM23 322H24V323H27V322H28V324H24V326H23V322ZM24 326H27V327H24V326ZM27 325H28V326H27V325ZM30.0039 321H31.0039V324H30.0039V321ZM34.0039 321H35.0039V324H34.0039V321ZM32.0039 326H31.0039V324H32.0039V326ZM32.0039 326H33.0039V327H32.0039V326ZM33.0039 324H34.0039V326H33.0039V324ZM39.0078 319H40.0078V320H39.0078V319ZM39.0078 322H37.0078V321H40.0078V326H42.0078V327H37.0078V326H39.0078V322ZM48.0117 319H49.0117V327H48.0117V326H47.0117V325H48.0117V323H47.0117V322H48.0117V319ZM47.0117 326V327H45.0117V326H47.0117ZM45.0117 326H44.0117V322H45.0117V326ZM47.0117 322H45.0117V321H47.0117V322ZM52.0156 321H55.0156V322H52.0156V321ZM51.0156 322H52.0156V323H55.0156V322H56.0156V324H52.0156V326H51.0156V322ZM52.0156 326H55.0156V327H52.0156V326ZM55.0156 325H56.0156V326H55.0156V325ZM58.0195 321H59.0195V322H60.0195V323H59.0195V327H58.0195V321ZM60.0195 321H62.0195V322H60.0195V321ZM62.0195 322H63.0195V327H62.0195V322ZM66.0234 321H69.0234V322H66.0234V321ZM65.0234 322H66.0234V326H65.0234V322ZM66.0234 326H69.0234V327H66.0234V326ZM69.0234 322H70.0234V323H69.0234V322ZM69.0234 325H70.0234V326H69.0234V325ZM73.0273 321H76.0273V322H73.0273V321ZM72.0273 322H73.0273V323H76.0273V322H77.0273V324H73.0273V326H72.0273V322ZM73.0273 326H76.0273V327H73.0273V326ZM76.0273 325H77.0273V326H76.0273V325ZM87.0352 322H86.0352V321H87.0352V320H88.0352V321H90.0352V322H88.0352V327H87.0352V322ZM88.0352 319H91.0352V320H88.0352V319ZM94.0391 321H97.0391V322H94.0391V321ZM97.0391 322H98.0391V326H97.0391V322ZM93.0391 322H94.0391V326H93.0391V322ZM94.0391 326H97.0391V327H94.0391V326ZM100.043 321H101.043V322H102.043V323H101.043V327H100.043V321ZM104.043 321V322H102.043V321H104.043ZM104.043 322H105.043V323H104.043V322ZM114.051 319H115.051V322H116.051V323H115.051V327H114.051V319ZM118.051 322H119.051V327H118.051V322ZM116.051 321H118.051V322H116.051V321ZM121.055 321H122.055V324H121.055V321ZM125.055 321H126.055V324H125.055V321ZM123.055 326H124.055V328H123.055V326ZM123.055 328V329H121.055V328H123.055ZM124.055 324H125.055V326H124.055V324ZM122.055 324H123.055V326H122.055V324ZM132.059 319H133.059V327H132.059V326H131.059V325H132.059V323H131.059V322H132.059V319ZM131.059 326V327H129.059V326H131.059ZM129.059 326H128.059V322H129.059V326ZM131.059 322H129.059V321H131.059V322ZM135.063 321H136.063V322H137.063V323H136.063V327H135.063V321ZM139.063 321V322H137.063V321H139.063ZM139.063 322H140.063V323H139.063V322ZM143.066 321H146.066V322H143.066V321ZM146.066 322H147.066V326H146.066V322ZM142.066 322H143.066V326H142.066V322ZM143.066 326H146.066V327H143.066V326ZM150.07 319H151.07V321H153.07V322H151.07V326H150.07V322H149.07V321H150.07V319ZM151.07 326H153.07V327H151.07V326ZM153.07 325H154.07V326H153.07V325ZM156.074 319H157.074V322H158.074V323H157.074V327H156.074V319ZM160.074 322H161.074V327H160.074V322ZM158.074 321H160.074V322H158.074V321ZM164.078 321H167.078V322H164.078V321ZM163.078 322H164.078V323H167.078V322H168.078V324H164.078V326H163.078V322ZM164.078 326H167.078V327H164.078V326ZM167.078 325H168.078V326H167.078V325ZM170.082 321H171.082V322H172.082V323H171.082V327H170.082V321ZM174.082 321V322H172.082V321H174.082ZM174.082 322H175.082V323H174.082V322ZM177.086 321H179.086V322H178.086V327H177.086V321ZM179.086 322H180.086V327H179.086V322ZM181.086 322H180.086V321H181.086V322ZM181.086 322H182.086V327H181.086V322ZM184.09 324H185.09V326H184.09V324ZM185.09 326H187.09V327H185.09V326ZM187.09 325H188.09V324H185.09V323H188.09V322H189.09V327H188.09V326H187.09V325ZM185.09 321H188.09V322H185.09V321ZM193.094 320H191.094V319H194.094V326H196.094V327H191.094V326H193.094V320ZM206.102 321H209.102V322H206.102V321ZM209.102 322H210.102V326H209.102V322ZM205.102 322H206.102V326H205.102V322ZM206.102 326H209.102V327H206.102V326ZM212.105 321H213.105V322H214.105V323H213.105V327H212.105V321ZM216.105 321V322H214.105V321H216.105ZM216.105 322H217.105V323H216.105V322ZM226.113 321H228.113V322H227.113V327H226.113V321ZM228.113 322H229.113V327H228.113V322ZM230.113 322H229.113V321H230.113V322ZM230.113 322H231.113V327H230.113V322ZM234.117 321H237.117V322H234.117V321ZM233.117 322H234.117V323H237.117V322H238.117V324H234.117V326H233.117V322ZM234.117 326H237.117V327H234.117V326ZM237.117 325H238.117V326H237.117V325ZM241.121 319H242.121V321H244.121V322H242.121V326H241.121V322H240.121V321H241.121V319ZM242.121 326H244.121V327H242.121V326ZM244.121 325H245.121V326H244.121V325ZM247.125 324H248.125V326H247.125V324ZM248.125 326H250.125V327H248.125V326ZM250.125 325H251.125V324H248.125V323H251.125V322H252.125V327H251.125V326H250.125V325ZM248.125 321H251.125V322H248.125V321ZM254.129 321H256.129V322H255.129V327H254.129V321ZM256.129 322H257.129V327H256.129V322ZM258.129 322H257.129V321H258.129V322ZM258.129 322H259.129V327H258.129V322ZM262.133 321H265.133V322H262.133V321ZM265.133 322H266.133V326H265.133V322ZM261.133 322H262.133V326H261.133V322ZM262.133 326H265.133V327H262.133V326ZM268.137 321H269.137V322H270.137V323H269.137V327H268.137V321ZM272.137 321V322H270.137V321H272.137ZM272.137 322H273.137V323H272.137V322ZM275.141 321H276.141V322H277.141V323H276.141V325H277.141V326H276.141V329H275.141V321ZM277.141 321H279.141V322H277.141V321ZM279.141 322H280.141V326H279.141V322ZM277.141 326H279.141V327H277.141V326ZM282.145 319H283.145V322H284.145V323H283.145V327H282.145V319ZM286.145 322H287.145V327H286.145V322ZM284.145 321H286.145V322H284.145V321ZM291.148 319H292.148V320H291.148V319ZM291.148 322H289.148V321H292.148V326H294.148V327H289.148V326H291.148V322ZM297.152 321H300.152V322H297.152V321ZM296.152 322H297.152V326H296.152V322ZM297.152 326H300.152V327H297.152V326ZM300.152 322H301.152V323H300.152V322ZM300.152 325H301.152V326H300.152V325ZM310.16 324H311.16V326H310.16V324ZM311.16 326H313.16V327H311.16V326ZM313.16 325H314.16V324H311.16V323H314.16V322H315.16V327H314.16V326H313.16V325ZM311.16 321H314.16V322H311.16V321ZM318.164 321H321.164V322H318.164V321ZM317.164 322H318.164V326H317.164V322ZM318.164 326H321.164V327H318.164V326ZM321.164 322H322.164V323H321.164V322ZM321.164 325H322.164V326H321.164V325ZM325.168 319H326.168V321H328.168V322H326.168V326H325.168V322H324.168V321H325.168V319ZM326.168 326H328.168V327H326.168V326ZM328.168 325H329.168V326H328.168V325ZM333.172 319H334.172V320H333.172V319ZM333.172 322H331.172V321H334.172V326H336.172V327H331.172V326H333.172V322ZM338.176 321H339.176V324H338.176V321ZM342.176 321H343.176V324H342.176V321ZM340.176 326H339.176V324H340.176V326ZM340.176 326H341.176V327H340.176V326ZM341.176 324H342.176V326H341.176V324ZM347.18 319H348.18V320H347.18V319ZM347.18 322H345.18V321H348.18V326H350.18V327H345.18V326H347.18V322ZM353.184 319H354.184V321H356.184V322H354.184V326H353.184V322H352.184V321H353.184V319ZM354.184 326H356.184V327H354.184V326ZM356.184 325H357.184V326H356.184V325ZM359.188 321H360.188V324H359.188V321ZM363.188 321H364.188V324H363.188V321ZM361.188 326H362.188V328H361.188V326ZM361.188 328V329H359.188V328H361.188ZM362.188 324H363.188V326H362.188V324ZM360.188 324H361.188V326H360.188V324ZM23 338H24V343H23V338ZM27 338H28V344H26V343H27V338ZM26 343H25V338H26V343ZM24 343H25V344H24V343ZM32.0039 336H33.0039V337H32.0039V336ZM32.0039 339H30.0039V338H33.0039V343H35.0039V344H30.0039V343H32.0039V339ZM38.0078 336H39.0078V338H41.0078V339H39.0078V343H38.0078V339H37.0078V338H38.0078V336ZM39.0078 343H41.0078V344H39.0078V343ZM41.0078 342H42.0078V343H41.0078V342ZM44.0117 336H45.0117V339H46.0117V340H45.0117V344H44.0117V336ZM48.0117 339H49.0117V344H48.0117V339ZM46.0117 338H48.0117V339H46.0117V338ZM53.0156 336H54.0156V337H53.0156V336ZM53.0156 339H51.0156V338H54.0156V343H56.0156V344H51.0156V343H53.0156V339ZM58.0195 338H59.0195V339H60.0195V340H59.0195V344H58.0195V338ZM60.0195 338H62.0195V339H60.0195V338ZM62.0195 339H63.0195V344H62.0195V339ZM73.0273 336H74.0273V338H76.0273V339H74.0273V343H73.0273V339H72.0273V338H73.0273V336ZM74.0273 343H76.0273V344H74.0273V343ZM76.0273 342H77.0273V343H76.0273V342ZM79.0313 336H80.0313V339H81.0313V340H80.0313V344H79.0313V336ZM83.0313 339H84.0313V344H83.0313V339ZM81.0313 338H83.0313V339H81.0313V338ZM87.0352 338H90.0352V339H87.0352V338ZM86.0352 339H87.0352V340H90.0352V339H91.0352V341H87.0352V343H86.0352V339ZM87.0352 343H90.0352V344H87.0352V343ZM90.0352 342H91.0352V343H90.0352V342ZM102.043 336H103.043V337H102.043V336ZM102.043 339H100.043V338H103.043V343H105.043V344H100.043V343H102.043V339ZM108.047 338H111.047V339H108.047V338ZM107.047 339H108.047V343H107.047V339ZM108.047 343H111.047V344H108.047V343ZM111.047 339H112.047V340H111.047V339ZM111.047 342H112.047V343H111.047V342ZM114.051 338H115.051V341H114.051V338ZM118.051 338H119.051V341H118.051V338ZM116.051 343H117.051V345H116.051V343ZM116.051 345V346H114.051V345H116.051ZM117.051 341H118.051V343H117.051V341ZM115.051 341H116.051V343H115.051V341ZM132.059 336H133.059V344H132.059V343H131.059V342H132.059V340H131.059V339H132.059V336ZM131.059 343V344H129.059V343H131.059ZM129.059 343H128.059V339H129.059V343ZM131.059 339H129.059V338H131.059V339ZM135.063 338H136.063V343H135.063V338ZM139.063 338H140.063V344H138.063V343H139.063V338ZM138.063 343H137.063V338H138.063V343ZM136.063 343H137.063V344H136.063V343ZM142.066 341H143.066V343H142.066V341ZM143.066 343H145.066V344H143.066V343ZM145.066 342H146.066V341H143.066V340H146.066V339H147.066V344H146.066V343H145.066V342ZM143.066 338H146.066V339H143.066V338ZM149.07 338H150.07V339H151.07V340H150.07V344H149.07V338ZM153.07 338V339H151.07V338H153.07ZM153.07 339H154.07V340H153.07V339ZM157.074 339H156.074V338H157.074V337H158.074V338H160.074V339H158.074V344H157.074V339ZM158.074 336H161.074V337H158.074V336ZM170.082 338H171.082V339H172.082V340H171.082V342H172.082V343H171.082V346H170.082V338ZM172.082 338H174.082V339H172.082V338ZM174.082 339H175.082V343H174.082V339ZM172.082 343H174.082V344H172.082V343ZM179.086 337H177.086V336H180.086V343H182.086V344H177.086V343H179.086V337ZM184.09 341H185.09V343H184.09V341ZM185.09 343H187.09V344H185.09V343ZM187.09 342H188.09V341H185.09V340H188.09V339H189.09V344H188.09V343H187.09V342ZM185.09 338H188.09V339H185.09V338ZM191.094 338H192.094V339H193.094V340H192.094V344H191.094V338ZM193.094 338H195.094V339H193.094V338ZM195.094 339H196.094V344H195.094V339ZM199.098 338H202.098V339H199.098V338ZM198.098 339H199.098V340H202.098V339H203.098V341H199.098V343H198.098V339ZM199.098 343H202.098V344H199.098V343ZM202.098 342H203.098V343H202.098V342ZM206.102 336H207.102V338H209.102V339H207.102V343H206.102V339H205.102V338H206.102V336ZM207.102 343H209.102V344H207.102V343ZM209.102 342H210.102V343H209.102V342ZM216.105 343V344H213.105V343H216.105ZM213.105 343H212.105V342H213.105V343ZM216.105 338V339H213.105V338H216.105ZM212.105 339H213.105V340H212.105V339ZM213.105 340H216.105V341H213.105V340ZM216.105 341H217.105V343H216.105V341ZM226.113 336H231.113V337H227.113V339H230.113V340H227.113V343H231.113V344H226.113V336ZM233.117 338H234.117V339H235.117V340H234.117V344H233.117V338ZM237.117 338V339H235.117V338H237.117ZM237.117 339H238.117V340H237.117V339ZM242.121 336H243.121V337H242.121V336ZM242.121 339H240.121V338H243.121V343H245.121V344H240.121V343H242.121V339ZM251.125 343V344H248.125V343H251.125ZM248.125 343H247.125V342H248.125V343ZM251.125 338V339H248.125V338H251.125ZM247.125 339H248.125V340H247.125V339ZM248.125 340H251.125V341H248.125V340ZM251.125 341H252.125V343H251.125V341ZM261.133 341H262.133V343H261.133V341ZM262.133 343H264.133V344H262.133V343ZM264.133 342H265.133V341H262.133V340H265.133V339H266.133V344H265.133V343H264.133V342ZM262.133 338H265.133V339H262.133V338ZM268.137 338H269.137V339H270.137V340H269.137V344H268.137V338ZM270.137 338H272.137V339H270.137V338ZM272.137 339H273.137V344H272.137V339ZM279.141 336H280.141V344H279.141V343H278.141V342H279.141V340H278.141V339H279.141V336ZM278.141 343V344H276.141V343H278.141ZM276.141 343H275.141V339H276.141V343ZM278.141 339H276.141V338H278.141V339ZM289.148 336H290.148V338H291.148V339H290.148V344H289.148V336ZM293.148 339H292.148V338H293.148V336H294.148V344H293.148V339ZM291.148 339H292.148V341H291.148V339ZM296.152 341H297.152V343H296.152V341ZM297.152 343H299.152V344H297.152V343ZM299.152 342H300.152V341H297.152V340H300.152V339H301.152V344H300.152V343H299.152V342ZM297.152 338H300.152V339H297.152V338ZM303.156 336H304.156V341H305.156V340H306.156V342H304.156V344H303.156V336ZM307.156 338H308.156V339H307.156V338ZM306.156 339H307.156V340H306.156V339ZM306.156 342H307.156V343H306.156V342ZM307.156 343H308.156V344H307.156V343ZM311.16 338H314.16V339H311.16V338ZM310.16 339H311.16V340H314.16V339H315.16V341H311.16V343H310.16V339ZM311.16 343H314.16V344H311.16V343ZM314.16 342H315.16V343H314.16V342ZM317.164 338H319.164V339H318.164V344H317.164V338ZM319.164 339H320.164V344H319.164V339ZM321.164 339H320.164V338H321.164V339ZM321.164 339H322.164V344H321.164V339ZM324.168 341H325.168V343H324.168V341ZM325.168 343H327.168V344H325.168V343ZM327.168 342H328.168V341H325.168V340H328.168V339H329.168V344H328.168V343H327.168V342ZM325.168 338H328.168V339H325.168V338ZM331.172 336H332.172V341H333.172V340H334.172V342H332.172V344H331.172V336ZM335.172 338H336.172V339H335.172V338ZM334.172 339H335.172V340H334.172V339ZM334.172 342H335.172V343H334.172V342ZM335.172 343H336.172V344H335.172V343ZM339.176 338H342.176V339H339.176V338ZM338.176 339H339.176V340H342.176V339H343.176V341H339.176V343H338.176V339ZM339.176 343H342.176V344H339.176V343ZM342.176 342H343.176V343H342.176V342ZM347.18 342H348.18V344H347.18V342ZM346.18 344H347.18V345H346.18V344ZM25 354H23V353H26V360H28V361H23V360H25V354ZM31.0039 355H34.0039V356H31.0039V355ZM34.0039 356H35.0039V360H34.0039V356ZM30.0039 356H31.0039V360H30.0039V356ZM31.0039 360H34.0039V361H31.0039V360ZM38.0078 355H41.0078V356H38.0078V355ZM37.0078 356H38.0078V360H37.0078V356ZM38.0078 360H41.0078V361H38.0078V360ZM41.0078 356H42.0078V357H41.0078V356ZM41.0078 359H42.0078V360H41.0078V359ZM44.0117 358H45.0117V360H44.0117V358ZM45.0117 360H47.0117V361H45.0117V360ZM47.0117 359H48.0117V358H45.0117V357H48.0117V356H49.0117V361H48.0117V360H47.0117V359ZM45.0117 355H48.0117V356H45.0117V355ZM52.0156 353H53.0156V355H55.0156V356H53.0156V360H52.0156V356H51.0156V355H52.0156V353ZM53.0156 360H55.0156V361H53.0156V360ZM55.0156 359H56.0156V360H55.0156V359ZM59.0195 355H62.0195V356H59.0195V355ZM58.0195 356H59.0195V357H62.0195V356H63.0195V358H59.0195V360H58.0195V356ZM59.0195 360H62.0195V361H59.0195V360ZM62.0195 359H63.0195V360H62.0195V359ZM69.0234 353H70.0234V361H69.0234V360H68.0234V359H69.0234V357H68.0234V356H69.0234V353ZM68.0234 360V361H66.0234V360H68.0234ZM66.0234 360H65.0234V356H66.0234V360ZM68.0234 356H66.0234V355H68.0234V356ZM81.0313 353H82.0313V354H81.0313V353ZM81.0313 356H79.0313V355H82.0313V360H84.0313V361H79.0313V360H81.0313V356ZM86.0352 355H87.0352V356H88.0352V357H87.0352V361H86.0352V355ZM88.0352 355H90.0352V356H88.0352V355ZM90.0352 356H91.0352V361H90.0352V356ZM101.043 353H102.043V355H104.043V356H102.043V360H101.043V356H100.043V355H101.043V353ZM102.043 360H104.043V361H102.043V360ZM104.043 359H105.043V360H104.043V359ZM107.047 353H108.047V356H109.047V357H108.047V361H107.047V353ZM111.047 356H112.047V361H111.047V356ZM109.047 355H111.047V356H109.047V355ZM115.051 355H118.051V356H115.051V355ZM114.051 356H115.051V357H118.051V356H119.051V358H115.051V360H114.051V356ZM115.051 360H118.051V361H115.051V360ZM118.051 359H119.051V360H118.051V359ZM128.059 353H129.059V356H130.059V355H131.059V357H129.059V361H128.059V353ZM132.059 353H133.059V354H132.059V353ZM131.059 354H132.059V355H131.059V354ZM132.059 359H131.059V357H132.059V359ZM132.059 359H133.059V361H132.059V359ZM135.063 355H136.063V360H135.063V355ZM136.063 360H138.063V361H136.063V360ZM139.063 355H140.063V361H139.063V360H138.063V359H139.063V355ZM144.066 353H145.066V354H144.066V353ZM144.066 356H142.066V355H145.066V360H147.066V361H142.066V360H144.066V356ZM149.07 355H150.07V356H151.07V357H150.07V359H151.07V360H150.07V363H149.07V355ZM151.07 355H153.07V356H151.07V355ZM153.07 356H154.07V360H153.07V356ZM151.07 360H153.07V361H151.07V360ZM157.074 355H160.074V356H157.074V355ZM156.074 356H157.074V357H160.074V356H161.074V358H157.074V360H156.074V356ZM157.074 360H160.074V361H157.074V360ZM160.074 359H161.074V360H160.074V359ZM163.078 355H164.078V356H165.078V357H164.078V361H163.078V355ZM167.078 355V356H165.078V355H167.078ZM167.078 356H168.078V357H167.078V356ZM177.086 353H181.086V354H178.086V356H181.086V357H178.086V360H181.086V361H177.086V353ZM181.086 357H182.086V360H181.086V357ZM181.086 354H182.086V356H181.086V354ZM185.09 355H188.09V356H185.09V355ZM184.09 356H185.09V357H188.09V356H189.09V358H185.09V360H184.09V356ZM185.09 360H188.09V361H185.09V360ZM188.09 359H189.09V360H188.09V359ZM193.094 354H191.094V353H194.094V360H196.094V361H191.094V360H193.094V354ZM199.098 353H200.098V355H202.098V356H200.098V360H199.098V356H198.098V355H199.098V353ZM200.098 360H202.098V361H200.098V360ZM202.098 359H203.098V360H202.098V359ZM207.102 359H208.102V361H207.102V359ZM219.109 353H220.109V355H221.109V356H220.109V361H219.109V353ZM223.109 356H222.109V355H223.109V353H224.109V361H223.109V356ZM221.109 356H222.109V358H221.109V356ZM227.113 355H230.113V356H227.113V355ZM226.113 356H227.113V357H230.113V356H231.113V358H227.113V360H226.113V356ZM227.113 360H230.113V361H227.113V360ZM230.113 359H231.113V360H230.113V359ZM234.117 353H235.117V355H237.117V356H235.117V360H234.117V356H233.117V355H234.117V353ZM235.117 360H237.117V361H235.117V360ZM237.117 359H238.117V360H237.117V359ZM240.121 353H241.121V356H242.121V357H241.121V361H240.121V353ZM244.121 356H245.121V361H244.121V356ZM242.121 355H244.121V356H242.121V355ZM247.125 358H248.125V360H247.125V358ZM248.125 360H250.125V361H248.125V360ZM250.125 359H251.125V358H248.125V357H251.125V356H252.125V361H251.125V360H250.125V359ZM248.125 355H251.125V356H248.125V355ZM254.129 355H255.129V356H256.129V357H255.129V361H254.129V355ZM256.129 355H258.129V356H256.129V355ZM258.129 356H259.129V361H258.129V356ZM262.133 355H265.133V356H262.133V355ZM261.133 356H262.133V357H265.133V356H266.133V358H262.133V360H261.133V356ZM262.133 360H265.133V361H262.133V360ZM265.133 359H266.133V360H265.133V359ZM279.141 353H280.141V361H279.141V360H278.141V359H279.141V357H278.141V356H279.141V353ZM278.141 360V361H276.141V360H278.141ZM276.141 360H275.141V356H276.141V360ZM278.141 356H276.141V355H278.141V356ZM283.145 355H286.145V356H283.145V355ZM282.145 356H283.145V357H286.145V356H287.145V358H283.145V360H282.145V356ZM283.145 360H286.145V361H283.145V360ZM286.145 359H287.145V360H286.145V359ZM290.148 353H291.148V355H293.148V356H291.148V360H290.148V356H289.148V355H290.148V353ZM291.148 360H293.148V361H291.148V360ZM293.148 359H294.148V360H293.148V359ZM297.152 355H300.152V356H297.152V355ZM296.152 356H297.152V357H300.152V356H301.152V358H297.152V360H296.152V356ZM297.152 360H300.152V361H297.152V360ZM300.152 359H301.152V360H300.152V359ZM304.156 355H307.156V356H304.156V355ZM303.156 356H304.156V360H303.156V356ZM304.156 360H307.156V361H304.156V360ZM307.156 356H308.156V357H307.156V356ZM307.156 359H308.156V360H307.156V359ZM311.16 353H312.16V355H314.16V356H312.16V360H311.16V356H310.16V355H311.16V353ZM312.16 360H314.16V361H312.16V360ZM314.16 359H315.16V360H314.16V359ZM318.164 355H321.164V356H318.164V355ZM317.164 356H318.164V357H321.164V356H322.164V358H318.164V360H317.164V356ZM318.164 360H321.164V361H318.164V360ZM321.164 359H322.164V360H321.164V359ZM328.168 353H329.168V361H328.168V360H327.168V359H328.168V357H327.168V356H328.168V353ZM327.168 360V361H325.168V360H327.168ZM325.168 360H324.168V356H325.168V360ZM327.168 356H325.168V355H327.168V356ZM339.176 355H342.176V356H339.176V355ZM342.176 356H343.176V360H342.176V356ZM338.176 356H339.176V360H338.176V356ZM339.176 360H342.176V361H339.176V360ZM345.18 355H346.18V356H347.18V357H346.18V361H345.18V355ZM347.18 355H349.18V356H347.18V355ZM349.18 356H350.18V361H349.18V356ZM24 370H25V372H27V373H25V377H24V373H23V372H24V370ZM25 377H27V378H25V377ZM27 376H28V377H27V376ZM30.0039 370H31.0039V373H32.0039V374H31.0039V378H30.0039V370ZM34.0039 373H35.0039V378H34.0039V373ZM32.0039 372H34.0039V373H32.0039V372ZM38.0078 372H41.0078V373H38.0078V372ZM37.0078 373H38.0078V374H41.0078V373H42.0078V375H38.0078V377H37.0078V373ZM38.0078 377H41.0078V378H38.0078V377ZM41.0078 376H42.0078V377H41.0078V376ZM46.0117 370H47.0117V371H46.0117V370ZM46.0117 373H44.0117V372H47.0117V377H49.0117V378H44.0117V377H46.0117V373ZM51.0156 372H52.0156V373H53.0156V374H52.0156V378H51.0156V372ZM55.0156 372V373H53.0156V372H55.0156ZM55.0156 373H56.0156V374H55.0156V373ZM69.0234 377V378H66.0234V377H69.0234ZM66.0234 377H65.0234V376H66.0234V377ZM69.0234 372V373H66.0234V372H69.0234ZM65.0234 373H66.0234V374H65.0234V373ZM66.0234 374H69.0234V375H66.0234V374ZM69.0234 375H70.0234V377H69.0234V375ZM72.0273 372H73.0273V377H72.0273V372ZM73.0273 377H75.0273V378H73.0273V377ZM76.0273 372H77.0273V378H76.0273V377H75.0273V376H76.0273V372ZM79.0313 372H80.0313V373H81.0313V374H80.0313V378H79.0313V372ZM83.0313 372V373H81.0313V372H83.0313ZM83.0313 373H84.0313V374H83.0313V373ZM87.0352 373H86.0352V372H87.0352V371H88.0352V372H90.0352V373H88.0352V378H87.0352V373ZM88.0352 370H91.0352V371H88.0352V370ZM93.0391 375H94.0391V377H93.0391V375ZM94.0391 377H96.0391V378H94.0391V377ZM96.0391 376H97.0391V375H94.0391V374H97.0391V373H98.0391V378H97.0391V377H96.0391V376ZM94.0391 372H97.0391V373H94.0391V372ZM101.043 372H104.043V373H101.043V372ZM100.043 373H101.043V377H100.043V373ZM101.043 377H104.043V378H101.043V377ZM104.043 373H105.043V374H104.043V373ZM104.043 376H105.043V377H104.043V376ZM108.047 372H111.047V373H108.047V372ZM107.047 373H108.047V374H111.047V373H112.047V375H108.047V377H107.047V373ZM108.047 377H111.047V378H108.047V377ZM111.047 376H112.047V377H111.047V376ZM118.051 377V378H115.051V377H118.051ZM115.051 377H114.051V376H115.051V377ZM118.051 372V373H115.051V372H118.051ZM114.051 373H115.051V374H114.051V373ZM115.051 374H118.051V375H115.051V374ZM118.051 375H119.051V377H118.051V375ZM128.059 370H129.059V373H130.059V374H129.059V378H128.059V370ZM132.059 373H133.059V378H132.059V373ZM130.059 372H132.059V373H130.059V372ZM135.063 375H136.063V377H135.063V375ZM136.063 377H138.063V378H136.063V377ZM138.063 376H139.063V375H136.063V374H139.063V373H140.063V378H139.063V377H138.063V376ZM136.063 372H139.063V373H136.063V372ZM146.066 377V378H143.066V377H146.066ZM143.066 377H142.066V376H143.066V377ZM146.066 372V373H143.066V372H146.066ZM142.066 373H143.066V374H142.066V373ZM143.066 374H146.066V375H143.066V374ZM146.066 375H147.066V377H146.066V375ZM157.074 370H158.074V372H160.074V373H158.074V377H157.074V373H156.074V372H157.074V370ZM158.074 377H160.074V378H158.074V377ZM160.074 376H161.074V377H160.074V376ZM163.078 370H164.078V373H165.078V374H164.078V378H163.078V370ZM167.078 373H168.078V378H167.078V373ZM165.078 372H167.078V373H165.078V372ZM171.082 372H174.082V373H171.082V372ZM170.082 373H171.082V374H174.082V373H175.082V375H171.082V377H170.082V373ZM171.082 377H174.082V378H171.082V377ZM174.082 376H175.082V377H174.082V376ZM185.09 370H186.09V372H188.09V373H186.09V377H185.09V373H184.09V372H185.09V370ZM186.09 377H188.09V378H186.09V377ZM188.09 376H189.09V377H188.09V376ZM192.094 372H195.094V373H192.094V372ZM191.094 373H192.094V374H195.094V373H196.094V375H192.094V377H191.094V373ZM192.094 377H195.094V378H192.094V377ZM195.094 376H196.094V377H195.094V376ZM200.098 371H198.098V370H201.098V377H203.098V378H198.098V377H200.098V371ZM207.102 371H205.102V370H208.102V377H210.102V378H205.102V377H207.102V371ZM217.105 374V375H212.105V374H217.105ZM220.109 370H221.109V372H223.109V373H221.109V377H220.109V373H219.109V372H220.109V370ZM221.109 377H223.109V378H221.109V377ZM223.109 376H224.109V377H223.109V376ZM226.113 375H227.113V377H226.113V375ZM227.113 377H229.113V378H227.113V377ZM229.113 376H230.113V375H227.113V374H230.113V373H231.113V378H230.113V377H229.113V376ZM227.113 372H230.113V373H227.113V372ZM235.117 371H233.117V370H236.117V377H238.117V378H233.117V377H235.117V371ZM241.121 372H244.121V373H241.121V372ZM240.121 373H241.121V374H244.121V373H245.121V375H241.121V377H240.121V373ZM241.121 377H244.121V378H241.121V377ZM244.121 376H245.121V377H244.121V376ZM258.129 377V378H255.129V377H258.129ZM255.129 377H254.129V376H255.129V377ZM258.129 372V373H255.129V372H258.129ZM254.129 373H255.129V374H254.129V373ZM255.129 374H258.129V375H255.129V374ZM258.129 375H259.129V377H258.129V375ZM263.133 370H264.133V371H263.133V370ZM263.133 373H261.133V372H264.133V377H266.133V378H261.133V377H263.133V373ZM269.137 372H271.137V373H269.137V372ZM268.137 373H269.137V377H268.137V373ZM269.137 377H271.137V378H269.137V377ZM269.137 379H272.137V380H269.137V379ZM271.137 376H272.137V374H271.137V373H272.137V372H273.137V379H272.137V377H271.137V376ZM275.141 372H276.141V373H277.141V374H276.141V378H275.141V372ZM277.141 372H279.141V373H277.141V372ZM279.141 373H280.141V378H279.141V373ZM286.145 377V378H283.145V377H286.145ZM283.145 377H282.145V376H283.145V377ZM286.145 372V373H283.145V372H286.145ZM282.145 373H283.145V374H282.145V373ZM283.145 374H286.145V375H283.145V374ZM286.145 375H287.145V377H286.145V375ZM297.152 372H300.152V373H297.152V372ZM300.152 373H301.152V377H300.152V373ZM296.152 373H297.152V377H296.152V373ZM297.152 377H300.152V378H297.152V377ZM304.156 373H303.156V372H304.156V371H305.156V372H307.156V373H305.156V378H304.156V373ZM305.156 370H308.156V371H305.156V370ZM317.164 372H318.164V377H317.164V372ZM321.164 372H322.164V378H320.164V377H321.164V372ZM320.164 377H319.164V372H320.164V377ZM318.164 377H319.164V378H318.164V377ZM324.168 375H325.168V377H324.168V375ZM325.168 377H327.168V378H325.168V377ZM327.168 376H328.168V375H325.168V374H328.168V373H329.168V378H328.168V377H327.168V376ZM325.168 372H328.168V373H325.168V372ZM331.172 372H332.172V373H333.172V374H332.172V378H331.172V372ZM335.172 372V373H333.172V372H335.172ZM335.172 373H336.172V374H335.172V373ZM338.176 372H340.176V373H339.176V378H338.176V372ZM340.176 373H341.176V378H340.176V373ZM342.176 373H341.176V372H342.176V373ZM342.176 373H343.176V378H342.176V373ZM353.184 372H356.184V373H353.184V372ZM356.184 373H357.184V377H356.184V373ZM352.184 373H353.184V377H352.184V373ZM353.184 377H356.184V378H353.184V377ZM359.188 372H360.188V373H361.188V374H360.188V378H359.188V372ZM363.188 372V373H361.188V372H363.188ZM363.188 373H364.188V374H363.188V373ZM24 389H27V390H24V389ZM23 390H24V391H27V390H28V392H24V394H23V390ZM24 394H27V395H24V394ZM27 393H28V394H27V393ZM30.0039 389H31.0039V392H30.0039V389ZM34.0039 389H35.0039V392H34.0039V389ZM32.0039 394H31.0039V392H32.0039V394ZM32.0039 394H33.0039V395H32.0039V394ZM33.0039 392H34.0039V394H33.0039V392ZM38.0078 389H41.0078V390H38.0078V389ZM37.0078 390H38.0078V391H41.0078V390H42.0078V392H38.0078V394H37.0078V390ZM38.0078 394H41.0078V395H38.0078V394ZM41.0078 393H42.0078V394H41.0078V393ZM44.0117 389H45.0117V390H46.0117V391H45.0117V395H44.0117V389ZM46.0117 389H48.0117V390H46.0117V389ZM48.0117 390H49.0117V395H48.0117V390ZM58.0195 387H59.0195V390H60.0195V391H59.0195V395H58.0195V387ZM62.0195 390H63.0195V395H62.0195V390ZM60.0195 389H62.0195V390H60.0195V389ZM66.0234 389H69.0234V390H66.0234V389ZM69.0234 390H70.0234V394H69.0234V390ZM65.0234 390H66.0234V394H65.0234V390ZM66.0234 394H69.0234V395H66.0234V394ZM73.0273 387H74.0273V389H76.0273V390H74.0273V394H73.0273V390H72.0273V389H73.0273V387ZM74.0273 394H76.0273V395H74.0273V394ZM76.0273 393H77.0273V394H76.0273V393ZM87.0352 389H89.0352V390H87.0352V389ZM86.0352 390H87.0352V394H86.0352V390ZM87.0352 394H89.0352V395H87.0352V394ZM87.0352 396H90.0352V397H87.0352V396ZM89.0352 393H90.0352V391H89.0352V390H90.0352V389H91.0352V396H90.0352V394H89.0352V393ZM94.0391 389H97.0391V390H94.0391V389ZM93.0391 390H94.0391V391H97.0391V390H98.0391V392H94.0391V394H93.0391V390ZM94.0391 394H97.0391V395H94.0391V394ZM97.0391 393H98.0391V394H97.0391V393ZM101.043 389H104.043V390H101.043V389ZM104.043 390H105.043V394H104.043V390ZM100.043 390H101.043V394H100.043V390ZM101.043 394H104.043V395H101.043V394ZM108.047 389H111.047V390H108.047V389ZM107.047 390H108.047V394H107.047V390ZM108.047 394H111.047V395H108.047V394ZM111.047 390H112.047V391H111.047V390ZM111.047 393H112.047V394H111.047V393ZM114.051 387H115.051V390H116.051V391H115.051V395H114.051V387ZM118.051 390H119.051V395H118.051V390ZM116.051 389H118.051V390H116.051V389ZM122.055 389H125.055V390H122.055V389ZM121.055 390H122.055V391H125.055V390H126.055V392H122.055V394H121.055V390ZM122.055 394H125.055V395H122.055V394ZM125.055 393H126.055V394H125.055V393ZM128.059 389H130.059V390H129.059V395H128.059V389ZM130.059 390H131.059V395H130.059V390ZM132.059 390H131.059V389H132.059V390ZM132.059 390H133.059V395H132.059V390ZM137.063 387H138.063V388H137.063V387ZM137.063 390H135.063V389H138.063V394H140.063V395H135.063V394H137.063V390ZM146.066 394V395H143.066V394H146.066ZM143.066 394H142.066V393H143.066V394ZM146.066 389V390H143.066V389H146.066ZM142.066 390H143.066V391H142.066V390ZM143.066 391H146.066V392H143.066V391ZM146.066 392H147.066V394H146.066V392ZM150.07 387H151.07V389H153.07V390H151.07V394H150.07V390H149.07V389H150.07V387ZM151.07 394H153.07V395H151.07V394ZM153.07 393H154.07V394H153.07V393ZM156.074 389H157.074V390H158.074V391H157.074V395H156.074V389ZM160.074 389V390H158.074V389H160.074ZM160.074 390H161.074V391H160.074V390ZM163.078 389H164.078V392H163.078V389ZM167.078 389H168.078V392H167.078V389ZM165.078 394H166.078V396H165.078V394ZM165.078 396V397H163.078V396H165.078ZM166.078 392H167.078V394H166.078V392ZM164.078 392H165.078V394H164.078V392ZM179.086 387H180.086V388H179.086V387ZM179.086 390H177.086V389H180.086V394H182.086V395H177.086V394H179.086V390ZM184.09 389H185.09V390H186.09V391H185.09V395H184.09V389ZM186.09 389H188.09V390H186.09V389ZM188.09 390H189.09V395H188.09V390ZM199.098 387H200.098V389H202.098V390H200.098V394H199.098V390H198.098V389H199.098V387ZM200.098 394H202.098V395H200.098V394ZM202.098 393H203.098V394H202.098V393ZM205.102 387H206.102V390H207.102V391H206.102V395H205.102V387ZM209.102 390H210.102V395H209.102V390ZM207.102 389H209.102V390H207.102V389ZM213.105 389H216.105V390H213.105V389ZM212.105 390H213.105V391H216.105V390H217.105V392H213.105V394H212.105V390ZM213.105 394H216.105V395H213.105V394ZM216.105 393H217.105V394H216.105V393ZM221.109 387H222.109V388H221.109V387ZM221.109 390H219.109V389H222.109V394H224.109V395H219.109V394H221.109V390ZM226.113 389H227.113V390H228.113V391H227.113V395H226.113V389ZM230.113 389V390H228.113V389H230.113ZM230.113 390H231.113V391H230.113V390ZM240.121 389H241.121V390H242.121V391H241.121V395H240.121V389ZM244.121 389V390H242.121V389H244.121ZM244.121 390H245.121V391H244.121V390ZM248.125 389H251.125V390H248.125V389ZM251.125 390H252.125V394H251.125V390ZM247.125 390H248.125V394H247.125V390ZM248.125 394H251.125V395H248.125V394ZM255.129 389H258.129V390H255.129V389ZM254.129 390H255.129V394H254.129V390ZM255.129 394H258.129V395H255.129V394ZM258.129 390H259.129V391H258.129V390ZM258.129 393H259.129V394H258.129V393ZM261.133 387H262.133V392H263.133V391H264.133V393H262.133V395H261.133V387ZM265.133 389H266.133V390H265.133V389ZM264.133 390H265.133V391H264.133V390ZM264.133 393H265.133V394H264.133V393ZM265.133 394H266.133V395H265.133V394ZM268.137 389H269.137V392H268.137V389ZM272.137 389H273.137V392H272.137V389ZM270.137 394H271.137V396H270.137V394ZM270.137 396V397H268.137V396H270.137ZM271.137 392H272.137V394H271.137V392ZM269.137 392H270.137V394H269.137V392ZM283.145 389H286.145V390H283.145V389ZM282.145 390H283.145V394H282.145V390ZM283.145 394H286.145V395H283.145V394ZM286.145 390H287.145V391H286.145V390ZM286.145 393H287.145V394H286.145V393ZM290.148 389H293.148V390H290.148V389ZM293.148 390H294.148V394H293.148V390ZM289.148 390H290.148V394H289.148V390ZM290.148 394H293.148V395H290.148V394ZM296.152 389H297.152V390H298.152V391H297.152V395H296.152V389ZM300.152 389V390H298.152V389H300.152ZM300.152 390H301.152V391H300.152V390ZM304.156 389H307.156V390H304.156V389ZM303.156 390H304.156V391H307.156V390H308.156V392H304.156V394H303.156V390ZM304.156 394H307.156V395H304.156V394ZM307.156 393H308.156V394H307.156V393ZM314.16 394V395H311.16V394H314.16ZM311.16 394H310.16V393H311.16V394ZM314.16 389V390H311.16V389H314.16ZM310.16 390H311.16V391H310.16V390ZM311.16 391H314.16V392H311.16V391ZM314.16 392H315.16V394H314.16V392ZM319.164 393H320.164V395H319.164V393ZM318.164 395H319.164V396H318.164V395ZM331.172 389H332.172V394H331.172V389ZM335.172 389H336.172V395H334.172V394H335.172V389ZM334.172 394H333.172V389H334.172V394ZM332.172 394H333.172V395H332.172V394ZM338.176 387H339.176V390H340.176V391H339.176V395H338.176V387ZM342.176 390H343.176V395H342.176V390ZM340.176 389H342.176V390H340.176V389ZM347.18 387H348.18V388H347.18V387ZM347.18 390H345.18V389H348.18V394H350.18V395H345.18V394H347.18V390ZM353.184 389H356.184V390H353.184V389ZM352.184 390H353.184V394H352.184V390ZM353.184 394H356.184V395H353.184V394ZM356.184 390H357.184V391H356.184V390ZM356.184 393H357.184V394H356.184V393ZM359.188 387H360.188V390H361.188V391H360.188V395H359.188V387ZM363.188 390H364.188V395H363.188V390ZM361.188 389H363.188V390H361.188V389ZM375.195 387H376.195V388H375.195V387ZM375.195 390H373.195V389H376.195V394H378.195V395H373.195V394H375.195V390ZM384.199 394V395H381.199V394H384.199ZM381.199 394H380.199V393H381.199V394ZM384.199 389V390H381.199V389H384.199ZM380.199 390H381.199V391H380.199V390ZM381.199 391H384.199V392H381.199V391ZM384.199 392H385.199V394H384.199V392ZM23 406H25V407H24V412H23V406ZM25 407H26V412H25V407ZM27 407H26V406H27V407ZM27 407H28V412H27V407ZM30.0039 409H31.0039V411H30.0039V409ZM31.0039 411H33.0039V412H31.0039V411ZM33.0039 410H34.0039V409H31.0039V408H34.0039V407H35.0039V412H34.0039V411H33.0039V410ZM31.0039 406H34.0039V407H31.0039V406ZM37.0078 406H38.0078V407H39.0078V408H38.0078V412H37.0078V406ZM41.0078 406V407H39.0078V406H41.0078ZM41.0078 407H42.0078V408H41.0078V407ZM44.0117 404H45.0117V409H46.0117V408H47.0117V410H45.0117V412H44.0117V404ZM48.0117 406H49.0117V407H48.0117V406ZM47.0117 407H48.0117V408H47.0117V407ZM47.0117 410H48.0117V411H47.0117V410ZM48.0117 411H49.0117V412H48.0117V411ZM52.0156 406H55.0156V407H52.0156V406ZM51.0156 407H52.0156V408H55.0156V407H56.0156V409H52.0156V411H51.0156V407ZM52.0156 411H55.0156V412H52.0156V411ZM55.0156 410H56.0156V411H55.0156V410ZM62.0195 404H63.0195V412H62.0195V411H61.0195V410H62.0195V408H61.0195V407H62.0195V404ZM61.0195 411V412H59.0195V411H61.0195ZM59.0195 411H58.0195V407H59.0195V411ZM61.0195 407H59.0195V406H61.0195V407ZM67.0234 405H65.0234V404H68.0234V411H70.0234V412H65.0234V411H67.0234V405ZM72.0273 406H73.0273V409H72.0273V406ZM76.0273 406H77.0273V409H76.0273V406ZM74.0273 411H75.0273V413H74.0273V411ZM74.0273 413V414H72.0273V413H74.0273ZM75.0273 409H76.0273V411H75.0273V409ZM73.0273 409H74.0273V411H73.0273V409ZM90.0352 404H91.0352V412H90.0352V411H89.0352V410H90.0352V408H89.0352V407H90.0352V404ZM89.0352 411V412H87.0352V411H89.0352ZM87.0352 411H86.0352V407H87.0352V411ZM89.0352 407H87.0352V406H89.0352V407ZM95.0391 404H96.0391V405H95.0391V404ZM95.0391 407H93.0391V406H96.0391V411H98.0391V412H93.0391V411H95.0391V407ZM101.043 407H100.043V406H101.043V405H102.043V406H104.043V407H102.043V412H101.043V407ZM102.043 404H105.043V405H102.043V404ZM108.047 407H107.047V406H108.047V405H109.047V406H111.047V407H109.047V412H108.047V407ZM109.047 404H112.047V405H109.047V404ZM115.051 406H118.051V407H115.051V406ZM114.051 407H115.051V408H118.051V407H119.051V409H115.051V411H114.051V407ZM115.051 411H118.051V412H115.051V411ZM118.051 410H119.051V411H118.051V410ZM121.055 406H122.055V407H123.055V408H122.055V412H121.055V406ZM125.055 406V407H123.055V406H125.055ZM125.055 407H126.055V408H125.055V407ZM129.059 406H132.059V407H129.059V406ZM128.059 407H129.059V408H132.059V407H133.059V409H129.059V411H128.059V407ZM129.059 411H132.059V412H129.059V411ZM132.059 410H133.059V411H132.059V410ZM135.063 406H136.063V407H137.063V408H136.063V412H135.063V406ZM137.063 406H139.063V407H137.063V406ZM139.063 407H140.063V412H139.063V407ZM143.066 404H144.066V406H146.066V407H144.066V411H143.066V407H142.066V406H143.066V404ZM144.066 411H146.066V412H144.066V411ZM146.066 410H147.066V411H146.066V410ZM157.074 404H158.074V406H160.074V407H158.074V411H157.074V407H156.074V406H157.074V404ZM158.074 411H160.074V412H158.074V411ZM160.074 410H161.074V411H160.074V410ZM163.078 404H164.078V407H165.078V408H164.078V412H163.078V404ZM167.078 407H168.078V412H167.078V407ZM165.078 406H167.078V407H165.078V406ZM170.082 409H171.082V411H170.082V409ZM171.082 411H173.082V412H171.082V411ZM173.082 410H174.082V409H171.082V408H174.082V407H175.082V412H174.082V411H173.082V410ZM171.082 406H174.082V407H171.082V406ZM177.086 406H178.086V407H179.086V408H178.086V412H177.086V406ZM179.086 406H181.086V407H179.086V406ZM181.086 407H182.086V412H181.086V407ZM192.094 404H193.094V406H195.094V407H193.094V411H192.094V407H191.094V406H192.094V404ZM193.094 411H195.094V412H193.094V411ZM195.094 410H196.094V411H195.094V410ZM198.098 404H199.098V407H200.098V408H199.098V412H198.098V404ZM202.098 407H203.098V412H202.098V407ZM200.098 406H202.098V407H200.098V406ZM206.102 406H209.102V407H206.102V406ZM205.102 407H206.102V408H209.102V407H210.102V409H206.102V411H205.102V407ZM206.102 411H209.102V412H206.102V411ZM209.102 410H210.102V411H209.102V410ZM223.109 411V412H220.109V411H223.109ZM220.109 411H219.109V410H220.109V411ZM223.109 406V407H220.109V406H223.109ZM219.109 407H220.109V408H219.109V407ZM220.109 408H223.109V409H220.109V408ZM223.109 409H224.109V411H223.109V409ZM228.113 404H229.113V405H228.113V404ZM228.113 407H226.113V406H229.113V411H231.113V412H226.113V411H228.113V407ZM234.117 406H236.117V407H234.117V406ZM233.117 407H234.117V411H233.117V407ZM234.117 411H236.117V412H234.117V411ZM234.117 413H237.117V414H234.117V413ZM236.117 410H237.117V408H236.117V407H237.117V406H238.117V413H237.117V411H236.117V410ZM240.121 406H241.121V407H242.121V408H241.121V412H240.121V406ZM242.121 406H244.121V407H242.121V406ZM244.121 407H245.121V412H244.121V407ZM247.125 409H248.125V411H247.125V409ZM248.125 411H250.125V412H248.125V411ZM250.125 410H251.125V409H248.125V408H251.125V407H252.125V412H251.125V411H250.125V410ZM248.125 406H251.125V407H248.125V406ZM255.129 404H256.129V406H258.129V407H256.129V411H255.129V407H254.129V406H255.129V404ZM256.129 411H258.129V412H256.129V411ZM258.129 410H259.129V411H258.129V410ZM261.133 406H262.133V411H261.133V406ZM262.133 411H264.133V412H262.133V411ZM265.133 406H266.133V412H265.133V411H264.133V410H265.133V406ZM268.137 406H269.137V407H270.137V408H269.137V412H268.137V406ZM272.137 406V407H270.137V406H272.137ZM272.137 407H273.137V408H272.137V407ZM276.141 406H279.141V407H276.141V406ZM275.141 407H276.141V408H279.141V407H280.141V409H276.141V411H275.141V407ZM276.141 411H279.141V412H276.141V411ZM279.141 410H280.141V411H279.141V410ZM290.148 406H293.148V407H290.148V406ZM293.148 407H294.148V411H293.148V407ZM289.148 407H290.148V411H289.148V407ZM290.148 411H293.148V412H290.148V411ZM297.152 407H296.152V406H297.152V405H298.152V406H300.152V407H298.152V412H297.152V407ZM298.152 404H301.152V405H298.152V404ZM310.16 406H312.16V407H311.16V412H310.16V406ZM312.16 407H313.16V412H312.16V407ZM314.16 407H313.16V406H314.16V407ZM314.16 407H315.16V412H314.16V407ZM318.164 406H321.164V407H318.164V406ZM317.164 407H318.164V408H321.164V407H322.164V409H318.164V411H317.164V407ZM318.164 411H321.164V412H318.164V411ZM321.164 410H322.164V411H321.164V410ZM325.168 404H326.168V406H328.168V407H326.168V411H325.168V407H324.168V406H325.168V404ZM326.168 411H328.168V412H326.168V411ZM328.168 410H329.168V411H328.168V410ZM331.172 404H332.172V407H333.172V408H332.172V412H331.172V404ZM335.172 407H336.172V412H335.172V407ZM333.172 406H335.172V407H333.172V406ZM338.176 409H339.176V411H338.176V409ZM339.176 411H341.176V412H339.176V411ZM341.176 410H342.176V409H339.176V408H342.176V407H343.176V412H342.176V411H341.176V410ZM339.176 406H342.176V407H339.176V406ZM345.18 406H346.18V407H347.18V408H346.18V412H345.18V406ZM347.18 406H349.18V407H347.18V406ZM349.18 407H350.18V412H349.18V407ZM353.184 406H356.184V407H353.184V406ZM352.184 407H353.184V408H356.184V407H357.184V409H353.184V411H352.184V407ZM353.184 411H356.184V412H353.184V411ZM356.184 410H357.184V411H356.184V410ZM24 424H23V423H24V422H25V423H27V424H25V429H24V424ZM25 421H28V422H25V421ZM30.0039 423H31.0039V424H32.0039V425H31.0039V429H30.0039V423ZM34.0039 423V424H32.0039V423H34.0039ZM34.0039 424H35.0039V425H34.0039V424ZM38.0078 423H41.0078V424H38.0078V423ZM41.0078 424H42.0078V428H41.0078V424ZM37.0078 424H38.0078V428H37.0078V424ZM38.0078 428H41.0078V429H38.0078V428ZM44.0117 423H46.0117V424H45.0117V429H44.0117V423ZM46.0117 424H47.0117V429H46.0117V424ZM48.0117 424H47.0117V423H48.0117V424ZM48.0117 424H49.0117V429H48.0117V424ZM58.0195 426H59.0195V428H58.0195V426ZM59.0195 428H61.0195V429H59.0195V428ZM61.0195 427H62.0195V426H59.0195V425H62.0195V424H63.0195V429H62.0195V428H61.0195V427ZM59.0195 423H62.0195V424H59.0195V423ZM73.0273 423H76.0273V424H73.0273V423ZM72.0273 424H73.0273V428H72.0273V424ZM73.0273 428H76.0273V429H73.0273V428ZM76.0273 424H77.0273V425H76.0273V424ZM76.0273 427H77.0273V428H76.0273V427ZM80.0313 423H83.0313V424H80.0313V423ZM83.0313 424H84.0313V428H83.0313V424ZM79.0313 424H80.0313V428H79.0313V424ZM80.0313 428H83.0313V429H80.0313V428ZM86.0352 423H88.0352V424H87.0352V429H86.0352V423ZM88.0352 424H89.0352V429H88.0352V424ZM90.0352 424H89.0352V423H90.0352V424ZM90.0352 424H91.0352V429H90.0352V424ZM94.0391 423H97.0391V424H94.0391V423ZM93.0391 424H94.0391V425H97.0391V424H98.0391V426H94.0391V428H93.0391V424ZM94.0391 428H97.0391V429H94.0391V428ZM97.0391 427H98.0391V428H97.0391V427ZM101.043 421H102.043V423H104.043V424H102.043V428H101.043V424H100.043V423H101.043V421ZM102.043 428H104.043V429H102.043V428ZM104.043 427H105.043V428H104.043V427ZM109.047 427H110.047V429H109.047V427Z" fill="#333333"/>
<path d="M22 275L409 275" stroke="black"/>
<path d="M246 59H251V64H256V69H251V74H246V59ZM246 49H256V54H261V49H266V54H271V59H276V64H281V69H276V74H281V84H276V79H271V84H266V89H271V84H276V89H281V104H276V99H271V94H266V99H261V94H256V89H261V84H256V79H251V74H256V69H261V64H266V59H261V64H256V59H251V54H246V49ZM271 49H276V54H271V49ZM276 54H281V59H276V54ZM271 69H266V74H261V79H266V74H271V69ZM246 79H251V84H256V89H251V94H246V79ZM246 99H251V94H256V99H261V104H266V99H271V104H276V109H271V114H266V119H271V114H276V119H281V129H276V124H271V129H276V134H271V139H266V134H261V129H266V124H261V119H256V114H261V109H256V104H251V109H256V114H251V119H246V99ZM276 109H281V114H276V109ZM251 119H256V124H261V129H256V134H251V139H246V124H251V119ZM256 134H261V139H256V134ZM276 134H281V139H276V134ZM281.02 59H286.02V64H291.02V69H286.02V74H281.02V59ZM281.02 49H291.02V54H296.02V49H301.02V54H306.02V59H311.02V64H316.02V69H311.02V74H316.02V84H311.02V79H306.02V84H301.02V89H306.02V84H311.02V89H316.02V104H311.02V99H306.02V94H301.02V99H296.02V94H291.02V89H296.02V84H291.02V79H286.02V74H291.02V69H296.02V64H301.02V59H296.02V64H291.02V59H286.02V54H281.02V49ZM306.02 49H311.02V54H306.02V49ZM311.02 54H316.02V59H311.02V54ZM306.02 69H301.02V74H296.02V79H301.02V74H306.02V69ZM281.02 79H286.02V84H291.02V89H286.02V94H281.02V79ZM281.02 99H286.02V94H291.02V99H296.02V104H301.02V99H306.02V104H311.02V109H306.02V114H301.02V119H306.02V114H311.02V119H316.02V129H311.02V124H306.02V129H311.02V134H306.02V139H301.02V134H296.02V129H301.02V124H296.02V119H291.02V114H296.02V109H291.02V104H286.02V109H291.02V114H286.02V119H281.02V99ZM311.02 109H316.02V114H311.02V109ZM286.02 119H291.02V124H296.02V129H291.02V134H286.02V139H281.02V124H286.02V119ZM291.02 134H296.02V139H291.02V134ZM311.02 134H316.02V139H311.02V134ZM316.039 54H321.039V59H316.039V54ZM321.039 49H326.039V54H321.039V49ZM321.039 59H326.039V64H321.039V59ZM316.039 64H321.039V69H316.039V64ZM326.039 64H331.039V69H326.039V64ZM331.039 54H336.039V59H331.039V54ZM341.039 59H346.039V64H341.039V59ZM336.039 64H341.039V69H336.039V64ZM336.039 49H341.039V54H336.039V49ZM346.039 49H351.039V54H346.039V49ZM331.039 69H336.039V74H331.039V69ZM346.039 69H351.039V74H346.039V69ZM336.039 74H341.039V79H336.039V74ZM321.039 74H326.039V79H321.039V74ZM331.039 89H326.039V84H331.039V89ZM331.039 89H336.039V94H331.039V89ZM346.039 79H351.039V84H346.039V79ZM336.039 84H331.039V79H336.039V84ZM336.039 84H341.039V89H336.039V84ZM316.039 84H321.039V89H316.039V84ZM326.039 94H331.039V99H326.039V94ZM341.039 89H346.039V94H341.039V89ZM316.039 94H321.039V99H316.039V94ZM321.039 104H326.039V109H321.039V104ZM331.039 104H336.039V109H331.039V104ZM336.039 99H341.039V104H336.039V99ZM346.039 99H351.039V104H346.039V99ZM341.039 109H346.039V114H341.039V109ZM316.039 109H321.039V114H316.039V109ZM321.039 114H326.039V119H321.039V114ZM331.039 114H336.039V119H331.039V114ZM326.039 119H331.039V124H326.039V119ZM336.039 119H341.039V124H336.039V119ZM331.039 124H336.039V129H331.039V124ZM316.039 119H321.039V124H316.039V119ZM346.039 124H351.039V129H346.039V124ZM341.039 129H346.039V134H341.039V129ZM326.039 129H331.039V134H326.039V129ZM331.039 134H336.039V139H331.039V134ZM316.039 134H321.039V139H316.039V134ZM346.039 114H351.039V119H346.039V114ZM351.059 59H356.059V64H361.059V69H356.059V74H351.059V59ZM351.059 49H361.059V54H366.059V49H371.059V54H376.059V59H381.059V64H386.059V69H381.059V74H386.059V84H381.059V79H376.059V84H371.059V89H376.059V84H381.059V89H386.059V104H381.059V99H376.059V94H371.059V99H366.059V94H361.059V89H366.059V84H361.059V79H356.059V74H361.059V69H366.059V64H371.059V59H366.059V64H361.059V59H356.059V54H351.059V49ZM376.059 49H381.059V54H376.059V49ZM381.059 54H386.059V59H381.059V54ZM376.059 69H371.059V74H366.059V79H371.059V74H376.059V69ZM351.059 79H356.059V84H361.059V89H356.059V94H351.059V79ZM351.059 99H356.059V94H361.059V99H366.059V104H371.059V99H376.059V104H381.059V109H376.059V114H371.059V119H376.059V114H381.059V119H386.059V129H381.059V124H376.059V129H381.059V134H376.059V139H371.059V134H366.059V129H371.059V124H366.059V119H361.059V114H366.059V109H361.059V104H356.059V109H361.059V114H356.059V119H351.059V99ZM381.059 109H386.059V114H381.059V109ZM356.059 119H361.059V124H366.059V129H361.059V134H356.059V139H351.059V124H356.059V119ZM361.059 134H366.059V139H361.059V134ZM381.059 134H386.059V139H381.059V134ZM246 144H251V149H246V144ZM251 139H256V144H251V139ZM251 149H256V154H251V149ZM246 154H251V159H246V154ZM256 154H261V159H256V154ZM261 144H266V149H261V144ZM271 149H276V154H271V149ZM266 154H271V159H266V154ZM266 139H271V144H266V139ZM276 139H281V144H276V139ZM261 159H266V164H261V159ZM276 159H281V164H276V159ZM266 164H271V169H266V164ZM251 164H256V169H251V164ZM261 179H256V174H261V179ZM261 179H266V184H261V179ZM276 169H281V174H276V169ZM266 174H261V169H266V174ZM266 174H271V179H266V174ZM246 174H251V179H246V174ZM256 184H261V189H256V184ZM271 179H276V184H271V179ZM246 184H251V189H246V184ZM251 194H256V199H251V194ZM261 194H266V199H261V194ZM266 189H271V194H266V189ZM276 189H281V194H276V189ZM271 199H276V204H271V199ZM246 199H251V204H246V199ZM251 204H256V209H251V204ZM261 204H266V209H261V204ZM256 209H261V214H256V209ZM266 209H271V214H266V209ZM261 214H266V219H261V214ZM246 209H251V214H246V209ZM276 214H281V219H276V214ZM271 219H276V224H271V219ZM256 219H261V224H256V219ZM261 224H266V229H261V224ZM246 224H251V229H246V224ZM276 204H281V209H276V204ZM281.02 149H286.02V154H291.02V159H286.02V164H281.02V149ZM281.02 139H291.02V144H296.02V139H301.02V144H306.02V149H311.02V154H316.02V159H311.02V164H316.02V174H311.02V169H306.02V174H301.02V179H306.02V174H311.02V179H316.02V194H311.02V189H306.02V184H301.02V189H296.02V184H291.02V179H296.02V174H291.02V169H286.02V164H291.02V159H296.02V154H301.02V149H296.02V154H291.02V149H286.02V144H281.02V139ZM306.02 139H311.02V144H306.02V139ZM311.02 144H316.02V149H311.02V144ZM306.02 159H301.02V164H296.02V169H301.02V164H306.02V159ZM281.02 169H286.02V174H291.02V179H286.02V184H281.02V169ZM281.02 189H286.02V184H291.02V189H296.02V194H301.02V189H306.02V194H311.02V199H306.02V204H301.02V209H306.02V204H311.02V209H316.02V219H311.02V214H306.02V219H311.02V224H306.02V229H301.02V224H296.02V219H301.02V214H296.02V209H291.02V204H296.02V199H291.02V194H286.02V199H291.02V204H286.02V209H281.02V189ZM311.02 199H316.02V204H311.02V199ZM286.02 209H291.02V214H296.02V219H291.02V224H286.02V229H281.02V214H286.02V209ZM291.02 224H296.02V229H291.02V224ZM311.02 224H316.02V229H311.02V224ZM326.039 179H331.039V174H326.039V179ZM326.039 159V154H321.039V159H326.039ZM336.039 164H331.039V169H336.039V164ZM346.039 164H351.039V214H346.039V219H351.039V229H341.039V224H336.039V229H321.039V224H316.039V189H321.039V184H316.039V139H326.039V144H331.039V139H351.039V144H346.039V149H351.039V159H346.039V164ZM331.039 194H326.039V199H331.039V194ZM341.039 179H346.039V174H341.039V179ZM346.039 189H341.039V194H346.039V189ZM341.039 204H336.039V209H341.039V204ZM326.039 209H321.039V214H326.039V209ZM351.059 144H356.059V149H351.059V144ZM356.059 139H361.059V144H356.059V139ZM356.059 149H361.059V154H356.059V149ZM351.059 154H356.059V159H351.059V154ZM361.059 154H366.059V159H361.059V154ZM366.059 144H371.059V149H366.059V144ZM376.059 149H381.059V154H376.059V149ZM371.059 154H376.059V159H371.059V154ZM371.059 139H376.059V144H371.059V139ZM381.059 139H386.059V144H381.059V139ZM366.059 159H371.059V164H366.059V159ZM381.059 159H386.059V164H381.059V159ZM371.059 164H376.059V169H371.059V164ZM356.059 164H361.059V169H356.059V164ZM366.059 179H361.059V174H366.059V179ZM366.059 179H371.059V184H366.059V179ZM381.059 169H386.059V174H381.059V169ZM371.059 174H366.059V169H371.059V174ZM371.059 174H376.059V179H371.059V174ZM351.059 174H356.059V179H351.059V174ZM361.059 184H366.059V189H361.059V184ZM376.059 179H381.059V184H376.059V179ZM351.059 184H356.059V189H351.059V184ZM356.059 194H361.059V199H356.059V194ZM366.059 194H371.059V199H366.059V194ZM371.059 189H376.059V194H371.059V189ZM381.059 189H386.059V194H381.059V189ZM376.059 199H381.059V204H376.059V199ZM351.059 199H356.059V204H351.059V199ZM356.059 204H361.059V209H356.059V204ZM366.059 204H371.059V209H366.059V204ZM361.059 209H366.059V214H361.059V209ZM371.059 209H376.059V214H371.059V209ZM366.059 214H371.059V219H366.059V214ZM351.059 209H356.059V214H351.059V209ZM381.059 214H386.059V219H381.059V214ZM376.059 219H381.059V224H376.059V219ZM361.059 219H366.059V224H361.059V219ZM366.059 224H371.059V229H366.059V224ZM351.059 224H356.059V229H351.059V224ZM381.059 204H386.059V209H381.059V204Z" fill="#333333"/>
<path d="M25 49H40V52H28V58H37V61H28V70H40V73H25V49ZM49.0117 70H46.0117V64H49.0117V70ZM49.0117 70H52.0117V73H49.0117V70ZM43.0117 49H46.0117V64H43.0117V49ZM55.0117 49H58.0117V64H55.0117V49ZM52.0117 64H55.0117V70H52.0117V64ZM67.0234 70V52H61.0234V49H76.0234V52H70.0234V70H76.0234V73H61.0234V70H67.0234ZM79.0352 49H91.0352V52H82.0352V70H91.0352V73H79.0352V49ZM91.0352 52H94.0352V70H91.0352V52ZM97.0469 49H112.047V52H100.047V58H109.047V61H100.047V70H112.047V73H97.0469V49ZM115.059 49H118.059V55H121.059V58H118.059V73H115.059V49ZM127.059 64H124.059V61H127.059V49H130.059V73H127.059V64ZM124.059 61H121.059V58H124.059V61ZM133.07 52H136.07V70H133.07V52ZM136.07 70H145.07V73H136.07V70ZM145.07 67H148.07V70H145.07V67ZM136.07 49H145.07V52H136.07V49ZM145.07 52H148.07V55H145.07V52ZM151.082 49H166.082V52H154.082V58H163.082V61H154.082V70H166.082V73H151.082V49ZM187.105 52H190.105V70H187.105V52ZM190.105 70H199.105V73H190.105V70ZM199.105 52H202.105V70H199.105V52ZM190.105 49H199.105V52H190.105V49ZM205.117 49H220.117V52H208.117V58H217.117V61H208.117V73H205.117V49ZM25 85H28V103H25V85ZM28 103H37V106H28V103ZM37 97H34V94H40V103H37V97ZM28 82H37V85H28V82ZM37 85H40V88H37V85ZM43.0117 82H58.0117V85H46.0117V91H55.0117V94H46.0117V103H58.0117V106H43.0117V82ZM61.0234 85H64.0234V103H61.0234V85ZM64.0234 103H73.0234V106H64.0234V103ZM73.0234 85H76.0234V103H73.0234V85ZM64.0234 82H73.0234V85H64.0234V82ZM79.0352 82H94.0352V85H88.0352V106H85.0352V85H79.0352V82ZM97.0469 82H100.047V91H109.047V82H112.047V106H109.047V94H100.047V106H97.0469V82ZM115.059 82H130.059V85H118.059V91H127.059V94H118.059V103H130.059V106H115.059V82ZM133.07 82H145.07V85H136.07V94H145.07V100H142.07V97H136.07V106H133.07V82ZM145.07 85H148.07V94H145.07V85ZM145.07 100H148.07V106H145.07V100ZM151.082 82H154.082V88H157.082V91H154.082V106H151.082V82ZM163.082 91H160.082V88H163.082V82H166.082V106H163.082V91ZM157.082 91H160.082V97H157.082V91ZM169.094 88H172.094V94H181.094V88H184.094V106H181.094V97H172.094V106H169.094V88ZM175.094 82H178.094V85H175.094V82ZM172.094 85H175.094V88H172.094V85ZM178.094 85H181.094V88H178.094V85ZM187.105 82H190.105V103H202.105V106H187.105V82ZM25 121H28V127H37V121H40V139H37V130H28V139H25V121ZM31 115H34V118H31V115ZM28 118H31V121H28V118ZM34 118H37V121H34V118ZM43.0117 118H46.0117V136H43.0117V118ZM46.0117 136H55.0117V139H46.0117V136ZM55.0117 133H58.0117V136H55.0117V133ZM46.0117 115H55.0117V118H46.0117V115ZM55.0117 118H58.0117V121H55.0117V118ZM61.0234 115H76.0234V118H70.0234V139H67.0234V118H61.0234V115ZM85.0352 136V118H79.0352V115H94.0352V118H88.0352V136H94.0352V139H79.0352V136H85.0352ZM103.047 136H100.047V130H103.047V136ZM103.047 136H106.047V139H103.047V136ZM97.0469 115H100.047V130H97.0469V115ZM109.047 115H112.047V130H109.047V115ZM106.047 130H109.047V136H106.047V130ZM121.059 136V118H115.059V115H130.059V118H124.059V136H130.059V139H115.059V136H121.059ZM133.07 115H148.07V118H142.07V139H139.07V118H133.07V115ZM151.082 115H154.082V124H151.082V115ZM163.082 115H166.082V124H163.082V115ZM157.082 127H160.082V139H157.082V127ZM154.082 124H157.082V127H154.082V124ZM160.082 124H163.082V127H160.082V124ZM25 148H28V163H25V148ZM28 163H31V172H28V163ZM37 148H40V163H37V148ZM34 163H37V172H34V163ZM31 157H34V163H31V157ZM49.0117 169V151H43.0117V148H58.0117V151H52.0117V169H58.0117V172H43.0117V169H49.0117ZM61.0234 148H76.0234V151H70.0234V172H67.0234V151H61.0234V148ZM79.0352 148H82.0352V157H91.0352V148H94.0352V172H91.0352V160H82.0352V172H79.0352V148ZM103.047 169V151H97.0469V148H112.047V151H106.047V169H112.047V172H97.0469V169H103.047ZM115.059 148H118.059V154H121.059V157H118.059V172H115.059V148ZM127.059 163H124.059V160H127.059V148H130.059V172H127.059V163ZM124.059 160H121.059V157H124.059V160ZM157.082 169V151H151.082V148H166.082V151H160.082V169H166.082V172H151.082V169H157.082ZM169.094 151H172.094V169H169.094V151ZM172.094 169H181.094V172H172.094V169ZM181.094 166H184.094V169H181.094V166ZM172.094 148H181.094V151H172.094V148ZM181.094 151H184.094V154H181.094V151ZM187.105 148H190.105V157H187.105V148ZM199.105 148H202.105V157H199.105V148ZM193.105 160H196.105V172H193.105V160ZM190.105 157H193.105V160H190.105V157ZM196.105 157H199.105V160H196.105V157ZM25 181H37V184H28V202H37V205H25V181ZM37 184H40V202H37V184ZM43.0117 181H46.0117V196H43.0117V181ZM46.0117 196H49.0117V205H46.0117V196ZM55.0117 181H58.0117V196H55.0117V181ZM52.0117 196H55.0117V205H52.0117V196ZM49.0117 190H52.0117V196H49.0117V190ZM61.0234 187H64.0234V193H73.0234V187H76.0234V205H73.0234V196H64.0234V205H61.0234V187ZM67.0234 181H70.0234V184H67.0234V181ZM64.0234 184H67.0234V187H64.0234V184ZM70.0234 184H73.0234V187H70.0234V184ZM79.0352 181H91.0352V184H82.0352V193H91.0352V199H88.0352V196H82.0352V205H79.0352V181ZM91.0352 184H94.0352V193H91.0352V184ZM91.0352 199H94.0352V205H91.0352V199ZM97.0469 181H112.047V184H100.047V190H109.047V193H100.047V205H97.0469V181ZM25 214H37V217H28V226H37V229H28V238H25V214ZM37 217H40V226H37V217ZM43.0117 214H46.0117V235H58.0117V238H43.0117V214ZM61.0234 220H64.0234V226H73.0234V220H76.0234V238H73.0234V229H64.0234V238H61.0234V220ZM67.0234 214H70.0234V217H67.0234V214ZM64.0234 217H67.0234V220H64.0234V217ZM70.0234 217H73.0234V220H70.0234V217ZM79.0352 214H82.0352V220H85.0352V223H82.0352V238H79.0352V214ZM91.0352 229H88.0352V226H91.0352V214H94.0352V238H91.0352V229ZM88.0352 226H85.0352V223H88.0352V226ZM97.0469 214H112.047V217H100.047V223H109.047V226H100.047V235H112.047V238H97.0469V214ZM115.059 214H130.059V217H124.059V238H121.059V217H115.059V214ZM133.07 217H136.07V223H133.07V217ZM136.07 223H145.07V226H136.07V223ZM145.07 235V238H136.07V235H145.07ZM136.07 235H133.07V232H136.07V235ZM145.07 226H148.07V235H145.07V226ZM136.07 214H145.07V217H136.07V214ZM145.07 217H148.07V220H145.07V217Z" fill="#333333"/>
</g>
</svg>
