<svg width="407" height="535" viewBox="0 0 407 535" fill="none" xmlns="http://www.w3.org/2000/svg">
<mask id="mask0_473_43040" style="mask-type:alpha" maskUnits="userSpaceOnUse" x="0" y="0" width="407" height="535">
<path fill-rule="evenodd" clip-rule="evenodd" d="M407 0.25H0V485.25L46 491.75L107 497.25L148.5 514.75H181L227.5 518.25L260.5 524.75H339.5L386.5 533.75L407 534.75V0.25Z" fill="white"/>
</mask>
<g mask="url(#mask0_473_43040)">
<path fill-rule="evenodd" clip-rule="evenodd" d="M407 0.25H0V485.25L46 491.75L107 497.25L148.5 514.75H181L227.5 518.25L260.5 524.75H339.5L386.5 533.75L407 534.75V0.25Z" fill="white"/>
<path d="M315.959 247.75H317.459V250.75H318.959V252.25H317.459V255.25H315.959V252.25H314.459V250.75H315.959V247.75ZM314.459 250.75H312.959V249.25H314.459V250.75ZM312.959 252.25H314.459V253.75H312.959V252.25ZM318.959 249.25H320.459V250.75H318.959V249.25ZM318.959 252.25H320.459V253.75H318.959V252.25ZM326.465 247.75H327.965V250.75H329.465V252.25H327.965V255.25H326.465V252.25H324.965V250.75H326.465V247.75ZM324.965 250.75H323.465V249.25H324.965V250.75ZM323.465 252.25H324.965V253.75H323.465V252.25ZM329.465 249.25H330.965V250.75H329.465V249.25ZM329.465 252.25H330.965V253.75H329.465V252.25ZM336.971 247.75H338.471V250.75H339.971V252.25H338.471V255.25H336.971V252.25H335.471V250.75H336.971V247.75ZM335.471 250.75H333.971V249.25H335.471V250.75ZM333.971 252.25H335.471V253.75H333.971V252.25ZM339.971 249.25H341.471V250.75H339.971V249.25ZM339.971 252.25H341.471V253.75H339.971V252.25ZM344.477 250.75H345.977V252.25H344.477V250.75ZM345.977 249.25H350.477V250.75H345.977V249.25ZM350.477 250.75H351.977V253.75H350.477V250.75ZM347.477 253.75H350.477V255.25H347.477V253.75ZM350.477 255.25H351.977V259.75H350.477V255.25ZM350.477 259.75V261.25H345.977V259.75H350.477ZM345.977 259.75H344.477V258.25H345.977V259.75ZM354.982 250.75H356.482V255.25H357.982V256.75H356.482V259.75H354.982V250.75ZM356.482 259.75H360.982V261.25H356.482V259.75ZM356.482 249.25H360.982V250.75H356.482V249.25ZM360.982 250.75H362.482V259.75H360.982V253.75H359.482V252.25H360.982V250.75ZM357.982 253.75H359.482V255.25H357.982V253.75ZM369.988 249.25H372.988V261.25H371.488V258.25H365.488V253.75H366.988V256.75H371.488V250.75H369.988V249.25ZM368.488 250.75H369.988V252.25H368.488V250.75ZM366.988 252.25H368.488V253.75H366.988V252.25ZM377.494 256.75H378.994V261.25H377.494V256.75ZM378.994 255.25H380.494V256.75H378.994V255.25ZM380.494 253.75H381.994V255.25H380.494V253.75ZM381.994 250.75H375.994V249.25H383.494V253.75H381.994V250.75ZM315.959 272.75H317.459V275.75H318.959V277.25H317.459V280.25H315.959V277.25H314.459V275.75H315.959V272.75ZM314.459 275.75H312.959V274.25H314.459V275.75ZM312.959 277.25H314.459V278.75H312.959V277.25ZM318.959 274.25H320.459V275.75H318.959V274.25ZM318.959 277.25H320.459V278.75H318.959V277.25ZM326.465 272.75H327.965V275.75H329.465V277.25H327.965V280.25H326.465V277.25H324.965V275.75H326.465V272.75ZM324.965 275.75H323.465V274.25H324.965V275.75ZM323.465 277.25H324.965V278.75H323.465V277.25ZM329.465 274.25H330.965V275.75H329.465V274.25ZM329.465 277.25H330.965V278.75H329.465V277.25ZM336.971 272.75H338.471V275.75H339.971V277.25H338.471V280.25H336.971V277.25H335.471V275.75H336.971V272.75ZM335.471 275.75H333.971V274.25H335.471V275.75ZM333.971 277.25H335.471V278.75H333.971V277.25ZM339.971 274.25H341.471V275.75H339.971V274.25ZM339.971 277.25H341.471V278.75H339.971V277.25ZM345.977 274.25H350.477V275.75H345.977V274.25ZM344.477 275.75H345.977V278.75H350.477V280.25H345.977V284.75H344.477V275.75ZM350.477 280.25H351.977V284.75H350.477V280.25ZM345.977 284.75H350.477V286.25H345.977V284.75ZM350.477 275.75H351.977V277.25H350.477V275.75ZM354.982 275.75H356.482V278.75H354.982V275.75ZM360.982 275.75H356.482V274.25H360.982V275.75ZM360.982 275.75H362.482V278.75H360.982V275.75ZM356.482 278.75H360.982V280.25H356.482V278.75ZM360.982 280.25H362.482V284.75H360.982V280.25ZM354.982 280.25H356.482V284.75H354.982V280.25ZM360.982 284.75V286.25H356.482V284.75H360.982ZM365.488 275.75H366.988V277.25H365.488V275.75ZM366.988 274.25H371.488V275.75H366.988V274.25ZM371.488 275.75H372.988V278.75H371.488V275.75ZM368.488 278.75H371.488V280.25H368.488V278.75ZM371.488 280.25H372.988V284.75H371.488V280.25ZM371.488 284.75V286.25H366.988V284.75H371.488ZM366.988 284.75H365.488V283.25H366.988V284.75ZM375.994 283.25H377.494V284.75H383.494V286.25H375.994V283.25ZM381.994 275.75H377.494V274.25H381.994V275.75ZM381.994 275.75H383.494V278.75H381.994V275.75ZM377.494 281.75H378.994V283.25H377.494V281.75ZM375.994 275.75H377.494V277.25H375.994V275.75ZM380.494 278.75H381.994V280.25H380.494V278.75ZM378.994 280.25H380.494V281.75H378.994V280.25ZM291.947 333.25H290.447V331.75H293.447V328.75H291.947V327.25H294.947V324.25H296.447V327.25H297.947V324.25H299.447V327.25H300.947V328.75H297.947V331.75H299.447V333.25H296.447V336.25H294.947V333.25H293.447V336.25H291.947V333.25ZM294.947 331.75H296.447V328.75H294.947V331.75ZM302.453 324.25H309.953V325.75H303.953V328.75H308.453V330.25H303.953V334.75H309.953V336.25H302.453V324.25ZM314.459 324.25H318.959V325.75H314.459V324.25ZM312.959 325.75H314.459V328.75H318.959V330.25H314.459V334.75H312.959V325.75ZM318.959 330.25H320.459V334.75H318.959V330.25ZM314.459 334.75H318.959V336.25H314.459V334.75ZM318.959 325.75H320.459V327.25H318.959V325.75ZM323.465 324.25H329.465V325.75H324.965V334.75H329.465V336.25H323.465V324.25ZM329.465 325.75H330.965V334.75H329.465V325.75ZM333.971 324.25H341.471V325.75H335.471V328.75H339.971V330.25H333.971V324.25ZM339.971 330.25H341.471V334.75H339.971V330.25ZM339.971 334.75V336.25H335.471V334.75H339.971ZM335.471 334.75H333.971V333.25H335.471V334.75ZM350.477 334.75V336.25H345.977V334.75H350.477ZM345.977 334.75H344.477V333.25H345.977V334.75ZM350.477 330.25V325.75H351.977V334.75H350.477V331.75H345.977V330.25H350.477ZM345.977 330.25H344.477V325.75H345.977V330.25ZM345.977 324.25H350.477V325.75H345.977V324.25ZM354.982 325.75H356.482V328.75H354.982V325.75ZM360.982 325.75H356.482V324.25H360.982V325.75ZM360.982 325.75H362.482V328.75H360.982V325.75ZM356.482 328.75H360.982V330.25H356.482V328.75ZM360.982 330.25H362.482V334.75H360.982V330.25ZM354.982 330.25H356.482V334.75H354.982V330.25ZM360.982 334.75V336.25H356.482V334.75H360.982ZM365.488 324.25H372.988V325.75H366.988V328.75H371.488V330.25H366.988V334.75H372.988V336.25H365.488V324.25ZM375.994 324.25H383.494V325.75H377.494V328.75H381.994V330.25H377.494V336.25H375.994V324.25ZM323.465 350.75H324.965V359.75H323.465V350.75ZM324.965 359.75H329.465V361.25H324.965V359.75ZM329.465 358.25H330.965V359.75H329.465V358.25ZM324.965 349.25H329.465V350.75H324.965V349.25ZM329.465 350.75H330.965V352.25H329.465V350.75ZM333.971 349.25H339.971V350.75H335.471V355.25H339.971V358.25H338.471V356.75H335.471V361.25H333.971V349.25ZM339.971 350.75H341.471V355.25H339.971V350.75ZM339.971 358.25H341.471V361.25H339.971V358.25ZM344.477 349.25H351.977V350.75H345.977V353.75H350.477V355.25H345.977V359.75H351.977V361.25H344.477V349.25ZM354.982 349.25H360.982V350.75H356.482V359.75H360.982V361.25H354.982V349.25ZM360.982 350.75H362.482V359.75H360.982V350.75ZM368.488 359.75V350.75H365.488V349.25H372.988V350.75H369.988V359.75H372.988V361.25H365.488V359.75H368.488ZM375.994 349.25H383.494V350.75H380.494V361.25H378.994V350.75H375.994V349.25ZM333.971 400.75H335.471V402.25H333.971V400.75ZM335.471 399.25H339.971V400.75H335.471V399.25ZM339.971 400.75H341.471V403.75H339.971V400.75ZM336.971 403.75H339.971V405.25H336.971V403.75ZM339.971 405.25H341.471V409.75H339.971V405.25ZM339.971 409.75V411.25H335.471V409.75H339.971ZM335.471 409.75H333.971V408.25H335.471V409.75ZM350.477 409.75V411.25H345.977V409.75H350.477ZM345.977 409.75H344.477V408.25H345.977V409.75ZM350.477 405.25V400.75H351.977V409.75H350.477V406.75H345.977V405.25H350.477ZM345.977 405.25H344.477V400.75H345.977V405.25ZM345.977 399.25H350.477V400.75H345.977V399.25ZM357.982 408.25H359.482V411.25H357.982V408.25ZM366.988 406.75H368.488V411.25H366.988V406.75ZM368.488 405.25H369.988V406.75H368.488V405.25ZM369.988 403.75H371.488V405.25H369.988V403.75ZM371.488 400.75H365.488V399.25H372.988V403.75H371.488V400.75ZM375.994 399.25H383.494V400.75H377.494V403.75H381.994V405.25H375.994V399.25ZM381.994 405.25H383.494V409.75H381.994V405.25ZM381.994 409.75V411.25H377.494V409.75H381.994ZM377.494 409.75H375.994V408.25H377.494V409.75ZM333.971 433.25H335.471V434.75H341.471V436.25H333.971V433.25ZM339.971 425.75H335.471V424.25H339.971V425.75ZM339.971 425.75H341.471V428.75H339.971V425.75ZM335.471 431.75H336.971V433.25H335.471V431.75ZM333.971 425.75H335.471V427.25H333.971V425.75ZM338.471 428.75H339.971V430.25H338.471V428.75ZM336.971 430.25H338.471V431.75H336.971V430.25ZM344.477 424.25H351.977V425.75H345.977V428.75H350.477V430.25H344.477V424.25ZM350.477 430.25H351.977V434.75H350.477V430.25ZM350.477 434.75V436.25H345.977V434.75H350.477ZM345.977 434.75H344.477V433.25H345.977V434.75ZM357.982 433.25H359.482V436.25H357.982V433.25ZM365.488 424.25H372.988V425.75H366.988V428.75H371.488V430.25H365.488V424.25ZM371.488 430.25H372.988V434.75H371.488V430.25ZM371.488 434.75V436.25H366.988V434.75H371.488ZM366.988 434.75H365.488V433.25H366.988V434.75ZM375.994 425.75H377.494V430.25H378.994V431.75H377.494V434.75H375.994V425.75ZM377.494 434.75H381.994V436.25H377.494V434.75ZM377.494 424.25H381.994V425.75H377.494V424.25ZM381.994 425.75H383.494V434.75H381.994V428.75H380.494V427.25H381.994V425.75ZM378.994 428.75H380.494V430.25H378.994V428.75ZM335.471 474.25H339.971V475.75H335.471V474.25ZM333.971 475.75H335.471V478.75H339.971V480.25H335.471V484.75H333.971V475.75ZM339.971 480.25H341.471V484.75H339.971V480.25ZM335.471 484.75H339.971V486.25H335.471V484.75ZM339.971 475.75H341.471V477.25H339.971V475.75ZM344.477 474.25H351.977V475.75H345.977V478.75H350.477V480.25H344.477V474.25ZM350.477 480.25H351.977V484.75H350.477V480.25ZM350.477 484.75V486.25H345.977V484.75H350.477ZM345.977 484.75H344.477V483.25H345.977V484.75ZM357.982 483.25H359.482V486.25H357.982V483.25ZM365.488 483.25H366.988V484.75H372.988V486.25H365.488V483.25ZM371.488 475.75H366.988V474.25H371.488V475.75ZM371.488 475.75H372.988V478.75H371.488V475.75ZM366.988 481.75H368.488V483.25H366.988V481.75ZM365.488 475.75H366.988V477.25H365.488V475.75ZM369.988 478.75H371.488V480.25H369.988V478.75ZM368.488 480.25H369.988V481.75H368.488V480.25ZM375.994 474.25H383.494V475.75H377.494V478.75H381.994V480.25H375.994V474.25ZM381.994 480.25H383.494V484.75H381.994V480.25ZM381.994 484.75V486.25H377.494V484.75H381.994ZM377.494 484.75H375.994V483.25H377.494V484.75ZM345.977 506.75H347.477V511.25H345.977V506.75ZM347.477 505.25H348.977V506.75H347.477V505.25ZM348.977 503.75H350.477V505.25H348.977V503.75ZM350.477 500.75H344.477V499.25H351.977V503.75H350.477V500.75ZM357.982 508.25H359.482V511.25H357.982V508.25ZM368.488 502.25H365.488V500.75H368.488V499.25H369.988V509.75H372.988V511.25H365.488V509.75H368.488V502.25ZM375.994 500.75H377.494V503.75H375.994V500.75ZM381.994 500.75H377.494V499.25H381.994V500.75ZM381.994 500.75H383.494V503.75H381.994V500.75ZM377.494 503.75H381.994V505.25H377.494V503.75ZM381.994 505.25H383.494V509.75H381.994V505.25ZM375.994 505.25H377.494V509.75H375.994V505.25ZM381.994 509.75V511.25H377.494V509.75H381.994ZM335.471 531.75H336.971V536.25H335.471V531.75ZM336.971 530.25H338.471V531.75H336.971V530.25ZM338.471 528.75H339.971V530.25H338.471V528.75ZM339.971 525.75H333.971V524.25H341.471V528.75H339.971V525.75ZM344.477 533.25H345.977V534.75H351.977V536.25H344.477V533.25ZM350.477 525.75H345.977V524.25H350.477V525.75ZM350.477 525.75H351.977V528.75H350.477V525.75ZM345.977 531.75H347.477V533.25H345.977V531.75ZM344.477 525.75H345.977V527.25H344.477V525.75ZM348.977 528.75H350.477V530.25H348.977V528.75ZM347.477 530.25H348.977V531.75H347.477V530.25ZM357.982 533.25H359.482V536.25H357.982V533.25ZM369.988 524.25H372.988V536.25H371.488V533.25H365.488V528.75H366.988V531.75H371.488V525.75H369.988V524.25ZM368.488 525.75H369.988V527.25H368.488V525.75ZM366.988 527.25H368.488V528.75H366.988V527.25ZM375.994 525.75H377.494V527.25H375.994V525.75ZM377.494 524.25H381.994V525.75H377.494V524.25ZM381.994 525.75H383.494V528.75H381.994V525.75ZM378.994 528.75H381.994V530.25H378.994V528.75ZM381.994 530.25H383.494V534.75H381.994V530.25ZM381.994 534.75V536.25H377.494V534.75H381.994ZM377.494 534.75H375.994V533.25H377.494V534.75Z" fill="#333333"/>
<path d="M23.5 249.25H25V252.25H26.5V253.75H25V261.25H23.5V249.25ZM29.5 253.75H28V252.25H29.5V249.25H31V261.25H29.5V253.75ZM26.5 253.75H28V256.75H26.5V253.75ZM35.5059 252.25H40.0059V253.75H35.5059V252.25ZM34.0059 253.75H35.5059V255.25H40.0059V253.75H41.5059V256.75H35.5059V259.75H34.0059V253.75ZM35.5059 259.75H40.0059V261.25H35.5059V259.75ZM40.0059 258.25H41.5059V259.75H40.0059V258.25ZM47.5117 252.25V253.75H49.0117V255.25H47.5117V259.75H50.5117V261.25H44.5117V259.75H46.0117V253.75H44.5117V252.25H47.5117ZM52.0117 252.25V253.75H49.0117V252.25H52.0117ZM56.5176 252.25H61.0176V253.75H56.5176V252.25ZM55.0176 253.75H56.5176V259.75H55.0176V253.75ZM56.5176 259.75H61.0176V261.25H56.5176V259.75ZM61.0176 253.75H62.5176V255.25H61.0176V253.75ZM61.0176 258.25H62.5176V259.75H61.0176V258.25ZM65.5234 249.25H67.0234V253.75H68.5234V255.25H67.0234V261.25H65.5234V249.25ZM71.5234 253.75H73.0234V261.25H71.5234V253.75ZM68.5234 252.25H71.5234V253.75H68.5234V252.25ZM76.0293 256.75H77.5293V259.75H76.0293V256.75ZM77.5293 259.75H80.5293V261.25H77.5293V259.75ZM80.5293 258.25H82.0293V256.75H77.5293V255.25H82.0293V253.75H83.5293V261.25H82.0293V259.75H80.5293V258.25ZM77.5293 252.25H82.0293V253.75H77.5293V252.25ZM86.5352 252.25H88.0352V253.75H89.5352V255.25H88.0352V261.25H86.5352V252.25ZM89.5352 252.25H92.5352V253.75H89.5352V252.25ZM92.5352 253.75H94.0352V261.25H92.5352V253.75ZM98.541 249.25H100.041V252.25H104.541V253.75H100.041V259.75H98.541V253.75H97.041V252.25H98.541V249.25ZM100.041 259.75H103.041V261.25H100.041V259.75ZM103.041 258.25H104.541V259.75H103.041V258.25ZM121.053 259.75V250.75H118.053V249.25H125.553V250.75H122.553V259.75H125.553V261.25H118.053V259.75H121.053ZM128.559 249.25H134.559V250.75H130.059V259.75H134.559V261.25H128.559V249.25ZM134.559 250.75H136.059V259.75H134.559V250.75ZM142.064 258.25H143.564V261.25H142.064V258.25ZM142.064 252.25H143.564V255.25H142.064V252.25ZM23.5 274.25H31V275.75H28V286.25H26.5V275.75H23.5V274.25ZM35.5059 277.25H40.0059V278.75H35.5059V277.25ZM34.0059 278.75H35.5059V280.25H40.0059V278.75H41.5059V281.75H35.5059V284.75H34.0059V278.75ZM35.5059 284.75H40.0059V286.25H35.5059V284.75ZM40.0059 283.25H41.5059V284.75H40.0059V283.25ZM47.5117 277.25V278.75H49.0117V280.25H47.5117V284.75H50.5117V286.25H44.5117V284.75H46.0117V278.75H44.5117V277.25H47.5117ZM52.0117 277.25V278.75H49.0117V277.25H52.0117ZM55.0176 277.25H58.0176V278.75H56.5176V286.25H55.0176V277.25ZM58.0176 278.75H59.5176V286.25H58.0176V278.75ZM61.0176 278.75H59.5176V277.25H61.0176V278.75ZM61.0176 278.75H62.5176V286.25H61.0176V278.75ZM68.5234 274.25H70.0234V275.75H68.5234V274.25ZM68.5234 278.75H65.5234V277.25H70.0234V284.75H73.0234V286.25H65.5234V284.75H68.5234V278.75ZM76.0293 277.25H77.5293V278.75H79.0293V280.25H77.5293V286.25H76.0293V277.25ZM79.0293 277.25H82.0293V278.75H79.0293V277.25ZM82.0293 278.75H83.5293V286.25H82.0293V278.75ZM86.5352 281.75H88.0352V284.75H86.5352V281.75ZM88.0352 284.75H91.0352V286.25H88.0352V284.75ZM91.0352 283.25H92.5352V281.75H88.0352V280.25H92.5352V278.75H94.0352V286.25H92.5352V284.75H91.0352V283.25ZM88.0352 277.25H92.5352V278.75H88.0352V277.25ZM100.041 275.75H97.041V274.25H101.541V284.75H104.541V286.25H97.041V284.75H100.041V275.75ZM121.053 284.75V275.75H118.053V274.25H125.553V275.75H122.553V284.75H125.553V286.25H118.053V284.75H121.053ZM128.559 274.25H134.559V275.75H130.059V284.75H134.559V286.25H128.559V274.25ZM134.559 275.75H136.059V284.75H134.559V275.75ZM142.064 283.25H143.564V286.25H142.064V283.25ZM142.064 277.25H143.564V280.25H142.064V277.25ZM23.5 324.25H31V325.75H28V336.25H26.5V325.75H23.5V324.25ZM37.0059 327.25V328.75H38.5059V330.25H37.0059V334.75H40.0059V336.25H34.0059V334.75H35.5059V328.75H34.0059V327.25H37.0059ZM41.5059 327.25V328.75H38.5059V327.25H41.5059ZM44.5117 331.75H46.0117V334.75H44.5117V331.75ZM46.0117 334.75H49.0117V336.25H46.0117V334.75ZM49.0117 333.25H50.5117V331.75H46.0117V330.25H50.5117V328.75H52.0117V336.25H50.5117V334.75H49.0117V333.25ZM46.0117 327.25H50.5117V328.75H46.0117V327.25ZM55.0176 327.25H56.5176V328.75H58.0176V330.25H56.5176V336.25H55.0176V327.25ZM58.0176 327.25H61.0176V328.75H58.0176V327.25ZM61.0176 328.75H62.5176V336.25H61.0176V328.75ZM71.5234 334.75V336.25H67.0234V334.75H71.5234ZM67.0234 334.75H65.5234V333.25H67.0234V334.75ZM71.5234 327.25V328.75H67.0234V327.25H71.5234ZM65.5234 328.75H67.0234V330.25H65.5234V328.75ZM67.0234 330.25H71.5234V331.75H67.0234V330.25ZM71.5234 331.75H73.0234V334.75H71.5234V331.75ZM71.5234 328.75H73.0234V330.25H71.5234V328.75ZM76.0293 331.75H77.5293V334.75H76.0293V331.75ZM77.5293 334.75H80.5293V336.25H77.5293V334.75ZM80.5293 333.25H82.0293V331.75H77.5293V330.25H82.0293V328.75H83.5293V336.25H82.0293V334.75H80.5293V333.25ZM77.5293 327.25H82.0293V328.75H77.5293V327.25ZM88.0352 327.25H92.5352V328.75H88.0352V327.25ZM86.5352 328.75H88.0352V334.75H86.5352V328.75ZM88.0352 334.75H92.5352V336.25H88.0352V334.75ZM92.5352 328.75H94.0352V330.25H92.5352V328.75ZM92.5352 333.25H94.0352V334.75H92.5352V333.25ZM98.541 324.25H100.041V327.25H104.541V328.75H100.041V334.75H98.541V328.75H97.041V327.25H98.541V324.25ZM100.041 334.75H103.041V336.25H100.041V334.75ZM103.041 333.25H104.541V334.75H103.041V333.25ZM110.547 324.25H112.047V325.75H110.547V324.25ZM110.547 328.75H107.547V327.25H112.047V334.75H115.047V336.25H107.547V334.75H110.547V328.75ZM119.553 327.25H124.053V328.75H119.553V327.25ZM124.053 328.75H125.553V334.75H124.053V328.75ZM118.053 328.75H119.553V334.75H118.053V328.75ZM119.553 334.75H124.053V336.25H119.553V334.75ZM128.559 327.25H130.059V328.75H131.559V330.25H130.059V336.25H128.559V327.25ZM131.559 327.25H134.559V328.75H131.559V327.25ZM134.559 328.75H136.059V336.25H134.559V328.75ZM152.57 334.75V325.75H149.57V324.25H157.07V325.75H154.07V334.75H157.07V336.25H149.57V334.75H152.57ZM160.076 324.25H166.076V325.75H161.576V334.75H166.076V336.25H160.076V324.25ZM166.076 325.75H167.576V334.75H166.076V325.75ZM173.582 333.25H175.082V336.25H173.582V333.25ZM173.582 327.25H175.082V330.25H173.582V327.25ZM23.5 349.25H31V350.75H28V361.25H26.5V350.75H23.5V349.25ZM34.0059 352.25H35.5059V356.75H34.0059V352.25ZM40.0059 352.25H41.5059V356.75H40.0059V352.25ZM37.0059 359.75H38.5059V362.75H37.0059V359.75ZM37.0059 362.75V364.25H34.0059V362.75H37.0059ZM38.5059 356.75H40.0059V359.75H38.5059V356.75ZM35.5059 356.75H37.0059V359.75H35.5059V356.75ZM44.5117 352.25H46.0117V353.75H47.5117V355.25H46.0117V358.25H47.5117V359.75H46.0117V364.25H44.5117V352.25ZM47.5117 352.25H50.5117V353.75H47.5117V352.25ZM50.5117 353.75H52.0117V359.75H50.5117V353.75ZM47.5117 359.75H50.5117V361.25H47.5117V359.75ZM56.5176 352.25H61.0176V353.75H56.5176V352.25ZM55.0176 353.75H56.5176V355.25H61.0176V353.75H62.5176V356.75H56.5176V359.75H55.0176V353.75ZM56.5176 359.75H61.0176V361.25H56.5176V359.75ZM61.0176 358.25H62.5176V359.75H61.0176V358.25ZM68.5234 358.25H70.0234V361.25H68.5234V358.25ZM68.5234 352.25H70.0234V355.25H68.5234V352.25ZM23.5 400.75H25V409.75H23.5V400.75ZM25 409.75H29.5V411.25H25V409.75ZM29.5 408.25H31V409.75H29.5V408.25ZM25 399.25H29.5V400.75H25V399.25ZM29.5 400.75H31V402.25H29.5V400.75ZM34.0059 399.25H35.5059V403.75H37.0059V405.25H35.5059V411.25H34.0059V399.25ZM40.0059 403.75H41.5059V411.25H40.0059V403.75ZM37.0059 402.25H40.0059V403.75H37.0059V402.25ZM46.0117 402.25H50.5117V403.75H46.0117V402.25ZM44.5117 403.75H46.0117V405.25H50.5117V403.75H52.0117V406.75H46.0117V409.75H44.5117V403.75ZM46.0117 409.75H50.5117V411.25H46.0117V409.75ZM50.5117 408.25H52.0117V409.75H50.5117V408.25ZM58.0176 402.25V403.75H59.5176V405.25H58.0176V409.75H61.0176V411.25H55.0176V409.75H56.5176V403.75H55.0176V402.25H58.0176ZM62.5176 402.25V403.75H59.5176V402.25H62.5176ZM68.5234 402.25V403.75H70.0234V405.25H68.5234V409.75H71.5234V411.25H65.5234V409.75H67.0234V403.75H65.5234V402.25H68.5234ZM73.0234 402.25V403.75H70.0234V402.25H73.0234ZM76.0293 402.25H77.5293V406.75H76.0293V402.25ZM82.0293 402.25H83.5293V406.75H82.0293V402.25ZM79.0293 409.75H80.5293V412.75H79.0293V409.75ZM79.0293 412.75V414.25H76.0293V412.75H79.0293ZM80.5293 406.75H82.0293V409.75H80.5293V406.75ZM77.5293 406.75H79.0293V409.75H77.5293V406.75ZM97.041 402.25H98.541V403.75H100.041V405.25H98.541V408.25H100.041V409.75H98.541V414.25H97.041V402.25ZM100.041 402.25H103.041V403.75H100.041V402.25ZM103.041 403.75H104.541V409.75H103.041V403.75ZM100.041 409.75H103.041V411.25H100.041V409.75ZM110.547 399.25H112.047V400.75H110.547V399.25ZM110.547 403.75H107.547V402.25H112.047V409.75H115.047V411.25H107.547V409.75H110.547V403.75ZM119.553 402.25H124.053V403.75H119.553V402.25ZM118.053 403.75H119.553V405.25H124.053V403.75H125.553V406.75H119.553V409.75H118.053V403.75ZM119.553 409.75H124.053V411.25H119.553V409.75ZM124.053 408.25H125.553V409.75H124.053V408.25ZM23.5 424.25H29.5V425.75H25V434.75H29.5V436.25H23.5V424.25ZM29.5 425.75H31V434.75H29.5V425.75ZM34.0059 431.75H35.5059V434.75H34.0059V431.75ZM35.5059 434.75H38.5059V436.25H35.5059V434.75ZM38.5059 433.25H40.0059V431.75H35.5059V430.25H40.0059V428.75H41.5059V436.25H40.0059V434.75H38.5059V433.25ZM35.5059 427.25H40.0059V428.75H35.5059V427.25ZM44.5117 427.25H47.5117V428.75H46.0117V436.25H44.5117V427.25ZM47.5117 428.75H49.0117V436.25H47.5117V428.75ZM50.5117 428.75H49.0117V427.25H50.5117V428.75ZM50.5117 428.75H52.0117V436.25H50.5117V428.75ZM55.0176 427.25H56.5176V428.75H58.0176V430.25H56.5176V436.25H55.0176V427.25ZM58.0176 427.25H61.0176V428.75H58.0176V427.25ZM61.0176 428.75H62.5176V436.25H61.0176V428.75ZM77.5293 427.25H80.5293V428.75H77.5293V427.25ZM76.0293 428.75H77.5293V434.75H76.0293V428.75ZM77.5293 434.75H80.5293V436.25H77.5293V434.75ZM77.5293 437.75H82.0293V439.25H77.5293V437.75ZM80.5293 433.25H82.0293V430.25H80.5293V428.75H82.0293V427.25H83.5293V437.75H82.0293V434.75H80.5293V433.25ZM88.0352 427.25H92.5352V428.75H88.0352V427.25ZM92.5352 428.75H94.0352V434.75H92.5352V428.75ZM86.5352 428.75H88.0352V434.75H86.5352V428.75ZM88.0352 434.75H92.5352V436.25H88.0352V434.75ZM98.541 427.25H103.041V428.75H98.541V427.25ZM103.041 428.75H104.541V434.75H103.041V428.75ZM97.041 428.75H98.541V434.75H97.041V428.75ZM98.541 434.75H103.041V436.25H98.541V434.75ZM113.547 424.25H115.047V436.25H113.547V434.75H112.047V433.25H113.547V430.25H112.047V428.75H113.547V424.25ZM112.047 434.75V436.25H109.047V434.75H112.047ZM109.047 434.75H107.547V428.75H109.047V434.75ZM112.047 428.75H109.047V427.25H112.047V428.75ZM130.059 427.25H134.559V428.75H130.059V427.25ZM128.559 428.75H130.059V434.75H128.559V428.75ZM130.059 434.75H134.559V436.25H130.059V434.75ZM134.559 428.75H136.059V430.25H134.559V428.75ZM134.559 433.25H136.059V434.75H134.559V433.25ZM140.564 427.25H145.064V428.75H140.564V427.25ZM145.064 428.75H146.564V434.75H145.064V428.75ZM139.064 428.75H140.564V434.75H139.064V428.75ZM140.564 434.75H145.064V436.25H140.564V434.75ZM151.07 428.75H149.57V427.25H151.07V425.75H152.57V427.25H157.07V428.75H152.57V434.75H155.57V436.25H149.57V434.75H151.07V428.75ZM152.57 424.25H157.07V425.75H152.57V424.25ZM161.576 428.75H160.076V427.25H161.576V425.75H163.076V427.25H167.576V428.75H163.076V434.75H166.076V436.25H160.076V434.75H161.576V428.75ZM163.076 424.25H167.576V425.75H163.076V424.25ZM172.082 427.25H176.582V428.75H172.082V427.25ZM170.582 428.75H172.082V430.25H176.582V428.75H178.082V431.75H172.082V434.75H170.582V428.75ZM172.082 434.75H176.582V436.25H172.082V434.75ZM176.582 433.25H178.082V434.75H176.582V433.25ZM182.588 427.25H187.088V428.75H182.588V427.25ZM181.088 428.75H182.588V430.25H187.088V428.75H188.588V431.75H182.588V434.75H181.088V428.75ZM182.588 434.75H187.088V436.25H182.588V434.75ZM187.088 433.25H188.588V434.75H187.088V433.25ZM23.5 475.75H25V478.75H23.5V475.75ZM25 478.75H29.5V480.25H25V478.75ZM29.5 484.75V486.25H25V484.75H29.5ZM25 484.75H23.5V483.25H25V484.75ZM29.5 480.25H31V484.75H29.5V480.25ZM25 474.25H29.5V475.75H25V474.25ZM29.5 475.75H31V477.25H29.5V475.75ZM34.0059 477.25H35.5059V484.75H34.0059V477.25ZM35.5059 484.75H38.5059V486.25H35.5059V484.75ZM40.0059 477.25H41.5059V486.25H40.0059V484.75H38.5059V483.25H40.0059V477.25ZM44.5117 474.25H46.0117V478.75H47.5117V480.25H46.0117V483.25H47.5117V484.75H46.0117V486.25H44.5117V474.25ZM47.5117 484.75H50.5117V486.25H47.5117V484.75ZM50.5117 478.75H52.0117V484.75H50.5117V478.75ZM47.5117 477.25H50.5117V478.75H47.5117V477.25ZM56.5176 474.25H58.0176V477.25H62.5176V478.75H58.0176V484.75H56.5176V478.75H55.0176V477.25H56.5176V474.25ZM58.0176 484.75H61.0176V486.25H58.0176V484.75ZM61.0176 483.25H62.5176V484.75H61.0176V483.25ZM67.0234 477.25H71.5234V478.75H67.0234V477.25ZM71.5234 478.75H73.0234V484.75H71.5234V478.75ZM65.5234 478.75H67.0234V484.75H65.5234V478.75ZM67.0234 484.75H71.5234V486.25H67.0234V484.75ZM77.5293 474.25H79.0293V477.25H83.5293V478.75H79.0293V484.75H77.5293V478.75H76.0293V477.25H77.5293V474.25ZM79.0293 484.75H82.0293V486.25H79.0293V484.75ZM82.0293 483.25H83.5293V484.75H82.0293V483.25ZM86.5352 481.75H88.0352V484.75H86.5352V481.75ZM88.0352 484.75H91.0352V486.25H88.0352V484.75ZM91.0352 483.25H92.5352V481.75H88.0352V480.25H92.5352V478.75H94.0352V486.25H92.5352V484.75H91.0352V483.25ZM88.0352 477.25H92.5352V478.75H88.0352V477.25ZM100.041 475.75H97.041V474.25H101.541V484.75H104.541V486.25H97.041V484.75H100.041V475.75ZM23.5 499.25H31V500.75H28V511.25H26.5V500.75H23.5V499.25ZM34.0059 506.75H35.5059V509.75H34.0059V506.75ZM35.5059 509.75H38.5059V511.25H35.5059V509.75ZM38.5059 508.25H40.0059V506.75H35.5059V505.25H40.0059V503.75H41.5059V511.25H40.0059V509.75H38.5059V508.25ZM35.5059 502.25H40.0059V503.75H35.5059V502.25ZM44.5117 502.25H46.0117V503.75H44.5117V502.25ZM50.5117 502.25H52.0117V503.75H50.5117V502.25ZM44.5117 508.25H46.0117V511.25H44.5117V508.25ZM49.0117 503.75H50.5117V505.25H49.0117V503.75ZM46.0117 503.75H47.5117V505.25H46.0117V503.75ZM47.5117 505.25H49.0117V506.75H47.5117V505.25ZM46.0117 506.75H47.5117V508.25H46.0117V506.75ZM49.0117 506.75H50.5117V508.25H49.0117V506.75ZM50.5117 508.25H52.0117V511.25H50.5117V508.25ZM23.5 524.25H31V525.75H28V536.25H26.5V525.75H23.5V524.25ZM35.5059 527.25H40.0059V528.75H35.5059V527.25ZM40.0059 528.75H41.5059V534.75H40.0059V528.75ZM34.0059 528.75H35.5059V534.75H34.0059V528.75ZM35.5059 534.75H40.0059V536.25H35.5059V534.75ZM46.0117 524.25H47.5117V527.25H52.0117V528.75H47.5117V534.75H46.0117V528.75H44.5117V527.25H46.0117V524.25ZM47.5117 534.75H50.5117V536.25H47.5117V534.75ZM50.5117 533.25H52.0117V534.75H50.5117V533.25ZM55.0176 531.75H56.5176V534.75H55.0176V531.75ZM56.5176 534.75H59.5176V536.25H56.5176V534.75ZM59.5176 533.25H61.0176V531.75H56.5176V530.25H61.0176V528.75H62.5176V536.25H61.0176V534.75H59.5176V533.25ZM56.5176 527.25H61.0176V528.75H56.5176V527.25ZM68.5234 525.75H65.5234V524.25H70.0234V534.75H73.0234V536.25H65.5234V534.75H68.5234V525.75Z" fill="#333333"/>
<path d="M131.959 49.25H137.959V50.75H133.459V59.75H137.959V61.25H131.959V49.25ZM137.959 50.75H139.459V59.75H137.959V50.75ZM143.965 52.25H148.465V53.75H143.965V52.25ZM148.465 53.75H149.965V59.75H148.465V53.75ZM142.465 53.75H143.965V59.75H142.465V53.75ZM143.965 59.75H148.465V61.25H143.965V59.75ZM152.971 52.25H154.471V59.75H152.971V52.25ZM154.471 59.75H157.471V61.25H154.471V59.75ZM158.971 52.25H160.471V61.25H158.971V59.75H157.471V58.25H158.971V52.25ZM163.477 49.25H164.977V53.75H166.477V55.25H164.977V58.25H166.477V59.75H164.977V61.25H163.477V49.25ZM166.477 59.75H169.477V61.25H166.477V59.75ZM169.477 53.75H170.977V59.75H169.477V53.75ZM166.477 52.25H169.477V53.75H166.477V52.25ZM176.982 50.75H173.982V49.25H178.482V59.75H181.482V61.25H173.982V59.75H176.982V50.75ZM185.988 52.25H190.488V53.75H185.988V52.25ZM184.488 53.75H185.988V55.25H190.488V53.75H191.988V56.75H185.988V59.75H184.488V53.75ZM185.988 59.75H190.488V61.25H185.988V59.75ZM190.488 58.25H191.988V59.75H190.488V58.25ZM205.5 49.25H211.5V50.75H207V55.25H211.5V58.25H210V56.75H207V61.25H205.5V49.25ZM211.5 50.75H213V55.25H211.5V50.75ZM211.5 58.25H213V61.25H211.5V58.25ZM226.512 49.25H232.512V50.75H228.012V59.75H232.512V61.25H226.512V49.25ZM232.512 50.75H234.012V59.75H232.512V50.75ZM240.018 49.25H241.518V50.75H240.018V49.25ZM240.018 53.75H237.018V52.25H241.518V59.75H244.518V61.25H237.018V59.75H240.018V53.75ZM247.523 52.25H249.023V53.75H250.523V55.25H249.023V61.25H247.523V52.25ZM250.523 52.25H253.523V53.75H250.523V52.25ZM253.523 53.75H255.023V61.25H253.523V53.75ZM259.529 52.25H264.029V53.75H259.529V52.25ZM258.029 53.75H259.529V55.25H264.029V53.75H265.529V56.75H259.529V59.75H258.029V53.75ZM259.529 59.75H264.029V61.25H259.529V59.75ZM264.029 58.25H265.529V59.75H264.029V58.25ZM271.535 52.25V53.75H273.035V55.25H271.535V59.75H274.535V61.25H268.535V59.75H270.035V53.75H268.535V52.25H271.535ZM276.035 52.25V53.75H273.035V52.25H276.035ZM152.971 74.25H160.471V75.75H157.471V86.25H155.971V75.75H152.971V74.25ZM164.977 77.25H169.477V78.75H164.977V77.25ZM163.477 78.75H164.977V80.25H169.477V78.75H170.977V81.75H164.977V84.75H163.477V78.75ZM164.977 84.75H169.477V86.25H164.977V84.75ZM169.477 83.25H170.977V84.75H169.477V83.25ZM176.982 77.25V78.75H178.482V80.25H176.982V84.75H179.982V86.25H173.982V84.75H175.482V78.75H173.982V77.25H176.982ZM181.482 77.25V78.75H178.482V77.25H181.482ZM184.488 77.25H187.488V78.75H185.988V86.25H184.488V77.25ZM187.488 78.75H188.988V86.25H187.488V78.75ZM190.488 78.75H188.988V77.25H190.488V78.75ZM190.488 78.75H191.988V86.25H190.488V78.75ZM197.994 74.25H199.494V75.75H197.994V74.25ZM197.994 78.75H194.994V77.25H199.494V84.75H202.494V86.25H194.994V84.75H197.994V78.75ZM205.5 77.25H207V78.75H208.5V80.25H207V86.25H205.5V77.25ZM208.5 77.25H211.5V78.75H208.5V77.25ZM211.5 78.75H213V86.25H211.5V78.75ZM216.006 81.75H217.506V84.75H216.006V81.75ZM217.506 84.75H220.506V86.25H217.506V84.75ZM220.506 83.25H222.006V81.75H217.506V80.25H222.006V78.75H223.506V86.25H222.006V84.75H220.506V83.25ZM217.506 77.25H222.006V78.75H217.506V77.25ZM229.512 75.75H226.512V74.25H231.012V84.75H234.012V86.25H226.512V84.75H229.512V75.75ZM253.523 84.75V86.25H249.023V84.75H253.523ZM249.023 84.75H247.523V83.25H249.023V84.75ZM253.523 80.25V75.75H255.023V84.75H253.523V81.75H249.023V80.25H253.523ZM249.023 80.25H247.523V75.75H249.023V80.25ZM249.023 74.25H253.523V75.75H249.023V74.25ZM79.4297 99.25H80.9297V109.75H86.9297V111.25H79.4297V99.25ZM91.4355 102.25H95.9355V103.75H91.4355V102.25ZM95.9355 103.75H97.4355V109.75H95.9355V103.75ZM89.9355 103.75H91.4355V109.75H89.9355V103.75ZM91.4355 109.75H95.9355V111.25H91.4355V109.75ZM106.441 109.75V111.25H101.941V109.75H106.441ZM101.941 109.75H100.441V108.25H101.941V109.75ZM106.441 102.25V103.75H101.941V102.25H106.441ZM100.441 103.75H101.941V105.25H100.441V103.75ZM101.941 105.25H106.441V106.75H101.941V105.25ZM106.441 106.75H107.941V109.75H106.441V106.75ZM106.441 103.75H107.941V105.25H106.441V103.75ZM121.453 102.25H122.953V105.25H127.453V102.25H128.953V111.25H127.453V106.75H122.953V111.25H121.453V102.25ZM124.453 99.25H125.953V100.75H124.453V99.25ZM122.953 100.75H124.453V102.25H122.953V100.75ZM125.953 100.75H127.453V102.25H125.953V100.75ZM131.959 102.25H133.459V103.75H134.959V105.25H133.459V111.25H131.959V102.25ZM134.959 102.25H137.959V103.75H134.959V102.25ZM137.959 103.75H139.459V111.25H137.959V103.75ZM143.965 102.25H146.965V103.75H143.965V102.25ZM142.465 103.75H143.965V109.75H142.465V103.75ZM143.965 109.75H146.965V111.25H143.965V109.75ZM143.965 112.75H148.465V114.25H143.965V112.75ZM146.965 108.25H148.465V105.25H146.965V103.75H148.465V102.25H149.965V112.75H148.465V109.75H146.965V108.25ZM154.471 102.25H158.971V103.75H154.471V102.25ZM152.971 103.75H154.471V105.25H158.971V103.75H160.471V106.75H154.471V109.75H152.971V103.75ZM154.471 109.75H158.971V111.25H154.471V109.75ZM158.971 108.25H160.471V109.75H158.971V108.25ZM166.477 100.75H163.477V99.25H167.977V109.75H170.977V111.25H163.477V109.75H166.477V100.75ZM175.482 102.25H179.982V103.75H175.482V102.25ZM173.982 103.75H175.482V105.25H179.982V103.75H181.482V106.75H175.482V109.75H173.982V103.75ZM175.482 109.75H179.982V111.25H175.482V109.75ZM179.982 108.25H181.482V109.75H179.982V108.25ZM190.488 109.75V111.25H185.988V109.75H190.488ZM185.988 109.75H184.488V108.25H185.988V109.75ZM190.488 102.25V103.75H185.988V102.25H190.488ZM184.488 103.75H185.988V105.25H184.488V103.75ZM185.988 105.25H190.488V106.75H185.988V105.25ZM190.488 106.75H191.988V109.75H190.488V106.75ZM190.488 103.75H191.988V105.25H190.488V103.75ZM208.5 109.75V100.75H205.5V99.25H213V100.75H210V109.75H213V111.25H205.5V109.75H208.5ZM216.006 102.25H217.506V103.75H219.006V105.25H217.506V111.25H216.006V102.25ZM219.006 102.25H222.006V103.75H219.006V102.25ZM222.006 103.75H223.506V111.25H222.006V103.75ZM228.012 99.25H229.512V102.25H234.012V103.75H229.512V109.75H228.012V103.75H226.512V102.25H228.012V99.25ZM229.512 109.75H232.512V111.25H229.512V109.75ZM232.512 108.25H234.012V109.75H232.512V108.25ZM240.018 100.75H237.018V99.25H241.518V109.75H244.518V111.25H237.018V109.75H240.018V100.75ZM258.029 102.25H259.529V105.25H264.029V102.25H265.529V111.25H264.029V106.75H259.529V111.25H258.029V102.25ZM261.029 99.25H262.529V100.75H261.029V99.25ZM259.529 100.75H261.029V102.25H259.529V100.75ZM262.529 100.75H264.029V102.25H262.529V100.75ZM271.535 99.25H273.035V100.75H271.535V99.25ZM271.535 103.75H268.535V102.25H273.035V109.75H276.035V111.25H268.535V109.75H271.535V103.75ZM282.041 102.25V103.75H283.541V105.25H282.041V109.75H285.041V111.25H279.041V109.75H280.541V103.75H279.041V102.25H282.041ZM286.541 102.25V103.75H283.541V102.25H286.541ZM289.547 102.25H291.047V103.75H292.547V105.25H291.047V108.25H292.547V109.75H291.047V114.25H289.547V102.25ZM292.547 102.25H295.547V103.75H292.547V102.25ZM295.547 103.75H297.047V109.75H295.547V103.75ZM292.547 109.75H295.547V111.25H292.547V109.75ZM301.553 102.25H306.053V103.75H301.553V102.25ZM306.053 103.75H307.553V109.75H306.053V103.75ZM300.053 103.75H301.553V109.75H300.053V103.75ZM301.553 109.75H306.053V111.25H301.553V109.75ZM313.559 102.25V103.75H315.059V105.25H313.559V109.75H316.559V111.25H310.559V109.75H312.059V103.75H310.559V102.25H313.559ZM318.059 102.25V103.75H315.059V102.25H318.059ZM322.564 99.25H324.064V102.25H328.564V103.75H324.064V109.75H322.564V103.75H321.064V102.25H322.564V99.25ZM324.064 109.75H327.064V111.25H324.064V109.75ZM327.064 108.25H328.564V109.75H327.064V108.25ZM29.9004 127.25H26.9004V125.75H29.9004V124.25H31.4004V134.75H34.4004V136.25H26.9004V134.75H29.9004V127.25ZM47.9121 124.25H49.4121V131.75H47.9121V124.25ZM49.4121 131.75H50.9121V136.25H49.4121V131.75ZM53.9121 124.25H55.4121V131.75H53.9121V124.25ZM52.4121 131.75H53.9121V136.25H52.4121V131.75ZM50.9121 128.75H52.4121V131.75H50.9121V128.75ZM59.918 127.25H64.418V128.75H59.918V127.25ZM64.418 128.75H65.918V134.75H64.418V128.75ZM58.418 128.75H59.918V134.75H58.418V128.75ZM59.918 134.75H64.418V136.25H59.918V134.75ZM71.9238 127.25V128.75H73.4238V130.25H71.9238V134.75H74.9238V136.25H68.9238V134.75H70.4238V128.75H68.9238V127.25H71.9238ZM76.4238 127.25V128.75H73.4238V127.25H76.4238ZM82.4297 125.75H79.4297V124.25H83.9297V134.75H86.9297V136.25H79.4297V134.75H82.4297V125.75ZM95.9355 124.25H97.4355V136.25H95.9355V134.75H94.4355V133.25H95.9355V130.25H94.4355V128.75H95.9355V124.25ZM94.4355 134.75V136.25H91.4355V134.75H94.4355ZM91.4355 134.75H89.9355V128.75H91.4355V134.75ZM94.4355 128.75H91.4355V127.25H94.4355V128.75ZM110.947 124.25H112.447V131.75H110.947V124.25ZM112.447 131.75H113.947V136.25H112.447V131.75ZM116.947 124.25H118.447V131.75H116.947V124.25ZM115.447 131.75H116.947V136.25H115.447V131.75ZM113.947 128.75H115.447V131.75H113.947V128.75ZM121.453 131.75H122.953V134.75H121.453V131.75ZM122.953 134.75H125.953V136.25H122.953V134.75ZM125.953 133.25H127.453V131.75H122.953V130.25H127.453V128.75H128.953V136.25H127.453V134.75H125.953V133.25ZM122.953 127.25H127.453V128.75H122.953V127.25ZM131.959 127.25H133.459V131.75H131.959V127.25ZM137.959 127.25H139.459V131.75H137.959V127.25ZM134.959 134.75H136.459V137.75H134.959V134.75ZM134.959 137.75V139.25H131.959V137.75H134.959ZM136.459 131.75H137.959V134.75H136.459V131.75ZM133.459 131.75H134.959V134.75H133.459V131.75ZM145.465 133.25H146.965V136.25H145.465V133.25ZM143.965 136.25H145.465V137.75H143.965V136.25ZM163.477 124.25H164.977V134.75H170.977V136.25H163.477V124.25ZM175.482 127.25H179.982V128.75H175.482V127.25ZM179.982 128.75H181.482V134.75H179.982V128.75ZM173.982 128.75H175.482V134.75H173.982V128.75ZM175.482 134.75H179.982V136.25H175.482V134.75ZM190.488 134.75V136.25H185.988V134.75H190.488ZM185.988 134.75H184.488V133.25H185.988V134.75ZM190.488 127.25V128.75H185.988V127.25H190.488ZM184.488 128.75H185.988V130.25H184.488V128.75ZM185.988 130.25H190.488V131.75H185.988V130.25ZM190.488 131.75H191.988V134.75H190.488V131.75ZM190.488 128.75H191.988V130.25H190.488V128.75ZM205.5 127.25H207V130.25H211.5V127.25H213V136.25H211.5V131.75H207V136.25H205.5V127.25ZM208.5 124.25H210V125.75H208.5V124.25ZM207 125.75H208.5V127.25H207V125.75ZM210 125.75H211.5V127.25H210V125.75ZM216.006 127.25H217.506V128.75H219.006V130.25H217.506V136.25H216.006V127.25ZM219.006 127.25H222.006V128.75H219.006V127.25ZM222.006 128.75H223.506V136.25H222.006V128.75ZM228.012 127.25H231.012V128.75H228.012V127.25ZM226.512 128.75H228.012V134.75H226.512V128.75ZM228.012 134.75H231.012V136.25H228.012V134.75ZM228.012 137.75H232.512V139.25H228.012V137.75ZM231.012 133.25H232.512V130.25H231.012V128.75H232.512V127.25H234.012V137.75H232.512V134.75H231.012V133.25ZM238.518 127.25H243.018V128.75H238.518V127.25ZM237.018 128.75H238.518V130.25H243.018V128.75H244.518V131.75H238.518V134.75H237.018V128.75ZM238.518 134.75H243.018V136.25H238.518V134.75ZM243.018 133.25H244.518V134.75H243.018V133.25ZM250.523 125.75H247.523V124.25H252.023V134.75H255.023V136.25H247.523V134.75H250.523V125.75ZM259.529 127.25H264.029V128.75H259.529V127.25ZM258.029 128.75H259.529V130.25H264.029V128.75H265.529V131.75H259.529V134.75H258.029V128.75ZM259.529 134.75H264.029V136.25H259.529V134.75ZM264.029 133.25H265.529V134.75H264.029V133.25ZM274.535 134.75V136.25H270.035V134.75H274.535ZM270.035 134.75H268.535V133.25H270.035V134.75ZM274.535 127.25V128.75H270.035V127.25H274.535ZM268.535 128.75H270.035V130.25H268.535V128.75ZM270.035 130.25H274.535V131.75H270.035V130.25ZM274.535 131.75H276.035V134.75H274.535V131.75ZM274.535 128.75H276.035V130.25H274.535V128.75ZM282.041 133.25H283.541V136.25H282.041V133.25ZM280.541 136.25H282.041V137.75H280.541V136.25ZM300.053 125.75H301.553V134.75H300.053V125.75ZM301.553 134.75H306.053V136.25H301.553V134.75ZM306.053 133.25H307.553V134.75H306.053V133.25ZM301.553 124.25H306.053V125.75H301.553V124.25ZM306.053 125.75H307.553V127.25H306.053V125.75ZM310.559 127.25H312.059V130.25H316.559V127.25H318.059V136.25H316.559V131.75H312.059V136.25H310.559V127.25ZM313.559 124.25H315.059V125.75H313.559V124.25ZM312.059 125.75H313.559V127.25H312.059V125.75ZM315.059 125.75H316.559V127.25H315.059V125.75ZM337.57 134.75V136.25H333.07V134.75H337.57ZM333.07 134.75H331.57V133.25H333.07V134.75ZM337.57 130.25V125.75H339.07V134.75H337.57V131.75H333.07V130.25H337.57ZM333.07 130.25H331.57V125.75H333.07V130.25ZM333.07 124.25H337.57V125.75H333.07V124.25ZM342.076 125.75H343.576V130.25H345.076V131.75H343.576V134.75H342.076V125.75ZM343.576 134.75H348.076V136.25H343.576V134.75ZM343.576 124.25H348.076V125.75H343.576V124.25ZM348.076 125.75H349.576V134.75H348.076V128.75H346.576V127.25H348.076V125.75ZM345.076 128.75H346.576V130.25H345.076V128.75ZM352.582 125.75H354.082V130.25H355.582V131.75H354.082V134.75H352.582V125.75ZM354.082 134.75H358.582V136.25H354.082V134.75ZM354.082 124.25H358.582V125.75H354.082V124.25ZM358.582 125.75H360.082V134.75H358.582V128.75H357.082V127.25H358.582V125.75ZM355.582 128.75H357.082V130.25H355.582V128.75ZM367.588 124.25H370.588V136.25H369.088V133.25H363.088V128.75H364.588V131.75H369.088V125.75H367.588V124.25ZM366.088 125.75H367.588V127.25H366.088V125.75ZM364.588 127.25H366.088V128.75H364.588V127.25ZM373.594 124.25H381.094V125.75H375.094V128.75H379.594V130.25H373.594V124.25ZM379.594 130.25H381.094V134.75H379.594V130.25ZM379.594 134.75V136.25H375.094V134.75H379.594ZM375.094 134.75H373.594V133.25H375.094V134.75ZM63.6709 174.25H71.1709V175.75H68.1709V186.25H66.6709V175.75H63.6709V174.25ZM74.1768 174.25H75.6768V178.75H77.1768V180.25H75.6768V186.25H74.1768V174.25ZM80.1768 178.75H81.6768V186.25H80.1768V178.75ZM77.1768 177.25H80.1768V178.75H77.1768V177.25ZM84.6826 177.25H86.1826V184.75H84.6826V177.25ZM86.1826 184.75H89.1826V186.25H86.1826V184.75ZM90.6826 177.25H92.1826V186.25H90.6826V184.75H89.1826V183.25H90.6826V177.25ZM105.694 177.25H107.194V180.25H111.694V177.25H113.194V186.25H111.694V181.75H107.194V186.25H105.694V177.25ZM108.694 174.25H110.194V175.75H108.694V174.25ZM107.194 175.75H108.694V177.25H107.194V175.75ZM110.194 175.75H111.694V177.25H110.194V175.75ZM116.2 177.25H117.7V178.75H119.2V180.25H117.7V183.25H119.2V184.75H117.7V189.25H116.2V177.25ZM119.2 177.25H122.2V178.75H119.2V177.25ZM122.2 178.75H123.7V184.75H122.2V178.75ZM119.2 184.75H122.2V186.25H119.2V184.75ZM129.706 177.25V178.75H131.206V180.25H129.706V184.75H132.706V186.25H126.706V184.75H128.206V178.75H126.706V177.25H129.706ZM134.206 177.25V178.75H131.206V177.25H134.206ZM140.212 174.25H141.712V175.75H140.212V174.25ZM140.212 178.75H137.212V177.25H141.712V184.75H144.712V186.25H137.212V184.75H140.212V178.75ZM150.718 175.75H147.718V174.25H152.218V184.75H155.218V186.25H147.718V184.75H150.718V175.75ZM171.729 177.25H168.729V175.75H171.729V174.25H173.229V184.75H176.229V186.25H168.729V184.75H171.729V177.25ZM179.235 174.25H186.735V175.75H180.735V178.75H185.235V180.25H179.235V174.25ZM185.235 180.25H186.735V184.75H185.235V180.25ZM185.235 184.75V186.25H180.735V184.75H185.235ZM180.735 184.75H179.235V183.25H180.735V184.75ZM192.741 183.25H194.241V186.25H192.741V183.25ZM191.241 186.25H192.741V187.75H191.241V186.25ZM210.753 183.25H212.253V184.75H218.253V186.25H210.753V183.25ZM216.753 175.75H212.253V174.25H216.753V175.75ZM216.753 175.75H218.253V178.75H216.753V175.75ZM212.253 181.75H213.753V183.25H212.253V181.75ZM210.753 175.75H212.253V177.25H210.753V175.75ZM215.253 178.75H216.753V180.25H215.253V178.75ZM213.753 180.25H215.253V181.75H213.753V180.25ZM221.259 175.75H222.759V180.25H224.259V181.75H222.759V184.75H221.259V175.75ZM222.759 184.75H227.259V186.25H222.759V184.75ZM222.759 174.25H227.259V175.75H222.759V174.25ZM227.259 175.75H228.759V184.75H227.259V178.75H225.759V177.25H227.259V175.75ZM224.259 178.75H225.759V180.25H224.259V178.75ZM236.265 174.25H239.265V186.25H237.765V183.25H231.765V178.75H233.265V181.75H237.765V175.75H236.265V174.25ZM234.765 175.75H236.265V177.25H234.765V175.75ZM233.265 177.25H234.765V178.75H233.265V177.25ZM248.271 184.75V186.25H243.771V184.75H248.271ZM243.771 184.75H242.271V183.25H243.771V184.75ZM248.271 180.25V175.75H249.771V184.75H248.271V181.75H243.771V180.25H248.271ZM243.771 180.25H242.271V175.75H243.771V180.25ZM243.771 174.25H248.271V175.75H243.771V174.25ZM266.282 177.25H263.282V175.75H266.282V174.25H267.782V184.75H270.782V186.25H263.282V184.75H266.282V177.25ZM273.788 175.75H275.288V180.25H276.788V181.75H275.288V184.75H273.788V175.75ZM275.288 184.75H279.788V186.25H275.288V184.75ZM275.288 174.25H279.788V175.75H275.288V174.25ZM279.788 175.75H281.288V184.75H279.788V178.75H278.288V177.25H279.788V175.75ZM276.788 178.75H278.288V180.25H276.788V178.75ZM287.294 183.25H288.794V186.25H287.294V183.25ZM287.294 177.25H288.794V180.25H287.294V177.25ZM294.8 183.25H296.3V184.75H302.3V186.25H294.8V183.25ZM300.8 175.75H296.3V174.25H300.8V175.75ZM300.8 175.75H302.3V178.75H300.8V175.75ZM296.3 181.75H297.8V183.25H296.3V181.75ZM294.8 175.75H296.3V177.25H294.8V175.75ZM299.3 178.75H300.8V180.25H299.3V178.75ZM297.8 180.25H299.3V181.75H297.8V180.25ZM311.306 184.75V186.25H306.806V184.75H311.306ZM306.806 184.75H305.306V183.25H306.806V184.75ZM311.306 180.25V175.75H312.806V184.75H311.306V181.75H306.806V180.25H311.306ZM306.806 180.25H305.306V175.75H306.806V180.25ZM306.806 174.25H311.306V175.75H306.806V174.25ZM326.317 177.25H327.817V180.25H332.317V177.25H333.817V186.25H332.317V181.75H327.817V186.25H326.317V177.25ZM329.317 174.25H330.817V175.75H329.317V174.25ZM327.817 175.75H329.317V177.25H327.817V175.75ZM330.817 175.75H332.317V177.25H330.817V175.75ZM336.823 174.25H338.323V177.25H339.823V178.75H338.323V186.25H336.823V174.25ZM342.823 178.75H341.323V177.25H342.823V174.25H344.323V186.25H342.823V178.75ZM339.823 178.75H341.323V181.75H339.823V178.75Z" fill="#333333"/>
<path d="M131.959 50.25H137.959V51.75H133.459V60.75H137.959V62.25H131.959V50.25ZM137.959 51.75H139.459V60.75H137.959V51.75ZM143.965 53.25H148.465V54.75H143.965V53.25ZM148.465 54.75H149.965V60.75H148.465V54.75ZM142.465 54.75H143.965V60.75H142.465V54.75ZM143.965 60.75H148.465V62.25H143.965V60.75ZM152.971 53.25H154.471V60.75H152.971V53.25ZM154.471 60.75H157.471V62.25H154.471V60.75ZM158.971 53.25H160.471V62.25H158.971V60.75H157.471V59.25H158.971V53.25ZM163.477 50.25H164.977V54.75H166.477V56.25H164.977V59.25H166.477V60.75H164.977V62.25H163.477V50.25ZM166.477 60.75H169.477V62.25H166.477V60.75ZM169.477 54.75H170.977V60.75H169.477V54.75ZM166.477 53.25H169.477V54.75H166.477V53.25ZM176.982 51.75H173.982V50.25H178.482V60.75H181.482V62.25H173.982V60.75H176.982V51.75ZM185.988 53.25H190.488V54.75H185.988V53.25ZM184.488 54.75H185.988V56.25H190.488V54.75H191.988V57.75H185.988V60.75H184.488V54.75ZM185.988 60.75H190.488V62.25H185.988V60.75ZM190.488 59.25H191.988V60.75H190.488V59.25ZM205.5 50.25H211.5V51.75H207V56.25H211.5V59.25H210V57.75H207V62.25H205.5V50.25ZM211.5 51.75H213V56.25H211.5V51.75ZM211.5 59.25H213V62.25H211.5V59.25ZM226.512 50.25H232.512V51.75H228.012V60.75H232.512V62.25H226.512V50.25ZM232.512 51.75H234.012V60.75H232.512V51.75ZM240.018 50.25H241.518V51.75H240.018V50.25ZM240.018 54.75H237.018V53.25H241.518V60.75H244.518V62.25H237.018V60.75H240.018V54.75ZM247.523 53.25H249.023V54.75H250.523V56.25H249.023V62.25H247.523V53.25ZM250.523 53.25H253.523V54.75H250.523V53.25ZM253.523 54.75H255.023V62.25H253.523V54.75ZM259.529 53.25H264.029V54.75H259.529V53.25ZM258.029 54.75H259.529V56.25H264.029V54.75H265.529V57.75H259.529V60.75H258.029V54.75ZM259.529 60.75H264.029V62.25H259.529V60.75ZM264.029 59.25H265.529V60.75H264.029V59.25ZM271.535 53.25V54.75H273.035V56.25H271.535V60.75H274.535V62.25H268.535V60.75H270.035V54.75H268.535V53.25H271.535ZM276.035 53.25V54.75H273.035V53.25H276.035Z" fill="#333333"/>
</g>
</svg>
