<svg width="440" height="546" viewBox="0 0 440 546" fill="none" xmlns="http://www.w3.org/2000/svg">
<path fill-rule="evenodd" clip-rule="evenodd" d="M440 0H0V492L57 495.5L118 512L159.5 525.5H192H238.5L271.5 535.5H361.5L419.5 544.5L440 545.5V0Z" fill="white"/>
<path d="M126.947 49H132.947V50.5H128.447V59.5H132.947V61H126.947V49ZM132.947 50.5H134.447V59.5H132.947V50.5ZM138.953 52H143.453V53.5H138.953V52ZM143.453 53.5H144.953V59.5H143.453V53.5ZM137.453 53.5H138.953V59.5H137.453V53.5ZM138.953 59.5H143.453V61H138.953V59.5ZM147.959 52H149.459V59.5H147.959V52ZM149.459 59.5H152.459V61H149.459V59.5ZM153.959 52H155.459V61H153.959V59.5H152.459V58H153.959V52ZM158.465 49H159.965V53.5H161.465V55H159.965V58H161.465V59.5H159.965V61H158.465V49ZM161.465 59.5H164.465V61H161.465V59.5ZM164.465 53.5H165.965V59.5H164.465V53.5ZM161.465 52H164.465V53.5H161.465V52ZM171.971 50.5H170.471V49H173.471V59.5H176.471V61H168.971V59.5H171.971V50.5ZM180.977 52H185.477V53.5H180.977V52ZM179.477 53.5H180.977V55H185.477V53.5H186.977V56.5H180.977V59.5H179.477V53.5ZM180.977 59.5H185.477V61H180.977V59.5ZM185.477 58H186.977V59.5H185.477V58ZM200.488 49H206.488V50.5H201.988V55H206.488V58H204.988V56.5H201.988V61H200.488V49ZM206.488 50.5H207.988V55H206.488V50.5ZM206.488 58H207.988V61H206.488V58ZM221.5 49H227.5V50.5H223V59.5H227.5V61H221.5V49ZM227.5 50.5H229V59.5H227.5V50.5ZM235.006 49H236.506V50.5H235.006V49ZM235.006 53.5H233.506V52H236.506V59.5H239.506V61H232.006V59.5H235.006V53.5ZM242.512 52H244.012V53.5H245.512V55H244.012V61H242.512V52ZM245.512 52H248.512V53.5H245.512V52ZM248.512 53.5H250.012V61H248.512V53.5ZM254.518 52H259.018V53.5H254.518V52ZM253.018 53.5H254.518V55H259.018V53.5H260.518V56.5H254.518V59.5H253.018V53.5ZM254.518 59.5H259.018V61H254.518V59.5ZM259.018 58H260.518V59.5H259.018V58ZM263.523 52H265.023V53.5H266.523V55H265.023V61H263.523V52ZM269.523 52V53.5H266.523V52H269.523ZM269.523 53.5H271.023V55H269.523V53.5ZM284.535 49H286.035V59.5H292.035V61H284.535V49ZM295.041 52H296.541V55H301.041V52H302.541V61H301.041V56.5H296.541V61H295.041V52ZM298.041 49H299.541V50.5H298.041V49ZM296.541 50.5H298.041V52H296.541V50.5ZM299.541 50.5H301.041V52H299.541V50.5ZM311.547 56.5H313.047V61H311.547V56.5ZM305.547 56.5H307.047V61H305.547V56.5ZM308.547 53.5H307.047V52H308.547V53.5ZM308.547 53.5H310.047V55H308.547V53.5ZM310.047 52H311.547V53.5H310.047V52ZM307.047 52H305.547V49H307.047V52ZM307.047 55H308.547V56.5H307.047V55ZM311.547 49H313.047V52H311.547V49ZM310.047 55H311.547V56.5H310.047V55ZM168.971 74H176.471V75.5H173.471V86H171.971V75.5H168.971V74ZM180.977 77H185.477V78.5H180.977V77ZM179.477 78.5H180.977V80H185.477V78.5H186.977V81.5H180.977V84.5H179.477V78.5ZM180.977 84.5H185.477V86H180.977V84.5ZM185.477 83H186.977V84.5H185.477V83ZM189.982 77H191.482V78.5H192.982V80H191.482V86H189.982V77ZM195.982 77V78.5H192.982V77H195.982ZM195.982 78.5H197.482V80H195.982V78.5ZM200.488 77H203.488V78.5H201.988V86H200.488V77ZM203.488 78.5H204.988V86H203.488V78.5ZM206.488 78.5H204.988V77H206.488V78.5ZM206.488 78.5H207.988V86H206.488V78.5ZM213.994 74H215.494V75.5H213.994V74ZM213.994 78.5H212.494V77H215.494V84.5H218.494V86H210.994V84.5H213.994V78.5ZM221.5 77H223V78.5H224.5V80H223V86H221.5V77ZM224.5 77H227.5V78.5H224.5V77ZM227.5 78.5H229V86H227.5V78.5ZM232.006 81.5H233.506V84.5H232.006V81.5ZM233.506 84.5H236.506V86H233.506V84.5ZM236.506 83H238.006V81.5H233.506V80H238.006V78.5H239.506V86H238.006V84.5H236.506V83ZM233.506 77H238.006V78.5H233.506V77ZM245.512 75.5H244.012V74H247.012V84.5H250.012V86H242.512V84.5H245.512V75.5ZM269.523 84.5V86H265.023V84.5H269.523ZM265.023 84.5H263.523V83H265.023V84.5ZM269.523 80V75.5H271.023V84.5H269.523V81.5H265.023V80H269.523ZM265.023 80H263.523V75.5H265.023V80ZM265.023 74H269.523V75.5H265.023V74ZM111.188 99H112.688V109.5H118.688V111H111.188V99ZM123.194 102H127.694V103.5H123.194V102ZM127.694 103.5H129.194V109.5H127.694V103.5ZM121.694 103.5H123.194V109.5H121.694V103.5ZM123.194 109.5H127.694V111H123.194V109.5ZM138.2 109.5V111H133.7V109.5H138.2ZM133.7 109.5H132.2V108H133.7V109.5ZM138.2 102V103.5H133.7V102H138.2ZM132.2 103.5H133.7V105H132.2V103.5ZM133.7 105H138.2V106.5H133.7V105ZM138.2 106.5H139.7V109.5H138.2V106.5ZM153.212 102H154.712V105H159.212V102H160.712V111H159.212V106.5H154.712V111H153.212V102ZM156.212 99H157.712V100.5H156.212V99ZM154.712 100.5H156.212V102H154.712V100.5ZM157.712 100.5H159.212V102H157.712V100.5ZM163.718 102H165.218V103.5H166.718V105H165.218V111H163.718V102ZM166.718 102H169.718V103.5H166.718V102ZM169.718 103.5H171.218V111H169.718V103.5ZM175.724 102H178.724V103.5H175.724V102ZM174.224 103.5H175.724V109.5H174.224V103.5ZM175.724 109.5H178.724V111H175.724V109.5ZM175.724 112.5H180.224V114H175.724V112.5ZM178.724 108H180.224V105H178.724V103.5H180.224V102H181.724V112.5H180.224V109.5H178.724V108ZM186.229 102H190.729V103.5H186.229V102ZM184.729 103.5H186.229V105H190.729V103.5H192.229V106.5H186.229V109.5H184.729V103.5ZM186.229 109.5H190.729V111H186.229V109.5ZM190.729 108H192.229V109.5H190.729V108ZM198.235 100.5H196.735V99H199.735V109.5H202.735V111H195.235V109.5H198.235V100.5ZM207.241 102H211.741V103.5H207.241V102ZM205.741 103.5H207.241V105H211.741V103.5H213.241V106.5H207.241V109.5H205.741V103.5ZM207.241 109.5H211.741V111H207.241V109.5ZM211.741 108H213.241V109.5H211.741V108ZM222.247 109.5V111H217.747V109.5H222.247ZM217.747 109.5H216.247V108H217.747V109.5ZM222.247 102V103.5H217.747V102H222.247ZM216.247 103.5H217.747V105H216.247V103.5ZM217.747 105H222.247V106.5H217.747V105ZM222.247 106.5H223.747V109.5H222.247V106.5ZM229.753 108H231.253V111H229.753V108ZM228.253 111H229.753V112.5H228.253V111ZM247.765 100.5H249.265V109.5H247.765V100.5ZM249.265 109.5H253.765V111H249.265V109.5ZM253.765 108H255.265V109.5H253.765V108ZM249.265 99H253.765V100.5H249.265V99ZM253.765 100.5H255.265V102H253.765V100.5ZM258.271 102H259.771V105H264.271V102H265.771V111H264.271V106.5H259.771V111H258.271V102ZM261.271 99H262.771V100.5H261.271V99ZM259.771 100.5H261.271V102H259.771V100.5ZM262.771 100.5H264.271V102H262.771V100.5ZM285.282 109.5V111H280.782V109.5H285.282ZM280.782 109.5H279.282V108H280.782V109.5ZM285.282 105V100.5H286.782V109.5H285.282V106.5H280.782V105H285.282ZM280.782 105H279.282V100.5H280.782V105ZM280.782 99H285.282V100.5H280.782V99ZM289.788 100.5H291.288V105H292.788V106.5H291.288V109.5H289.788V100.5ZM291.288 109.5H295.788V111H291.288V109.5ZM291.288 99H295.788V100.5H291.288V99ZM295.788 100.5H297.288V109.5H295.788V103.5H294.288V102H295.788V100.5ZM292.788 103.5H294.288V105H292.788V103.5ZM300.294 100.5H301.794V105H303.294V106.5H301.794V109.5H300.294V100.5ZM301.794 109.5H306.294V111H301.794V109.5ZM301.794 99H306.294V100.5H301.794V99ZM306.294 100.5H307.794V109.5H306.294V103.5H304.794V102H306.294V100.5ZM303.294 103.5H304.794V105H303.294V103.5ZM315.3 100.5H316.8V99H318.3V111H316.8V108H310.8V105H312.3V106.5H316.8V102H315.3V100.5ZM313.8 102H315.3V103.5H313.8V102ZM312.3 103.5H313.8V105H312.3V103.5ZM321.306 99H328.806V100.5H322.806V103.5H327.306V105H321.306V99ZM327.306 105H328.806V109.5H327.306V105ZM327.306 109.5V111H322.806V109.5H327.306ZM322.806 109.5H321.306V108H322.806V109.5ZM163.718 124H171.218V125.5H165.218V128.5H169.718V130H163.718V124ZM169.718 130H171.218V134.5H169.718V130ZM169.718 134.5V136H165.218V134.5H169.718ZM165.218 134.5H163.718V133H165.218V134.5ZM175.724 124H180.224V125.5H175.724V124ZM174.224 125.5H175.724V128.5H180.224V130H175.724V134.5H174.224V125.5ZM180.224 130H181.724V134.5H180.224V130ZM175.724 134.5H180.224V136H175.724V134.5ZM180.224 125.5H181.724V127H180.224V125.5ZM184.729 124H192.229V125.5H186.229V128.5H190.729V130H184.729V124ZM190.729 130H192.229V134.5H190.729V130ZM190.729 134.5V136H186.229V134.5H190.729ZM186.229 134.5H184.729V133H186.229V134.5ZM202.735 130V131.5H195.235V130H202.735ZM208.741 127H205.741V125.5H208.741V124H210.241V134.5H213.241V136H205.741V134.5H208.741V127ZM217.747 124H222.247V125.5H217.747V124ZM216.247 125.5H217.747V128.5H222.247V130H217.747V134.5H216.247V125.5ZM222.247 130H223.747V134.5H222.247V130ZM217.747 134.5H222.247V136H217.747V134.5ZM222.247 125.5H223.747V127H222.247V125.5ZM226.753 133H228.253V134.5H234.253V136H226.753V133ZM232.753 125.5H228.253V124H232.753V125.5ZM232.753 125.5H234.253V128.5H232.753V125.5ZM228.253 131.5H229.753V133H228.253V131.5ZM226.753 125.5H228.253V127H226.753V125.5ZM231.253 128.5H232.753V130H231.253V128.5ZM229.753 130H231.253V131.5H229.753V130ZM237.259 125.5H238.759V128.5H237.259V125.5ZM243.259 125.5H238.759V124H243.259V125.5ZM243.259 125.5H244.759V128.5H243.259V125.5ZM238.759 128.5H243.259V130H238.759V128.5ZM243.259 130H244.759V134.5H243.259V130ZM237.259 130H238.759V134.5H237.259V130ZM243.259 134.5V136H238.759V134.5H243.259ZM247.765 125.5H249.265V130H250.765V131.5H249.265V134.5H247.765V125.5ZM249.265 134.5H253.765V136H249.265V134.5ZM249.265 124H253.765V125.5H249.265V124ZM253.765 125.5H255.265V134.5H253.765V128.5H252.265V127H253.765V125.5ZM250.765 128.5H252.265V130H250.765V128.5ZM264.271 134.5V136H259.771V134.5H264.271ZM259.771 134.5H258.271V133H259.771V134.5ZM264.271 130V125.5H265.771V134.5H264.271V131.5H259.771V130H264.271ZM259.771 130H258.271V125.5H259.771V130ZM259.771 124H264.271V125.5H259.771V124ZM268.776 124H276.276V125.5H270.276V128.5H274.776V130H268.776V124ZM274.776 130H276.276V134.5H274.776V130ZM274.776 134.5V136H270.276V134.5H274.776ZM270.276 134.5H268.776V133H270.276V134.5ZM79.6709 174H87.1709V175.5H84.1709V186H82.6709V175.5H79.6709V174ZM90.1768 174H91.6768V178.5H93.1768V180H91.6768V186H90.1768V174ZM96.1768 178.5H97.6768V186H96.1768V178.5ZM93.1768 177H96.1768V178.5H93.1768V177ZM100.683 177H102.183V184.5H100.683V177ZM102.183 184.5H105.183V186H102.183V184.5ZM106.683 177H108.183V186H106.683V184.5H105.183V183H106.683V177ZM121.694 177H123.194V180H127.694V177H129.194V186H127.694V181.5H123.194V186H121.694V177ZM124.694 174H126.194V175.5H124.694V174ZM123.194 175.5H124.694V177H123.194V175.5ZM126.194 175.5H127.694V177H126.194V175.5ZM132.2 177H133.7V178.5H135.2V180H133.7V183H135.2V184.5H133.7V189H132.2V177ZM135.2 177H138.2V178.5H135.2V177ZM138.2 178.5H139.7V184.5H138.2V178.5ZM135.2 184.5H138.2V186H135.2V184.5ZM142.706 177H144.206V178.5H145.706V180H144.206V186H142.706V177ZM148.706 177V178.5H145.706V177H148.706ZM148.706 178.5H150.206V180H148.706V178.5ZM156.212 174H157.712V175.5H156.212V174ZM156.212 178.5H154.712V177H157.712V184.5H160.712V186H153.212V184.5H156.212V178.5ZM166.718 175.5H165.218V174H168.218V184.5H171.218V186H163.718V184.5H166.718V175.5ZM187.729 177H184.729V175.5H187.729V174H189.229V184.5H192.229V186H184.729V184.5H187.729V177ZM195.235 174H202.735V175.5H196.735V178.5H201.235V180H195.235V174ZM201.235 180H202.735V184.5H201.235V180ZM201.235 184.5V186H196.735V184.5H201.235ZM196.735 184.5H195.235V183H196.735V184.5ZM208.741 183H210.241V186H208.741V183ZM207.241 186H208.741V187.5H207.241V186ZM226.753 183H228.253V184.5H234.253V186H226.753V183ZM232.753 175.5H228.253V174H232.753V175.5ZM232.753 175.5H234.253V178.5H232.753V175.5ZM228.253 181.5H229.753V183H228.253V181.5ZM226.753 175.5H228.253V177H226.753V175.5ZM231.253 178.5H232.753V180H231.253V178.5ZM229.753 180H231.253V181.5H229.753V180ZM237.259 175.5H238.759V180H240.259V181.5H238.759V184.5H237.259V175.5ZM238.759 184.5H243.259V186H238.759V184.5ZM238.759 174H243.259V175.5H238.759V174ZM243.259 175.5H244.759V184.5H243.259V178.5H241.759V177H243.259V175.5ZM240.259 178.5H241.759V180H240.259V178.5ZM252.265 175.5H253.765V174H255.265V186H253.765V183H247.765V180H249.265V181.5H253.765V177H252.265V175.5ZM250.765 177H252.265V178.5H250.765V177ZM249.265 178.5H250.765V180H249.265V178.5ZM264.271 184.5V186H259.771V184.5H264.271ZM259.771 184.5H258.271V183H259.771V184.5ZM264.271 180V175.5H265.771V184.5H264.271V181.5H259.771V180H264.271ZM259.771 180H258.271V175.5H259.771V180ZM259.771 174H264.271V175.5H259.771V174ZM282.282 177H279.282V175.5H282.282V174H283.782V184.5H286.782V186H279.282V184.5H282.282V177ZM289.788 175.5H291.288V180H292.788V181.5H291.288V184.5H289.788V175.5ZM291.288 184.5H295.788V186H291.288V184.5ZM291.288 174H295.788V175.5H291.288V174ZM295.788 175.5H297.288V184.5H295.788V178.5H294.288V177H295.788V175.5ZM292.788 178.5H294.288V180H292.788V178.5ZM303.294 183H304.794V186H303.294V183ZM303.294 177H304.794V180H303.294V177ZM310.8 183H312.3V184.5H318.3V186H310.8V183ZM316.8 175.5H312.3V174H316.8V175.5ZM316.8 175.5H318.3V178.5H316.8V175.5ZM312.3 181.5H313.8V183H312.3V181.5ZM310.8 175.5H312.3V177H310.8V175.5ZM315.3 178.5H316.8V180H315.3V178.5ZM313.8 180H315.3V181.5H313.8V180ZM327.306 184.5V186H322.806V184.5H327.306ZM322.806 184.5H321.306V183H322.806V184.5ZM327.306 180V175.5H328.806V184.5H327.306V181.5H322.806V180H327.306ZM322.806 180H321.306V175.5H322.806V180ZM322.806 174H327.306V175.5H322.806V174ZM342.317 181.5H343.817V184.5H342.317V181.5ZM343.817 184.5H346.817V186H343.817V184.5ZM346.817 183H348.317V181.5H343.817V180H348.317V178.5H349.817V186H348.317V184.5H346.817V183ZM343.817 177H348.317V178.5H343.817V177ZM352.823 177H355.823V178.5H354.323V186H352.823V177ZM355.823 178.5H357.323V186H355.823V178.5ZM358.823 178.5H357.323V177H358.823V178.5ZM358.823 178.5H360.323V186H358.823V178.5ZM147.959 199H149.459V202H150.959V203.5H149.459V211H147.959V199ZM153.959 203.5H152.459V202H153.959V199H155.459V211H153.959V203.5ZM150.959 203.5H152.459V206.5H150.959V203.5ZM158.465 202H159.965V205H164.465V202H165.965V211H164.465V206.5H159.965V211H158.465V202ZM161.465 199H162.965V200.5H161.465V199ZM159.965 200.5H161.465V202H159.965V200.5ZM162.965 200.5H164.465V202H162.965V200.5ZM168.971 200.5H170.471V209.5H168.971V200.5ZM170.471 209.5H174.971V211H170.471V209.5ZM174.971 206.5H173.471V205H176.471V209.5H174.971V206.5ZM170.471 199H174.971V200.5H170.471V199ZM174.971 200.5H176.471V202H174.971V200.5ZM179.477 199H186.977V200.5H183.977V211H182.477V200.5H179.477V199ZM189.982 199H197.482V200.5H191.482V203.5H195.982V205H191.482V209.5H197.482V211H189.982V199ZM200.488 199H201.988V203.5H203.488V202H204.988V205H201.988V211H200.488V199ZM206.488 199H207.988V200.5H206.488V199ZM204.988 200.5H206.488V202H204.988V200.5ZM206.488 208H204.988V205H206.488V208ZM206.488 208H207.988V211H206.488V208ZM221.5 199H229V200.5H223V203.5H227.5V205H223V209.5H229V211H221.5V199ZM232.006 199H238.006V200.5H233.506V209.5H238.006V211H232.006V199ZM238.006 200.5H239.506V209.5H238.006V200.5ZM242.512 199H244.012V203.5H242.512V199ZM248.512 199H250.012V203.5H248.512V199ZM245.512 205H247.012V211H245.512V205ZM244.012 203.5H245.512V205H244.012V203.5ZM247.012 203.5H248.512V205H247.012V203.5ZM253.018 199H254.518V202H256.018V203.5H254.518V211H253.018V199ZM259.018 206.5H257.518V205H259.018V199H260.518V211H259.018V206.5ZM257.518 205H256.018V203.5H257.518V205ZM263.523 202H265.023V205H269.523V202H271.023V211H269.523V206.5H265.023V211H263.523V202ZM266.523 199H268.023V200.5H266.523V199ZM265.023 200.5H266.523V202H265.023V200.5ZM268.023 200.5H269.523V202H268.023V200.5ZM274.029 199H275.529V202H277.029V203.5H275.529V211H274.029V199ZM280.029 203.5H278.529V202H280.029V199H281.529V211H280.029V203.5ZM277.029 203.5H278.529V206.5H277.029V203.5ZM284.535 200.5H286.035V209.5H284.535V200.5ZM286.035 209.5H290.535V211H286.035V209.5ZM290.535 200.5H292.035V209.5H290.535V200.5ZM286.035 199H290.535V200.5H286.035V199Z" fill="#333333"/>
<path d="M126.947 48H132.947V49.5H128.447V58.5H132.947V60H126.947V48ZM132.947 49.5H134.447V58.5H132.947V49.5ZM138.953 51H143.453V52.5H138.953V51ZM143.453 52.5H144.953V58.5H143.453V52.5ZM137.453 52.5H138.953V58.5H137.453V52.5ZM138.953 58.5H143.453V60H138.953V58.5ZM147.959 51H149.459V58.5H147.959V51ZM149.459 58.5H152.459V60H149.459V58.5ZM153.959 51H155.459V60H153.959V58.5H152.459V57H153.959V51ZM158.465 48H159.965V52.5H161.465V54H159.965V57H161.465V58.5H159.965V60H158.465V48ZM161.465 58.5H164.465V60H161.465V58.5ZM164.465 52.5H165.965V58.5H164.465V52.5ZM161.465 51H164.465V52.5H161.465V51ZM171.971 49.5H170.471V48H173.471V58.5H176.471V60H168.971V58.5H171.971V49.5ZM180.977 51H185.477V52.5H180.977V51ZM179.477 52.5H180.977V54H185.477V52.5H186.977V55.5H180.977V58.5H179.477V52.5ZM180.977 58.5H185.477V60H180.977V58.5ZM185.477 57H186.977V58.5H185.477V57ZM200.488 48H206.488V49.5H201.988V54H206.488V57H204.988V55.5H201.988V60H200.488V48ZM206.488 49.5H207.988V54H206.488V49.5ZM206.488 57H207.988V60H206.488V57ZM221.5 48H227.5V49.5H223V58.5H227.5V60H221.5V48ZM227.5 49.5H229V58.5H227.5V49.5ZM235.006 48H236.506V49.5H235.006V48ZM235.006 52.5H233.506V51H236.506V58.5H239.506V60H232.006V58.5H235.006V52.5ZM242.512 51H244.012V52.5H245.512V54H244.012V60H242.512V51ZM245.512 51H248.512V52.5H245.512V51ZM248.512 52.5H250.012V60H248.512V52.5ZM254.518 51H259.018V52.5H254.518V51ZM253.018 52.5H254.518V54H259.018V52.5H260.518V55.5H254.518V58.5H253.018V52.5ZM254.518 58.5H259.018V60H254.518V58.5ZM259.018 57H260.518V58.5H259.018V57ZM263.523 51H265.023V52.5H266.523V54H265.023V60H263.523V51ZM269.523 51V52.5H266.523V51H269.523ZM269.523 52.5H271.023V54H269.523V52.5ZM284.535 48H286.035V58.5H292.035V60H284.535V48ZM295.041 51H296.541V54H301.041V51H302.541V60H301.041V55.5H296.541V60H295.041V51ZM298.041 48H299.541V49.5H298.041V48ZM296.541 49.5H298.041V51H296.541V49.5ZM299.541 49.5H301.041V51H299.541V49.5ZM311.547 55.5H313.047V60H311.547V55.5ZM305.547 55.5H307.047V60H305.547V55.5ZM308.547 52.5H307.047V51H308.547V52.5ZM308.547 52.5H310.047V54H308.547V52.5ZM310.047 51H311.547V52.5H310.047V51ZM307.047 51H305.547V48H307.047V51ZM307.047 54H308.547V55.5H307.047V54ZM311.547 48H313.047V51H311.547V48ZM310.047 54H311.547V55.5H310.047V54Z" fill="#333333"/>
<path d="M23.5 274H25V277H26.5V278.5H25V286H23.5V274ZM29.5 278.5H28V277H29.5V274H31V286H29.5V278.5ZM26.5 278.5H28V281.5H26.5V278.5ZM35.5059 277H40.0059V278.5H35.5059V277ZM34.0059 278.5H35.5059V280H40.0059V278.5H41.5059V281.5H35.5059V284.5H34.0059V278.5ZM35.5059 284.5H40.0059V286H35.5059V284.5ZM40.0059 283H41.5059V284.5H40.0059V283ZM44.5117 277H46.0117V278.5H47.5117V280H46.0117V286H44.5117V277ZM50.5117 277V278.5H47.5117V277H50.5117ZM50.5117 278.5H52.0117V280H50.5117V278.5ZM56.5176 277H61.0176V278.5H56.5176V277ZM55.0176 278.5H56.5176V284.5H55.0176V278.5ZM56.5176 284.5H61.0176V286H56.5176V284.5ZM61.0176 278.5H62.5176V280H61.0176V278.5ZM61.0176 283H62.5176V284.5H61.0176V283ZM65.5234 274H67.0234V278.5H68.5234V280H67.0234V286H65.5234V274ZM71.5234 278.5H73.0234V286H71.5234V278.5ZM68.5234 277H71.5234V278.5H68.5234V277ZM76.0293 281.5H77.5293V284.5H76.0293V281.5ZM77.5293 284.5H80.5293V286H77.5293V284.5ZM80.5293 283H82.0293V281.5H77.5293V280H82.0293V278.5H83.5293V286H82.0293V284.5H80.5293V283ZM77.5293 277H82.0293V278.5H77.5293V277ZM86.5352 277H88.0352V278.5H89.5352V280H88.0352V286H86.5352V277ZM89.5352 277H92.5352V278.5H89.5352V277ZM92.5352 278.5H94.0352V286H92.5352V278.5ZM98.541 274H100.041V277H103.041V278.5H100.041V284.5H98.541V278.5H97.041V277H98.541V274ZM100.041 284.5H103.041V286H100.041V284.5ZM103.041 283H104.541V284.5H103.041V283ZM121.053 284.5V275.5H118.053V274H125.553V275.5H122.553V284.5H125.553V286H118.053V284.5H121.053ZM128.559 274H134.559V275.5H130.059V284.5H134.559V286H128.559V274ZM134.559 275.5H136.059V284.5H134.559V275.5ZM142.064 283H143.564V286H142.064V283ZM142.064 277H143.564V280H142.064V277ZM23.5 299H31V300.5H28V311H26.5V300.5H23.5V299ZM35.5059 302H40.0059V303.5H35.5059V302ZM34.0059 303.5H35.5059V305H40.0059V303.5H41.5059V306.5H35.5059V309.5H34.0059V303.5ZM35.5059 309.5H40.0059V311H35.5059V309.5ZM40.0059 308H41.5059V309.5H40.0059V308ZM44.5117 302H46.0117V303.5H47.5117V305H46.0117V311H44.5117V302ZM50.5117 302V303.5H47.5117V302H50.5117ZM50.5117 303.5H52.0117V305H50.5117V303.5ZM55.0176 302H58.0176V303.5H56.5176V311H55.0176V302ZM58.0176 303.5H59.5176V311H58.0176V303.5ZM61.0176 303.5H59.5176V302H61.0176V303.5ZM61.0176 303.5H62.5176V311H61.0176V303.5ZM68.5234 299H70.0234V300.5H68.5234V299ZM68.5234 303.5H67.0234V302H70.0234V309.5H73.0234V311H65.5234V309.5H68.5234V303.5ZM76.0293 302H77.5293V303.5H79.0293V305H77.5293V311H76.0293V302ZM79.0293 302H82.0293V303.5H79.0293V302ZM82.0293 303.5H83.5293V311H82.0293V303.5ZM86.5352 306.5H88.0352V309.5H86.5352V306.5ZM88.0352 309.5H91.0352V311H88.0352V309.5ZM91.0352 308H92.5352V306.5H88.0352V305H92.5352V303.5H94.0352V311H92.5352V309.5H91.0352V308ZM88.0352 302H92.5352V303.5H88.0352V302ZM100.041 300.5H98.541V299H101.541V309.5H104.541V311H97.041V309.5H100.041V300.5ZM121.053 309.5V300.5H118.053V299H125.553V300.5H122.553V309.5H125.553V311H118.053V309.5H121.053ZM128.559 299H134.559V300.5H130.059V309.5H134.559V311H128.559V299ZM134.559 300.5H136.059V309.5H134.559V300.5ZM142.064 308H143.564V311H142.064V308ZM142.064 302H143.564V305H142.064V302ZM23.5 349H31V350.5H28V361H26.5V350.5H23.5V349ZM34.0059 352H35.5059V353.5H37.0059V355H35.5059V361H34.0059V352ZM40.0059 352V353.5H37.0059V352H40.0059ZM40.0059 353.5H41.5059V355H40.0059V353.5ZM44.5117 356.5H46.0117V359.5H44.5117V356.5ZM46.0117 359.5H49.0117V361H46.0117V359.5ZM49.0117 358H50.5117V356.5H46.0117V355H50.5117V353.5H52.0117V361H50.5117V359.5H49.0117V358ZM46.0117 352H50.5117V353.5H46.0117V352ZM55.0176 352H56.5176V353.5H58.0176V355H56.5176V361H55.0176V352ZM58.0176 352H61.0176V353.5H58.0176V352ZM61.0176 353.5H62.5176V361H61.0176V353.5ZM71.5234 359.5V361H67.0234V359.5H71.5234ZM67.0234 359.5H65.5234V358H67.0234V359.5ZM71.5234 352V353.5H67.0234V352H71.5234ZM65.5234 353.5H67.0234V355H65.5234V353.5ZM67.0234 355H71.5234V356.5H67.0234V355ZM71.5234 356.5H73.0234V359.5H71.5234V356.5ZM76.0293 356.5H77.5293V359.5H76.0293V356.5ZM77.5293 359.5H80.5293V361H77.5293V359.5ZM80.5293 358H82.0293V356.5H77.5293V355H82.0293V353.5H83.5293V361H82.0293V359.5H80.5293V358ZM77.5293 352H82.0293V353.5H77.5293V352ZM88.0352 352H92.5352V353.5H88.0352V352ZM86.5352 353.5H88.0352V359.5H86.5352V353.5ZM88.0352 359.5H92.5352V361H88.0352V359.5ZM92.5352 353.5H94.0352V355H92.5352V353.5ZM92.5352 358H94.0352V359.5H92.5352V358ZM98.541 349H100.041V352H103.041V353.5H100.041V359.5H98.541V353.5H97.041V352H98.541V349ZM100.041 359.5H103.041V361H100.041V359.5ZM103.041 358H104.541V359.5H103.041V358ZM110.547 349H112.047V350.5H110.547V349ZM110.547 353.5H109.047V352H112.047V359.5H115.047V361H107.547V359.5H110.547V353.5ZM119.553 352H124.053V353.5H119.553V352ZM124.053 353.5H125.553V359.5H124.053V353.5ZM118.053 353.5H119.553V359.5H118.053V353.5ZM119.553 359.5H124.053V361H119.553V359.5ZM128.559 352H130.059V353.5H131.559V355H130.059V361H128.559V352ZM131.559 352H134.559V353.5H131.559V352ZM134.559 353.5H136.059V361H134.559V353.5ZM152.57 359.5V350.5H149.57V349H157.07V350.5H154.07V359.5H157.07V361H149.57V359.5H152.57ZM160.076 349H166.076V350.5H161.576V359.5H166.076V361H160.076V349ZM166.076 350.5H167.576V359.5H166.076V350.5ZM173.582 358H175.082V361H173.582V358ZM173.582 352H175.082V355H173.582V352ZM23.5 374H31V375.5H28V386H26.5V375.5H23.5V374ZM34.0059 377H35.5059V381.5H34.0059V377ZM40.0059 377H41.5059V381.5H40.0059V377ZM37.0059 384.5H38.5059V387.5H37.0059V384.5ZM37.0059 387.5V389H34.0059V387.5H37.0059ZM38.5059 381.5H40.0059V384.5H38.5059V381.5ZM35.5059 381.5H37.0059V384.5H35.5059V381.5ZM44.5117 377H46.0117V378.5H47.5117V380H46.0117V383H47.5117V384.5H46.0117V389H44.5117V377ZM47.5117 377H50.5117V378.5H47.5117V377ZM50.5117 378.5H52.0117V384.5H50.5117V378.5ZM47.5117 384.5H50.5117V386H47.5117V384.5ZM56.5176 377H61.0176V378.5H56.5176V377ZM55.0176 378.5H56.5176V380H61.0176V378.5H62.5176V381.5H56.5176V384.5H55.0176V378.5ZM56.5176 384.5H61.0176V386H56.5176V384.5ZM61.0176 383H62.5176V384.5H61.0176V383ZM68.5234 383H70.0234V386H68.5234V383ZM68.5234 377H70.0234V380H68.5234V377ZM23.5 425.5H25V434.5H23.5V425.5ZM25 434.5H29.5V436H25V434.5ZM29.5 433H31V434.5H29.5V433ZM25 424H29.5V425.5H25V424ZM29.5 425.5H31V427H29.5V425.5ZM34.0059 424H35.5059V428.5H37.0059V430H35.5059V436H34.0059V424ZM40.0059 428.5H41.5059V436H40.0059V428.5ZM37.0059 427H40.0059V428.5H37.0059V427ZM46.0117 427H50.5117V428.5H46.0117V427ZM44.5117 428.5H46.0117V430H50.5117V428.5H52.0117V431.5H46.0117V434.5H44.5117V428.5ZM46.0117 434.5H50.5117V436H46.0117V434.5ZM50.5117 433H52.0117V434.5H50.5117V433ZM55.0176 427H56.5176V428.5H58.0176V430H56.5176V436H55.0176V427ZM61.0176 427V428.5H58.0176V427H61.0176ZM61.0176 428.5H62.5176V430H61.0176V428.5ZM65.5234 427H67.0234V428.5H68.5234V430H67.0234V436H65.5234V427ZM71.5234 427V428.5H68.5234V427H71.5234ZM71.5234 428.5H73.0234V430H71.5234V428.5ZM76.0293 427H77.5293V431.5H76.0293V427ZM82.0293 427H83.5293V431.5H82.0293V427ZM79.0293 434.5H80.5293V437.5H79.0293V434.5ZM79.0293 437.5V439H76.0293V437.5H79.0293ZM80.5293 431.5H82.0293V434.5H80.5293V431.5ZM77.5293 431.5H79.0293V434.5H77.5293V431.5ZM97.041 427H98.541V428.5H100.041V430H98.541V433H100.041V434.5H98.541V439H97.041V427ZM100.041 427H103.041V428.5H100.041V427ZM103.041 428.5H104.541V434.5H103.041V428.5ZM100.041 434.5H103.041V436H100.041V434.5ZM110.547 424H112.047V425.5H110.547V424ZM110.547 428.5H109.047V427H112.047V434.5H115.047V436H107.547V434.5H110.547V428.5ZM119.553 427H124.053V428.5H119.553V427ZM118.053 428.5H119.553V430H124.053V428.5H125.553V431.5H119.553V434.5H118.053V428.5ZM119.553 434.5H124.053V436H119.553V434.5ZM124.053 433H125.553V434.5H124.053V433ZM23.5 449H29.5V450.5H25V459.5H29.5V461H23.5V449ZM29.5 450.5H31V459.5H29.5V450.5ZM34.0059 456.5H35.5059V459.5H34.0059V456.5ZM35.5059 459.5H38.5059V461H35.5059V459.5ZM38.5059 458H40.0059V456.5H35.5059V455H40.0059V453.5H41.5059V461H40.0059V459.5H38.5059V458ZM35.5059 452H40.0059V453.5H35.5059V452ZM44.5117 452H47.5117V453.5H46.0117V461H44.5117V452ZM47.5117 453.5H49.0117V461H47.5117V453.5ZM50.5117 453.5H49.0117V452H50.5117V453.5ZM50.5117 453.5H52.0117V461H50.5117V453.5ZM55.0176 452H56.5176V453.5H58.0176V455H56.5176V461H55.0176V452ZM58.0176 452H61.0176V453.5H58.0176V452ZM61.0176 453.5H62.5176V461H61.0176V453.5ZM77.5293 452H80.5293V453.5H77.5293V452ZM76.0293 453.5H77.5293V459.5H76.0293V453.5ZM77.5293 459.5H80.5293V461H77.5293V459.5ZM77.5293 462.5H82.0293V464H77.5293V462.5ZM80.5293 458H82.0293V455H80.5293V453.5H82.0293V452H83.5293V462.5H82.0293V459.5H80.5293V458ZM88.0352 452H92.5352V453.5H88.0352V452ZM92.5352 453.5H94.0352V459.5H92.5352V453.5ZM86.5352 453.5H88.0352V459.5H86.5352V453.5ZM88.0352 459.5H92.5352V461H88.0352V459.5ZM98.541 452H103.041V453.5H98.541V452ZM103.041 453.5H104.541V459.5H103.041V453.5ZM97.041 453.5H98.541V459.5H97.041V453.5ZM98.541 459.5H103.041V461H98.541V459.5ZM113.547 449H115.047V461H113.547V459.5H112.047V458H113.547V455H112.047V453.5H113.547V449ZM112.047 459.5V461H109.047V459.5H112.047ZM109.047 459.5H107.547V453.5H109.047V459.5ZM112.047 453.5H109.047V452H112.047V453.5ZM130.059 452H134.559V453.5H130.059V452ZM128.559 453.5H130.059V459.5H128.559V453.5ZM130.059 459.5H134.559V461H130.059V459.5ZM134.559 453.5H136.059V455H134.559V453.5ZM134.559 458H136.059V459.5H134.559V458ZM140.564 452H145.064V453.5H140.564V452ZM145.064 453.5H146.564V459.5H145.064V453.5ZM139.064 453.5H140.564V459.5H139.064V453.5ZM140.564 459.5H145.064V461H140.564V459.5ZM151.07 453.5H149.57V452H151.07V450.5H152.57V452H155.57V453.5H152.57V461H151.07V453.5ZM152.57 449H157.07V450.5H152.57V449ZM161.576 453.5H160.076V452H161.576V450.5H163.076V452H166.076V453.5H163.076V461H161.576V453.5ZM163.076 449H167.576V450.5H163.076V449ZM172.082 452H176.582V453.5H172.082V452ZM170.582 453.5H172.082V455H176.582V453.5H178.082V456.5H172.082V459.5H170.582V453.5ZM172.082 459.5H176.582V461H172.082V459.5ZM176.582 458H178.082V459.5H176.582V458ZM182.588 452H187.088V453.5H182.588V452ZM181.088 453.5H182.588V455H187.088V453.5H188.588V456.5H182.588V459.5H181.088V453.5ZM182.588 459.5H187.088V461H182.588V459.5ZM187.088 458H188.588V459.5H187.088V458Z" fill="#333333"/>
<path d="M320.441 284.5V286H315.941V284.5H320.441ZM315.941 284.5H314.441V283H315.941V284.5ZM320.441 280V275.5H321.941V284.5H320.441V281.5H315.941V280H320.441ZM315.941 280H314.441V275.5H315.941V280ZM315.941 274H320.441V275.5H315.941V274ZM324.947 274H326.447V278.5H330.947V274H332.447V286H330.947V280H326.447V286H324.947V274ZM335.453 275.5H336.953V284.5H335.453V275.5ZM336.953 284.5H341.453V286H342.953V287.5H339.953V286H336.953V284.5ZM341.453 275.5H342.953V284.5H341.453V275.5ZM341.453 275.5H336.953V274H341.453V275.5ZM347.459 284.5H345.959V283H347.459V284.5ZM347.459 284.5H351.959V286H347.459V284.5ZM351.959 275.5H348.959V274H353.459V284.5H351.959V275.5ZM362.465 281.5H363.965V286H362.465V281.5ZM356.465 281.5H357.965V286H356.465V281.5ZM359.465 278.5H357.965V277H359.465V278.5ZM359.465 278.5H360.965V280H359.465V278.5ZM360.965 277H362.465V278.5H360.965V277ZM357.965 277H356.465V274H357.965V277ZM357.965 280H359.465V281.5H357.965V280ZM362.465 274H363.965V277H362.465V274ZM360.965 280H362.465V281.5H360.965V280ZM369.971 284.5H368.471V281.5H369.971V284.5ZM369.971 284.5H371.471V286H369.971V284.5ZM366.971 274H368.471V281.5H366.971V274ZM372.971 274H374.471V281.5H372.971V274ZM371.471 281.5H372.971V284.5H371.471V281.5ZM377.477 274H378.977V284.5H377.477V274ZM378.977 284.5H383.477V286H378.977V284.5ZM383.477 274H384.977V284.5H383.477V274ZM387.982 274H395.482V275.5H389.482V278.5H393.982V280H389.482V286H387.982V274ZM398.488 274H404.488V275.5H399.988V284.5H404.488V286H398.488V274ZM404.488 275.5H405.988V284.5H404.488V275.5ZM408.994 274H414.994V275.5H410.494V280H414.994V283H413.494V281.5H410.494V286H408.994V274ZM414.994 275.5H416.494V280H414.994V275.5ZM414.994 283H416.494V286H414.994V283ZM369.971 302H366.971V300.5H369.971V299H371.471V309.5H374.471V311H366.971V309.5H369.971V302ZM380.477 302H377.477V300.5H380.477V299H381.977V309.5H384.977V311H377.477V309.5H380.477V302ZM390.982 302H387.982V300.5H390.982V299H392.482V309.5H395.482V311H387.982V309.5H390.982V302ZM401.488 302H398.488V300.5H401.488V299H402.988V309.5H405.988V311H398.488V309.5H401.488V302ZM411.994 302H408.994V300.5H411.994V299H413.494V309.5H416.494V311H408.994V309.5H411.994V302ZM324.947 358H323.447V356.5H326.447V353.5H324.947V352H327.947V349H329.447V352H330.947V349H332.447V352H333.947V353.5H330.947V356.5H332.447V358H329.447V361H327.947V358H326.447V361H324.947V358ZM327.947 356.5H329.447V353.5H327.947V356.5ZM335.453 349H342.953V350.5H336.953V353.5H341.453V355H336.953V359.5H342.953V361H335.453V349ZM347.459 349H351.959V350.5H347.459V349ZM345.959 350.5H347.459V353.5H351.959V355H347.459V359.5H345.959V350.5ZM351.959 355H353.459V359.5H351.959V355ZM347.459 359.5H351.959V361H347.459V359.5ZM351.959 350.5H353.459V352H351.959V350.5ZM356.465 349H362.465V350.5H357.965V359.5H362.465V361H356.465V349ZM362.465 350.5H363.965V359.5H362.465V350.5ZM366.971 349H374.471V350.5H368.471V353.5H372.971V355H366.971V349ZM372.971 355H374.471V359.5H372.971V355ZM372.971 359.5V361H368.471V359.5H372.971ZM368.471 359.5H366.971V358H368.471V359.5ZM383.477 359.5V361H378.977V359.5H383.477ZM378.977 359.5H377.477V358H378.977V359.5ZM383.477 355V350.5H384.977V359.5H383.477V356.5H378.977V355H383.477ZM378.977 355H377.477V350.5H378.977V355ZM378.977 349H383.477V350.5H378.977V349ZM387.982 350.5H389.482V353.5H387.982V350.5ZM393.982 350.5H389.482V349H393.982V350.5ZM393.982 350.5H395.482V353.5H393.982V350.5ZM389.482 353.5H393.982V355H389.482V353.5ZM393.982 355H395.482V359.5H393.982V355ZM387.982 355H389.482V359.5H387.982V355ZM393.982 359.5V361H389.482V359.5H393.982ZM398.488 349H405.988V350.5H399.988V353.5H404.488V355H399.988V359.5H405.988V361H398.488V349ZM408.994 349H416.494V350.5H410.494V353.5H414.994V355H410.494V361H408.994V349ZM356.465 375.5H357.965V384.5H356.465V375.5ZM357.965 384.5H362.465V386H357.965V384.5ZM362.465 383H363.965V384.5H362.465V383ZM357.965 374H362.465V375.5H357.965V374ZM362.465 375.5H363.965V377H362.465V375.5ZM366.971 374H372.971V375.5H368.471V380H372.971V383H371.471V381.5H368.471V386H366.971V374ZM372.971 375.5H374.471V380H372.971V375.5ZM372.971 383H374.471V386H372.971V383ZM377.477 374H384.977V375.5H378.977V378.5H383.477V380H378.977V384.5H384.977V386H377.477V374ZM387.982 374H393.982V375.5H389.482V384.5H393.982V386H387.982V374ZM393.982 375.5H395.482V384.5H393.982V375.5ZM401.488 384.5V375.5H398.488V374H405.988V375.5H402.988V384.5H405.988V386H398.488V384.5H401.488ZM408.994 374H416.494V375.5H413.494V386H411.994V375.5H408.994V374ZM356.465 425.5H357.965V428.5H356.465V425.5ZM357.965 428.5H359.465V425.5H357.965V424H359.465V422.5H360.965V424H362.465V425.5H360.965V428.5H362.465V430H360.965V434.5H362.465V436H360.965V437.5H359.465V436H357.965V434.5H359.465V430H357.965V428.5ZM362.465 430H363.965V434.5H362.465V430ZM356.465 433H357.965V434.5H356.465V433ZM362.465 425.5H363.965V427H362.465V425.5ZM366.971 425.5H368.471V427H366.971V425.5ZM368.471 424H372.971V425.5H368.471V424ZM372.971 425.5H374.471V428.5H372.971V425.5ZM369.971 428.5H372.971V430H369.971V428.5ZM372.971 430H374.471V434.5H372.971V430ZM372.971 434.5V436H368.471V434.5H372.971ZM368.471 434.5H366.971V433H368.471V434.5ZM377.477 425.5H378.977V430H380.477V431.5H378.977V434.5H377.477V425.5ZM378.977 434.5H383.477V436H378.977V434.5ZM378.977 424H383.477V425.5H378.977V424ZM383.477 425.5H384.977V434.5H383.477V428.5H381.977V427H383.477V425.5ZM380.477 428.5H381.977V430H380.477V428.5ZM390.982 433H392.482V436H390.982V433ZM404.488 434.5V436H399.988V434.5H404.488ZM399.988 434.5H398.488V433H399.988V434.5ZM404.488 430V425.5H405.988V434.5H404.488V431.5H399.988V430H404.488ZM399.988 430H398.488V425.5H399.988V430ZM399.988 424H404.488V425.5H399.988V424ZM414.994 434.5V436H410.494V434.5H414.994ZM410.494 434.5H408.994V433H410.494V434.5ZM414.994 430V425.5H416.494V434.5H414.994V431.5H410.494V430H414.994ZM410.494 430H408.994V425.5H410.494V430ZM410.494 424H414.994V425.5H410.494V424ZM356.465 450.5H357.965V453.5H356.465V450.5ZM357.965 453.5H359.465V450.5H357.965V449H359.465V447.5H360.965V449H362.465V450.5H360.965V453.5H362.465V455H360.965V459.5H362.465V461H360.965V462.5H359.465V461H357.965V459.5H359.465V455H357.965V453.5ZM362.465 455H363.965V459.5H362.465V455ZM356.465 458H357.965V459.5H356.465V458ZM362.465 450.5H363.965V452H362.465V450.5ZM366.971 458H368.471V459.5H374.471V461H366.971V458ZM372.971 450.5H368.471V449H372.971V450.5ZM372.971 450.5H374.471V453.5H372.971V450.5ZM368.471 456.5H369.971V458H368.471V456.5ZM366.971 450.5H368.471V452H366.971V450.5ZM371.471 453.5H372.971V455H371.471V453.5ZM369.971 455H371.471V456.5H369.971V455ZM377.477 458H378.977V459.5H384.977V461H377.477V458ZM383.477 450.5H378.977V449H383.477V450.5ZM383.477 450.5H384.977V453.5H383.477V450.5ZM378.977 456.5H380.477V458H378.977V456.5ZM377.477 450.5H378.977V452H377.477V450.5ZM381.977 453.5H383.477V455H381.977V453.5ZM380.477 455H381.977V456.5H380.477V455ZM390.982 458H392.482V461H390.982V458ZM398.488 449H405.988V450.5H399.988V453.5H404.488V455H398.488V449ZM404.488 455H405.988V459.5H404.488V455ZM404.488 459.5V461H399.988V459.5H404.488ZM399.988 459.5H398.488V458H399.988V459.5ZM408.994 450.5H410.494V455H411.994V456.5H410.494V459.5H408.994V450.5ZM410.494 459.5H414.994V461H410.494V459.5ZM410.494 449H414.994V450.5H410.494V449ZM414.994 450.5H416.494V459.5H414.994V453.5H413.494V452H414.994V450.5ZM411.994 453.5H413.494V455H411.994V453.5Z" fill="#333333"/>
</svg>
