<svg width="596" height="786" viewBox="0 0 596 786" fill="none" xmlns="http://www.w3.org/2000/svg">
<path d="M5.96046e-08 4H2V14H5.96046e-08V4ZM2 14H6V16H2V14ZM8 4H10V16H8V14H6V12H8V4ZM22.0078 14V16H16.0078V14H22.0078ZM16.0078 14H14.0078V12H16.0078V14ZM22.0078 4V6H16.0078V4H22.0078ZM14.0078 6H16.0078V8H14.0078V6ZM16.0078 8H22.0078V10H16.0078V8ZM22.0078 10H24.0078V14H22.0078V10ZM30.0156 4H36.0156V6H30.0156V4ZM28.0156 6H30.0156V8H36.0156V6H38.0156V10H30.0156V14H28.0156V6ZM30.0156 14H36.0156V16H30.0156V14ZM36.0156 12H38.0156V14H36.0156V12ZM5.96046e-08 36H2V46H5.96046e-08V36ZM2 46H6V48H2V46ZM8 36H10V48H8V46H6V44H8V36ZM22.0078 46V48H16.0078V46H22.0078ZM16.0078 46H14.0078V44H16.0078V46ZM22.0078 36V38H16.0078V36H22.0078ZM14.0078 38H16.0078V40H14.0078V38ZM16.0078 40H22.0078V42H16.0078V40ZM22.0078 42H24.0078V46H22.0078V42ZM30.0156 36H36.0156V38H30.0156V36ZM28.0156 38H30.0156V40H36.0156V38H38.0156V42H30.0156V46H28.0156V38ZM30.0156 46H36.0156V48H30.0156V46ZM36.0156 44H38.0156V46H36.0156V44ZM5.96046e-08 100H2V102H4V104H2V108H4V110H2V116H5.96046e-08V100ZM4 100H8V102H4V100ZM8 102H10V110H8V102ZM4 110H8V112H4V110ZM14.0078 100H16.0078V110H14.0078V100ZM16.0078 110H20.0078V112H16.0078V110ZM22.0078 100H24.0078V112H22.0078V110H20.0078V108H22.0078V100ZM28.0156 96H30.0156V102H32.0156V104H30.0156V108H32.0156V110H30.0156V112H28.0156V96ZM32.0156 110H36.0156V112H32.0156V110ZM36.0156 102H38.0156V110H36.0156V102ZM32.0156 100H36.0156V102H32.0156V100ZM4 288H6V290H4V288ZM4 294H2V292H6V302H10V304H5.96046e-08V302H4V294ZM14.0078 292H18.0078V294H16.0078V304H14.0078V292ZM18.0078 294H20.0078V304H18.0078V294ZM22.0078 294H20.0078V292H22.0078V294ZM22.0078 294H24.0078V304H22.0078V294ZM28.0156 292H30.0156V294H32.0156V296H30.0156V300H32.0156V302H30.0156V308H28.0156V292ZM32.0156 292H36.0156V294H32.0156V292ZM36.0156 294H38.0156V302H36.0156V294ZM32.0156 302H36.0156V304H32.0156V302ZM46.0234 290H44.0234V288H48.0234V302H52.0234V304H42.0234V302H46.0234V290ZM56.0313 580H58.0313V582H60.0313V584H58.0313V588H60.0313V590H58.0313V596H56.0313V580ZM60.0313 580H64.0313V582H60.0313V580ZM64.0313 582H66.0313V590H64.0313V582ZM60.0313 590H64.0313V592H60.0313V590ZM70.0391 580H72.0391V590H70.0391V580ZM72.0391 590H76.0391V592H72.0391V590ZM78.0391 580H80.0391V592H78.0391V590H76.0391V588H78.0391V580ZM84.0469 576H86.0469V582H88.0469V584H86.0469V588H88.0469V590H86.0469V592H84.0469V576ZM88.0469 590H92.0469V592H88.0469V590ZM92.0469 582H94.0469V590H92.0469V582ZM88.0469 580H92.0469V582H88.0469V580Z" fill="#FF9548"/>
<path d="M58.0313 4H64.0313V6H58.0313V4ZM56.0313 6H58.0313V14H56.0313V6ZM58.0313 14H64.0313V16H58.0313V14ZM64.0313 6H66.0313V8H64.0313V6ZM64.0313 12H66.0313V14H64.0313V12ZM70.0391 4H72.0391V6H74.0391V8H72.0391V16H70.0391V4ZM78.0391 4V6H74.0391V4H78.0391ZM78.0391 6H80.0391V8H78.0391V6ZM84.0469 10H86.0469V14H84.0469V10ZM86.0469 14H90.0469V16H86.0469V14ZM90.0469 12H92.0469V10H86.0469V8H92.0469V6H94.0469V16H92.0469V14H90.0469V12ZM86.0469 4H92.0469V6H86.0469V4ZM100.055 -4.76837e-07H102.055V4H106.055V6H102.055V14H100.055V6H98.0547V4H100.055V-4.76837e-07ZM102.055 14H106.055V16H102.055V14ZM106.055 12H108.055V14H106.055V12ZM114.063 4H120.063V6H114.063V4ZM112.063 6H114.063V8H120.063V6H122.063V10H114.063V14H112.063V6ZM114.063 14H120.063V16H114.063V14ZM120.063 12H122.063V14H120.063V12ZM130.07 12H132.07V16H130.07V12ZM130.07 4H132.07V8H130.07V4ZM144.078 12H146.078V16H144.078V12ZM144.078 4H146.078V8H144.078V4ZM154.086 -4.76837e-07H156.086V6H158.086V8H156.086V12H158.086V14H156.086V16H154.086V-4.76837e-07ZM158.086 14H162.086V16H158.086V14ZM162.086 6H164.086V14H162.086V6ZM158.086 4H162.086V6H158.086V4ZM172.094 -4.76837e-07H174.094V2H172.094V-4.76837e-07ZM172.094 6H170.094V4H174.094V14H178.094V16H168.094V14H172.094V6ZM184.102 4H190.102V6H184.102V4ZM190.102 6H192.102V14H190.102V6ZM182.102 6H184.102V14H182.102V6ZM184.102 14H190.102V16H184.102V14ZM196.109 4H200.109V6H198.109V16H196.109V4ZM200.109 6H202.109V16H200.109V6ZM204.109 6H202.109V4H204.109V6ZM204.109 6H206.109V16H204.109V6ZM212.117 4H218.117V6H212.117V4ZM210.117 6H212.117V8H218.117V6H220.117V10H212.117V14H210.117V6ZM212.117 14H218.117V16H212.117V14ZM218.117 12H220.117V14H218.117V12ZM226.125 -4.76837e-07H228.125V4H232.125V6H228.125V14H226.125V6H224.125V4H226.125V-4.76837e-07ZM228.125 14H232.125V16H228.125V14ZM232.125 12H234.125V14H232.125V12ZM238.133 4H240.133V6H242.133V8H240.133V16H238.133V4ZM246.133 4V6H242.133V4H246.133ZM246.133 6H248.133V8H246.133V6ZM256.141 -4.76837e-07H258.141V2H256.141V-4.76837e-07ZM256.141 6H254.141V4H258.141V14H262.141V16H252.141V14H256.141V6ZM268.148 4H274.148V6H268.148V4ZM266.148 6H268.148V14H266.148V6ZM268.148 14H274.148V16H268.148V14ZM274.148 6H276.148V8H274.148V6ZM274.148 12H276.148V14H274.148V12ZM288.156 14V16H282.156V14H288.156ZM282.156 14H280.156V12H282.156V14ZM288.156 4V6H282.156V4H288.156ZM280.156 6H282.156V8H280.156V6ZM282.156 8H288.156V10H282.156V8ZM288.156 10H290.156V14H288.156V10ZM298.164 12H300.164V16H298.164V12ZM298.164 4H300.164V8H298.164V4ZM312.172 12H314.172V16H312.172V12ZM312.172 4H314.172V8H312.172V4ZM322.18 -4.76837e-07H324.18V4H326.18V6H324.18V16H322.18V-4.76837e-07ZM330.18 6H328.18V4H330.18V-4.76837e-07H332.18V16H330.18V6ZM326.18 6H328.18V10H326.18V6ZM338.188 4H344.188V6H338.188V4ZM344.188 6H346.188V14H344.188V6ZM336.188 6H338.188V14H336.188V6ZM338.188 14H344.188V16H338.188V14ZM350.195 4H352.195V6H354.195V8H352.195V16H350.195V4ZM354.195 4H358.195V6H354.195V4ZM358.195 6H360.195V16H358.195V6ZM368.203 -4.76837e-07H370.203V2H368.203V-4.76837e-07ZM368.203 6H366.203V4H370.203V14H374.203V16H364.203V14H368.203V6ZM380.211 -4.76837e-07H382.211V4H386.211V6H382.211V14H380.211V6H378.211V4H380.211V-4.76837e-07ZM382.211 14H386.211V16H382.211V14ZM386.211 12H388.211V14H386.211V12ZM394.219 4H400.219V6H394.219V4ZM400.219 6H402.219V14H400.219V6ZM392.219 6H394.219V14H392.219V6ZM394.219 14H400.219V16H394.219V14ZM406.227 4H408.227V6H410.227V8H408.227V16H406.227V4ZM414.227 4V6H410.227V4H414.227ZM414.227 6H416.227V8H414.227V6ZM424.234 12H426.234V16H424.234V12ZM422.234 16H424.234V18H422.234V16ZM424.234 4H426.234V8H424.234V4ZM58.0313 36H64.0313V38H58.0313V36ZM56.0313 38H58.0313V46H56.0313V38ZM58.0313 46H64.0313V48H58.0313V46ZM64.0313 38H66.0313V40H64.0313V38ZM64.0313 44H66.0313V46H64.0313V44ZM70.0391 36H72.0391V38H74.0391V40H72.0391V48H70.0391V36ZM78.0391 36V38H74.0391V36H78.0391ZM78.0391 38H80.0391V40H78.0391V38ZM84.0469 42H86.0469V46H84.0469V42ZM86.0469 46H90.0469V48H86.0469V46ZM90.0469 44H92.0469V42H86.0469V40H92.0469V38H94.0469V48H92.0469V46H90.0469V44ZM86.0469 36H92.0469V38H86.0469V36ZM100.055 32H102.055V36H106.055V38H102.055V46H100.055V38H98.0547V36H100.055V32ZM102.055 46H106.055V48H102.055V46ZM106.055 44H108.055V46H106.055V44ZM114.063 36H120.063V38H114.063V36ZM112.063 38H114.063V40H120.063V38H122.063V42H114.063V46H112.063V38ZM114.063 46H120.063V48H114.063V46ZM120.063 44H122.063V46H120.063V44ZM130.07 44H132.07V48H130.07V44ZM130.07 36H132.07V40H130.07V36ZM144.078 44H146.078V48H144.078V44ZM144.078 36H146.078V40H144.078V36ZM156.086 32H158.086V36H162.086V38H158.086V46H156.086V38H154.086V36H156.086V32ZM158.086 46H162.086V48H158.086V46ZM162.086 44H164.086V46H162.086V44ZM170.094 36H176.094V38H170.094V36ZM168.094 38H170.094V40H176.094V38H178.094V42H170.094V46H168.094V38ZM170.094 46H176.094V48H170.094V46ZM176.094 44H178.094V46H176.094V44ZM186.102 34H184.102V32H188.102V46H192.102V48H182.102V46H186.102V34ZM198.109 36H204.109V38H198.109V36ZM196.109 38H198.109V40H204.109V38H206.109V42H198.109V46H196.109V38ZM198.109 46H204.109V48H198.109V46ZM204.109 44H206.109V46H204.109V44ZM210.117 36H214.117V38H212.117V48H210.117V36ZM214.117 38H216.117V48H214.117V38ZM218.117 38H216.117V36H218.117V38ZM218.117 38H220.117V48H218.117V38ZM226.125 36H232.125V38H226.125V36ZM224.125 38H226.125V40H232.125V38H234.125V42H226.125V46H224.125V38ZM226.125 46H232.125V48H226.125V46ZM232.125 44H234.125V46H232.125V44ZM240.133 32H242.133V36H246.133V38H242.133V46H240.133V38H238.133V36H240.133V32ZM242.133 46H246.133V48H242.133V46ZM246.133 44H248.133V46H246.133V44ZM252.141 36H254.141V38H256.141V40H254.141V48H252.141V36ZM260.141 36V38H256.141V36H260.141ZM260.141 38H262.141V40H260.141V38ZM266.148 36H268.148V42H266.148V36ZM274.148 36H276.148V42H274.148V36ZM270.148 46H272.148V50H270.148V46ZM270.148 50V52H266.148V50H270.148ZM272.148 42H274.148V46H272.148V42ZM268.148 42H270.148V46H268.148V42ZM284.156 44H286.156V48H284.156V44ZM284.156 36H286.156V40H284.156V36ZM298.164 44H300.164V48H298.164V44ZM298.164 36H300.164V40H298.164V36ZM308.172 32H318.172V34H314.172V48H312.172V34H308.172V32ZM324.18 36H330.18V38H324.18V36ZM322.18 38H324.18V40H330.18V38H332.18V42H324.18V46H322.18V38ZM324.18 46H330.18V48H324.18V46ZM330.18 44H332.18V46H330.18V44ZM340.188 34H338.188V32H342.188V46H346.188V48H336.188V46H340.188V34ZM352.195 36H358.195V38H352.195V36ZM350.195 38H352.195V40H358.195V38H360.195V42H352.195V46H350.195V38ZM352.195 46H358.195V48H352.195V46ZM358.195 44H360.195V46H358.195V44ZM364.203 36H368.203V38H366.203V48H364.203V36ZM368.203 38H370.203V48H368.203V38ZM372.203 38H370.203V36H372.203V38ZM372.203 38H374.203V48H372.203V38ZM380.211 36H386.211V38H380.211V36ZM378.211 38H380.211V40H386.211V38H388.211V42H380.211V46H378.211V38ZM380.211 46H386.211V48H380.211V46ZM386.211 44H388.211V46H386.211V44ZM394.219 32H396.219V36H400.219V38H396.219V46H394.219V38H392.219V36H394.219V32ZM396.219 46H400.219V48H396.219V46ZM400.219 44H402.219V46H400.219V44ZM406.227 36H408.227V38H410.227V40H408.227V48H406.227V36ZM414.227 36V38H410.227V36H414.227ZM414.227 38H416.227V40H414.227V38ZM420.234 36H422.234V42H420.234V36ZM428.234 36H430.234V42H428.234V36ZM424.234 46H426.234V50H424.234V46ZM424.234 50V52H420.234V50H424.234ZM426.234 42H428.234V46H426.234V42ZM422.234 42H424.234V46H422.234V42ZM438.242 44H440.242V48H438.242V44ZM436.242 48H438.242V50H436.242V48ZM438.242 36H440.242V40H438.242V36ZM64.0313 110V112H58.0313V110H64.0313ZM58.0313 110H56.0313V108H58.0313V110ZM64.0313 100V102H58.0313V100H64.0313ZM56.0313 102H58.0313V104H56.0313V102ZM58.0313 104H64.0313V106H58.0313V104ZM64.0313 106H66.0313V110H64.0313V106ZM72.0391 96H74.0391V100H78.0391V102H74.0391V110H72.0391V102H70.0391V100H72.0391V96ZM74.0391 110H78.0391V112H74.0391V110ZM78.0391 108H80.0391V110H78.0391V108ZM84.0469 100H86.0469V102H88.0469V104H86.0469V112H84.0469V100ZM92.0469 100V102H88.0469V100H92.0469ZM92.0469 102H94.0469V104H92.0469V102ZM98.0547 100H100.055V110H98.0547V100ZM100.055 110H104.055V112H100.055V110ZM106.055 100H108.055V112H106.055V110H104.055V108H106.055V100ZM114.063 100H120.063V102H114.063V100ZM112.063 102H114.063V110H112.063V102ZM114.063 110H120.063V112H114.063V110ZM120.063 102H122.063V104H120.063V102ZM120.063 108H122.063V110H120.063V108ZM128.07 96H130.07V100H134.07V102H130.07V110H128.07V102H126.07V100H128.07V96ZM130.07 110H134.07V112H130.07V110ZM134.07 108H136.07V110H134.07V108ZM308.172 104H310.172V106H308.172V104ZM310.172 102H312.172V104H310.172V102ZM310.172 106H312.172V108H310.172V106ZM312.172 108H314.172V110H312.172V108ZM312.172 100H314.172V102H312.172V100ZM314.172 98H316.172V100H314.172V98ZM314.172 110H316.172V112H314.172V110ZM326.18 96H328.18V102H326.18V96ZM338.188 96H340.188V100H344.188V102H340.188V110H338.188V102H336.188V100H338.188V96ZM340.188 110H344.188V112H340.188V110ZM344.188 108H346.188V110H344.188V108ZM354.195 100H352.195V98H354.195V100ZM354.195 100H356.195V102H354.195V100ZM356.195 102H358.195V104H356.195V102ZM354.195 108H356.195V110H354.195V108ZM356.195 106H358.195V108H356.195V106ZM358.195 104H360.195V106H358.195V104ZM352.195 110H354.195V112H352.195V110ZM382.211 102V104H378.211V102H382.211ZM382.211 96H384.211V102H382.211V96ZM382.211 104H384.211V112H382.211V104ZM384.211 112H388.211V114H384.211V112ZM384.211 94H388.211V96H384.211V94ZM56.0313 132H58.0313V134H60.0313V136H58.0313V140H60.0313V142H58.0313V148H56.0313V132ZM60.0313 132H64.0313V134H60.0313V132ZM64.0313 134H66.0313V142H64.0313V134ZM60.0313 142H64.0313V144H60.0313V142ZM70.0391 132H72.0391V142H70.0391V132ZM72.0391 142H76.0391V144H72.0391V142ZM78.0391 132H80.0391V144H78.0391V142H76.0391V140H78.0391V132ZM84.0469 128H86.0469V134H88.0469V136H86.0469V140H88.0469V142H86.0469V144H84.0469V128ZM88.0469 142H92.0469V144H88.0469V142ZM92.0469 134H94.0469V142H92.0469V134ZM88.0469 132H92.0469V134H88.0469V132ZM112.063 128H114.063V134H116.063V136H114.063V140H116.063V142H114.063V144H112.063V128ZM116.063 142H120.063V144H116.063V142ZM120.063 134H122.063V142H120.063V134ZM116.063 132H120.063V134H116.063V132ZM130.07 128H132.07V130H130.07V128ZM130.07 134H128.07V132H132.07V142H136.07V144H126.07V142H130.07V134ZM142.078 132H148.078V134H142.078V132ZM148.078 134H150.078V142H148.078V134ZM140.078 134H142.078V142H140.078V134ZM142.078 142H148.078V144H142.078V142ZM162.086 142V144H156.086V142H162.086ZM156.086 142H154.086V140H156.086V142ZM162.086 132V134H156.086V132H162.086ZM154.086 134H156.086V136H154.086V134ZM156.086 136H162.086V138H156.086V136ZM162.086 138H164.086V142H162.086V138ZM172.094 140H174.094V144H172.094V140ZM172.094 132H174.094V136H172.094V132ZM198.109 134H196.109V130H198.109V134ZM198.109 134H200.109V136H198.109V134ZM198.109 142H196.109V136H198.109V142ZM198.109 142H202.109V144H198.109V142ZM198.109 128H202.109V130H198.109V128ZM202.109 136H206.109V138H204.109V142H202.109V136ZM202.109 130H204.109V132H202.109V130ZM206.109 134H208.109V136H206.109V134ZM214.117 128H216.117V134H214.117V128ZM226.125 128H228.125V132H232.125V134H228.125V142H226.125V134H224.125V132H226.125V128ZM228.125 142H232.125V144H228.125V142ZM232.125 140H234.125V142H232.125V140ZM252.141 128H254.141V132H256.141V134H254.141V144H252.141V128ZM260.141 134H258.141V132H260.141V128H262.141V144H260.141V134ZM256.141 134H258.141V138H256.141V134ZM268.148 132H274.148V134H268.148V132ZM274.148 134H276.148V142H274.148V134ZM266.148 134H268.148V142H266.148V134ZM268.148 142H274.148V144H268.148V142ZM280.156 132H282.156V134H284.156V136H282.156V144H280.156V132ZM284.156 132H288.156V134H284.156V132ZM288.156 134H290.156V144H288.156V134ZM298.164 128H300.164V130H298.164V128ZM298.164 134H296.164V132H300.164V142H304.164V144H294.164V142H298.164V134ZM310.172 128H312.172V132H316.172V134H312.172V142H310.172V134H308.172V132H310.172V128ZM312.172 142H316.172V144H312.172V142ZM316.172 140H318.172V142H316.172V140ZM324.18 132H330.18V134H324.18V132ZM330.18 134H332.18V142H330.18V134ZM322.18 134H324.18V142H322.18V134ZM324.18 142H330.18V144H324.18V142ZM336.188 132H338.188V134H340.188V136H338.188V144H336.188V132ZM344.188 132V134H340.188V132H344.188ZM344.188 134H346.188V136H344.188V134ZM354.195 140H356.195V144H354.195V140ZM352.195 144H354.195V146H352.195V144ZM56.0313 164H58.0313V166H60.0313V168H58.0313V172H60.0313V174H58.0313V180H56.0313V164ZM60.0313 164H64.0313V166H60.0313V164ZM64.0313 166H66.0313V174H64.0313V166ZM60.0313 174H64.0313V176H60.0313V174ZM70.0391 164H72.0391V174H70.0391V164ZM72.0391 174H76.0391V176H72.0391V174ZM78.0391 164H80.0391V176H78.0391V174H76.0391V172H78.0391V164ZM84.0469 160H86.0469V166H88.0469V168H86.0469V172H88.0469V174H86.0469V176H84.0469V160ZM88.0469 174H92.0469V176H88.0469V174ZM92.0469 166H94.0469V174H92.0469V166ZM88.0469 164H92.0469V166H88.0469V164ZM114.063 160H116.063V164H120.063V166H116.063V174H114.063V166H112.063V164H114.063V160ZM116.063 174H120.063V176H116.063V174ZM120.063 172H122.063V174H120.063V172ZM128.07 164H134.07V166H128.07V164ZM126.07 166H128.07V168H134.07V166H136.07V170H128.07V174H126.07V166ZM128.07 174H134.07V176H128.07V174ZM134.07 172H136.07V174H134.07V172ZM144.078 162H142.078V160H146.078V174H150.078V176H140.078V174H144.078V162ZM156.086 164H162.086V166H156.086V164ZM154.086 166H156.086V168H162.086V166H164.086V170H156.086V174H154.086V166ZM156.086 174H162.086V176H156.086V174ZM162.086 172H164.086V174H162.086V172ZM168.094 164H172.094V166H170.094V176H168.094V164ZM172.094 166H174.094V176H172.094V166ZM176.094 166H174.094V164H176.094V166ZM176.094 166H178.094V176H176.094V166ZM184.102 164H190.102V166H184.102V164ZM182.102 166H184.102V168H190.102V166H192.102V170H184.102V174H182.102V166ZM184.102 174H190.102V176H184.102V174ZM190.102 172H192.102V174H190.102V172ZM198.109 160H200.109V164H204.109V166H200.109V174H198.109V166H196.109V164H198.109V160ZM200.109 174H204.109V176H200.109V174ZM204.109 172H206.109V174H204.109V172ZM210.117 164H212.117V166H214.117V168H212.117V176H210.117V164ZM218.117 164V166H214.117V164H218.117ZM218.117 166H220.117V168H218.117V166ZM224.125 164H226.125V170H224.125V164ZM232.125 164H234.125V170H232.125V164ZM228.125 174H230.125V178H228.125V174ZM228.125 178V180H224.125V178H228.125ZM230.125 170H232.125V174H230.125V170ZM226.125 170H228.125V174H226.125V170ZM242.133 172H244.133V176H242.133V172ZM242.133 164H244.133V168H242.133V164ZM268.148 166H266.148V162H268.148V166ZM268.148 166H270.148V168H268.148V166ZM268.148 174H266.148V168H268.148V174ZM268.148 174H272.148V176H268.148V174ZM268.148 160H272.148V162H268.148V160ZM272.148 168H276.148V170H274.148V174H272.148V168ZM272.148 162H274.148V164H272.148V162ZM276.148 166H278.148V168H276.148V166ZM284.156 160H286.156V166H284.156V160ZM296.164 160H298.164V164H302.164V166H298.164V174H296.164V166H294.164V164H296.164V160ZM298.164 174H302.164V176H298.164V174ZM302.164 172H304.164V174H302.164V172ZM322.18 160H332.18V162H328.18V176H326.18V162H322.18V160ZM338.188 164H344.188V166H338.188V164ZM336.188 166H338.188V168H344.188V166H346.188V170H338.188V174H336.188V166ZM338.188 174H344.188V176H338.188V174ZM344.188 172H346.188V174H344.188V172ZM354.195 162H352.195V160H356.195V174H360.195V176H350.195V174H354.195V162ZM366.203 164H372.203V166H366.203V164ZM364.203 166H366.203V168H372.203V166H374.203V170H366.203V174H364.203V166ZM366.203 174H372.203V176H366.203V174ZM372.203 172H374.203V174H372.203V172ZM378.211 164H382.211V166H380.211V176H378.211V164ZM382.211 166H384.211V176H382.211V166ZM386.211 166H384.211V164H386.211V166ZM386.211 166H388.211V176H386.211V166ZM394.219 164H400.219V166H394.219V164ZM392.219 166H394.219V168H400.219V166H402.219V170H394.219V174H392.219V166ZM394.219 174H400.219V176H394.219V174ZM400.219 172H402.219V174H400.219V172ZM408.227 160H410.227V164H414.227V166H410.227V174H408.227V166H406.227V164H408.227V160ZM410.227 174H414.227V176H410.227V174ZM414.227 172H416.227V174H414.227V172ZM420.234 164H422.234V166H424.234V168H422.234V176H420.234V164ZM428.234 164V166H424.234V164H428.234ZM428.234 166H430.234V168H428.234V166ZM434.242 164H436.242V170H434.242V164ZM442.242 164H444.242V170H442.242V164ZM438.242 174H440.242V178H438.242V174ZM438.242 178V180H434.242V178H438.242ZM440.242 170H442.242V174H440.242V170ZM436.242 170H438.242V174H436.242V170ZM452.25 172H454.25V176H452.25V172ZM450.25 176H452.25V178H450.25V176ZM58.0313 196H64.0313V198H58.0313V196ZM56.0313 198H58.0313V206H56.0313V198ZM58.0313 206H64.0313V208H58.0313V206ZM64.0313 198H66.0313V200H64.0313V198ZM64.0313 204H66.0313V206H64.0313V204ZM72.0391 196H78.0391V198H72.0391V196ZM78.0391 198H80.0391V206H78.0391V198ZM70.0391 198H72.0391V206H70.0391V198ZM72.0391 206H78.0391V208H72.0391V206ZM84.0469 196H86.0469V198H88.0469V200H86.0469V208H84.0469V196ZM88.0469 196H92.0469V198H88.0469V196ZM92.0469 198H94.0469V208H92.0469V198ZM106.055 206V208H100.055V206H106.055ZM100.055 206H98.0547V204H100.055V206ZM106.055 196V198H100.055V196H106.055ZM98.0547 198H100.055V200H98.0547V198ZM100.055 200H106.055V202H100.055V200ZM106.055 202H108.055V206H106.055V202ZM112.063 196H114.063V206H112.063V196ZM114.063 206H118.063V208H114.063V206ZM120.063 196H122.063V208H120.063V206H118.063V204H120.063V196ZM126.07 196H130.07V198H128.07V208H126.07V196ZM130.07 198H132.07V208H130.07V198ZM134.07 198H132.07V196H134.07V198ZM134.07 198H136.07V208H134.07V198ZM140.078 202H142.078V206H140.078V202ZM142.078 206H146.078V208H142.078V206ZM146.078 204H148.078V202H142.078V200H148.078V198H150.078V208H148.078V206H146.078V204ZM142.078 196H148.078V198H142.078V196ZM154.086 192H156.086V198H158.086V200H156.086V204H158.086V206H156.086V208H154.086V192ZM158.086 206H162.086V208H158.086V206ZM162.086 198H164.086V206H162.086V198ZM158.086 196H162.086V198H158.086V196ZM172.094 194H170.094V192H174.094V206H178.094V208H168.094V206H172.094V194ZM184.102 196H190.102V198H184.102V196ZM182.102 198H184.102V200H190.102V198H192.102V202H184.102V206H182.102V198ZM184.102 206H190.102V208H184.102V206ZM190.102 204H192.102V206H190.102V204ZM204.109 206V208H198.109V206H204.109ZM198.109 206H196.109V204H198.109V206ZM204.109 196V198H198.109V196H204.109ZM196.109 198H198.109V200H196.109V198ZM198.109 200H204.109V202H198.109V200ZM204.109 202H206.109V206H204.109V202ZM214.117 204H216.117V208H214.117V204ZM214.117 196H216.117V200H214.117V196ZM238.133 194H240.133V206H238.133V194ZM240.133 206H246.133V208H240.133V206ZM246.133 204H248.133V206H246.133V204ZM240.133 192H246.133V194H240.133V192ZM246.133 194H248.133V196H246.133V194ZM254.141 196H260.141V198H254.141V196ZM260.141 198H262.141V206H260.141V198ZM252.141 198H254.141V206H252.141V198ZM254.141 206H260.141V208H254.141V206ZM266.148 196H268.148V198H270.148V200H268.148V208H266.148V196ZM270.148 196H274.148V198H270.148V196ZM274.148 198H276.148V208H274.148V198ZM288.156 206V208H282.156V206H288.156ZM282.156 206H280.156V204H282.156V206ZM288.156 196V198H282.156V196H288.156ZM280.156 198H282.156V200H280.156V198ZM282.156 200H288.156V202H282.156V200ZM288.156 202H290.156V206H288.156V202ZM294.164 196H296.164V206H294.164V196ZM296.164 206H300.164V208H296.164V206ZM302.164 196H304.164V208H302.164V206H300.164V204H302.164V196ZM308.172 196H312.172V198H310.172V208H308.172V196ZM312.172 198H314.172V208H312.172V198ZM316.172 198H314.172V196H316.172V198ZM316.172 198H318.172V208H316.172V198ZM322.18 202H324.18V206H322.18V202ZM324.18 206H328.18V208H324.18V206ZM328.18 204H330.18V202H324.18V200H330.18V198H332.18V208H330.18V206H328.18V204ZM324.18 196H330.18V198H324.18V196ZM336.188 192H338.188V198H340.188V200H338.188V204H340.188V206H338.188V208H336.188V192ZM340.188 206H344.188V208H340.188V206ZM344.188 198H346.188V206H344.188V198ZM340.188 196H344.188V198H340.188V196ZM354.195 194H352.195V192H356.195V206H360.195V208H350.195V206H354.195V194ZM366.203 196H372.203V198H366.203V196ZM364.203 198H366.203V200H372.203V198H374.203V202H366.203V206H364.203V198ZM366.203 206H372.203V208H366.203V206ZM372.203 204H374.203V206H372.203V204ZM386.211 206V208H380.211V206H386.211ZM380.211 206H378.211V204H380.211V206ZM386.211 196V198H380.211V196H386.211ZM378.211 198H380.211V200H378.211V198ZM380.211 200H386.211V202H380.211V200ZM386.211 202H388.211V206H386.211V202ZM396.219 204H398.219V208H396.219V204ZM394.219 208H396.219V210H394.219V208ZM4 224H6V230H4V224ZM10 230V232H6V230H10ZM4 232H6V240H4V232ZM4 240V242H5.96046e-08V240H4ZM4 222V224H5.96046e-08V222H4ZM70.0391 296H72.0391V298H70.0391V296ZM72.0391 294H74.0391V296H72.0391V294ZM72.0391 298H74.0391V300H72.0391V298ZM74.0391 300H76.0391V302H74.0391V300ZM74.0391 292H76.0391V294H74.0391V292ZM76.0391 290H78.0391V292H76.0391V290ZM76.0391 302H78.0391V304H76.0391V302ZM88.0469 288H90.0469V294H88.0469V288ZM100.055 288H102.055V292H106.055V294H102.055V302H100.055V294H98.0547V292H100.055V288ZM102.055 302H106.055V304H102.055V302ZM106.055 300H108.055V302H106.055V300ZM116.063 292H114.063V290H116.063V292ZM116.063 292H118.063V294H116.063V292ZM118.063 294H120.063V296H118.063V294ZM116.063 300H118.063V302H116.063V300ZM118.063 298H120.063V300H118.063V298ZM120.063 296H122.063V298H120.063V296ZM114.063 302H116.063V304H114.063V302ZM294.164 296H296.164V298H294.164V296ZM296.164 294H298.164V296H296.164V294ZM296.164 298H298.164V300H296.164V298ZM298.164 300H300.164V302H298.164V300ZM298.164 292H300.164V294H298.164V292ZM300.164 290H302.164V292H300.164V290ZM300.164 302H302.164V304H300.164V302ZM312.172 288H314.172V294H312.172V288ZM324.18 288H326.18V292H330.18V294H326.18V302H324.18V294H322.18V292H324.18V288ZM326.18 302H330.18V304H326.18V302ZM330.18 300H332.18V302H330.18V300ZM340.188 292H338.188V290H340.188V292ZM340.188 292H342.188V294H340.188V292ZM342.188 294H344.188V296H342.188V294ZM340.188 300H342.188V302H340.188V300ZM342.188 298H344.188V300H342.188V298ZM344.188 296H346.188V298H344.188V296ZM338.188 302H340.188V304H338.188V302ZM368.203 294V296H364.203V294H368.203ZM368.203 288H370.203V294H368.203V288ZM368.203 296H370.203V304H368.203V296ZM370.203 304H374.203V306H370.203V304ZM370.203 286H374.203V288H370.203V286ZM56.0313 324H58.0313V326H60.0313V328H58.0313V332H60.0313V334H58.0313V340H56.0313V324ZM60.0313 324H64.0313V326H60.0313V324ZM64.0313 326H66.0313V334H64.0313V326ZM60.0313 334H64.0313V336H60.0313V334ZM70.0391 324H72.0391V334H70.0391V324ZM72.0391 334H76.0391V336H72.0391V334ZM78.0391 324H80.0391V336H78.0391V334H76.0391V332H78.0391V324ZM84.0469 320H86.0469V326H88.0469V328H86.0469V332H88.0469V334H86.0469V336H84.0469V320ZM88.0469 334H92.0469V336H88.0469V334ZM92.0469 326H94.0469V334H92.0469V326ZM88.0469 324H92.0469V326H88.0469V324ZM114.063 326H112.063V324H114.063V322H116.063V324H120.063V326H116.063V336H114.063V326ZM116.063 320H122.063V322H116.063V320ZM126.07 324H128.07V326H130.07V328H128.07V336H126.07V324ZM130.07 324H134.07V326H130.07V324ZM134.07 326H136.07V336H134.07V326ZM154.086 324H156.086V326H158.086V328H156.086V336H154.086V324ZM158.086 324H162.086V326H158.086V324ZM162.086 326H164.086V336H162.086V326ZM170.094 324H176.094V326H170.094V324ZM168.094 326H170.094V328H176.094V326H178.094V330H170.094V334H168.094V326ZM170.094 334H176.094V336H170.094V334ZM176.094 332H178.094V334H176.094V332ZM182.102 324H184.102V334H182.102V324ZM190.102 324H192.102V336H188.102V334H190.102V324ZM188.102 334H186.102V324H188.102V334ZM184.102 334H186.102V336H184.102V334ZM196.109 334H206.109V336H196.109V334ZM210.117 324H212.117V334H210.117V324ZM218.117 324H220.117V336H216.117V334H218.117V324ZM216.117 334H214.117V324H216.117V334ZM212.117 334H214.117V336H212.117V334ZM228.125 320H230.125V322H228.125V320ZM228.125 326H226.125V324H230.125V334H234.125V336H224.125V334H228.125V326ZM240.133 320H242.133V324H246.133V326H242.133V334H240.133V326H238.133V324H240.133V320ZM242.133 334H246.133V336H242.133V334ZM246.133 332H248.133V334H246.133V332ZM252.141 320H254.141V326H256.141V328H254.141V336H252.141V320ZM260.141 326H262.141V336H260.141V326ZM256.141 324H260.141V326H256.141V324ZM266.148 334H276.148V336H266.148V334ZM284.156 320H286.156V322H284.156V320ZM284.156 326H282.156V324H286.156V334H290.156V336H280.156V334H284.156V326ZM294.164 324H296.164V326H298.164V328H296.164V336H294.164V324ZM298.164 324H302.164V326H298.164V324ZM302.164 326H304.164V336H302.164V326ZM310.172 320H312.172V324H316.172V326H312.172V334H310.172V326H308.172V324H310.172V320ZM312.172 334H316.172V336H312.172V334ZM316.172 332H318.172V334H316.172V332ZM322.18 324H324.18V326H326.18V328H324.18V336H322.18V324ZM330.18 324V326H326.18V324H330.18ZM330.18 326H332.18V328H330.18V326ZM336.188 324H338.188V334H336.188V324ZM338.188 334H342.188V336H338.188V334ZM344.188 324H346.188V336H344.188V334H342.188V332H344.188V324ZM350.195 324H354.195V326H352.195V336H350.195V324ZM354.195 326H356.195V336H354.195V326ZM358.195 326H356.195V324H358.195V326ZM358.195 326H360.195V336H358.195V326ZM366.203 324H372.203V326H366.203V324ZM364.203 326H366.203V328H372.203V326H374.203V330H366.203V334H364.203V326ZM366.203 334H372.203V336H366.203V334ZM372.203 332H374.203V334H372.203V332ZM378.211 324H380.211V326H382.211V328H380.211V336H378.211V324ZM382.211 324H386.211V326H382.211V324ZM386.211 326H388.211V336H386.211V326ZM394.219 320H396.219V324H400.219V326H396.219V334H394.219V326H392.219V324H394.219V320ZM396.219 334H400.219V336H396.219V334ZM400.219 332H402.219V334H400.219V332ZM414.227 334V336H408.227V334H414.227ZM408.227 334H406.227V332H408.227V334ZM414.227 324V326H408.227V324H414.227ZM406.227 326H408.227V328H406.227V326ZM408.227 328H414.227V330H408.227V328ZM414.227 330H416.227V334H414.227V330ZM422.234 322H424.234V334H422.234V322ZM426.234 336H424.234V334H426.234V336ZM426.234 336H428.234V338H426.234V336ZM426.234 318H428.234V320H426.234V318ZM424.234 320H426.234V322H424.234V320ZM434.242 320H436.242V326H438.242V328H436.242V332H438.242V334H436.242V336H434.242V320ZM438.242 334H442.242V336H438.242V334ZM442.242 326H444.242V334H442.242V326ZM438.242 324H442.242V326H438.242V324ZM452.25 320H454.25V322H452.25V320ZM452.25 326H450.25V324H454.25V334H458.25V336H448.25V334H452.25V326ZM464.258 324H470.258V326H464.258V324ZM470.258 326H472.258V334H470.258V326ZM462.258 326H464.258V334H462.258V326ZM464.258 334H470.258V336H464.258V334ZM484.266 334V336H478.266V334H484.266ZM478.266 334H476.266V332H478.266V334ZM484.266 324V326H478.266V324H484.266ZM476.266 326H478.266V328H476.266V326ZM478.266 328H484.266V330H478.266V328ZM484.266 330H486.266V334H484.266V330ZM494.273 332H496.273V336H494.273V332ZM494.273 324H496.273V328H494.273V324ZM520.289 326H518.289V322H520.289V326ZM520.289 326H522.289V328H520.289V326ZM520.289 334H518.289V328H520.289V334ZM520.289 334H524.289V336H520.289V334ZM520.289 320H524.289V322H520.289V320ZM524.289 328H528.289V330H526.289V334H524.289V328ZM524.289 322H526.289V324H524.289V322ZM528.289 326H530.289V328H528.289V326ZM536.297 320H538.297V326H536.297V320ZM548.305 320H550.305V324H554.305V326H550.305V334H548.305V326H546.305V324H548.305V320ZM550.305 334H554.305V336H550.305V334ZM554.305 332H556.305V334H554.305V332ZM574.32 320H576.32V324H578.32V326H576.32V336H574.32V320ZM582.32 326H580.32V324H582.32V320H584.32V336H582.32V326ZM578.32 326H580.32V330H578.32V326ZM590.328 324H596.328V326H590.328V324ZM596.328 326H598.328V334H596.328V326ZM588.328 326H590.328V334H588.328V326ZM590.328 334H596.328V336H590.328V334ZM602.336 324H604.336V326H606.336V328H604.336V336H602.336V324ZM606.336 324H610.336V326H606.336V324ZM610.336 326H612.336V336H610.336V326ZM620.344 320H622.344V322H620.344V320ZM620.344 326H618.344V324H622.344V334H626.344V336H616.344V334H620.344V326ZM632.352 320H634.352V324H638.352V326H634.352V334H632.352V326H630.352V324H632.352V320ZM634.352 334H638.352V336H634.352V334ZM638.352 332H640.352V334H638.352V332ZM646.359 324H652.359V326H646.359V324ZM652.359 326H654.359V334H652.359V326ZM644.359 326H646.359V334H644.359V326ZM646.359 334H652.359V336H646.359V334ZM658.367 324H660.367V326H662.367V328H660.367V336H658.367V324ZM666.367 324V326H662.367V324H666.367ZM666.367 326H668.367V328H666.367V326ZM676.375 332H678.375V336H676.375V332ZM674.375 336H676.375V338H674.375V336ZM702.391 320H704.391V324H708.391V326H704.391V334H702.391V326H700.391V324H702.391V320ZM704.391 334H708.391V336H704.391V334ZM708.391 332H710.391V334H708.391V332ZM716.398 324H722.398V326H716.398V324ZM714.398 326H716.398V328H722.398V326H724.398V330H716.398V334H714.398V326ZM716.398 334H722.398V336H716.398V334ZM722.398 332H724.398V334H722.398V332ZM732.406 322H730.406V320H734.406V334H738.406V336H728.406V334H732.406V322ZM744.414 324H750.414V326H744.414V324ZM742.414 326H744.414V328H750.414V326H752.414V330H744.414V334H742.414V326ZM744.414 334H750.414V336H744.414V334ZM750.414 332H752.414V334H750.414V332ZM756.422 324H760.422V326H758.422V336H756.422V324ZM760.422 326H762.422V336H760.422V326ZM764.422 326H762.422V324H764.422V326ZM764.422 326H766.422V336H764.422V326ZM772.43 324H778.43V326H772.43V324ZM770.43 326H772.43V328H778.43V326H780.43V330H772.43V334H770.43V326ZM772.43 334H778.43V336H772.43V334ZM778.43 332H780.43V334H778.43V332ZM786.438 320H788.438V324H792.438V326H788.438V334H786.438V326H784.438V324H786.438V320ZM788.438 334H792.438V336H788.438V334ZM792.438 332H794.438V334H792.438V332ZM798.445 324H800.445V326H802.445V328H800.445V336H798.445V324ZM806.445 324V326H802.445V324H806.445ZM806.445 326H808.445V328H806.445V326ZM812.453 324H814.453V330H812.453V324ZM820.453 324H822.453V330H820.453V324ZM816.453 334H818.453V338H816.453V334ZM816.453 338V340H812.453V338H816.453ZM818.453 330H820.453V334H818.453V330ZM814.453 330H816.453V334H814.453V330ZM830.461 332H832.461V336H830.461V332ZM830.461 324H832.461V328H830.461V324ZM856.477 326H854.477V322H856.477V326ZM856.477 326H858.477V328H856.477V326ZM856.477 334H854.477V328H856.477V334ZM856.477 334H860.477V336H856.477V334ZM856.477 320H860.477V322H856.477V320ZM860.477 328H864.477V330H862.477V334H860.477V328ZM860.477 322H862.477V324H860.477V322ZM864.477 326H866.477V328H864.477V326ZM872.484 320H874.484V326H872.484V320ZM884.492 320H886.492V324H890.492V326H886.492V334H884.492V326H882.492V324H884.492V320ZM886.492 334H890.492V336H886.492V334ZM890.492 332H892.492V334H890.492V332ZM910.508 320H920.508V322H916.508V336H914.508V322H910.508V320ZM926.516 324H932.516V326H926.516V324ZM924.516 326H926.516V328H932.516V326H934.516V330H926.516V334H924.516V326ZM926.516 334H932.516V336H926.516V334ZM932.516 332H934.516V334H932.516V332ZM942.523 322H940.523V320H944.523V334H948.523V336H938.523V334H942.523V322ZM954.531 324H960.531V326H954.531V324ZM952.531 326H954.531V328H960.531V326H962.531V330H954.531V334H952.531V326ZM954.531 334H960.531V336H954.531V334ZM960.531 332H962.531V334H960.531V332ZM966.539 324H970.539V326H968.539V336H966.539V324ZM970.539 326H972.539V336H970.539V326ZM974.539 326H972.539V324H974.539V326ZM974.539 326H976.539V336H974.539V326ZM982.547 324H988.547V326H982.547V324ZM980.547 326H982.547V328H988.547V326H990.547V330H982.547V334H980.547V326ZM982.547 334H988.547V336H982.547V334ZM988.547 332H990.547V334H988.547V332ZM996.555 320H998.555V324H1002.55V326H998.555V334H996.555V326H994.555V324H996.555V320ZM998.555 334H1002.55V336H998.555V334ZM1002.55 332H1004.55V334H1002.55V332ZM1008.56 324H1010.56V326H1012.56V328H1010.56V336H1008.56V324ZM1016.56 324V326H1012.56V324H1016.56ZM1016.56 326H1018.56V328H1016.56V326ZM1022.57 324H1024.57V330H1022.57V324ZM1030.57 324H1032.57V330H1030.57V324ZM1026.57 334H1028.57V338H1026.57V334ZM1026.57 338V340H1022.57V338H1026.57ZM1028.57 330H1030.57V334H1028.57V330ZM1024.57 330H1026.57V334H1024.57V330ZM1042.58 322H1044.58V334H1042.58V322ZM1040.58 334H1042.58V336H1040.58V334ZM1038.58 336H1040.58V338H1038.58V336ZM1038.58 318H1040.58V320H1038.58V318ZM1042.58 322H1040.58V320H1042.58V322ZM1074.59 328V330H1064.59V328H1074.59ZM1082.6 324H1080.6V322H1082.6V324ZM1082.6 324H1084.6V326H1082.6V324ZM1084.6 326H1086.6V328H1084.6V326ZM1082.6 332H1084.6V334H1082.6V332ZM1084.6 330H1086.6V332H1084.6V330ZM1086.6 328H1088.6V330H1086.6V328ZM1080.6 334H1082.6V336H1080.6V334ZM1106.62 322H1108.62V326H1106.62V322ZM1108.62 326H1114.62V328H1108.62V326ZM1114.62 334V336H1108.62V334H1114.62ZM1108.62 334H1106.62V332H1108.62V334ZM1114.62 328H1116.62V334H1114.62V328ZM1108.62 320H1114.62V322H1108.62V320ZM1114.62 322H1116.62V324H1114.62V322ZM1122.63 324H1128.63V326H1122.63V324ZM1120.63 326H1122.63V328H1128.63V326H1130.63V330H1122.63V334H1120.63V326ZM1122.63 334H1128.63V336H1122.63V334ZM1128.63 332H1130.63V334H1128.63V332ZM1138.63 322H1136.63V320H1140.63V334H1144.63V336H1134.63V334H1138.63V322ZM1150.64 326H1148.64V324H1150.64V322H1152.64V324H1156.64V326H1152.64V336H1150.64V326ZM1152.64 320H1158.64V322H1152.64V320ZM1180.66 326V328H1176.66V326H1180.66ZM1180.66 320H1182.66V326H1180.66V320ZM1180.66 328H1182.66V336H1180.66V328ZM1182.66 336H1186.66V338H1182.66V336ZM1182.66 318H1186.66V320H1182.66V318ZM112.063 352H114.063V366H122.063V368H112.063V352ZM130.07 352H132.07V354H130.07V352ZM130.07 358H128.07V356H132.07V366H136.07V368H126.07V366H130.07V358ZM142.078 358H140.078V356H142.078V354H144.078V356H148.078V358H144.078V368H142.078V358ZM144.078 352H150.078V354H144.078V352ZM156.086 356H162.086V358H156.086V356ZM154.086 358H156.086V360H162.086V358H164.086V362H156.086V366H154.086V358ZM156.086 366H162.086V368H156.086V366ZM162.086 364H164.086V366H162.086V364ZM168.094 354H170.094V358H168.094V354ZM170.094 358H176.094V360H170.094V358ZM176.094 366V368H170.094V366H176.094ZM170.094 366H168.094V364H170.094V366ZM176.094 360H178.094V366H176.094V360ZM170.094 352H176.094V354H170.094V352ZM176.094 354H178.094V356H176.094V354ZM182.102 356H184.102V366H182.102V356ZM184.102 366H188.102V368H184.102V366ZM190.102 356H192.102V368H190.102V366H188.102V364H190.102V356ZM196.109 356H198.109V358H200.109V360H198.109V364H200.109V366H198.109V372H196.109V356ZM200.109 356H204.109V358H200.109V356ZM204.109 358H206.109V366H204.109V358ZM200.109 366H204.109V368H200.109V366ZM210.117 356H212.117V358H214.117V360H212.117V364H214.117V366H212.117V372H210.117V356ZM214.117 356H218.117V358H214.117V356ZM218.117 358H220.117V366H218.117V358ZM214.117 366H218.117V368H214.117V366ZM226.125 356H232.125V358H226.125V356ZM232.125 358H234.125V366H232.125V358ZM224.125 358H226.125V366H224.125V358ZM226.125 366H232.125V368H226.125V366ZM238.133 356H240.133V358H242.133V360H240.133V368H238.133V356ZM246.133 356V358H242.133V356H246.133ZM246.133 358H248.133V360H246.133V358ZM254.141 352H256.141V356H260.141V358H256.141V366H254.141V358H252.141V356H254.141V352ZM256.141 366H260.141V368H256.141V366ZM260.141 364H262.141V366H260.141V364ZM284.156 358V360H280.156V358H284.156ZM284.156 352H286.156V358H284.156V352ZM284.156 360H286.156V368H284.156V360ZM286.156 368H290.156V370H286.156V368ZM286.156 350H290.156V352H286.156V350ZM168.094 384H170.094V390H172.094V392H170.094V396H172.094V398H170.094V400H168.094V384ZM172.094 398H176.094V400H172.094V398ZM176.094 390H178.094V398H176.094V390ZM172.094 388H176.094V390H172.094V388ZM186.102 384H188.102V386H186.102V384ZM186.102 390H184.102V388H188.102V398H192.102V400H182.102V398H186.102V390ZM198.109 388H204.109V390H198.109V388ZM204.109 390H206.109V398H204.109V390ZM196.109 390H198.109V398H196.109V390ZM198.109 398H204.109V400H198.109V398ZM218.117 398V400H212.117V398H218.117ZM212.117 398H210.117V396H212.117V398ZM218.117 388V390H212.117V388H218.117ZM210.117 390H212.117V392H210.117V390ZM212.117 392H218.117V394H212.117V392ZM218.117 394H220.117V398H218.117V394ZM228.125 396H230.125V400H228.125V396ZM226.125 400H228.125V402H226.125V400ZM170.094 416H172.094V420H176.094V422H172.094V430H170.094V422H168.094V420H170.094V416ZM172.094 430H176.094V432H172.094V430ZM176.094 428H178.094V430H176.094V428ZM184.102 420H190.102V422H184.102V420ZM182.102 422H184.102V424H190.102V422H192.102V426H184.102V430H182.102V422ZM184.102 430H190.102V432H184.102V430ZM190.102 428H192.102V430H190.102V428ZM200.109 418H198.109V416H202.109V430H206.109V432H196.109V430H200.109V418ZM212.117 420H218.117V422H212.117V420ZM210.117 422H212.117V424H218.117V422H220.117V426H212.117V430H210.117V422ZM212.117 430H218.117V432H212.117V430ZM218.117 428H220.117V430H218.117V428ZM224.125 420H228.125V422H226.125V432H224.125V420ZM228.125 422H230.125V432H228.125V422ZM232.125 422H230.125V420H232.125V422ZM232.125 422H234.125V432H232.125V422ZM240.133 420H246.133V422H240.133V420ZM238.133 422H240.133V424H246.133V422H248.133V426H240.133V430H238.133V422ZM240.133 430H246.133V432H240.133V430ZM246.133 428H248.133V430H246.133V428ZM254.141 416H256.141V420H260.141V422H256.141V430H254.141V422H252.141V420H254.141V416ZM256.141 430H260.141V432H256.141V430ZM260.141 428H262.141V430H260.141V428ZM266.148 420H268.148V422H270.148V424H268.148V432H266.148V420ZM274.148 420V422H270.148V420H274.148ZM274.148 422H276.148V424H274.148V422ZM280.156 420H282.156V426H280.156V420ZM288.156 420H290.156V426H288.156V420ZM284.156 430H286.156V434H284.156V430ZM284.156 434V436H280.156V434H284.156ZM286.156 426H288.156V430H286.156V426ZM282.156 426H284.156V430H282.156V426ZM298.164 428H300.164V432H298.164V428ZM296.164 432H298.164V434H296.164V432ZM170.094 452H176.094V454H170.094V452ZM168.094 454H170.094V462H168.094V454ZM170.094 462H176.094V464H170.094V462ZM176.094 454H178.094V456H176.094V454ZM176.094 460H178.094V462H176.094V460ZM184.102 452H190.102V454H184.102V452ZM190.102 454H192.102V462H190.102V454ZM182.102 454H184.102V462H182.102V454ZM184.102 462H190.102V464H184.102V462ZM196.109 452H198.109V454H200.109V456H198.109V464H196.109V452ZM200.109 452H204.109V454H200.109V452ZM204.109 454H206.109V464H204.109V454ZM218.117 462V464H212.117V462H218.117ZM212.117 462H210.117V460H212.117V462ZM218.117 452V454H212.117V452H218.117ZM210.117 454H212.117V456H210.117V454ZM212.117 456H218.117V458H212.117V456ZM218.117 458H220.117V462H218.117V458ZM224.125 452H226.125V462H224.125V452ZM226.125 462H230.125V464H226.125V462ZM232.125 452H234.125V464H232.125V462H230.125V460H232.125V452ZM238.133 452H242.133V454H240.133V464H238.133V452ZM242.133 454H244.133V464H242.133V454ZM246.133 454H244.133V452H246.133V454ZM246.133 454H248.133V464H246.133V454ZM252.141 458H254.141V462H252.141V458ZM254.141 462H258.141V464H254.141V462ZM258.141 460H260.141V458H254.141V456H260.141V454H262.141V464H260.141V462H258.141V460ZM254.141 452H260.141V454H254.141V452ZM266.148 448H268.148V454H270.148V456H268.148V460H270.148V462H268.148V464H266.148V448ZM270.148 462H274.148V464H270.148V462ZM274.148 454H276.148V462H274.148V454ZM270.148 452H274.148V454H270.148V452ZM284.156 450H282.156V448H286.156V462H290.156V464H280.156V462H284.156V450ZM296.164 452H302.164V454H296.164V452ZM294.164 454H296.164V456H302.164V454H304.164V458H296.164V462H294.164V454ZM296.164 462H302.164V464H296.164V462ZM302.164 460H304.164V462H302.164V460ZM316.172 462V464H310.172V462H316.172ZM310.172 462H308.172V460H310.172V462ZM316.172 452V454H310.172V452H316.172ZM308.172 454H310.172V456H308.172V454ZM310.172 456H316.172V458H310.172V456ZM316.172 458H318.172V462H316.172V458ZM326.18 460H328.18V464H326.18V460ZM326.18 452H328.18V456H326.18V452ZM350.195 448H358.195V450H352.195V462H358.195V464H350.195V448ZM358.195 450H360.195V462H358.195V450ZM366.203 452H372.203V454H366.203V452ZM364.203 454H366.203V456H372.203V454H374.203V458H366.203V462H364.203V454ZM366.203 462H372.203V464H366.203V462ZM372.203 460H374.203V462H372.203V460ZM380.211 454H378.211V452H380.211V450H382.211V452H386.211V454H382.211V464H380.211V454ZM382.211 448H388.211V450H382.211V448ZM392.219 458H394.219V462H392.219V458ZM394.219 462H398.219V464H394.219V462ZM398.219 460H400.219V458H394.219V456H400.219V454H402.219V464H400.219V462H398.219V460ZM394.219 452H400.219V454H394.219V452ZM406.227 452H408.227V462H406.227V452ZM408.227 462H412.227V464H408.227V462ZM414.227 452H416.227V464H414.227V462H412.227V460H414.227V452ZM424.234 450H422.234V448H426.234V462H430.234V464H420.234V462H424.234V450ZM436.242 448H438.242V452H442.242V454H438.242V462H436.242V454H434.242V452H436.242V448ZM438.242 462H442.242V464H438.242V462ZM442.242 460H444.242V462H442.242V460ZM452.25 460H454.25V464H452.25V460ZM452.25 452H454.25V456H452.25V452ZM466.258 460H468.258V464H466.258V460ZM466.258 452H468.258V456H466.258V452ZM484.266 448H486.266V464H484.266V462H482.266V460H484.266V456H482.266V454H484.266V448ZM482.266 462V464H478.266V462H482.266ZM478.266 462H476.266V454H478.266V462ZM482.266 454H478.266V452H482.266V454ZM492.273 452H498.273V454H492.273V452ZM490.273 454H492.273V456H498.273V454H500.273V458H492.273V462H490.273V454ZM492.273 462H498.273V464H492.273V462ZM498.273 460H500.273V462H498.273V460ZM506.281 454H504.281V452H506.281V450H508.281V452H512.281V454H508.281V464H506.281V454ZM508.281 448H514.281V450H508.281V448ZM518.289 458H520.289V462H518.289V458ZM520.289 462H524.289V464H520.289V462ZM524.289 460H526.289V458H520.289V456H526.289V454H528.289V464H526.289V462H524.289V460ZM520.289 452H526.289V454H520.289V452ZM532.297 452H534.297V462H532.297V452ZM534.297 462H538.297V464H534.297V462ZM540.297 452H542.297V464H540.297V462H538.297V460H540.297V452ZM550.305 450H548.305V448H552.305V462H556.305V464H546.305V462H550.305V450ZM562.313 448H564.313V452H568.313V454H564.313V462H562.313V454H560.313V452H562.313V448ZM564.313 462H568.313V464H564.313V462ZM568.313 460H570.313V462H568.313V460ZM576.32 450H578.32V462H576.32V450ZM580.32 464H578.32V462H580.32V464ZM580.32 464H582.32V466H580.32V464ZM580.32 446H582.32V448H580.32V446ZM578.32 448H580.32V450H578.32V448ZM594.328 450H596.328V462H594.328V450ZM592.328 462H594.328V464H592.328V462ZM590.328 464H592.328V466H590.328V464ZM590.328 446H592.328V448H590.328V446ZM594.328 450H592.328V448H594.328V450ZM116.063 480H118.063V486H116.063V480ZM122.063 486V488H118.063V486H122.063ZM116.063 488H118.063V496H116.063V488ZM116.063 496V498H112.063V496H116.063ZM116.063 478V480H112.063V478H116.063ZM60.0313 512H62.0313V518H60.0313V512ZM66.0313 518V520H62.0313V518H66.0313ZM60.0313 520H62.0313V528H60.0313V520ZM60.0313 528V530H56.0313V528H60.0313ZM60.0313 510V512H56.0313V510H60.0313ZM114.063 582H112.063V580H114.063V578H116.063V580H120.063V582H116.063V592H114.063V582ZM116.063 576H122.063V578H116.063V576ZM126.07 580H128.07V582H130.07V584H128.07V592H126.07V580ZM130.07 580H134.07V582H130.07V580ZM134.07 582H136.07V592H134.07V582ZM156.086 580H162.086V582H156.086V580ZM154.086 582H156.086V584H162.086V582H164.086V586H156.086V590H154.086V582ZM156.086 590H162.086V592H156.086V590ZM162.086 588H164.086V590H162.086V588ZM168.094 580H170.094V586H168.094V580ZM176.094 580H178.094V586H176.094V580ZM172.094 590H170.094V586H172.094V590ZM172.094 590H174.094V592H172.094V590ZM174.094 586H176.094V590H174.094V586ZM182.102 586H184.102V590H182.102V586ZM184.102 590H188.102V592H184.102V590ZM188.102 588H190.102V586H184.102V584H190.102V582H192.102V592H190.102V590H188.102V588ZM184.102 580H190.102V582H184.102V580ZM196.109 590H206.109V592H196.109V590ZM210.117 580H212.117V582H214.117V584H212.117V592H210.117V580ZM218.117 580V582H214.117V580H218.117ZM218.117 582H220.117V584H218.117V582ZM226.125 580H232.125V582H226.125V580ZM224.125 582H226.125V584H232.125V582H234.125V586H226.125V590H224.125V582ZM226.125 590H232.125V592H226.125V590ZM232.125 588H234.125V590H232.125V588ZM238.133 580H242.133V582H240.133V592H238.133V580ZM242.133 582H244.133V592H242.133V582ZM246.133 582H244.133V580H246.133V582ZM246.133 582H248.133V592H246.133V582ZM252.141 586H254.141V590H252.141V586ZM254.141 590H258.141V592H254.141V590ZM258.141 588H260.141V586H254.141V584H260.141V582H262.141V592H260.141V590H258.141V588ZM254.141 580H260.141V582H254.141V580ZM270.148 576H272.148V578H270.148V576ZM270.148 582H268.148V580H272.148V590H276.148V592H266.148V590H270.148V582ZM280.156 580H282.156V582H284.156V584H282.156V592H280.156V580ZM284.156 580H288.156V582H284.156V580ZM288.156 582H290.156V592H288.156V582ZM298.164 576H300.164V578H298.164V576ZM298.164 582H296.164V580H300.164V590H304.164V592H294.164V590H298.164V582ZM308.172 580H310.172V582H312.172V584H310.172V592H308.172V580ZM312.172 580H316.172V582H312.172V580ZM316.172 582H318.172V592H316.172V582ZM324.18 580H328.18V582H324.18V580ZM322.18 582H324.18V590H322.18V582ZM324.18 590H328.18V592H324.18V590ZM324.18 594H330.18V596H324.18V594ZM328.18 588H330.18V584H328.18V582H330.18V580H332.18V594H330.18V590H328.18V588ZM338.188 578H340.188V590H338.188V578ZM342.188 592H340.188V590H342.188V592ZM342.188 592H344.188V594H342.188V592ZM342.188 574H344.188V576H342.188V574ZM340.188 576H342.188V578H340.188V576ZM352.195 582H350.195V578H352.195V582ZM352.195 582H354.195V584H352.195V582ZM352.195 590H350.195V584H352.195V590ZM352.195 590H356.195V592H352.195V590ZM352.195 576H356.195V578H352.195V576ZM356.195 584H360.195V586H358.195V590H356.195V584ZM356.195 578H358.195V580H356.195V578ZM360.195 582H362.195V584H360.195V582ZM372.203 590V592H366.203V590H372.203ZM366.203 590H364.203V588H366.203V590ZM372.203 580V582H366.203V580H372.203ZM364.203 582H366.203V584H364.203V582ZM366.203 584H372.203V586H366.203V584ZM372.203 586H374.203V590H372.203V586ZM380.211 580H386.211V582H380.211V580ZM378.211 582H380.211V584H386.211V582H388.211V586H380.211V590H378.211V582ZM380.211 590H386.211V592H380.211V590ZM386.211 588H388.211V590H386.211V588ZM396.219 578H394.219V576H398.219V590H402.219V592H392.219V590H396.219V578ZM408.227 582H406.227V580H408.227V578H410.227V580H414.227V582H410.227V592H408.227V582ZM410.227 576H416.227V578H410.227V576ZM426.234 578H428.234V590H426.234V578ZM424.234 590H426.234V592H424.234V590ZM422.234 592H424.234V594H422.234V592ZM422.234 574H424.234V576H422.234V574ZM426.234 578H424.234V576H426.234V578ZM458.25 584V586H448.25V584H458.25ZM466.258 580H464.258V578H466.258V580ZM466.258 580H468.258V582H466.258V580ZM468.258 582H470.258V584H468.258V582ZM466.258 588H468.258V590H466.258V588ZM468.258 586H470.258V588H468.258V586ZM470.258 584H472.258V586H470.258V584ZM464.258 590H466.258V592H464.258V590ZM498.273 590V592H492.273V590H498.273ZM492.273 590H490.273V588H492.273V590ZM498.273 580V582H492.273V580H498.273ZM490.273 582H492.273V584H490.273V582ZM492.273 584H498.273V586H492.273V584ZM498.273 586H500.273V590H498.273V586ZM506.281 576H508.281V580H512.281V582H508.281V590H506.281V582H504.281V580H506.281V576ZM508.281 590H512.281V592H508.281V590ZM512.281 588H514.281V590H512.281V588ZM526.289 576H528.289V592H526.289V590H524.289V588H526.289V584H524.289V582H526.289V576ZM524.289 590V592H520.289V590H524.289ZM520.289 590H518.289V582H520.289V590ZM524.289 582H520.289V580H524.289V582ZM536.297 588H538.297V592H536.297V588ZM536.297 580H538.297V584H536.297V580ZM550.305 588H552.305V592H550.305V588ZM550.305 580H552.305V584H550.305V580ZM562.313 576H564.313V580H568.313V582H564.313V590H562.313V582H560.313V580H562.313V576ZM564.313 590H568.313V592H564.313V590ZM568.313 588H570.313V590H568.313V588ZM578.32 576H580.32V578H578.32V576ZM578.32 582H576.32V580H580.32V590H584.32V592H574.32V590H578.32V582ZM588.328 580H592.328V582H590.328V592H588.328V580ZM592.328 582H594.328V592H592.328V582ZM596.328 582H594.328V580H596.328V582ZM596.328 582H598.328V592H596.328V582ZM604.336 580H610.336V582H604.336V580ZM602.336 582H604.336V584H610.336V582H612.336V586H604.336V590H602.336V582ZM604.336 590H610.336V592H604.336V590ZM610.336 588H612.336V590H610.336V588ZM620.344 588H622.344V592H620.344V588ZM620.344 580H622.344V584H620.344V580ZM634.352 588H636.352V592H634.352V588ZM634.352 580H636.352V584H634.352V580ZM644.359 576H652.359V578H646.359V590H652.359V592H644.359V576ZM652.359 578H654.359V590H652.359V578ZM658.367 580H660.367V590H658.367V580ZM660.367 590H664.367V592H660.367V590ZM666.367 580H668.367V592H666.367V590H664.367V588H666.367V580ZM672.375 580H674.375V582H676.375V584H674.375V592H672.375V580ZM680.375 580V582H676.375V580H680.375ZM680.375 582H682.375V584H680.375V582ZM686.383 586H688.383V590H686.383V586ZM688.383 590H692.383V592H688.383V590ZM692.383 588H694.383V586H688.383V584H694.383V582H696.383V592H694.383V590H692.383V588ZM688.383 580H694.383V582H688.383V580ZM702.391 576H704.391V580H708.391V582H704.391V590H702.391V582H700.391V580H702.391V576ZM704.391 590H708.391V592H704.391V590ZM708.391 588H710.391V590H708.391V588ZM718.398 576H720.398V578H718.398V576ZM718.398 582H716.398V580H720.398V590H724.398V592H714.398V590H718.398V582ZM730.406 580H736.406V582H730.406V580ZM736.406 582H738.406V590H736.406V582ZM728.406 582H730.406V590H728.406V582ZM730.406 590H736.406V592H730.406V590ZM742.414 580H744.414V582H746.414V584H744.414V592H742.414V580ZM746.414 580H750.414V582H746.414V580ZM750.414 582H752.414V592H750.414V582ZM774.43 582V584H770.43V582H774.43ZM774.43 576H776.43V582H774.43V576ZM774.43 584H776.43V592H774.43V584ZM776.43 592H780.43V594H776.43V592ZM776.43 574H780.43V576H776.43V574ZM114.063 612H120.063V614H114.063V612ZM112.063 614H114.063V622H112.063V614ZM114.063 622H120.063V624H114.063V622ZM120.063 614H122.063V616H120.063V614ZM120.063 620H122.063V622H120.063V620ZM128.07 612H134.07V614H128.07V612ZM134.07 614H136.07V622H134.07V614ZM126.07 614H128.07V622H126.07V614ZM128.07 622H134.07V624H128.07V622ZM140.078 612H142.078V614H144.078V616H142.078V624H140.078V612ZM144.078 612H148.078V614H144.078V612ZM148.078 614H150.078V624H148.078V614ZM162.086 622V624H156.086V622H162.086ZM156.086 622H154.086V620H156.086V622ZM162.086 612V614H156.086V612H162.086ZM154.086 614H156.086V616H154.086V614ZM156.086 616H162.086V618H156.086V616ZM162.086 618H164.086V622H162.086V618ZM170.094 608H172.094V612H176.094V614H172.094V622H170.094V614H168.094V612H170.094V608ZM172.094 622H176.094V624H172.094V622ZM176.094 620H178.094V622H176.094V620ZM196.109 608H198.109V622H196.109V608ZM198.109 622H204.109V624H198.109V622ZM204.109 608H206.109V622H204.109V608ZM210.117 608H218.117V610H212.117V616H218.117V618H212.117V624H210.117V608ZM218.117 610H220.117V616H218.117V610ZM224.125 610H226.125V614H224.125V610ZM226.125 614H232.125V616H226.125V614ZM232.125 622V624H226.125V622H232.125ZM226.125 622H224.125V620H226.125V622ZM232.125 616H234.125V622H232.125V616ZM226.125 608H232.125V610H226.125V608ZM232.125 610H234.125V612H232.125V610ZM242.133 622V610H238.133V608H248.133V610H244.133V622H248.133V624H238.133V622H242.133ZM252.141 608H254.141V622H262.141V624H252.141V608ZM266.148 610H268.148V622H266.148V610ZM268.148 622H274.148V624H268.148V622ZM274.148 610H276.148V622H274.148V610ZM268.148 608H274.148V610H268.148V608ZM280.156 608H282.156V612H284.156V614H282.156V624H280.156V608ZM288.156 618H286.156V616H288.156V608H290.156V624H288.156V618ZM286.156 616H284.156V614H286.156V616ZM298.164 620H300.164V624H298.164V620ZM298.164 612H300.164V616H298.164V612ZM322.18 612H324.18V622H322.18V612ZM324.18 622H328.18V624H324.18V622ZM330.18 612H332.18V624H330.18V622H328.18V620H330.18V612ZM338.188 608H344.188V610H338.188V608ZM336.188 610H338.188V614H344.188V616H338.188V622H336.188V610ZM344.188 616H346.188V622H344.188V616ZM338.188 622H344.188V624H338.188V622ZM344.188 610H346.188V612H344.188V610ZM356.195 610H358.195V608H360.195V624H358.195V620H350.195V616H352.195V618H358.195V612H356.195V610ZM354.195 612H356.195V614H354.195V612ZM352.195 614H354.195V616H352.195V614ZM388.211 614V616H378.211V614H388.211ZM388.211 618V620H378.211V618H388.211ZM412.227 610H414.227V608H416.227V624H414.227V620H406.227V616H408.227V618H414.227V612H412.227V610ZM410.227 612H412.227V614H410.227V612ZM408.227 614H410.227V616H408.227V614ZM424.234 612H420.234V610H424.234V608H426.234V622H430.234V624H420.234V622H424.234V612ZM438.242 620H440.242V624H438.242V620ZM436.242 624H438.242V626H436.242V624ZM438.242 612H440.242V616H438.242V612ZM116.063 642H114.063V640H118.063V654H122.063V656H112.063V654H116.063V642ZM128.07 644H134.07V646H128.07V644ZM126.07 646H128.07V648H134.07V646H136.07V650H128.07V654H126.07V646ZM128.07 654H134.07V656H128.07V654ZM134.07 652H136.07V654H134.07V652ZM142.078 640H144.078V644H148.078V646H144.078V654H142.078V646H140.078V644H142.078V640ZM144.078 654H148.078V656H144.078V654ZM148.078 652H150.078V654H148.078V652ZM168.094 644H172.094V646H170.094V656H168.094V644ZM172.094 646H174.094V656H172.094V646ZM176.094 646H174.094V644H176.094V646ZM176.094 646H178.094V656H176.094V646ZM182.102 644H184.102V654H182.102V644ZM184.102 654H188.102V656H184.102V654ZM190.102 644H192.102V656H190.102V654H188.102V652H190.102V644ZM198.109 640H200.109V644H204.109V646H200.109V654H198.109V646H196.109V644H198.109V640ZM200.109 654H204.109V656H200.109V654ZM204.109 652H206.109V654H204.109V652ZM226.125 640H228.125V644H232.125V646H228.125V654H226.125V646H224.125V644H226.125V640ZM228.125 654H232.125V656H228.125V654ZM232.125 652H234.125V654H232.125V652ZM262.141 646V648H252.141V646H262.141ZM262.141 650V652H252.141V650H262.141ZM288.156 654V656H282.156V654H288.156ZM282.156 654H280.156V652H282.156V654ZM288.156 644V646H282.156V644H288.156ZM280.156 646H282.156V648H280.156V646ZM282.156 648H288.156V650H282.156V648ZM288.156 650H290.156V654H288.156V650ZM296.164 640H298.164V644H302.164V646H298.164V654H296.164V646H294.164V644H296.164V640ZM298.164 654H302.164V656H298.164V654ZM302.164 652H304.164V654H302.164V652ZM316.172 640H318.172V656H316.172V654H314.172V652H316.172V648H314.172V646H316.172V640ZM314.172 654V656H310.172V654H314.172ZM310.172 654H308.172V646H310.172V654ZM314.172 646H310.172V644H314.172V646ZM326.18 652H328.18V656H326.18V652ZM326.18 644H328.18V648H326.18V644ZM340.188 652H342.188V656H340.188V652ZM340.188 644H342.188V648H340.188V644ZM352.195 640H354.195V644H358.195V646H354.195V654H352.195V646H350.195V644H352.195V640ZM354.195 654H358.195V656H354.195V654ZM358.195 652H360.195V654H358.195V652ZM368.203 640H370.203V642H368.203V640ZM368.203 646H366.203V644H370.203V654H374.203V656H364.203V654H368.203V646ZM378.211 644H382.211V646H380.211V656H378.211V644ZM382.211 646H384.211V656H382.211V646ZM386.211 646H384.211V644H386.211V646ZM386.211 646H388.211V656H386.211V646ZM394.219 644H400.219V646H394.219V644ZM392.219 646H394.219V648H400.219V646H402.219V650H394.219V654H392.219V646ZM394.219 654H400.219V656H394.219V654ZM400.219 652H402.219V654H400.219V652ZM410.227 652H412.227V656H410.227V652ZM410.227 644H412.227V648H410.227V644ZM424.234 652H426.234V656H424.234V652ZM424.234 644H426.234V648H424.234V644ZM434.242 640H442.242V642H436.242V654H442.242V656H434.242V640ZM442.242 642H444.242V654H442.242V642ZM448.25 644H450.25V654H448.25V644ZM450.25 654H454.25V656H450.25V654ZM456.25 644H458.25V656H456.25V654H454.25V652H456.25V644ZM462.258 644H464.258V646H466.258V648H464.258V656H462.258V644ZM470.258 644V646H466.258V644H470.258ZM470.258 646H472.258V648H470.258V646ZM476.266 650H478.266V654H476.266V650ZM478.266 654H482.266V656H478.266V654ZM482.266 652H484.266V650H478.266V648H484.266V646H486.266V656H484.266V654H482.266V652ZM478.266 644H484.266V646H478.266V644ZM492.273 640H494.273V644H498.273V646H494.273V654H492.273V646H490.273V644H492.273V640ZM494.273 654H498.273V656H494.273V654ZM498.273 652H500.273V654H498.273V652ZM508.281 640H510.281V642H508.281V640ZM508.281 646H506.281V644H510.281V654H514.281V656H504.281V654H508.281V646ZM520.289 644H526.289V646H520.289V644ZM526.289 646H528.289V654H526.289V646ZM518.289 646H520.289V654H518.289V646ZM520.289 654H526.289V656H520.289V654ZM532.297 644H534.297V646H536.297V648H534.297V656H532.297V644ZM536.297 644H540.297V646H536.297V644ZM540.297 646H542.297V656H540.297V646ZM550.305 652H552.305V656H550.305V652ZM550.305 644H552.305V648H550.305V644ZM564.313 652H566.313V656H564.313V652ZM564.313 644H566.313V648H564.313V644ZM576.32 646H574.32V644H576.32V642H578.32V644H582.32V646H578.32V656H576.32V646ZM578.32 640H584.32V642H578.32V640ZM588.328 644H590.328V646H592.328V648H590.328V656H588.328V644ZM596.328 644V646H592.328V644H596.328ZM596.328 646H598.328V648H596.328V646ZM604.336 644H610.336V646H604.336V644ZM610.336 646H612.336V654H610.336V646ZM602.336 646H604.336V654H602.336V646ZM604.336 654H610.336V656H604.336V654ZM616.344 644H620.344V646H618.344V656H616.344V644ZM620.344 646H622.344V656H620.344V646ZM624.344 646H622.344V644H624.344V646ZM624.344 646H626.344V656H624.344V646ZM630.352 654H640.352V656H630.352V654ZM652.359 654V656H646.359V654H652.359ZM646.359 654H644.359V652H646.359V654ZM652.359 644V646H646.359V644H652.359ZM644.359 646H646.359V648H644.359V646ZM646.359 648H652.359V650H646.359V648ZM652.359 650H654.359V654H652.359V650ZM660.367 644H666.367V646H660.367V644ZM658.367 646H660.367V648H666.367V646H668.367V650H660.367V654H658.367V646ZM660.367 654H666.367V656H660.367V654ZM666.367 652H668.367V654H666.367V652ZM674.375 644H680.375V646H674.375V644ZM672.375 646H674.375V654H672.375V646ZM674.375 654H680.375V656H674.375V654ZM680.375 646H682.375V648H680.375V646ZM680.375 652H682.375V654H680.375V652ZM694.383 654V656H688.383V654H694.383ZM688.383 654H686.383V652H688.383V654ZM694.383 644V646H688.383V644H694.383ZM686.383 646H688.383V648H686.383V646ZM688.383 648H694.383V650H688.383V648ZM694.383 650H696.383V654H694.383V650ZM702.391 642H704.391V654H702.391V642ZM706.391 656H704.391V654H706.391V656ZM706.391 656H708.391V658H706.391V656ZM706.391 638H708.391V640H706.391V638ZM704.391 640H706.391V642H704.391V640ZM714.398 640H716.398V654H714.398V640ZM716.398 654H722.398V656H716.398V654ZM722.398 640H724.398V654H722.398V640ZM728.406 640H736.406V642H730.406V648H736.406V650H730.406V656H728.406V640ZM736.406 642H738.406V648H736.406V642ZM742.414 642H744.414V646H742.414V642ZM744.414 646H750.414V648H744.414V646ZM750.414 654V656H744.414V654H750.414ZM744.414 654H742.414V652H744.414V654ZM750.414 648H752.414V654H750.414V648ZM744.414 640H750.414V642H744.414V640ZM750.414 642H752.414V644H750.414V642ZM760.422 654V642H756.422V640H766.422V642H762.422V654H766.422V656H756.422V654H760.422ZM770.43 640H772.43V654H780.43V656H770.43V640ZM784.438 642H786.438V654H784.438V642ZM786.438 654H792.438V656H786.438V654ZM792.438 642H794.438V654H792.438V642ZM786.438 640H792.438V642H786.438V640ZM798.445 640H800.445V644H802.445V646H800.445V656H798.445V640ZM806.445 650H804.445V648H806.445V640H808.445V656H806.445V650ZM804.445 648H802.445V646H804.445V648ZM818.453 642H820.453V654H818.453V642ZM816.453 654H818.453V656H816.453V654ZM814.453 656H816.453V658H814.453V656ZM814.453 638H816.453V640H814.453V638ZM818.453 642H816.453V640H818.453V642ZM830.461 652H832.461V656H830.461V652ZM828.461 656H830.461V658H828.461V656ZM830.461 644H832.461V648H830.461V644ZM114.063 672H116.063V676H120.063V678H116.063V686H114.063V678H112.063V676H114.063V672ZM116.063 686H120.063V688H116.063V686ZM120.063 684H122.063V686H120.063V684ZM144.078 670H146.078V674H148.078V676H146.078V680H144.078V676H142.078V674H144.078V670ZM142.078 674H140.078V672H142.078V674ZM140.078 676H142.078V678H140.078V676ZM148.078 672H150.078V674H148.078V672ZM148.078 676H150.078V678H148.078V676ZM164.086 678V680H154.086V678H164.086ZM164.086 682V684H154.086V682H164.086ZM184.102 674H186.102V686H184.102V674ZM188.102 688H186.102V686H188.102V688ZM188.102 688H190.102V690H188.102V688ZM188.102 670H190.102V672H188.102V670ZM186.102 672H188.102V674H186.102V672ZM204.109 686V688H198.109V686H204.109ZM198.109 686H196.109V684H198.109V686ZM204.109 676V678H198.109V676H204.109ZM196.109 678H198.109V680H196.109V678ZM198.109 680H204.109V682H198.109V680ZM204.109 682H206.109V686H204.109V682ZM212.117 676H218.117V678H212.117V676ZM210.117 678H212.117V680H218.117V678H220.117V682H212.117V686H210.117V678ZM212.117 686H218.117V688H212.117V686ZM218.117 684H220.117V686H218.117V684ZM228.125 674H226.125V672H230.125V686H234.125V688H224.125V686H228.125V674ZM240.133 678H238.133V676H240.133V674H242.133V676H246.133V678H242.133V688H240.133V678ZM242.133 672H248.133V674H242.133V672ZM256.141 684H258.141V688H256.141V684ZM268.148 676H274.148V678H268.148V676ZM266.148 678H268.148V686H266.148V678ZM268.148 686H274.148V688H268.148V686ZM274.148 678H276.148V680H274.148V678ZM274.148 684H276.148V686H274.148V684ZM282.156 676H288.156V678H282.156V676ZM288.156 678H290.156V686H288.156V678ZM280.156 678H282.156V686H280.156V678ZM282.156 686H288.156V688H282.156V686ZM294.164 676H296.164V678H298.164V680H296.164V688H294.164V676ZM298.164 676H302.164V678H298.164V676ZM302.164 678H304.164V688H302.164V678ZM316.172 686V688H310.172V686H316.172ZM310.172 686H308.172V684H310.172V686ZM316.172 676V678H310.172V676H316.172ZM308.172 678H310.172V680H308.172V678ZM310.172 680H316.172V682H310.172V680ZM316.172 682H318.172V686H316.172V682ZM322.18 676H324.18V686H322.18V676ZM324.18 686H328.18V688H324.18V686ZM330.18 676H332.18V688H330.18V686H328.18V684H330.18V676ZM336.188 676H340.188V678H338.188V688H336.188V676ZM340.188 678H342.188V688H340.188V678ZM344.188 678H342.188V676H344.188V678ZM344.188 678H346.188V688H344.188V678ZM350.195 682H352.195V686H350.195V682ZM352.195 686H356.195V688H352.195V686ZM356.195 684H358.195V682H352.195V680H358.195V678H360.195V688H358.195V686H356.195V684ZM352.195 676H358.195V678H352.195V676ZM364.203 672H366.203V678H368.203V680H366.203V684H368.203V686H366.203V688H364.203V672ZM368.203 686H372.203V688H368.203V686ZM372.203 678H374.203V686H372.203V678ZM368.203 676H372.203V678H368.203V676ZM382.211 674H380.211V672H384.211V686H388.211V688H378.211V686H382.211V674ZM394.219 676H400.219V678H394.219V676ZM392.219 678H394.219V680H400.219V678H402.219V682H394.219V686H392.219V678ZM394.219 686H400.219V688H394.219V686ZM400.219 684H402.219V686H400.219V684ZM414.227 686V688H408.227V686H414.227ZM408.227 686H406.227V684H408.227V686ZM414.227 676V678H408.227V676H414.227ZM406.227 678H408.227V680H406.227V678ZM408.227 680H414.227V682H408.227V680ZM414.227 682H416.227V686H414.227V682ZM424.234 684H426.234V688H424.234V684ZM434.242 676H436.242V682H434.242V676ZM442.242 676H444.242V682H442.242V676ZM438.242 686H436.242V682H438.242V686ZM438.242 686H440.242V688H438.242V686ZM440.242 682H442.242V686H440.242V682ZM448.25 686H458.25V688H448.25V686ZM464.258 676H470.258V678H464.258V676ZM470.258 678H472.258V686H470.258V678ZM462.258 678H464.258V686H462.258V678ZM464.258 686H470.258V688H464.258V686ZM476.266 676H478.266V678H476.266V676ZM484.266 676H486.266V678H484.266V676ZM476.266 684H478.266V688H476.266V684ZM482.266 678H484.266V680H482.266V678ZM478.266 678H480.266V680H478.266V678ZM480.266 680H482.266V682H480.266V680ZM478.266 682H480.266V684H478.266V682ZM482.266 682H484.266V684H482.266V682ZM484.266 684H486.266V688H484.266V684ZM514.281 680V682H504.281V680H514.281ZM540.297 686V688H534.297V686H540.297ZM534.297 686H532.297V684H534.297V686ZM540.297 676V678H534.297V676H540.297ZM532.297 678H534.297V680H532.297V678ZM534.297 680H540.297V682H534.297V680ZM540.297 682H542.297V686H540.297V682ZM548.305 676H554.305V678H548.305V676ZM546.305 678H548.305V680H554.305V678H556.305V682H548.305V686H546.305V678ZM548.305 686H554.305V688H548.305V686ZM554.305 684H556.305V686H554.305V684ZM564.313 674H562.313V672H566.313V686H570.313V688H560.313V686H564.313V674ZM576.32 678H574.32V676H576.32V674H578.32V676H582.32V678H578.32V688H576.32V678ZM578.32 672H584.32V674H578.32V672ZM592.328 684H594.328V688H592.328V684ZM604.336 676H610.336V678H604.336V676ZM602.336 678H604.336V686H602.336V678ZM604.336 686H610.336V688H604.336V686ZM610.336 678H612.336V680H610.336V678ZM610.336 684H612.336V686H610.336V684ZM618.344 676H624.344V678H618.344V676ZM624.344 678H626.344V686H624.344V678ZM616.344 678H618.344V686H616.344V678ZM618.344 686H624.344V688H618.344V686ZM630.352 676H632.352V678H634.352V680H632.352V688H630.352V676ZM634.352 676H638.352V678H634.352V676ZM638.352 678H640.352V688H638.352V678ZM652.359 686V688H646.359V686H652.359ZM646.359 686H644.359V684H646.359V686ZM652.359 676V678H646.359V676H652.359ZM644.359 678H646.359V680H644.359V678ZM646.359 680H652.359V682H646.359V680ZM652.359 682H654.359V686H652.359V682ZM658.367 676H660.367V686H658.367V676ZM660.367 686H664.367V688H660.367V686ZM666.367 676H668.367V688H666.367V686H664.367V684H666.367V676ZM672.375 676H676.375V678H674.375V688H672.375V676ZM676.375 678H678.375V688H676.375V678ZM680.375 678H678.375V676H680.375V678ZM680.375 678H682.375V688H680.375V678ZM686.383 682H688.383V686H686.383V682ZM688.383 686H692.383V688H688.383V686ZM692.383 684H694.383V682H688.383V680H694.383V678H696.383V688H694.383V686H692.383V684ZM688.383 676H694.383V678H688.383V676ZM700.391 672H702.391V678H704.391V680H702.391V684H704.391V686H702.391V688H700.391V672ZM704.391 686H708.391V688H704.391V686ZM708.391 678H710.391V686H708.391V678ZM704.391 676H708.391V678H704.391V676ZM718.398 674H716.398V672H720.398V686H724.398V688H714.398V686H718.398V674ZM730.406 676H736.406V678H730.406V676ZM728.406 678H730.406V680H736.406V678H738.406V682H730.406V686H728.406V678ZM730.406 686H736.406V688H730.406V686ZM736.406 684H738.406V686H736.406V684ZM750.414 686V688H744.414V686H750.414ZM744.414 686H742.414V684H744.414V686ZM750.414 676V678H744.414V676H750.414ZM742.414 678H744.414V680H742.414V678ZM744.414 680H750.414V682H744.414V680ZM750.414 682H752.414V686H750.414V682ZM760.422 684H762.422V688H760.422V684ZM778.43 672H780.43V688H778.43V686H776.43V684H778.43V680H776.43V678H778.43V672ZM776.43 686V688H772.43V686H776.43ZM772.43 686H770.43V678H772.43V686ZM776.43 678H772.43V676H776.43V678ZM786.438 676H792.438V678H786.438V676ZM784.438 678H786.438V680H792.438V678H794.438V682H786.438V686H784.438V678ZM786.438 686H792.438V688H786.438V686ZM792.438 684H794.438V686H792.438V684ZM802.445 674H800.445V672H804.445V686H808.445V688H798.445V686H802.445V674ZM814.453 672H816.453V676H820.453V678H816.453V686H814.453V678H812.453V676H814.453V672ZM816.453 686H820.453V688H816.453V686ZM820.453 684H822.453V686H820.453V684ZM826.461 682H828.461V686H826.461V682ZM828.461 686H832.461V688H828.461V686ZM832.461 684H834.461V682H828.461V680H834.461V678H836.461V688H834.461V686H832.461V684ZM828.461 676H834.461V678H828.461V676ZM840.469 686H850.469V688H840.469V686ZM856.477 676H862.477V678H856.477V676ZM862.477 678H864.477V686H862.477V678ZM854.477 678H856.477V686H854.477V678ZM856.477 686H862.477V688H856.477V686ZM868.484 676H870.484V678H868.484V676ZM876.484 676H878.484V678H876.484V676ZM868.484 684H870.484V688H868.484V684ZM874.484 678H876.484V680H874.484V678ZM870.484 678H872.484V680H870.484V678ZM872.484 680H874.484V682H872.484V680ZM870.484 682H872.484V684H870.484V682ZM874.484 682H876.484V684H874.484V682ZM876.484 684H878.484V688H876.484V684ZM886.492 684H888.492V688H886.492V684ZM896.5 676H898.5V678H900.5V680H898.5V684H900.5V686H898.5V692H896.5V676ZM900.5 676H904.5V678H900.5V676ZM904.5 678H906.5V686H904.5V678ZM900.5 686H904.5V688H900.5V686ZM912.508 676H918.508V678H912.508V676ZM918.508 678H920.508V686H918.508V678ZM910.508 678H912.508V686H910.508V678ZM912.508 686H918.508V688H912.508V686ZM924.516 676H926.516V686H924.516V676ZM932.516 676H934.516V688H930.516V686H932.516V676ZM930.516 686H928.516V676H930.516V686ZM926.516 686H928.516V688H926.516V686ZM942.523 672H944.523V674H942.523V672ZM942.523 678H940.523V676H944.523V686H948.523V688H938.523V686H942.523V678ZM954.531 674H956.531V686H954.531V674ZM958.531 688H956.531V686H958.531V688ZM958.531 688H960.531V690H958.531V688ZM958.531 670H960.531V672H958.531V670ZM956.531 672H958.531V674H956.531V672ZM972.539 674H974.539V672H976.539V688H974.539V684H966.539V680H968.539V682H974.539V676H972.539V674ZM970.539 676H972.539V678H970.539V676ZM968.539 678H970.539V680H968.539V678ZM986.547 674H988.547V686H986.547V674ZM984.547 686H986.547V688H984.547V686ZM982.547 688H984.547V690H982.547V688ZM982.547 670H984.547V672H982.547V670ZM986.547 674H984.547V672H986.547V674ZM1000.55 674H1002.55V686H1000.55V674ZM998.555 686H1000.55V688H998.555V686ZM996.555 688H998.555V690H996.555V688ZM996.555 670H998.555V672H996.555V670ZM1000.55 674H998.555V672H1000.55V674ZM1022.57 682H1024.57V686H1022.57V682ZM1024.57 686H1028.57V688H1024.57V686ZM1028.57 684H1030.57V682H1024.57V680H1030.57V678H1032.57V688H1030.57V686H1028.57V684ZM1024.57 676H1030.57V678H1024.57V676ZM1044.58 686V688H1038.58V686H1044.58ZM1038.58 686H1036.58V684H1038.58V686ZM1044.58 676V678H1038.58V676H1044.58ZM1036.58 678H1038.58V680H1036.58V678ZM1038.58 680H1044.58V682H1038.58V680ZM1044.58 682H1046.58V686H1044.58V682ZM1064.59 676H1066.59V686H1064.59V676ZM1066.59 686H1070.59V688H1066.59V686ZM1072.59 676H1074.59V688H1072.59V686H1070.59V684H1072.59V676ZM1078.6 674H1080.6V676H1078.6V674ZM1080.6 672H1086.6V674H1080.6V672ZM1086.6 674H1088.6V678H1086.6V674ZM1082.6 678H1086.6V680H1082.6V678ZM1086.6 680H1088.6V686H1086.6V680ZM1086.6 686V688H1080.6V686H1086.6ZM1080.6 686H1078.6V684H1080.6V686ZM1092.61 684H1094.61V686H1102.61V688H1092.61V684ZM1100.61 674H1094.61V672H1100.61V674ZM1100.61 674H1102.61V678H1100.61V674ZM1094.61 682H1096.61V684H1094.61V682ZM1092.61 674H1094.61V676H1092.61V674ZM1098.61 678H1100.61V680H1098.61V678ZM1096.61 680H1098.61V682H1096.61V680ZM1110.62 684H1112.62V688H1110.62V684ZM1108.62 688H1110.62V690H1108.62V688ZM1110.62 676H1112.62V680H1110.62V676ZM114.063 704H116.063V708H120.063V710H116.063V718H114.063V710H112.063V708H114.063V704ZM116.063 718H120.063V720H116.063V718ZM120.063 716H122.063V718H120.063V716ZM144.078 702H146.078V706H148.078V708H146.078V712H144.078V708H142.078V706H144.078V702ZM142.078 706H140.078V704H142.078V706ZM140.078 708H142.078V710H140.078V708ZM148.078 704H150.078V706H148.078V704ZM148.078 708H150.078V710H148.078V708ZM176.094 718V720H170.094V718H176.094ZM170.094 718H168.094V716H170.094V718ZM176.094 708V710H170.094V708H176.094ZM168.094 710H170.094V712H168.094V710ZM170.094 712H176.094V714H170.094V712ZM176.094 714H178.094V718H176.094V714ZM184.102 708H190.102V710H184.102V708ZM182.102 710H184.102V712H190.102V710H192.102V714H184.102V718H182.102V710ZM184.102 718H190.102V720H184.102V718ZM190.102 716H192.102V718H190.102V716ZM200.109 706H198.109V704H202.109V718H206.109V720H196.109V718H200.109V706ZM212.117 710H210.117V708H212.117V706H214.117V708H218.117V710H214.117V720H212.117V710ZM214.117 704H220.117V706H214.117V704ZM228.125 716H230.125V720H228.125V716ZM240.133 708H246.133V710H240.133V708ZM238.133 710H240.133V718H238.133V710ZM240.133 718H246.133V720H240.133V718ZM246.133 710H248.133V712H246.133V710ZM246.133 716H248.133V718H246.133V716ZM254.141 708H260.141V710H254.141V708ZM260.141 710H262.141V718H260.141V710ZM252.141 710H254.141V718H252.141V710ZM254.141 718H260.141V720H254.141V718ZM266.148 708H268.148V710H270.148V712H268.148V720H266.148V708ZM270.148 708H274.148V710H270.148V708ZM274.148 710H276.148V720H274.148V710ZM288.156 718V720H282.156V718H288.156ZM282.156 718H280.156V716H282.156V718ZM288.156 708V710H282.156V708H288.156ZM280.156 710H282.156V712H280.156V710ZM282.156 712H288.156V714H282.156V712ZM288.156 714H290.156V718H288.156V714ZM294.164 708H296.164V718H294.164V708ZM296.164 718H300.164V720H296.164V718ZM302.164 708H304.164V720H302.164V718H300.164V716H302.164V708ZM308.172 708H312.172V710H310.172V720H308.172V708ZM312.172 710H314.172V720H312.172V710ZM316.172 710H314.172V708H316.172V710ZM316.172 710H318.172V720H316.172V710ZM322.18 714H324.18V718H322.18V714ZM324.18 718H328.18V720H324.18V718ZM328.18 716H330.18V714H324.18V712H330.18V710H332.18V720H330.18V718H328.18V716ZM324.18 708H330.18V710H324.18V708ZM336.188 704H338.188V710H340.188V712H338.188V716H340.188V718H338.188V720H336.188V704ZM340.188 718H344.188V720H340.188V718ZM344.188 710H346.188V718H344.188V710ZM340.188 708H344.188V710H340.188V708ZM354.195 706H352.195V704H356.195V718H360.195V720H350.195V718H354.195V706ZM366.203 708H372.203V710H366.203V708ZM364.203 710H366.203V712H372.203V710H374.203V714H366.203V718H364.203V710ZM366.203 718H372.203V720H366.203V718ZM372.203 716H374.203V718H372.203V716ZM386.211 718V720H380.211V718H386.211ZM380.211 718H378.211V716H380.211V718ZM386.211 708V710H380.211V708H386.211ZM378.211 710H380.211V712H378.211V710ZM380.211 712H386.211V714H380.211V712ZM386.211 714H388.211V718H386.211V714ZM396.219 716H398.219V720H396.219V716ZM406.227 708H408.227V714H406.227V708ZM414.227 708H416.227V714H414.227V708ZM410.227 718H408.227V714H410.227V718ZM410.227 718H412.227V720H410.227V718ZM412.227 714H414.227V718H412.227V714ZM420.234 718H430.234V720H420.234V718ZM434.242 714H436.242V718H434.242V714ZM436.242 718H440.242V720H436.242V718ZM440.242 716H442.242V714H436.242V712H442.242V710H444.242V720H442.242V718H440.242V716ZM436.242 708H442.242V710H436.242V708ZM450.25 708H454.25V710H450.25V708ZM454.25 710H456.25V708H458.25V724H456.25V718H454.25V716H456.25V712H454.25V710ZM448.25 710H450.25V718H448.25V710ZM450.25 718H454.25V720H450.25V718ZM466.258 716H468.258V720H466.258V716ZM476.266 708H478.266V710H480.266V712H478.266V716H480.266V718H478.266V724H476.266V708ZM480.266 708H484.266V710H480.266V708ZM484.266 710H486.266V718H484.266V710ZM480.266 718H484.266V720H480.266V718ZM492.273 708H498.273V710H492.273V708ZM498.273 710H500.273V718H498.273V710ZM490.273 710H492.273V718H490.273V710ZM492.273 718H498.273V720H492.273V718ZM504.281 708H506.281V718H504.281V708ZM512.281 708H514.281V720H510.281V718H512.281V708ZM510.281 718H508.281V708H510.281V718ZM506.281 718H508.281V720H506.281V718ZM520.289 710H518.289V708H520.289V706H522.289V708H526.289V710H522.289V720H520.289V710ZM522.289 704H528.289V706H522.289V704ZM534.297 706H536.297V718H534.297V706ZM538.297 720H536.297V718H538.297V720ZM538.297 720H540.297V722H538.297V720ZM538.297 702H540.297V704H538.297V702ZM536.297 704H538.297V706H536.297V704ZM554.305 718V720H548.305V718H554.305ZM548.305 718H546.305V716H548.305V718ZM554.305 708V710H548.305V708H554.305ZM546.305 710H548.305V712H546.305V710ZM548.305 712H554.305V714H548.305V712ZM554.305 714H556.305V718H554.305V714ZM562.313 708H568.313V710H562.313V708ZM560.313 710H562.313V712H568.313V710H570.313V714H562.313V718H560.313V710ZM562.313 718H568.313V720H562.313V718ZM568.313 716H570.313V718H568.313V716ZM578.32 706H576.32V704H580.32V718H584.32V720H574.32V718H578.32V706ZM590.328 710H588.328V708H590.328V706H592.328V708H596.328V710H592.328V720H590.328V710ZM592.328 704H598.328V706H592.328V704ZM606.336 716H608.336V720H606.336V716ZM618.344 708H624.344V710H618.344V708ZM616.344 710H618.344V718H616.344V710ZM618.344 718H624.344V720H618.344V718ZM624.344 710H626.344V712H624.344V710ZM624.344 716H626.344V718H624.344V716ZM632.352 708H638.352V710H632.352V708ZM638.352 710H640.352V718H638.352V710ZM630.352 710H632.352V718H630.352V710ZM632.352 718H638.352V720H632.352V718ZM644.359 708H646.359V710H648.359V712H646.359V720H644.359V708ZM648.359 708H652.359V710H648.359V708ZM652.359 710H654.359V720H652.359V710ZM666.367 718V720H660.367V718H666.367ZM660.367 718H658.367V716H660.367V718ZM666.367 708V710H660.367V708H666.367ZM658.367 710H660.367V712H658.367V710ZM660.367 712H666.367V714H660.367V712ZM666.367 714H668.367V718H666.367V714ZM672.375 708H674.375V718H672.375V708ZM674.375 718H678.375V720H674.375V718ZM680.375 708H682.375V720H680.375V718H678.375V716H680.375V708ZM686.383 708H690.383V710H688.383V720H686.383V708ZM690.383 710H692.383V720H690.383V710ZM694.383 710H692.383V708H694.383V710ZM694.383 710H696.383V720H694.383V710ZM700.391 714H702.391V718H700.391V714ZM702.391 718H706.391V720H702.391V718ZM706.391 716H708.391V714H702.391V712H708.391V710H710.391V720H708.391V718H706.391V716ZM702.391 708H708.391V710H702.391V708ZM714.398 704H716.398V710H718.398V712H716.398V716H718.398V718H716.398V720H714.398V704ZM718.398 718H722.398V720H718.398V718ZM722.398 710H724.398V718H722.398V710ZM718.398 708H722.398V710H718.398V708ZM732.406 706H730.406V704H734.406V718H738.406V720H728.406V718H732.406V706ZM744.414 708H750.414V710H744.414V708ZM742.414 710H744.414V712H750.414V710H752.414V714H744.414V718H742.414V710ZM744.414 718H750.414V720H744.414V718ZM750.414 716H752.414V718H750.414V716ZM764.422 718V720H758.422V718H764.422ZM758.422 718H756.422V716H758.422V718ZM764.422 708V710H758.422V708H764.422ZM756.422 710H758.422V712H756.422V710ZM758.422 712H764.422V714H758.422V712ZM764.422 714H766.422V718H764.422V714ZM774.43 716H776.43V720H774.43V716ZM792.438 704H794.438V720H792.438V718H790.438V716H792.438V712H790.438V710H792.438V704ZM790.438 718V720H786.438V718H790.438ZM786.438 718H784.438V710H786.438V718ZM790.438 710H786.438V708H790.438V710ZM800.445 708H806.445V710H800.445V708ZM798.445 710H800.445V712H806.445V710H808.445V714H800.445V718H798.445V710ZM800.445 718H806.445V720H800.445V718ZM806.445 716H808.445V718H806.445V716ZM816.453 706H814.453V704H818.453V718H822.453V720H812.453V718H816.453V706ZM828.461 704H830.461V708H834.461V710H830.461V718H828.461V710H826.461V708H828.461V704ZM830.461 718H834.461V720H830.461V718ZM834.461 716H836.461V718H834.461V716ZM840.469 714H842.469V718H840.469V714ZM842.469 718H846.469V720H842.469V718ZM846.469 716H848.469V714H842.469V712H848.469V710H850.469V720H848.469V718H846.469V716ZM842.469 708H848.469V710H842.469V708ZM854.477 718H864.477V720H854.477V718ZM868.484 714H870.484V718H868.484V714ZM870.484 718H874.484V720H870.484V718ZM874.484 716H876.484V714H870.484V712H876.484V710H878.484V720H876.484V718H874.484V716ZM870.484 708H876.484V710H870.484V708ZM884.492 708H888.492V710H884.492V708ZM888.492 710H890.492V708H892.492V724H890.492V718H888.492V716H890.492V712H888.492V710ZM882.492 710H884.492V718H882.492V710ZM884.492 718H888.492V720H884.492V718ZM902.5 706H904.5V718H902.5V706ZM900.5 718H902.5V720H900.5V718ZM898.5 720H900.5V722H898.5V720ZM898.5 702H900.5V704H898.5V702ZM902.5 706H900.5V704H902.5V706ZM914.508 716H916.508V720H914.508V716ZM926.516 710H924.516V708H926.516V706H928.516V708H932.516V710H928.516V720H926.516V710ZM928.516 704H934.516V706H928.516V704ZM942.523 706H940.523V704H944.523V718H948.523V720H938.523V718H942.523V706ZM954.531 708H960.531V710H954.531V708ZM960.531 710H962.531V718H960.531V710ZM952.531 710H954.531V718H952.531V710ZM954.531 718H960.531V720H954.531V718ZM968.539 708H974.539V710H968.539V708ZM974.539 710H976.539V718H974.539V710ZM966.539 710H968.539V718H966.539V710ZM968.539 718H974.539V720H968.539V718ZM980.547 708H982.547V710H984.547V712H982.547V720H980.547V708ZM988.547 708V710H984.547V708H988.547ZM988.547 710H990.547V712H988.547V710ZM996.555 706H998.555V718H996.555V706ZM1000.55 720H998.555V718H1000.55V720ZM1000.55 720H1002.55V722H1000.55V720ZM1000.55 702H1002.55V704H1000.55V702ZM998.555 704H1000.55V706H998.555V704ZM1014.56 706H1016.56V718H1014.56V706ZM1012.56 718H1014.56V720H1012.56V718ZM1010.56 720H1012.56V722H1010.56V720ZM1010.56 702H1012.56V704H1010.56V702ZM1014.56 706H1012.56V704H1014.56V706ZM1036.58 714H1038.58V718H1036.58V714ZM1038.58 718H1042.58V720H1038.58V718ZM1042.58 716H1044.58V714H1038.58V712H1044.58V710H1046.58V720H1044.58V718H1042.58V716ZM1038.58 708H1044.58V710H1038.58V708ZM1058.59 718V720H1052.59V718H1058.59ZM1052.59 718H1050.59V716H1052.59V718ZM1058.59 708V710H1052.59V708H1058.59ZM1050.59 710H1052.59V712H1050.59V710ZM1052.59 712H1058.59V714H1052.59V712ZM1058.59 714H1060.59V718H1058.59V714ZM1078.6 708H1080.6V718H1078.6V708ZM1080.6 718H1084.6V720H1080.6V718ZM1086.6 708H1088.6V720H1086.6V718H1084.6V716H1086.6V708ZM1092.61 706H1094.61V708H1092.61V706ZM1094.61 704H1100.61V706H1094.61V704ZM1100.61 706H1102.61V710H1100.61V706ZM1096.61 710H1100.61V712H1096.61V710ZM1100.61 712H1102.61V718H1100.61V712ZM1100.61 718V720H1094.61V718H1100.61ZM1094.61 718H1092.61V716H1094.61V718ZM1106.62 716H1108.62V718H1116.62V720H1106.62V716ZM1114.62 706H1108.62V704H1114.62V706ZM1114.62 706H1116.62V710H1114.62V706ZM1108.62 714H1110.62V716H1108.62V714ZM1106.62 706H1108.62V708H1106.62V706ZM1112.62 710H1114.62V712H1112.62V710ZM1110.62 712H1112.62V714H1110.62V712ZM60.0313 736H62.0313V742H60.0313V736ZM66.0313 742V744H62.0313V742H66.0313ZM60.0313 744H62.0313V752H60.0313V744ZM60.0313 752V754H56.0313V752H60.0313ZM60.0313 734V736H56.0313V734H60.0313ZM4 768H6V774H4V768ZM10 774V776H6V774H10ZM4 776H6V784H4V776ZM4 784V786H5.96046e-08V784H4ZM4 766V768H5.96046e-08V766H4Z" fill="#BBBBBB"/>
<path d="M154.086 96H156.086V110H164.086V112H154.086V96ZM172.094 96H174.094V98H172.094V96ZM172.094 102H170.094V100H174.094V110H178.094V112H168.094V110H172.094V102ZM184.102 102H182.102V100H184.102V98H186.102V100H190.102V102H186.102V112H184.102V102ZM186.102 96H192.102V98H186.102V96ZM198.109 100H204.109V102H198.109V100ZM196.109 102H198.109V104H204.109V102H206.109V106H198.109V110H196.109V102ZM198.109 110H204.109V112H198.109V110ZM204.109 108H206.109V110H204.109V108ZM210.117 98H212.117V102H210.117V98ZM212.117 102H218.117V104H212.117V102ZM218.117 110V112H212.117V110H218.117ZM212.117 110H210.117V108H212.117V110ZM218.117 104H220.117V110H218.117V104ZM212.117 96H218.117V98H212.117V96ZM218.117 98H220.117V100H218.117V98ZM224.125 100H226.125V110H224.125V100ZM226.125 110H230.125V112H226.125V110ZM232.125 100H234.125V112H232.125V110H230.125V108H232.125V100ZM238.133 100H240.133V102H242.133V104H240.133V108H242.133V110H240.133V116H238.133V100ZM242.133 100H246.133V102H242.133V100ZM246.133 102H248.133V110H246.133V102ZM242.133 110H246.133V112H242.133V110ZM252.141 100H254.141V102H256.141V104H254.141V108H256.141V110H254.141V116H252.141V100ZM256.141 100H260.141V102H256.141V100ZM260.141 102H262.141V110H260.141V102ZM256.141 110H260.141V112H256.141V110ZM268.148 100H274.148V102H268.148V100ZM274.148 102H276.148V110H274.148V102ZM266.148 102H268.148V110H266.148V102ZM268.148 110H274.148V112H268.148V110ZM280.156 100H282.156V102H284.156V104H282.156V112H280.156V100ZM288.156 100V102H284.156V100H288.156ZM288.156 102H290.156V104H288.156V102ZM296.164 96H298.164V100H302.164V102H298.164V110H296.164V102H294.164V100H296.164V96ZM298.164 110H302.164V112H298.164V110ZM302.164 108H304.164V110H302.164V108ZM140.078 288H142.078V302H150.078V304H140.078V288ZM158.086 288H160.086V290H158.086V288ZM158.086 294H156.086V292H160.086V302H164.086V304H154.086V302H158.086V294ZM170.094 294H168.094V292H170.094V290H172.094V292H176.094V294H172.094V304H170.094V294ZM172.094 288H178.094V290H172.094V288ZM184.102 292H190.102V294H184.102V292ZM182.102 294H184.102V296H190.102V294H192.102V298H184.102V302H182.102V294ZM184.102 302H190.102V304H184.102V302ZM190.102 300H192.102V302H190.102V300ZM196.109 290H198.109V294H196.109V290ZM198.109 294H204.109V296H198.109V294ZM204.109 302V304H198.109V302H204.109ZM198.109 302H196.109V300H198.109V302ZM204.109 296H206.109V302H204.109V296ZM198.109 288H204.109V290H198.109V288ZM204.109 290H206.109V292H204.109V290ZM210.117 292H212.117V302H210.117V292ZM212.117 302H216.117V304H212.117V302ZM218.117 292H220.117V304H218.117V302H216.117V300H218.117V292ZM224.125 292H226.125V294H228.125V296H226.125V300H228.125V302H226.125V308H224.125V292ZM228.125 292H232.125V294H228.125V292ZM232.125 294H234.125V302H232.125V294ZM228.125 302H232.125V304H228.125V302ZM238.133 292H240.133V294H242.133V296H240.133V300H242.133V302H240.133V308H238.133V292ZM242.133 292H246.133V294H242.133V292ZM246.133 294H248.133V302H246.133V294ZM242.133 302H246.133V304H242.133V302ZM254.141 292H260.141V294H254.141V292ZM260.141 294H262.141V302H260.141V294ZM252.141 294H254.141V302H252.141V294ZM254.141 302H260.141V304H254.141V302ZM266.148 292H268.148V294H270.148V296H268.148V304H266.148V292ZM274.148 292V294H270.148V292H274.148ZM274.148 294H276.148V296H274.148V294ZM282.156 288H284.156V292H288.156V294H284.156V302H282.156V294H280.156V292H282.156V288ZM284.156 302H288.156V304H284.156V302ZM288.156 300H290.156V302H288.156V300Z" fill="#FFA43A"/>
</svg>
