<svg width="326" height="482" viewBox="0 0 326 482" fill="none" xmlns="http://www.w3.org/2000/svg">
<mask id="mask0_589_45483" style="mask-type:alpha" maskUnits="userSpaceOnUse" x="0" y="0" width="326" height="482">
<path fill-rule="evenodd" clip-rule="evenodd" d="M0 44.25L44 0.25H326V481.75H0V44.25ZM163 72.25C174.046 72.25 183 63.2957 183 52.25C183 41.2043 174.046 32.25 163 32.25C151.954 32.25 143 41.2043 143 52.25C143 63.2957 151.954 72.25 163 72.25Z" fill="#B5B58B"/>
</mask>
<g mask="url(#mask0_589_45483)">
<path fill-rule="evenodd" clip-rule="evenodd" d="M0 44.25L44 0.25H326V481.75H0V44.25ZM163 72.25C174.046 72.25 183 63.2957 183 52.25C183 41.2043 174.046 32.25 163 32.25C151.954 32.25 143 41.2043 143 52.25C143 63.2957 151.954 72.25 163 72.25Z" fill="#8AA788"/>
<path opacity="0.2" fill-rule="evenodd" clip-rule="evenodd" d="M163 82.25C179.569 82.25 193 68.8185 193 52.25C193 35.6815 179.569 22.25 163 22.25C146.431 22.25 133 35.6815 133 52.25C133 68.8185 146.431 82.25 163 82.25ZM163 72.25C174.046 72.25 183 63.2957 183 52.25C183 41.2043 174.046 32.25 163 32.25C151.954 32.25 143 41.2043 143 52.25C143 63.2957 151.954 72.25 163 72.25Z" fill="#444444"/>
<path d="M78.4492 468.75H79.4492V471.75H78.4492V468.75ZM74.4492 468.75H75.4492V471.75H74.4492V468.75ZM76.4492 466.75H75.4492V465.75H76.4492V466.75ZM76.4492 466.75H77.4492V467.75H76.4492V466.75ZM77.4492 465.75H78.4492V466.75H77.4492V465.75ZM75.4492 465.75H74.4492V463.75H75.4492V465.75ZM75.4492 467.75H76.4492V468.75H75.4492V467.75ZM78.4492 463.75H79.4492V465.75H78.4492V463.75ZM77.4492 467.75H78.4492V468.75H77.4492V467.75ZM96.4531 468.75H97.4531V471.75H96.4531V468.75ZM92.4531 468.75H93.4531V471.75H92.4531V468.75ZM94.4531 466.75H93.4531V465.75H94.4531V466.75ZM94.4531 466.75H95.4531V467.75H94.4531V466.75ZM95.4531 465.75H96.4531V466.75H95.4531V465.75ZM93.4531 465.75H92.4531V463.75H93.4531V465.75ZM93.4531 467.75H94.4531V468.75H93.4531V467.75ZM96.4531 463.75H97.4531V465.75H96.4531V463.75ZM95.4531 467.75H96.4531V468.75H95.4531V467.75ZM114.457 467.75V468.75H111.457V467.75H114.457ZM128.461 469.75H129.461V470.75H133.461V471.75H128.461V469.75ZM132.461 464.75H129.461V463.75H132.461V464.75ZM132.461 464.75H133.461V466.75H132.461V464.75ZM129.461 468.75H130.461V469.75H129.461V468.75ZM128.461 464.75H129.461V465.75H128.461V464.75ZM131.461 466.75H132.461V467.75H131.461V466.75ZM130.461 467.75H131.461V468.75H130.461V467.75ZM149.465 463.75H151.465V471.75H150.465V469.75H146.465V466.75H147.465V468.75H150.465V464.75H149.465V463.75ZM148.465 464.75H149.465V465.75H148.465V464.75ZM147.465 465.75H148.465V466.75H147.465V465.75ZM164.469 464.75H165.469V466.75H164.469V464.75ZM168.469 464.75H165.469V463.75H168.469V464.75ZM168.469 464.75H169.469V466.75H168.469V464.75ZM165.469 466.75H168.469V467.75H165.469V466.75ZM168.469 467.75H169.469V470.75H168.469V467.75ZM164.469 467.75H165.469V470.75H164.469V467.75ZM168.469 470.75V471.75H165.469V470.75H168.469ZM182.473 464.75H183.473V466.75H182.473V464.75ZM186.473 464.75H183.473V463.75H186.473V464.75ZM186.473 464.75H187.473V466.75H186.473V464.75ZM183.473 466.75H186.473V467.75H183.473V466.75ZM186.473 467.75H187.473V470.75H186.473V467.75ZM182.473 467.75H183.473V470.75H182.473V467.75ZM186.473 470.75V471.75H183.473V470.75H186.473ZM200.477 464.75H201.477V465.75H200.477V464.75ZM201.477 463.75H204.477V464.75H201.477V463.75ZM204.477 464.75H205.477V466.75H204.477V464.75ZM202.477 466.75H204.477V467.75H202.477V466.75ZM204.477 467.75H205.477V470.75H204.477V467.75ZM204.477 470.75V471.75H201.477V470.75H204.477ZM201.477 470.75H200.477V469.75H201.477V470.75ZM220.48 465.75H218.48V464.75H220.48V463.75H221.48V470.75H223.48V471.75H218.48V470.75H220.48V465.75ZM240.484 470.75V471.75H237.484V470.75H240.484ZM237.484 470.75H236.484V469.75H237.484V470.75ZM240.484 467.75V464.75H241.484V470.75H240.484V468.75H237.484V467.75H240.484ZM237.484 467.75H236.484V464.75H237.484V467.75ZM237.484 463.75H240.484V464.75H237.484V463.75ZM254.488 464.75H255.488V466.75H254.488V464.75ZM258.488 464.75H255.488V463.75H258.488V464.75ZM258.488 464.75H259.488V466.75H258.488V464.75ZM255.488 466.75H258.488V467.75H255.488V466.75ZM258.488 467.75H259.488V470.75H258.488V467.75ZM254.488 467.75H255.488V470.75H254.488V467.75ZM258.488 470.75V471.75H255.488V470.75H258.488ZM275.492 463.75H277.492V471.75H276.492V469.75H272.492V466.75H273.492V468.75H276.492V464.75H275.492V463.75ZM274.492 464.75H275.492V465.75H274.492V464.75ZM273.492 465.75H274.492V466.75H273.492V465.75ZM290.496 464.75H291.496V467.75H292.496V468.75H291.496V470.75H290.496V464.75ZM291.496 470.75H294.496V471.75H291.496V470.75ZM291.496 463.75H294.496V464.75H291.496V463.75ZM294.496 464.75H295.496V470.75H294.496V466.75H293.496V465.75H294.496V464.75ZM292.496 466.75H293.496V467.75H292.496V466.75Z" fill="#444444"/>
<path d="M-0.515625 453.75H13.4844V481.75H-0.515625V453.75ZM17.4922 465.75H19.4922V463.75H17.4922V465.75ZM17.4922 457.75V455.75H15.4922V457.75H17.4922ZM21.4922 459.75H19.4922V461.75H21.4922V459.75ZM25.4922 459.75H27.4922V479.75H25.4922V481.75H13.4922V469.75H15.4922V467.75H13.4922V453.75H27.4922V457.75H25.4922V459.75ZM19.4922 471.75H17.4922V473.75H19.4922V471.75ZM23.4922 465.75H25.4922V463.75H23.4922V465.75ZM25.4922 469.75H23.4922V471.75H25.4922V469.75ZM23.4922 475.75H21.4922V477.75H23.4922V475.75ZM17.4922 477.75H15.4922V479.75H17.4922V477.75ZM27.5 453.75H29.5V455.75H31.5V457.75H29.5V459.75H27.5V453.75ZM31.5 453.75H33.5V455.75H31.5V453.75ZM39.5 453.75V455.75H41.5V457.75H39.5V459.75H41.5V463.75H39.5V461.75H37.5V463.75H35.5V465.75H37.5V463.75H39.5V465.75H41.5V471.75H39.5V469.75H37.5V467.75H35.5V469.75H33.5V467.75H31.5V465.75H33.5V463.75H31.5V461.75H29.5V459.75H31.5V457.75H33.5V455.75H35.5V453.75H39.5ZM37.5 457.75H35.5V459.75H33.5V461.75H35.5V459.75H37.5V457.75ZM27.5 461.75H29.5V463.75H31.5V465.75H29.5V467.75H27.5V461.75ZM27.5 469.75H29.5V467.75H31.5V469.75H33.5V471.75H35.5V469.75H37.5V471.75H39.5V473.75H37.5V475.75H35.5V477.75H37.5V475.75H39.5V477.75H41.5V481.75H39.5V479.75H37.5V481.75H35.5V479.75H33.5V477.75H31.5V475.75H33.5V473.75H31.5V471.75H29.5V473.75H31.5V475.75H29.5V477.75H27.5V469.75ZM39.5 473.75H41.5V475.75H39.5V473.75ZM29.5 477.75H31.5V479.75H33.5V481.75H27.5V479.75H29.5V477.75ZM43.5078 453.75H45.5078V455.75H43.5078V453.75ZM41.5078 455.75H43.5078V457.75H41.5078V455.75ZM45.5078 455.75H47.5078V457.75H45.5078V455.75ZM51.5078 453.75H53.5078V455.75H51.5078V453.75ZM49.5078 455.75H51.5078V457.75H49.5078V455.75ZM47.5078 457.75H49.5078V459.75H47.5078V457.75ZM53.5078 457.75H55.5078V459.75H53.5078V457.75ZM49.5078 459.75H51.5078V461.75H49.5078V459.75ZM43.5078 459.75H45.5078V461.75H43.5078V459.75ZM47.5078 465.75H45.5078V463.75H47.5078V465.75ZM47.5078 465.75H49.5078V467.75H47.5078V465.75ZM53.5078 461.75H55.5078V463.75H53.5078V461.75ZM49.5078 463.75H47.5078V461.75H49.5078V463.75ZM49.5078 463.75H51.5078V465.75H49.5078V463.75ZM41.5078 463.75H43.5078V465.75H41.5078V463.75ZM45.5078 467.75H47.5078V469.75H45.5078V467.75ZM51.5078 465.75H53.5078V467.75H51.5078V465.75ZM41.5078 467.75H43.5078V469.75H41.5078V467.75ZM43.5078 471.75H45.5078V473.75H43.5078V471.75ZM47.5078 471.75H49.5078V473.75H47.5078V471.75ZM49.5078 469.75H51.5078V471.75H49.5078V469.75ZM53.5078 469.75H55.5078V471.75H53.5078V469.75ZM51.5078 473.75H53.5078V475.75H51.5078V473.75ZM41.5078 473.75H43.5078V475.75H41.5078V473.75ZM43.5078 475.75H45.5078V477.75H43.5078V475.75ZM47.5078 475.75H49.5078V477.75H47.5078V475.75ZM45.5078 477.75H47.5078V479.75H45.5078V477.75ZM49.5078 477.75H51.5078V479.75H49.5078V477.75ZM47.5078 479.75H49.5078V481.75H47.5078V479.75ZM41.5078 477.75H43.5078V479.75H41.5078V477.75ZM53.5078 479.75H55.5078V481.75H53.5078V479.75ZM53.5078 475.75H55.5078V477.75H53.5078V475.75Z" fill="#444444"/>
<rect y="452.75" width="326" height="1" fill="#444444"/>
<rect y="450.75" width="326" height="1" fill="#444444"/>
<path d="M75 292.25H78V301.25H81V298.25H84V304.25H78V316.25H75V292.25ZM87 292.25H90V295.25H87V292.25ZM84 295.25H87V298.25H84V295.25ZM87 310.25H84V304.25H87V310.25ZM87 310.25H90V316.25H87V310.25ZM102.012 292.25H105.012V313.25H102.012V292.25ZM105.012 313.25H114.012V316.25H105.012V313.25ZM114.012 292.25H117.012V313.25H114.012V292.25ZM135.023 313.25V295.25H129.023V292.25H144.023V295.25H138.023V313.25H144.023V316.25H129.023V313.25H135.023ZM156.035 292.25H168.035V295.25H159.035V304.25H168.035V307.25H159.035V316.25H156.035V292.25ZM168.035 295.25H171.035V304.25H168.035V295.25ZM183.047 292.25H198.047V295.25H186.047V301.25H195.047V304.25H186.047V313.25H198.047V316.25H183.047V292.25ZM210.059 292.25H222.059V295.25H213.059V304.25H222.059V310.25H219.059V307.25H213.059V316.25H210.059V292.25ZM222.059 295.25H225.059V304.25H222.059V295.25ZM222.059 310.25H225.059V316.25H222.059V310.25ZM75 340.25H78V346.25H87V340.25H90V358.25H87V349.25H78V358.25H75V340.25ZM81 334.25H84V337.25H81V334.25ZM78 337.25H81V340.25H78V337.25ZM84 337.25H87V340.25H84V337.25ZM102.012 334.25H105.012V355.25H117.012V358.25H102.012V334.25ZM129.023 334.25H141.023V337.25H132.023V346.25H141.023V349.25H132.023V358.25H129.023V334.25ZM141.023 337.25H144.023V346.25H141.023V337.25ZM156.035 334.25H159.035V343.25H168.035V334.25H171.035V358.25H168.035V346.25H159.035V358.25H156.035V334.25ZM183.047 340.25H186.047V346.25H195.047V340.25H198.047V358.25H195.047V349.25H186.047V358.25H183.047V340.25ZM189.047 334.25H192.047V337.25H189.047V334.25ZM186.047 337.25H189.047V340.25H186.047V337.25ZM192.047 337.25H195.047V340.25H192.047V337.25Z" fill="#444444"/>
<path d="M45 199.919H46V450.919H45V199.919Z" fill="#444444"/>
<path d="M16 377.771L16 373.771L17 373.771L17 376.771L23 376.771L23 373.771L24 373.771L24 377.771L16 377.771ZM17 373.771L17 372.771L23 372.771L23 373.771L17 373.771ZM16 367.768L16 362.768L17 362.768L17 366.768L19 366.768L19 363.768L20 363.768L20 366.768L23 366.768L23 362.768L24 362.768L24 367.768L16 367.768ZM17 357.764L17 356.764L19 356.764L19 357.764L17 357.764ZM19 356.764L19 353.764L20 353.764L20 356.764L19 356.764ZM23 353.764L24 353.764L24 356.764L23 356.764L23 353.764ZM23 356.764L23 357.764L22 357.764L22 356.764L23 356.764ZM20 353.764L20 352.764L23 352.764L23 353.764L20 353.764ZM16 356.764L16 353.764L17 353.764L17 356.764L16 356.764ZM17 353.764L17 352.764L18 352.764L18 353.764L17 353.764ZM16 347.76L16 342.76L17 342.76L17 344.76L24 344.76L24 345.76L17 345.76L17 347.76L16 347.76ZM23 335.756L17 335.756L17 337.756L16 337.756L16 332.756L17 332.756L17 334.756L23 334.756L23 332.756L24 332.756L24 337.756L23 337.756L23 335.756ZM16 327.752L16 326.752L18 326.752L18 325.752L19 325.752L19 326.752L24 326.752L24 327.752L16 327.752ZM21 323.752L21 324.752L20 324.752L20 323.752L16 323.752L16 322.752L24 322.752L24 323.752L21 323.752ZM20 324.752L20 325.752L19 325.752L19 324.752L20 324.752ZM18 317.748L18 316.748L20 316.748L20 313.748L18 313.748L18 312.748L24 312.748L24 313.748L21 313.748L21 316.748L24 316.748L24 317.748L18 317.748ZM16 315.748L16 314.748L17 314.748L17 315.748L16 315.748ZM17 316.748L17 315.748L18 315.748L18 316.748L17 316.748ZM17 314.748L17 313.748L18 313.748L18 314.748L17 314.748ZM16 307.744L16 302.744L17 302.744L17 304.744L24 304.744L24 305.744L17 305.744L17 307.744L16 307.744ZM23 295.74L17 295.74L17 297.74L16 297.74L16 292.74L17 292.74L17 294.74L23 294.74L23 292.74L24 292.74L24 297.74L23 297.74L23 295.74ZM17 287.736L17 286.736L23 286.736L23 287.736L17 287.736ZM23 286.736L23 283.736L24 283.736L24 286.736L23 286.736ZM17 283.736L17 282.736L23 282.736L23 283.736L17 283.736ZM16 286.736L16 283.736L17 283.736L17 286.736L16 286.736ZM16 277.732L16 276.732L18 276.732L18 275.732L19 275.732L19 276.732L24 276.732L24 277.732L16 277.732ZM21 273.732L21 274.732L20 274.732L20 273.732L16 273.732L16 272.732L24 272.732L24 273.732L21 273.732ZM20 274.732L20 275.732L19 275.732L19 274.732L20 274.732Z" fill="#444444"/>
<rect x="16" y="197.25" width="294" height="1" fill="#444444"/>
<rect x="16" y="199.25" width="294" height="1" fill="#444444"/>
<path d="M229.953 165.25H231.953V171.25H229.953V165.25ZM221.953 165.25H223.953V171.25H221.953V165.25ZM225.953 161.25H223.953V159.25H225.953V161.25ZM225.953 161.25H227.953V163.25H225.953V161.25ZM227.953 159.25H229.953V161.25H227.953V159.25ZM223.953 159.25H221.953V155.25H223.953V159.25ZM223.953 163.25H225.953V165.25H223.953V163.25ZM229.953 155.25H231.953V159.25H229.953V155.25ZM227.953 163.25H229.953V165.25H227.953V163.25ZM243.961 165.25H245.961V171.25H243.961V165.25ZM235.961 165.25H237.961V171.25H235.961V165.25ZM239.961 161.25H237.961V159.25H239.961V161.25ZM239.961 161.25H241.961V163.25H239.961V161.25ZM241.961 159.25H243.961V161.25H241.961V159.25ZM237.961 159.25H235.961V155.25H237.961V159.25ZM237.961 163.25H239.961V165.25H237.961V163.25ZM243.961 155.25H245.961V159.25H243.961V155.25ZM241.961 163.25H243.961V165.25H241.961V163.25ZM251.969 165.25H253.969V171.25H251.969V165.25ZM253.969 163.25H255.969V165.25H253.969V163.25ZM255.969 161.25H257.969V163.25H255.969V161.25ZM257.969 157.25H249.969V155.25H259.969V161.25H257.969V157.25ZM263.977 157.25H265.977V161.25H263.977V157.25ZM271.977 157.25H265.977V155.25H271.977V157.25ZM271.977 157.25H273.977V161.25H271.977V157.25ZM265.977 161.25H271.977V163.25H265.977V161.25ZM271.977 163.25H273.977V169.25H271.977V163.25ZM263.977 163.25H265.977V169.25H263.977V163.25ZM271.977 169.25V171.25H265.977V169.25H271.977ZM285.984 169.25V171.25H279.984V169.25H285.984ZM279.984 169.25H277.984V167.25H279.984V169.25ZM285.984 163.25V157.25H287.984V169.25H285.984V165.25H279.984V163.25H285.984ZM279.984 163.25H277.984V157.25H279.984V163.25ZM279.984 155.25H285.984V157.25H279.984V155.25ZM299.992 163.25V161.25H301.992V163.25H303.992V165.25H301.992V167.25H299.992V165.25H289.992V163.25H299.992ZM299.992 161.25H297.992V159.25H299.992V161.25ZM297.992 167.25H299.992V169.25H297.992V167.25Z" fill="#444444"/>
<path d="M187 131.25H188V137.25H187V131.25ZM188 137.25H191V138.25H188V137.25ZM191 131.25H192V137.25H191V131.25ZM188 130.25H191V131.25H188V130.25ZM197.004 130.25H201.004V131.25H198.004V134.25H201.004V136.25H200.004V135.25H198.004V138.25H197.004V130.25ZM201.004 131.25H202.004V134.25H201.004V131.25ZM201.004 136.25H202.004V138.25H201.004V136.25ZM209.008 137.25V131.25H207.008V130.25H212.008V131.25H210.008V137.25H212.008V138.25H207.008V137.25H209.008ZM217.012 131.25H218.012V137.25H217.012V131.25ZM218.012 137.25H221.012V138.25H218.012V137.25ZM221.012 135.25H220.012V134.25H222.012V137.25H221.012V135.25ZM218.012 130.25H221.012V131.25H218.012V130.25ZM221.012 131.25H222.012V132.25H221.012V131.25ZM229.016 136.25H230.016V138.25H229.016V136.25ZM247.023 130.25H252.023V131.25H248.023V133.25H251.023V134.25H248.023V138.25H247.023V130.25ZM257.027 130.25H258.027V137.25H262.027V138.25H257.027V130.25ZM269.031 137.25V131.25H267.031V130.25H272.031V131.25H270.031V137.25H272.031V138.25H267.031V137.25H269.031ZM277.035 131.25H278.035V137.25H277.035V131.25ZM278.035 137.25H281.035V138.25H278.035V137.25ZM281.035 135.25H280.035V134.25H282.035V137.25H281.035V135.25ZM278.035 130.25H281.035V131.25H278.035V130.25ZM281.035 131.25H282.035V132.25H281.035V131.25ZM287.039 130.25H288.039V133.25H291.039V130.25H292.039V138.25H291.039V134.25H288.039V138.25H287.039V130.25ZM297.043 130.25H302.043V131.25H300.043V138.25H299.043V131.25H297.043V130.25Z" fill="#444444"/>
<rect x="123" y="105.25" width="1" height="93" fill="#444444"/>
<rect x="121" y="105.25" width="1" height="93" fill="#444444"/>
<path d="M58 163.25H59V170.25H63V171.25H58V163.25ZM68.0039 163.25H72.0039V164.25H69.0039V166.25H72.0039V167.25H69.0039V170.25H72.0039V171.25H68.0039V163.25ZM72.0039 167.25H73.0039V170.25H72.0039V167.25ZM72.0039 164.25H73.0039V166.25H72.0039V164.25ZM78.0078 164.25H79.0078V166.25H78.0078V164.25ZM79.0078 166.25H82.0078V167.25H79.0078V166.25ZM82.0078 170.25V171.25H79.0078V170.25H82.0078ZM79.0078 170.25H78.0078V169.25H79.0078V170.25ZM82.0078 167.25H83.0078V170.25H82.0078V167.25ZM79.0078 163.25H82.0078V164.25H79.0078V163.25ZM82.0078 164.25H83.0078V165.25H82.0078V164.25Z" fill="#444444"/>
<path d="M30 155.25H34V171.25H32V167.25H24V161.25H26V165.25H32V157.25H30V155.25ZM28 157.25H30V159.25H28V157.25ZM26 159.25H28V161.25H26V159.25ZM38.0078 155.25H48.0078V157.25H40.0078V161.25H46.0078V163.25H38.0078V155.25ZM46.0078 163.25H48.0078V169.25H46.0078V163.25ZM46.0078 169.25V171.25H40.0078V169.25H46.0078ZM40.0078 169.25H38.0078V167.25H40.0078V169.25Z" fill="#444444"/>
<path d="M23 130.25H24V135.25H23V130.25ZM24 135.25H25V138.25H24V135.25ZM27 130.25H28V135.25H27V130.25ZM26 135.25H27V138.25H26V135.25ZM25 133.25H26V135.25H25V133.25ZM33.0039 130.25H38.0039V131.25H34.0039V133.25H37.0039V134.25H34.0039V137.25H38.0039V138.25H33.0039V130.25ZM45.0078 137.25V131.25H43.0078V130.25H48.0078V131.25H46.0078V137.25H48.0078V138.25H43.0078V137.25H45.0078ZM53.0117 131.25H54.0117V137.25H53.0117V131.25ZM54.0117 137.25H57.0117V138.25H54.0117V137.25ZM57.0117 135.25H56.0117V134.25H58.0117V137.25H57.0117V135.25ZM54.0117 130.25H57.0117V131.25H54.0117V130.25ZM57.0117 131.25H58.0117V132.25H57.0117V131.25ZM63.0156 130.25H64.0156V133.25H67.0156V130.25H68.0156V138.25H67.0156V134.25H64.0156V138.25H63.0156V130.25ZM73.0195 130.25H78.0195V131.25H76.0195V138.25H75.0195V131.25H73.0195V130.25Z" fill="#444444"/>
<rect x="16" y="104.25" width="294" height="1" fill="#444444"/>
</g>
</svg>
