<svg width="326" height="482" viewBox="0 0 326 482" fill="none" xmlns="http://www.w3.org/2000/svg">
<mask id="mask0_589_45483" style="mask-type:alpha" maskUnits="userSpaceOnUse" x="0" y="0" width="326" height="482">
<path fill-rule="evenodd" clip-rule="evenodd" d="M0 44.25L44 0.25H326V481.75H0V44.25ZM163 72.25C174.046 72.25 183 63.2957 183 52.25C183 41.2043 174.046 32.25 163 32.25C151.954 32.25 143 41.2043 143 52.25C143 63.2957 151.954 72.25 163 72.25Z" fill="#B5B58B"/>
</mask>
<g mask="url(#mask0_589_45483)">
<path fill-rule="evenodd" clip-rule="evenodd" d="M0 44.25L44 0.25H326V481.75H0V44.25ZM163 72.25C174.046 72.25 183 63.2957 183 52.25C183 41.2043 174.046 32.25 163 32.25C151.954 32.25 143 41.2043 143 52.25C143 63.2957 151.954 72.25 163 72.25Z" fill="#8AA788"/>
<path opacity="0.2" fill-rule="evenodd" clip-rule="evenodd" d="M163 82.25C179.569 82.25 193 68.8185 193 52.25C193 35.6815 179.569 22.25 163 22.25C146.431 22.25 133 35.6815 133 52.25C133 68.8185 146.431 82.25 163 82.25ZM163 72.25C174.046 72.25 183 63.2957 183 52.25C183 41.2043 174.046 32.25 163 32.25C151.954 32.25 143 41.2043 143 52.25C143 63.2957 151.954 72.25 163 72.25Z" fill="#444444"/>
<path d="M78.4492 464.75H79.4492V467.75H78.4492V464.75ZM74.4492 464.75H75.4492V467.75H74.4492V464.75ZM76.4492 462.75H75.4492V461.75H76.4492V462.75ZM76.4492 462.75H77.4492V463.75H76.4492V462.75ZM77.4492 461.75H78.4492V462.75H77.4492V461.75ZM75.4492 461.75H74.4492V459.75H75.4492V461.75ZM75.4492 463.75H76.4492V464.75H75.4492V463.75ZM78.4492 459.75H79.4492V461.75H78.4492V459.75ZM77.4492 463.75H78.4492V464.75H77.4492V463.75ZM96.4531 464.75H97.4531V467.75H96.4531V464.75ZM92.4531 464.75H93.4531V467.75H92.4531V464.75ZM94.4531 462.75H93.4531V461.75H94.4531V462.75ZM94.4531 462.75H95.4531V463.75H94.4531V462.75ZM95.4531 461.75H96.4531V462.75H95.4531V461.75ZM93.4531 461.75H92.4531V459.75H93.4531V461.75ZM93.4531 463.75H94.4531V464.75H93.4531V463.75ZM96.4531 459.75H97.4531V461.75H96.4531V459.75ZM95.4531 463.75H96.4531V464.75H95.4531V463.75ZM115.457 463.75V464.75H110.457V463.75H115.457ZM128.461 465.75H129.461V466.75H133.461V467.75H128.461V465.75ZM132.461 460.75H129.461V459.75H132.461V460.75ZM132.461 460.75H133.461V462.75H132.461V460.75ZM129.461 464.75H130.461V465.75H129.461V464.75ZM128.461 460.75H129.461V461.75H128.461V460.75ZM131.461 462.75H132.461V463.75H131.461V462.75ZM130.461 463.75H131.461V464.75H130.461V463.75ZM149.465 460.75H150.465V459.75H151.465V467.75H150.465V465.75H146.465V463.75H147.465V464.75H150.465V461.75H149.465V460.75ZM148.465 461.75H149.465V462.75H148.465V461.75ZM147.465 462.75H148.465V463.75H147.465V462.75ZM164.469 460.75H165.469V462.75H164.469V460.75ZM168.469 460.75H165.469V459.75H168.469V460.75ZM168.469 460.75H169.469V462.75H168.469V460.75ZM165.469 462.75H168.469V463.75H165.469V462.75ZM168.469 463.75H169.469V466.75H168.469V463.75ZM164.469 463.75H165.469V466.75H164.469V463.75ZM168.469 466.75V467.75H165.469V466.75H168.469ZM182.473 460.75H183.473V462.75H182.473V460.75ZM186.473 460.75H183.473V459.75H186.473V460.75ZM186.473 460.75H187.473V462.75H186.473V460.75ZM183.473 462.75H186.473V463.75H183.473V462.75ZM186.473 463.75H187.473V466.75H186.473V463.75ZM182.473 463.75H183.473V466.75H182.473V463.75ZM186.473 466.75V467.75H183.473V466.75H186.473ZM200.477 460.75H201.477V461.75H200.477V460.75ZM201.477 459.75H204.477V460.75H201.477V459.75ZM204.477 460.75H205.477V462.75H204.477V460.75ZM202.477 462.75H204.477V463.75H202.477V462.75ZM204.477 463.75H205.477V466.75H204.477V463.75ZM204.477 466.75V467.75H201.477V466.75H204.477ZM201.477 466.75H200.477V465.75H201.477V466.75ZM220.48 461.75H218.48V460.75H220.48V459.75H221.48V466.75H223.48V467.75H218.48V466.75H220.48V461.75ZM240.484 466.75V467.75H237.484V466.75H240.484ZM237.484 466.75H236.484V465.75H237.484V466.75ZM240.484 463.75V460.75H241.484V466.75H240.484V464.75H237.484V463.75H240.484ZM237.484 463.75H236.484V460.75H237.484V463.75ZM237.484 459.75H240.484V460.75H237.484V459.75ZM254.488 460.75H255.488V462.75H254.488V460.75ZM258.488 460.75H255.488V459.75H258.488V460.75ZM258.488 460.75H259.488V462.75H258.488V460.75ZM255.488 462.75H258.488V463.75H255.488V462.75ZM258.488 463.75H259.488V466.75H258.488V463.75ZM254.488 463.75H255.488V466.75H254.488V463.75ZM258.488 466.75V467.75H255.488V466.75H258.488ZM275.492 460.75H276.492V459.75H277.492V467.75H276.492V465.75H272.492V463.75H273.492V464.75H276.492V461.75H275.492V460.75ZM274.492 461.75H275.492V462.75H274.492V461.75ZM273.492 462.75H274.492V463.75H273.492V462.75ZM290.496 460.75H291.496V463.75H292.496V464.75H291.496V466.75H290.496V460.75ZM291.496 466.75H294.496V467.75H291.496V466.75ZM291.496 459.75H294.496V460.75H291.496V459.75ZM294.496 460.75H295.496V466.75H294.496V462.75H293.496V461.75H294.496V460.75ZM292.496 462.75H293.496V463.75H292.496V462.75Z" fill="#444444"/>
<path d="M-0.515625 445.75H13.4844V481.75H-0.515625V445.75ZM17.4922 461.75H19.4922V459.75H17.4922V461.75ZM17.4922 453.75V451.75H15.4922V453.75H17.4922ZM21.4922 455.75H19.4922V457.75H21.4922V455.75ZM25.4922 455.75H27.4922V475.75H25.4922V477.75H27.4922V481.75H23.4922V479.75H21.4922V481.75H15.4922V479.75H13.4922V465.75H15.4922V463.75H13.4922V445.75H17.4922V447.75H19.4922V445.75H27.4922V447.75H25.4922V449.75H27.4922V453.75H25.4922V455.75ZM19.4922 467.75H17.4922V469.75H19.4922V467.75ZM23.4922 461.75H25.4922V459.75H23.4922V461.75ZM25.4922 465.75H23.4922V467.75H25.4922V465.75ZM23.4922 471.75H21.4922V473.75H23.4922V471.75ZM17.4922 473.75H15.4922V475.75H17.4922V473.75ZM27.5 449.75H29.5V451.75H31.5V453.75H29.5V455.75H27.5V449.75ZM27.5 445.75H31.5V447.75H33.5V445.75H35.5V447.75H37.5V449.75H39.5V451.75H41.5V453.75H39.5V455.75H41.5V459.75H39.5V457.75H37.5V459.75H35.5V461.75H37.5V459.75H39.5V461.75H41.5V467.75H39.5V465.75H37.5V463.75H35.5V465.75H33.5V463.75H31.5V461.75H33.5V459.75H31.5V457.75H29.5V455.75H31.5V453.75H33.5V451.75H35.5V449.75H33.5V451.75H31.5V449.75H29.5V447.75H27.5V445.75ZM37.5 445.75H39.5V447.75H37.5V445.75ZM39.5 447.75H41.5V449.75H39.5V447.75ZM37.5 453.75H35.5V455.75H33.5V457.75H35.5V455.75H37.5V453.75ZM27.5 457.75H29.5V459.75H31.5V461.75H29.5V463.75H27.5V457.75ZM27.5 465.75H29.5V463.75H31.5V465.75H33.5V467.75H35.5V465.75H37.5V467.75H39.5V469.75H37.5V471.75H35.5V473.75H37.5V471.75H39.5V473.75H41.5V477.75H39.5V475.75H37.5V477.75H39.5V479.75H37.5V481.75H35.5V479.75H33.5V477.75H35.5V475.75H33.5V473.75H31.5V471.75H33.5V469.75H31.5V467.75H29.5V469.75H31.5V471.75H29.5V473.75H27.5V465.75ZM39.5 469.75H41.5V471.75H39.5V469.75ZM29.5 473.75H31.5V475.75H33.5V477.75H31.5V479.75H29.5V481.75H27.5V475.75H29.5V473.75ZM31.5 479.75H33.5V481.75H31.5V479.75ZM39.5 479.75H41.5V481.75H39.5V479.75ZM41.5078 447.75H43.5078V449.75H41.5078V447.75ZM43.5078 445.75H45.5078V447.75H43.5078V445.75ZM43.5078 449.75H45.5078V451.75H43.5078V449.75ZM41.5078 451.75H43.5078V453.75H41.5078V451.75ZM45.5078 451.75H47.5078V453.75H45.5078V451.75ZM47.5078 447.75H49.5078V449.75H47.5078V447.75ZM51.5078 449.75H53.5078V451.75H51.5078V449.75ZM49.5078 451.75H51.5078V453.75H49.5078V451.75ZM49.5078 445.75H51.5078V447.75H49.5078V445.75ZM53.5078 445.75H55.5078V447.75H53.5078V445.75ZM47.5078 453.75H49.5078V455.75H47.5078V453.75ZM53.5078 453.75H55.5078V455.75H53.5078V453.75ZM49.5078 455.75H51.5078V457.75H49.5078V455.75ZM43.5078 455.75H45.5078V457.75H43.5078V455.75ZM47.5078 461.75H45.5078V459.75H47.5078V461.75ZM47.5078 461.75H49.5078V463.75H47.5078V461.75ZM53.5078 457.75H55.5078V459.75H53.5078V457.75ZM49.5078 459.75H47.5078V457.75H49.5078V459.75ZM49.5078 459.75H51.5078V461.75H49.5078V459.75ZM41.5078 459.75H43.5078V461.75H41.5078V459.75ZM45.5078 463.75H47.5078V465.75H45.5078V463.75ZM51.5078 461.75H53.5078V463.75H51.5078V461.75ZM41.5078 463.75H43.5078V465.75H41.5078V463.75ZM43.5078 467.75H45.5078V469.75H43.5078V467.75ZM47.5078 467.75H49.5078V469.75H47.5078V467.75ZM49.5078 465.75H51.5078V467.75H49.5078V465.75ZM53.5078 465.75H55.5078V467.75H53.5078V465.75ZM51.5078 469.75H53.5078V471.75H51.5078V469.75ZM41.5078 469.75H43.5078V471.75H41.5078V469.75ZM43.5078 471.75H45.5078V473.75H43.5078V471.75ZM47.5078 471.75H49.5078V473.75H47.5078V471.75ZM45.5078 473.75H47.5078V475.75H45.5078V473.75ZM49.5078 473.75H51.5078V475.75H49.5078V473.75ZM47.5078 475.75H49.5078V477.75H47.5078V475.75ZM41.5078 473.75H43.5078V475.75H41.5078V473.75ZM53.5078 475.75H55.5078V477.75H53.5078V475.75ZM51.5078 477.75H53.5078V479.75H51.5078V477.75ZM45.5078 477.75H47.5078V479.75H45.5078V477.75ZM47.5078 479.75H49.5078V481.75H47.5078V479.75ZM41.5078 479.75H43.5078V481.75H41.5078V479.75ZM53.5078 471.75H55.5078V473.75H53.5078V471.75Z" fill="#444444"/>
<rect y="444.75" width="326" height="1" fill="#444444"/>
<rect y="442.75" width="326" height="1" fill="#444444"/>
<path d="M74.5 293.25H77V300.75H79.5V298.25H82V303.25H77V313.25H74.5V293.25ZM84.5 293.25H87V295.75H84.5V293.25ZM82 295.75H84.5V298.25H82V295.75ZM84.5 308.25H82V303.25H84.5V308.25ZM84.5 308.25H87V313.25H84.5V308.25ZM98.0098 293.25H100.51V310.75H98.0098V293.25ZM100.51 310.75H108.01V313.25H100.51V310.75ZM108.01 293.25H110.51V310.75H108.01V293.25ZM126.52 310.75V295.75H121.52V293.25H134.02V295.75H129.02V310.75H134.02V313.25H121.52V310.75H126.52ZM145.029 293.25H155.029V295.75H147.529V303.25H155.029V305.75H147.529V313.25H145.029V293.25ZM155.029 295.75H157.529V303.25H155.029V295.75ZM168.539 293.25H181.039V295.75H171.039V300.75H178.539V303.25H171.039V310.75H181.039V313.25H168.539V293.25ZM192.049 293.25H202.049V295.75H194.549V303.25H202.049V308.25H199.549V305.75H194.549V313.25H192.049V293.25ZM202.049 295.75H204.549V303.25H202.049V295.75ZM202.049 308.25H204.549V313.25H202.049V308.25ZM74.5 337.25H77V342.25H84.5V337.25H87V352.25H84.5V344.75H77V352.25H74.5V337.25ZM79.5 332.25H82V334.75H79.5V332.25ZM77 334.75H79.5V337.25H77V334.75ZM82 334.75H84.5V337.25H82V334.75ZM98.0098 332.25H100.51V349.75H110.51V352.25H98.0098V332.25ZM121.52 332.25H131.52V334.75H124.02V342.25H131.52V344.75H124.02V352.25H121.52V332.25ZM131.52 334.75H134.02V342.25H131.52V334.75ZM145.029 332.25H147.529V339.75H155.029V332.25H157.529V352.25H155.029V342.25H147.529V352.25H145.029V332.25ZM168.539 337.25H171.039V342.25H178.539V337.25H181.039V352.25H178.539V344.75H171.039V352.25H168.539V337.25ZM173.539 332.25H176.039V334.75H173.539V332.25ZM171.039 334.75H173.539V337.25H171.039V334.75ZM176.039 334.75H178.539V337.25H176.039V334.75Z" fill="#444444"/>
<path d="M45 200.25H46V444.75H45V200.25Z" fill="#444444"/>
<path d="M19 374.771L19 370.771L20 370.771L20 373.771L26 373.771L26 370.771L27 370.771L27 374.771L19 374.771ZM20 370.771L20 369.771L26 369.771L26 370.771L20 370.771ZM19 364.768L19 359.768L20 359.768L20 363.768L22 363.768L22 360.768L23 360.768L23 363.768L26 363.768L26 359.768L27 359.768L27 364.768L19 364.768ZM20 354.764L20 353.764L22 353.764L22 354.764L20 354.764ZM22 353.764L22 350.764L23 350.764L23 353.764L22 353.764ZM26 350.764L27 350.764L27 353.764L26 353.764L26 350.764ZM26 353.764L26 354.764L25 354.764L25 353.764L26 353.764ZM23 350.764L23 349.764L26 349.764L26 350.764L23 350.764ZM19 353.764L19 350.764L20 350.764L20 353.764L19 353.764ZM20 350.764L20 349.764L21 349.764L21 350.764L20 350.764ZM19 344.76L19 339.76L20 339.76L20 341.76L27 341.76L27 342.76L20 342.76L20 344.76L19 344.76ZM26 332.756L20 332.756L20 334.756L19 334.756L19 329.756L20 329.756L20 331.756L26 331.756L26 329.756L27 329.756L27 334.756L26 334.756L26 332.756ZM19 324.752L19 323.752L21 323.752L21 322.752L22 322.752L22 323.752L27 323.752L27 324.752L19 324.752ZM24 320.752L24 321.752L23 321.752L23 320.752L19 320.752L19 319.752L27 319.752L27 320.752L24 320.752ZM23 321.752L23 322.752L22 322.752L22 321.752L23 321.752ZM21 314.748L21 313.748L23 313.748L23 310.748L21 310.748L21 309.748L27 309.748L27 310.748L24 310.748L24 313.748L27 313.748L27 314.748L21 314.748ZM19 312.748L19 311.748L20 311.748L20 312.748L19 312.748ZM20 313.748L20 312.748L21 312.748L21 313.748L20 313.748ZM20 311.748L20 310.748L21 310.748L21 311.748L20 311.748ZM19 304.744L19 299.744L20 299.744L20 301.744L27 301.744L27 302.744L20 302.744L20 304.744L19 304.744ZM26 292.74L20 292.74L20 294.74L19 294.74L19 289.74L20 289.74L20 291.74L26 291.74L26 289.74L27 289.74L27 294.74L26 294.74L26 292.74ZM20 284.736L20 283.736L26 283.736L26 284.736L20 284.736ZM26 283.736L26 280.736L27 280.736L27 283.736L26 283.736ZM20 280.736L20 279.736L26 279.736L26 280.736L20 280.736ZM19 283.736L19 280.736L20 280.736L20 283.736L19 283.736ZM19 274.732L19 273.732L21 273.732L21 272.732L22 272.732L22 273.732L27 273.732L27 274.732L19 274.732ZM24 270.732L24 271.732L23 271.732L23 270.732L19 270.732L19 269.732L27 269.732L27 270.732L24 270.732ZM23 271.732L23 272.732L22 272.732L22 271.732L23 271.732Z" fill="#444444"/>
<rect x="16" y="197.25" width="294" height="1" fill="#444444"/>
<rect x="16" y="199.25" width="294" height="1" fill="#444444"/>
<path d="M229.953 165.25H231.953V171.25H229.953V165.25ZM221.953 165.25H223.953V171.25H221.953V165.25ZM225.953 161.25H223.953V159.25H225.953V161.25ZM225.953 161.25H227.953V163.25H225.953V161.25ZM227.953 159.25H229.953V161.25H227.953V159.25ZM223.953 159.25H221.953V155.25H223.953V159.25ZM223.953 163.25H225.953V165.25H223.953V163.25ZM229.953 155.25H231.953V159.25H229.953V155.25ZM227.953 163.25H229.953V165.25H227.953V163.25ZM243.961 165.25H245.961V171.25H243.961V165.25ZM235.961 165.25H237.961V171.25H235.961V165.25ZM239.961 161.25H237.961V159.25H239.961V161.25ZM239.961 161.25H241.961V163.25H239.961V161.25ZM241.961 159.25H243.961V161.25H241.961V159.25ZM237.961 159.25H235.961V155.25H237.961V159.25ZM237.961 163.25H239.961V165.25H237.961V163.25ZM243.961 155.25H245.961V159.25H243.961V155.25ZM241.961 163.25H243.961V165.25H241.961V163.25ZM251.969 165.25H253.969V171.25H251.969V165.25ZM253.969 163.25H255.969V165.25H253.969V163.25ZM255.969 161.25H257.969V163.25H255.969V161.25ZM257.969 157.25H249.969V155.25H259.969V161.25H257.969V157.25ZM263.977 157.25H265.977V161.25H263.977V157.25ZM271.977 157.25H265.977V155.25H271.977V157.25ZM271.977 157.25H273.977V161.25H271.977V157.25ZM265.977 161.25H271.977V163.25H265.977V161.25ZM271.977 163.25H273.977V169.25H271.977V163.25ZM263.977 163.25H265.977V169.25H263.977V163.25ZM271.977 169.25V171.25H265.977V169.25H271.977ZM285.984 169.25V171.25H279.984V169.25H285.984ZM279.984 169.25H277.984V167.25H279.984V169.25ZM285.984 163.25V157.25H287.984V169.25H285.984V165.25H279.984V163.25H285.984ZM279.984 163.25H277.984V157.25H279.984V163.25ZM279.984 155.25H285.984V157.25H279.984V155.25ZM299.992 163.25V161.25H301.992V163.25H303.992V165.25H301.992V167.25H299.992V165.25H289.992V163.25H299.992ZM299.992 161.25H297.992V159.25H299.992V161.25ZM297.992 167.25H299.992V169.25H297.992V167.25Z" fill="#444444"/>
<path d="M187 131.25H188V137.25H187V131.25ZM188 137.25H191V138.25H188V137.25ZM191 131.25H192V137.25H191V131.25ZM188 130.25H191V131.25H188V130.25ZM197.004 130.25H201.004V131.25H198.004V134.25H201.004V136.25H200.004V135.25H198.004V138.25H197.004V130.25ZM201.004 131.25H202.004V134.25H201.004V131.25ZM201.004 136.25H202.004V138.25H201.004V136.25ZM209.008 137.25V131.25H207.008V130.25H212.008V131.25H210.008V137.25H212.008V138.25H207.008V137.25H209.008ZM217.012 131.25H218.012V137.25H217.012V131.25ZM218.012 137.25H221.012V138.25H218.012V137.25ZM221.012 135.25H220.012V134.25H222.012V137.25H221.012V135.25ZM218.012 130.25H221.012V131.25H218.012V130.25ZM221.012 131.25H222.012V132.25H221.012V131.25ZM229.016 136.25H230.016V138.25H229.016V136.25ZM247.023 130.25H252.023V131.25H248.023V133.25H251.023V134.25H248.023V138.25H247.023V130.25ZM257.027 130.25H258.027V137.25H262.027V138.25H257.027V130.25ZM269.031 137.25V131.25H267.031V130.25H272.031V131.25H270.031V137.25H272.031V138.25H267.031V137.25H269.031ZM277.035 131.25H278.035V137.25H277.035V131.25ZM278.035 137.25H281.035V138.25H278.035V137.25ZM281.035 135.25H280.035V134.25H282.035V137.25H281.035V135.25ZM278.035 130.25H281.035V131.25H278.035V130.25ZM281.035 131.25H282.035V132.25H281.035V131.25ZM287.039 130.25H288.039V133.25H291.039V130.25H292.039V138.25H291.039V134.25H288.039V138.25H287.039V130.25ZM297.043 130.25H302.043V131.25H300.043V138.25H299.043V131.25H297.043V130.25Z" fill="#444444"/>
<rect x="123" y="105.25" width="1" height="93" fill="#444444"/>
<rect x="121" y="105.25" width="1" height="93" fill="#444444"/>
<path d="M58 163.25H59V170.25H63V171.25H58V163.25ZM68.0039 163.25H72.0039V164.25H69.0039V166.25H72.0039V167.25H69.0039V170.25H72.0039V171.25H68.0039V163.25ZM72.0039 167.25H73.0039V170.25H72.0039V167.25ZM72.0039 164.25H73.0039V166.25H72.0039V164.25ZM78.0078 164.25H79.0078V166.25H78.0078V164.25ZM79.0078 166.25H82.0078V167.25H79.0078V166.25ZM82.0078 170.25V171.25H79.0078V170.25H82.0078ZM79.0078 170.25H78.0078V169.25H79.0078V170.25ZM82.0078 167.25H83.0078V170.25H82.0078V167.25ZM79.0078 163.25H82.0078V164.25H79.0078V163.25ZM82.0078 164.25H83.0078V165.25H82.0078V164.25Z" fill="#444444"/>
<path d="M30 157.25H32V155.25H34V171.25H32V167.25H24V163.25H26V165.25H32V159.25H30V157.25ZM28 159.25H30V161.25H28V159.25ZM26 161.25H28V163.25H26V161.25ZM38.0078 155.25H48.0078V157.25H40.0078V161.25H46.0078V163.25H38.0078V155.25ZM46.0078 163.25H48.0078V169.25H46.0078V163.25ZM46.0078 169.25V171.25H40.0078V169.25H46.0078ZM40.0078 169.25H38.0078V167.25H40.0078V169.25Z" fill="#444444"/>
<path d="M23 130.25H24V135.25H23V130.25ZM24 135.25H25V138.25H24V135.25ZM27 130.25H28V135.25H27V130.25ZM26 135.25H27V138.25H26V135.25ZM25 133.25H26V135.25H25V133.25ZM33.0039 130.25H38.0039V131.25H34.0039V133.25H37.0039V134.25H34.0039V137.25H38.0039V138.25H33.0039V130.25ZM45.0078 137.25V131.25H43.0078V130.25H48.0078V131.25H46.0078V137.25H48.0078V138.25H43.0078V137.25H45.0078ZM53.0117 131.25H54.0117V137.25H53.0117V131.25ZM54.0117 137.25H57.0117V138.25H54.0117V137.25ZM57.0117 135.25H56.0117V134.25H58.0117V137.25H57.0117V135.25ZM54.0117 130.25H57.0117V131.25H54.0117V130.25ZM57.0117 131.25H58.0117V132.25H57.0117V131.25ZM63.0156 130.25H64.0156V133.25H67.0156V130.25H68.0156V138.25H67.0156V134.25H64.0156V138.25H63.0156V130.25ZM73.0195 130.25H78.0195V131.25H76.0195V138.25H75.0195V131.25H73.0195V130.25Z" fill="#444444"/>
<rect x="16" y="104.25" width="294" height="1" fill="#444444"/>
</g>
</svg>
