<svg width="1075" height="594" viewBox="0 0 1075 594" fill="none" xmlns="http://www.w3.org/2000/svg">
<path fill-rule="evenodd" clip-rule="evenodd" d="M39.6004 13.4C46.8905 13.4 52.8004 7.49016 52.8004 0.2C52.8004 0.133216 52.7999 0.0665484 52.7989 0H79V594H0V0H26.4019C26.4009 0.0665484 26.4004 0.133216 26.4004 0.2C26.4004 7.49016 32.3102 13.4 39.6004 13.4ZM80 594H995V0H80V594ZM996 0V594H1075V0H1048.8C1048.8 0.0665484 1048.8 0.133216 1048.8 0.2C1048.8 7.49016 1042.89 13.4 1035.6 13.4C1028.31 13.4 1022.4 7.49016 1022.4 0.2C1022.4 0.133216 1022.4 0.0665484 1022.4 0H996ZM52.8004 79.4C52.8004 86.6902 46.8905 92.6 39.6004 92.6C32.3102 92.6 26.4004 86.6902 26.4004 79.4C26.4004 72.1099 32.3102 66.2 39.6004 66.2C46.8905 66.2 52.8004 72.1099 52.8004 79.4ZM39.6004 171.8C46.8905 171.8 52.8004 165.89 52.8004 158.6C52.8004 151.31 46.8905 145.4 39.6004 145.4C32.3102 145.4 26.4004 151.31 26.4004 158.6C26.4004 165.89 32.3102 171.8 39.6004 171.8ZM52.8004 237.8C52.8004 245.09 46.8905 251 39.6004 251C32.3102 251 26.4004 245.09 26.4004 237.8C26.4004 230.51 32.3102 224.6 39.6004 224.6C46.8905 224.6 52.8004 230.51 52.8004 237.8ZM39.6004 330.2C46.8905 330.2 52.8004 324.29 52.8004 317C52.8004 309.71 46.8905 303.8 39.6004 303.8C32.3102 303.8 26.4004 309.71 26.4004 317C26.4004 324.29 32.3102 330.2 39.6004 330.2ZM52.8004 396.2C52.8004 403.49 46.8905 409.4 39.6004 409.4C32.3102 409.4 26.4004 403.49 26.4004 396.2C26.4004 388.91 32.3102 383 39.6004 383C46.8905 383 52.8004 388.91 52.8004 396.2ZM39.6004 488.6C46.8905 488.6 52.8004 482.69 52.8004 475.4C52.8004 468.11 46.8905 462.2 39.6004 462.2C32.3102 462.2 26.4004 468.11 26.4004 475.4C26.4004 482.69 32.3102 488.6 39.6004 488.6ZM52.8004 554.6C52.8004 561.89 46.8905 567.8 39.6004 567.8C32.3102 567.8 26.4004 561.89 26.4004 554.6C26.4004 547.31 32.3102 541.4 39.6004 541.4C46.8905 541.4 52.8004 547.31 52.8004 554.6ZM1048.8 79.4C1048.8 86.6902 1042.89 92.6 1035.6 92.6C1028.31 92.6 1022.4 86.6902 1022.4 79.4C1022.4 72.1099 1028.31 66.2 1035.6 66.2C1042.89 66.2 1048.8 72.1099 1048.8 79.4ZM1035.6 171.8C1042.89 171.8 1048.8 165.89 1048.8 158.6C1048.8 151.31 1042.89 145.4 1035.6 145.4C1028.31 145.4 1022.4 151.31 1022.4 158.6C1022.4 165.89 1028.31 171.8 1035.6 171.8ZM1048.8 237.8C1048.8 245.09 1042.89 251 1035.6 251C1028.31 251 1022.4 245.09 1022.4 237.8C1022.4 230.51 1028.31 224.6 1035.6 224.6C1042.89 224.6 1048.8 230.51 1048.8 237.8ZM1035.6 330.2C1042.89 330.2 1048.8 324.29 1048.8 317C1048.8 309.71 1042.89 303.8 1035.6 303.8C1028.31 303.8 1022.4 309.71 1022.4 317C1022.4 324.29 1028.31 330.2 1035.6 330.2ZM1048.8 396.2C1048.8 403.49 1042.89 409.4 1035.6 409.4C1028.31 409.4 1022.4 403.49 1022.4 396.2C1022.4 388.91 1028.31 383 1035.6 383C1042.89 383 1048.8 388.91 1048.8 396.2ZM1035.6 488.6C1042.89 488.6 1048.8 482.69 1048.8 475.4C1048.8 468.11 1042.89 462.2 1035.6 462.2C1028.31 462.2 1022.4 468.11 1022.4 475.4C1022.4 482.69 1028.31 488.6 1035.6 488.6ZM1048.8 554.6C1048.8 561.89 1042.89 567.8 1035.6 567.8C1028.31 567.8 1022.4 561.89 1022.4 554.6C1022.4 547.31 1028.31 541.4 1035.6 541.4C1042.89 541.4 1048.8 547.31 1048.8 554.6Z" fill="white"/>
<mask id="mask0_382_23902" style="mask-type:alpha" maskUnits="userSpaceOnUse" x="0" y="0" width="1075" height="594">
<rect width="1075" height="594" fill="white"/>
</mask>
<g mask="url(#mask0_382_23902)">
</g>
</svg>
