<svg width="723" height="957" viewBox="0 0 723 957" fill="none" xmlns="http://www.w3.org/2000/svg">
<path fill-rule="evenodd" clip-rule="evenodd" d="M669.98 0H0V957H723V53.0327L669.98 0ZM26.5119 212.131H33.7419V238.647H26.5119V212.131ZM26.5122 718.353H33.7422V744.869H26.5122V718.353Z" fill="#C0C0C0"/>
<path d="M723 285.654H0" stroke="#222222" stroke-width="1.03667"/>
<path d="M723 382.077H0" stroke="#222222" stroke-width="1.03667"/>
<path d="M723 671.347H0" stroke="#222222" stroke-width="1.03667"/>
<path d="M723 767.77H0" stroke="#222222" stroke-width="1.03667"/>
<path d="M27.5484 125.706H28.5851V127.78H31.6951V125.706H32.7317V131.926H31.6951V128.816H28.5851V131.926H27.5484V125.706ZM29.6217 123.633H30.6584V124.67H29.6217V123.633ZM28.5851 124.67H29.6217V125.706H28.5851V124.67ZM30.6584 124.67H31.6951V125.706H30.6584V124.67ZM34.8091 123.633H35.8458V125.706H36.8824V126.743H35.8458V131.926H34.8091V123.633ZM38.9558 126.743H37.9191V125.706H38.9558V123.633H39.9924V131.926H38.9558V126.743ZM36.8824 126.743H37.9191V128.816H36.8824V126.743ZM42.0698 123.633H46.2165V124.67H43.1065V127.78H46.2165V128.816H43.1065V131.926H42.0698V123.633ZM46.2165 124.67H47.2532V127.78H46.2165V124.67ZM49.3305 123.633H54.5139V124.67H50.3672V126.743H53.4772V127.78H50.3672V130.89H54.5139V131.926H49.3305V123.633ZM56.5912 123.633H60.7379V124.67H57.6279V127.78H60.7379V129.853H59.7012V128.816H57.6279V131.926H56.5912V123.633ZM60.7379 124.67H61.7746V127.78H60.7379V124.67ZM60.7379 129.853H61.7746V131.926H60.7379V129.853ZM63.852 124.67H64.8886V126.743H63.852V124.67ZM64.8886 126.743H67.9986V127.78H64.8886V126.743ZM67.9986 130.89V131.926H64.8886V130.89H67.9986ZM64.8886 130.89H63.852V129.853H64.8886V130.89ZM67.9986 127.78H69.0353V130.89H67.9986V127.78ZM64.8886 123.633H67.9986V124.67H64.8886V123.633ZM67.9986 124.67H69.0353V125.706H67.9986V124.67ZM71.1127 125.706H72.1493V127.78H75.2593V125.706H76.296V131.926H75.2593V128.816H72.1493V131.926H71.1127V125.706ZM73.186 123.633H74.2227V124.67H73.186V123.633ZM72.1493 124.67H73.186V125.706H72.1493V124.67ZM74.2227 124.67H75.2593V125.706H74.2227V124.67ZM78.3734 123.633H79.4101V125.706H80.4467V126.743H79.4101V131.926H78.3734V123.633ZM82.5201 128.816H81.4834V127.78H82.5201V123.633H83.5567V131.926H82.5201V128.816ZM81.4834 127.78H80.4467V126.743H81.4834V127.78ZM85.6341 123.633H89.7808V124.67H86.6708V130.89H89.7808V131.926H85.6341V123.633ZM89.7808 124.67H90.8174V130.89H89.7808V124.67Z" fill="#222222"/>
<path d="M31.6951 398.199H32.7317V401.309H31.6951V398.199ZM27.5484 398.199H28.5851V401.309H27.5484V398.199ZM29.6217 396.125H28.5851V395.089H29.6217V396.125ZM29.6217 396.125H30.6584V397.162H29.6217V396.125ZM30.6584 395.089H31.6951V396.125H30.6584V395.089ZM28.5851 395.089H27.5484V393.015H28.5851V395.089ZM28.5851 397.162H29.6217V398.199H28.5851V397.162ZM31.6951 393.015H32.7317V395.089H31.6951V393.015ZM30.6584 397.162H31.6951V398.199H30.6584V397.162ZM39.9924 397.162V398.199H34.8091V397.162H39.9924ZM42.0698 393.015H43.1065V396.125H46.2165V393.015H47.2532V401.309H46.2165V397.162H43.1065V401.309H42.0698V393.015ZM49.3305 393.015H54.5139V394.052H50.3672V396.125H53.4772V397.162H50.3672V400.272H54.5139V401.309H49.3305V393.015ZM58.6646 400.272V394.052H56.5912V393.015H61.7746V394.052H59.7012V400.272H61.7746V401.309H56.5912V400.272H58.6646ZM63.852 394.052H64.8886V400.272H63.852V394.052ZM64.8886 400.272H67.9986V401.309H64.8886V400.272ZM67.9986 398.199H66.962V397.162H69.0353V400.272H67.9986V398.199ZM64.8886 393.015H67.9986V394.052H64.8886V393.015ZM67.9986 394.052H69.0353V395.089H67.9986V394.052ZM71.1127 393.015H72.1493V396.125H75.2593V393.015H76.296V401.309H75.2593V397.162H72.1493V401.309H71.1127V393.015ZM78.3734 393.015H83.5567V394.052H81.4834V401.309H80.4467V394.052H78.3734V393.015Z" fill="#222222"/>
<path d="M27.5484 682.285H31.6951V683.321H28.5851V685.395H31.6951V686.431H28.5851V689.541H31.6951V690.578H27.5484V682.285ZM31.6951 686.431H32.7317V689.541H31.6951V686.431ZM31.6951 683.321H32.7317V685.395H31.6951V683.321ZM34.8091 684.358H35.8458V686.431H38.9558V684.358H39.9924V690.578H38.9558V687.468H35.8458V690.578H34.8091V684.358ZM36.8824 682.285H37.9191V683.321H36.8824V682.285ZM35.8458 683.321H36.8824V684.358H35.8458V683.321ZM37.9191 683.321H38.9558V684.358H37.9191V683.321ZM42.0698 683.321H43.1065V685.395H42.0698V683.321ZM43.1065 685.395H46.2165V686.431H43.1065V685.395ZM46.2165 689.541V690.578H43.1065V689.541H46.2165ZM43.1065 689.541H42.0698V688.505H43.1065V689.541ZM46.2165 686.431H47.2532V689.541H46.2165V686.431ZM43.1065 682.285H46.2165V683.321H43.1065V682.285ZM46.2165 683.321H47.2532V684.358H46.2165V683.321ZM49.3305 682.285H54.5139V683.321H50.3672V685.395H53.4772V686.431H50.3672V689.541H54.5139V690.578H49.3305V682.285ZM56.5912 682.285H57.6279V689.541H61.7746V690.578H56.5912V682.285ZM65.9253 689.541V683.321H63.852V682.285H69.0353V683.321H66.962V689.541H69.0353V690.578H63.852V689.541H65.9253ZM71.1127 682.285H72.1493V684.358H73.186V685.395H72.1493V690.578H71.1127V682.285ZM75.2593 687.468H74.2227V686.431H75.2593V682.285H76.296V690.578H75.2593V687.468ZM74.2227 686.431H73.186V685.395H74.2227V686.431ZM78.3734 682.285H83.5567V683.321H79.4101V685.395H82.5201V686.431H79.4101V689.541H83.5567V690.578H78.3734V682.285Z" fill="#222222"/>
<path d="M27.5484 778.708H31.6951V779.745H28.5851V785.965H31.6951V787.001H27.5484V778.708ZM31.6951 779.745H32.7317V785.965H31.6951V779.745ZM34.8091 778.708H39.9924V779.745H35.8458V781.818H38.9558V782.855H35.8458V785.965H39.9924V787.001H34.8091V778.708ZM42.0698 779.745H43.1065V781.818H42.0698V779.745ZM43.1065 781.818H46.2165V782.855H43.1065V781.818ZM46.2165 785.965V787.001H43.1065V785.965H46.2165ZM43.1065 785.965H42.0698V784.928H43.1065V785.965ZM46.2165 782.855H47.2532V785.965H46.2165V782.855ZM43.1065 778.708H46.2165V779.745H43.1065V778.708ZM46.2165 779.745H47.2532V780.781H46.2165V779.745ZM49.3305 779.745H50.3672V785.965H49.3305V779.745ZM50.3672 785.965H53.4772V787.001H50.3672V785.965ZM53.4772 784.928H54.5139V785.965H53.4772V784.928ZM50.3672 778.708H53.4772V779.745H50.3672V778.708ZM53.4772 779.745H54.5139V780.781H53.4772V779.745ZM56.5912 778.708H61.7746V779.745H57.6279V781.818H60.7379V782.855H57.6279V785.965H61.7746V787.001H56.5912V778.708ZM63.852 778.708H64.8886V780.781H65.9253V781.818H64.8886V787.001H63.852V778.708ZM67.9986 783.891H66.962V782.855H67.9986V778.708H69.0353V787.001H67.9986V783.891ZM66.962 782.855H65.9253V781.818H66.962V782.855ZM71.1127 778.708H75.2593V779.745H72.1493V785.965H75.2593V787.001H71.1127V778.708ZM75.2593 779.745H76.296V785.965H75.2593V779.745ZM78.3734 778.708H83.5567V779.745H79.4101V781.818H82.5201V782.855H79.4101V785.965H83.5567V787.001H78.3734V778.708ZM85.6341 778.708H89.7808V779.745H86.6708V782.855H89.7808V784.928H88.7441V783.891H86.6708V787.001H85.6341V778.708ZM89.7808 779.745H90.8174V782.855H89.7808V779.745ZM89.7808 784.928H90.8174V787.001H89.7808V784.928Z" fill="#222222"/>
<path d="M27.5484 297.46H28.5851V299.533H31.6951V297.46H32.7317V303.68H31.6951V300.57H28.5851V303.68H27.5484V297.46ZM29.6217 295.386H30.6584V296.423H29.6217V295.386ZM28.5851 296.423H29.6217V297.46H28.5851V296.423ZM30.6584 296.423H31.6951V297.46H30.6584V296.423ZM34.8091 296.423H35.8458V298.496H34.8091V296.423ZM35.8458 298.496H38.9558V299.533H35.8458V298.496ZM38.9558 302.643V303.68H35.8458V302.643H38.9558ZM35.8458 302.643H34.8091V301.606H35.8458V302.643ZM38.9558 299.533H39.9924V302.643H38.9558V299.533ZM35.8458 295.386H38.9558V296.423H35.8458V295.386ZM38.9558 296.423H39.9924V297.46H38.9558V296.423ZM42.0698 296.423H43.1065V302.643H42.0698V296.423ZM43.1065 302.643H46.2165V303.68H43.1065V302.643ZM46.2165 301.606H47.2532V302.643H46.2165V301.606ZM43.1065 295.386H46.2165V296.423H43.1065V295.386ZM46.2165 296.423H47.2532V297.46H46.2165V296.423ZM49.3305 295.386H54.5139V296.423H50.3672V298.496H53.4772V299.533H50.3672V302.643H54.5139V303.68H49.3305V295.386ZM56.5912 295.386H57.6279V297.46H58.6646V298.496H57.6279V303.68H56.5912V295.386ZM60.7379 300.57H59.7012V299.533H60.7379V295.386H61.7746V303.68H60.7379V300.57ZM59.7012 299.533H58.6646V298.496H59.7012V299.533ZM63.852 295.386H67.9986V296.423H64.8886V302.643H67.9986V303.68H63.852V295.386ZM67.9986 296.423H69.0353V302.643H67.9986V296.423ZM71.1127 295.386H76.296V296.423H72.1493V298.496H75.2593V299.533H72.1493V302.643H76.296V303.68H71.1127V295.386ZM78.3734 295.386H82.5201V296.423H79.4101V299.533H82.5201V301.606H81.4834V300.57H79.4101V303.68H78.3734V295.386ZM82.5201 296.423H83.5567V299.533H82.5201V296.423ZM82.5201 301.606H83.5567V303.68H82.5201V301.606ZM88.7441 296.423H89.7808V298.496H88.7441V296.423ZM85.6341 302.643H86.6708V304.716H85.6341V302.643ZM86.6708 300.57H87.7074V302.643H86.6708V300.57ZM87.7074 298.496H88.7441V300.57H87.7074V298.496ZM89.7808 294.35H90.8174V296.423H89.7808V294.35ZM27.5484 311.423H28.5851V317.643H27.5484V311.423ZM28.5851 317.643H31.6951V318.68H28.5851V317.643ZM31.6951 316.606H32.7317V317.643H31.6951V316.606ZM28.5851 310.386H31.6951V311.423H28.5851V310.386ZM31.6951 311.423H32.7317V312.46H31.6951V311.423ZM34.8091 312.46H35.8458V314.533H38.9558V312.46H39.9924V318.68H38.9558V315.57H35.8458V318.68H34.8091V312.46ZM36.8824 310.386H37.9191V311.423H36.8824V310.386ZM35.8458 311.423H36.8824V312.46H35.8458V311.423ZM37.9191 311.423H38.9558V312.46H37.9191V311.423ZM42.0698 310.386H46.2165V311.423H43.1065V314.533H46.2165V315.57H43.1065V318.68H42.0698V310.386ZM46.2165 311.423H47.2532V314.533H46.2165V311.423ZM56.5912 310.386H57.6279V313.496H60.7379V310.386H61.7746V318.68H60.7379V314.533H57.6279V318.68H56.5912V310.386ZM63.852 310.386H69.0353V311.423H64.8886V313.496H67.9986V314.533H64.8886V317.643H69.0353V318.68H63.852V310.386ZM73.186 317.643V311.423H71.1127V310.386H76.296V311.423H74.2227V317.643H76.296V318.68H71.1127V317.643H73.186ZM78.3734 311.423H79.4101V317.643H78.3734V311.423ZM79.4101 317.643H82.5201V318.68H79.4101V317.643ZM82.5201 315.57H81.4834V314.533H83.5567V317.643H82.5201V315.57ZM79.4101 310.386H82.5201V311.423H79.4101V310.386ZM82.5201 311.423H83.5567V312.46H82.5201V311.423ZM85.6341 310.386H86.6708V313.496H89.7808V310.386H90.8174V318.68H89.7808V314.533H86.6708V318.68H85.6341V310.386ZM92.8948 310.386H98.0782V311.423H96.0048V318.68H94.9682V311.423H92.8948V310.386Z" fill="#222222"/>
<path d="M653.148 123.03H654.185V130.287H653.148V123.03ZM654.185 130.287H657.295V131.324H654.185V130.287ZM657.295 123.03H658.331V130.287H657.295V123.03ZM660.409 127.177H662.482V125.104H663.519V127.177H665.592V128.214H663.519V130.287H662.482V128.214H660.409V127.177ZM667.67 124.067H668.706V127.177H669.743V128.214H668.706V130.287H667.67V124.067ZM668.706 130.287H671.816V131.324H668.706V130.287ZM668.706 123.03H671.816V124.067H668.706V123.03ZM671.816 124.067H672.853V130.287H671.816V126.14H670.78V125.104H671.816V124.067ZM669.743 126.14H670.78V127.177H669.743V126.14ZM674.93 124.067H675.967V127.177H677.004V128.214H675.967V130.287H674.93V124.067ZM675.967 130.287H679.077V131.324H675.967V130.287ZM675.967 123.03H679.077V124.067H675.967V123.03ZM679.077 124.067H680.114V130.287H679.077V126.14H678.04V125.104H679.077V124.067ZM677.004 126.14H678.04V127.177H677.004V126.14ZM682.191 129.25H683.228V130.287H687.374V131.324H682.191V129.25ZM686.338 124.067H683.228V123.03H686.338V124.067ZM686.338 124.067H687.374V126.14H686.338V124.067ZM683.228 128.214H684.264V129.25H683.228V128.214ZM682.191 124.067H683.228V125.104H682.191V124.067ZM685.301 126.14H686.338V127.177H685.301V126.14ZM684.264 127.177H685.301V128.214H684.264V127.177ZM690.488 123.03H693.598V124.067H690.488V123.03ZM689.452 124.067H690.488V126.14H693.598V127.177H690.488V130.287H689.452V124.067ZM693.598 127.177H694.635V130.287H693.598V127.177ZM690.488 130.287H693.598V131.324H690.488V130.287ZM693.598 124.067H694.635V125.104H693.598V124.067Z" fill="#222222"/>
<path d="M675.235 394.052H676.272V395.089H675.235V394.052ZM676.272 393.015H679.382V394.052H676.272V393.015ZM679.382 394.052H680.418V396.125H679.382V394.052ZM677.308 396.125H679.382V397.162H677.308V396.125ZM679.382 397.162H680.418V400.272H679.382V397.162ZM679.382 400.272V401.309H676.272V400.272H679.382ZM676.272 400.272H675.235V399.235H676.272V400.272ZM682.496 394.052H683.532V397.162H684.569V398.199H683.532V400.272H682.496V394.052ZM683.532 400.272H686.642V401.309H683.532V400.272ZM683.532 393.015H686.642V394.052H683.532V393.015ZM686.642 394.052H687.679V400.272H686.642V396.125H685.606V395.089H686.642V394.052ZM684.569 396.125H685.606V397.162H684.569V396.125ZM689.756 394.052H690.793V397.162H691.83V398.199H690.793V400.272H689.756V394.052ZM690.793 400.272H693.903V401.309H690.793V400.272ZM690.793 393.015H693.903V394.052H690.793V393.015ZM693.903 394.052H694.94V400.272H693.903V396.125H692.866V395.089H693.903V394.052ZM691.83 396.125H692.866V397.162H691.83V396.125Z" fill="#222222"/>
<path d="M689.628 683.321H690.664V686.431H691.701V687.468H690.664V689.541H689.628V683.321ZM690.664 689.541H693.774V690.578H690.664V689.541ZM690.664 682.285H693.774V683.321H690.664V682.285ZM693.774 683.321H694.811V689.541H693.774V685.395H692.738V684.358H693.774V683.321ZM691.701 685.395H692.738V686.431H691.701V685.395Z" fill="#222222"/>
<path d="M672.724 782.855V783.891H667.541V782.855H672.724ZM676.875 780.781H674.801V779.745H676.875V778.708H677.911V785.965H679.985V787.001H674.801V785.965H676.875V780.781ZM682.062 779.745H683.099V782.855H684.135V783.891H683.099V785.965H682.062V779.745ZM683.099 785.965H686.209V787.001H683.099V785.965ZM683.099 778.708H686.209V779.745H683.099V778.708ZM686.209 779.745H687.245V785.965H686.209V781.818H685.172V780.781H686.209V779.745ZM684.135 781.818H685.172V782.855H684.135V781.818ZM689.323 779.745H690.359V782.855H691.396V783.891H690.359V785.965H689.323V779.745ZM690.359 785.965H693.469V787.001H690.359V785.965ZM690.359 778.708H693.469V779.745H690.359V778.708ZM693.469 779.745H694.506V785.965H693.469V781.818H692.433V780.781H693.469V779.745ZM691.396 781.818H692.433V782.855H691.396V781.818Z" fill="#222222"/>
<path d="M678.345 297.629H679.382V296.592H680.418V304.886H679.382V302.812H675.235V300.739H676.272V301.776H679.382V298.666H678.345V297.629ZM677.308 298.666H678.345V299.702H677.308V298.666ZM676.272 299.702H677.308V300.739H676.272V299.702ZM682.496 297.629H683.532V300.739H684.569V301.776H683.532V303.849H682.496V297.629ZM683.532 303.849H686.642V304.886H683.532V303.849ZM683.532 296.592H686.642V297.629H683.532V296.592ZM686.642 297.629H687.679V303.849H686.642V299.702H685.606V298.666H686.642V297.629ZM684.569 299.702H685.606V300.739H684.569V299.702ZM689.756 297.629H690.793V300.739H691.83V301.776H690.793V303.849H689.756V297.629ZM690.793 303.849H693.903V304.886H690.793V303.849ZM690.793 296.592H693.903V297.629H690.793V296.592ZM693.903 297.629H694.94V303.849H693.903V299.702H692.866V298.666H693.903V297.629ZM691.83 299.702H692.866V300.739H691.83V299.702Z" fill="#222222"/>
<path d="M300.02 436.685H258.553V353.752H300.02V436.685ZM300.02 436.685H341.486V478.152H300.02V436.685ZM300.02 602.552H258.553V478.152H300.02V602.552ZM300.02 602.552H382.953V644.019H300.02V602.552ZM300.02 312.285H382.953V353.752H300.02V312.285ZM382.953 478.152H465.886V519.619H424.42V602.552H382.953V478.152ZM382.953 353.752H424.42V395.219H382.953V353.752ZM465.886 436.685H507.353V478.152H465.886V436.685Z" fill="#222222"/>
</svg>
