<svg width="600" height="795" viewBox="0 0 600 795" fill="none" xmlns="http://www.w3.org/2000/svg">
<path fill-rule="evenodd" clip-rule="evenodd" d="M556 0.25H0V794.25H600V44.25L556 0.25ZM22 176.25H28V198.25H22V176.25ZM22 596.25H28V618.25H22V596.25Z" fill="#C0C0C0"/>
<path d="M600 237.25H0" stroke="#222222"/>
<path d="M600 317.25H0" stroke="#222222"/>
<path d="M600 557.25H0" stroke="#222222"/>
<path d="M600 637.25H0" stroke="#222222"/>
<path d="M23 104.75H24V106.75H27V104.75H28V110.75H27V107.75H24V110.75H23V104.75ZM25 102.75H26V103.75H25V102.75ZM24 103.75H25V104.75H24V103.75ZM26 103.75H27V104.75H26V103.75ZM30.0039 102.75H31.0039V104.75H32.0039V105.75H31.0039V110.75H30.0039V102.75ZM34.0039 105.75H33.0039V104.75H34.0039V102.75H35.0039V110.75H34.0039V105.75ZM32.0039 105.75H33.0039V107.75H32.0039V105.75ZM37.0078 102.75H41.0078V103.75H38.0078V106.75H41.0078V107.75H38.0078V110.75H37.0078V102.75ZM41.0078 103.75H42.0078V106.75H41.0078V103.75ZM44.0117 102.75H49.0117V103.75H45.0117V105.75H48.0117V106.75H45.0117V109.75H49.0117V110.75H44.0117V102.75ZM51.0156 102.75H55.0156V103.75H52.0156V106.75H55.0156V108.75H54.0156V107.75H52.0156V110.75H51.0156V102.75ZM55.0156 103.75H56.0156V106.75H55.0156V103.75ZM55.0156 108.75H56.0156V110.75H55.0156V108.75ZM58.0195 103.75H59.0195V105.75H58.0195V103.75ZM59.0195 105.75H62.0195V106.75H59.0195V105.75ZM62.0195 109.75V110.75H59.0195V109.75H62.0195ZM59.0195 109.75H58.0195V108.75H59.0195V109.75ZM62.0195 106.75H63.0195V109.75H62.0195V106.75ZM59.0195 102.75H62.0195V103.75H59.0195V102.75ZM62.0195 103.75H63.0195V104.75H62.0195V103.75ZM65.0234 104.75H66.0234V106.75H69.0234V104.75H70.0234V110.75H69.0234V107.75H66.0234V110.75H65.0234V104.75ZM67.0234 102.75H68.0234V103.75H67.0234V102.75ZM66.0234 103.75H67.0234V104.75H66.0234V103.75ZM68.0234 103.75H69.0234V104.75H68.0234V103.75ZM72.0273 102.75H73.0273V104.75H74.0273V105.75H73.0273V110.75H72.0273V102.75ZM76.0273 107.75H75.0273V106.75H76.0273V102.75H77.0273V110.75H76.0273V107.75ZM75.0273 106.75H74.0273V105.75H75.0273V106.75ZM79.0313 102.75H83.0313V103.75H80.0313V109.75H83.0313V110.75H79.0313V102.75ZM83.0313 103.75H84.0313V109.75H83.0313V103.75Z" fill="#222222"/>
<path d="M27 331.25H28V334.25H27V331.25ZM23 331.25H24V334.25H23V331.25ZM25 329.25H24V328.25H25V329.25ZM25 329.25H26V330.25H25V329.25ZM26 328.25H27V329.25H26V328.25ZM24 328.25H23V326.25H24V328.25ZM24 330.25H25V331.25H24V330.25ZM27 326.25H28V328.25H27V326.25ZM26 330.25H27V331.25H26V330.25ZM34.0039 330.25V331.25H31.0039V330.25H34.0039ZM37.0078 326.25H38.0078V329.25H41.0078V326.25H42.0078V334.25H41.0078V330.25H38.0078V334.25H37.0078V326.25ZM44.0117 326.25H49.0117V327.25H45.0117V329.25H48.0117V330.25H45.0117V333.25H49.0117V334.25H44.0117V326.25ZM53.0156 333.25V327.25H51.0156V326.25H56.0156V327.25H54.0156V333.25H56.0156V334.25H51.0156V333.25H53.0156ZM58.0195 327.25H59.0195V333.25H58.0195V327.25ZM59.0195 333.25H62.0195V334.25H59.0195V333.25ZM62.0195 331.25H61.0195V330.25H63.0195V333.25H62.0195V331.25ZM59.0195 326.25H62.0195V327.25H59.0195V326.25ZM62.0195 327.25H63.0195V328.25H62.0195V327.25ZM65.0234 326.25H66.0234V329.25H69.0234V326.25H70.0234V334.25H69.0234V330.25H66.0234V334.25H65.0234V326.25ZM72.0273 326.25H77.0273V327.25H75.0273V334.25H74.0273V327.25H72.0273V326.25Z" fill="#222222"/>
<path d="M23 566.25H27V567.25H24V569.25H27V570.25H24V573.25H27V574.25H23V566.25ZM27 570.25H28V573.25H27V570.25ZM27 567.25H28V569.25H27V567.25ZM30.0039 568.25H31.0039V570.25H34.0039V568.25H35.0039V574.25H34.0039V571.25H31.0039V574.25H30.0039V568.25ZM32.0039 566.25H33.0039V567.25H32.0039V566.25ZM31.0039 567.25H32.0039V568.25H31.0039V567.25ZM33.0039 567.25H34.0039V568.25H33.0039V567.25ZM37.0078 567.25H38.0078V569.25H37.0078V567.25ZM38.0078 569.25H41.0078V570.25H38.0078V569.25ZM41.0078 573.25V574.25H38.0078V573.25H41.0078ZM38.0078 573.25H37.0078V572.25H38.0078V573.25ZM41.0078 570.25H42.0078V573.25H41.0078V570.25ZM38.0078 566.25H41.0078V567.25H38.0078V566.25ZM41.0078 567.25H42.0078V568.25H41.0078V567.25ZM44.0117 566.25H49.0117V567.25H45.0117V569.25H48.0117V570.25H45.0117V573.25H49.0117V574.25H44.0117V566.25ZM51.0156 566.25H52.0156V573.25H56.0156V574.25H51.0156V566.25ZM60.0195 573.25V567.25H58.0195V566.25H63.0195V567.25H61.0195V573.25H63.0195V574.25H58.0195V573.25H60.0195ZM65.0234 566.25H66.0234V568.25H67.0234V569.25H66.0234V574.25H65.0234V566.25ZM69.0234 571.25H68.0234V570.25H69.0234V566.25H70.0234V574.25H69.0234V571.25ZM68.0234 570.25H67.0234V569.25H68.0234V570.25ZM72.0273 566.25H77.0273V567.25H73.0273V569.25H76.0273V570.25H73.0273V573.25H77.0273V574.25H72.0273V566.25Z" fill="#222222"/>
<path d="M23 646.25H27V647.25H24V653.25H27V654.25H23V646.25ZM27 647.25H28V653.25H27V647.25ZM30.0039 646.25H35.0039V647.25H31.0039V649.25H34.0039V650.25H31.0039V653.25H35.0039V654.25H30.0039V646.25ZM37.0078 647.25H38.0078V649.25H37.0078V647.25ZM38.0078 649.25H41.0078V650.25H38.0078V649.25ZM41.0078 653.25V654.25H38.0078V653.25H41.0078ZM38.0078 653.25H37.0078V652.25H38.0078V653.25ZM41.0078 650.25H42.0078V653.25H41.0078V650.25ZM38.0078 646.25H41.0078V647.25H38.0078V646.25ZM41.0078 647.25H42.0078V648.25H41.0078V647.25ZM44.0117 647.25H45.0117V653.25H44.0117V647.25ZM45.0117 653.25H48.0117V654.25H45.0117V653.25ZM48.0117 652.25H49.0117V653.25H48.0117V652.25ZM45.0117 646.25H48.0117V647.25H45.0117V646.25ZM48.0117 647.25H49.0117V648.25H48.0117V647.25ZM51.0156 646.25H56.0156V647.25H52.0156V649.25H55.0156V650.25H52.0156V653.25H56.0156V654.25H51.0156V646.25ZM58.0195 646.25H59.0195V648.25H60.0195V649.25H59.0195V654.25H58.0195V646.25ZM62.0195 651.25H61.0195V650.25H62.0195V646.25H63.0195V654.25H62.0195V651.25ZM61.0195 650.25H60.0195V649.25H61.0195V650.25ZM65.0234 646.25H69.0234V647.25H66.0234V653.25H69.0234V654.25H65.0234V646.25ZM69.0234 647.25H70.0234V653.25H69.0234V647.25ZM72.0273 646.25H77.0273V647.25H73.0273V649.25H76.0273V650.25H73.0273V653.25H77.0273V654.25H72.0273V646.25ZM79.0313 646.25H83.0313V647.25H80.0313V650.25H83.0313V652.25H82.0313V651.25H80.0313V654.25H79.0313V646.25ZM83.0313 647.25H84.0313V650.25H83.0313V647.25ZM83.0313 652.25H84.0313V654.25H83.0313V652.25Z" fill="#222222"/>
<path d="M23 247.25H24V249.25H27V247.25H28V253.25H27V250.25H24V253.25H23V247.25ZM25 245.25H26V246.25H25V245.25ZM24 246.25H25V247.25H24V246.25ZM26 246.25H27V247.25H26V246.25ZM30.0039 246.25H31.0039V248.25H30.0039V246.25ZM31.0039 248.25H34.0039V249.25H31.0039V248.25ZM34.0039 252.25V253.25H31.0039V252.25H34.0039ZM31.0039 252.25H30.0039V251.25H31.0039V252.25ZM34.0039 249.25H35.0039V252.25H34.0039V249.25ZM31.0039 245.25H34.0039V246.25H31.0039V245.25ZM34.0039 246.25H35.0039V247.25H34.0039V246.25ZM37.0078 246.25H38.0078V252.25H37.0078V246.25ZM38.0078 252.25H41.0078V253.25H38.0078V252.25ZM41.0078 251.25H42.0078V252.25H41.0078V251.25ZM38.0078 245.25H41.0078V246.25H38.0078V245.25ZM41.0078 246.25H42.0078V247.25H41.0078V246.25ZM44.0117 245.25H49.0117V246.25H45.0117V248.25H48.0117V249.25H45.0117V252.25H49.0117V253.25H44.0117V245.25ZM51.0156 245.25H52.0156V247.25H53.0156V248.25H52.0156V253.25H51.0156V245.25ZM55.0156 250.25H54.0156V249.25H55.0156V245.25H56.0156V253.25H55.0156V250.25ZM54.0156 249.25H53.0156V248.25H54.0156V249.25ZM58.0195 245.25H62.0195V246.25H59.0195V252.25H62.0195V253.25H58.0195V245.25ZM62.0195 246.25H63.0195V252.25H62.0195V246.25ZM65.0234 245.25H70.0234V246.25H66.0234V248.25H69.0234V249.25H66.0234V252.25H70.0234V253.25H65.0234V245.25ZM72.0273 245.25H76.0273V246.25H73.0273V249.25H76.0273V251.25H75.0273V250.25H73.0273V253.25H72.0273V245.25ZM76.0273 246.25H77.0273V249.25H76.0273V246.25ZM76.0273 251.25H77.0273V253.25H76.0273V251.25ZM82.0313 246.25H83.0313V248.25H82.0313V246.25ZM79.0313 252.25H80.0313V254.25H79.0313V252.25ZM80.0313 250.25H81.0313V252.25H80.0313V250.25ZM81.0313 248.25H82.0313V250.25H81.0313V248.25ZM83.0313 244.25H84.0313V246.25H83.0313V244.25ZM23 260.25H24V266.25H23V260.25ZM24 266.25H27V267.25H24V266.25ZM27 265.25H28V266.25H27V265.25ZM24 259.25H27V260.25H24V259.25ZM27 260.25H28V261.25H27V260.25ZM30.0039 261.25H31.0039V263.25H34.0039V261.25H35.0039V267.25H34.0039V264.25H31.0039V267.25H30.0039V261.25ZM32.0039 259.25H33.0039V260.25H32.0039V259.25ZM31.0039 260.25H32.0039V261.25H31.0039V260.25ZM33.0039 260.25H34.0039V261.25H33.0039V260.25ZM37.0078 259.25H41.0078V260.25H38.0078V263.25H41.0078V264.25H38.0078V267.25H37.0078V259.25ZM41.0078 260.25H42.0078V263.25H41.0078V260.25ZM51.0156 259.25H52.0156V262.25H55.0156V259.25H56.0156V267.25H55.0156V263.25H52.0156V267.25H51.0156V259.25ZM58.0195 259.25H63.0195V260.25H59.0195V262.25H62.0195V263.25H59.0195V266.25H63.0195V267.25H58.0195V259.25ZM67.0234 266.25V260.25H65.0234V259.25H70.0234V260.25H68.0234V266.25H70.0234V267.25H65.0234V266.25H67.0234ZM72.0273 260.25H73.0273V266.25H72.0273V260.25ZM73.0273 266.25H76.0273V267.25H73.0273V266.25ZM76.0273 264.25H75.0273V263.25H77.0273V266.25H76.0273V264.25ZM73.0273 259.25H76.0273V260.25H73.0273V259.25ZM76.0273 260.25H77.0273V261.25H76.0273V260.25ZM79.0313 259.25H80.0313V262.25H83.0313V259.25H84.0313V267.25H83.0313V263.25H80.0313V267.25H79.0313V259.25ZM86.0352 259.25H91.0352V260.25H89.0352V267.25H88.0352V260.25H86.0352V259.25Z" fill="#222222"/>
<path d="M536.977 102.25H537.977V109.25H536.977V102.25ZM537.977 109.25H540.977V110.25H537.977V109.25ZM540.977 102.25H541.977V109.25H540.977V102.25ZM543.98 106.25H545.98V104.25H546.98V106.25H548.98V107.25H546.98V109.25H545.98V107.25H543.98V106.25ZM550.984 103.25H551.984V106.25H552.984V107.25H551.984V109.25H550.984V103.25ZM551.984 109.25H554.984V110.25H551.984V109.25ZM551.984 102.25H554.984V103.25H551.984V102.25ZM554.984 103.25H555.984V109.25H554.984V105.25H553.984V104.25H554.984V103.25ZM552.984 105.25H553.984V106.25H552.984V105.25ZM557.988 103.25H558.988V106.25H559.988V107.25H558.988V109.25H557.988V103.25ZM558.988 109.25H561.988V110.25H558.988V109.25ZM558.988 102.25H561.988V103.25H558.988V102.25ZM561.988 103.25H562.988V109.25H561.988V105.25H560.988V104.25H561.988V103.25ZM559.988 105.25H560.988V106.25H559.988V105.25ZM564.992 108.25H565.992V109.25H569.992V110.25H564.992V108.25ZM568.992 103.25H565.992V102.25H568.992V103.25ZM568.992 103.25H569.992V105.25H568.992V103.25ZM565.992 107.25H566.992V108.25H565.992V107.25ZM564.992 103.25H565.992V104.25H564.992V103.25ZM567.992 105.25H568.992V106.25H567.992V105.25ZM566.992 106.25H567.992V107.25H566.992V106.25ZM572.996 102.25H575.996V103.25H572.996V102.25ZM571.996 103.25H572.996V105.25H575.996V106.25H572.996V109.25H571.996V103.25ZM575.996 106.25H576.996V109.25H575.996V106.25ZM572.996 109.25H575.996V110.25H572.996V109.25ZM575.996 103.25H576.996V104.25H575.996V103.25Z" fill="#222222"/>
<path d="M557.988 327.25H558.988V328.25H557.988V327.25ZM558.988 326.25H561.988V327.25H558.988V326.25ZM561.988 327.25H562.988V329.25H561.988V327.25ZM559.988 329.25H561.988V330.25H559.988V329.25ZM561.988 330.25H562.988V333.25H561.988V330.25ZM561.988 333.25V334.25H558.988V333.25H561.988ZM558.988 333.25H557.988V332.25H558.988V333.25ZM564.992 327.25H565.992V330.25H566.992V331.25H565.992V333.25H564.992V327.25ZM565.992 333.25H568.992V334.25H565.992V333.25ZM565.992 326.25H568.992V327.25H565.992V326.25ZM568.992 327.25H569.992V333.25H568.992V329.25H567.992V328.25H568.992V327.25ZM566.992 329.25H567.992V330.25H566.992V329.25ZM571.996 327.25H572.996V330.25H573.996V331.25H572.996V333.25H571.996V327.25ZM572.996 333.25H575.996V334.25H572.996V333.25ZM572.996 326.25H575.996V327.25H572.996V326.25ZM575.996 327.25H576.996V333.25H575.996V329.25H574.996V328.25H575.996V327.25ZM573.996 329.25H574.996V330.25H573.996V329.25Z" fill="#222222"/>
<path d="M571.996 567.25H572.996V570.25H573.996V571.25H572.996V573.25H571.996V567.25ZM572.996 573.25H575.996V574.25H572.996V573.25ZM572.996 566.25H575.996V567.25H572.996V566.25ZM575.996 567.25H576.996V573.25H575.996V569.25H574.996V568.25H575.996V567.25ZM573.996 569.25H574.996V570.25H573.996V569.25Z" fill="#222222"/>
<path d="M554.984 650.25V651.25H551.984V650.25H554.984ZM559.988 648.25H557.988V647.25H559.988V646.25H560.988V653.25H562.988V654.25H557.988V653.25H559.988V648.25ZM564.992 647.25H565.992V650.25H566.992V651.25H565.992V653.25H564.992V647.25ZM565.992 653.25H568.992V654.25H565.992V653.25ZM565.992 646.25H568.992V647.25H565.992V646.25ZM568.992 647.25H569.992V653.25H568.992V649.25H567.992V648.25H568.992V647.25ZM566.992 649.25H567.992V650.25H566.992V649.25ZM571.996 647.25H572.996V650.25H573.996V651.25H572.996V653.25H571.996V647.25ZM572.996 653.25H575.996V654.25H572.996V653.25ZM572.996 646.25H575.996V647.25H572.996V646.25ZM575.996 647.25H576.996V653.25H575.996V649.25H574.996V648.25H575.996V647.25ZM573.996 649.25H574.996V650.25H573.996V649.25Z" fill="#222222"/>
<path d="M560.988 246.25H562.988V254.25H561.988V252.25H557.988V249.25H558.988V251.25H561.988V247.25H560.988V246.25ZM559.988 247.25H560.988V248.25H559.988V247.25ZM558.988 248.25H559.988V249.25H558.988V248.25ZM564.992 247.25H565.992V250.25H566.992V251.25H565.992V253.25H564.992V247.25ZM565.992 253.25H568.992V254.25H565.992V253.25ZM565.992 246.25H568.992V247.25H565.992V246.25ZM568.992 247.25H569.992V253.25H568.992V249.25H567.992V248.25H568.992V247.25ZM566.992 249.25H567.992V250.25H566.992V249.25ZM571.996 247.25H572.996V250.25H573.996V251.25H572.996V253.25H571.996V247.25ZM572.996 253.25H575.996V254.25H572.996V253.25ZM572.996 246.25H575.996V247.25H572.996V246.25ZM575.996 247.25H576.996V253.25H575.996V249.25H574.996V248.25H575.996V247.25ZM573.996 249.25H574.996V250.25H573.996V249.25Z" fill="#222222"/>
<path d="M240.422 357.25H200.422V277.25H240.422V357.25ZM240.422 357.25H280.422V397.25H240.422V357.25ZM240.422 517.25H200.422V397.25H240.422V517.25ZM240.422 517.25H320.422V557.25H240.422V517.25ZM240.422 237.25H320.422V277.25H240.422V237.25ZM400.422 397.25V437.25H360.422V517.25H320.422V397.25H400.422ZM320.422 277.25H360.422V317.25H320.422V277.25ZM400.422 357.25H440.422V397.25H400.422V357.25Z" fill="#222222"/>
</svg>
