<svg width="585" height="84" viewBox="0 0 585 84" fill="none" xmlns="http://www.w3.org/2000/svg">
<path d="M111.5 1L96 16.5V42H470.5V1H111.5Z" stroke="#333333" stroke-linejoin="round"/>
<path d="M470.5 1H111.5V11H470.5V1Z" stroke="#333333" stroke-linejoin="round"/>
<path d="M470.5 14H111.5V17H470.5V14Z" stroke="#333333" stroke-linejoin="round"/>
<path d="M111.5 83L96 67.5V42H470.5V83H111.5Z" stroke="#333333" stroke-linejoin="round"/>
<path d="M111.5 83L96 67.5V42H111.5V83Z" stroke="#333333" stroke-linejoin="round"/>
<path d="M111.5 1L96 16.5V42H111.5V1Z" stroke="#333333" stroke-linejoin="round"/>
<path d="M111.5 1L96 16.5V32.5L111.5 17V1Z" stroke="#333333" stroke-linejoin="round"/>
<path d="M55.5 31H30V34.5H55.5L96 24.5V21L55.5 31Z" stroke="#333333" stroke-linejoin="round"/>
<path d="M55.5 26.5H32C30.8954 26.5 30 27.3954 30 28.5V31H55.5L96 21V16.5L55.5 26.5Z" stroke="#333333" stroke-linejoin="round"/>
<path d="M55.5 34.5H30V38.5H55.5L96 28.5V24.5L55.5 34.5Z" stroke="#333333" stroke-linejoin="round"/>
<path d="M55.5 26.5H32C30.8954 26.5 30 27.3954 30 28.5V42H96V16.5L55.5 26.5Z" stroke="#333333" stroke-linejoin="round"/>
<path d="M55.5 57.5H32C30.8954 57.5 30 56.6046 30 55.5V42H96V67.5L55.5 57.5Z" stroke="#333333" stroke-linejoin="round"/>
<path d="M19 50.5L2 34.5H30V50.5H19Z" stroke="#333333"/>
<path d="M470.5 1H576.5C580.918 1 584.5 4.58172 584.5 9V75C584.5 79.4183 580.918 83 576.5 83H470.5V1Z" stroke="#333333"/>
<path d="M584.5 21V63H420.5C418.291 63 416.5 61.2091 416.5 59V25C416.5 22.7909 418.291 21 420.5 21L584.5 21Z" stroke="#333333"/>
<path d="M470.5 17.5H584.5V21H470.5V17.5Z" stroke="#333333" stroke-linejoin="round"/>
<path d="M470.5 63H584.5V66H470.5V63Z" stroke="#333333" stroke-linejoin="round"/>
<path d="M470.5 67H111.5V75H470.5V67Z" stroke="#333333" stroke-linejoin="round"/>
<path d="M55.5 54H30V50.5H55.5L96 60.5V64L55.5 54Z" stroke="#333333" stroke-linejoin="round"/>
</svg>
