<svg width="700" height="764" viewBox="0 0 700 764" fill="none" xmlns="http://www.w3.org/2000/svg">
<path d="M-429 16H-433V12H-429V8H-425V12H-417V16H-425V36H-429V16ZM-425 4H-413V8H-425V4ZM-404.984 12H-400.984V32H-404.984V12ZM-400.984 32H-392.984V36H-400.984V32ZM-388.984 12H-384.984V36H-388.984V32H-392.984V28H-388.984V12ZM-376.969 12H-372.969V16H-368.969V20H-372.969V36H-376.969V12ZM-368.969 12H-360.969V16H-368.969V12ZM-360.969 16H-356.969V36H-360.969V16ZM-344.953 12H-332.953V16H-344.953V12ZM-348.953 16H-344.953V32H-348.953V16ZM-344.953 32H-332.953V36H-344.953V32ZM-332.953 16H-328.953V20H-332.953V16ZM-332.953 28H-328.953V32H-332.953V28ZM-316.937 4H-312.937V12H-304.937V16H-312.937V32H-316.937V16H-320.937V12H-316.937V4ZM-312.937 32H-304.937V36H-312.937V32ZM-304.937 28H-300.937V32H-304.937V28ZM-284.922 4H-280.922V8H-284.922V4ZM-284.922 16H-288.922V12H-280.922V32H-272.922V36H-292.922V32H-284.922V16ZM-260.906 12H-248.906V16H-260.906V12ZM-248.906 16H-244.906V32H-248.906V16ZM-264.906 16H-260.906V32H-264.906V16ZM-260.906 32H-248.906V36H-260.906V32ZM-236.891 12H-232.891V16H-228.891V20H-232.891V36H-236.891V12ZM-228.891 12H-220.891V16H-228.891V12ZM-220.891 16H-216.891V36H-220.891V16ZM-164.859 32V36H-176.859V32H-164.859ZM-176.859 32H-180.859V28H-176.859V32ZM-164.859 12V16H-176.859V12H-164.859ZM-180.859 16H-176.859V20H-180.859V16ZM-176.859 20H-164.859V24H-176.859V20ZM-164.859 24H-160.859V32H-164.859V24ZM-152.844 4H-148.844V16H-144.844V20H-148.844V36H-152.844V4ZM-136.844 16H-132.844V36H-136.844V16ZM-144.844 12H-136.844V16H-144.844V12ZM-120.828 12H-108.828V16H-120.828V12ZM-108.828 16H-104.828V32H-108.828V16ZM-124.828 16H-120.828V32H-124.828V16ZM-120.828 32H-108.828V36H-120.828V32ZM-96.8125 12H-92.8125V16H-88.8125V20H-92.8125V36H-96.8125V12ZM-80.8125 12V16H-88.8125V12H-80.8125ZM-80.8125 16H-76.8125V20H-80.8125V16ZM-64.7969 4H-60.7969V12H-52.7969V16H-60.7969V32H-64.7969V16H-68.7969V12H-64.7969V4ZM-60.7969 32H-52.7969V36H-60.7969V32ZM-52.7969 28H-48.7969V32H-52.7969V28ZM-36.7812 12H-24.7812V16H-36.7812V12ZM-40.7812 16H-36.7812V20H-24.7812V16H-20.7812V24H-36.7812V32H-40.7812V16ZM-36.7812 32H-24.7812V36H-36.7812V32ZM-24.7812 28H-20.7812V32H-24.7812V28ZM3.23438 32V36H-8.76562V32H3.23438ZM-8.76562 32H-12.7656V28H-8.76562V32ZM3.23438 12V16H-8.76562V12H3.23438ZM-12.7656 16H-8.76562V20H-12.7656V16ZM-8.76562 20H3.23438V24H-8.76562V20ZM3.23438 24H7.23438V32H3.23438V24ZM19.25 4H23.25V12H31.25V16H23.25V32H19.25V16H15.25V12H19.25V4ZM23.25 32H31.25V36H23.25V32ZM31.25 28H35.25V32H31.25V28ZM43.2656 4H59.2656V8H47.2656V20H59.2656V24H47.2656V36H43.2656V4ZM59.2656 8H63.2656V20H59.2656V8ZM71.2813 24H75.2813V32H71.2813V24ZM75.2813 32H83.2813V36H75.2813V32ZM83.2813 28H87.2813V24H75.2813V20H87.2813V16H91.2813V36H87.2813V32H83.2813V28ZM75.2813 12H87.2813V16H75.2813V12ZM103.297 4H107.297V12H115.297V16H107.297V32H103.297V16H99.2969V12H103.297V4ZM107.297 32H115.297V36H107.297V32ZM115.297 28H119.297V32H115.297V28ZM127.313 4H131.313V16H135.313V20H131.313V36H127.313V4ZM143.313 16H147.313V36H143.313V16ZM135.313 12H143.313V16H135.313V12ZM159.328 8H163.328V32H159.328V8ZM167.328 36H163.328V32H167.328V36ZM167.328 36H171.328V40H167.328V36ZM167.328 2.38419e-07H171.328V4H167.328V2.38419e-07ZM163.328 4H167.328V8H163.328V4ZM199.344 32V36H187.344V32H199.344ZM187.344 32H183.344V28H187.344V32ZM199.344 12V16H187.344V12H199.344ZM183.344 16H187.344V20H183.344V16ZM187.344 20H199.344V24H187.344V20ZM199.344 24H203.344V32H199.344V24ZM215.359 12H227.359V16H215.359V12ZM227.359 16H231.359V32H227.359V16ZM211.359 16H215.359V32H211.359V16ZM215.359 32H227.359V36H215.359V32ZM239.375 12H243.375V32H239.375V12ZM243.375 32H251.375V36H243.375V32ZM255.375 12H259.375V36H255.375V32H251.375V28H255.375V12ZM267.391 12H271.391V16H275.391V20H271.391V36H267.391V12ZM283.391 12V16H275.391V12H283.391ZM283.391 16H287.391V20H283.391V16ZM299.406 12H311.406V16H299.406V12ZM295.406 16H299.406V32H295.406V16ZM299.406 32H311.406V36H299.406V32ZM311.406 16H315.406V20H311.406V16ZM311.406 28H315.406V32H311.406V28ZM327.422 12H339.422V16H327.422V12ZM323.422 16H327.422V20H339.422V16H343.422V24H327.422V32H323.422V16ZM327.422 32H339.422V36H327.422V32ZM339.422 28H343.422V32H339.422V28ZM359.438 28H363.438V36H359.438V28ZM355.438 36H359.438V40H355.438V36ZM411.469 4H415.469V12H423.469V16H415.469V32H411.469V16H407.469V12H411.469V4ZM415.469 32H423.469V36H415.469V32ZM423.469 28H427.469V32H423.469V28ZM435.484 24H439.484V32H435.484V24ZM439.484 32H447.484V36H439.484V32ZM447.484 28H451.484V24H439.484V20H451.484V16H455.484V36H451.484V32H447.484V28ZM439.484 12H451.484V16H439.484V12ZM463.5 12H467.5V16H471.5V20H467.5V36H463.5V12ZM479.5 12V16H471.5V12H479.5ZM479.5 16H483.5V20H479.5V16ZM495.516 12H503.516V16H495.516V12ZM491.516 16H495.516V32H491.516V16ZM495.516 32H503.516V36H495.516V32ZM495.516 40H507.516V44H495.516V40ZM503.516 28H507.516V20H503.516V16H507.516V12H511.516V40H507.516V32H503.516V28ZM523.531 12H535.531V16H523.531V12ZM519.531 16H523.531V20H535.531V16H539.531V24H523.531V32H519.531V16ZM523.531 32H535.531V36H523.531V32ZM535.531 28H539.531V32H535.531V28ZM551.547 4H555.547V12H563.547V16H555.547V32H551.547V16H547.547V12H551.547V4ZM555.547 32H563.547V36H555.547V32ZM563.547 28H567.547V32H563.547V28ZM587.563 8H591.563V32H587.563V8ZM583.563 32H587.563V36H583.563V32ZM579.563 36H583.563V40H579.563V36ZM579.563 2.38419e-07H583.563V4H579.563V2.38419e-07ZM587.563 8H583.563V4H587.563V8ZM639.594 16V20H631.594V16H639.594ZM639.594 4H643.594V16H639.594V4ZM639.594 20H643.594V36H639.594V20ZM643.594 36H651.594V40H643.594V36ZM643.594 2.38419e-07H651.594V4H643.594V2.38419e-07ZM-368.969 64H-364.969V68H-368.969V64ZM-368.969 76H-372.969V72H-364.969V92H-356.969V96H-376.969V92H-368.969V76ZM-344.953 76H-348.953V72H-344.953V68H-340.953V72H-332.953V76H-340.953V96H-344.953V76ZM-340.953 64H-328.953V68H-340.953V64ZM-288.922 68H-284.922V92H-288.922V68ZM-280.922 96H-284.922V92H-280.922V96ZM-280.922 96H-276.922V100H-280.922V96ZM-280.922 60H-276.922V64H-280.922V60ZM-284.922 64H-280.922V68H-284.922V64ZM-256.906 64H-252.906V88H-256.906V64ZM-256.906 92H-252.906V96H-256.906V92ZM-220.891 92V96H-232.891V92H-220.891ZM-232.891 92H-236.891V88H-232.891V92ZM-220.891 72V76H-232.891V72H-220.891ZM-236.891 76H-232.891V80H-236.891V76ZM-232.891 80H-220.891V84H-232.891V80ZM-220.891 84H-216.891V92H-220.891V84ZM-204.875 72H-192.875V76H-204.875V72ZM-192.875 76H-188.875V92H-192.875V76ZM-208.875 76H-204.875V92H-208.875V76ZM-204.875 92H-192.875V96H-204.875V92ZM-180.859 72H-176.859V92H-180.859V72ZM-176.859 92H-168.859V96H-176.859V92ZM-164.859 72H-160.859V96H-164.859V92H-168.859V88H-164.859V72ZM-152.844 72H-148.844V76H-144.844V80H-148.844V96H-152.844V72ZM-136.844 72V76H-144.844V72H-136.844ZM-136.844 76H-132.844V80H-136.844V76ZM-120.828 72H-108.828V76H-120.828V72ZM-124.828 76H-120.828V92H-124.828V76ZM-120.828 92H-108.828V96H-120.828V92ZM-108.828 76H-104.828V80H-108.828V76ZM-108.828 88H-104.828V92H-108.828V88ZM-92.8125 72H-80.8125V76H-92.8125V72ZM-96.8125 76H-92.8125V80H-80.8125V76H-76.8125V84H-92.8125V92H-96.8125V76ZM-92.8125 92H-80.8125V96H-92.8125V92ZM-80.8125 88H-76.8125V92H-80.8125V88ZM-32.7812 60H-28.7812V100H-32.7812V60ZM-4.76562 60H-0.765625V100H-4.76562V60ZM51.2656 64H55.2656V88H51.2656V64ZM51.2656 92H55.2656V96H51.2656V92ZM75.2813 64H79.2813V72H87.2813V76H79.2813V92H75.2813V76H71.2813V72H75.2813V64ZM79.2813 92H87.2813V96H79.2813V92ZM87.2813 88H91.2813V92H87.2813V88ZM99.2969 84H103.297V92H99.2969V84ZM103.297 92H111.297V96H103.297V92ZM111.297 88H115.297V84H103.297V80H115.297V76H119.297V96H115.297V92H111.297V88ZM103.297 72H115.297V76H103.297V72ZM127.313 72H131.313V76H135.313V80H131.313V96H127.313V72ZM143.313 72V76H135.313V72H143.313ZM143.313 76H147.313V80H143.313V76ZM159.328 72H167.328V76H159.328V72ZM155.328 76H159.328V92H155.328V76ZM159.328 92H167.328V96H159.328V92ZM159.328 100H171.328V104H159.328V100ZM167.328 88H171.328V80H167.328V76H171.328V72H175.328V100H171.328V92H167.328V88ZM187.344 72H199.344V76H187.344V72ZM183.344 76H187.344V80H199.344V76H203.344V84H187.344V92H183.344V76ZM187.344 92H199.344V96H187.344V92ZM199.344 88H203.344V92H199.344V88ZM215.359 64H219.359V72H227.359V76H219.359V92H215.359V76H211.359V72H215.359V64ZM219.359 92H227.359V96H219.359V92ZM227.359 88H231.359V92H227.359V88ZM251.375 68H255.375V92H251.375V68ZM247.375 92H251.375V96H247.375V92ZM243.375 96H247.375V100H243.375V96ZM243.375 60H247.375V64H243.375V60ZM251.375 68H247.375V64H251.375V68ZM495.516 60H507.516V64H499.516V96H507.516V100H495.516V60ZM531.531 64H523.531V60H535.531V100H523.531V96H531.531V64ZM555.547 88H559.547V96H555.547V88ZM551.547 96H555.547V100H551.547V96ZM555.547 72H559.547V80H555.547V72ZM-368.969 124H-364.969V128H-368.969V124ZM-368.969 136H-372.969V132H-364.969V152H-356.969V156H-376.969V152H-368.969V136ZM-344.953 136H-348.953V132H-344.953V128H-340.953V132H-332.953V136H-340.953V156H-344.953V136ZM-340.953 124H-328.953V128H-340.953V124ZM-288.922 128H-284.922V152H-288.922V128ZM-280.922 156H-284.922V152H-280.922V156ZM-280.922 156H-276.922V160H-280.922V156ZM-280.922 120H-276.922V124H-280.922V120ZM-284.922 124H-280.922V128H-284.922V124ZM-248.906 152V156H-260.906V152H-248.906ZM-260.906 152H-264.906V148H-260.906V152ZM-248.906 132V136H-260.906V132H-248.906ZM-264.906 136H-260.906V140H-264.906V136ZM-260.906 140H-248.906V144H-260.906V140ZM-248.906 144H-244.906V152H-248.906V144ZM-232.891 132H-220.891V136H-232.891V132ZM-220.891 136H-216.891V152H-220.891V136ZM-236.891 136H-232.891V152H-236.891V136ZM-232.891 152H-220.891V156H-232.891V152ZM-208.875 132H-204.875V152H-208.875V132ZM-204.875 152H-196.875V156H-204.875V152ZM-192.875 132H-188.875V156H-192.875V152H-196.875V148H-192.875V132ZM-180.859 132H-176.859V136H-172.859V140H-176.859V156H-180.859V132ZM-164.859 132V136H-172.859V132H-164.859ZM-164.859 136H-160.859V140H-164.859V136ZM-148.844 132H-136.844V136H-148.844V132ZM-152.844 136H-148.844V152H-152.844V136ZM-148.844 152H-136.844V156H-148.844V152ZM-136.844 136H-132.844V140H-136.844V136ZM-136.844 148H-132.844V152H-136.844V148ZM-120.828 132H-108.828V136H-120.828V132ZM-124.828 136H-120.828V140H-108.828V136H-104.828V144H-120.828V152H-124.828V136ZM-120.828 152H-108.828V156H-120.828V152ZM-108.828 148H-104.828V152H-108.828V148ZM-48.7969 136V140H-68.7969V136H-48.7969ZM-48.7969 144V148H-68.7969V144H-48.7969ZM-20.7812 136V140H-40.7812V136H-20.7812ZM-20.7812 144V148H-40.7812V144H-20.7812ZM7.23438 136V140H-12.7656V136H7.23438ZM7.23438 144V148H-12.7656V144H7.23438ZM47.2656 124H51.2656V132H59.2656V136H51.2656V152H47.2656V136H43.2656V132H47.2656V124ZM51.2656 152H59.2656V156H51.2656V152ZM59.2656 148H63.2656V152H59.2656V148ZM71.2813 144H75.2813V152H71.2813V144ZM75.2813 152H83.2813V156H75.2813V152ZM83.2813 148H87.2813V144H75.2813V140H87.2813V136H91.2813V156H87.2813V152H83.2813V148ZM75.2813 132H87.2813V136H75.2813V132ZM99.2969 132H103.297V136H107.297V140H103.297V156H99.2969V132ZM115.297 132V136H107.297V132H115.297ZM115.297 136H119.297V140H115.297V136ZM131.313 132H139.313V136H131.313V132ZM127.313 136H131.313V152H127.313V136ZM131.313 152H139.313V156H131.313V152ZM131.313 160H143.313V164H131.313V160ZM139.313 148H143.313V140H139.313V136H143.313V132H147.313V160H143.313V152H139.313V148ZM159.328 132H171.328V136H159.328V132ZM155.328 136H159.328V140H171.328V136H175.328V144H159.328V152H155.328V136ZM159.328 152H171.328V156H159.328V152ZM171.328 148H175.328V152H171.328V148ZM187.344 124H191.344V132H199.344V136H191.344V152H187.344V136H183.344V132H187.344V124ZM191.344 152H199.344V156H191.344V152ZM199.344 148H203.344V152H199.344V148ZM223.359 128H227.359V152H223.359V128ZM219.359 152H223.359V156H219.359V152ZM215.359 156H219.359V160H215.359V156ZM215.359 120H219.359V124H215.359V120ZM223.359 128H219.359V124H223.359V128ZM467.5 120H479.5V124H471.5V156H479.5V160H467.5V120ZM507.516 152V156H495.516V152H507.516ZM495.516 152H491.516V148H495.516V152ZM507.516 132V136H495.516V132H507.516ZM491.516 136H495.516V140H491.516V136ZM495.516 140H507.516V144H495.516V140ZM507.516 144H511.516V152H507.516V144ZM523.531 132H535.531V136H523.531V132ZM535.531 136H539.531V152H535.531V136ZM519.531 136H523.531V152H519.531V136ZM523.531 152H535.531V156H523.531V152ZM547.547 132H551.547V152H547.547V132ZM551.547 152H559.547V156H551.547V152ZM563.547 132H567.547V156H563.547V152H559.547V148H563.547V132ZM575.563 132H579.563V136H583.563V140H579.563V156H575.563V132ZM591.563 132V136H583.563V132H591.563ZM591.563 136H595.563V140H591.563V136ZM607.578 132H619.578V136H607.578V132ZM603.578 136H607.578V152H603.578V136ZM607.578 152H619.578V156H607.578V152ZM619.578 136H623.578V140H619.578V136ZM619.578 148H623.578V152H619.578V148ZM635.594 132H647.594V136H635.594V132ZM631.594 136H635.594V140H647.594V136H651.594V144H635.594V152H631.594V136ZM635.594 152H647.594V156H635.594V152ZM647.594 148H651.594V152H647.594V148ZM671.609 124H663.609V120H675.609V160H663.609V156H671.609V124ZM695.625 148H699.625V156H695.625V148ZM691.625 156H695.625V160H691.625V156ZM695.625 132H699.625V140H695.625V132ZM-372.969 252H-360.969V256H-372.969V252ZM-376.969 256H-372.969V272H-376.969V256ZM-372.969 272H-360.969V276H-372.969V272ZM-360.969 256H-356.969V260H-360.969V256ZM-360.969 268H-356.969V272H-360.969V268ZM-344.953 252H-332.953V256H-344.953V252ZM-332.953 256H-328.953V272H-332.953V256ZM-348.953 256H-344.953V272H-348.953V256ZM-344.953 272H-332.953V276H-344.953V272ZM-320.937 252H-316.937V256H-312.937V260H-316.937V276H-320.937V252ZM-312.937 252H-304.937V256H-312.937V252ZM-304.937 256H-300.937V276H-304.937V256ZM-276.922 272V276H-288.922V272H-276.922ZM-288.922 272H-292.922V268H-288.922V272ZM-276.922 252V256H-288.922V252H-276.922ZM-292.922 256H-288.922V260H-292.922V256ZM-288.922 260H-276.922V264H-288.922V260ZM-276.922 264H-272.922V272H-276.922V264ZM-260.906 244H-256.906V252H-248.906V256H-256.906V272H-260.906V256H-264.906V252H-260.906V244ZM-256.906 272H-248.906V276H-256.906V272ZM-248.906 268H-244.906V272H-248.906V268ZM-204.875 252H-196.875V256H-204.875V252ZM-196.875 256H-192.875V252H-188.875V284H-192.875V272H-196.875V268H-192.875V260H-196.875V256ZM-208.875 256H-204.875V272H-208.875V256ZM-204.875 272H-196.875V276H-204.875V272ZM-180.859 252H-176.859V272H-180.859V252ZM-176.859 272H-168.859V276H-176.859V272ZM-164.859 252H-160.859V276H-164.859V272H-168.859V268H-164.859V252ZM-148.844 252H-136.844V256H-148.844V252ZM-152.844 256H-148.844V260H-136.844V256H-132.844V264H-148.844V272H-152.844V256ZM-148.844 272H-136.844V276H-148.844V272ZM-136.844 268H-132.844V272H-136.844V268ZM-124.828 252H-120.828V272H-124.828V252ZM-120.828 272H-112.828V276H-120.828V272ZM-108.828 252H-104.828V276H-108.828V272H-112.828V268H-108.828V252ZM-92.8125 252H-80.8125V256H-92.8125V252ZM-96.8125 256H-92.8125V260H-80.8125V256H-76.8125V264H-92.8125V272H-96.8125V256ZM-92.8125 272H-80.8125V276H-92.8125V272ZM-80.8125 268H-76.8125V272H-80.8125V268ZM-20.7812 256V260H-40.7812V256H-20.7812ZM-20.7812 264V268H-40.7812V264H-20.7812ZM19.25 240H31.25V244H23.25V276H31.25V280H19.25V240ZM59.2656 272V276H47.2656V272H59.2656ZM47.2656 272H43.2656V268H47.2656V272ZM59.2656 252V256H47.2656V252H59.2656ZM43.2656 256H47.2656V260H43.2656V256ZM47.2656 260H59.2656V264H47.2656V260ZM59.2656 264H63.2656V272H59.2656V264ZM75.2813 252H87.2813V256H75.2813V252ZM87.2813 256H91.2813V272H87.2813V256ZM71.2813 256H75.2813V272H71.2813V256ZM75.2813 272H87.2813V276H75.2813V272ZM99.2969 252H103.297V272H99.2969V252ZM103.297 272H111.297V276H103.297V272ZM115.297 252H119.297V276H115.297V272H111.297V268H115.297V252ZM127.313 252H131.313V256H135.313V260H131.313V276H127.313V252ZM143.313 252V256H135.313V252H143.313ZM143.313 256H147.313V260H143.313V256ZM159.328 252H171.328V256H159.328V252ZM155.328 256H159.328V272H155.328V256ZM159.328 272H171.328V276H159.328V272ZM171.328 256H175.328V260H171.328V256ZM171.328 268H175.328V272H171.328V268ZM187.344 252H199.344V256H187.344V252ZM183.344 256H187.344V260H199.344V256H203.344V264H187.344V272H183.344V256ZM187.344 272H199.344V276H187.344V272ZM199.344 268H203.344V272H199.344V268ZM223.359 244H215.359V240H227.359V280H215.359V276H223.359V244ZM247.375 268H251.375V276H247.375V268ZM243.375 276H247.375V280H243.375V276ZM247.375 252H251.375V260H247.375V252ZM-372.969 312H-360.969V316H-372.969V312ZM-376.969 316H-372.969V332H-376.969V316ZM-372.969 332H-360.969V336H-372.969V332ZM-360.969 316H-356.969V320H-360.969V316ZM-360.969 328H-356.969V332H-360.969V328ZM-344.953 312H-332.953V316H-344.953V312ZM-332.953 316H-328.953V332H-332.953V316ZM-348.953 316H-344.953V332H-348.953V316ZM-344.953 332H-332.953V336H-344.953V332ZM-320.937 312H-316.937V316H-312.937V320H-316.937V336H-320.937V312ZM-312.937 312H-304.937V316H-312.937V312ZM-304.937 316H-300.937V336H-304.937V316ZM-276.922 332V336H-288.922V332H-276.922ZM-288.922 332H-292.922V328H-288.922V332ZM-276.922 312V316H-288.922V312H-276.922ZM-292.922 316H-288.922V320H-292.922V316ZM-288.922 320H-276.922V324H-288.922V320ZM-276.922 324H-272.922V332H-276.922V324ZM-260.906 304H-256.906V312H-248.906V316H-256.906V332H-260.906V316H-264.906V312H-260.906V304ZM-256.906 332H-248.906V336H-256.906V332ZM-248.906 328H-244.906V332H-248.906V328ZM-208.875 312H-204.875V324H-208.875V312ZM-192.875 312H-188.875V324H-192.875V312ZM-200.875 332H-204.875V324H-200.875V332ZM-200.875 332H-196.875V336H-200.875V332ZM-196.875 324H-192.875V332H-196.875V324ZM-172.859 304H-168.859V308H-172.859V304ZM-172.859 316H-176.859V312H-168.859V332H-160.859V336H-180.859V332H-172.859V316ZM-136.844 332V336H-148.844V332H-136.844ZM-148.844 332H-152.844V328H-148.844V332ZM-136.844 312V316H-148.844V312H-136.844ZM-152.844 316H-148.844V320H-152.844V316ZM-148.844 320H-136.844V324H-148.844V320ZM-136.844 324H-132.844V332H-136.844V324ZM-116.828 304H-112.828V308H-116.828V304ZM-116.828 316H-120.828V312H-112.828V332H-104.828V336H-124.828V332H-116.828V316ZM-92.8125 304H-88.8125V312H-80.8125V316H-88.8125V332H-92.8125V316H-96.8125V312H-92.8125V304ZM-88.8125 332H-80.8125V336H-88.8125V332ZM-80.8125 328H-76.8125V332H-80.8125V328ZM-64.7969 312H-52.7969V316H-64.7969V312ZM-68.7969 316H-64.7969V320H-52.7969V316H-48.7969V324H-64.7969V332H-68.7969V316ZM-64.7969 332H-52.7969V336H-64.7969V332ZM-52.7969 328H-48.7969V332H-52.7969V328ZM-24.7812 304H-20.7812V336H-24.7812V332H-28.7812V328H-24.7812V320H-28.7812V316H-24.7812V304ZM-28.7812 332V336H-36.7812V332H-28.7812ZM-36.7812 332H-40.7812V316H-36.7812V332ZM-28.7812 316H-36.7812V312H-28.7812V316ZM35.25 316V320H15.25V316H35.25ZM35.25 324V328H15.25V324H35.25ZM79.2813 316V320H71.2813V316H79.2813ZM79.2813 304H83.2813V316H79.2813V304ZM79.2813 320H83.2813V336H79.2813V320ZM83.2813 336H91.2813V340H83.2813V336ZM83.2813 300H91.2813V304H83.2813V300ZM131.313 300H143.313V304H135.313V336H143.313V340H131.313V300ZM171.328 332V336H159.328V332H171.328ZM159.328 332H155.328V328H159.328V332ZM171.328 312V316H159.328V312H171.328ZM155.328 316H159.328V320H155.328V316ZM159.328 320H171.328V324H159.328V320ZM171.328 324H175.328V332H171.328V324ZM187.344 312H199.344V316H187.344V312ZM199.344 316H203.344V332H199.344V316ZM183.344 316H187.344V332H183.344V316ZM187.344 332H199.344V336H187.344V332ZM211.359 312H215.359V332H211.359V312ZM215.359 332H223.359V336H215.359V332ZM227.359 312H231.359V336H227.359V332H223.359V328H227.359V312ZM239.375 312H243.375V316H247.375V320H243.375V336H239.375V312ZM255.375 312V316H247.375V312H255.375ZM255.375 316H259.375V320H255.375V316ZM271.391 312H283.391V316H271.391V312ZM267.391 316H271.391V332H267.391V316ZM271.391 332H283.391V336H271.391V332ZM283.391 316H287.391V320H283.391V316ZM283.391 328H287.391V332H283.391V328ZM299.406 312H311.406V316H299.406V312ZM295.406 316H299.406V320H311.406V316H315.406V324H299.406V332H295.406V316ZM299.406 332H311.406V336H299.406V332ZM311.406 328H315.406V332H311.406V328ZM335.422 304H327.422V300H339.422V340H327.422V336H335.422V304ZM359.438 328H363.438V336H359.438V328ZM359.438 312H363.438V320H359.438V312ZM411.469 304H415.469V312H423.469V316H415.469V332H411.469V316H407.469V312H411.469V304ZM415.469 332H423.469V336H415.469V332ZM423.469 328H427.469V332H423.469V328ZM435.484 312H439.484V316H443.484V320H439.484V336H435.484V312ZM451.484 312V316H443.484V312H451.484ZM451.484 316H455.484V320H451.484V316ZM463.5 312H467.5V332H463.5V312ZM467.5 332H475.5V336H467.5V332ZM479.5 312H483.5V336H479.5V332H475.5V328H479.5V312ZM495.516 312H507.516V316H495.516V312ZM491.516 316H495.516V320H507.516V316H511.516V324H495.516V332H491.516V316ZM495.516 332H507.516V336H495.516V332ZM507.516 328H511.516V332H507.516V328ZM555.547 304H559.547V316H555.547V304ZM567.547 316V320H559.547V316H567.547ZM555.547 320H559.547V336H555.547V320ZM555.547 336V340H547.547V336H555.547ZM555.547 300V304H547.547V300H555.547ZM583.563 328H587.563V336H583.563V328ZM579.563 336H583.563V340H579.563V336ZM583.563 312H587.563V320H583.563V312ZM-372.969 372H-360.969V376H-372.969V372ZM-376.969 376H-372.969V392H-376.969V376ZM-372.969 392H-360.969V396H-372.969V392ZM-360.969 376H-356.969V380H-360.969V376ZM-360.969 388H-356.969V392H-360.969V388ZM-344.953 372H-332.953V376H-344.953V372ZM-332.953 376H-328.953V392H-332.953V376ZM-348.953 376H-344.953V392H-348.953V376ZM-344.953 392H-332.953V396H-344.953V392ZM-320.937 372H-316.937V376H-312.937V380H-316.937V396H-320.937V372ZM-312.937 372H-304.937V376H-312.937V372ZM-304.937 376H-300.937V396H-304.937V376ZM-276.922 392V396H-288.922V392H-276.922ZM-288.922 392H-292.922V388H-288.922V392ZM-276.922 372V376H-288.922V372H-276.922ZM-292.922 376H-288.922V380H-292.922V376ZM-288.922 380H-276.922V384H-288.922V380ZM-276.922 384H-272.922V392H-276.922V384ZM-260.906 364H-256.906V372H-248.906V376H-256.906V392H-260.906V376H-264.906V372H-260.906V364ZM-256.906 392H-248.906V396H-256.906V392ZM-248.906 388H-244.906V392H-248.906V388ZM-208.875 372H-204.875V376H-200.875V380H-204.875V388H-200.875V392H-204.875V404H-208.875V372ZM-200.875 372H-192.875V376H-200.875V372ZM-192.875 376H-188.875V392H-192.875V376ZM-200.875 392H-192.875V396H-200.875V392ZM-180.859 372H-176.859V376H-172.859V380H-176.859V396H-180.859V372ZM-164.859 372V376H-172.859V372H-164.859ZM-164.859 376H-160.859V380H-164.859V376ZM-148.844 372H-136.844V376H-148.844V372ZM-152.844 376H-148.844V380H-136.844V376H-132.844V384H-148.844V392H-152.844V376ZM-148.844 392H-136.844V396H-148.844V392ZM-136.844 388H-132.844V392H-136.844V388ZM-108.828 364H-104.828V396H-108.828V392H-112.828V388H-108.828V380H-112.828V376H-108.828V364ZM-112.828 392V396H-120.828V392H-112.828ZM-120.828 392H-124.828V376H-120.828V392ZM-112.828 376H-120.828V372H-112.828V376ZM-92.8125 372H-80.8125V376H-92.8125V372ZM-96.8125 376H-92.8125V380H-80.8125V376H-76.8125V384H-92.8125V392H-96.8125V376ZM-92.8125 392H-80.8125V396H-92.8125V392ZM-80.8125 388H-76.8125V392H-80.8125V388ZM-64.7969 372H-52.7969V376H-64.7969V372ZM-68.7969 376H-64.7969V392H-68.7969V376ZM-64.7969 392H-52.7969V396H-64.7969V392ZM-52.7969 376H-48.7969V380H-52.7969V376ZM-52.7969 388H-48.7969V392H-52.7969V388ZM-36.7812 372H-24.7812V376H-36.7812V372ZM-40.7812 376H-36.7812V380H-24.7812V376H-20.7812V384H-36.7812V392H-40.7812V376ZM-36.7812 392H-24.7812V396H-36.7812V392ZM-24.7812 388H-20.7812V392H-24.7812V388ZM3.23438 392V396H-8.76562V392H3.23438ZM-8.76562 392H-12.7656V388H-8.76562V392ZM3.23438 372V376H-8.76562V372H3.23438ZM-12.7656 376H-8.76562V380H-12.7656V376ZM-8.76562 380H3.23438V384H-8.76562V380ZM3.23438 384H7.23438V392H3.23438V384ZM31.25 392V396H19.25V392H31.25ZM19.25 392H15.25V388H19.25V392ZM31.25 372V376H19.25V372H31.25ZM15.25 376H19.25V380H15.25V376ZM19.25 380H31.25V384H19.25V380ZM31.25 384H35.25V392H31.25V384ZM47.2656 372H59.2656V376H47.2656V372ZM59.2656 376H63.2656V392H59.2656V376ZM43.2656 376H47.2656V392H43.2656V376ZM47.2656 392H59.2656V396H47.2656V392ZM71.2813 372H75.2813V376H79.2813V380H75.2813V396H71.2813V372ZM87.2813 372V376H79.2813V372H87.2813ZM87.2813 376H91.2813V380H87.2813V376ZM147.313 376V380H127.313V376H147.313ZM147.313 384V388H127.313V384H147.313ZM191.344 376V380H183.344V376H191.344ZM191.344 364H195.344V376H191.344V364ZM191.344 380H195.344V396H191.344V380ZM195.344 396H203.344V400H195.344V396ZM195.344 360H203.344V364H195.344V360ZM219.359 364H223.359V376H219.359V364ZM231.359 376V380H223.359V376H231.359ZM219.359 380H223.359V396H219.359V380ZM219.359 396V400H211.359V396H219.359ZM219.359 360V364H211.359V360H219.359ZM247.375 388H251.375V396H247.375V388ZM243.375 396H247.375V400H243.375V396ZM247.375 372H251.375V380H247.375V372ZM-368.969 428H-372.969V424H-364.969V452H-356.969V456H-376.969V452H-368.969V428ZM-344.953 432H-332.953V436H-344.953V432ZM-348.953 436H-344.953V440H-332.953V436H-328.953V444H-344.953V452H-348.953V436ZM-344.953 452H-332.953V456H-344.953V452ZM-332.953 448H-328.953V452H-332.953V448ZM-316.937 424H-312.937V432H-304.937V436H-312.937V452H-316.937V436H-320.937V432H-316.937V424ZM-312.937 452H-304.937V456H-312.937V452ZM-304.937 448H-300.937V452H-304.937V448ZM-260.906 424H-256.906V432H-248.906V436H-256.906V452H-260.906V436H-264.906V432H-260.906V424ZM-256.906 452H-248.906V456H-256.906V452ZM-248.906 448H-244.906V452H-248.906V448ZM-236.891 444H-232.891V452H-236.891V444ZM-232.891 452H-224.891V456H-232.891V452ZM-224.891 448H-220.891V444H-232.891V440H-220.891V436H-216.891V456H-220.891V452H-224.891V448ZM-232.891 432H-220.891V436H-232.891V432ZM-200.875 424H-196.875V428H-200.875V424ZM-200.875 436H-204.875V432H-196.875V452H-188.875V456H-208.875V452H-200.875V436ZM-172.859 428H-176.859V424H-168.859V452H-160.859V456H-180.859V452H-172.859V428ZM-104.828 436V440H-124.828V436H-104.828ZM-104.828 444V448H-124.828V444H-104.828ZM-68.7969 428H-64.7969V440H-60.7969V444H-64.7969V452H-68.7969V428ZM-64.7969 452H-52.7969V456H-64.7969V452ZM-64.7969 424H-52.7969V428H-64.7969V424ZM-52.7969 428H-48.7969V452H-52.7969V436H-56.7969V432H-52.7969V428ZM-60.7969 436H-56.7969V440H-60.7969V436ZM-32.7812 448H-28.7812V456H-32.7812V448ZM-36.7812 456H-32.7812V460H-36.7812V456ZM-32.7812 432H-28.7812V440H-32.7812V432ZM-376.969 552H-372.969V572H-376.969V552ZM-360.969 552H-356.969V576H-364.969V572H-360.969V552ZM-364.969 572H-368.969V552H-364.969V572ZM-372.969 572H-368.969V576H-372.969V572ZM-348.953 544H-344.953V556H-340.953V560H-344.953V576H-348.953V544ZM-332.953 556H-328.953V576H-332.953V556ZM-340.953 552H-332.953V556H-340.953V552ZM-312.937 544H-308.937V548H-312.937V544ZM-312.937 556H-316.937V552H-308.937V572H-300.937V576H-320.937V572H-312.937V556ZM-284.922 548H-288.922V544H-280.922V572H-272.922V576H-292.922V572H-284.922V548ZM-260.906 552H-248.906V556H-260.906V552ZM-264.906 556H-260.906V560H-248.906V556H-244.906V564H-260.906V572H-264.906V556ZM-260.906 572H-248.906V576H-260.906V572ZM-248.906 568H-244.906V572H-248.906V568ZM-204.875 548H-200.875V572H-204.875V548ZM-196.875 576H-200.875V572H-196.875V576ZM-196.875 576H-192.875V580H-196.875V576ZM-196.875 540H-192.875V544H-196.875V540ZM-200.875 544H-196.875V548H-200.875V544ZM-176.859 544H-172.859V552H-164.859V556H-172.859V572H-176.859V556H-180.859V552H-176.859V544ZM-172.859 572H-164.859V576H-172.859V572ZM-164.859 568H-160.859V572H-164.859V568ZM-152.844 564H-148.844V572H-152.844V564ZM-148.844 572H-140.844V576H-148.844V572ZM-140.844 568H-136.844V564H-148.844V560H-136.844V556H-132.844V576H-136.844V572H-140.844V568ZM-148.844 552H-136.844V556H-148.844V552ZM-116.828 544H-112.828V548H-116.828V544ZM-116.828 556H-120.828V552H-112.828V572H-104.828V576H-124.828V572H-116.828V556ZM-88.8125 548H-92.8125V544H-84.8125V572H-76.8125V576H-96.8125V572H-88.8125V548ZM-40.7812 560H-36.7812V564H-40.7812V560ZM-36.7812 556H-32.7812V560H-36.7812V556ZM-36.7812 564H-32.7812V568H-36.7812V564ZM-32.7812 568H-28.7812V572H-32.7812V568ZM-32.7812 552H-28.7812V556H-32.7812V552ZM-28.7812 548H-24.7812V552H-28.7812V548ZM-28.7812 572H-24.7812V576H-28.7812V572ZM19.25 552H27.25V556H19.25V552ZM27.25 556H31.25V552H35.25V584H31.25V572H27.25V568H31.25V560H27.25V556ZM15.25 556H19.25V572H15.25V556ZM19.25 572H27.25V576H19.25V572ZM43.2656 552H47.2656V572H43.2656V552ZM47.2656 572H55.2656V576H47.2656V572ZM59.2656 552H63.2656V576H59.2656V572H55.2656V568H59.2656V552ZM75.2813 552H87.2813V556H75.2813V552ZM71.2813 556H75.2813V560H87.2813V556H91.2813V564H75.2813V572H71.2813V556ZM75.2813 572H87.2813V576H75.2813V572ZM87.2813 568H91.2813V572H87.2813V568ZM99.2969 552H103.297V572H99.2969V552ZM103.297 572H111.297V576H103.297V572ZM115.297 552H119.297V576H115.297V572H111.297V568H115.297V552ZM131.313 552H143.313V556H131.313V552ZM127.313 556H131.313V560H143.313V556H147.313V564H131.313V572H127.313V556ZM131.313 572H143.313V576H131.313V572ZM143.313 568H147.313V572H143.313V568ZM163.328 568H167.328V576H163.328V568ZM191.344 548H187.344V544H195.344V572H203.344V576H183.344V572H191.344V548ZM215.359 552H227.359V556H215.359V552ZM211.359 556H215.359V560H227.359V556H231.359V564H215.359V572H211.359V556ZM215.359 572H227.359V576H215.359V572ZM227.359 568H231.359V572H227.359V568ZM239.375 552H243.375V556H247.375V560H243.375V576H239.375V552ZM247.375 552H255.375V556H247.375V552ZM255.375 556H259.375V576H255.375V556ZM271.391 552H279.391V556H271.391V552ZM267.391 556H271.391V572H267.391V556ZM271.391 572H279.391V576H271.391V572ZM271.391 580H283.391V584H271.391V580ZM279.391 568H283.391V560H279.391V556H283.391V552H287.391V580H283.391V572H279.391V568ZM299.406 544H303.406V552H311.406V556H303.406V572H299.406V556H295.406V552H299.406V544ZM303.406 572H311.406V576H303.406V572ZM311.406 568H315.406V572H311.406V568ZM323.422 544H327.422V556H331.422V560H327.422V576H323.422V544ZM339.422 556H343.422V576H339.422V556ZM331.422 552H339.422V556H331.422V552ZM363.438 548H367.438V572H363.438V548ZM359.438 572H363.438V576H359.438V572ZM355.438 576H359.438V580H355.438V576ZM355.438 540H359.438V544H355.438V540ZM363.438 548H359.438V544H363.438V548ZM415.469 556V560H407.469V556H415.469ZM415.469 544H419.469V556H415.469V544ZM415.469 560H419.469V576H415.469V560ZM419.469 576H427.469V580H419.469V576ZM419.469 540H427.469V544H419.469V540ZM-308.937 608H-304.937V616H-308.937V608ZM-320.937 632H-316.937V640H-320.937V632ZM-316.937 624H-312.937V632H-316.937V624ZM-312.937 616H-308.937V624H-312.937V616ZM-304.937 600H-300.937V608H-304.937V600ZM-280.922 608H-276.922V616H-280.922V608ZM-292.922 632H-288.922V640H-292.922V632ZM-288.922 624H-284.922V632H-288.922V624ZM-284.922 616H-280.922V624H-284.922V616ZM-276.922 600H-272.922V608H-276.922V600ZM-236.891 604H-220.891V608H-232.891V620H-220.891V624H-232.891V636H-236.891V604ZM-220.891 608H-216.891V620H-220.891V608ZM-204.875 612H-192.875V616H-204.875V612ZM-192.875 616H-188.875V632H-192.875V616ZM-208.875 616H-204.875V632H-208.875V616ZM-204.875 632H-192.875V636H-204.875V632ZM-180.859 612H-176.859V616H-172.859V620H-176.859V628H-172.859V632H-176.859V644H-180.859V612ZM-172.859 612H-164.859V616H-172.859V612ZM-164.859 616H-160.859V632H-164.859V616ZM-172.859 632H-164.859V636H-172.859V632ZM-312.937 668H-316.937V664H-308.937V692H-300.937V696H-320.937V692H-312.937V668ZM-288.922 672H-276.922V676H-288.922V672ZM-292.922 676H-288.922V680H-276.922V676H-272.922V684H-288.922V692H-292.922V676ZM-288.922 692H-276.922V696H-288.922V692ZM-276.922 688H-272.922V692H-276.922V688ZM-260.906 664H-256.906V672H-248.906V676H-256.906V692H-260.906V676H-264.906V672H-260.906V664ZM-256.906 692H-248.906V696H-256.906V692ZM-248.906 688H-244.906V692H-248.906V688ZM-200.875 668H-204.875V664H-196.875V692H-188.875V696H-208.875V692H-200.875V668ZM-180.859 684H-176.859V692H-180.859V684ZM-176.859 692H-168.859V696H-176.859V692ZM-168.859 688H-164.859V684H-176.859V680H-164.859V676H-160.859V696H-164.859V692H-168.859V688ZM-176.859 672H-164.859V676H-176.859V672ZM-136.844 692V696H-148.844V692H-136.844ZM-148.844 692H-152.844V688H-148.844V692ZM-136.844 672V676H-148.844V672H-136.844ZM-152.844 676H-148.844V680H-152.844V676ZM-148.844 680H-136.844V684H-148.844V680ZM-136.844 684H-132.844V692H-136.844V684ZM-120.828 664H-116.828V672H-108.828V676H-116.828V692H-120.828V676H-124.828V672H-120.828V664ZM-116.828 692H-108.828V696H-116.828V692ZM-108.828 688H-104.828V692H-108.828V688ZM-48.7969 676V680H-68.7969V676H-48.7969ZM-48.7969 684V688H-68.7969V684H-48.7969ZM-8.76562 672H-0.765625V676H-8.76562V672ZM-0.765625 676H3.23438V672H7.23438V704H3.23438V692H-0.765625V688H3.23438V680H-0.765625V676ZM-12.7656 676H-8.76562V692H-12.7656V676ZM-8.76562 692H-0.765625V696H-8.76562V692ZM15.25 672H19.25V692H15.25V672ZM19.25 692H27.25V696H19.25V692ZM31.25 672H35.25V696H31.25V692H27.25V688H31.25V672ZM47.2656 672H59.2656V676H47.2656V672ZM43.2656 676H47.2656V680H59.2656V676H63.2656V684H47.2656V692H43.2656V676ZM47.2656 692H59.2656V696H47.2656V692ZM59.2656 688H63.2656V692H59.2656V688ZM71.2813 672H75.2813V692H71.2813V672ZM75.2813 692H83.2813V696H75.2813V692ZM87.2813 672H91.2813V696H87.2813V692H83.2813V688H87.2813V672ZM103.297 672H115.297V676H103.297V672ZM99.2969 676H103.297V680H115.297V676H119.297V684H103.297V692H99.2969V676ZM103.297 692H115.297V696H103.297V692ZM115.297 688H119.297V692H115.297V688ZM131.313 660H143.313V664H135.313V696H143.313V700H131.313V660ZM159.328 664H163.328V672H171.328V676H163.328V692H159.328V676H155.328V672H159.328V664ZM163.328 692H171.328V696H163.328V692ZM171.328 688H175.328V692H171.328V688ZM183.344 684H187.344V692H183.344V684ZM187.344 692H195.344V696H187.344V692ZM195.344 688H199.344V684H187.344V680H199.344V676H203.344V696H199.344V692H195.344V688ZM187.344 672H199.344V676H187.344V672ZM219.359 664H223.359V668H219.359V664ZM219.359 676H215.359V672H223.359V692H231.359V696H211.359V692H219.359V676ZM247.375 668H243.375V664H251.375V692H259.375V696H239.375V692H247.375V668ZM267.391 680H275.391V672H279.391V680H287.391V684H279.391V692H275.391V684H267.391V680ZM295.406 680H303.406V672H307.406V680H315.406V684H307.406V692H303.406V684H295.406V680ZM335.422 664H327.422V660H339.422V700H327.422V696H335.422V664ZM359.438 688H363.438V696H359.438V688ZM355.438 696H359.438V700H355.438V696ZM359.438 672H363.438V680H359.438V672ZM-312.937 728H-316.937V724H-308.937V752H-300.937V756H-320.937V752H-312.937V728ZM-288.922 732H-276.922V736H-288.922V732ZM-292.922 736H-288.922V740H-276.922V736H-272.922V744H-288.922V752H-292.922V736ZM-288.922 752H-276.922V756H-288.922V752ZM-276.922 748H-272.922V752H-276.922V748ZM-260.906 724H-256.906V732H-248.906V736H-256.906V752H-260.906V736H-264.906V732H-260.906V724ZM-256.906 752H-248.906V756H-256.906V752ZM-248.906 748H-244.906V752H-248.906V748ZM-208.875 732H-204.875V736H-200.875V740H-204.875V756H-208.875V732ZM-200.875 732H-192.875V736H-200.875V732ZM-192.875 736H-188.875V756H-192.875V736ZM-176.859 732H-164.859V736H-176.859V732ZM-180.859 736H-176.859V740H-164.859V736H-160.859V744H-176.859V752H-180.859V736ZM-176.859 752H-164.859V756H-176.859V752ZM-164.859 748H-160.859V752H-164.859V748ZM-144.844 724H-140.844V728H-144.844V724ZM-144.844 736H-148.844V732H-140.844V752H-132.844V756H-152.844V752H-144.844V736ZM-120.828 732H-112.828V736H-120.828V732ZM-124.828 736H-120.828V752H-124.828V736ZM-120.828 752H-112.828V756H-120.828V752ZM-120.828 760H-108.828V764H-120.828V760ZM-112.828 748H-108.828V740H-112.828V736H-108.828V732H-104.828V760H-108.828V752H-112.828V748ZM-96.8125 724H-92.8125V736H-88.8125V740H-92.8125V756H-96.8125V724ZM-80.8125 736H-76.8125V756H-80.8125V736ZM-88.8125 732H-80.8125V736H-88.8125V732ZM-68.7969 724H-64.7969V736H-60.7969V740H-64.7969V748H-60.7969V752H-64.7969V756H-68.7969V724ZM-60.7969 752H-52.7969V756H-60.7969V752ZM-52.7969 736H-48.7969V752H-52.7969V736ZM-60.7969 732H-52.7969V736H-60.7969V732ZM-36.7812 732H-24.7812V736H-36.7812V732ZM-24.7812 736H-20.7812V752H-24.7812V736ZM-40.7812 736H-36.7812V752H-40.7812V736ZM-36.7812 752H-24.7812V756H-36.7812V752ZM-12.7656 732H-8.76562V736H-4.76562V740H-8.76562V756H-12.7656V732ZM3.23438 732V736H-4.76562V732H3.23438ZM3.23438 736H7.23438V740H3.23438V736ZM31.25 752V756H19.25V752H31.25ZM19.25 752H15.25V748H19.25V752ZM31.25 732V736H19.25V732H31.25ZM15.25 736H19.25V740H15.25V736ZM19.25 740H31.25V744H19.25V740ZM31.25 744H35.25V752H31.25V744ZM91.2813 736V740H71.2813V736H91.2813ZM91.2813 744V748H71.2813V744H91.2813ZM127.313 732H131.313V736H135.313V740H131.313V756H127.313V732ZM135.313 732H143.313V736H135.313V732ZM143.313 736H147.313V756H143.313V736ZM159.328 732H171.328V736H159.328V732ZM171.328 736H175.328V752H171.328V736ZM155.328 736H159.328V752H155.328V736ZM159.328 752H171.328V756H159.328V752ZM199.344 724H203.344V756H199.344V752H195.344V748H199.344V740H195.344V736H199.344V724ZM195.344 752V756H187.344V752H195.344ZM187.344 752H183.344V736H187.344V752ZM195.344 736H187.344V732H195.344V736ZM215.359 732H227.359V736H215.359V732ZM211.359 736H215.359V740H227.359V736H231.359V744H215.359V752H211.359V736ZM215.359 752H227.359V756H215.359V752ZM227.359 748H231.359V752H227.359V748ZM239.375 724H243.375V732H247.375V736H243.375V756H239.375V724ZM255.375 736H251.375V732H255.375V724H259.375V756H255.375V736ZM247.375 736H251.375V744H247.375V736ZM267.391 744H271.391V752H267.391V744ZM271.391 752H279.391V756H271.391V752ZM279.391 748H283.391V744H271.391V740H283.391V736H287.391V756H283.391V752H279.391V748ZM271.391 732H283.391V736H271.391V732ZM295.406 732H299.406V736H303.406V740H299.406V748H303.406V752H299.406V764H295.406V732ZM303.406 732H311.406V736H303.406V732ZM311.406 736H315.406V752H311.406V736ZM303.406 752H311.406V756H303.406V752ZM327.422 720H339.422V724H331.422V756H339.422V760H327.422V720ZM359.438 728H355.438V724H363.438V752H371.438V756H351.438V752H359.438V728ZM379.453 744H383.453V752H379.453V744ZM383.453 752H391.453V756H383.453V752ZM391.453 748H395.453V744H383.453V740H395.453V736H399.453V756H395.453V752H391.453V748ZM383.453 732H395.453V736H383.453V732ZM423.469 752V756H411.469V752H423.469ZM411.469 752H407.469V748H411.469V752ZM423.469 732V736H411.469V732H423.469ZM407.469 736H411.469V740H407.469V736ZM411.469 740H423.469V744H411.469V740ZM423.469 744H427.469V752H423.469V744ZM439.484 724H443.484V732H451.484V736H443.484V752H439.484V736H435.484V732H439.484V724ZM443.484 752H451.484V756H443.484V752ZM451.484 748H455.484V752H451.484V748ZM475.5 724H467.5V720H479.5V760H467.5V756H475.5V724ZM499.516 748H503.516V756H499.516V748ZM495.516 756H499.516V760H495.516V756ZM499.516 732H503.516V740H499.516V732Z" fill="#BBBBBB"/>
<path d="M295.406 72H299.406V76H303.406V80H299.406V96H295.406V72ZM311.406 72V76H303.406V72H311.406ZM311.406 76H315.406V80H311.406V76ZM327.422 72H339.422V76H327.422V72ZM323.422 76H327.422V80H339.422V76H343.422V84H327.422V92H323.422V76ZM327.422 92H339.422V96H327.422V92ZM339.422 88H343.422V92H339.422V88ZM355.438 64H359.438V72H367.438V76H359.438V92H355.438V76H351.438V72H355.438V64ZM359.438 92H367.438V96H359.438V92ZM367.438 88H371.438V92H367.438V88ZM379.453 72H383.453V92H379.453V72ZM383.453 92H391.453V96H383.453V92ZM395.453 72H399.453V96H395.453V92H391.453V88H395.453V72ZM407.469 72H411.469V76H415.469V80H411.469V96H407.469V72ZM423.469 72V76H415.469V72H423.469ZM423.469 76H427.469V80H423.469V76ZM435.484 72H439.484V76H443.484V80H439.484V96H435.484V72ZM443.484 72H451.484V76H443.484V72ZM451.484 76H455.484V96H451.484V76ZM267.391 132H271.391V136H275.391V140H271.391V156H267.391V132ZM283.391 132V136H275.391V132H283.391ZM283.391 136H287.391V140H283.391V136ZM299.406 132H311.406V136H299.406V132ZM295.406 136H299.406V140H311.406V136H315.406V144H299.406V152H295.406V136ZM299.406 152H311.406V156H299.406V152ZM311.406 148H315.406V152H311.406V148ZM327.422 124H331.422V132H339.422V136H331.422V152H327.422V136H323.422V132H327.422V124ZM331.422 152H339.422V156H331.422V152ZM339.422 148H343.422V152H339.422V148ZM351.438 132H355.438V152H351.438V132ZM355.438 152H363.438V156H355.438V152ZM367.438 132H371.438V156H367.438V152H363.438V148H367.438V132ZM379.453 132H383.453V136H387.453V140H383.453V156H379.453V132ZM395.453 132V136H387.453V132H395.453ZM395.453 136H399.453V140H395.453V136ZM407.469 132H411.469V136H415.469V140H411.469V156H407.469V132ZM415.469 132H423.469V136H415.469V132ZM423.469 136H427.469V156H423.469V136Z" fill="#FFA43A"/>
<path d="M-124.828 612H-120.828V624H-124.828V612ZM-108.828 612H-104.828V624H-108.828V612ZM-116.828 632H-120.828V624H-116.828V632ZM-116.828 632H-112.828V636H-116.828V632ZM-112.828 624H-108.828V632H-112.828V624ZM-92.8125 612H-80.8125V616H-92.8125V612ZM-96.8125 616H-92.8125V620H-80.8125V616H-76.8125V624H-92.8125V632H-96.8125V616ZM-92.8125 632H-80.8125V636H-92.8125V632ZM-80.8125 628H-76.8125V632H-80.8125V628ZM-68.7969 612H-64.7969V616H-60.7969V620H-64.7969V636H-68.7969V612ZM-52.7969 612V616H-60.7969V612H-52.7969ZM-52.7969 616H-48.7969V620H-52.7969V616ZM-36.7812 604H-32.7812V612H-24.7812V616H-32.7812V632H-36.7812V616H-40.7812V612H-36.7812V604ZM-32.7812 632H-24.7812V636H-32.7812V632ZM-24.7812 628H-20.7812V632H-24.7812V628ZM-8.76562 612H3.23438V616H-8.76562V612ZM-12.7656 616H-8.76562V620H3.23438V616H7.23438V624H-8.76562V632H-12.7656V616ZM-8.76562 632H3.23438V636H-8.76562V632ZM3.23438 628H7.23438V632H3.23438V628ZM15.25 612H19.25V616H15.25V612ZM31.25 612H35.25V616H31.25V612ZM15.25 628H19.25V636H15.25V628ZM27.25 616H31.25V620H27.25V616ZM19.25 616H23.25V620H19.25V616ZM23.25 620H27.25V624H23.25V620ZM19.25 624H23.25V628H19.25V624ZM27.25 624H31.25V628H27.25V624ZM31.25 628H35.25V636H31.25V628ZM75.2813 612H87.2813V616H75.2813V612ZM87.2813 616H91.2813V632H87.2813V616ZM71.2813 616H75.2813V632H71.2813V616ZM75.2813 632H87.2813V636H75.2813V632ZM103.297 616H99.2969V612H103.297V608H107.297V612H115.297V616H107.297V636H103.297V616ZM107.297 604H119.297V608H107.297V604ZM131.313 616H127.313V612H131.313V608H135.313V612H143.313V616H135.313V636H131.313V616ZM135.313 604H147.313V608H135.313V604ZM187.344 612H195.344V616H187.344V612ZM195.344 616H199.344V612H203.344V644H199.344V632H195.344V628H199.344V620H195.344V616ZM183.344 616H187.344V632H183.344V616ZM187.344 632H195.344V636H187.344V632ZM211.359 612H215.359V632H211.359V612ZM215.359 632H223.359V636H215.359V632ZM227.359 612H231.359V636H227.359V632H223.359V628H227.359V612ZM243.375 612H255.375V616H243.375V612ZM239.375 616H243.375V620H255.375V616H259.375V624H243.375V632H239.375V616ZM243.375 632H255.375V636H243.375V632ZM255.375 628H259.375V632H255.375V628ZM267.391 612H271.391V632H267.391V612ZM271.391 632H279.391V636H271.391V632ZM283.391 612H287.391V636H283.391V632H279.391V628H283.391V612ZM299.406 612H311.406V616H299.406V612ZM295.406 616H299.406V620H311.406V616H315.406V624H299.406V632H295.406V616ZM299.406 632H311.406V636H299.406V632ZM311.406 628H315.406V632H311.406V628Z" fill="#70705C"/>
</svg>
