<svg width="1149" height="781" viewBox="0 0 1149 781" fill="none" xmlns="http://www.w3.org/2000/svg">
<path d="M8 26.75H4V22.75H8V18.75H12V22.75H20V26.75H12V46.75H8V26.75ZM12 14.75H24V18.75H12V14.75ZM32.0156 22.75H36.0156V42.75H32.0156V22.75ZM36.0156 42.75H44.0156V46.75H36.0156V42.75ZM48.0156 22.75H52.0156V46.75H48.0156V42.75H44.0156V38.75H48.0156V22.75ZM60.0313 22.75H64.0313V26.75H68.0313V30.75H64.0313V46.75H60.0313V22.75ZM68.0313 22.75H76.0313V26.75H68.0313V22.75ZM76.0313 26.75H80.0313V46.75H76.0313V26.75ZM92.0469 22.75H104.047V26.75H92.0469V22.75ZM88.0469 26.75H92.0469V42.75H88.0469V26.75ZM92.0469 42.75H104.047V46.75H92.0469V42.75ZM104.047 26.75H108.047V30.75H104.047V26.75ZM104.047 38.75H108.047V42.75H104.047V38.75ZM120.063 14.75H124.063V22.75H132.063V26.75H124.063V42.75H120.063V26.75H116.063V22.75H120.063V14.75ZM124.063 42.75H132.063V46.75H124.063V42.75ZM132.063 38.75H136.063V42.75H132.063V38.75ZM152.078 14.75H156.078V18.75H152.078V14.75ZM152.078 26.75H144.078V22.75H156.078V42.75H164.078V46.75H144.078V42.75H152.078V26.75ZM176.094 22.75H188.094V26.75H176.094V22.75ZM188.094 26.75H192.094V42.75H188.094V26.75ZM172.094 26.75H176.094V42.75H172.094V26.75ZM176.094 42.75H188.094V46.75H176.094V42.75ZM200.109 22.75H204.109V26.75H208.109V30.75H204.109V46.75H200.109V22.75ZM208.109 22.75H216.109V26.75H208.109V22.75ZM216.109 26.75H220.109V46.75H216.109V26.75ZM68.0313 74.75H72.0313V78.75H68.0313V74.75ZM68.0313 86.75H60.0313V82.75H72.0313V102.75H80.0313V106.75H60.0313V102.75H68.0313V86.75ZM92.0469 86.75H88.0469V82.75H92.0469V78.75H96.0469V82.75H104.047V86.75H96.0469V106.75H92.0469V86.75ZM96.0469 74.75H108.047V78.75H96.0469V74.75ZM732.406 82.75H736.406V86.75H740.406V90.75H736.406V106.75H732.406V82.75ZM748.406 82.75V86.75H740.406V82.75H748.406ZM748.406 86.75H752.406V90.75H748.406V86.75ZM764.422 82.75H776.422V86.75H764.422V82.75ZM760.422 86.75H764.422V90.75H776.422V86.75H780.422V94.75H764.422V102.75H760.422V86.75ZM764.422 102.75H776.422V106.75H764.422V102.75ZM776.422 98.75H780.422V102.75H776.422V98.75ZM792.438 74.75H796.438V82.75H804.438V86.75H796.438V102.75H792.438V86.75H788.438V82.75H792.438V74.75ZM796.438 102.75H804.438V106.75H796.438V102.75ZM804.438 98.75H808.438V102.75H804.438V98.75ZM816.453 82.75H820.453V102.75H816.453V82.75ZM820.453 102.75H828.453V106.75H820.453V102.75ZM832.453 82.75H836.453V106.75H832.453V102.75H828.453V98.75H832.453V82.75ZM844.469 82.75H848.469V86.75H852.469V90.75H848.469V106.75H844.469V82.75ZM860.469 82.75V86.75H852.469V82.75H860.469ZM860.469 86.75H864.469V90.75H860.469V86.75ZM872.484 82.75H876.484V86.75H880.484V90.75H876.484V106.75H872.484V82.75ZM880.484 82.75H888.484V86.75H880.484V82.75ZM888.484 86.75H892.484V106.75H888.484V86.75ZM68.0313 134.75H72.0313V138.75H68.0313V134.75ZM68.0313 146.75H60.0313V142.75H72.0313V162.75H80.0313V166.75H60.0313V162.75H68.0313V146.75ZM92.0469 146.75H88.0469V142.75H92.0469V138.75H96.0469V142.75H104.047V146.75H96.0469V166.75H92.0469V146.75ZM96.0469 134.75H108.047V138.75H96.0469V134.75ZM704.391 142.75H708.391V146.75H712.391V150.75H708.391V166.75H704.391V142.75ZM720.391 142.75V146.75H712.391V142.75H720.391ZM720.391 146.75H724.391V150.75H720.391V146.75ZM736.406 142.75H748.406V146.75H736.406V142.75ZM732.406 146.75H736.406V150.75H748.406V146.75H752.406V154.75H736.406V162.75H732.406V146.75ZM736.406 162.75H748.406V166.75H736.406V162.75ZM748.406 158.75H752.406V162.75H748.406V158.75ZM764.422 134.75H768.422V142.75H776.422V146.75H768.422V162.75H764.422V146.75H760.422V142.75H764.422V134.75ZM768.422 162.75H776.422V166.75H768.422V162.75ZM776.422 158.75H780.422V162.75H776.422V158.75ZM788.438 142.75H792.438V162.75H788.438V142.75ZM792.438 162.75H800.438V166.75H792.438V162.75ZM804.438 142.75H808.438V166.75H804.438V162.75H800.438V158.75H804.438V142.75ZM816.453 142.75H820.453V146.75H824.453V150.75H820.453V166.75H816.453V142.75ZM832.453 142.75V146.75H824.453V142.75H832.453ZM832.453 146.75H836.453V150.75H832.453V146.75ZM844.469 142.75H848.469V146.75H852.469V150.75H848.469V166.75H844.469V142.75ZM852.469 142.75H860.469V146.75H852.469V142.75ZM860.469 146.75H864.469V166.75H860.469V146.75ZM64.0313 262.75H76.0313V266.75H64.0313V262.75ZM60.0313 266.75H64.0313V282.75H60.0313V266.75ZM64.0313 282.75H76.0313V286.75H64.0313V282.75ZM76.0313 266.75H80.0313V270.75H76.0313V266.75ZM76.0313 278.75H80.0313V282.75H76.0313V278.75ZM92.0469 262.75H104.047V266.75H92.0469V262.75ZM104.047 266.75H108.047V282.75H104.047V266.75ZM88.0469 266.75H92.0469V282.75H88.0469V266.75ZM92.0469 282.75H104.047V286.75H92.0469V282.75ZM116.063 262.75H120.063V266.75H124.063V270.75H120.063V286.75H116.063V262.75ZM124.063 262.75H132.063V266.75H124.063V262.75ZM132.063 266.75H136.063V286.75H132.063V266.75ZM160.078 282.75V286.75H148.078V282.75H160.078ZM148.078 282.75H144.078V278.75H148.078V282.75ZM160.078 262.75V266.75H148.078V262.75H160.078ZM144.078 266.75H148.078V270.75H144.078V266.75ZM148.078 270.75H160.078V274.75H148.078V270.75ZM160.078 274.75H164.078V282.75H160.078V274.75ZM176.094 254.75H180.094V262.75H188.094V266.75H180.094V282.75H176.094V266.75H172.094V262.75H176.094V254.75ZM180.094 282.75H188.094V286.75H180.094V282.75ZM188.094 278.75H192.094V282.75H188.094V278.75ZM64.0313 322.75H76.0313V326.75H64.0313V322.75ZM60.0313 326.75H64.0313V342.75H60.0313V326.75ZM64.0313 342.75H76.0313V346.75H64.0313V342.75ZM76.0313 326.75H80.0313V330.75H76.0313V326.75ZM76.0313 338.75H80.0313V342.75H76.0313V338.75ZM92.0469 322.75H104.047V326.75H92.0469V322.75ZM104.047 326.75H108.047V342.75H104.047V326.75ZM88.0469 326.75H92.0469V342.75H88.0469V326.75ZM92.0469 342.75H104.047V346.75H92.0469V342.75ZM116.063 322.75H120.063V326.75H124.063V330.75H120.063V346.75H116.063V322.75ZM124.063 322.75H132.063V326.75H124.063V322.75ZM132.063 326.75H136.063V346.75H132.063V326.75ZM160.078 342.75V346.75H148.078V342.75H160.078ZM148.078 342.75H144.078V338.75H148.078V342.75ZM160.078 322.75V326.75H148.078V322.75H160.078ZM144.078 326.75H148.078V330.75H144.078V326.75ZM148.078 330.75H160.078V334.75H148.078V330.75ZM160.078 334.75H164.078V342.75H160.078V334.75ZM176.094 314.75H180.094V322.75H188.094V326.75H180.094V342.75H176.094V326.75H172.094V322.75H176.094V314.75ZM180.094 342.75H188.094V346.75H180.094V342.75ZM188.094 338.75H192.094V342.75H188.094V338.75ZM64.0313 382.75H76.0313V386.75H64.0313V382.75ZM60.0313 386.75H64.0313V402.75H60.0313V386.75ZM64.0313 402.75H76.0313V406.75H64.0313V402.75ZM76.0313 386.75H80.0313V390.75H76.0313V386.75ZM76.0313 398.75H80.0313V402.75H76.0313V398.75ZM92.0469 382.75H104.047V386.75H92.0469V382.75ZM104.047 386.75H108.047V402.75H104.047V386.75ZM88.0469 386.75H92.0469V402.75H88.0469V386.75ZM92.0469 402.75H104.047V406.75H92.0469V402.75ZM116.063 382.75H120.063V386.75H124.063V390.75H120.063V406.75H116.063V382.75ZM124.063 382.75H132.063V386.75H124.063V382.75ZM132.063 386.75H136.063V406.75H132.063V386.75ZM160.078 402.75V406.75H148.078V402.75H160.078ZM148.078 402.75H144.078V398.75H148.078V402.75ZM160.078 382.75V386.75H148.078V382.75H160.078ZM144.078 386.75H148.078V390.75H144.078V386.75ZM148.078 390.75H160.078V394.75H148.078V390.75ZM160.078 394.75H164.078V402.75H160.078V394.75ZM176.094 374.75H180.094V382.75H188.094V386.75H180.094V402.75H176.094V386.75H172.094V382.75H176.094V374.75ZM180.094 402.75H188.094V406.75H180.094V402.75ZM188.094 398.75H192.094V402.75H188.094V398.75ZM68.0313 438.75H60.0313V434.75H72.0313V462.75H80.0313V466.75H60.0313V462.75H68.0313V438.75ZM92.0469 442.75H104.047V446.75H92.0469V442.75ZM88.0469 446.75H92.0469V450.75H104.047V446.75H108.047V454.75H92.0469V462.75H88.0469V446.75ZM92.0469 462.75H104.047V466.75H92.0469V462.75ZM104.047 458.75H108.047V462.75H104.047V458.75ZM120.063 434.75H124.063V442.75H132.063V446.75H124.063V462.75H120.063V446.75H116.063V442.75H120.063V434.75ZM124.063 462.75H132.063V466.75H124.063V462.75ZM132.063 458.75H136.063V462.75H132.063V458.75ZM60.0313 562.75H64.0313V582.75H60.0313V562.75ZM76.0313 562.75H80.0313V586.75H72.0313V582.75H76.0313V562.75ZM72.0313 582.75H68.0313V562.75H72.0313V582.75ZM64.0313 582.75H68.0313V586.75H64.0313V582.75ZM88.0469 554.75H92.0469V566.75H96.0469V570.75H92.0469V586.75H88.0469V554.75ZM104.047 566.75H108.047V586.75H104.047V566.75ZM96.0469 562.75H104.047V566.75H96.0469V562.75ZM124.063 554.75H128.063V558.75H124.063V554.75ZM124.063 566.75H116.063V562.75H128.063V582.75H136.063V586.75H116.063V582.75H124.063V566.75ZM152.078 558.75H144.078V554.75H156.078V582.75H164.078V586.75H144.078V582.75H152.078V558.75ZM176.094 562.75H188.094V566.75H176.094V562.75ZM172.094 566.75H176.094V570.75H188.094V566.75H192.094V574.75H176.094V582.75H172.094V566.75ZM176.094 582.75H188.094V586.75H176.094V582.75ZM188.094 578.75H192.094V582.75H188.094V578.75ZM124.063 678.75H116.063V674.75H128.063V702.75H136.063V706.75H116.063V702.75H124.063V678.75ZM148.078 682.75H160.078V686.75H148.078V682.75ZM144.078 686.75H148.078V690.75H160.078V686.75H164.078V694.75H148.078V702.75H144.078V686.75ZM148.078 702.75H160.078V706.75H148.078V702.75ZM160.078 698.75H164.078V702.75H160.078V698.75ZM176.094 674.75H180.094V682.75H188.094V686.75H180.094V702.75H176.094V686.75H172.094V682.75H176.094V674.75ZM180.094 702.75H188.094V706.75H180.094V702.75ZM188.094 698.75H192.094V702.75H188.094V698.75ZM124.063 738.75H116.063V734.75H128.063V762.75H136.063V766.75H116.063V762.75H124.063V738.75ZM148.078 742.75H160.078V746.75H148.078V742.75ZM144.078 746.75H148.078V750.75H160.078V746.75H164.078V754.75H148.078V762.75H144.078V746.75ZM148.078 762.75H160.078V766.75H148.078V762.75ZM160.078 758.75H164.078V762.75H160.078V758.75ZM176.094 734.75H180.094V742.75H188.094V746.75H180.094V762.75H176.094V746.75H172.094V742.75H176.094V734.75ZM180.094 762.75H188.094V766.75H180.094V762.75ZM188.094 758.75H192.094V762.75H188.094V758.75Z" fill="#FFA133"/>
<path d="M596.328 18.75H600.328V42.75H596.328V18.75ZM604.328 46.75H600.328V42.75H604.328V46.75ZM604.328 46.75H608.328V50.75H604.328V46.75ZM604.328 10.75H608.328V14.75H604.328V10.75ZM600.328 14.75H604.328V18.75H600.328V14.75ZM636.344 42.75V46.75H624.344V42.75H636.344ZM624.344 42.75H620.344V38.75H624.344V42.75ZM636.344 22.75V26.75H624.344V22.75H636.344ZM620.344 26.75H624.344V30.75H620.344V26.75ZM624.344 30.75H636.344V34.75H624.344V30.75ZM636.344 34.75H640.344V42.75H636.344V34.75ZM652.359 22.75H664.359V26.75H652.359V22.75ZM664.359 26.75H668.359V42.75H664.359V26.75ZM648.359 26.75H652.359V42.75H648.359V26.75ZM652.359 42.75H664.359V46.75H652.359V42.75ZM676.375 22.75H680.375V42.75H676.375V22.75ZM680.375 42.75H688.375V46.75H680.375V42.75ZM692.375 22.75H696.375V46.75H692.375V42.75H688.375V38.75H692.375V22.75ZM704.391 22.75H708.391V26.75H712.391V30.75H708.391V46.75H704.391V22.75ZM720.391 22.75V26.75H712.391V22.75H720.391ZM720.391 26.75H724.391V30.75H720.391V26.75ZM736.406 22.75H748.406V26.75H736.406V22.75ZM732.406 26.75H736.406V42.75H732.406V26.75ZM736.406 42.75H748.406V46.75H736.406V42.75ZM748.406 26.75H752.406V30.75H748.406V26.75ZM748.406 38.75H752.406V42.75H748.406V38.75ZM764.422 22.75H776.422V26.75H764.422V22.75ZM760.422 26.75H764.422V30.75H776.422V26.75H780.422V34.75H764.422V42.75H760.422V26.75ZM764.422 42.75H776.422V46.75H764.422V42.75ZM776.422 38.75H780.422V42.75H776.422V38.75ZM796.438 38.75H800.438V46.75H796.438V38.75ZM792.438 46.75H796.438V50.75H792.438V46.75ZM848.469 14.75H852.469V22.75H860.469V26.75H852.469V42.75H848.469V26.75H844.469V22.75H848.469V14.75ZM852.469 42.75H860.469V46.75H852.469V42.75ZM860.469 38.75H864.469V42.75H860.469V38.75ZM872.484 34.75H876.484V42.75H872.484V34.75ZM876.484 42.75H884.484V46.75H876.484V42.75ZM884.484 38.75H888.484V34.75H876.484V30.75H888.484V26.75H892.484V46.75H888.484V42.75H884.484V38.75ZM876.484 22.75H888.484V26.75H876.484V22.75ZM900.5 22.75H904.5V26.75H908.5V30.75H904.5V46.75H900.5V22.75ZM916.5 22.75V26.75H908.5V22.75H916.5ZM916.5 26.75H920.5V30.75H916.5V26.75ZM932.516 22.75H940.516V26.75H932.516V22.75ZM928.516 26.75H932.516V42.75H928.516V26.75ZM932.516 42.75H940.516V46.75H932.516V42.75ZM932.516 50.75H944.516V54.75H932.516V50.75ZM940.516 38.75H944.516V30.75H940.516V26.75H944.516V22.75H948.516V50.75H944.516V42.75H940.516V38.75ZM960.531 22.75H972.531V26.75H960.531V22.75ZM956.531 26.75H960.531V30.75H972.531V26.75H976.531V34.75H960.531V42.75H956.531V26.75ZM960.531 42.75H972.531V46.75H960.531V42.75ZM972.531 38.75H976.531V42.75H972.531V38.75ZM988.547 14.75H992.547V22.75H1000.55V26.75H992.547V42.75H988.547V26.75H984.547V22.75H988.547V14.75ZM992.547 42.75H1000.55V46.75H992.547V42.75ZM1000.55 38.75H1004.55V42.75H1000.55V38.75ZM1024.56 18.75H1028.56V42.75H1024.56V18.75ZM1020.56 42.75H1024.56V46.75H1020.56V42.75ZM1016.56 46.75H1020.56V50.75H1016.56V46.75ZM1016.56 10.75H1020.56V14.75H1016.56V10.75ZM1024.56 18.75H1020.56V14.75H1024.56V18.75ZM1076.59 26.75V30.75H1068.59V26.75H1076.59ZM1076.59 14.75H1080.59V26.75H1076.59V14.75ZM1076.59 30.75H1080.59V46.75H1076.59V30.75ZM1080.59 46.75H1088.59V50.75H1080.59V46.75ZM1080.59 10.75H1088.59V14.75H1080.59V10.75ZM148.078 78.75H152.078V102.75H148.078V78.75ZM156.078 106.75H152.078V102.75H156.078V106.75ZM156.078 106.75H160.078V110.75H156.078V106.75ZM156.078 70.75H160.078V74.75H156.078V70.75ZM152.078 74.75H156.078V78.75H152.078V74.75ZM180.094 74.75H184.094V98.75H180.094V74.75ZM180.094 102.75H184.094V106.75H180.094V102.75ZM216.109 102.75V106.75H204.109V102.75H216.109ZM204.109 102.75H200.109V98.75H204.109V102.75ZM216.109 82.75V86.75H204.109V82.75H216.109ZM200.109 86.75H204.109V90.75H200.109V86.75ZM204.109 90.75H216.109V94.75H204.109V90.75ZM216.109 94.75H220.109V102.75H216.109V94.75ZM232.125 82.75H244.125V86.75H232.125V82.75ZM244.125 86.75H248.125V102.75H244.125V86.75ZM228.125 86.75H232.125V102.75H228.125V86.75ZM232.125 102.75H244.125V106.75H232.125V102.75ZM256.141 82.75H260.141V102.75H256.141V82.75ZM260.141 102.75H268.141V106.75H260.141V102.75ZM272.141 82.75H276.141V106.75H272.141V102.75H268.141V98.75H272.141V82.75ZM284.156 82.75H288.156V86.75H292.156V90.75H288.156V106.75H284.156V82.75ZM300.156 82.75V86.75H292.156V82.75H300.156ZM300.156 86.75H304.156V90.75H300.156V86.75ZM316.172 82.75H328.172V86.75H316.172V82.75ZM312.172 86.75H316.172V102.75H312.172V86.75ZM316.172 102.75H328.172V106.75H316.172V102.75ZM328.172 86.75H332.172V90.75H328.172V86.75ZM328.172 98.75H332.172V102.75H328.172V98.75ZM344.188 82.75H356.188V86.75H344.188V82.75ZM340.188 86.75H344.188V90.75H356.188V86.75H360.188V94.75H344.188V102.75H340.188V86.75ZM344.188 102.75H356.188V106.75H344.188V102.75ZM356.188 98.75H360.188V102.75H356.188V98.75ZM404.219 70.75H408.219V110.75H404.219V70.75ZM432.234 70.75H436.234V110.75H432.234V70.75ZM488.266 74.75H492.266V98.75H488.266V74.75ZM488.266 102.75H492.266V106.75H488.266V102.75ZM512.281 74.75H516.281V82.75H524.281V86.75H516.281V102.75H512.281V86.75H508.281V82.75H512.281V74.75ZM516.281 102.75H524.281V106.75H516.281V102.75ZM524.281 98.75H528.281V102.75H524.281V98.75ZM536.297 94.75H540.297V102.75H536.297V94.75ZM540.297 102.75H548.297V106.75H540.297V102.75ZM548.297 98.75H552.297V94.75H540.297V90.75H552.297V86.75H556.297V106.75H552.297V102.75H548.297V98.75ZM540.297 82.75H552.297V86.75H540.297V82.75ZM564.313 82.75H568.313V86.75H572.313V90.75H568.313V106.75H564.313V82.75ZM580.313 82.75V86.75H572.313V82.75H580.313ZM580.313 86.75H584.313V90.75H580.313V86.75ZM596.328 82.75H604.328V86.75H596.328V82.75ZM592.328 86.75H596.328V102.75H592.328V86.75ZM596.328 102.75H604.328V106.75H596.328V102.75ZM596.328 110.75H608.328V114.75H596.328V110.75ZM604.328 98.75H608.328V90.75H604.328V86.75H608.328V82.75H612.328V110.75H608.328V102.75H604.328V98.75ZM624.344 82.75H636.344V86.75H624.344V82.75ZM620.344 86.75H624.344V90.75H636.344V86.75H640.344V94.75H624.344V102.75H620.344V86.75ZM624.344 102.75H636.344V106.75H624.344V102.75ZM636.344 98.75H640.344V102.75H636.344V98.75ZM652.359 74.75H656.359V82.75H664.359V86.75H656.359V102.75H652.359V86.75H648.359V82.75H652.359V74.75ZM656.359 102.75H664.359V106.75H656.359V102.75ZM664.359 98.75H668.359V102.75H664.359V98.75ZM688.375 78.75H692.375V102.75H688.375V78.75ZM684.375 102.75H688.375V106.75H684.375V102.75ZM680.375 106.75H684.375V110.75H680.375V106.75ZM680.375 70.75H684.375V74.75H680.375V70.75ZM688.375 78.75H684.375V74.75H688.375V78.75ZM932.516 70.75H944.516V74.75H936.516V106.75H944.516V110.75H932.516V70.75ZM968.531 74.75H960.531V70.75H972.531V110.75H960.531V106.75H968.531V74.75ZM992.547 98.75H996.547V106.75H992.547V98.75ZM988.547 106.75H992.547V110.75H988.547V106.75ZM992.547 82.75H996.547V90.75H992.547V82.75ZM148.078 138.75H152.078V162.75H148.078V138.75ZM156.078 166.75H152.078V162.75H156.078V166.75ZM156.078 166.75H160.078V170.75H156.078V166.75ZM156.078 130.75H160.078V134.75H156.078V130.75ZM152.078 134.75H156.078V138.75H152.078V134.75ZM188.094 162.75V166.75H176.094V162.75H188.094ZM176.094 162.75H172.094V158.75H176.094V162.75ZM188.094 142.75V146.75H176.094V142.75H188.094ZM172.094 146.75H176.094V150.75H172.094V146.75ZM176.094 150.75H188.094V154.75H176.094V150.75ZM188.094 154.75H192.094V162.75H188.094V154.75ZM204.109 142.75H216.109V146.75H204.109V142.75ZM216.109 146.75H220.109V162.75H216.109V146.75ZM200.109 146.75H204.109V162.75H200.109V146.75ZM204.109 162.75H216.109V166.75H204.109V162.75ZM228.125 142.75H232.125V162.75H228.125V142.75ZM232.125 162.75H240.125V166.75H232.125V162.75ZM244.125 142.75H248.125V166.75H244.125V162.75H240.125V158.75H244.125V142.75ZM256.141 142.75H260.141V146.75H264.141V150.75H260.141V166.75H256.141V142.75ZM272.141 142.75V146.75H264.141V142.75H272.141ZM272.141 146.75H276.141V150.75H272.141V146.75ZM288.156 142.75H300.156V146.75H288.156V142.75ZM284.156 146.75H288.156V162.75H284.156V146.75ZM288.156 162.75H300.156V166.75H288.156V162.75ZM300.156 146.75H304.156V150.75H300.156V146.75ZM300.156 158.75H304.156V162.75H300.156V158.75ZM316.172 142.75H328.172V146.75H316.172V142.75ZM312.172 146.75H316.172V150.75H328.172V146.75H332.172V154.75H316.172V162.75H312.172V146.75ZM316.172 162.75H328.172V166.75H316.172V162.75ZM328.172 158.75H332.172V162.75H328.172V158.75ZM388.203 146.75V150.75H368.203V146.75H388.203ZM388.203 154.75V158.75H368.203V154.75H388.203ZM416.219 146.75V150.75H396.219V146.75H416.219ZM416.219 154.75V158.75H396.219V154.75H416.219ZM444.234 146.75V150.75H424.234V146.75H444.234ZM444.234 154.75V158.75H424.234V154.75H444.234ZM484.266 134.75H488.266V142.75H496.266V146.75H488.266V162.75H484.266V146.75H480.266V142.75H484.266V134.75ZM488.266 162.75H496.266V166.75H488.266V162.75ZM496.266 158.75H500.266V162.75H496.266V158.75ZM508.281 154.75H512.281V162.75H508.281V154.75ZM512.281 162.75H520.281V166.75H512.281V162.75ZM520.281 158.75H524.281V154.75H512.281V150.75H524.281V146.75H528.281V166.75H524.281V162.75H520.281V158.75ZM512.281 142.75H524.281V146.75H512.281V142.75ZM536.297 142.75H540.297V146.75H544.297V150.75H540.297V166.75H536.297V142.75ZM552.297 142.75V146.75H544.297V142.75H552.297ZM552.297 146.75H556.297V150.75H552.297V146.75ZM568.313 142.75H576.313V146.75H568.313V142.75ZM564.313 146.75H568.313V162.75H564.313V146.75ZM568.313 162.75H576.313V166.75H568.313V162.75ZM568.313 170.75H580.313V174.75H568.313V170.75ZM576.313 158.75H580.313V150.75H576.313V146.75H580.313V142.75H584.313V170.75H580.313V162.75H576.313V158.75ZM596.328 142.75H608.328V146.75H596.328V142.75ZM592.328 146.75H596.328V150.75H608.328V146.75H612.328V154.75H596.328V162.75H592.328V146.75ZM596.328 162.75H608.328V166.75H596.328V162.75ZM608.328 158.75H612.328V162.75H608.328V158.75ZM624.344 134.75H628.344V142.75H636.344V146.75H628.344V162.75H624.344V146.75H620.344V142.75H624.344V134.75ZM628.344 162.75H636.344V166.75H628.344V162.75ZM636.344 158.75H640.344V162.75H636.344V158.75ZM660.359 138.75H664.359V162.75H660.359V138.75ZM656.359 162.75H660.359V166.75H656.359V162.75ZM652.359 166.75H656.359V170.75H652.359V166.75ZM652.359 130.75H656.359V134.75H652.359V130.75ZM660.359 138.75H656.359V134.75H660.359V138.75ZM904.5 130.75H916.5V134.75H908.5V166.75H916.5V170.75H904.5V130.75ZM944.516 162.75V166.75H932.516V162.75H944.516ZM932.516 162.75H928.516V158.75H932.516V162.75ZM944.516 142.75V146.75H932.516V142.75H944.516ZM928.516 146.75H932.516V150.75H928.516V146.75ZM932.516 150.75H944.516V154.75H932.516V150.75ZM944.516 154.75H948.516V162.75H944.516V154.75ZM960.531 142.75H972.531V146.75H960.531V142.75ZM972.531 146.75H976.531V162.75H972.531V146.75ZM956.531 146.75H960.531V162.75H956.531V146.75ZM960.531 162.75H972.531V166.75H960.531V162.75ZM984.547 142.75H988.547V162.75H984.547V142.75ZM988.547 162.75H996.547V166.75H988.547V162.75ZM1000.55 142.75H1004.55V166.75H1000.55V162.75H996.547V158.75H1000.55V142.75ZM1012.56 142.75H1016.56V146.75H1020.56V150.75H1016.56V166.75H1012.56V142.75ZM1028.56 142.75V146.75H1020.56V142.75H1028.56ZM1028.56 146.75H1032.56V150.75H1028.56V146.75ZM1044.58 142.75H1056.58V146.75H1044.58V142.75ZM1040.58 146.75H1044.58V162.75H1040.58V146.75ZM1044.58 162.75H1056.58V166.75H1044.58V162.75ZM1056.58 146.75H1060.58V150.75H1056.58V146.75ZM1056.58 158.75H1060.58V162.75H1056.58V158.75ZM1072.59 142.75H1084.59V146.75H1072.59V142.75ZM1068.59 146.75H1072.59V150.75H1084.59V146.75H1088.59V154.75H1072.59V162.75H1068.59V146.75ZM1072.59 162.75H1084.59V166.75H1072.59V162.75ZM1084.59 158.75H1088.59V162.75H1084.59V158.75ZM1108.61 134.75H1100.61V130.75H1112.61V170.75H1100.61V166.75H1108.61V134.75ZM1132.63 158.75H1136.63V166.75H1132.63V158.75ZM1128.63 166.75H1132.63V170.75H1128.63V166.75ZM1132.63 142.75H1136.63V150.75H1132.63V142.75ZM232.125 262.75H240.125V266.75H232.125V262.75ZM240.125 266.75H244.125V262.75H248.125V294.75H244.125V282.75H240.125V278.75H244.125V270.75H240.125V266.75ZM228.125 266.75H232.125V282.75H228.125V266.75ZM232.125 282.75H240.125V286.75H232.125V282.75ZM256.141 262.75H260.141V282.75H256.141V262.75ZM260.141 282.75H268.141V286.75H260.141V282.75ZM272.141 262.75H276.141V286.75H272.141V282.75H268.141V278.75H272.141V262.75ZM288.156 262.75H300.156V266.75H288.156V262.75ZM284.156 266.75H288.156V270.75H300.156V266.75H304.156V274.75H288.156V282.75H284.156V266.75ZM288.156 282.75H300.156V286.75H288.156V282.75ZM300.156 278.75H304.156V282.75H300.156V278.75ZM312.172 262.75H316.172V282.75H312.172V262.75ZM316.172 282.75H324.172V286.75H316.172V282.75ZM328.172 262.75H332.172V286.75H328.172V282.75H324.172V278.75H328.172V262.75ZM344.188 262.75H356.188V266.75H344.188V262.75ZM340.188 266.75H344.188V270.75H356.188V266.75H360.188V274.75H344.188V282.75H340.188V266.75ZM344.188 282.75H356.188V286.75H344.188V282.75ZM356.188 278.75H360.188V282.75H356.188V278.75ZM416.219 266.75V270.75H396.219V266.75H416.219ZM416.219 274.75V278.75H396.219V274.75H416.219ZM456.25 250.75H468.25V254.75H460.25V286.75H468.25V290.75H456.25V250.75ZM496.266 282.75V286.75H484.266V282.75H496.266ZM484.266 282.75H480.266V278.75H484.266V282.75ZM496.266 262.75V266.75H484.266V262.75H496.266ZM480.266 266.75H484.266V270.75H480.266V266.75ZM484.266 270.75H496.266V274.75H484.266V270.75ZM496.266 274.75H500.266V282.75H496.266V274.75ZM512.281 262.75H524.281V266.75H512.281V262.75ZM524.281 266.75H528.281V282.75H524.281V266.75ZM508.281 266.75H512.281V282.75H508.281V266.75ZM512.281 282.75H524.281V286.75H512.281V282.75ZM536.297 262.75H540.297V282.75H536.297V262.75ZM540.297 282.75H548.297V286.75H540.297V282.75ZM552.297 262.75H556.297V286.75H552.297V282.75H548.297V278.75H552.297V262.75ZM564.313 262.75H568.313V266.75H572.313V270.75H568.313V286.75H564.313V262.75ZM580.313 262.75V266.75H572.313V262.75H580.313ZM580.313 266.75H584.313V270.75H580.313V266.75ZM596.328 262.75H608.328V266.75H596.328V262.75ZM592.328 266.75H596.328V282.75H592.328V266.75ZM596.328 282.75H608.328V286.75H596.328V282.75ZM608.328 266.75H612.328V270.75H608.328V266.75ZM608.328 278.75H612.328V282.75H608.328V278.75ZM624.344 262.75H636.344V266.75H624.344V262.75ZM620.344 266.75H624.344V270.75H636.344V266.75H640.344V274.75H624.344V282.75H620.344V266.75ZM624.344 282.75H636.344V286.75H624.344V282.75ZM636.344 278.75H640.344V282.75H636.344V278.75ZM660.359 254.75H652.359V250.75H664.359V290.75H652.359V286.75H660.359V254.75ZM684.375 278.75H688.375V286.75H684.375V278.75ZM680.375 286.75H684.375V290.75H680.375V286.75ZM684.375 262.75H688.375V270.75H684.375V262.75ZM228.125 322.75H232.125V334.75H228.125V322.75ZM244.125 322.75H248.125V334.75H244.125V322.75ZM236.125 342.75H232.125V334.75H236.125V342.75ZM236.125 342.75H240.125V346.75H236.125V342.75ZM240.125 334.75H244.125V342.75H240.125V334.75ZM264.141 314.75H268.141V318.75H264.141V314.75ZM264.141 326.75H256.141V322.75H268.141V342.75H276.141V346.75H256.141V342.75H264.141V326.75ZM300.156 342.75V346.75H288.156V342.75H300.156ZM288.156 342.75H284.156V338.75H288.156V342.75ZM300.156 322.75V326.75H288.156V322.75H300.156ZM284.156 326.75H288.156V330.75H284.156V326.75ZM288.156 330.75H300.156V334.75H288.156V330.75ZM300.156 334.75H304.156V342.75H300.156V334.75ZM320.172 314.75H324.172V318.75H320.172V314.75ZM320.172 326.75H312.172V322.75H324.172V342.75H332.172V346.75H312.172V342.75H320.172V326.75ZM344.188 314.75H348.188V322.75H356.188V326.75H348.188V342.75H344.188V326.75H340.188V322.75H344.188V314.75ZM348.188 342.75H356.188V346.75H348.188V342.75ZM356.188 338.75H360.188V342.75H356.188V338.75ZM372.203 322.75H384.203V326.75H372.203V322.75ZM368.203 326.75H372.203V330.75H384.203V326.75H388.203V334.75H372.203V342.75H368.203V326.75ZM372.203 342.75H384.203V346.75H372.203V342.75ZM384.203 338.75H388.203V342.75H384.203V338.75ZM412.219 314.75H416.219V346.75H412.219V342.75H408.219V338.75H412.219V330.75H408.219V326.75H412.219V314.75ZM408.219 342.75V346.75H400.219V342.75H408.219ZM400.219 342.75H396.219V326.75H400.219V342.75ZM408.219 326.75H400.219V322.75H408.219V326.75ZM472.25 326.75V330.75H452.25V326.75H472.25ZM472.25 334.75V338.75H452.25V334.75H472.25ZM516.281 326.75V330.75H508.281V326.75H516.281ZM516.281 314.75H520.281V326.75H516.281V314.75ZM516.281 330.75H520.281V346.75H516.281V330.75ZM520.281 346.75H528.281V350.75H520.281V346.75ZM520.281 310.75H528.281V314.75H520.281V310.75ZM568.313 310.75H580.313V314.75H572.313V346.75H580.313V350.75H568.313V310.75ZM608.328 342.75V346.75H596.328V342.75H608.328ZM596.328 342.75H592.328V338.75H596.328V342.75ZM608.328 322.75V326.75H596.328V322.75H608.328ZM592.328 326.75H596.328V330.75H592.328V326.75ZM596.328 330.75H608.328V334.75H596.328V330.75ZM608.328 334.75H612.328V342.75H608.328V334.75ZM624.344 322.75H636.344V326.75H624.344V322.75ZM636.344 326.75H640.344V342.75H636.344V326.75ZM620.344 326.75H624.344V342.75H620.344V326.75ZM624.344 342.75H636.344V346.75H624.344V342.75ZM648.359 322.75H652.359V342.75H648.359V322.75ZM652.359 342.75H660.359V346.75H652.359V342.75ZM664.359 322.75H668.359V346.75H664.359V342.75H660.359V338.75H664.359V322.75ZM676.375 322.75H680.375V326.75H684.375V330.75H680.375V346.75H676.375V322.75ZM692.375 322.75V326.75H684.375V322.75H692.375ZM692.375 326.75H696.375V330.75H692.375V326.75ZM708.391 322.75H720.391V326.75H708.391V322.75ZM704.391 326.75H708.391V342.75H704.391V326.75ZM708.391 342.75H720.391V346.75H708.391V342.75ZM720.391 326.75H724.391V330.75H720.391V326.75ZM720.391 338.75H724.391V342.75H720.391V338.75ZM736.406 322.75H748.406V326.75H736.406V322.75ZM732.406 326.75H736.406V330.75H748.406V326.75H752.406V334.75H736.406V342.75H732.406V326.75ZM736.406 342.75H748.406V346.75H736.406V342.75ZM748.406 338.75H752.406V342.75H748.406V338.75ZM772.422 314.75H764.422V310.75H776.422V350.75H764.422V346.75H772.422V314.75ZM796.438 338.75H800.438V346.75H796.438V338.75ZM796.438 322.75H800.438V330.75H796.438V322.75ZM992.547 314.75H996.547V326.75H992.547V314.75ZM1004.55 326.75V330.75H996.547V326.75H1004.55ZM992.547 330.75H996.547V346.75H992.547V330.75ZM992.547 346.75V350.75H984.547V346.75H992.547ZM992.547 310.75V314.75H984.547V310.75H992.547ZM1020.56 338.75H1024.56V346.75H1020.56V338.75ZM1016.56 346.75H1020.56V350.75H1016.56V346.75ZM1020.56 322.75H1024.56V330.75H1020.56V322.75ZM228.125 382.75H232.125V386.75H236.125V390.75H232.125V398.75H236.125V402.75H232.125V414.75H228.125V382.75ZM236.125 382.75H244.125V386.75H236.125V382.75ZM244.125 386.75H248.125V402.75H244.125V386.75ZM236.125 402.75H244.125V406.75H236.125V402.75ZM256.141 382.75H260.141V386.75H264.141V390.75H260.141V406.75H256.141V382.75ZM272.141 382.75V386.75H264.141V382.75H272.141ZM272.141 386.75H276.141V390.75H272.141V386.75ZM288.156 382.75H300.156V386.75H288.156V382.75ZM284.156 386.75H288.156V390.75H300.156V386.75H304.156V394.75H288.156V402.75H284.156V386.75ZM288.156 402.75H300.156V406.75H288.156V402.75ZM300.156 398.75H304.156V402.75H300.156V398.75ZM328.172 374.75H332.172V406.75H328.172V402.75H324.172V398.75H328.172V390.75H324.172V386.75H328.172V374.75ZM324.172 402.75V406.75H316.172V402.75H324.172ZM316.172 402.75H312.172V386.75H316.172V402.75ZM324.172 386.75H316.172V382.75H324.172V386.75ZM344.188 382.75H356.188V386.75H344.188V382.75ZM340.188 386.75H344.188V390.75H356.188V386.75H360.188V394.75H344.188V402.75H340.188V386.75ZM344.188 402.75H356.188V406.75H344.188V402.75ZM356.188 398.75H360.188V402.75H356.188V398.75ZM372.203 382.75H384.203V386.75H372.203V382.75ZM368.203 386.75H372.203V402.75H368.203V386.75ZM372.203 402.75H384.203V406.75H372.203V402.75ZM384.203 386.75H388.203V390.75H384.203V386.75ZM384.203 398.75H388.203V402.75H384.203V398.75ZM400.219 382.75H412.219V386.75H400.219V382.75ZM396.219 386.75H400.219V390.75H412.219V386.75H416.219V394.75H400.219V402.75H396.219V386.75ZM400.219 402.75H412.219V406.75H400.219V402.75ZM412.219 398.75H416.219V402.75H412.219V398.75ZM440.234 402.75V406.75H428.234V402.75H440.234ZM428.234 402.75H424.234V398.75H428.234V402.75ZM440.234 382.75V386.75H428.234V382.75H440.234ZM424.234 386.75H428.234V390.75H424.234V386.75ZM428.234 390.75H440.234V394.75H428.234V390.75ZM440.234 394.75H444.234V402.75H440.234V394.75ZM468.25 402.75V406.75H456.25V402.75H468.25ZM456.25 402.75H452.25V398.75H456.25V402.75ZM468.25 382.75V386.75H456.25V382.75H468.25ZM452.25 386.75H456.25V390.75H452.25V386.75ZM456.25 390.75H468.25V394.75H456.25V390.75ZM468.25 394.75H472.25V402.75H468.25V394.75ZM484.266 382.75H496.266V386.75H484.266V382.75ZM496.266 386.75H500.266V402.75H496.266V386.75ZM480.266 386.75H484.266V402.75H480.266V386.75ZM484.266 402.75H496.266V406.75H484.266V402.75ZM508.281 382.75H512.281V386.75H516.281V390.75H512.281V406.75H508.281V382.75ZM524.281 382.75V386.75H516.281V382.75H524.281ZM524.281 386.75H528.281V390.75H524.281V386.75ZM584.313 386.75V390.75H564.313V386.75H584.313ZM584.313 394.75V398.75H564.313V394.75H584.313ZM628.344 386.75V390.75H620.344V386.75H628.344ZM628.344 374.75H632.344V386.75H628.344V374.75ZM628.344 390.75H632.344V406.75H628.344V390.75ZM632.344 406.75H640.344V410.75H632.344V406.75ZM632.344 370.75H640.344V374.75H632.344V370.75ZM656.359 374.75H660.359V386.75H656.359V374.75ZM668.359 386.75V390.75H660.359V386.75H668.359ZM656.359 390.75H660.359V406.75H656.359V390.75ZM656.359 406.75V410.75H648.359V406.75H656.359ZM656.359 370.75V374.75H648.359V370.75H656.359ZM684.375 398.75H688.375V406.75H684.375V398.75ZM680.375 406.75H684.375V410.75H680.375V406.75ZM684.375 382.75H688.375V390.75H684.375V382.75ZM176.094 434.75H180.094V442.75H188.094V446.75H180.094V462.75H176.094V446.75H172.094V442.75H176.094V434.75ZM180.094 462.75H188.094V466.75H180.094V462.75ZM188.094 458.75H192.094V462.75H188.094V458.75ZM200.109 454.75H204.109V462.75H200.109V454.75ZM204.109 462.75H212.109V466.75H204.109V462.75ZM212.109 458.75H216.109V454.75H204.109V450.75H216.109V446.75H220.109V466.75H216.109V462.75H212.109V458.75ZM204.109 442.75H216.109V446.75H204.109V442.75ZM236.125 434.75H240.125V438.75H236.125V434.75ZM236.125 446.75H228.125V442.75H240.125V462.75H248.125V466.75H228.125V462.75H236.125V446.75ZM264.141 438.75H256.141V434.75H268.141V462.75H276.141V466.75H256.141V462.75H264.141V438.75ZM332.172 446.75V450.75H312.172V446.75H332.172ZM332.172 454.75V458.75H312.172V454.75H332.172ZM404.219 458.75H408.219V466.75H404.219V458.75ZM400.219 466.75H404.219V470.75H400.219V466.75ZM404.219 442.75H408.219V450.75H404.219V442.75ZM232.125 558.75H236.125V582.75H232.125V558.75ZM240.125 586.75H236.125V582.75H240.125V586.75ZM240.125 586.75H244.125V590.75H240.125V586.75ZM240.125 550.75H244.125V554.75H240.125V550.75ZM236.125 554.75H240.125V558.75H236.125V554.75ZM260.141 554.75H264.141V562.75H272.141V566.75H264.141V582.75H260.141V566.75H256.141V562.75H260.141V554.75ZM264.141 582.75H272.141V586.75H264.141V582.75ZM272.141 578.75H276.141V582.75H272.141V578.75ZM284.156 574.75H288.156V582.75H284.156V574.75ZM288.156 582.75H296.156V586.75H288.156V582.75ZM296.156 578.75H300.156V574.75H288.156V570.75H300.156V566.75H304.156V586.75H300.156V582.75H296.156V578.75ZM288.156 562.75H300.156V566.75H288.156V562.75ZM320.172 554.75H324.172V558.75H320.172V554.75ZM320.172 566.75H312.172V562.75H324.172V582.75H332.172V586.75H312.172V582.75H320.172V566.75ZM348.188 558.75H340.188V554.75H352.188V582.75H360.188V586.75H340.188V582.75H348.188V558.75ZM396.219 570.75H400.219V574.75H396.219V570.75ZM400.219 566.75H404.219V570.75H400.219V566.75ZM400.219 574.75H404.219V578.75H400.219V574.75ZM404.219 578.75H408.219V582.75H404.219V578.75ZM404.219 562.75H408.219V566.75H404.219V562.75ZM408.219 558.75H412.219V562.75H408.219V558.75ZM408.219 582.75H412.219V586.75H408.219V582.75ZM456.25 562.75H464.25V566.75H456.25V562.75ZM464.25 566.75H468.25V562.75H472.25V594.75H468.25V582.75H464.25V578.75H468.25V570.75H464.25V566.75ZM452.25 566.75H456.25V582.75H452.25V566.75ZM456.25 582.75H464.25V586.75H456.25V582.75ZM480.266 562.75H484.266V582.75H480.266V562.75ZM484.266 582.75H492.266V586.75H484.266V582.75ZM496.266 562.75H500.266V586.75H496.266V582.75H492.266V578.75H496.266V562.75ZM512.281 562.75H524.281V566.75H512.281V562.75ZM508.281 566.75H512.281V570.75H524.281V566.75H528.281V574.75H512.281V582.75H508.281V566.75ZM512.281 582.75H524.281V586.75H512.281V582.75ZM524.281 578.75H528.281V582.75H524.281V578.75ZM536.297 562.75H540.297V582.75H536.297V562.75ZM540.297 582.75H548.297V586.75H540.297V582.75ZM552.297 562.75H556.297V586.75H552.297V582.75H548.297V578.75H552.297V562.75ZM568.313 562.75H580.313V566.75H568.313V562.75ZM564.313 566.75H568.313V570.75H580.313V566.75H584.313V574.75H568.313V582.75H564.313V566.75ZM568.313 582.75H580.313V586.75H568.313V582.75ZM580.313 578.75H584.313V582.75H580.313V578.75ZM600.328 578.75H604.328V586.75H600.328V578.75ZM800.438 558.75H804.438V582.75H800.438V558.75ZM796.438 582.75H800.438V586.75H796.438V582.75ZM792.438 586.75H796.438V590.75H792.438V586.75ZM792.438 550.75H796.438V554.75H792.438V550.75ZM800.438 558.75H796.438V554.75H800.438V558.75ZM852.469 566.75V570.75H844.469V566.75H852.469ZM852.469 554.75H856.469V566.75H852.469V554.75ZM852.469 570.75H856.469V586.75H852.469V570.75ZM856.469 586.75H864.469V590.75H856.469V586.75ZM856.469 550.75H864.469V554.75H856.469V550.75ZM236.125 678.75H228.125V674.75H240.125V702.75H248.125V706.75H228.125V702.75H236.125V678.75ZM256.141 694.75H260.141V702.75H256.141V694.75ZM260.141 702.75H268.141V706.75H260.141V702.75ZM268.141 698.75H272.141V694.75H260.141V690.75H272.141V686.75H276.141V706.75H272.141V702.75H268.141V698.75ZM260.141 682.75H272.141V686.75H260.141V682.75ZM300.156 702.75V706.75H288.156V702.75H300.156ZM288.156 702.75H284.156V698.75H288.156V702.75ZM300.156 682.75V686.75H288.156V682.75H300.156ZM284.156 686.75H288.156V690.75H284.156V686.75ZM288.156 690.75H300.156V694.75H288.156V690.75ZM300.156 694.75H304.156V702.75H300.156V694.75ZM316.172 674.75H320.172V682.75H328.172V686.75H320.172V702.75H316.172V686.75H312.172V682.75H316.172V674.75ZM320.172 702.75H328.172V706.75H320.172V702.75ZM328.172 698.75H332.172V702.75H328.172V698.75ZM388.203 686.75V690.75H368.203V686.75H388.203ZM388.203 694.75V698.75H368.203V694.75H388.203ZM428.234 682.75H436.234V686.75H428.234V682.75ZM436.234 686.75H440.234V682.75H444.234V714.75H440.234V702.75H436.234V698.75H440.234V690.75H436.234V686.75ZM424.234 686.75H428.234V702.75H424.234V686.75ZM428.234 702.75H436.234V706.75H428.234V702.75ZM452.25 682.75H456.25V702.75H452.25V682.75ZM456.25 702.75H464.25V706.75H456.25V702.75ZM468.25 682.75H472.25V706.75H468.25V702.75H464.25V698.75H468.25V682.75ZM484.266 682.75H496.266V686.75H484.266V682.75ZM480.266 686.75H484.266V690.75H496.266V686.75H500.266V694.75H484.266V702.75H480.266V686.75ZM484.266 702.75H496.266V706.75H484.266V702.75ZM496.266 698.75H500.266V702.75H496.266V698.75ZM508.281 682.75H512.281V702.75H508.281V682.75ZM512.281 702.75H520.281V706.75H512.281V702.75ZM524.281 682.75H528.281V706.75H524.281V702.75H520.281V698.75H524.281V682.75ZM540.297 682.75H552.297V686.75H540.297V682.75ZM536.297 686.75H540.297V690.75H552.297V686.75H556.297V694.75H540.297V702.75H536.297V686.75ZM540.297 702.75H552.297V706.75H540.297V702.75ZM552.297 698.75H556.297V702.75H552.297V698.75ZM568.313 670.75H580.313V674.75H572.313V706.75H580.313V710.75H568.313V670.75ZM772.422 674.75H764.422V670.75H776.422V710.75H764.422V706.75H772.422V674.75ZM796.438 698.75H800.438V706.75H796.438V698.75ZM792.438 706.75H796.438V710.75H792.438V706.75ZM796.438 682.75H800.438V690.75H796.438V682.75ZM228.125 742.75H232.125V746.75H236.125V750.75H232.125V766.75H228.125V742.75ZM236.125 742.75H244.125V746.75H236.125V742.75ZM244.125 746.75H248.125V766.75H244.125V746.75ZM260.141 742.75H272.141V746.75H260.141V742.75ZM256.141 746.75H260.141V750.75H272.141V746.75H276.141V754.75H260.141V762.75H256.141V746.75ZM260.141 762.75H272.141V766.75H260.141V762.75ZM272.141 758.75H276.141V762.75H272.141V758.75ZM292.156 734.75H296.156V738.75H292.156V734.75ZM292.156 746.75H284.156V742.75H296.156V762.75H304.156V766.75H284.156V762.75H292.156V746.75ZM316.172 742.75H324.172V746.75H316.172V742.75ZM312.172 746.75H316.172V762.75H312.172V746.75ZM316.172 762.75H324.172V766.75H316.172V762.75ZM316.172 770.75H328.172V774.75H316.172V770.75ZM324.172 758.75H328.172V750.75H324.172V746.75H328.172V742.75H332.172V770.75H328.172V762.75H324.172V758.75ZM340.188 734.75H344.188V746.75H348.188V750.75H344.188V766.75H340.188V734.75ZM356.188 746.75H360.188V766.75H356.188V746.75ZM348.188 742.75H356.188V746.75H348.188V742.75ZM368.203 734.75H372.203V746.75H376.203V750.75H372.203V758.75H376.203V762.75H372.203V766.75H368.203V734.75ZM376.203 762.75H384.203V766.75H376.203V762.75ZM384.203 746.75H388.203V762.75H384.203V746.75ZM376.203 742.75H384.203V746.75H376.203V742.75ZM400.219 742.75H412.219V746.75H400.219V742.75ZM412.219 746.75H416.219V762.75H412.219V746.75ZM396.219 746.75H400.219V762.75H396.219V746.75ZM400.219 762.75H412.219V766.75H400.219V762.75ZM424.234 742.75H428.234V746.75H432.234V750.75H428.234V766.75H424.234V742.75ZM440.234 742.75V746.75H432.234V742.75H440.234ZM440.234 746.75H444.234V750.75H440.234V746.75ZM468.25 762.75V766.75H456.25V762.75H468.25ZM456.25 762.75H452.25V758.75H456.25V762.75ZM468.25 742.75V746.75H456.25V742.75H468.25ZM452.25 746.75H456.25V750.75H452.25V746.75ZM456.25 750.75H468.25V754.75H456.25V750.75ZM468.25 754.75H472.25V762.75H468.25V754.75ZM528.281 746.75V750.75H508.281V746.75H528.281ZM528.281 754.75V758.75H508.281V754.75H528.281ZM564.313 742.75H568.313V746.75H572.313V750.75H568.313V766.75H564.313V742.75ZM572.313 742.75H580.313V746.75H572.313V742.75ZM580.313 746.75H584.313V766.75H580.313V746.75ZM596.328 742.75H608.328V746.75H596.328V742.75ZM608.328 746.75H612.328V762.75H608.328V746.75ZM592.328 746.75H596.328V762.75H592.328V746.75ZM596.328 762.75H608.328V766.75H596.328V762.75ZM636.344 734.75H640.344V766.75H636.344V762.75H632.344V758.75H636.344V750.75H632.344V746.75H636.344V734.75ZM632.344 762.75V766.75H624.344V762.75H632.344ZM624.344 762.75H620.344V746.75H624.344V762.75ZM632.344 746.75H624.344V742.75H632.344V746.75ZM652.359 742.75H664.359V746.75H652.359V742.75ZM648.359 746.75H652.359V750.75H664.359V746.75H668.359V754.75H652.359V762.75H648.359V746.75ZM652.359 762.75H664.359V766.75H652.359V762.75ZM664.359 758.75H668.359V762.75H664.359V758.75ZM676.375 734.75H680.375V742.75H684.375V746.75H680.375V766.75H676.375V734.75ZM692.375 746.75H688.375V742.75H692.375V734.75H696.375V766.75H692.375V746.75ZM684.375 746.75H688.375V754.75H684.375V746.75ZM704.391 754.75H708.391V762.75H704.391V754.75ZM708.391 762.75H716.391V766.75H708.391V762.75ZM716.391 758.75H720.391V754.75H708.391V750.75H720.391V746.75H724.391V766.75H720.391V762.75H716.391V758.75ZM708.391 742.75H720.391V746.75H708.391V742.75ZM732.406 742.75H736.406V746.75H740.406V750.75H736.406V758.75H740.406V762.75H736.406V774.75H732.406V742.75ZM740.406 742.75H748.406V746.75H740.406V742.75ZM748.406 746.75H752.406V762.75H748.406V746.75ZM740.406 762.75H748.406V766.75H740.406V762.75ZM764.422 730.75H776.422V734.75H768.422V766.75H776.422V770.75H764.422V730.75ZM912.5 734.75H904.5V730.75H916.5V770.75H904.5V766.75H912.5V734.75ZM936.516 758.75H940.516V766.75H936.516V758.75ZM932.516 766.75H936.516V770.75H932.516V766.75ZM936.516 742.75H940.516V750.75H936.516V742.75Z" fill="#8E8E8E"/>
<path d="M272.141 42.75V46.75H260.141V42.75H272.141ZM260.141 42.75H256.141V38.75H260.141V42.75ZM272.141 22.75V26.75H260.141V22.75H272.141ZM256.141 26.75H260.141V30.75H256.141V26.75ZM260.141 30.75H272.141V34.75H260.141V30.75ZM272.141 34.75H276.141V42.75H272.141V34.75ZM284.156 14.75H288.156V26.75H292.156V30.75H288.156V46.75H284.156V14.75ZM300.156 26.75H304.156V46.75H300.156V26.75ZM292.156 22.75H300.156V26.75H292.156V22.75ZM316.172 22.75H328.172V26.75H316.172V22.75ZM328.172 26.75H332.172V42.75H328.172V26.75ZM312.172 26.75H316.172V42.75H312.172V26.75ZM316.172 42.75H328.172V46.75H316.172V42.75ZM340.188 22.75H344.188V26.75H348.188V30.75H344.188V46.75H340.188V22.75ZM356.188 22.75V26.75H348.188V22.75H356.188ZM356.188 26.75H360.188V30.75H356.188V26.75ZM372.203 14.75H376.203V22.75H384.203V26.75H376.203V42.75H372.203V26.75H368.203V22.75H372.203V14.75ZM376.203 42.75H384.203V46.75H376.203V42.75ZM384.203 38.75H388.203V42.75H384.203V38.75ZM400.219 22.75H412.219V26.75H400.219V22.75ZM396.219 26.75H400.219V30.75H412.219V26.75H416.219V34.75H400.219V42.75H396.219V26.75ZM400.219 42.75H412.219V46.75H400.219V42.75ZM412.219 38.75H416.219V42.75H412.219V38.75ZM440.234 42.75V46.75H428.234V42.75H440.234ZM428.234 42.75H424.234V38.75H428.234V42.75ZM440.234 22.75V26.75H428.234V22.75H440.234ZM424.234 26.75H428.234V30.75H424.234V26.75ZM428.234 30.75H440.234V34.75H428.234V30.75ZM440.234 34.75H444.234V42.75H440.234V34.75ZM456.25 14.75H460.25V22.75H468.25V26.75H460.25V42.75H456.25V26.75H452.25V22.75H456.25V14.75ZM460.25 42.75H468.25V46.75H460.25V42.75ZM468.25 38.75H472.25V42.75H468.25V38.75ZM480.266 14.75H496.266V18.75H484.266V30.75H496.266V34.75H484.266V46.75H480.266V14.75ZM496.266 18.75H500.266V30.75H496.266V18.75ZM508.281 34.75H512.281V42.75H508.281V34.75ZM512.281 42.75H520.281V46.75H512.281V42.75ZM520.281 38.75H524.281V34.75H512.281V30.75H524.281V26.75H528.281V46.75H524.281V42.75H520.281V38.75ZM512.281 22.75H524.281V26.75H512.281V22.75ZM540.297 14.75H544.297V22.75H552.297V26.75H544.297V42.75H540.297V26.75H536.297V22.75H540.297V14.75ZM544.297 42.75H552.297V46.75H544.297V42.75ZM552.297 38.75H556.297V42.75H552.297V38.75ZM564.313 14.75H568.313V26.75H572.313V30.75H568.313V46.75H564.313V14.75ZM580.313 26.75H584.313V46.75H580.313V26.75ZM572.313 22.75H580.313V26.75H572.313V22.75Z" fill="#EEEEEE"/>
<path d="M848.469 314.75H852.469V322.75H860.469V326.75H852.469V342.75H848.469V326.75H844.469V322.75H848.469V314.75ZM852.469 342.75H860.469V346.75H852.469V342.75ZM860.469 338.75H864.469V342.75H860.469V338.75ZM872.484 322.75H876.484V326.75H880.484V330.75H876.484V346.75H872.484V322.75ZM888.484 322.75V326.75H880.484V322.75H888.484ZM888.484 326.75H892.484V330.75H888.484V326.75ZM900.5 322.75H904.5V342.75H900.5V322.75ZM904.5 342.75H912.5V346.75H904.5V342.75ZM916.5 322.75H920.5V346.75H916.5V342.75H912.5V338.75H916.5V322.75ZM932.516 322.75H944.516V326.75H932.516V322.75ZM928.516 326.75H932.516V330.75H944.516V326.75H948.516V334.75H932.516V342.75H928.516V326.75ZM932.516 342.75H944.516V346.75H932.516V342.75ZM944.516 338.75H948.516V342.75H944.516V338.75ZM368.203 438.75H372.203V450.75H376.203V454.75H372.203V462.75H368.203V438.75ZM372.203 462.75H384.203V466.75H372.203V462.75ZM372.203 434.75H384.203V438.75H372.203V434.75ZM384.203 438.75H388.203V462.75H384.203V446.75H380.203V442.75H384.203V438.75ZM376.203 446.75H380.203V450.75H376.203V446.75Z" fill="#C0C0C0"/>
<path d="M628.344 558.75H620.344V554.75H632.344V582.75H640.344V586.75H620.344V582.75H628.344V558.75ZM652.359 562.75H664.359V566.75H652.359V562.75ZM648.359 566.75H652.359V570.75H664.359V566.75H668.359V574.75H652.359V582.75H648.359V566.75ZM652.359 582.75H664.359V586.75H652.359V582.75ZM664.359 578.75H668.359V582.75H664.359V578.75ZM676.375 562.75H680.375V566.75H684.375V570.75H680.375V586.75H676.375V562.75ZM684.375 562.75H692.375V566.75H684.375V562.75ZM692.375 566.75H696.375V586.75H692.375V566.75ZM708.391 562.75H716.391V566.75H708.391V562.75ZM704.391 566.75H708.391V582.75H704.391V566.75ZM708.391 582.75H716.391V586.75H708.391V582.75ZM708.391 590.75H720.391V594.75H708.391V590.75ZM716.391 578.75H720.391V570.75H716.391V566.75H720.391V562.75H724.391V590.75H720.391V582.75H716.391V578.75ZM736.406 554.75H740.406V562.75H748.406V566.75H740.406V582.75H736.406V566.75H732.406V562.75H736.406V554.75ZM740.406 582.75H748.406V586.75H740.406V582.75ZM748.406 578.75H752.406V582.75H748.406V578.75ZM760.422 554.75H764.422V566.75H768.422V570.75H764.422V586.75H760.422V554.75ZM776.422 566.75H780.422V586.75H776.422V566.75ZM768.422 562.75H776.422V566.75H768.422V562.75ZM596.328 674.75H600.328V682.75H608.328V686.75H600.328V702.75H596.328V686.75H592.328V682.75H596.328V674.75ZM600.328 702.75H608.328V706.75H600.328V702.75ZM608.328 698.75H612.328V702.75H608.328V698.75ZM620.344 694.75H624.344V702.75H620.344V694.75ZM624.344 702.75H632.344V706.75H624.344V702.75ZM632.344 698.75H636.344V694.75H624.344V690.75H636.344V686.75H640.344V706.75H636.344V702.75H632.344V698.75ZM624.344 682.75H636.344V686.75H624.344V682.75ZM656.359 674.75H660.359V678.75H656.359V674.75ZM656.359 686.75H648.359V682.75H660.359V702.75H668.359V706.75H648.359V702.75H656.359V686.75ZM684.375 678.75H676.375V674.75H688.375V702.75H696.375V706.75H676.375V702.75H684.375V678.75ZM704.391 690.75H712.391V682.75H716.391V690.75H724.391V694.75H716.391V702.75H712.391V694.75H704.391V690.75ZM732.406 690.75H740.406V682.75H744.406V690.75H752.406V694.75H744.406V702.75H740.406V694.75H732.406V690.75ZM796.438 738.75H788.438V734.75H800.438V762.75H808.438V766.75H788.438V762.75H796.438V738.75ZM816.453 754.75H820.453V762.75H816.453V754.75ZM820.453 762.75H828.453V766.75H820.453V762.75ZM828.453 758.75H832.453V754.75H820.453V750.75H832.453V746.75H836.453V766.75H832.453V762.75H828.453V758.75ZM820.453 742.75H832.453V746.75H820.453V742.75ZM860.469 762.75V766.75H848.469V762.75H860.469ZM848.469 762.75H844.469V758.75H848.469V762.75ZM860.469 742.75V746.75H848.469V742.75H860.469ZM844.469 746.75H848.469V750.75H844.469V746.75ZM848.469 750.75H860.469V754.75H848.469V750.75ZM860.469 754.75H864.469V762.75H860.469V754.75ZM876.484 734.75H880.484V742.75H888.484V746.75H880.484V762.75H876.484V746.75H872.484V742.75H876.484V734.75ZM880.484 762.75H888.484V766.75H880.484V762.75ZM888.484 758.75H892.484V762.75H888.484V758.75Z" fill="#FFC24D"/>
<path d="M128.063 618.75H132.063V626.75H128.063V618.75ZM116.063 642.75H120.063V650.75H116.063V642.75ZM120.063 634.75H124.063V642.75H120.063V634.75ZM124.063 626.75H128.063V634.75H124.063V626.75ZM132.063 610.75H136.063V618.75H132.063V610.75ZM156.078 618.75H160.078V626.75H156.078V618.75ZM144.078 642.75H148.078V650.75H144.078V642.75ZM148.078 634.75H152.078V642.75H148.078V634.75ZM152.078 626.75H156.078V634.75H152.078V626.75ZM160.078 610.75H164.078V618.75H160.078V610.75ZM200.109 614.75H216.109V618.75H204.109V630.75H216.109V634.75H204.109V646.75H200.109V614.75ZM216.109 618.75H220.109V630.75H216.109V618.75ZM232.125 622.75H244.125V626.75H232.125V622.75ZM244.125 626.75H248.125V642.75H244.125V626.75ZM228.125 626.75H232.125V642.75H228.125V626.75ZM232.125 642.75H244.125V646.75H232.125V642.75ZM256.141 622.75H260.141V626.75H264.141V630.75H260.141V638.75H264.141V642.75H260.141V654.75H256.141V622.75ZM264.141 622.75H272.141V626.75H264.141V622.75ZM272.141 626.75H276.141V642.75H272.141V626.75ZM264.141 642.75H272.141V646.75H264.141V642.75ZM312.172 622.75H316.172V634.75H312.172V622.75ZM328.172 622.75H332.172V634.75H328.172V622.75ZM320.172 642.75H316.172V634.75H320.172V642.75ZM320.172 642.75H324.172V646.75H320.172V642.75ZM324.172 634.75H328.172V642.75H324.172V634.75ZM344.188 622.75H356.188V626.75H344.188V622.75ZM340.188 626.75H344.188V630.75H356.188V626.75H360.188V634.75H344.188V642.75H340.188V626.75ZM344.188 642.75H356.188V646.75H344.188V642.75ZM356.188 638.75H360.188V642.75H356.188V638.75ZM368.203 622.75H372.203V626.75H376.203V630.75H372.203V646.75H368.203V622.75ZM384.203 622.75V626.75H376.203V622.75H384.203ZM384.203 626.75H388.203V630.75H384.203V626.75ZM400.219 614.75H404.219V622.75H412.219V626.75H404.219V642.75H400.219V626.75H396.219V622.75H400.219V614.75ZM404.219 642.75H412.219V646.75H404.219V642.75ZM412.219 638.75H416.219V642.75H412.219V638.75ZM428.234 622.75H440.234V626.75H428.234V622.75ZM424.234 626.75H428.234V630.75H440.234V626.75H444.234V634.75H428.234V642.75H424.234V626.75ZM428.234 642.75H440.234V646.75H428.234V642.75ZM440.234 638.75H444.234V642.75H440.234V638.75ZM452.25 622.75H456.25V626.75H452.25V622.75ZM468.25 622.75H472.25V626.75H468.25V622.75ZM452.25 638.75H456.25V646.75H452.25V638.75ZM464.25 626.75H468.25V630.75H464.25V626.75ZM456.25 626.75H460.25V630.75H456.25V626.75ZM460.25 630.75H464.25V634.75H460.25V630.75ZM456.25 634.75H460.25V638.75H456.25V634.75ZM464.25 634.75H468.25V638.75H464.25V634.75ZM468.25 638.75H472.25V646.75H468.25V638.75ZM512.281 622.75H524.281V626.75H512.281V622.75ZM524.281 626.75H528.281V642.75H524.281V626.75ZM508.281 626.75H512.281V642.75H508.281V626.75ZM512.281 642.75H524.281V646.75H512.281V642.75ZM540.297 626.75H536.297V622.75H540.297V618.75H544.297V622.75H552.297V626.75H544.297V646.75H540.297V626.75ZM544.297 614.75H556.297V618.75H544.297V614.75ZM568.313 626.75H564.313V622.75H568.313V618.75H572.313V622.75H580.313V626.75H572.313V646.75H568.313V626.75ZM572.313 614.75H584.313V618.75H572.313V614.75ZM624.344 622.75H632.344V626.75H624.344V622.75ZM632.344 626.75H636.344V622.75H640.344V654.75H636.344V642.75H632.344V638.75H636.344V630.75H632.344V626.75ZM620.344 626.75H624.344V642.75H620.344V626.75ZM624.344 642.75H632.344V646.75H624.344V642.75ZM648.359 622.75H652.359V642.75H648.359V622.75ZM652.359 642.75H660.359V646.75H652.359V642.75ZM664.359 622.75H668.359V646.75H664.359V642.75H660.359V638.75H664.359V622.75ZM680.375 622.75H692.375V626.75H680.375V622.75ZM676.375 626.75H680.375V630.75H692.375V626.75H696.375V634.75H680.375V642.75H676.375V626.75ZM680.375 642.75H692.375V646.75H680.375V642.75ZM692.375 638.75H696.375V642.75H692.375V638.75ZM704.391 622.75H708.391V642.75H704.391V622.75ZM708.391 642.75H716.391V646.75H708.391V642.75ZM720.391 622.75H724.391V646.75H720.391V642.75H716.391V638.75H720.391V622.75ZM736.406 622.75H748.406V626.75H736.406V622.75ZM732.406 626.75H736.406V630.75H748.406V626.75H752.406V634.75H736.406V642.75H732.406V626.75ZM736.406 642.75H748.406V646.75H736.406V642.75ZM748.406 638.75H752.406V642.75H748.406V638.75Z" fill="#70705C"/>
</svg>
