<svg width="409" height="424" viewBox="0 0 409 424" fill="none" xmlns="http://www.w3.org/2000/svg">
<mask id="mask0_750_42704" style="mask-type:alpha" maskUnits="userSpaceOnUse" x="0" y="0" width="409" height="424">
<path fill-rule="evenodd" clip-rule="evenodd" d="M409 0H0V423.458L114.5 416L160 420L236.5 414L274 417L296 411.5H321L409 402.023V0Z" fill="#D9C9B6"/>
</mask>
<g mask="url(#mask0_750_42704)">
<path fill-rule="evenodd" clip-rule="evenodd" d="M409 0H0V423.458L114.5 416L160 420L236.5 414L274 417L296 411.5H321L409 402.023V0Z" fill="#D9C9B6"/>
<path d="M23 302H27V303H24V306H27V308H26V307H24V310H23V302ZM27 303H28V306H27V303ZM27 308H28V310H27V308ZM31.0039 304H34.0039V305H31.0039V304ZM30.0039 305H31.0039V306H34.0039V305H35.0039V307H31.0039V309H30.0039V305ZM31.0039 309H34.0039V310H31.0039V309ZM34.0039 308H35.0039V309H34.0039V308ZM41.0078 309V310H38.0078V309H41.0078ZM38.0078 309H37.0078V308H38.0078V309ZM41.0078 304V305H38.0078V304H41.0078ZM37.0078 305H38.0078V306H37.0078V305ZM38.0078 306H41.0078V307H38.0078V306ZM41.0078 307H42.0078V309H41.0078V307ZM45.0117 304H48.0117V305H45.0117V304ZM44.0117 305H45.0117V306H48.0117V305H49.0117V307H45.0117V309H44.0117V305ZM45.0117 309H48.0117V310H45.0117V309ZM48.0117 308H49.0117V309H48.0117V308ZM51.0156 307H52.0156V309H51.0156V307ZM52.0156 309H54.0156V310H52.0156V309ZM54.0156 308H55.0156V307H52.0156V306H55.0156V305H56.0156V310H55.0156V309H54.0156V308ZM52.0156 304H55.0156V305H52.0156V304ZM58.0195 304H59.0195V305H60.0195V306H59.0195V310H58.0195V304ZM62.0195 304V305H60.0195V304H62.0195ZM62.0195 305H63.0195V306H62.0195V305ZM66.0234 304H69.0234V305H66.0234V304ZM65.0234 305H66.0234V309H65.0234V305ZM66.0234 309H69.0234V310H66.0234V309ZM69.0234 305H70.0234V306H69.0234V305ZM69.0234 308H70.0234V309H69.0234V308ZM72.0273 302H73.0273V305H74.0273V306H73.0273V310H72.0273V302ZM76.0273 305H77.0273V310H76.0273V305ZM74.0273 304H76.0273V305H74.0273V304ZM80.0313 304H83.0313V305H80.0313V304ZM79.0313 305H80.0313V306H83.0313V305H84.0313V307H80.0313V309H79.0313V305ZM80.0313 309H83.0313V310H80.0313V309ZM83.0313 308H84.0313V309H83.0313V308ZM86.0352 304H87.0352V305H88.0352V306H87.0352V310H86.0352V304ZM90.0352 304V305H88.0352V304H90.0352ZM90.0352 305H91.0352V306H90.0352V305ZM97.0391 309V310H94.0391V309H97.0391ZM94.0391 309H93.0391V308H94.0391V309ZM97.0391 304V305H94.0391V304H97.0391ZM93.0391 305H94.0391V306H93.0391V305ZM94.0391 306H97.0391V307H94.0391V306ZM97.0391 307H98.0391V309H97.0391V307ZM108.047 305H107.047V304H108.047V303H109.047V304H111.047V305H109.047V310H108.047V305ZM109.047 302H112.047V303H109.047V302ZM114.051 304H115.051V305H116.051V306H115.051V310H114.051V304ZM118.051 304V305H116.051V304H118.051ZM118.051 305H119.051V306H118.051V305ZM122.055 304H125.055V305H122.055V304ZM125.055 305H126.055V309H125.055V305ZM121.055 305H122.055V309H121.055V305ZM122.055 309H125.055V310H122.055V309ZM128.059 304H130.059V305H129.059V310H128.059V304ZM130.059 305H131.059V310H130.059V305ZM132.059 305H131.059V304H132.059V305ZM132.059 305H133.059V310H132.059V305ZM143.066 302H144.066V304H146.066V305H144.066V309H143.066V305H142.066V304H143.066V302ZM144.066 309H146.066V310H144.066V309ZM146.066 308H147.066V309H146.066V308ZM149.07 302H150.07V305H151.07V306H150.07V310H149.07V302ZM153.07 305H154.07V310H153.07V305ZM151.07 304H153.07V305H151.07V304ZM157.074 304H160.074V305H157.074V304ZM156.074 305H157.074V306H160.074V305H161.074V307H157.074V309H156.074V305ZM157.074 309H160.074V310H157.074V309ZM160.074 308H161.074V309H160.074V308ZM170.082 302H175.082V303H171.082V305H174.082V306H171.082V310H170.082V302ZM177.086 307H178.086V309H177.086V307ZM178.086 309H180.086V310H178.086V309ZM180.086 308H181.086V307H178.086V306H181.086V305H182.086V310H181.086V309H180.086V308ZM178.086 304H181.086V305H178.086V304ZM184.09 304H185.09V305H186.09V306H185.09V310H184.09V304ZM188.09 304V305H186.09V304H188.09ZM188.09 305H189.09V306H188.09V305ZM191.094 304H192.094V305H193.094V306H192.094V310H191.094V304ZM193.094 304H195.094V305H193.094V304ZM195.094 305H196.094V310H195.094V305ZM202.098 309V310H199.098V309H202.098ZM199.098 309H198.098V308H199.098V309ZM202.098 304V305H199.098V304H202.098ZM198.098 305H199.098V306H198.098V305ZM199.098 306H202.098V307H199.098V306ZM202.098 307H203.098V309H202.098V307ZM205.102 304H206.102V309H205.102V304ZM209.102 304H210.102V310H208.102V309H209.102V304ZM208.102 309H207.102V304H208.102V309ZM206.102 309H207.102V310H206.102V309ZM213.105 304H216.105V305H213.105V304ZM216.105 305H217.105V309H216.105V305ZM212.105 305H213.105V309H212.105V305ZM213.105 309H216.105V310H213.105V309ZM219.109 304H220.109V305H221.109V306H220.109V310H219.109V304ZM223.109 304V305H221.109V304H223.109ZM223.109 305H224.109V306H223.109V305ZM227.113 302H228.113V304H230.113V305H228.113V309H227.113V305H226.113V304H227.113V302ZM228.113 309H230.113V310H228.113V309ZM230.113 308H231.113V309H230.113V308ZM233.117 302H234.117V305H235.117V306H234.117V310H233.117V302ZM237.117 305H238.117V310H237.117V305ZM235.117 304H237.117V305H235.117V304ZM247.125 302H251.125V303H248.125V306H251.125V308H250.125V307H248.125V310H247.125V302ZM251.125 303H252.125V306H251.125V303ZM251.125 308H252.125V310H251.125V308ZM255.129 304H258.129V305H255.129V304ZM254.129 305H255.129V306H258.129V305H259.129V307H255.129V309H254.129V305ZM255.129 309H258.129V310H255.129V309ZM258.129 308H259.129V309H258.129V308ZM265.133 309V310H262.133V309H265.133ZM262.133 309H261.133V308H262.133V309ZM265.133 304V305H262.133V304H265.133ZM261.133 305H262.133V306H261.133V305ZM262.133 306H265.133V307H262.133V306ZM265.133 307H266.133V309H265.133V307ZM269.137 304H272.137V305H269.137V304ZM268.137 305H269.137V306H272.137V305H273.137V307H269.137V309H268.137V305ZM269.137 309H272.137V310H269.137V309ZM272.137 308H273.137V309H272.137V308ZM275.141 307H276.141V309H275.141V307ZM276.141 309H278.141V310H276.141V309ZM278.141 308H279.141V307H276.141V306H279.141V305H280.141V310H279.141V309H278.141V308ZM276.141 304H279.141V305H276.141V304ZM282.145 304H283.145V305H284.145V306H283.145V310H282.145V304ZM286.145 304V305H284.145V304H286.145ZM286.145 305H287.145V306H286.145V305ZM290.148 304H293.148V305H290.148V304ZM289.148 305H290.148V309H289.148V305ZM290.148 309H293.148V310H290.148V309ZM293.148 305H294.148V306H293.148V305ZM293.148 308H294.148V309H293.148V308ZM296.152 302H297.152V305H298.152V306H297.152V310H296.152V302ZM300.152 305H301.152V310H300.152V305ZM298.152 304H300.152V305H298.152V304ZM312.16 309V303H310.16V302H315.16V303H313.16V309H315.16V310H310.16V309H312.16ZM317.164 304H318.164V305H319.164V306H318.164V310H317.164V304ZM319.164 304H321.164V305H319.164V304ZM321.164 305H322.164V310H321.164V305ZM328.168 309V310H325.168V309H328.168ZM325.168 309H324.168V308H325.168V309ZM328.168 304V305H325.168V304H328.168ZM324.168 305H325.168V306H324.168V305ZM325.168 306H328.168V307H325.168V306ZM328.168 307H329.168V309H328.168V307ZM332.172 302H333.172V304H335.172V305H333.172V309H332.172V305H331.172V304H332.172V302ZM333.172 309H335.172V310H333.172V309ZM335.172 308H336.172V309H335.172V308ZM340.176 302H341.176V303H340.176V302ZM340.176 305H338.176V304H341.176V309H343.176V310H338.176V309H340.176V305ZM346.18 302H347.18V304H349.18V305H347.18V309H346.18V305H345.18V304H346.18V302ZM347.18 309H349.18V310H347.18V309ZM349.18 308H350.18V309H349.18V308ZM352.184 304H353.184V309H352.184V304ZM353.184 309H355.184V310H353.184V309ZM356.184 304H357.184V310H356.184V309H355.184V308H356.184V304ZM360.188 302H361.188V304H363.188V305H361.188V309H360.188V305H359.188V304H360.188V302ZM361.188 309H363.188V310H361.188V309ZM363.188 308H364.188V309H363.188V308ZM367.191 304H370.191V305H367.191V304ZM366.191 305H367.191V306H370.191V305H371.191V307H367.191V309H366.191V305ZM367.191 309H370.191V310H367.191V309ZM370.191 308H371.191V309H370.191V308ZM27 319H28V327H27V326H26V325H27V323H26V322H27V319ZM26 326V327H24V326H26ZM24 326H23V322H24V326ZM26 322H24V321H26V322ZM31.0039 321H34.0039V322H31.0039V321ZM30.0039 322H31.0039V323H34.0039V322H35.0039V324H31.0039V326H30.0039V322ZM31.0039 326H34.0039V327H31.0039V326ZM34.0039 325H35.0039V326H34.0039V325ZM38.0078 319H39.0078V321H41.0078V322H39.0078V326H38.0078V322H37.0078V321H38.0078V319ZM39.0078 326H41.0078V327H39.0078V326ZM41.0078 325H42.0078V326H41.0078V325ZM45.0117 321H48.0117V322H45.0117V321ZM44.0117 322H45.0117V323H48.0117V322H49.0117V324H45.0117V326H44.0117V322ZM45.0117 326H48.0117V327H45.0117V326ZM48.0117 325H49.0117V326H48.0117V325ZM52.0156 321H55.0156V322H52.0156V321ZM51.0156 322H52.0156V326H51.0156V322ZM52.0156 326H55.0156V327H52.0156V326ZM55.0156 322H56.0156V323H55.0156V322ZM55.0156 325H56.0156V326H55.0156V325ZM59.0195 319H60.0195V321H62.0195V322H60.0195V326H59.0195V322H58.0195V321H59.0195V319ZM60.0195 326H62.0195V327H60.0195V326ZM62.0195 325H63.0195V326H62.0195V325ZM66.0234 321H69.0234V322H66.0234V321ZM65.0234 322H66.0234V323H69.0234V322H70.0234V324H66.0234V326H65.0234V322ZM66.0234 326H69.0234V327H66.0234V326ZM69.0234 325H70.0234V326H69.0234V325ZM76.0273 319H77.0273V327H76.0273V326H75.0273V325H76.0273V323H75.0273V322H76.0273V319ZM75.0273 326V327H73.0273V326H75.0273ZM73.0273 326H72.0273V322H73.0273V326ZM75.0273 322H73.0273V321H75.0273V322ZM86.0352 321H87.0352V326H86.0352V321ZM87.0352 326H89.0352V327H87.0352V326ZM90.0352 321H91.0352V327H90.0352V326H89.0352V325H90.0352V321ZM93.0391 321H94.0391V322H95.0391V323H94.0391V327H93.0391V321ZM95.0391 321H97.0391V322H95.0391V321ZM97.0391 322H98.0391V327H97.0391V322ZM100.043 321H101.043V326H100.043V321ZM101.043 326H103.043V327H101.043V326ZM104.043 321H105.043V327H104.043V326H103.043V325H104.043V321ZM111.047 326V327H108.047V326H111.047ZM108.047 326H107.047V325H108.047V326ZM111.047 321V322H108.047V321H111.047ZM107.047 322H108.047V323H107.047V322ZM108.047 323H111.047V324H108.047V323ZM111.047 324H112.047V326H111.047V324ZM114.051 321H115.051V326H114.051V321ZM115.051 326H117.051V327H115.051V326ZM118.051 321H119.051V327H118.051V326H117.051V325H118.051V321ZM121.055 324H122.055V326H121.055V324ZM122.055 326H124.055V327H122.055V326ZM124.055 325H125.055V324H122.055V323H125.055V322H126.055V327H125.055V326H124.055V325ZM122.055 321H125.055V322H122.055V321ZM130.059 320H128.059V319H131.059V326H133.059V327H128.059V326H130.059V320ZM137.063 320H135.063V319H138.063V326H140.063V327H135.063V326H137.063V320ZM142.066 321H143.066V324H142.066V321ZM146.066 321H147.066V324H146.066V321ZM144.066 326H145.066V328H144.066V326ZM144.066 328V329H142.066V328H144.066ZM145.066 324H146.066V326H145.066V324ZM143.066 324H144.066V326H143.066V324ZM156.074 319H157.074V322H158.074V323H157.074V327H156.074V319ZM160.074 322H161.074V327H160.074V322ZM158.074 321H160.074V322H158.074V321ZM165.078 319H166.078V320H165.078V319ZM165.078 322H163.078V321H166.078V326H168.078V327H163.078V326H165.078V322ZM171.082 321H173.082V322H171.082V321ZM170.082 322H171.082V326H170.082V322ZM171.082 326H173.082V327H171.082V326ZM171.082 328H174.082V329H171.082V328ZM173.082 325H174.082V323H173.082V322H174.082V321H175.082V328H174.082V326H173.082V325ZM177.086 319H178.086V322H179.086V323H178.086V327H177.086V319ZM181.086 322H182.086V327H181.086V322ZM179.086 321H181.086V322H179.086V321ZM191.094 321H193.094V322H192.094V327H191.094V321ZM193.094 322H194.094V327H193.094V322ZM195.094 322H194.094V321H195.094V322ZM195.094 322H196.094V327H195.094V322ZM199.098 321H202.098V322H199.098V321ZM198.098 322H199.098V323H202.098V322H203.098V324H199.098V326H198.098V322ZM199.098 326H202.098V327H199.098V326ZM202.098 325H203.098V326H202.098V325ZM206.102 319H207.102V321H209.102V322H207.102V326H206.102V322H205.102V321H206.102V319ZM207.102 326H209.102V327H207.102V326ZM209.102 325H210.102V326H209.102V325ZM212.105 319H213.105V322H214.105V323H213.105V327H212.105V319ZM216.105 322H217.105V327H216.105V322ZM214.105 321H216.105V322H214.105V321ZM219.109 324H220.109V326H219.109V324ZM220.109 326H222.109V327H220.109V326ZM222.109 325H223.109V324H220.109V323H223.109V322H224.109V327H223.109V326H222.109V325ZM220.109 321H223.109V322H220.109V321ZM226.113 321H227.113V322H228.113V323H227.113V327H226.113V321ZM228.113 321H230.113V322H228.113V321ZM230.113 322H231.113V327H230.113V322ZM234.117 321H237.117V322H234.117V321ZM233.117 322H234.117V323H237.117V322H238.117V324H234.117V326H233.117V322ZM234.117 326H237.117V327H234.117V326ZM237.117 325H238.117V326H237.117V325ZM251.125 326V327H248.125V326H251.125ZM248.125 326H247.125V325H248.125V326ZM251.125 321V322H248.125V321H251.125ZM247.125 322H248.125V323H247.125V322ZM248.125 323H251.125V324H248.125V323ZM251.125 324H252.125V326H251.125V324ZM256.129 319H257.129V320H256.129V319ZM256.129 322H254.129V321H257.129V326H259.129V327H254.129V326H256.129V322ZM262.133 321H264.133V322H262.133V321ZM261.133 322H262.133V326H261.133V322ZM262.133 326H264.133V327H262.133V326ZM262.133 328H265.133V329H262.133V328ZM264.133 325H265.133V323H264.133V322H265.133V321H266.133V328H265.133V326H264.133V325ZM268.137 321H269.137V322H270.137V323H269.137V327H268.137V321ZM270.137 321H272.137V322H270.137V321ZM272.137 322H273.137V327H272.137V322ZM275.141 324H276.141V326H275.141V324ZM276.141 326H278.141V327H276.141V326ZM278.141 325H279.141V324H276.141V323H279.141V322H280.141V327H279.141V326H278.141V325ZM276.141 321H279.141V322H276.141V321ZM283.145 319H284.145V321H286.145V322H284.145V326H283.145V322H282.145V321H283.145V319ZM284.145 326H286.145V327H284.145V326ZM286.145 325H287.145V326H286.145V325ZM289.148 321H290.148V326H289.148V321ZM290.148 326H292.148V327H290.148V326ZM293.148 321H294.148V327H293.148V326H292.148V325H293.148V321ZM296.152 321H297.152V322H298.152V323H297.152V327H296.152V321ZM300.152 321V322H298.152V321H300.152ZM300.152 322H301.152V323H300.152V322ZM304.156 321H307.156V322H304.156V321ZM303.156 322H304.156V323H307.156V322H308.156V324H304.156V326H303.156V322ZM304.156 326H307.156V327H304.156V326ZM307.156 325H308.156V326H307.156V325ZM314.16 326V327H311.16V326H314.16ZM311.16 326H310.16V325H311.16V326ZM314.16 321V322H311.16V321H314.16ZM310.16 322H311.16V323H310.16V322ZM311.16 323H314.16V324H311.16V323ZM314.16 324H315.16V326H314.16V324ZM325.168 321H328.168V322H325.168V321ZM328.168 322H329.168V326H328.168V322ZM324.168 322H325.168V326H324.168V322ZM325.168 326H328.168V327H325.168V326ZM331.172 321H332.172V322H333.172V323H332.172V327H331.172V321ZM333.172 321H335.172V322H333.172V321ZM335.172 322H336.172V327H335.172V322ZM23 336H24V339H25V338H26V340H24V344H23V336ZM27 336H28V337H27V336ZM26 337H27V338H26V337ZM27 342H26V340H27V342ZM27 342H28V344H27V342ZM31.0039 338H34.0039V339H31.0039V338ZM30.0039 339H31.0039V340H34.0039V339H35.0039V341H31.0039V343H30.0039V339ZM31.0039 343H34.0039V344H31.0039V343ZM34.0039 342H35.0039V343H34.0039V342ZM37.0078 338H38.0078V339H39.0078V340H38.0078V344H37.0078V338ZM41.0078 338V339H39.0078V338H41.0078ZM41.0078 339H42.0078V340H41.0078V339ZM44.0117 336H45.0117V339H46.0117V340H45.0117V342H46.0117V343H45.0117V344H44.0117V336ZM46.0117 343H48.0117V344H46.0117V343ZM48.0117 339H49.0117V343H48.0117V339ZM46.0117 338H48.0117V339H46.0117V338ZM52.0156 338H55.0156V339H52.0156V338ZM51.0156 339H52.0156V340H55.0156V339H56.0156V341H52.0156V343H51.0156V339ZM52.0156 343H55.0156V344H52.0156V343ZM55.0156 342H56.0156V343H55.0156V342ZM58.0195 338H59.0195V339H60.0195V340H59.0195V344H58.0195V338ZM62.0195 338V339H60.0195V338H62.0195ZM62.0195 339H63.0195V340H62.0195V339ZM66.0234 338H69.0234V339H66.0234V338ZM69.0234 339H70.0234V343H69.0234V339ZM65.0234 339H66.0234V343H65.0234V339ZM66.0234 343H69.0234V344H66.0234V343ZM76.0273 343V344H73.0273V343H76.0273ZM73.0273 343H72.0273V342H73.0273V343ZM76.0273 338V339H73.0273V338H76.0273ZM72.0273 339H73.0273V340H72.0273V339ZM73.0273 340H76.0273V341H73.0273V340ZM76.0273 341H77.0273V343H76.0273V341ZM86.0352 336H91.0352V337H87.0352V339H90.0352V340H86.0352V336ZM90.0352 340H91.0352V343H90.0352V340ZM90.0352 343V344H87.0352V343H90.0352ZM87.0352 343H86.0352V342H87.0352V343ZM100.043 341H101.043V343H100.043V341ZM101.043 343H103.043V344H101.043V343ZM103.043 342H104.043V341H101.043V340H104.043V339H105.043V344H104.043V343H103.043V342ZM101.043 338H104.043V339H101.043V338ZM107.047 338H108.047V339H109.047V340H108.047V344H107.047V338ZM109.047 338H111.047V339H109.047V338ZM111.047 339H112.047V344H111.047V339ZM118.051 336H119.051V344H118.051V343H117.051V342H118.051V340H117.051V339H118.051V336ZM117.051 343V344H115.051V343H117.051ZM115.051 343H114.051V339H115.051V343ZM117.051 339H115.051V338H117.051V339ZM132.059 343V344H129.059V343H132.059ZM129.059 343H128.059V342H129.059V343ZM132.059 338V339H129.059V338H132.059ZM128.059 339H129.059V340H128.059V339ZM129.059 340H132.059V341H129.059V340ZM132.059 341H133.059V343H132.059V341ZM135.063 338H136.063V343H135.063V338ZM136.063 343H138.063V344H136.063V343ZM139.063 338H140.063V344H139.063V343H138.063V342H139.063V338ZM142.066 338H143.066V339H144.066V340H143.066V344H142.066V338ZM146.066 338V339H144.066V338H146.066ZM146.066 339H147.066V340H146.066V339ZM149.07 338H150.07V339H151.07V340H150.07V344H149.07V338ZM153.07 338V339H151.07V338H153.07ZM153.07 339H154.07V340H153.07V339ZM157.074 338H160.074V339H157.074V338ZM160.074 339H161.074V343H160.074V339ZM156.074 339H157.074V343H156.074V339ZM157.074 343H160.074V344H157.074V343ZM163.078 338H164.078V343H163.078V338ZM164.078 343H166.078V344H164.078V343ZM167.078 338H168.078V344H167.078V343H166.078V342H167.078V338ZM170.082 338H171.082V339H172.082V340H171.082V344H170.082V338ZM172.082 338H174.082V339H172.082V338ZM174.082 339H175.082V344H174.082V339ZM181.086 336H182.086V344H181.086V343H180.086V342H181.086V340H180.086V339H181.086V336ZM180.086 343V344H178.086V343H180.086ZM178.086 343H177.086V339H178.086V343ZM180.086 339H178.086V338H180.086V339ZM186.09 336H187.09V337H186.09V336ZM186.09 339H184.09V338H187.09V343H189.09V344H184.09V343H186.09V339ZM191.094 338H192.094V339H193.094V340H192.094V344H191.094V338ZM193.094 338H195.094V339H193.094V338ZM195.094 339H196.094V344H195.094V339ZM199.098 338H201.098V339H199.098V338ZM198.098 339H199.098V343H198.098V339ZM199.098 343H201.098V344H199.098V343ZM199.098 345H202.098V346H199.098V345ZM201.098 342H202.098V340H201.098V339H202.098V338H203.098V345H202.098V343H201.098V342ZM212.105 336H213.105V339H214.105V338H215.105V340H213.105V344H212.105V336ZM216.105 336H217.105V337H216.105V336ZM215.105 337H216.105V338H215.105V337ZM216.105 342H215.105V340H216.105V342ZM216.105 342H217.105V344H216.105V342ZM219.109 338H220.109V343H219.109V338ZM220.109 343H222.109V344H220.109V343ZM223.109 338H224.109V344H223.109V343H222.109V342H223.109V338ZM228.113 336H229.113V337H228.113V336ZM228.113 339H226.113V338H229.113V343H231.113V344H226.113V343H228.113V339ZM233.117 338H234.117V339H235.117V340H234.117V342H235.117V343H234.117V346H233.117V338ZM235.117 338H237.117V339H235.117V338ZM237.117 339H238.117V343H237.117V339ZM235.117 343H237.117V344H235.117V343ZM241.121 338H244.121V339H241.121V338ZM240.121 339H241.121V340H244.121V339H245.121V341H241.121V343H240.121V339ZM241.121 343H244.121V344H241.121V343ZM244.121 342H245.121V343H244.121V342ZM247.125 338H248.125V339H249.125V340H248.125V344H247.125V338ZM251.125 338V339H249.125V338H251.125ZM251.125 339H252.125V340H251.125V339ZM261.133 336H265.133V337H262.133V339H265.133V340H262.133V343H265.133V344H261.133V336ZM265.133 340H266.133V343H265.133V340ZM265.133 337H266.133V339H265.133V337ZM269.137 338H272.137V339H269.137V338ZM268.137 339H269.137V340H272.137V339H273.137V341H269.137V343H268.137V339ZM269.137 343H272.137V344H269.137V343ZM272.137 342H273.137V343H272.137V342ZM277.141 337H275.141V336H278.141V343H280.141V344H275.141V343H277.141V337ZM283.145 336H284.145V338H286.145V339H284.145V343H283.145V339H282.145V338H283.145V336ZM284.145 343H286.145V344H284.145V343ZM286.145 342H287.145V343H286.145V342ZM297.152 338H300.152V339H297.152V338ZM300.152 339H301.152V343H300.152V339ZM296.152 339H297.152V343H296.152V339ZM297.152 343H300.152V344H297.152V343ZM303.156 336H304.156V339H305.156V340H304.156V342H305.156V343H304.156V344H303.156V336ZM305.156 343H307.156V344H305.156V343ZM307.156 339H308.156V343H307.156V339ZM305.156 338H307.156V339H305.156V338ZM313.16 336H314.16V337H313.16V336ZM313.16 339H311.16V338H314.16V345H313.16V339ZM313.16 345V346H311.16V345H313.16ZM311.16 345H310.16V344H311.16V345ZM318.164 338H321.164V339H318.164V338ZM317.164 339H318.164V340H321.164V339H322.164V341H318.164V343H317.164V339ZM318.164 343H321.164V344H318.164V343ZM321.164 342H322.164V343H321.164V342ZM325.168 338H328.168V339H325.168V338ZM324.168 339H325.168V343H324.168V339ZM325.168 343H328.168V344H325.168V343ZM328.168 339H329.168V340H328.168V339ZM328.168 342H329.168V343H328.168V342ZM332.172 336H333.172V338H335.172V339H333.172V343H332.172V339H331.172V338H332.172V336ZM333.172 343H335.172V344H333.172V343ZM335.172 342H336.172V343H335.172V342ZM342.176 343V344H339.176V343H342.176ZM339.176 343H338.176V342H339.176V343ZM342.176 338V339H339.176V338H342.176ZM338.176 339H339.176V340H338.176V339ZM339.176 340H342.176V341H339.176V340ZM342.176 341H343.176V343H342.176V341ZM347.18 342H348.18V344H347.18V342ZM346.18 344H347.18V345H346.18V344ZM27 360V361H24V360H27ZM24 360H23V359H24V360ZM27 355V356H24V355H27ZM23 356H24V357H23V356ZM24 357H27V358H24V357ZM27 358H28V360H27V358ZM30.0039 355H31.0039V360H30.0039V355ZM31.0039 360H33.0039V361H31.0039V360ZM34.0039 355H35.0039V361H34.0039V360H33.0039V359H34.0039V355ZM38.0078 355H40.0078V356H38.0078V355ZM37.0078 356H38.0078V360H37.0078V356ZM38.0078 360H40.0078V361H38.0078V360ZM38.0078 362H41.0078V363H38.0078V362ZM40.0078 359H41.0078V357H40.0078V356H41.0078V355H42.0078V362H41.0078V360H40.0078V359ZM45.0117 355H47.0117V356H45.0117V355ZM44.0117 356H45.0117V360H44.0117V356ZM45.0117 360H47.0117V361H45.0117V360ZM45.0117 362H48.0117V363H45.0117V362ZM47.0117 359H48.0117V357H47.0117V356H48.0117V355H49.0117V362H48.0117V360H47.0117V359ZM52.0156 355H55.0156V356H52.0156V355ZM51.0156 356H52.0156V357H55.0156V356H56.0156V358H52.0156V360H51.0156V356ZM52.0156 360H55.0156V361H52.0156V360ZM55.0156 359H56.0156V360H55.0156V359ZM62.0195 360V361H59.0195V360H62.0195ZM59.0195 360H58.0195V359H59.0195V360ZM62.0195 355V356H59.0195V355H62.0195ZM58.0195 356H59.0195V357H58.0195V356ZM59.0195 357H62.0195V358H59.0195V357ZM62.0195 358H63.0195V360H62.0195V358ZM66.0234 353H67.0234V355H69.0234V356H67.0234V360H66.0234V356H65.0234V355H66.0234V353ZM67.0234 360H69.0234V361H67.0234V360ZM69.0234 359H70.0234V360H69.0234V359ZM74.0273 353H75.0273V354H74.0273V353ZM74.0273 356H72.0273V355H75.0273V360H77.0273V361H72.0273V360H74.0273V356ZM79.0313 355H80.0313V356H81.0313V357H80.0313V361H79.0313V355ZM81.0313 355H83.0313V356H81.0313V355ZM83.0313 356H84.0313V361H83.0313V356ZM87.0352 355H89.0352V356H87.0352V355ZM86.0352 356H87.0352V360H86.0352V356ZM87.0352 360H89.0352V361H87.0352V360ZM87.0352 362H90.0352V363H87.0352V362ZM89.0352 359H90.0352V357H89.0352V356H90.0352V355H91.0352V362H90.0352V360H89.0352V359ZM100.043 355H101.043V356H102.043V357H101.043V361H100.043V355ZM104.043 355V356H102.043V355H104.043ZM104.043 356H105.043V357H104.043V356ZM108.047 355H111.047V356H108.047V355ZM107.047 356H108.047V357H111.047V356H112.047V358H108.047V360H107.047V356ZM108.047 360H111.047V361H108.047V360ZM111.047 359H112.047V360H111.047V359ZM115.051 355H118.051V356H115.051V355ZM114.051 356H115.051V360H114.051V356ZM115.051 360H118.051V361H115.051V360ZM118.051 356H119.051V357H118.051V356ZM118.051 359H119.051V360H118.051V359ZM122.055 355H125.055V356H122.055V355ZM121.055 356H122.055V357H125.055V356H126.055V358H122.055V360H121.055V356ZM122.055 360H125.055V361H122.055V360ZM125.055 359H126.055V360H125.055V359ZM128.059 355H129.059V356H130.059V357H129.059V361H128.059V355ZM130.059 355H132.059V356H130.059V355ZM132.059 356H133.059V361H132.059V356ZM136.063 353H137.063V355H139.063V356H137.063V360H136.063V356H135.063V355H136.063V353ZM137.063 360H139.063V361H137.063V360ZM139.063 359H140.063V360H139.063V359ZM150.07 355H153.07V356H150.07V355ZM153.07 356H154.07V360H153.07V356ZM149.07 356H150.07V360H149.07V356ZM150.07 360H153.07V361H150.07V360ZM156.074 355H157.074V356H158.074V357H157.074V361H156.074V355ZM160.074 355V356H158.074V355H160.074ZM160.074 356H161.074V357H160.074V356ZM171.082 355H174.082V356H171.082V355ZM174.082 356H175.082V360H174.082V356ZM170.082 356H171.082V360H170.082V356ZM171.082 360H174.082V361H171.082V360ZM177.086 355H178.086V356H179.086V357H178.086V361H177.086V355ZM179.086 355H181.086V356H179.086V355ZM181.086 356H182.086V361H181.086V356ZM185.09 355H187.09V356H185.09V355ZM184.09 356H185.09V360H184.09V356ZM185.09 360H187.09V361H185.09V360ZM185.09 362H188.09V363H185.09V362ZM187.09 359H188.09V357H187.09V356H188.09V355H189.09V362H188.09V360H187.09V359ZM192.094 355H195.094V356H192.094V355ZM195.094 356H196.094V360H195.094V356ZM191.094 356H192.094V360H191.094V356ZM192.094 360H195.094V361H192.094V360ZM200.098 353H201.098V354H200.098V353ZM200.098 356H198.098V355H201.098V360H203.098V361H198.098V360H200.098V356ZM205.102 355H206.102V356H207.102V357H206.102V361H205.102V355ZM207.102 355H209.102V356H207.102V355ZM209.102 356H210.102V361H209.102V356ZM213.105 355H215.105V356H213.105V355ZM212.105 356H213.105V360H212.105V356ZM213.105 360H215.105V361H213.105V360ZM213.105 362H216.105V363H213.105V362ZM215.105 359H216.105V357H215.105V356H216.105V355H217.105V362H216.105V360H215.105V359ZM227.113 355H229.113V356H227.113V355ZM226.113 356H227.113V360H226.113V356ZM227.113 360H229.113V361H227.113V360ZM227.113 362H230.113V363H227.113V362ZM229.113 359H230.113V357H229.113V356H230.113V355H231.113V362H230.113V360H229.113V359ZM234.117 355H237.117V356H234.117V355ZM233.117 356H234.117V357H237.117V356H238.117V358H234.117V360H233.117V356ZM234.117 360H237.117V361H234.117V360ZM237.117 359H238.117V360H237.117V359ZM241.121 355H244.121V356H241.121V355ZM244.121 356H245.121V360H244.121V356ZM240.121 356H241.121V360H240.121V356ZM241.121 360H244.121V361H241.121V360ZM249.125 354H247.125V353H250.125V360H252.125V361H247.125V360H249.125V354ZM255.129 355H258.129V356H255.129V355ZM258.129 356H259.129V360H258.129V356ZM254.129 356H255.129V360H254.129V356ZM255.129 360H258.129V361H255.129V360ZM262.133 355H264.133V356H262.133V355ZM261.133 356H262.133V360H261.133V356ZM262.133 360H264.133V361H262.133V360ZM262.133 362H265.133V363H262.133V362ZM264.133 359H265.133V357H264.133V356H265.133V355H266.133V362H265.133V360H264.133V359ZM270.137 353H271.137V354H270.137V353ZM270.137 356H268.137V355H271.137V360H273.137V361H268.137V360H270.137V356ZM276.141 355H279.141V356H276.141V355ZM275.141 356H276.141V360H275.141V356ZM276.141 360H279.141V361H276.141V360ZM279.141 356H280.141V357H279.141V356ZM279.141 359H280.141V360H279.141V359ZM282.145 358H283.145V360H282.145V358ZM283.145 360H285.145V361H283.145V360ZM285.145 359H286.145V358H283.145V357H286.145V356H287.145V361H286.145V360H285.145V359ZM283.145 355H286.145V356H283.145V355ZM291.148 354H289.148V353H292.148V360H294.148V361H289.148V360H291.148V354ZM303.156 358H304.156V360H303.156V358ZM304.156 360H306.156V361H304.156V360ZM306.156 359H307.156V358H304.156V357H307.156V356H308.156V361H307.156V360H306.156V359ZM304.156 355H307.156V356H304.156V355ZM311.16 355H314.16V356H311.16V355ZM310.16 356H311.16V360H310.16V356ZM311.16 360H314.16V361H311.16V360ZM314.16 356H315.16V357H314.16V356ZM314.16 359H315.16V360H314.16V359ZM318.164 353H319.164V355H321.164V356H319.164V360H318.164V356H317.164V355H318.164V353ZM319.164 360H321.164V361H319.164V360ZM321.164 359H322.164V360H321.164V359ZM326.168 353H327.168V354H326.168V353ZM326.168 356H324.168V355H327.168V360H329.168V361H324.168V360H326.168V356ZM331.172 355H332.172V358H331.172V355ZM335.172 355H336.172V358H335.172V355ZM333.172 360H332.172V358H333.172V360ZM333.172 360H334.172V361H333.172V360ZM334.172 358H335.172V360H334.172V358ZM340.176 353H341.176V354H340.176V353ZM340.176 356H338.176V355H341.176V360H343.176V361H338.176V360H340.176V356ZM346.18 353H347.18V355H349.18V356H347.18V360H346.18V356H345.18V355H346.18V353ZM347.18 360H349.18V361H347.18V360ZM349.18 359H350.18V360H349.18V359ZM352.184 355H353.184V358H352.184V355ZM356.184 355H357.184V358H356.184V355ZM354.184 360H355.184V362H354.184V360ZM354.184 362V363H352.184V362H354.184ZM355.184 358H356.184V360H355.184V358ZM353.184 358H354.184V360H353.184V358ZM361.188 359H362.188V361H361.188V359ZM23 387H27V388H24V394H27V395H23V387ZM27 388H28V394H27V388ZM30.0039 389H31.0039V390H32.0039V391H31.0039V395H30.0039V389ZM34.0039 389V390H32.0039V389H34.0039ZM34.0039 390H35.0039V391H34.0039V390ZM39.0078 393H40.0078V395H39.0078V393ZM51.0156 387H52.0156V390H55.0156V387H56.0156V395H55.0156V391H52.0156V395H51.0156V387ZM58.0195 389H59.0195V394H58.0195V389ZM59.0195 394H61.0195V395H59.0195V394ZM62.0195 389H63.0195V395H62.0195V394H61.0195V393H62.0195V389ZM65.0234 387H66.0234V390H67.0234V391H66.0234V393H67.0234V394H66.0234V395H65.0234V387ZM67.0234 394H69.0234V395H67.0234V394ZM69.0234 390H70.0234V394H69.0234V390ZM67.0234 389H69.0234V390H67.0234V389ZM73.0273 389H76.0273V390H73.0273V389ZM72.0273 390H73.0273V391H76.0273V390H77.0273V392H73.0273V394H72.0273V390ZM73.0273 394H76.0273V395H73.0273V394ZM76.0273 393H77.0273V394H76.0273V393ZM79.0313 389H80.0313V390H81.0313V391H80.0313V395H79.0313V389ZM83.0313 389V390H81.0313V389H83.0313ZM83.0313 390H84.0313V391H83.0313V390ZM87.0352 387H88.0352V389H90.0352V390H88.0352V394H87.0352V390H86.0352V389H87.0352V387ZM88.0352 394H90.0352V395H88.0352V394ZM90.0352 393H91.0352V394H90.0352V393ZM101.043 394H100.043V393H101.043V394ZM101.043 394H104.043V395H101.043V394ZM104.043 388H102.043V387H105.043V394H104.043V388ZM109.047 393H110.047V395H109.047V393ZM121.055 387H126.055V388H122.055V390H125.055V391H122.055V395H121.055V387ZM128.059 392H129.059V394H128.059V392ZM129.059 394H131.059V395H129.059V394ZM131.059 393H132.059V392H129.059V391H132.059V390H133.059V395H132.059V394H131.059V393ZM129.059 389H132.059V390H129.059V389ZM135.063 389H136.063V390H137.063V391H136.063V395H135.063V389ZM139.063 389V390H137.063V389H139.063ZM139.063 390H140.063V391H139.063V390ZM142.066 389H143.066V390H144.066V391H143.066V395H142.066V389ZM144.066 389H146.066V390H144.066V389ZM146.066 390H147.066V395H146.066V390ZM153.07 394V395H150.07V394H153.07ZM150.07 394H149.07V393H150.07V394ZM153.07 389V390H150.07V389H153.07ZM149.07 390H150.07V391H149.07V390ZM150.07 391H153.07V392H150.07V391ZM153.07 392H154.07V394H153.07V392ZM156.074 389H157.074V394H156.074V389ZM160.074 389H161.074V395H159.074V394H160.074V389ZM159.074 394H158.074V389H159.074V394ZM157.074 394H158.074V395H157.074V394ZM164.078 389H167.078V390H164.078V389ZM167.078 390H168.078V394H167.078V390ZM163.078 390H164.078V394H163.078V390ZM164.078 394H167.078V395H164.078V394ZM170.082 389H171.082V390H172.082V391H171.082V395H170.082V389ZM174.082 389V390H172.082V389H174.082ZM174.082 390H175.082V391H174.082V390ZM178.086 387H179.086V389H181.086V390H179.086V394H178.086V390H177.086V389H178.086V387ZM179.086 394H181.086V395H179.086V394ZM181.086 393H182.086V394H181.086V393ZM184.09 387H185.09V390H186.09V391H185.09V395H184.09V387ZM188.09 390H189.09V395H188.09V390ZM186.09 389H188.09V390H186.09V389ZM193.094 393H194.094V395H193.094V393ZM192.094 395H193.094V396H192.094V395ZM207.102 388H205.102V387H208.102V394H210.102V395H205.102V394H207.102V388ZM213.105 389H216.105V390H213.105V389ZM212.105 390H213.105V391H216.105V390H217.105V392H213.105V394H212.105V390ZM213.105 394H216.105V395H213.105V394ZM216.105 393H217.105V394H216.105V393ZM219.109 392H220.109V394H219.109V392ZM220.109 394H222.109V395H220.109V394ZM222.109 393H223.109V392H220.109V391H223.109V390H224.109V395H223.109V394H222.109V393ZM220.109 389H223.109V390H220.109V389ZM230.113 387H231.113V395H230.113V394H229.113V393H230.113V391H229.113V390H230.113V387ZM229.113 394V395H227.113V394H229.113ZM227.113 394H226.113V390H227.113V394ZM229.113 390H227.113V389H229.113V390ZM240.121 389H241.121V390H242.121V391H241.121V395H240.121V389ZM244.121 389V390H242.121V389H244.121ZM244.121 390H245.121V391H244.121V390ZM248.125 389H251.125V390H248.125V389ZM247.125 390H248.125V391H251.125V390H252.125V392H248.125V394H247.125V390ZM248.125 394H251.125V395H248.125V394ZM251.125 393H252.125V394H251.125V393ZM258.129 394V395H255.129V394H258.129ZM255.129 394H254.129V393H255.129V394ZM258.129 389V390H255.129V389H258.129ZM254.129 390H255.129V391H254.129V390ZM255.129 391H258.129V392H255.129V391ZM258.129 392H259.129V394H258.129V392ZM262.133 389H265.133V390H262.133V389ZM261.133 390H262.133V391H265.133V390H266.133V392H262.133V394H261.133V390ZM262.133 394H265.133V395H262.133V394ZM265.133 393H266.133V394H265.133V393ZM268.137 392H269.137V394H268.137V392ZM269.137 394H271.137V395H269.137V394ZM271.137 393H272.137V392H269.137V391H272.137V390H273.137V395H272.137V394H271.137V393ZM269.137 389H272.137V390H269.137V389ZM275.141 389H276.141V390H277.141V391H276.141V395H275.141V389ZM279.141 389V390H277.141V389H279.141ZM279.141 390H280.141V391H279.141V390ZM283.145 389H286.145V390H283.145V389ZM282.145 390H283.145V394H282.145V390ZM283.145 394H286.145V395H283.145V394ZM286.145 390H287.145V391H286.145V390ZM286.145 393H287.145V394H286.145V393ZM289.148 387H290.148V390H291.148V391H290.148V395H289.148V387ZM293.148 390H294.148V395H293.148V390ZM291.148 389H293.148V390H291.148V389ZM297.152 389H300.152V390H297.152V389ZM296.152 390H297.152V391H300.152V390H301.152V392H297.152V394H296.152V390ZM297.152 394H300.152V395H297.152V394ZM300.152 393H301.152V394H300.152V393ZM303.156 389H304.156V390H305.156V391H304.156V395H303.156V389ZM307.156 389V390H305.156V389H307.156ZM307.156 390H308.156V391H307.156V390ZM317.164 392H318.164V394H317.164V392ZM318.164 394H320.164V395H318.164V394ZM320.164 393H321.164V392H318.164V391H321.164V390H322.164V395H321.164V394H320.164V393ZM318.164 389H321.164V390H318.164V389ZM325.168 387H326.168V389H328.168V390H326.168V394H325.168V390H324.168V389H325.168V387ZM326.168 394H328.168V395H326.168V394ZM328.168 393H329.168V394H328.168V393ZM339.176 387H340.176V389H342.176V390H340.176V394H339.176V390H338.176V389H339.176V387ZM340.176 394H342.176V395H340.176V394ZM342.176 393H343.176V394H342.176V393ZM345.18 387H346.18V390H347.18V391H346.18V395H345.18V387ZM349.18 390H350.18V395H349.18V390ZM347.18 389H349.18V390H347.18V389ZM353.184 389H356.184V390H353.184V389ZM352.184 390H353.184V391H356.184V390H357.184V392H353.184V394H352.184V390ZM353.184 394H356.184V395H353.184V394ZM356.184 393H357.184V394H356.184V393ZM25 404H26V405H25V404ZM25 407H23V406H26V411H28V412H23V411H25V407ZM30.0039 406H31.0039V407H32.0039V408H31.0039V412H30.0039V406ZM32.0039 406H34.0039V407H32.0039V406ZM34.0039 407H35.0039V412H34.0039V407ZM41.0078 411V412H38.0078V411H41.0078ZM38.0078 411H37.0078V410H38.0078V411ZM41.0078 406V407H38.0078V406H41.0078ZM37.0078 407H38.0078V408H37.0078V407ZM38.0078 408H41.0078V409H38.0078V408ZM41.0078 409H42.0078V411H41.0078V409ZM45.0117 404H46.0117V406H48.0117V407H46.0117V411H45.0117V407H44.0117V406H45.0117V404ZM46.0117 411H48.0117V412H46.0117V411ZM48.0117 410H49.0117V411H48.0117V410ZM53.0156 404H54.0156V405H53.0156V404ZM53.0156 407H51.0156V406H54.0156V411H56.0156V412H51.0156V411H53.0156V407ZM59.0195 404H60.0195V406H62.0195V407H60.0195V411H59.0195V407H58.0195V406H59.0195V404ZM60.0195 411H62.0195V412H60.0195V411ZM62.0195 410H63.0195V411H62.0195V410ZM65.0234 406H66.0234V411H65.0234V406ZM66.0234 411H68.0234V412H66.0234V411ZM69.0234 406H70.0234V412H69.0234V411H68.0234V410H69.0234V406ZM73.0273 404H74.0273V406H76.0273V407H74.0273V411H73.0273V407H72.0273V406H73.0273V404ZM74.0273 411H76.0273V412H74.0273V411ZM76.0273 410H77.0273V411H76.0273V410ZM80.0313 406H83.0313V407H80.0313V406ZM79.0313 407H80.0313V408H83.0313V407H84.0313V409H80.0313V411H79.0313V407ZM80.0313 411H83.0313V412H80.0313V411ZM83.0313 410H84.0313V411H83.0313V410ZM88.0352 410H89.0352V412H88.0352V410ZM87.0352 412H88.0352V413H87.0352V412ZM104.043 411V412H101.043V411H104.043ZM101.043 411H100.043V410H101.043V411ZM104.043 406V407H101.043V406H104.043ZM100.043 407H101.043V408H100.043V407ZM101.043 408H104.043V409H101.043V408ZM104.043 409H105.043V411H104.043V409ZM108.047 404H109.047V406H111.047V407H109.047V411H108.047V407H107.047V406H108.047V404ZM109.047 411H111.047V412H109.047V411ZM111.047 410H112.047V411H111.047V410ZM114.051 409H115.051V411H114.051V409ZM115.051 411H117.051V412H115.051V411ZM117.051 410H118.051V409H115.051V408H118.051V407H119.051V412H118.051V411H117.051V410ZM115.051 406H118.051V407H115.051V406ZM122.055 404H123.055V406H125.055V407H123.055V411H122.055V407H121.055V406H122.055V404ZM123.055 411H125.055V412H123.055V411ZM125.055 410H126.055V411H125.055V410ZM129.059 406H132.059V407H129.059V406ZM128.059 407H129.059V408H132.059V407H133.059V409H129.059V411H128.059V407ZM129.059 411H132.059V412H129.059V411ZM132.059 410H133.059V411H132.059V410ZM139.063 404H140.063V412H139.063V411H138.063V410H139.063V408H138.063V407H139.063V404ZM138.063 411V412H136.063V411H138.063ZM136.063 411H135.063V407H136.063V411ZM138.063 407H136.063V406H138.063V407ZM144.066 410H145.066V412H144.066V410ZM143.066 412H144.066V413H143.066V412ZM157.074 404H158.074V407H157.074V404ZM159.074 404H160.074V407H159.074V404ZM163.078 404H164.078V409H163.078V404ZM164.078 409H165.078V412H164.078V409ZM167.078 404H168.078V409H167.078V404ZM166.078 409H167.078V412H166.078V409ZM165.078 407H166.078V409H165.078V407ZM171.082 406H174.082V407H171.082V406ZM170.082 407H171.082V408H174.082V407H175.082V409H171.082V411H170.082V407ZM171.082 411H174.082V412H171.082V411ZM174.082 410H175.082V411H174.082V410ZM184.09 406H185.09V411H184.09V406ZM188.09 406H189.09V412H187.09V411H188.09V406ZM187.09 411H186.09V406H187.09V411ZM185.09 411H186.09V412H185.09V411ZM192.094 406H195.094V407H192.094V406ZM191.094 407H192.094V408H195.094V407H196.094V409H192.094V411H191.094V407ZM192.094 411H195.094V412H192.094V411ZM195.094 410H196.094V411H195.094V410ZM198.098 406H199.098V407H200.098V408H199.098V412H198.098V406ZM202.098 406V407H200.098V406H202.098ZM202.098 407H203.098V408H202.098V407ZM206.102 406H209.102V407H206.102V406ZM205.102 407H206.102V408H209.102V407H210.102V409H206.102V411H205.102V407ZM206.102 411H209.102V412H206.102V411ZM209.102 410H210.102V411H209.102V410ZM219.109 409H220.109V411H219.109V409ZM220.109 411H222.109V412H220.109V411ZM222.109 410H223.109V409H220.109V408H223.109V407H224.109V412H223.109V411H222.109V410ZM220.109 406H223.109V407H220.109V406ZM230.113 411V412H227.113V411H230.113ZM227.113 411H226.113V410H227.113V411ZM230.113 406V407H227.113V406H230.113ZM226.113 407H227.113V408H226.113V407ZM227.113 408H230.113V409H227.113V408ZM230.113 409H231.113V411H230.113V409ZM234.117 404H235.117V406H237.117V407H235.117V411H234.117V407H233.117V406H234.117V404ZM235.117 411H237.117V412H235.117V411ZM237.117 410H238.117V411H237.117V410ZM241.121 406H244.121V407H241.121V406ZM244.121 407H245.121V411H244.121V407ZM240.121 407H241.121V411H240.121V407ZM241.121 411H244.121V412H241.121V411ZM247.125 406H248.125V411H247.125V406ZM248.125 411H250.125V412H248.125V411ZM251.125 406H252.125V412H251.125V411H250.125V410H251.125V406ZM254.129 406H255.129V407H256.129V408H255.129V412H254.129V406ZM256.129 406H258.129V407H256.129V406ZM258.129 407H259.129V412H258.129V407ZM265.133 404H266.133V412H265.133V411H264.133V410H265.133V408H264.133V407H265.133V404ZM264.133 411V412H262.133V411H264.133ZM262.133 411H261.133V407H262.133V411ZM264.133 407H262.133V406H264.133V407ZM269.137 406H272.137V407H269.137V406ZM268.137 407H269.137V408H272.137V407H273.137V409H269.137V411H268.137V407ZM269.137 411H272.137V412H269.137V411ZM272.137 410H273.137V411H272.137V410ZM279.141 404H280.141V412H279.141V411H278.141V410H279.141V408H278.141V407H279.141V404ZM278.141 411V412H276.141V411H278.141ZM276.141 411H275.141V407H276.141V411ZM278.141 407H276.141V406H278.141V407ZM289.148 404H290.148V407H291.148V408H290.148V410H291.148V411H290.148V412H289.148V404ZM291.148 411H293.148V412H291.148V411ZM293.148 407H294.148V411H293.148V407ZM291.148 406H293.148V407H291.148V406ZM296.152 406H297.152V409H296.152V406ZM300.152 406H301.152V409H300.152V406ZM298.152 411H299.152V413H298.152V411ZM298.152 413V414H296.152V413H298.152ZM299.152 409H300.152V411H299.152V409ZM297.152 409H298.152V411H297.152V409ZM311.16 404H312.16V406H314.16V407H312.16V411H311.16V407H310.16V406H311.16V404ZM312.16 411H314.16V412H312.16V411ZM314.16 410H315.16V411H314.16V410ZM317.164 404H318.164V407H319.164V408H318.164V412H317.164V404ZM321.164 407H322.164V412H321.164V407ZM319.164 406H321.164V407H319.164V406ZM325.168 406H328.168V407H325.168V406ZM324.168 407H325.168V408H328.168V407H329.168V409H325.168V411H324.168V407ZM325.168 411H328.168V412H325.168V411ZM328.168 410H329.168V411H328.168V410ZM339.176 404H340.176V406H342.176V407H340.176V411H339.176V407H338.176V406H339.176V404ZM340.176 411H342.176V412H340.176V411ZM342.176 410H343.176V411H342.176V410ZM345.18 404H346.18V407H347.18V408H346.18V412H345.18V404ZM349.18 407H350.18V412H349.18V407ZM347.18 406H349.18V407H347.18V406ZM353.184 406H356.184V407H353.184V406ZM352.184 407H353.184V408H356.184V407H357.184V409H353.184V411H352.184V407ZM353.184 411H356.184V412H353.184V411ZM356.184 410H357.184V411H356.184V410ZM359.188 406H360.188V407H361.188V408H360.188V412H359.188V406ZM363.188 406V407H361.188V406H363.188ZM363.188 407H364.188V408H363.188V407ZM366.191 406H368.191V407H367.191V412H366.191V406ZM368.191 407H369.191V412H368.191V407ZM370.191 407H369.191V406H370.191V407ZM370.191 407H371.191V412H370.191V407ZM373.195 409H374.195V411H373.195V409ZM374.195 411H376.195V412H374.195V411ZM376.195 410H377.195V409H374.195V408H377.195V407H378.195V412H377.195V411H376.195V410ZM374.195 406H377.195V407H374.195V406ZM382.199 405H380.199V404H383.199V411H385.199V412H380.199V411H382.199V405ZM27 428V429H24V428H27ZM24 428H23V427H24V428ZM27 423V424H24V423H27ZM23 424H24V425H23V424ZM24 425H27V426H24V425ZM27 426H28V428H27V426ZM32.0039 421H33.0039V422H32.0039V421ZM32.0039 424H30.0039V423H33.0039V428H35.0039V429H30.0039V428H32.0039V424ZM38.0078 423H40.0078V424H38.0078V423ZM37.0078 424H38.0078V428H37.0078V424ZM38.0078 428H40.0078V429H38.0078V428ZM38.0078 430H41.0078V431H38.0078V430ZM40.0078 427H41.0078V425H40.0078V424H41.0078V423H42.0078V430H41.0078V428H40.0078V427ZM44.0117 423H45.0117V424H46.0117V425H45.0117V429H44.0117V423ZM46.0117 423H48.0117V424H46.0117V423ZM48.0117 424H49.0117V429H48.0117V424ZM51.0156 426H52.0156V428H51.0156V426ZM52.0156 428H54.0156V429H52.0156V428ZM54.0156 427H55.0156V426H52.0156V425H55.0156V424H56.0156V429H55.0156V428H54.0156V427ZM52.0156 423H55.0156V424H52.0156V423ZM59.0195 421H60.0195V423H62.0195V424H60.0195V428H59.0195V424H58.0195V423H59.0195V421ZM60.0195 428H62.0195V429H60.0195V428ZM62.0195 427H63.0195V428H62.0195V427ZM65.0234 423H66.0234V428H65.0234V423ZM66.0234 428H68.0234V429H66.0234V428ZM69.0234 423H70.0234V429H69.0234V428H68.0234V427H69.0234V423ZM72.0273 423H73.0273V424H74.0273V425H73.0273V429H72.0273V423ZM76.0273 423V424H74.0273V423H76.0273ZM76.0273 424H77.0273V425H76.0273V424ZM80.0313 423H83.0313V424H80.0313V423ZM79.0313 424H80.0313V425H83.0313V424H84.0313V426H80.0313V428H79.0313V424ZM80.0313 428H83.0313V429H80.0313V428ZM83.0313 427H84.0313V428H83.0313V427ZM90.0352 428V429H87.0352V428H90.0352ZM87.0352 428H86.0352V427H87.0352V428ZM90.0352 423V424H87.0352V423H90.0352ZM86.0352 424H87.0352V425H86.0352V424ZM87.0352 425H90.0352V426H87.0352V425ZM90.0352 426H91.0352V428H90.0352V426ZM100.043 423H101.043V428H100.043V423ZM104.043 423H105.043V429H103.043V428H104.043V423ZM103.043 428H102.043V423H103.043V428ZM101.043 428H102.043V429H101.043V428ZM108.047 423H111.047V424H108.047V423ZM107.047 424H108.047V425H111.047V424H112.047V426H108.047V428H107.047V424ZM108.047 428H111.047V429H108.047V428ZM111.047 427H112.047V428H111.047V427ZM125.055 421H126.055V429H125.055V428H124.055V427H125.055V425H124.055V424H125.055V421ZM124.055 428V429H122.055V428H124.055ZM122.055 428H121.055V424H122.055V428ZM124.055 424H122.055V423H124.055V424ZM129.059 423H132.059V424H129.059V423ZM128.059 424H129.059V425H132.059V424H133.059V426H129.059V428H128.059V424ZM129.059 428H132.059V429H129.059V428ZM132.059 427H133.059V428H132.059V427ZM136.063 421H137.063V423H139.063V424H137.063V428H136.063V424H135.063V423H136.063V421ZM137.063 428H139.063V429H137.063V428ZM139.063 427H140.063V428H139.063V427ZM143.066 423H146.066V424H143.066V423ZM142.066 424H143.066V425H146.066V424H147.066V426H143.066V428H142.066V424ZM143.066 428H146.066V429H143.066V428ZM146.066 427H147.066V428H146.066V427ZM150.07 423H153.07V424H150.07V423ZM149.07 424H150.07V428H149.07V424ZM150.07 428H153.07V429H150.07V428ZM153.07 424H154.07V425H153.07V424ZM153.07 427H154.07V428H153.07V427ZM157.074 421H158.074V423H160.074V424H158.074V428H157.074V424H156.074V423H157.074V421ZM158.074 428H160.074V429H158.074V428ZM160.074 427H161.074V428H160.074V427ZM164.078 423H167.078V424H164.078V423ZM163.078 424H164.078V425H167.078V424H168.078V426H164.078V428H163.078V424ZM164.078 428H167.078V429H164.078V428ZM167.078 427H168.078V428H167.078V427ZM174.082 421H175.082V429H174.082V428H173.082V427H174.082V425H173.082V424H174.082V421ZM173.082 428V429H171.082V428H173.082ZM171.082 428H170.082V424H171.082V428ZM173.082 424H171.082V423H173.082V424ZM179.086 427H180.086V429H179.086V427ZM191.094 421H196.094V422H194.094V429H193.094V422H191.094V421ZM198.098 421H199.098V424H200.098V425H199.098V429H198.098V421ZM202.098 424H203.098V429H202.098V424ZM200.098 423H202.098V424H200.098V423ZM206.102 423H209.102V424H206.102V423ZM205.102 424H206.102V425H209.102V424H210.102V426H206.102V428H205.102V424ZM206.102 428H209.102V429H206.102V428ZM209.102 427H210.102V428H209.102V427ZM216.105 428V429H213.105V428H216.105ZM213.105 428H212.105V427H213.105V428ZM216.105 423V424H213.105V423H216.105ZM212.105 424H213.105V425H212.105V424ZM213.105 425H216.105V426H213.105V425ZM216.105 426H217.105V428H216.105V426ZM220.109 423H223.109V424H220.109V423ZM219.109 424H220.109V425H223.109V424H224.109V426H220.109V428H219.109V424ZM220.109 428H223.109V429H220.109V428ZM223.109 427H224.109V428H223.109V427ZM233.117 423H234.117V424H235.117V425H234.117V427H235.117V428H234.117V431H233.117V423ZM235.117 423H237.117V424H235.117V423ZM237.117 424H238.117V428H237.117V424ZM235.117 428H237.117V429H235.117V428ZM242.121 422H240.121V421H243.121V428H245.121V429H240.121V428H242.121V422ZM247.125 426H248.125V428H247.125V426ZM248.125 428H250.125V429H248.125V428ZM250.125 427H251.125V426H248.125V425H251.125V424H252.125V429H251.125V428H250.125V427ZM248.125 423H251.125V424H248.125V423ZM254.129 423H255.129V424H256.129V425H255.129V429H254.129V423ZM256.129 423H258.129V424H256.129V423ZM258.129 424H259.129V429H258.129V424ZM262.133 423H265.133V424H262.133V423ZM261.133 424H262.133V425H265.133V424H266.133V426H262.133V428H261.133V424ZM262.133 428H265.133V429H262.133V428ZM265.133 427H266.133V428H265.133V427ZM269.137 421H270.137V423H272.137V424H270.137V428H269.137V424H268.137V423H269.137V421ZM270.137 428H272.137V429H270.137V428ZM272.137 427H273.137V428H272.137V427ZM279.141 428V429H276.141V428H279.141ZM276.141 428H275.141V427H276.141V428ZM279.141 423V424H276.141V423H279.141ZM275.141 424H276.141V425H275.141V424ZM276.141 425H279.141V426H276.141V425ZM279.141 426H280.141V428H279.141V426ZM289.148 426H290.148V428H289.148V426ZM290.148 428H292.148V429H290.148V428ZM292.148 427H293.148V426H290.148V425H293.148V424H294.148V429H293.148V428H292.148V427ZM290.148 423H293.148V424H290.148V423ZM296.152 423H297.152V424H298.152V425H297.152V429H296.152V423ZM300.152 423V424H298.152V423H300.152ZM300.152 424H301.152V425H300.152V424ZM304.156 423H307.156V424H304.156V423ZM303.156 424H304.156V425H307.156V424H308.156V426H304.156V428H303.156V424ZM304.156 428H307.156V429H304.156V428ZM307.156 427H308.156V428H307.156V427ZM23 440H24V441H25V442H24V444H25V445H24V448H23V440ZM25 440H27V441H25V440ZM27 441H28V445H27V441ZM25 445H27V446H25V445ZM30.0039 440H31.0039V441H32.0039V442H31.0039V446H30.0039V440ZM34.0039 440V441H32.0039V440H34.0039ZM34.0039 441H35.0039V442H34.0039V441ZM37.0078 443H38.0078V445H37.0078V443ZM38.0078 445H40.0078V446H38.0078V445ZM40.0078 444H41.0078V443H38.0078V442H41.0078V441H42.0078V446H41.0078V445H40.0078V444ZM38.0078 440H41.0078V441H38.0078V440ZM45.0117 440H48.0117V441H45.0117V440ZM44.0117 441H45.0117V445H44.0117V441ZM45.0117 445H48.0117V446H45.0117V445ZM48.0117 441H49.0117V442H48.0117V441ZM48.0117 444H49.0117V445H48.0117V444ZM52.0156 438H53.0156V440H55.0156V441H53.0156V445H52.0156V441H51.0156V440H52.0156V438ZM53.0156 445H55.0156V446H53.0156V445ZM55.0156 444H56.0156V445H55.0156V444ZM60.0195 438H61.0195V439H60.0195V438ZM60.0195 441H58.0195V440H61.0195V445H63.0195V446H58.0195V445H60.0195V441ZM66.0234 440H69.0234V441H66.0234V440ZM65.0234 441H66.0234V445H65.0234V441ZM66.0234 445H69.0234V446H66.0234V445ZM69.0234 441H70.0234V442H69.0234V441ZM69.0234 444H70.0234V445H69.0234V444ZM72.0273 443H73.0273V445H72.0273V443ZM73.0273 445H75.0273V446H73.0273V445ZM75.0273 444H76.0273V443H73.0273V442H76.0273V441H77.0273V446H76.0273V445H75.0273V444ZM73.0273 440H76.0273V441H73.0273V440ZM81.0313 439H79.0313V438H82.0313V445H84.0313V446H79.0313V445H81.0313V439ZM88.0352 439H86.0352V438H89.0352V445H91.0352V446H86.0352V445H88.0352V439ZM93.0391 440H94.0391V443H93.0391V440ZM97.0391 440H98.0391V443H97.0391V440ZM95.0391 445H96.0391V447H95.0391V445ZM95.0391 447V448H93.0391V447H95.0391ZM96.0391 443H97.0391V445H96.0391V443ZM94.0391 443H95.0391V445H94.0391V443ZM108.047 440H110.047V441H108.047V440ZM107.047 441H108.047V445H107.047V441ZM108.047 445H110.047V446H108.047V445ZM108.047 447H111.047V448H108.047V447ZM110.047 444H111.047V442H110.047V441H111.047V440H112.047V447H111.047V445H110.047V444ZM116.051 439H114.051V438H117.051V445H119.051V446H114.051V445H116.051V439ZM122.055 440H125.055V441H122.055V440ZM125.055 441H126.055V445H125.055V441ZM121.055 441H122.055V445H121.055V441ZM122.055 445H125.055V446H122.055V445ZM128.059 440H129.059V445H128.059V440ZM132.059 440H133.059V446H131.059V445H132.059V440ZM131.059 445H130.059V440H131.059V445ZM129.059 445H130.059V446H129.059V445ZM137.063 438H138.063V439H137.063V438ZM137.063 441H135.063V440H138.063V445H140.063V446H135.063V445H137.063V441ZM142.066 440H143.066V441H144.066V442H143.066V446H142.066V440ZM144.066 440H146.066V441H144.066V440ZM146.066 441H147.066V446H146.066V441ZM150.07 440H152.07V441H150.07V440ZM149.07 441H150.07V445H149.07V441ZM150.07 445H152.07V446H150.07V445ZM150.07 447H153.07V448H150.07V447ZM152.07 444H153.07V442H152.07V441H153.07V440H154.07V447H153.07V445H152.07V444ZM163.078 440H164.078V445H163.078V440ZM167.078 440H168.078V446H166.078V445H167.078V440ZM166.078 445H165.078V440H166.078V445ZM164.078 445H165.078V446H164.078V445ZM172.082 438H173.082V439H172.082V438ZM172.082 441H170.082V440H173.082V445H175.082V446H170.082V445H172.082V441ZM178.086 438H179.086V440H181.086V441H179.086V445H178.086V441H177.086V440H178.086V438ZM179.086 445H181.086V446H179.086V445ZM181.086 444H182.086V445H181.086V444ZM184.09 438H185.09V441H186.09V442H185.09V446H184.09V438ZM188.09 441H189.09V446H188.09V441ZM186.09 440H188.09V441H186.09V440ZM199.098 440H201.098V441H199.098V440ZM198.098 441H199.098V445H198.098V441ZM199.098 445H201.098V446H199.098V445ZM199.098 447H202.098V448H199.098V447ZM201.098 444H202.098V442H201.098V441H202.098V440H203.098V447H202.098V445H201.098V444ZM206.102 440H209.102V441H206.102V440ZM205.102 441H206.102V442H209.102V441H210.102V443H206.102V445H205.102V441ZM206.102 445H209.102V446H206.102V445ZM209.102 444H210.102V445H209.102V444ZM213.105 440H216.105V441H213.105V440ZM216.105 441H217.105V445H216.105V441ZM212.105 441H213.105V445H212.105V441ZM213.105 445H216.105V446H213.105V445ZM220.109 438H221.109V440H223.109V441H221.109V445H220.109V441H219.109V440H220.109V438ZM221.109 445H223.109V446H221.109V445ZM223.109 444H224.109V445H223.109V444ZM226.113 438H227.113V441H228.113V442H227.113V446H226.113V438ZM230.113 441H231.113V446H230.113V441ZM228.113 440H230.113V441H228.113V440ZM234.117 440H237.117V441H234.117V440ZM233.117 441H234.117V442H237.117V441H238.117V443H234.117V445H233.117V441ZM234.117 445H237.117V446H234.117V445ZM237.117 444H238.117V445H237.117V444ZM240.121 440H241.121V441H242.121V442H241.121V446H240.121V440ZM244.121 440V441H242.121V440H244.121ZM244.121 441H245.121V442H244.121V441ZM247.125 440H249.125V441H248.125V446H247.125V440ZM249.125 441H250.125V446H249.125V441ZM251.125 441H250.125V440H251.125V441ZM251.125 441H252.125V446H251.125V441ZM254.129 443H255.129V445H254.129V443ZM255.129 445H257.129V446H255.129V445ZM257.129 444H258.129V443H255.129V442H258.129V441H259.129V446H258.129V445H257.129V444ZM255.129 440H258.129V441H255.129V440ZM263.133 439H261.133V438H264.133V445H266.133V446H261.133V445H263.133V439ZM276.141 440H279.141V441H276.141V440ZM275.141 441H276.141V442H279.141V441H280.141V443H276.141V445H275.141V441ZM276.141 445H279.141V446H276.141V445ZM279.141 444H280.141V445H279.141V444ZM282.145 440H283.145V441H284.145V442H283.145V446H282.145V440ZM284.145 440H286.145V441H284.145V440ZM286.145 441H287.145V446H286.145V441ZM290.148 440H293.148V441H290.148V440ZM289.148 441H290.148V442H293.148V441H294.148V443H290.148V445H289.148V441ZM290.148 445H293.148V446H290.148V445ZM293.148 444H294.148V445H293.148V444ZM296.152 440H297.152V441H298.152V442H297.152V446H296.152V440ZM300.152 440V441H298.152V440H300.152ZM300.152 441H301.152V442H300.152V441ZM304.156 440H306.156V441H304.156V440ZM303.156 441H304.156V445H303.156V441ZM304.156 445H306.156V446H304.156V445ZM304.156 447H307.156V448H304.156V447ZM306.156 444H307.156V442H306.156V441H307.156V440H308.156V447H307.156V445H306.156V444ZM310.16 440H311.16V443H310.16V440ZM314.16 440H315.16V443H314.16V440ZM312.16 445H313.16V447H312.16V445ZM312.16 447V448H310.16V447H312.16ZM313.16 443H314.16V445H313.16V443ZM311.16 443H312.16V445H311.16V443ZM319.164 444H320.164V446H319.164V444ZM318.164 446H319.164V447H318.164V446ZM332.172 441H331.172V440H332.172V439H333.172V440H335.172V441H333.172V446H332.172V441ZM333.172 438H336.172V439H333.172V438ZM338.176 443H339.176V445H338.176V443ZM339.176 445H341.176V446H339.176V445ZM341.176 444H342.176V443H339.176V442H342.176V441H343.176V446H342.176V445H341.176V444ZM339.176 440H342.176V441H339.176V440ZM345.18 440H346.18V441H347.18V442H346.18V446H345.18V440ZM349.18 440V441H347.18V440H349.18ZM349.18 441H350.18V442H349.18V441ZM27 462V463H24V462H27ZM24 462H23V461H24V462ZM27 457V458H24V457H27ZM23 458H24V459H23V458ZM24 459H27V460H24V459ZM27 460H28V462H27V460ZM30.0039 457H31.0039V462H30.0039V457ZM31.0039 462H33.0039V463H31.0039V462ZM34.0039 457H35.0039V463H34.0039V462H33.0039V461H34.0039V457ZM37.0078 457H38.0078V458H39.0078V459H38.0078V463H37.0078V457ZM41.0078 457V458H39.0078V457H41.0078ZM41.0078 458H42.0078V459H41.0078V458ZM44.0117 457H45.0117V458H46.0117V459H45.0117V461H46.0117V462H45.0117V465H44.0117V457ZM46.0117 457H48.0117V458H46.0117V457ZM48.0117 458H49.0117V462H48.0117V458ZM46.0117 462H48.0117V463H46.0117V462ZM51.0156 460H52.0156V462H51.0156V460ZM52.0156 462H54.0156V463H52.0156V462ZM54.0156 461H55.0156V460H52.0156V459H55.0156V458H56.0156V463H55.0156V462H54.0156V461ZM52.0156 457H55.0156V458H52.0156V457ZM62.0195 462V463H59.0195V462H62.0195ZM59.0195 462H58.0195V461H59.0195V462ZM62.0195 457V458H59.0195V457H62.0195ZM58.0195 458H59.0195V459H58.0195V458ZM59.0195 459H62.0195V460H59.0195V459ZM62.0195 460H63.0195V462H62.0195V460ZM69.0234 462V463H66.0234V462H69.0234ZM66.0234 462H65.0234V461H66.0234V462ZM69.0234 457V458H66.0234V457H69.0234ZM65.0234 458H66.0234V459H65.0234V458ZM66.0234 459H69.0234V460H66.0234V459ZM69.0234 460H70.0234V462H69.0234V460ZM74.0273 455H75.0273V456H74.0273V455ZM74.0273 458H72.0273V457H75.0273V462H77.0273V463H72.0273V462H74.0273V458ZM79.0313 457H80.0313V458H81.0313V459H80.0313V463H79.0313V457ZM81.0313 457H83.0313V458H81.0313V457ZM83.0313 458H84.0313V463H83.0313V458ZM87.0352 457H89.0352V458H87.0352V457ZM86.0352 458H87.0352V462H86.0352V458ZM87.0352 462H89.0352V463H87.0352V462ZM87.0352 464H90.0352V465H87.0352V464ZM89.0352 461H90.0352V459H89.0352V458H90.0352V457H91.0352V464H90.0352V462H89.0352V461ZM100.043 460H101.043V462H100.043V460ZM101.043 462H103.043V463H101.043V462ZM103.043 461H104.043V460H101.043V459H104.043V458H105.043V463H104.043V462H103.043V461ZM101.043 457H104.043V458H101.043V457ZM107.047 457H108.047V458H109.047V459H108.047V463H107.047V457ZM109.047 457H111.047V458H109.047V457ZM111.047 458H112.047V463H111.047V458ZM114.051 457H115.051V460H114.051V457ZM118.051 457H119.051V460H118.051V457ZM116.051 462H117.051V464H116.051V462ZM116.051 464V465H114.051V464H116.051ZM117.051 460H118.051V462H117.051V460ZM115.051 460H116.051V462H115.051V460ZM122.055 455H123.055V457H125.055V458H123.055V462H122.055V458H121.055V457H122.055V455ZM123.055 462H125.055V463H123.055V462ZM125.055 461H126.055V462H125.055V461ZM128.059 455H129.059V458H130.059V459H129.059V463H128.059V455ZM132.059 458H133.059V463H132.059V458ZM130.059 457H132.059V458H130.059V457ZM137.063 455H138.063V456H137.063V455ZM137.063 458H135.063V457H138.063V462H140.063V463H135.063V462H137.063V458ZM142.066 457H143.066V458H144.066V459H143.066V463H142.066V457ZM144.066 457H146.066V458H144.066V457ZM146.066 458H147.066V463H146.066V458ZM150.07 457H152.07V458H150.07V457ZM149.07 458H150.07V462H149.07V458ZM150.07 462H152.07V463H150.07V462ZM150.07 464H153.07V465H150.07V464ZM152.07 461H153.07V459H152.07V458H153.07V457H154.07V464H153.07V462H152.07V461ZM163.078 457H164.078V462H163.078V457ZM167.078 457H168.078V463H166.078V462H167.078V457ZM166.078 462H165.078V457H166.078V462ZM164.078 462H165.078V463H164.078V462ZM171.082 457H174.082V458H171.082V457ZM170.082 458H171.082V459H174.082V458H175.082V460H171.082V462H170.082V458ZM171.082 462H174.082V463H171.082V462ZM174.082 461H175.082V462H174.082V461ZM179.086 455H180.086V458H179.086V455ZM184.09 457H185.09V460H184.09V457ZM188.09 457H189.09V460H188.09V457ZM186.09 462H185.09V460H186.09V462ZM186.09 462H187.09V463H186.09V462ZM187.09 460H188.09V462H187.09V460ZM192.094 457H195.094V458H192.094V457ZM191.094 458H192.094V459H195.094V458H196.094V460H192.094V462H191.094V458ZM192.094 462H195.094V463H192.094V462ZM195.094 461H196.094V462H195.094V461ZM209.102 462V463H206.102V462H209.102ZM206.102 462H205.102V461H206.102V462ZM209.102 457V458H206.102V457H209.102ZM205.102 458H206.102V459H205.102V458ZM206.102 459H209.102V460H206.102V459ZM209.102 460H210.102V462H209.102V460ZM213.105 457H216.105V458H213.105V457ZM212.105 458H213.105V459H216.105V458H217.105V460H213.105V462H212.105V458ZM213.105 462H216.105V463H213.105V462ZM216.105 461H217.105V462H216.105V461ZM220.109 457H223.109V458H220.109V457ZM219.109 458H220.109V459H223.109V458H224.109V460H220.109V462H219.109V458ZM220.109 462H223.109V463H220.109V462ZM223.109 461H224.109V462H223.109V461ZM226.113 457H227.113V458H228.113V459H227.113V463H226.113V457ZM228.113 457H230.113V458H228.113V457ZM230.113 458H231.113V463H230.113V458ZM242.121 455H243.121V456H242.121V455ZM242.121 458H240.121V457H243.121V462H245.121V463H240.121V462H242.121V458ZM247.125 457H248.125V458H249.125V459H248.125V463H247.125V457ZM249.125 457H251.125V458H249.125V457ZM251.125 458H252.125V463H251.125V458ZM262.133 457H265.133V458H262.133V457ZM265.133 458H266.133V462H265.133V458ZM261.133 458H262.133V462H261.133V458ZM262.133 462H265.133V463H262.133V462ZM268.137 457H269.137V462H268.137V457ZM269.137 462H271.137V463H269.137V462ZM272.137 457H273.137V463H272.137V462H271.137V461H272.137V457ZM275.141 457H276.141V458H277.141V459H276.141V463H275.141V457ZM279.141 457V458H277.141V457H279.141ZM279.141 458H280.141V459H279.141V458ZM293.148 462V463H290.148V462H293.148ZM290.148 462H289.148V461H290.148V462ZM293.148 457V458H290.148V457H293.148ZM289.148 458H290.148V459H289.148V458ZM290.148 459H293.148V460H290.148V459ZM293.148 460H294.148V462H293.148V460ZM297.152 457H300.152V458H297.152V457ZM300.152 458H301.152V462H300.152V458ZM296.152 458H297.152V462H296.152V458ZM297.152 462H300.152V463H297.152V462ZM305.156 456H303.156V455H306.156V462H308.156V463H303.156V462H305.156V456ZM310.16 460H311.16V462H310.16V460ZM311.16 462H313.16V463H311.16V462ZM313.16 461H314.16V460H311.16V459H314.16V458H315.16V463H314.16V462H313.16V461ZM311.16 457H314.16V458H311.16V457ZM317.164 457H318.164V458H319.164V459H318.164V463H317.164V457ZM321.164 457V458H319.164V457H321.164ZM321.164 458H322.164V459H321.164V458ZM335.172 462V463H332.172V462H335.172ZM332.172 462H331.172V461H332.172V462ZM335.172 457V458H332.172V457H335.172ZM331.172 458H332.172V459H331.172V458ZM332.172 459H335.172V460H332.172V459ZM335.172 460H336.172V462H335.172V460ZM338.176 457H339.176V460H338.176V457ZM342.176 457H343.176V460H342.176V457ZM340.176 462H341.176V464H340.176V462ZM340.176 464V465H338.176V464H340.176ZM341.176 460H342.176V462H341.176V460ZM339.176 460H340.176V462H339.176V460ZM349.18 462V463H346.18V462H349.18ZM346.18 462H345.18V461H346.18V462ZM349.18 457V458H346.18V457H349.18ZM345.18 458H346.18V459H345.18V458ZM346.18 459H349.18V460H346.18V459ZM349.18 460H350.18V462H349.18V460ZM353.184 455H354.184V457H356.184V458H354.184V462H353.184V458H352.184V457H353.184V455ZM354.184 462H356.184V463H354.184V462ZM356.184 461H357.184V462H356.184V461ZM360.188 457H363.188V458H360.188V457ZM359.188 458H360.188V459H363.188V458H364.188V460H360.188V462H359.188V458ZM360.188 462H363.188V463H360.188V462ZM363.188 461H364.188V462H363.188V461ZM366.191 457H368.191V458H367.191V463H366.191V457ZM368.191 458H369.191V463H368.191V458ZM370.191 458H369.191V457H370.191V458ZM370.191 458H371.191V463H370.191V458ZM375.195 461H376.195V463H375.195V461ZM381.199 455H382.199V458H381.199V455ZM383.199 455H384.199V458H383.199V455Z" fill="#333333"/>
<path d="M22 275H387" stroke="black"/>
<path d="M246 59H251V64H256V69H251V74H246V59ZM246 49H256V54H261V49H266V54H271V59H276V64H281V69H276V74H281V84H276V79H271V84H266V89H271V84H276V89H281V104H276V99H271V94H266V99H261V94H256V89H261V84H256V79H251V74H256V69H261V64H266V59H261V64H256V59H251V54H246V49ZM271 49H276V54H271V49ZM276 54H281V59H276V54ZM271 69H266V74H261V79H266V74H271V69ZM246 79H251V84H256V89H251V94H246V79ZM246 99H251V94H256V99H261V104H266V99H271V104H276V109H271V114H266V119H271V114H276V119H281V129H276V124H271V129H276V134H271V139H266V134H261V129H266V124H261V119H256V114H261V109H256V104H251V109H256V114H251V119H246V99ZM276 109H281V114H276V109ZM251 119H256V124H261V129H256V134H251V139H246V124H251V119ZM256 134H261V139H256V134ZM276 134H281V139H276V134ZM281.02 59H286.02V64H291.02V69H286.02V74H281.02V59ZM281.02 49H291.02V54H296.02V49H301.02V54H306.02V59H311.02V64H316.02V69H311.02V74H316.02V84H311.02V79H306.02V84H301.02V89H306.02V84H311.02V89H316.02V104H311.02V99H306.02V94H301.02V99H296.02V94H291.02V89H296.02V84H291.02V79H286.02V74H291.02V69H296.02V64H301.02V59H296.02V64H291.02V59H286.02V54H281.02V49ZM306.02 49H311.02V54H306.02V49ZM311.02 54H316.02V59H311.02V54ZM306.02 69H301.02V74H296.02V79H301.02V74H306.02V69ZM281.02 79H286.02V84H291.02V89H286.02V94H281.02V79ZM281.02 99H286.02V94H291.02V99H296.02V104H301.02V99H306.02V104H311.02V109H306.02V114H301.02V119H306.02V114H311.02V119H316.02V129H311.02V124H306.02V129H311.02V134H306.02V139H301.02V134H296.02V129H301.02V124H296.02V119H291.02V114H296.02V109H291.02V104H286.02V109H291.02V114H286.02V119H281.02V99ZM311.02 109H316.02V114H311.02V109ZM286.02 119H291.02V124H296.02V129H291.02V134H286.02V139H281.02V124H286.02V119ZM291.02 134H296.02V139H291.02V134ZM311.02 134H316.02V139H311.02V134ZM316.039 54H321.039V59H316.039V54ZM321.039 49H326.039V54H321.039V49ZM321.039 59H326.039V64H321.039V59ZM316.039 64H321.039V69H316.039V64ZM326.039 64H331.039V69H326.039V64ZM331.039 54H336.039V59H331.039V54ZM341.039 59H346.039V64H341.039V59ZM336.039 64H341.039V69H336.039V64ZM336.039 49H341.039V54H336.039V49ZM346.039 49H351.039V54H346.039V49ZM331.039 69H336.039V74H331.039V69ZM346.039 69H351.039V74H346.039V69ZM336.039 74H341.039V79H336.039V74ZM321.039 74H326.039V79H321.039V74ZM331.039 89H326.039V84H331.039V89ZM331.039 89H336.039V94H331.039V89ZM346.039 79H351.039V84H346.039V79ZM336.039 84H331.039V79H336.039V84ZM336.039 84H341.039V89H336.039V84ZM316.039 84H321.039V89H316.039V84ZM326.039 94H331.039V99H326.039V94ZM341.039 89H346.039V94H341.039V89ZM316.039 94H321.039V99H316.039V94ZM321.039 104H326.039V109H321.039V104ZM331.039 104H336.039V109H331.039V104ZM336.039 99H341.039V104H336.039V99ZM346.039 99H351.039V104H346.039V99ZM341.039 109H346.039V114H341.039V109ZM316.039 109H321.039V114H316.039V109ZM321.039 114H326.039V119H321.039V114ZM331.039 114H336.039V119H331.039V114ZM326.039 119H331.039V124H326.039V119ZM336.039 119H341.039V124H336.039V119ZM331.039 124H336.039V129H331.039V124ZM316.039 119H321.039V124H316.039V119ZM346.039 124H351.039V129H346.039V124ZM341.039 129H346.039V134H341.039V129ZM326.039 129H331.039V134H326.039V129ZM331.039 134H336.039V139H331.039V134ZM316.039 134H321.039V139H316.039V134ZM346.039 114H351.039V119H346.039V114ZM351.059 59H356.059V64H361.059V69H356.059V74H351.059V59ZM351.059 49H361.059V54H366.059V49H371.059V54H376.059V59H381.059V64H386.059V69H381.059V74H386.059V84H381.059V79H376.059V84H371.059V89H376.059V84H381.059V89H386.059V104H381.059V99H376.059V94H371.059V99H366.059V94H361.059V89H366.059V84H361.059V79H356.059V74H361.059V69H366.059V64H371.059V59H366.059V64H361.059V59H356.059V54H351.059V49ZM376.059 49H381.059V54H376.059V49ZM381.059 54H386.059V59H381.059V54ZM376.059 69H371.059V74H366.059V79H371.059V74H376.059V69ZM351.059 79H356.059V84H361.059V89H356.059V94H351.059V79ZM351.059 99H356.059V94H361.059V99H366.059V104H371.059V99H376.059V104H381.059V109H376.059V114H371.059V119H376.059V114H381.059V119H386.059V129H381.059V124H376.059V129H381.059V134H376.059V139H371.059V134H366.059V129H371.059V124H366.059V119H361.059V114H366.059V109H361.059V104H356.059V109H361.059V114H356.059V119H351.059V99ZM381.059 109H386.059V114H381.059V109ZM356.059 119H361.059V124H366.059V129H361.059V134H356.059V139H351.059V124H356.059V119ZM361.059 134H366.059V139H361.059V134ZM381.059 134H386.059V139H381.059V134ZM246 144H251V149H246V144ZM251 139H256V144H251V139ZM251 149H256V154H251V149ZM246 154H251V159H246V154ZM256 154H261V159H256V154ZM261 144H266V149H261V144ZM271 149H276V154H271V149ZM266 154H271V159H266V154ZM266 139H271V144H266V139ZM276 139H281V144H276V139ZM261 159H266V164H261V159ZM276 159H281V164H276V159ZM266 164H271V169H266V164ZM251 164H256V169H251V164ZM261 179H256V174H261V179ZM261 179H266V184H261V179ZM276 169H281V174H276V169ZM266 174H261V169H266V174ZM266 174H271V179H266V174ZM246 174H251V179H246V174ZM256 184H261V189H256V184ZM271 179H276V184H271V179ZM246 184H251V189H246V184ZM251 194H256V199H251V194ZM261 194H266V199H261V194ZM266 189H271V194H266V189ZM276 189H281V194H276V189ZM271 199H276V204H271V199ZM246 199H251V204H246V199ZM251 204H256V209H251V204ZM261 204H266V209H261V204ZM256 209H261V214H256V209ZM266 209H271V214H266V209ZM261 214H266V219H261V214ZM246 209H251V214H246V209ZM276 214H281V219H276V214ZM271 219H276V224H271V219ZM256 219H261V224H256V219ZM261 224H266V229H261V224ZM246 224H251V229H246V224ZM276 204H281V209H276V204ZM281.02 149H286.02V154H291.02V159H286.02V164H281.02V149ZM281.02 139H291.02V144H296.02V139H301.02V144H306.02V149H311.02V154H316.02V159H311.02V164H316.02V174H311.02V169H306.02V174H301.02V179H306.02V174H311.02V179H316.02V194H311.02V189H306.02V184H301.02V189H296.02V184H291.02V179H296.02V174H291.02V169H286.02V164H291.02V159H296.02V154H301.02V149H296.02V154H291.02V149H286.02V144H281.02V139ZM306.02 139H311.02V144H306.02V139ZM311.02 144H316.02V149H311.02V144ZM306.02 159H301.02V164H296.02V169H301.02V164H306.02V159ZM281.02 169H286.02V174H291.02V179H286.02V184H281.02V169ZM281.02 189H286.02V184H291.02V189H296.02V194H301.02V189H306.02V194H311.02V199H306.02V204H301.02V209H306.02V204H311.02V209H316.02V219H311.02V214H306.02V219H311.02V224H306.02V229H301.02V224H296.02V219H301.02V214H296.02V209H291.02V204H296.02V199H291.02V194H286.02V199H291.02V204H286.02V209H281.02V189ZM311.02 199H316.02V204H311.02V199ZM286.02 209H291.02V214H296.02V219H291.02V224H286.02V229H281.02V214H286.02V209ZM291.02 224H296.02V229H291.02V224ZM311.02 224H316.02V229H311.02V224ZM326.039 179H331.039V174H326.039V179ZM326.039 159V154H321.039V159H326.039ZM336.039 164H331.039V169H336.039V164ZM346.039 164H351.039V214H346.039V219H351.039V229H341.039V224H336.039V229H321.039V224H316.039V189H321.039V184H316.039V139H326.039V144H331.039V139H351.039V144H346.039V149H351.039V159H346.039V164ZM331.039 194H326.039V199H331.039V194ZM341.039 179H346.039V174H341.039V179ZM346.039 189H341.039V194H346.039V189ZM341.039 204H336.039V209H341.039V204ZM326.039 209H321.039V214H326.039V209ZM351.059 144H356.059V149H351.059V144ZM356.059 139H361.059V144H356.059V139ZM356.059 149H361.059V154H356.059V149ZM351.059 154H356.059V159H351.059V154ZM361.059 154H366.059V159H361.059V154ZM366.059 144H371.059V149H366.059V144ZM376.059 149H381.059V154H376.059V149ZM371.059 154H376.059V159H371.059V154ZM371.059 139H376.059V144H371.059V139ZM381.059 139H386.059V144H381.059V139ZM366.059 159H371.059V164H366.059V159ZM381.059 159H386.059V164H381.059V159ZM371.059 164H376.059V169H371.059V164ZM356.059 164H361.059V169H356.059V164ZM366.059 179H361.059V174H366.059V179ZM366.059 179H371.059V184H366.059V179ZM381.059 169H386.059V174H381.059V169ZM371.059 174H366.059V169H371.059V174ZM371.059 174H376.059V179H371.059V174ZM351.059 174H356.059V179H351.059V174ZM361.059 184H366.059V189H361.059V184ZM376.059 179H381.059V184H376.059V179ZM351.059 184H356.059V189H351.059V184ZM356.059 194H361.059V199H356.059V194ZM366.059 194H371.059V199H366.059V194ZM371.059 189H376.059V194H371.059V189ZM381.059 189H386.059V194H381.059V189ZM376.059 199H381.059V204H376.059V199ZM351.059 199H356.059V204H351.059V199ZM356.059 204H361.059V209H356.059V204ZM366.059 204H371.059V209H366.059V204ZM361.059 209H366.059V214H361.059V209ZM371.059 209H376.059V214H371.059V209ZM366.059 214H371.059V219H366.059V214ZM351.059 209H356.059V214H351.059V209ZM381.059 214H386.059V219H381.059V214ZM376.059 219H381.059V224H376.059V219ZM361.059 219H366.059V224H361.059V219ZM366.059 224H371.059V229H366.059V224ZM351.059 224H356.059V229H351.059V224ZM381.059 204H386.059V209H381.059V204Z" fill="#333333"/>
<path d="M25 49H40V52H28V58H37V61H28V70H40V73H25V49ZM49.0117 70H46.0117V64H49.0117V70ZM49.0117 70H52.0117V73H49.0117V70ZM43.0117 49H46.0117V64H43.0117V49ZM55.0117 49H58.0117V64H55.0117V49ZM52.0117 64H55.0117V70H52.0117V64ZM67.0234 70V52H61.0234V49H76.0234V52H70.0234V70H76.0234V73H61.0234V70H67.0234ZM79.0352 49H91.0352V52H82.0352V70H91.0352V73H79.0352V49ZM91.0352 52H94.0352V70H91.0352V52ZM97.0469 49H112.047V52H100.047V58H109.047V61H100.047V70H112.047V73H97.0469V49ZM115.059 49H118.059V55H121.059V58H118.059V73H115.059V49ZM127.059 64H124.059V61H127.059V49H130.059V73H127.059V64ZM124.059 61H121.059V58H124.059V61ZM133.07 52H136.07V70H133.07V52ZM136.07 70H145.07V73H136.07V70ZM145.07 67H148.07V70H145.07V67ZM136.07 49H145.07V52H136.07V49ZM145.07 52H148.07V55H145.07V52ZM151.082 49H166.082V52H154.082V58H163.082V61H154.082V70H166.082V73H151.082V49ZM187.105 52H190.105V70H187.105V52ZM190.105 70H199.105V73H190.105V70ZM199.105 52H202.105V70H199.105V52ZM190.105 49H199.105V52H190.105V49ZM205.117 49H220.117V52H208.117V58H217.117V61H208.117V73H205.117V49ZM25 85H28V103H25V85ZM28 103H37V106H28V103ZM37 97H34V94H40V103H37V97ZM28 82H37V85H28V82ZM37 85H40V88H37V85ZM43.0117 82H58.0117V85H46.0117V91H55.0117V94H46.0117V103H58.0117V106H43.0117V82ZM61.0234 85H64.0234V103H61.0234V85ZM64.0234 103H73.0234V106H64.0234V103ZM73.0234 85H76.0234V103H73.0234V85ZM64.0234 82H73.0234V85H64.0234V82ZM79.0352 82H94.0352V85H88.0352V106H85.0352V85H79.0352V82ZM97.0469 82H100.047V91H109.047V82H112.047V106H109.047V94H100.047V106H97.0469V82ZM115.059 82H130.059V85H118.059V91H127.059V94H118.059V103H130.059V106H115.059V82ZM133.07 82H145.07V85H136.07V94H145.07V100H142.07V97H136.07V106H133.07V82ZM145.07 85H148.07V94H145.07V85ZM145.07 100H148.07V106H145.07V100ZM151.082 82H154.082V88H157.082V91H154.082V106H151.082V82ZM163.082 91H160.082V88H163.082V82H166.082V106H163.082V91ZM157.082 91H160.082V97H157.082V91ZM169.094 88H172.094V94H181.094V88H184.094V106H181.094V97H172.094V106H169.094V88ZM175.094 82H178.094V85H175.094V82ZM172.094 85H175.094V88H172.094V85ZM178.094 85H181.094V88H178.094V85ZM187.105 82H190.105V103H202.105V106H187.105V82ZM25 121H28V127H37V121H40V139H37V130H28V139H25V121ZM31 115H34V118H31V115ZM28 118H31V121H28V118ZM34 118H37V121H34V118ZM43.0117 118H46.0117V136H43.0117V118ZM46.0117 136H55.0117V139H46.0117V136ZM55.0117 133H58.0117V136H55.0117V133ZM46.0117 115H55.0117V118H46.0117V115ZM55.0117 118H58.0117V121H55.0117V118ZM61.0234 115H76.0234V118H70.0234V139H67.0234V118H61.0234V115ZM85.0352 136V118H79.0352V115H94.0352V118H88.0352V136H94.0352V139H79.0352V136H85.0352ZM103.047 136H100.047V130H103.047V136ZM103.047 136H106.047V139H103.047V136ZM97.0469 115H100.047V130H97.0469V115ZM109.047 115H112.047V130H109.047V115ZM106.047 130H109.047V136H106.047V130ZM121.059 136V118H115.059V115H130.059V118H124.059V136H130.059V139H115.059V136H121.059ZM133.07 115H148.07V118H142.07V139H139.07V118H133.07V115ZM151.082 115H154.082V124H151.082V115ZM163.082 115H166.082V124H163.082V115ZM157.082 127H160.082V139H157.082V127ZM154.082 124H157.082V127H154.082V124ZM160.082 124H163.082V127H160.082V124ZM25 151H28V169H25V151ZM28 169H37V172H28V169ZM37 151H40V169H37V151ZM28 148H37V151H28V148ZM43.0117 148H46.0117V154H49.0117V157H46.0117V172H43.0117V148ZM55.0117 163H52.0117V160H55.0117V148H58.0117V172H55.0117V163ZM52.0117 160H49.0117V157H52.0117V160ZM79.0352 148H82.0352V154H85.0352V157H82.0352V172H79.0352V148ZM91.0352 163H88.0352V160H91.0352V148H94.0352V172H91.0352V163ZM88.0352 160H85.0352V157H88.0352V160ZM97.0469 148H112.047V151H100.047V157H109.047V160H100.047V169H112.047V172H97.0469V148ZM115.059 148H118.059V163H115.059V148ZM118.059 163H121.059V172H118.059V163ZM127.059 148H130.059V163H127.059V148ZM124.059 163H127.059V172H124.059V163ZM121.059 157H124.059V163H121.059V157ZM133.07 148H136.07V169H148.07V172H133.07V148ZM151.082 148H154.082V157H151.082V148ZM163.082 148H166.082V157H163.082V148ZM157.082 160H160.082V172H157.082V160ZM154.082 157H157.082V160H154.082V157ZM160.082 157H163.082V160H160.082V157ZM25 181H37V184H28V202H37V205H25V181ZM37 184H40V202H37V184ZM49.0117 202V184H43.0117V181H58.0117V184H52.0117V202H58.0117V205H43.0117V202H49.0117ZM61.0234 184H64.0234V190H61.0234V184ZM64.0234 190H73.0234V193H64.0234V190ZM73.0234 202V205H64.0234V202H73.0234ZM64.0234 202H61.0234V199H64.0234V202ZM73.0234 193H76.0234V202H73.0234V193ZM64.0234 181H73.0234V184H64.0234V181ZM73.0234 184H76.0234V187H73.0234V184ZM79.0352 184H82.0352V202H79.0352V184ZM82.0352 202H91.0352V205H82.0352V202ZM91.0352 199H94.0352V202H91.0352V199ZM82.0352 181H91.0352V184H82.0352V181ZM91.0352 184H94.0352V187H91.0352V184ZM97.0469 184H100.047V202H97.0469V184ZM100.047 202H109.047V205H100.047V202ZM109.047 184H112.047V202H109.047V184ZM100.047 181H109.047V184H100.047V181ZM121.059 202H118.059V196H121.059V202ZM121.059 202H124.059V205H121.059V202ZM115.059 181H118.059V196H115.059V181ZM127.059 181H130.059V196H127.059V181ZM124.059 196H127.059V202H124.059V196ZM133.07 181H148.07V184H136.07V190H145.07V193H136.07V202H148.07V205H133.07V181ZM151.082 181H163.082V184H154.082V193H163.082V199H160.082V196H154.082V205H151.082V181ZM163.082 184H166.082V193H163.082V184ZM163.082 199H166.082V205H163.082V199ZM169.094 181H184.094V184H172.094V190H181.094V193H172.094V202H184.094V205H169.094V181ZM187.105 181H199.105V184H190.105V202H199.105V205H187.105V181ZM199.105 184H202.105V202H199.105V184ZM25 214H28V223H31V220H34V226H28V238H25V214ZM37 214H40V217H37V214ZM34 217H37V220H34V217ZM37 232H34V226H37V232ZM37 232H40V238H37V232ZM43.0117 214H55.0117V217H46.0117V223H55.0117V226H46.0117V235H55.0117V238H43.0117V214ZM55.0117 226H58.0117V235H55.0117V226ZM55.0117 217H58.0117V223H55.0117V217ZM61.0234 217H64.0234V235H61.0234V217ZM64.0234 235H73.0234V238H64.0234V235ZM73.0234 217H76.0234V235H73.0234V217ZM64.0234 214H73.0234V217H64.0234V214ZM79.0352 217H82.0352V223H79.0352V217ZM82.0352 223H91.0352V226H82.0352V223ZM91.0352 235V238H82.0352V235H91.0352ZM82.0352 235H79.0352V232H82.0352V235ZM91.0352 226H94.0352V235H91.0352V226ZM82.0352 214H91.0352V217H82.0352V214ZM91.0352 217H94.0352V220H91.0352V217Z" fill="#333333"/>
</g>
</svg>
