<svg width="673" height="421" viewBox="0 0 673 421" fill="none" xmlns="http://www.w3.org/2000/svg">
<path d="M4 18.25H8V26.25H4V18.25ZM8 26.25H20V30.25H8V26.25ZM20 42.25V46.25H8V42.25H20ZM8 42.25H4V38.25H8V42.25ZM20 30.25H24V42.25H20V30.25ZM8 14.25H20V18.25H8V14.25ZM20 18.25H24V22.25H20V18.25ZM32.0156 14.25H52.0156V18.25H36.0156V26.25H48.0156V30.25H36.0156V42.25H52.0156V46.25H32.0156V14.25ZM60.0313 14.25H64.0313V42.25H80.0313V46.25H60.0313V14.25ZM88.0469 14.25H108.047V18.25H92.0469V26.25H104.047V30.25H92.0469V42.25H108.047V46.25H88.0469V14.25ZM116.063 18.25H120.063V42.25H116.063V18.25ZM120.063 42.25H132.063V46.25H120.063V42.25ZM132.063 38.25H136.063V42.25H132.063V38.25ZM120.063 14.25H132.063V18.25H120.063V14.25ZM132.063 18.25H136.063V22.25H132.063V18.25ZM144.078 14.25H164.078V18.25H156.078V46.25H152.078V18.25H144.078V14.25ZM4 314.25H24V318.25H8V326.25H20V330.25H8V346.25H4V314.25ZM32.0156 314.25H48.0156V318.25H36.0156V330.25H48.0156V338.25H44.0156V334.25H36.0156V346.25H32.0156V314.25ZM48.0156 318.25H52.0156V330.25H48.0156V318.25ZM48.0156 338.25H52.0156V346.25H48.0156V338.25ZM60.0313 318.25H64.0313V342.25H60.0313V318.25ZM64.0313 342.25H76.0313V346.25H64.0313V342.25ZM76.0313 318.25H80.0313V342.25H76.0313V318.25ZM64.0313 314.25H76.0313V318.25H64.0313V314.25ZM88.0469 314.25H92.0469V322.25H96.0469V326.25H92.0469V346.25H88.0469V314.25ZM104.047 326.25H100.047V322.25H104.047V314.25H108.047V346.25H104.047V326.25ZM96.0469 326.25H100.047V334.25H96.0469V326.25Z" fill="#FFA133"/>
<path d="M116.063 82.25H124.063V86.25H120.063V106.25H116.063V82.25ZM124.063 86.25H128.063V106.25H124.063V86.25ZM132.063 86.25H128.063V82.25H132.063V86.25ZM132.063 86.25H136.063V106.25H132.063V86.25ZM152.078 74.25H156.078V78.25H152.078V74.25ZM152.078 86.25H144.078V82.25H156.078V102.25H164.078V106.25H144.078V102.25H152.078V86.25ZM188.094 102.25V106.25H176.094V102.25H188.094ZM176.094 102.25H172.094V98.25H176.094V102.25ZM188.094 82.25V86.25H176.094V82.25H188.094ZM172.094 86.25H176.094V90.25H172.094V86.25ZM176.094 90.25H188.094V94.25H176.094V90.25ZM188.094 94.25H192.094V102.25H188.094V94.25ZM188.094 86.25H192.094V90.25H188.094V86.25ZM216.109 102.25V106.25H204.109V102.25H216.109ZM204.109 102.25H200.109V98.25H204.109V102.25ZM216.109 82.25V86.25H204.109V82.25H216.109ZM200.109 86.25H204.109V90.25H200.109V86.25ZM204.109 90.25H216.109V94.25H204.109V90.25ZM216.109 94.25H220.109V102.25H216.109V94.25ZM216.109 86.25H220.109V90.25H216.109V86.25ZM236.125 74.25H240.125V78.25H236.125V74.25ZM236.125 86.25H228.125V82.25H240.125V102.25H248.125V106.25H228.125V102.25H236.125V86.25ZM260.141 82.25H272.141V86.25H260.141V82.25ZM272.141 86.25H276.141V102.25H272.141V86.25ZM256.141 86.25H260.141V102.25H256.141V86.25ZM260.141 102.25H272.141V106.25H260.141V102.25ZM284.156 82.25H288.156V86.25H292.156V90.25H288.156V106.25H284.156V82.25ZM292.156 82.25H300.156V86.25H292.156V82.25ZM300.156 86.25H304.156V106.25H300.156V86.25ZM312.172 102.25H332.172V106.25H312.172V102.25ZM340.188 82.25H344.188V86.25H348.188V90.25H344.188V106.25H340.188V82.25ZM348.188 82.25H356.188V86.25H348.188V82.25ZM356.188 86.25H360.188V106.25H356.188V86.25ZM368.203 94.25H372.203V102.25H368.203V94.25ZM372.203 102.25H380.203V106.25H372.203V102.25ZM380.203 98.25H384.203V94.25H372.203V90.25H384.203V86.25H388.203V106.25H384.203V102.25H380.203V98.25ZM372.203 82.25H384.203V86.25H372.203V82.25ZM396.219 82.25H404.219V86.25H400.219V106.25H396.219V82.25ZM404.219 86.25H408.219V106.25H404.219V86.25ZM412.219 86.25H408.219V82.25H412.219V86.25ZM412.219 86.25H416.219V106.25H412.219V86.25ZM428.234 82.25H440.234V86.25H428.234V82.25ZM424.234 86.25H428.234V90.25H440.234V86.25H444.234V94.25H428.234V102.25H424.234V86.25ZM428.234 102.25H440.234V106.25H428.234V102.25ZM440.234 98.25H444.234V102.25H440.234V98.25ZM460.25 98.25H464.25V106.25H460.25V98.25ZM456.25 106.25H460.25V110.25H456.25V106.25ZM124.063 138.25H116.063V134.25H128.063V162.25H136.063V166.25H116.063V162.25H124.063V138.25ZM144.078 154.25H148.078V162.25H144.078V154.25ZM148.078 162.25H156.078V166.25H148.078V162.25ZM156.078 158.25H160.078V154.25H148.078V150.25H160.078V146.25H164.078V166.25H160.078V162.25H156.078V158.25ZM148.078 142.25H160.078V146.25H148.078V142.25ZM172.094 142.25H176.094V162.25H172.094V142.25ZM176.094 162.25H184.094V166.25H176.094V162.25ZM188.094 142.25H192.094V166.25H188.094V162.25H184.094V158.25H188.094V142.25ZM200.109 142.25H204.109V146.25H208.109V150.25H204.109V166.25H200.109V142.25ZM208.109 142.25H216.109V146.25H208.109V142.25ZM216.109 146.25H220.109V166.25H216.109V146.25ZM232.125 142.25H244.125V146.25H232.125V142.25ZM228.125 146.25H232.125V162.25H228.125V146.25ZM232.125 162.25H244.125V166.25H232.125V162.25ZM244.125 146.25H248.125V150.25H244.125V146.25ZM244.125 158.25H248.125V162.25H244.125V158.25ZM256.141 134.25H260.141V146.25H264.141V150.25H260.141V166.25H256.141V134.25ZM272.141 146.25H276.141V166.25H272.141V146.25ZM264.141 142.25H272.141V146.25H264.141V142.25ZM284.156 162.25H304.156V166.25H284.156V162.25ZM328.172 134.25H332.172V166.25H328.172V162.25H324.172V158.25H328.172V150.25H324.172V146.25H328.172V134.25ZM324.172 162.25V166.25H316.172V162.25H324.172ZM316.172 162.25H312.172V146.25H316.172V162.25ZM324.172 146.25H316.172V142.25H324.172V146.25ZM340.188 154.25H344.188V162.25H340.188V154.25ZM344.188 162.25H352.188V166.25H344.188V162.25ZM352.188 158.25H356.188V154.25H344.188V150.25H356.188V146.25H360.188V166.25H356.188V162.25H352.188V158.25ZM344.188 142.25H356.188V146.25H344.188V142.25ZM372.203 134.25H376.203V142.25H388.203V146.25H376.203V162.25H372.203V146.25H368.203V142.25H372.203V134.25ZM376.203 162.25H384.203V166.25H376.203V162.25ZM384.203 158.25H388.203V162.25H384.203V158.25ZM400.219 142.25H412.219V146.25H400.219V142.25ZM396.219 146.25H400.219V150.25H412.219V146.25H416.219V154.25H400.219V162.25H396.219V146.25ZM400.219 162.25H412.219V166.25H400.219V162.25ZM412.219 158.25H416.219V162.25H412.219V158.25ZM432.234 158.25H436.234V166.25H432.234V158.25ZM428.234 166.25H432.234V170.25H428.234V166.25ZM132.063 222.25V226.25H120.063V222.25H132.063ZM120.063 222.25H116.063V218.25H120.063V222.25ZM132.063 202.25V206.25H120.063V202.25H132.063ZM116.063 206.25H120.063V210.25H116.063V206.25ZM120.063 210.25H132.063V214.25H120.063V210.25ZM132.063 214.25H136.063V222.25H132.063V214.25ZM132.063 206.25H136.063V210.25H132.063V206.25ZM144.078 202.25H148.078V206.25H152.078V210.25H148.078V218.25H152.078V222.25H148.078V234.25H144.078V202.25ZM152.078 202.25H160.078V206.25H152.078V202.25ZM160.078 206.25H164.078V222.25H160.078V206.25ZM152.078 222.25H160.078V226.25H152.078V222.25ZM172.094 214.25H176.094V222.25H172.094V214.25ZM176.094 222.25H184.094V226.25H176.094V222.25ZM184.094 218.25H188.094V214.25H176.094V210.25H188.094V206.25H192.094V226.25H188.094V222.25H184.094V218.25ZM176.094 202.25H188.094V206.25H176.094V202.25ZM204.109 202.25H216.109V206.25H204.109V202.25ZM200.109 206.25H204.109V222.25H200.109V206.25ZM204.109 222.25H216.109V226.25H204.109V222.25ZM216.109 206.25H220.109V210.25H216.109V206.25ZM216.109 218.25H220.109V222.25H216.109V218.25ZM232.125 202.25H244.125V206.25H232.125V202.25ZM228.125 206.25H232.125V210.25H244.125V206.25H248.125V214.25H232.125V222.25H228.125V206.25ZM232.125 222.25H244.125V226.25H232.125V222.25ZM244.125 218.25H248.125V222.25H244.125V218.25ZM260.141 202.25H272.141V206.25H260.141V202.25ZM256.141 206.25H260.141V222.25H256.141V206.25ZM260.141 222.25H272.141V226.25H260.141V222.25ZM272.141 206.25H276.141V210.25H272.141V206.25ZM272.141 218.25H276.141V222.25H272.141V218.25ZM292.156 202.25V206.25H296.156V210.25H292.156V222.25H300.156V226.25H284.156V222.25H288.156V206.25H284.156V202.25H292.156ZM304.156 202.25V206.25H296.156V202.25H304.156ZM312.172 214.25H316.172V222.25H312.172V214.25ZM316.172 222.25H324.172V226.25H316.172V222.25ZM324.172 218.25H328.172V214.25H316.172V210.25H328.172V206.25H332.172V226.25H328.172V222.25H324.172V218.25ZM316.172 202.25H328.172V206.25H316.172V202.25ZM344.188 206.25H340.188V202.25H344.188V198.25H348.188V202.25H360.188V206.25H348.188V222.25H356.188V226.25H340.188V222.25H344.188V206.25ZM348.188 194.25H360.188V198.25H348.188V194.25ZM372.203 194.25H376.203V202.25H388.203V206.25H376.203V222.25H372.203V206.25H368.203V202.25H372.203V194.25ZM376.203 222.25H384.203V226.25H376.203V222.25ZM384.203 218.25H388.203V222.25H384.203V218.25ZM396.219 222.25H416.219V226.25H396.219V222.25ZM424.234 202.25H428.234V206.25H432.234V210.25H428.234V226.25H424.234V202.25ZM432.234 202.25H440.234V206.25H432.234V202.25ZM440.234 206.25H444.234V226.25H440.234V206.25ZM452.25 214.25H456.25V222.25H452.25V214.25ZM456.25 222.25H464.25V226.25H456.25V222.25ZM464.25 218.25H468.25V214.25H456.25V210.25H468.25V206.25H472.25V226.25H468.25V222.25H464.25V218.25ZM456.25 202.25H468.25V206.25H456.25V202.25ZM480.266 202.25H488.266V206.25H484.266V226.25H480.266V202.25ZM488.266 206.25H492.266V226.25H488.266V206.25ZM496.266 206.25H492.266V202.25H496.266V206.25ZM496.266 206.25H500.266V226.25H496.266V206.25ZM512.281 202.25H524.281V206.25H512.281V202.25ZM508.281 206.25H512.281V210.25H524.281V206.25H528.281V214.25H512.281V222.25H508.281V206.25ZM512.281 222.25H524.281V226.25H512.281V222.25ZM524.281 218.25H528.281V222.25H524.281V218.25ZM544.297 218.25H548.297V226.25H544.297V218.25ZM540.297 226.25H544.297V230.25H540.297V226.25ZM116.063 274.25H120.063V282.25H116.063V274.25ZM120.063 282.25H128.063V286.25H120.063V282.25ZM128.063 278.25H132.063V274.25H120.063V270.25H132.063V266.25H136.063V286.25H132.063V282.25H128.063V278.25ZM120.063 262.25H132.063V266.25H120.063V262.25ZM160.078 282.25V286.25H148.078V282.25H160.078ZM148.078 282.25H144.078V278.25H148.078V282.25ZM160.078 262.25V266.25H148.078V262.25H160.078ZM144.078 266.25H148.078V270.25H144.078V266.25ZM148.078 270.25H160.078V274.25H148.078V270.25ZM160.078 274.25H164.078V282.25H160.078V274.25ZM160.078 266.25H164.078V270.25H160.078V266.25ZM176.094 254.25H180.094V262.25H192.094V266.25H180.094V282.25H176.094V266.25H172.094V262.25H176.094V254.25ZM180.094 282.25H188.094V286.25H180.094V282.25ZM188.094 278.25H192.094V282.25H188.094V278.25ZM208.109 262.25V266.25H212.109V270.25H208.109V282.25H216.109V286.25H200.109V282.25H204.109V266.25H200.109V262.25H208.109ZM220.109 262.25V266.25H212.109V262.25H220.109ZM232.125 262.25H244.125V266.25H232.125V262.25ZM244.125 266.25H248.125V282.25H244.125V266.25ZM228.125 266.25H232.125V282.25H228.125V266.25ZM232.125 282.25H244.125V286.25H232.125V282.25ZM256.141 262.25H260.141V266.25H264.141V270.25H260.141V286.25H256.141V262.25ZM264.141 262.25H272.141V266.25H264.141V262.25ZM272.141 266.25H276.141V286.25H272.141V266.25ZM284.156 274.25H288.156V282.25H284.156V274.25ZM288.156 282.25H296.156V286.25H288.156V282.25ZM296.156 278.25H300.156V274.25H288.156V270.25H300.156V266.25H304.156V286.25H300.156V282.25H296.156V278.25ZM288.156 262.25H300.156V266.25H288.156V262.25ZM312.172 262.25H316.172V282.25H312.172V262.25ZM316.172 282.25H324.172V286.25H316.172V282.25ZM328.172 262.25H332.172V286.25H328.172V282.25H324.172V278.25H328.172V262.25ZM344.188 254.25H348.188V262.25H360.188V266.25H348.188V282.25H344.188V266.25H340.188V262.25H344.188V254.25ZM348.188 282.25H356.188V286.25H348.188V282.25ZM356.188 278.25H360.188V282.25H356.188V278.25ZM368.203 282.25H388.203V286.25H368.203V282.25ZM400.219 262.25H412.219V266.25H400.219V262.25ZM396.219 266.25H400.219V282.25H396.219V266.25ZM400.219 282.25H412.219V286.25H400.219V282.25ZM412.219 266.25H416.219V270.25H412.219V266.25ZM412.219 278.25H416.219V282.25H412.219V278.25ZM428.234 262.25H440.234V266.25H428.234V262.25ZM440.234 266.25H444.234V282.25H440.234V266.25ZM424.234 266.25H428.234V282.25H424.234V266.25ZM428.234 282.25H440.234V286.25H428.234V282.25ZM452.25 262.25H456.25V282.25H452.25V262.25ZM456.25 282.25H464.25V286.25H456.25V282.25ZM468.25 262.25H472.25V286.25H468.25V282.25H464.25V278.25H468.25V262.25ZM480.266 262.25H484.266V266.25H488.266V270.25H484.266V286.25H480.266V262.25ZM488.266 262.25H496.266V266.25H488.266V262.25ZM496.266 266.25H500.266V286.25H496.266V266.25ZM512.281 254.25H516.281V262.25H528.281V266.25H516.281V282.25H512.281V266.25H508.281V262.25H512.281V254.25ZM516.281 282.25H524.281V286.25H516.281V282.25ZM524.281 278.25H528.281V282.25H524.281V278.25ZM120.063 382.25H128.063V386.25H120.063V382.25ZM116.063 386.25H120.063V402.25H116.063V386.25ZM120.063 402.25H128.063V406.25H120.063V402.25ZM120.063 410.25H132.063V414.25H120.063V410.25ZM128.063 398.25H132.063V390.25H128.063V386.25H132.063V382.25H136.063V410.25H132.063V402.25H128.063V398.25ZM144.078 394.25H148.078V402.25H144.078V394.25ZM148.078 402.25H156.078V406.25H148.078V402.25ZM156.078 398.25H160.078V394.25H148.078V390.25H160.078V386.25H164.078V406.25H160.078V402.25H156.078V398.25ZM148.078 382.25H160.078V386.25H148.078V382.25ZM172.094 382.25H180.094V386.25H176.094V406.25H172.094V382.25ZM180.094 386.25H184.094V406.25H180.094V386.25ZM188.094 386.25H184.094V382.25H188.094V386.25ZM188.094 386.25H192.094V406.25H188.094V386.25ZM200.109 382.25H208.109V386.25H204.109V406.25H200.109V382.25ZM208.109 386.25H212.109V406.25H208.109V386.25ZM216.109 386.25H212.109V382.25H216.109V386.25ZM216.109 386.25H220.109V406.25H216.109V386.25ZM228.125 394.25H232.125V402.25H228.125V394.25ZM232.125 402.25H240.125V406.25H232.125V402.25ZM240.125 398.25H244.125V394.25H232.125V390.25H244.125V386.25H248.125V406.25H244.125V402.25H240.125V398.25ZM232.125 382.25H244.125V386.25H232.125V382.25ZM256.141 402.25H276.141V406.25H256.141V402.25ZM284.156 374.25H288.156V386.25H292.156V390.25H288.156V398.25H292.156V402.25H288.156V406.25H284.156V374.25ZM292.156 402.25H300.156V406.25H292.156V402.25ZM300.156 386.25H304.156V402.25H300.156V386.25ZM292.156 382.25H300.156V386.25H292.156V382.25ZM320.172 378.25H312.172V374.25H324.172V402.25H332.172V406.25H312.172V402.25H320.172V378.25ZM344.188 382.25H356.188V386.25H344.188V382.25ZM356.188 386.25H360.188V402.25H356.188V386.25ZM340.188 386.25H344.188V402.25H340.188V386.25ZM344.188 402.25H356.188V406.25H344.188V402.25ZM372.203 382.25H384.203V386.25H372.203V382.25ZM368.203 386.25H372.203V402.25H368.203V386.25ZM372.203 402.25H384.203V406.25H372.203V402.25ZM384.203 386.25H388.203V390.25H384.203V386.25ZM384.203 398.25H388.203V402.25H384.203V398.25ZM396.219 402.25H416.219V406.25H396.219V402.25ZM424.234 382.25H432.234V386.25H428.234V406.25H424.234V382.25ZM432.234 386.25H436.234V406.25H432.234V386.25ZM440.234 386.25H436.234V382.25H440.234V386.25ZM440.234 386.25H444.234V406.25H440.234V386.25ZM460.25 374.25H464.25V378.25H460.25V374.25ZM460.25 386.25H452.25V382.25H464.25V402.25H472.25V406.25H452.25V402.25H460.25V386.25ZM496.266 402.25V406.25H484.266V402.25H496.266ZM484.266 402.25H480.266V398.25H484.266V402.25ZM496.266 382.25V386.25H484.266V382.25H496.266ZM480.266 386.25H484.266V390.25H480.266V386.25ZM484.266 390.25H496.266V394.25H484.266V390.25ZM496.266 394.25H500.266V402.25H496.266V394.25ZM496.266 386.25H500.266V390.25H496.266V386.25ZM524.281 402.25V406.25H512.281V402.25H524.281ZM512.281 402.25H508.281V398.25H512.281V402.25ZM524.281 382.25V386.25H512.281V382.25H524.281ZM508.281 386.25H512.281V390.25H508.281V386.25ZM512.281 390.25H524.281V394.25H512.281V390.25ZM524.281 394.25H528.281V402.25H524.281V394.25ZM524.281 386.25H528.281V390.25H524.281V386.25ZM544.297 374.25H548.297V378.25H544.297V374.25ZM544.297 386.25H536.297V382.25H548.297V402.25H556.297V406.25H536.297V402.25H544.297V386.25ZM568.313 382.25H580.313V386.25H568.313V382.25ZM580.313 386.25H584.313V402.25H580.313V386.25ZM564.313 386.25H568.313V402.25H564.313V386.25ZM568.313 402.25H580.313V406.25H568.313V402.25ZM592.328 382.25H596.328V386.25H600.328V390.25H596.328V406.25H592.328V382.25ZM600.328 382.25H608.328V386.25H600.328V382.25ZM608.328 386.25H612.328V406.25H608.328V386.25ZM636.344 402.25V406.25H624.344V402.25H636.344ZM624.344 402.25H620.344V398.25H624.344V402.25ZM636.344 382.25V386.25H624.344V382.25H636.344ZM620.344 386.25H624.344V390.25H620.344V386.25ZM624.344 390.25H636.344V394.25H624.344V390.25ZM636.344 394.25H640.344V402.25H636.344V394.25ZM636.344 386.25H640.344V390.25H636.344V386.25ZM656.359 398.25H660.359V406.25H656.359V398.25ZM652.359 406.25H656.359V410.25H652.359V406.25ZM656.359 382.25H660.359V390.25H656.359V382.25Z" fill="#8E8E8E"/>
</svg>
