<svg width="657" height="400" viewBox="0 0 657 400" fill="none" xmlns="http://www.w3.org/2000/svg">
<path d="M1.19209e-07 4H4V12H1.19209e-07V4ZM4 12H16V16H4V12ZM16 28V32H4V28H16ZM4 28H1.19209e-07V24H4V28ZM16 16H20V28H16V16ZM4 -9.53674e-07H16V4H4V-9.53674e-07ZM16 4H20V8H16V4ZM28.0156 -9.53674e-07H48.0156V4H32.0156V12H44.0156V16H32.0156V28H48.0156V32H28.0156V-9.53674e-07ZM56.0313 -9.53674e-07H60.0313V28H76.0313V32H56.0313V-9.53674e-07ZM84.0469 -9.53674e-07H104.047V4H88.0469V12H100.047V16H88.0469V28H104.047V32H84.0469V-9.53674e-07ZM112.063 4H116.063V28H112.063V4ZM116.063 28H128.063V32H116.063V28ZM128.063 24H132.063V28H128.063V24ZM116.063 -9.53674e-07H128.063V4H116.063V-9.53674e-07ZM128.063 4H132.063V8H128.063V4ZM140.078 -9.53674e-07H160.078V4H152.078V32H148.078V4H140.078V-9.53674e-07ZM1.19209e-07 300H20V304H4V312H16V316H4V332H1.19209e-07V300ZM28.0156 300H44.0156V304H32.0156V316H44.0156V324H40.0156V320H32.0156V332H28.0156V300ZM44.0156 304H48.0156V316H44.0156V304ZM44.0156 324H48.0156V332H44.0156V324ZM56.0313 304H60.0313V328H56.0313V304ZM60.0313 328H72.0313V332H60.0313V328ZM72.0313 304H76.0313V328H72.0313V304ZM60.0313 300H72.0313V304H60.0313V300ZM84.0469 300H88.0469V308H92.0469V312H88.0469V332H84.0469V300ZM100.047 312H96.0469V308H100.047V300H104.047V332H100.047V312ZM92.0469 312H96.0469V320H92.0469V312Z" fill="#FFA43A"/>
<path d="M112.063 68H120.063V72H116.063V92H112.063V68ZM120.063 72H124.063V92H120.063V72ZM128.063 72H124.063V68H128.063V72ZM128.063 72H132.063V92H128.063V72ZM148.078 60H152.078V64H148.078V60ZM148.078 72H144.078V68H152.078V88H160.078V92H140.078V88H148.078V72ZM184.094 88V92H172.094V88H184.094ZM172.094 88H168.094V84H172.094V88ZM184.094 68V72H172.094V68H184.094ZM168.094 72H172.094V76H168.094V72ZM172.094 76H184.094V80H172.094V76ZM184.094 80H188.094V88H184.094V80ZM212.109 88V92H200.109V88H212.109ZM200.109 88H196.109V84H200.109V88ZM212.109 68V72H200.109V68H212.109ZM196.109 72H200.109V76H196.109V72ZM200.109 76H212.109V80H200.109V76ZM212.109 80H216.109V88H212.109V80ZM232.125 60H236.125V64H232.125V60ZM232.125 72H228.125V68H236.125V88H244.125V92H224.125V88H232.125V72ZM256.141 68H268.141V72H256.141V68ZM268.141 72H272.141V88H268.141V72ZM252.141 72H256.141V88H252.141V72ZM256.141 88H268.141V92H256.141V88ZM280.156 68H284.156V72H288.156V76H284.156V92H280.156V68ZM288.156 68H296.156V72H288.156V68ZM296.156 72H300.156V92H296.156V72ZM308.172 88H328.172V92H308.172V88ZM336.188 68H340.188V72H344.188V76H340.188V92H336.188V68ZM344.188 68H352.188V72H344.188V68ZM352.188 72H356.188V92H352.188V72ZM364.203 80H368.203V88H364.203V80ZM368.203 88H376.203V92H368.203V88ZM376.203 84H380.203V80H368.203V76H380.203V72H384.203V92H380.203V88H376.203V84ZM368.203 68H380.203V72H368.203V68ZM392.219 68H400.219V72H396.219V92H392.219V68ZM400.219 72H404.219V92H400.219V72ZM408.219 72H404.219V68H408.219V72ZM408.219 72H412.219V92H408.219V72ZM424.234 68H436.234V72H424.234V68ZM420.234 72H424.234V76H436.234V72H440.234V80H424.234V88H420.234V72ZM424.234 88H436.234V92H424.234V88ZM436.234 84H440.234V88H436.234V84ZM456.25 84H460.25V92H456.25V84ZM452.25 92H456.25V96H452.25V92ZM120.063 124H116.063V120H124.063V148H132.063V152H112.063V148H120.063V124ZM140.078 140H144.078V148H140.078V140ZM144.078 148H152.078V152H144.078V148ZM152.078 144H156.078V140H144.078V136H156.078V132H160.078V152H156.078V148H152.078V144ZM144.078 128H156.078V132H144.078V128ZM168.094 128H172.094V148H168.094V128ZM172.094 148H180.094V152H172.094V148ZM184.094 128H188.094V152H184.094V148H180.094V144H184.094V128ZM196.109 128H200.109V132H204.109V136H200.109V152H196.109V128ZM204.109 128H212.109V132H204.109V128ZM212.109 132H216.109V152H212.109V132ZM228.125 128H240.125V132H228.125V128ZM224.125 132H228.125V148H224.125V132ZM228.125 148H240.125V152H228.125V148ZM240.125 132H244.125V136H240.125V132ZM240.125 144H244.125V148H240.125V144ZM252.141 120H256.141V132H260.141V136H256.141V152H252.141V120ZM268.141 132H272.141V152H268.141V132ZM260.141 128H268.141V132H260.141V128ZM280.156 148H300.156V152H280.156V148ZM324.172 120H328.172V152H324.172V148H320.172V144H324.172V136H320.172V132H324.172V120ZM320.172 148V152H312.172V148H320.172ZM312.172 148H308.172V132H312.172V148ZM320.172 132H312.172V128H320.172V132ZM336.188 140H340.188V148H336.188V140ZM340.188 148H348.188V152H340.188V148ZM348.188 144H352.188V140H340.188V136H352.188V132H356.188V152H352.188V148H348.188V144ZM340.188 128H352.188V132H340.188V128ZM368.203 120H372.203V128H380.203V132H372.203V148H368.203V132H364.203V128H368.203V120ZM372.203 148H380.203V152H372.203V148ZM380.203 144H384.203V148H380.203V144ZM396.219 128H408.219V132H396.219V128ZM392.219 132H396.219V136H408.219V132H412.219V140H396.219V148H392.219V132ZM396.219 148H408.219V152H396.219V148ZM408.219 144H412.219V148H408.219V144ZM428.234 144H432.234V152H428.234V144ZM424.234 152H428.234V156H424.234V152ZM128.063 208V212H116.063V208H128.063ZM116.063 208H112.063V204H116.063V208ZM128.063 188V192H116.063V188H128.063ZM112.063 192H116.063V196H112.063V192ZM116.063 196H128.063V200H116.063V196ZM128.063 200H132.063V208H128.063V200ZM140.078 188H144.078V192H148.078V196H144.078V204H148.078V208H144.078V220H140.078V188ZM148.078 188H156.078V192H148.078V188ZM156.078 192H160.078V208H156.078V192ZM148.078 208H156.078V212H148.078V208ZM168.094 200H172.094V208H168.094V200ZM172.094 208H180.094V212H172.094V208ZM180.094 204H184.094V200H172.094V196H184.094V192H188.094V212H184.094V208H180.094V204ZM172.094 188H184.094V192H172.094V188ZM200.109 188H212.109V192H200.109V188ZM196.109 192H200.109V208H196.109V192ZM200.109 208H212.109V212H200.109V208ZM212.109 192H216.109V196H212.109V192ZM212.109 204H216.109V208H212.109V204ZM228.125 188H240.125V192H228.125V188ZM224.125 192H228.125V196H240.125V192H244.125V200H228.125V208H224.125V192ZM228.125 208H240.125V212H228.125V208ZM240.125 204H244.125V208H240.125V204ZM256.141 188H268.141V192H256.141V188ZM252.141 192H256.141V208H252.141V192ZM256.141 208H268.141V212H256.141V208ZM268.141 192H272.141V196H268.141V192ZM268.141 204H272.141V208H268.141V204ZM280.156 188H284.156V192H288.156V196H284.156V212H280.156V188ZM296.156 188V192H288.156V188H296.156ZM296.156 192H300.156V196H296.156V192ZM308.172 200H312.172V208H308.172V200ZM312.172 208H320.172V212H312.172V208ZM320.172 204H324.172V200H312.172V196H324.172V192H328.172V212H324.172V208H320.172V204ZM312.172 188H324.172V192H312.172V188ZM340.188 192H336.188V188H340.188V184H344.188V188H352.188V192H344.188V212H340.188V192ZM344.188 180H356.188V184H344.188V180ZM368.203 180H372.203V188H380.203V192H372.203V208H368.203V192H364.203V188H368.203V180ZM372.203 208H380.203V212H372.203V208ZM380.203 204H384.203V208H380.203V204ZM392.219 208H412.219V212H392.219V208ZM420.234 188H424.234V192H428.234V196H424.234V212H420.234V188ZM428.234 188H436.234V192H428.234V188ZM436.234 192H440.234V212H436.234V192ZM448.25 200H452.25V208H448.25V200ZM452.25 208H460.25V212H452.25V208ZM460.25 204H464.25V200H452.25V196H464.25V192H468.25V212H464.25V208H460.25V204ZM452.25 188H464.25V192H452.25V188ZM476.266 188H484.266V192H480.266V212H476.266V188ZM484.266 192H488.266V212H484.266V192ZM492.266 192H488.266V188H492.266V192ZM492.266 192H496.266V212H492.266V192ZM508.281 188H520.281V192H508.281V188ZM504.281 192H508.281V196H520.281V192H524.281V200H508.281V208H504.281V192ZM508.281 208H520.281V212H508.281V208ZM520.281 204H524.281V208H520.281V204ZM540.297 204H544.297V212H540.297V204ZM536.297 212H540.297V216H536.297V212ZM112.063 260H116.063V268H112.063V260ZM116.063 268H124.063V272H116.063V268ZM124.063 264H128.063V260H116.063V256H128.063V252H132.063V272H128.063V268H124.063V264ZM116.063 248H128.063V252H116.063V248ZM156.078 268V272H144.078V268H156.078ZM144.078 268H140.078V264H144.078V268ZM156.078 248V252H144.078V248H156.078ZM140.078 252H144.078V256H140.078V252ZM144.078 256H156.078V260H144.078V256ZM156.078 260H160.078V268H156.078V260ZM172.094 240H176.094V248H184.094V252H176.094V268H172.094V252H168.094V248H172.094V240ZM176.094 268H184.094V272H176.094V268ZM184.094 264H188.094V268H184.094V264ZM196.109 248H200.109V252H204.109V256H200.109V272H196.109V248ZM212.109 248V252H204.109V248H212.109ZM212.109 252H216.109V256H212.109V252ZM228.125 248H240.125V252H228.125V248ZM240.125 252H244.125V268H240.125V252ZM224.125 252H228.125V268H224.125V252ZM228.125 268H240.125V272H228.125V268ZM252.141 248H256.141V252H260.141V256H256.141V272H252.141V248ZM260.141 248H268.141V252H260.141V248ZM268.141 252H272.141V272H268.141V252ZM280.156 260H284.156V268H280.156V260ZM284.156 268H292.156V272H284.156V268ZM292.156 264H296.156V260H284.156V256H296.156V252H300.156V272H296.156V268H292.156V264ZM284.156 248H296.156V252H284.156V248ZM308.172 248H312.172V268H308.172V248ZM312.172 268H320.172V272H312.172V268ZM324.172 248H328.172V272H324.172V268H320.172V264H324.172V248ZM340.188 240H344.188V248H352.188V252H344.188V268H340.188V252H336.188V248H340.188V240ZM344.188 268H352.188V272H344.188V268ZM352.188 264H356.188V268H352.188V264ZM364.203 268H384.203V272H364.203V268ZM396.219 248H408.219V252H396.219V248ZM392.219 252H396.219V268H392.219V252ZM396.219 268H408.219V272H396.219V268ZM408.219 252H412.219V256H408.219V252ZM408.219 264H412.219V268H408.219V264ZM424.234 248H436.234V252H424.234V248ZM436.234 252H440.234V268H436.234V252ZM420.234 252H424.234V268H420.234V252ZM424.234 268H436.234V272H424.234V268ZM448.25 248H452.25V268H448.25V248ZM452.25 268H460.25V272H452.25V268ZM464.25 248H468.25V272H464.25V268H460.25V264H464.25V248ZM476.266 248H480.266V252H484.266V256H480.266V272H476.266V248ZM484.266 248H492.266V252H484.266V248ZM492.266 252H496.266V272H492.266V252ZM508.281 240H512.281V248H520.281V252H512.281V268H508.281V252H504.281V248H508.281V240ZM512.281 268H520.281V272H512.281V268ZM520.281 264H524.281V268H520.281V264ZM116.063 368H124.063V372H116.063V368ZM112.063 372H116.063V388H112.063V372ZM116.063 388H124.063V392H116.063V388ZM116.063 396H128.063V400H116.063V396ZM124.063 384H128.063V376H124.063V372H128.063V368H132.063V396H128.063V388H124.063V384ZM140.078 380H144.078V388H140.078V380ZM144.078 388H152.078V392H144.078V388ZM152.078 384H156.078V380H144.078V376H156.078V372H160.078V392H156.078V388H152.078V384ZM144.078 368H156.078V372H144.078V368ZM168.094 368H176.094V372H172.094V392H168.094V368ZM176.094 372H180.094V392H176.094V372ZM184.094 372H180.094V368H184.094V372ZM184.094 372H188.094V392H184.094V372ZM196.109 368H204.109V372H200.109V392H196.109V368ZM204.109 372H208.109V392H204.109V372ZM212.109 372H208.109V368H212.109V372ZM212.109 372H216.109V392H212.109V372ZM224.125 380H228.125V388H224.125V380ZM228.125 388H236.125V392H228.125V388ZM236.125 384H240.125V380H228.125V376H240.125V372H244.125V392H240.125V388H236.125V384ZM228.125 368H240.125V372H228.125V368ZM252.141 388H272.141V392H252.141V388ZM280.156 360H284.156V372H288.156V376H284.156V384H288.156V388H284.156V392H280.156V360ZM288.156 388H296.156V392H288.156V388ZM296.156 372H300.156V388H296.156V372ZM288.156 368H296.156V372H288.156V368ZM316.172 364H312.172V360H320.172V388H328.172V392H308.172V388H316.172V364ZM340.188 368H352.188V372H340.188V368ZM352.188 372H356.188V388H352.188V372ZM336.188 372H340.188V388H336.188V372ZM340.188 388H352.188V392H340.188V388ZM368.203 368H380.203V372H368.203V368ZM364.203 372H368.203V388H364.203V372ZM368.203 388H380.203V392H368.203V388ZM380.203 372H384.203V376H380.203V372ZM380.203 384H384.203V388H380.203V384ZM392.219 388H412.219V392H392.219V388ZM420.234 368H428.234V372H424.234V392H420.234V368ZM428.234 372H432.234V392H428.234V372ZM436.234 372H432.234V368H436.234V372ZM436.234 372H440.234V392H436.234V372ZM456.25 360H460.25V364H456.25V360ZM456.25 372H452.25V368H460.25V388H468.25V392H448.25V388H456.25V372ZM492.266 388V392H480.266V388H492.266ZM480.266 388H476.266V384H480.266V388ZM492.266 368V372H480.266V368H492.266ZM476.266 372H480.266V376H476.266V372ZM480.266 376H492.266V380H480.266V376ZM492.266 380H496.266V388H492.266V380ZM520.281 388V392H508.281V388H520.281ZM508.281 388H504.281V384H508.281V388ZM520.281 368V372H508.281V368H520.281ZM504.281 372H508.281V376H504.281V372ZM508.281 376H520.281V380H508.281V376ZM520.281 380H524.281V388H520.281V380ZM540.297 360H544.297V364H540.297V360ZM540.297 372H536.297V368H544.297V388H552.297V392H532.297V388H540.297V372ZM564.313 368H576.313V372H564.313V368ZM576.313 372H580.313V388H576.313V372ZM560.313 372H564.313V388H560.313V372ZM564.313 388H576.313V392H564.313V388ZM588.328 368H592.328V372H596.328V376H592.328V392H588.328V368ZM596.328 368H604.328V372H596.328V368ZM604.328 372H608.328V392H604.328V372ZM632.344 388V392H620.344V388H632.344ZM620.344 388H616.344V384H620.344V388ZM632.344 368V372H620.344V368H632.344ZM616.344 372H620.344V376H616.344V372ZM620.344 376H632.344V380H620.344V376ZM632.344 380H636.344V388H632.344V380ZM652.359 384H656.359V392H652.359V384ZM648.359 392H652.359V396H648.359V392ZM652.359 368H656.359V376H652.359V368Z" fill="#BBBBBB"/>
</svg>
